<?xml version="1.0" encoding="UTF-8"?><svg id="Layer_2" xmlns="http://www.w3.org/2000/svg" viewBox="0 0 393.18 347.76"><defs><style>.cls-1{fill:#007fc4;}</style></defs><g id="Layer_1-2"><path class="cls-1" d="M334.52,3.34c-10.59,10.1-19.72,21.88-28.18,33.81-8.19,11.56-15.14,23.95-18.48,37.82-.38,1.58,1.61,3.05,3.03,2.33,9.38-4.76,19.05-9.56,29.1-12.72l-2.58-3.39c-7.82,10.35-12.49,22.96-16.24,35.27-2.16,7.07-4.09,14.27-5.48,21.53-.36,1.9,2.06,3.17,3.51,2.05,10.39-7.99,21.59-16.58,33.82-21.47l-2.58-3.39c-9.77,13.56-15.16,29.98-19.42,45.98-3.8,14.29-6.53,28.87-8.5,43.52-.4,2.96-.78,5.93-1.06,8.91-.19,2.02,2.64,3.58,3.92,1.65,19.53-29.45,39.4-58.71,60.06-87.37,6.53-9.06,13.12-18.08,20.13-26.78,1-1.25,.24-3.42-1.44-3.54-10.71-.79-21.63-.56-32.11,1.94-3.7,.88-7.65,1.89-11.01,3.74l2.58,3.39c12.48-15.55,24.96-31.1,37.44-46.64,1.08-1.35,.17-3.25-1.44-3.54-8.65-1.55-17.93-2.4-26.64-1.03,.68,1.18,1.35,2.36,2.03,3.54,11.39-12.27,23.86-23.93,37.36-33.88,1.5-1.11,.87-3.74-1.04-3.93-18.38-1.83-37.58-1.53-55.75,1.79-2.78,.51-2.21,4.88,.59,4.36,17.81-3.25,36.55-3.58,54.57-1.79l-1.04-3.93c-13.8,10.17-26.52,22.12-38.16,34.67-1.33,1.43,.22,3.82,2.03,3.54,8.35-1.31,17.18-.45,25.46,1.03-.48-1.18-.96-2.36-1.44-3.54-12.48,15.55-24.96,31.1-37.44,46.64-1.3,1.62,.58,4.49,2.58,3.39,3.03-1.67,6.57-2.65,9.91-3.45,10.11-2.41,20.6-2.7,30.93-1.94-.48-1.18-.96-2.36-1.44-3.54-13.58,16.85-25.94,34.72-38.29,52.48-11.75,16.9-23.33,33.92-34.78,51.01-2.38,3.55-4.75,7.1-7.11,10.66,1.31,.55,2.61,1.1,3.92,1.65,2.33-24.3,7.2-49.19,15.77-72.06,3.18-8.49,7-16.84,12.31-24.21,1.27-1.77-.49-4.23-2.58-3.39-12.58,5.03-24.12,13.82-34.8,22.03l3.51,2.05c1.32-6.88,3.13-13.7,5.17-20.39,3.64-11.92,8.08-24.25,15.66-34.29,1.4-1.86-.55-4.03-2.58-3.39-10.05,3.17-19.72,7.96-29.1,12.72,1.01,.78,2.02,1.55,3.03,2.33,3.24-13.5,10.31-25.57,18.34-36.75,8.04-11.21,16.62-22.42,26.62-31.96,2.03-1.94-.61-5.46-2.67-3.5Z"/><path class="cls-1" d="M35.81,230.09c6.47,6.17,12.04,13.36,17.2,20.64,5,7.06,9.25,14.62,11.28,23.09,.23,.97-.98,1.86-1.85,1.42-5.73-2.91-11.63-5.83-17.77-7.77l1.57-2.07c4.77,6.32,7.62,14.02,9.91,21.53,1.32,4.32,2.5,8.71,3.35,13.15,.22,1.16-1.26,1.94-2.15,1.25-6.34-4.88-13.18-10.12-20.65-13.11l1.57-2.07c5.96,8.28,9.26,18.3,11.85,28.07,2.32,8.72,3.99,17.62,5.19,26.57,.24,1.81,.48,3.62,.65,5.44,.12,1.23-1.61,2.19-2.39,1.01-11.92-17.98-24.05-35.84-36.67-53.34-3.98-5.53-8.01-11.04-12.29-16.35-.61-.76-.15-2.09,.88-2.16,6.54-.48,13.2-.34,19.6,1.18,2.26,.54,4.67,1.16,6.72,2.29l-1.57,2.07c-7.62-9.49-15.24-18.98-22.86-28.48-.66-.82-.1-1.99,.88-2.16,5.28-.94,10.95-1.46,16.27-.63-.41,.72-.83,1.44-1.24,2.16-6.95-7.49-14.57-14.61-22.81-20.68-.92-.68-.53-2.29,.63-2.4,11.22-1.12,22.94-.93,34.04,1.09,1.69,.31,1.35,2.98-.36,2.66-10.87-1.99-22.32-2.19-33.32-1.09l.63-2.4c8.43,6.21,16.19,13.5,23.3,21.16,.81,.87-.14,2.33-1.24,2.16-5.1-.8-10.49-.27-15.54,.63,.29-.72,.59-1.44,.88-2.16,7.62,9.49,15.24,18.98,22.86,28.48,.79,.99-.36,2.74-1.57,2.07-1.85-1.02-4.01-1.62-6.05-2.1-6.17-1.47-12.58-1.65-18.88-1.18,.29-.72,.59-1.44,.88-2.16,8.29,10.29,15.84,21.2,23.38,32.04,7.17,10.31,14.24,20.71,21.24,31.14,1.45,2.17,2.9,4.33,4.34,6.51-.8,.34-1.59,.67-2.39,1.01-1.42-14.84-4.4-30.03-9.63-44-1.94-5.18-4.27-10.28-7.52-14.78-.78-1.08,.3-2.58,1.57-2.07,7.68,3.07,14.72,8.44,21.24,13.45l-2.15,1.25c-.8-4.2-1.91-8.36-3.16-12.45-2.22-7.28-4.93-14.81-9.56-20.93-.86-1.13,.33-2.46,1.57-2.07,6.14,1.93,12.04,4.86,17.77,7.77-.62,.47-1.23,.95-1.85,1.42-1.98-8.24-6.29-15.61-11.19-22.44-4.91-6.84-10.15-13.69-16.25-19.51-1.24-1.18,.38-3.33,1.63-2.14Z"/></g></svg>