<?xml version="1.0" encoding="UTF-8"?><svg id="Layer_2" xmlns="http://www.w3.org/2000/svg" viewBox="0 0 394.4 462.17"><g id="Layer_1-2"><g><path d="M90.97,444.69c1.31-.16,2.55,.8,2.7,2.12,.3,2.55,.65,5.08,.71,7.66,.03,1.46-.07,2.96-.3,4.4-.11,.72-.29,1.46-.65,2.09-.43,.75-1.23,1.44-2.16,1.14-1.28-.41-1.81-1.75-2.16-2.94-.39-1.29-.52-2.68-.61-4.03v.09c-.05-1.03-.06-2.05-.01-3.08,.06-1.04,.15-2.09,.23-3.13h0c.05-.63,.08-1.28,.11-1.92,.02-.53,.21-1.04,.5-1.45,.38-.51,.94-.87,1.63-.95Z"/><path d="M46.46,444.93c.58-.78,1.69-1.09,2.6-.84,.99,.27,1.69,1.12,1.84,2.12,.06,.46,.04,.9,0,1.36,0,.22,0,.45,0,.69,0,.36-.06,.71-.13,1.07-.12,.69-.25,1.38-.4,2.06-.31,1.38-.74,2.73-1.28,4.03-.54,1.28-1.22,2.59-2.1,3.67-.66,.81-1.97,2.3-3.09,1.3-.28-.26-.45-.69-.53-1.06-.14-.64-.16-1.31-.18-1.95-.02-.63,.05-1.27,.11-1.9,.06-.63,.13-1.26,.24-1.89,.22-1.28,.51-2.55,.87-3.81,.15-.52,.32-1.03,.48-1.56,.12-.34,.23-.7,.35-1.04,.1-.27,.26-.53,.4-.79,.05-.12,.1-.23,.15-.35,.16-.39,.38-.72,.62-1.06l.04-.05Z"/><path d="M1.67,407.74c.63-.25,1.28-.44,1.93-.6,1.26-.31,2.52-.57,3.8-.78,1.42-.23,2.85-.4,4.27-.62,.71-.12,1.43-.22,2.14-.34,.75-.13,1.52-.32,2.29-.21,.71,.09,1.3,.56,1.52,1.26,.24,.8-.12,1.57-.78,2.04-.63,.43-1.41,.59-2.14,.79-.7,.19-1.39,.38-2.09,.56-1.45,.37-2.88,.76-4.35,1.08-1.2,.26-2.43,.46-3.66,.61-.67,.08-1.36,.15-2.03,.13-.72,0-1.48-.13-2.02-.67-.56-.54-.72-1.43-.31-2.12,.04-.07,.09-.15,.14-.21,.33-.44,.8-.72,1.31-.93Z"/><path d="M9.26,359.88c.99,.28,1.95,.66,2.89,1.06,1.9,.8,3.75,1.71,5.6,2.6-.08-.04-.15-.08-.22-.11,.87,.41,1.75,.8,2.61,1.22,.69,.34,1.47,.66,2.04,1.17,.7,.65,.91,1.74,.56,2.62-.34,.88-1.22,1.49-2.17,1.51-.65,.01-1.28-.22-1.9-.42-.45-.15-.89-.31-1.33-.48-1.23-.5-2.44-1.07-3.64-1.63-1.6-.75-3.16-1.57-4.71-2.4-.83-.45-1.65-.93-2.38-1.54-.8-.69-1.41-1.79-.83-2.82,.04-.08,.08-.15,.13-.22,.76-1.02,2.22-.86,3.33-.56Z"/></g><g><path d="M377.63,.78c3.13-2.84,6.96,2.75,3.83,5.59-3.44,3.12-6.49,7.2-8.63,11.59-1.62,3.32-6.25,1.52-4.96-2.25,2.06-6.04,5.32-10.9,9.76-14.92Z"/><path d="M389.29,15.73c4.01-2.72,7.33,3.6,3.24,6.33-3.34,2.23-6.77,5.11-10.44,6.51-3.08,1.18-5.24-3.05-2.84-5.56,2.85-2.99,6.72-5.02,10.05-7.28Z"/></g></g></svg>