<?xml version="1.0" encoding="UTF-8"?><svg id="Layer_2" xmlns="http://www.w3.org/2000/svg" viewBox="0 0 152.54 234.48"><defs><style>.cls-1{fill:#333;}</style></defs><g id="Layer_1-2"><path class="cls-1" d="M46.7,41.72c-10.59,10.1-19.72,21.88-28.18,33.81C10.33,87.08,3.38,99.47,.05,113.34c-.38,1.58,1.61,3.05,3.03,2.33,9.38-4.76,19.05-9.56,29.1-12.72l-2.58-3.39c-7.82,10.35-12.49,22.96-16.24,35.27-2.16,7.07-4.09,14.27-5.48,21.53-.36,1.9,2.06,3.17,3.51,2.05,10.39-7.99,21.59-16.58,33.82-21.47l-2.58-3.39c-9.77,13.56-15.16,29.98-19.42,45.98-3.8,14.29-6.53,28.87-8.5,43.52-.4,2.96-.78,5.93-1.06,8.91-.19,2.02,2.64,3.58,3.92,1.65,19.53-29.45,39.4-58.71,60.06-87.37,6.53-9.06,13.12-18.08,20.13-26.78,1-1.25,.24-3.42-1.44-3.54-10.71-.79-21.63-.56-32.11,1.94-3.7,.88-7.65,1.89-11.01,3.74l2.58,3.39c12.48-15.55,24.96-31.1,37.44-46.64,1.08-1.35,.17-3.25-1.44-3.54-8.65-1.55-17.93-2.4-26.64-1.03,.68,1.18,1.35,2.36,2.03,3.54,11.39-12.27,23.86-23.93,37.36-33.88,1.5-1.11,.87-3.74-1.04-3.93-18.38-1.83-37.58-1.53-55.75,1.79-2.78,.51-2.21,4.88,.59,4.36,17.81-3.25,36.55-3.58,54.57-1.79l-1.04-3.93c-13.8,10.17-26.52,22.12-38.16,34.67-1.33,1.43,.22,3.82,2.03,3.54,8.35-1.31,17.18-.45,25.46,1.03-.48-1.18-.96-2.36-1.44-3.54-12.48,15.55-24.96,31.1-37.44,46.64-1.3,1.62,.58,4.49,2.58,3.39,3.03-1.67,6.57-2.65,9.91-3.45,10.11-2.41,20.6-2.7,30.93-1.94-.48-1.18-.96-2.36-1.44-3.54-13.58,16.85-25.94,34.72-38.29,52.48-11.75,16.9-23.33,33.92-34.78,51.01-2.38,3.55-4.75,7.1-7.11,10.66,1.31,.55,2.61,1.1,3.92,1.65,2.33-24.3,7.2-49.19,15.77-72.06,3.18-8.49,7-16.84,12.31-24.21,1.27-1.77-.49-4.23-2.58-3.39-12.58,5.03-24.12,13.82-34.8,22.03l3.51,2.05c1.32-6.88,3.13-13.7,5.17-20.39,3.64-11.92,8.08-24.25,15.66-34.29,1.4-1.86-.55-4.03-2.58-3.39-10.05,3.17-19.72,7.96-29.1,12.72,1.01,.78,2.02,1.55,3.03,2.33,3.24-13.5,10.31-25.57,18.34-36.75,8.04-11.21,16.62-22.42,26.62-31.96,2.03-1.94-.61-5.46-2.67-3.5Z"/><path class="cls-1" d="M137.13,1.52c-5.78,7.78-10.67,16.11-14.61,24.97-1.86,4.19,7.36,5.45,9.03,1.7,3.71-8.33,8.22-16.12,13.66-23.44,3.09-4.16-5.69-6.45-8.09-3.23h0Z"/><path class="cls-1" d="M143.2,35.02c-3.4,6.5-6.8,13.01-10.2,19.51-2.09,3.99,7.13,5.34,9.03,1.7,3.4-6.5,6.8-13.01,10.2-19.51,2.09-3.99-7.13-5.34-9.03-1.7h0Z"/></g></svg>