<?xml version="1.0" encoding="UTF-8"?><svg id="Layer_2" xmlns="http://www.w3.org/2000/svg" viewBox="0 0 49.03 69.84"><defs><style>.cls-1{fill:#333;}</style></defs><g id="Layer_1-2"><path class="cls-1" d="M48.55,10.04l.03,.32c-1.01-.44-2.03-.89-3.04-1.33l.45-.04c-.59,.44-1.18,.89-1.76,1.33-.18-1.35-5.22-3.76-6.32-4.41-2.25-1.34-4.58-2.52-6.95-3.64l4.1-.98c1.53,9.21,3.05,18.43,4.57,27.64,.29,1.77-3.31,1.34-4.1,.98-7.97-3.68-16.21-6.5-24.77-8.46,.99-.57,1.97-1.13,2.96-1.7,4.3,9.05,8.6,18.1,12.9,27.14,.84,1.78-2.71,1.76-3.53,1.56-7.41-1.84-14.71-3.99-21.93-6.45,1.18-.52,2.35-1.04,3.53-1.56,2.9,10,7.46,19.13,13.83,27.38,1.52,1.97-3.01,2.58-4.15,1.39-1.15-1.19-1.79-2.16-2.33-3.76-.68-2,4.07-2.41,4.64-.73,.26,1.23,.87,2.26,1.85,3.1-1.38,.46-2.77,.93-4.15,1.39C7.83,60.76,3.04,51.48,.06,41.19c-.51-1.77,2.48-1.92,3.53-1.56,7.22,2.46,14.52,4.61,21.93,6.45-1.18,.52-2.35,1.04-3.53,1.56-4.3-9.05-8.6-18.1-12.9-27.14-.7-1.47,2.12-1.89,2.96-1.7,9.31,2.14,18.21,5.17,26.89,9.17-1.37,.33-2.74,.65-4.1,.98-1.53-9.21-3.05-18.43-4.57-27.64-.29-1.76,3.31-1.35,4.1-.98,3.86,1.82,7.55,3.87,11.06,6.3,1.46,1.01,3.35,1.82,3.61,3.7,.1,.78-1.2,1.28-1.76,1.33l-.45,.04c-.95,.08-2.93,.02-3.04-1.33l-.03-.32c-.16-1.83,4.64-1.93,4.81,0h0Z"/></g></svg>