<?xml version="1.0" encoding="UTF-8"?><svg id="Layer_2" xmlns="http://www.w3.org/2000/svg" viewBox="0 0 267.44 109.61"><defs><style>.cls-1{fill:#333;}</style></defs><g id="Layer_1-2"><g><path class="cls-1" d="M4.62,108.88c17.58-19.32,35.15-38.64,52.73-57.96h-4.18c10.2,13.74,20.39,27.49,30.59,41.23,.87,1.17,3.34,1.27,4.18,0C110.88,57.53,139.84,27.38,173.52,3.07c-1.35-.27-2.7-.53-4.04-.8,3.64,17.49,12.02,33.25,20.05,49.03,4.15,8.14,8.29,16.29,12.44,24.43,3.45,6.77,6.91,13.24,12.54,18.47,.86,.8,3.16,.75,3.8-.37,12.42-21.67,26.08-42.57,40.94-62.64,1.66-2.24-2.82-3.66-4.18-1.83-14.86,20.07-28.52,40.97-40.94,62.64,1.27-.12,2.53-.24,3.8-.37-6.45-5.99-9.96-14.25-13.88-21.96-3.97-7.8-7.95-15.61-11.92-23.41-7.35-14.45-14.65-28.97-17.98-44.96-.34-1.64-3.03-1.53-4.04-.8-33.94,24.5-63.21,54.92-86.35,89.81h4.18c-10.2-13.74-20.39-27.49-30.59-41.23-.97-1.31-3.17-1.11-4.18,0C35.59,68.41,18.01,87.73,.44,107.05c-1.85,2.03,2.66,3.5,4.18,1.83h0Z"/><path class="cls-1" d="M262.27,14.17c-13.06,6.93-25.41,14.98-37.04,24.12-2.25,1.77,1.38,3.07,2.93,2.49,9.54-3.57,19.17-6.87,28.9-9.89-1.21-.46-2.43-.91-3.64-1.37,1.05,8.84,2.26,17.65,3.63,26.45,.33,2.13,4.55,2.17,4.84,0,1.68-12.46,3.53-24.9,5.53-37.32,.33-2.02-4.49-2.16-4.84,0-2.01,12.42-3.85,24.86-5.53,37.32h4.84c-1.37-8.79-2.58-17.61-3.63-26.45-.2-1.66-2.42-1.75-3.64-1.37-9.73,3.02-19.36,6.32-28.9,9.89,.98,.83,1.96,1.66,2.93,2.49,11.62-9.15,23.97-17.19,37.04-24.12,2.54-1.35-1.67-3.17-3.42-2.24h0Z"/></g></g></svg>