<?xml version="1.0" encoding="UTF-8"?><svg id="Layer_2" xmlns="http://www.w3.org/2000/svg" viewBox="0 0 50.64 115.52"><defs><style>.cls-1{fill:#e31d93;}</style></defs><g id="_"><path class="cls-1" d="M37.54,110.28c-3.98-.17-7.95-.35-12.33-.54,.75,2.58,2.57,3.75,4.49,4.02,5.72,.82,11.48,1.57,17.24,1.75,3.3,.1,4.58-2.42,3.06-5.33-2.52-4.87-5.3-9.6-7.97-14.39-.16-.28-.31-.67-.56-.77-.8-.32-1.65-.54-2.48-.79-.2,.71-.74,1.53-.55,2.12,.63,1.99,1.51,3.9,2.3,5.84,.41,1.02,.84,2.03,.7,3.66-1.41-.89-2.87-1.71-4.24-2.67C9.44,83.79-1.94,49.31,8.86,17.06c1.38-4.12,3.27-8.07,4.9-12.11,.57-1.41,1.06-2.85,1.59-4.27l-.85-.68c-.84,.49-1.98,.79-2.48,1.52-1.71,2.54-3.39,5.13-4.72,7.87C-6.14,37.21-.72,71.53,21.03,94.94c4.15,4.46,9.12,8.17,13.73,12.19,.95,.83,2.02,1.52,3.04,2.27-.09,.29-.17,.59-.26,.88Z"/></g></svg>