<?xml version="1.0" encoding="UTF-8"?><svg id="Layer_2" xmlns="http://www.w3.org/2000/svg" viewBox="0 0 133.56 121.36"><defs><style>.cls-1{fill:#f955a3;}</style></defs><g id="_"><g id="Layer_41"><path class="cls-1" d="M31.83,121.36c-2.06,0-4.03-.7-5.68-2.01-2.89-2.3-4.65-6.28-4.72-10.64-.01-1.03,.06-2.04,.18-3-.97,.97-1.98,1.8-3.06,2.5-2.18,1.41-4.83,2.18-7.47,2.18-1.57,0-3.06-.27-4.43-.8-4.3-1.67-6.72-5.8-6.04-10.29,.64-4.22,3.77-8.11,7.99-9.91,.38-.16,.76-.31,1.15-.44-1.11-.55-2.13-1.17-3.06-1.84C2.56,84.11,.06,79.45,0,74.64c-.07-5.17,3.1-9.5,7.87-10.75,1.04-.27,2.12-.41,3.23-.41,3.77,0,7.62,1.58,10.58,4.35,.04,.04,.08,.07,.12,.11-.05-1.71,.01-3.42,.18-5.1,.43-4.45,1.57-10.68,6.44-13.43,1.42-.8,3.07-1.24,4.65-1.24,.75,0,1.49,.1,2.18,.29,2.4,.66,4.2,2.51,5.07,5.18,.81,2.5,.94,5.24,1.01,7.84,.05,1.93-.04,3.9-.26,5.91l.08-.09c3.05-3.35,7.23-7.2,12.54-7.2,.33,0,.66,.02,.99,.05,2.71,.25,5.02,1.41,6.49,3.26,1.6,2.01,2.18,4.74,1.65,7.68-.72,3.96-3.49,7.04-6.73,9.73,5.17,.35,9.16,2.91,10.82,6.99,1.71,4.22-.07,8.89-4.53,11.89-3.02,2.03-6.73,3.06-11.04,3.06-1.01,0-2.05-.06-3.1-.17-2.61-.28-5.14-.89-7.56-1.8,1.21,2.65,1.84,5.08,1.95,7.5,.2,4.26-1.69,8.48-4.94,11.02-1.72,1.34-3.74,2.05-5.83,2.05Zm-3.55-24.68c-.24,1.2-.54,2.39-.82,3.55-.71,2.89-1.39,5.62-1.33,8.43,.05,2.33,.92,5.64,3.22,7.28,.77,.55,1.61,.83,2.5,.83,1.4,0,2.87-.7,4.01-1.92,4.69-4.99,1.46-11.6-2.92-18.07-.69,.17-1.4,.26-2.12,.26-.81,0-1.61-.11-2.4-.33-.05-.01-.09-.03-.14-.04Zm-10.67-4.64c-3.14,0-5.68,.53-7.76,1.62-2.82,1.48-4.78,4.4-4.77,7.11,0,2.79,2.32,4.45,4.61,4.87,.56,.1,1.11,.15,1.65,.15h0c5.89,0,9.66-6.07,12.71-11.95-.35-.43-.64-.9-.89-1.39l-.27-.03c-1.44-.17-3.34-.37-5.27-.37Zm19.78,1.84c3.66,2.36,7.77,3.8,11.96,4.18,.77,.07,1.53,.11,2.25,.11,3.4,0,6.19-.76,8.52-2.31,2.39-1.59,4.13-4.61,2.28-7.47-1.78-2.75-5.02-3.33-7.43-3.33-1.24,0-2.54,.15-3.87,.43-.76,.16-1.53,.36-2.29,.58-3.24,2.07-6.64,3.86-10.11,5.32-.24,.71-.57,1.37-.97,1.98-.11,.17-.23,.34-.36,.5Zm-7.16-10.63c-.15,.58-.54,1.11-1.21,1.39-1.82,.76-2.95,3.12-2.47,5.15,.39,1.67,2,2.91,3.92,3.02,.1,0,.19,0,.29,0,1.78,0,3.24-1.02,3.82-2.67,.54-1.54,.34-3.2-.51-4.5-.24,.08-.49,.13-.75,.13-.79,0-1.53-.38-1.94-.99-.26-.39-.36-.86-.29-1.32-.28-.09-.56-.16-.85-.21Zm-18.97-15.35c-1.16,0-2.24,.23-3.19,.67-3.1,1.46-3.85,4.99-3.21,7.83,.97,4.35,4.17,6.84,6.68,8.16,3.35,1.76,7.17,2.47,10.88,3.14,.27-1.95,1.19-3.74,2.59-5.09-.2-.23-.37-.51-.49-.82-.64-1.69-1.18-3.45-1.6-5.21-.13-.25-.27-.49-.41-.74-1.38-2.41-2.84-4.2-4.47-5.5-1.93-1.53-4.47-2.44-6.78-2.44Zm25.49,13.97c.34,.36,.65,.75,.93,1.15,.54,.79,.96,1.7,1.22,2.66,2.5-1.52,5.14-2.71,7.86-3.55,1.32-.83,2.62-1.72,3.86-2.63l.06-.05c3.31-2.44,7.43-5.47,8.02-9.6,.21-1.46-.1-3.4-1.61-4.49-.87-.63-2.05-.98-3.31-.98-.46,0-.92,.05-1.37,.14-4.23,.87-7.56,5-10,8.01-1.53,1.89-2.94,3.95-4.21,6.12-.44,1.09-.93,2.17-1.45,3.22Zm-7.93-3.34c1.4,0,2.8,.26,4.09,.76,.45-.89,.92-1.76,1.41-2.62,1.07-2.72,1.84-5.57,2.29-8.47,.33-2.13,.46-4.38,.41-6.69-.05-1.99-.18-4.31-.81-6.38-.33-1.11-1.09-2.45-2.83-2.54-.08,0-.17,0-.25,0-1.36,0-2.7,.59-3.68,1.61-2.69,2.82-3.09,7.66-3.13,12.03-.03,3.48,.43,6.97,1.37,10.39,.27,.63,.53,1.26,.79,1.91,.11,0,.23,0,.34,0Z"/><path class="cls-1" d="M125.15,46.32c-3.11,.89-6.66,.14-9.27-1.95-1.48-1.19-2.73-2.71-3.86-4.7-.54,1.96-1.32,3.84-2.35,5.63-.41,.72-.86,1.41-1.32,2.05-1.99,2.73-4.35,4.61-7.04,5.59-3.96,1.44-7.74,.42-9.63-2.62-1.83-2.94-1.61-6.65,.56-10.09-3.2,.82-6.44,1.15-9.28-.22-2.12-1.02-3.58-2.66-4.11-4.59-.5-1.79-.17-3.78,.92-5.62,.13-.22,.28-.44,.43-.65,2.45-3.37,6.82-4.24,10.36-4.63h.09c-1.38-.79-2.67-1.65-3.87-2.57-1.61-1.24-3.29-2.59-4.51-4.26-1.3-1.79-1.64-3.78-.95-5.61,.2-.53,.47-1.04,.82-1.52,.73-1,1.77-1.84,2.93-2.38,3.99-1.82,8.47,.33,11.49,2.11,1.14,.67,2.25,1.42,3.32,2.24,0-.04-.01-.08-.02-.12-.39-3.15,.38-6.32,2.12-8.71,.51-.7,1.1-1.33,1.75-1.86,3-2.45,7.2-2.46,10.45-.03,3.03,2.26,4.83,6,4.82,9.99,0,.9-.08,1.83-.25,2.79,.27-.19,.54-.36,.81-.52,3.09-1.84,7-2.03,9.97-.49,3.16,1.64,4.66,5.09,3.74,8.58-.3,1.12-.81,2.19-1.54,3.18-1.22,1.68-2.94,3-4.83,3.73-.94,.36-1.93,.62-3,.79,.66,.37,1.34,.79,1.99,1.27,2.74,2.06,4.45,5.01,4.58,7.9,.07,1.66-.39,3.22-1.34,4.53-.97,1.33-2.35,2.28-3.99,2.75Zm-10.06-16.28c-.22,.6-.53,1.16-.9,1.67-.33,.46-.72,.87-1.14,1.22,2.08,5.76,4.78,10.86,10.11,10.19,1.3-.16,2.42-.77,3.07-1.66,.41-.57,.62-1.23,.63-1.97,.02-2.22-1.68-4.3-3.14-5.4-1.76-1.33-3.8-2.17-5.97-3.05-.87-.35-1.76-.72-2.63-1.12-.01,.04-.03,.07-.04,.11Zm-.17-5.51l-.1,.19c.2,.38,.36,.79,.47,1.21,5.14,.78,10.73,1.19,13.45-2.54h0c.25-.34,.47-.72,.66-1.11,.79-1.64,.81-3.88-.96-5.17-1.71-1.25-4.47-1.36-6.71-.25-1.65,.82-3.16,2.18-4.61,4.17-.89,1.22-1.64,2.52-2.2,3.51Zm-6.24,9.88c-.57-.03-1.14-.13-1.7-.3-2.53,1.53-5.23,2.86-8.04,3.96-.49,.37-.97,.77-1.42,1.18-.8,.71-1.49,1.47-2.06,2.25-1.11,1.53-2.24,3.85-1.31,6.25,.96,2.49,3.67,2.78,5.79,2,2.06-.76,3.83-2.18,5.4-4.34,.33-.46,.66-.95,.97-1.47,1.69-2.83,2.68-6.11,2.87-9.52-.16,0-.32,0-.49,0Zm-3.22-8.81c.33,.17,.57,.45,.7,.8,.2,.54,.1,1.19-.27,1.69-.12,.17-.27,.31-.43,.42,.44,1.14,1.4,2.03,2.62,2.4,1.31,.39,2.63-.06,3.45-1.19,.04-.06,.09-.12,.13-.19,.81-1.27,.77-2.86-.11-3.88-1.07-1.24-3.09-1.61-4.41-.81-.48,.29-1,.3-1.44,.13-.1,.21-.19,.42-.26,.64Zm-2.31-14.33c.07,1.63,.53,3.39,1.42,5.37,.09,.2,.18,.4,.28,.6,.93,1.08,1.79,2.23,2.57,3.42,.14,.22,.24,.45,.29,.69,1.5-.26,3.07-.02,4.43,.71,1.28-2.66,2.6-5.41,3.03-8.35,.32-2.2,.21-5.38-2.09-8-1.51-1.72-4.09-2.87-6.45-1.58-.72,.4-1.36,.97-1.9,1.71-1.07,1.47-1.66,3.5-1.58,5.43Zm-4.03,16.63c-1.96-.2-3.92-.25-5.83-.16-3.03,.16-7.19,.37-9.69,2.65-.26,.24-.51,.51-.72,.81-.58,.8-.9,1.71-.9,2.55,0,1.46,1.09,2.56,2.11,3.09,2.9,1.53,6.72,.32,9.79-.66l.06-.02c1.15-.37,2.31-.78,3.45-1.24,1.79-1.34,3.77-2.46,5.88-3.35-.49-.61-.88-1.29-1.13-2-.13-.36-.23-.74-.3-1.12-.91-.15-1.82-.34-2.71-.56Zm4.42-6.23c-.29-.46-.58-.91-.85-1.38-1.74-2.17-3.74-4.08-5.96-5.66-2.79-1.99-6.04-3.97-9.07-3.57-1.1,.15-2.1,.73-2.72,1.59-.04,.05-.08,.11-.11,.16-.74,1.14-.25,2.24,.31,2.97,1.02,1.35,2.43,2.5,3.67,3.45,1.44,1.1,2.93,2.05,4.43,2.83,2.05,1.06,4.21,1.88,6.43,2.46,.77,.08,1.54,.19,2.31,.31,.28-1.05,.76-2.06,1.4-2.95,.05-.07,.11-.14,.16-.22Z"/></g></g></svg>