<?xml version="1.0" encoding="UTF-8"?><svg id="Layer_2" xmlns="http://www.w3.org/2000/svg" viewBox="0 0 235.26 261.21"><defs><style>.cls-1{fill:#f9ccd8;}.cls-2{fill:#f955a3;}.cls-3{fill:#3a9ffc;}</style></defs><g id="_"><g><path class="cls-3" d="M222.4,174.33c-2.12-.08-4.35,.23-6.38,.85-3.86,1.19-7.63,2.7-11.42,4.13-3.24,1.22-6.21,3.26-10.34,3.41-.77-3.67-.98-7.43-1.55-11.13-1.15-7.38-3.84-14.11-9.21-19.47-7.44-7.43-17.67-7.59-25.48-.54-2.44,2.2-4.39,4.79-6.03,7.6-5,8.56-7.97,17.76-8.23,27.7-.61,24.03,5.39,46.59,15.42,68.22,.57,1.22,1.22,2.42,2.01,3.51,1.9,2.64,4.23,3.29,7.03,1.8,2.14-1.14,4.19-2.48,6.14-3.93,9.75-7.3,19.53-14.55,29.13-22.04,9.24-7.2,17.14-15.73,23.65-25.49,2.71-4.06,5.09-8.28,6.75-12.91,1.03-2.86,1.46-5.76,1.34-8.76-.3-7.55-5.3-12.68-12.84-12.96Zm2.72,17.83c-1.03,3.68-2.95,6.97-4.98,10.16-4.68,7.35-10.28,13.96-16.77,19.73-11.33,10.06-24.02,18.37-35.97,27.81-1.08-.92-1.38-1.06-1.47-1.28-7.7-19.21-12.79-38.98-12.66-59.86,.05-8,2.02-15.52,5.71-22.59,1.38-2.64,2.98-5.15,5.19-7.22,4.16-3.89,8.92-3.83,12.88,.23,3.12,3.2,4.83,7.18,5.75,11.45,.68,3.16,.94,6.41,1.34,9.63,.2,1.61,.22,3.25,.49,4.84,.99,5.83,5.66,8.95,11.22,7.5,2.61-.68,5.2-1.47,7.72-2.42,2.78-1.05,5.44-2.39,8.19-3.51,2-.82,4-1.68,6.08-2.22,6.61-1.73,9.17,1,7.29,7.74Z"/><path class="cls-2" d="M115.02,102.19c-8.08-12.88-21.38-13.57-30.52-1.53-4.36,5.75-6.53,12.38-7.32,19.49-.29,2.61-.54,5.23-.87,8.4-4.31-1.38-8.07-2.67-11.87-3.8-5.5-1.63-11.07-2.48-16.8-1.23-9.19,2-14.93,9.35-14.62,18.69,.16,4.78,1.93,8.94,4.68,12.74,2.07,2.87,4.56,5.35,7.35,7.51,14.46,11.25,31.23,15.63,49.17,16.24,6.12,.21,10.88-2.48,13.84-8.11,9.14-17.42,13.55-35.81,11.52-55.53-.48-4.63-2.08-8.93-4.56-12.88Zm-13.43,60.17c-.81,1.7-1.83,3.29-2.78,4.93-1.22,2.11-3.11,2.86-5.46,2.67-15.06-1.23-29.19-5.21-41.5-14.32-2.36-1.74-4.42-3.96-6.36-6.19-1.41-1.61-2.31-3.61-2.69-5.81-.97-5.59,1.53-9.46,7.06-10.86,2.15-.55,4.26-.47,6.42-.11,4.82,.8,9.41,2.33,13.95,4.07,2.25,.86,4.58,1.72,6.94,2.04,4.37,.59,7.37-1.58,8.2-5.92,.66-3.44,.89-6.96,1.19-10.45,.38-4.35,1.33-8.51,3.33-12.42,1.5-2.94,3.39-5.52,6.2-7.32,2.29-1.47,4.61-1.36,6.8,.2,3.71,2.64,5.77,6.44,6.67,10.76,.77,3.68,1.01,7.47,1.48,11.21-.86,13.14-3.81,25.67-9.45,37.52Z"/><path class="cls-3" d="M163.49,56.61c1.76-2.72,3.46-5.49,5.1-8.29,3.45-5.88,5.97-12.17,7.19-18.86,1.38-7.58,1.25-15.14-2.79-22.07-4.82-8.29-13.17-9.75-20.53-3.63-4.48,3.73-7.38,8.59-9.56,13.9-.91,2.22-1.62,4.53-2.63,7.41-2.98-1.46-5.1-2.68-7.35-3.56-6.16-2.42-12.52-3.35-19.09-1.95-9.72,2.07-13.86,10.07-9.67,19.01,1.13,2.41,2.71,4.72,4.52,6.68,2.18,2.37,4.62,4.63,7.31,6.38,8.89,5.81,18.55,10,28.87,12.52,8.45,2.06,13.92-.28,18.62-7.54Zm-51.15-23.66c-.35-1.52,.27-2.66,1.57-3.32,2.49-1.27,5.18-1.5,7.91-1.16,4.34,.55,8.43,1.85,12.12,4.29,1.8,1.19,3.59,2.45,5.53,3.36,3.6,1.69,7.13,.36,8.67-3.36,1.02-2.49,1.56-5.17,2.33-7.76,1.24-4.18,2.89-8.18,5.77-11.51,1.04-1.21,2.31-2.27,3.62-3.18,1.37-.95,3.27-.39,4.29,1,2.36,3.25,2.77,6.97,2.67,11.08,.26,3.87-.79,7.81-2.11,11.65-2.3,6.71-6.05,12.68-9.92,18.56-2.03,3.09-4.89,4.17-8.44,3.01-10.07-3.3-19.71-7.49-28.04-14.2-2.75-2.22-5.15-4.83-5.99-8.46Z"/></g><g><path class="cls-1" d="M13.8,160.4c.1,1.04-.67,2-1.71,2.1-2.01,.19-4.02,.44-6.05,.44-1.16,0-2.33-.1-3.47-.31-.57-.1-1.15-.25-1.64-.54-.58-.35-1.12-.99-.86-1.72,.34-1.01,1.41-1.4,2.35-1.66,1.03-.29,2.12-.37,3.19-.41h-.07c.81-.02,1.62-.02,2.43,.04,.82,.06,1.65,.15,2.47,.23h0c.5,.04,1.01,.08,1.52,.11,.42,.03,.82,.18,1.13,.42,.4,.31,.67,.76,.72,1.3Z"/><path class="cls-1" d="M14.31,125.3c.61,.47,.83,1.35,.63,2.06-.23,.78-.91,1.32-1.7,1.41-.36,.04-.71,.02-1.07-.02-.18,0-.36,0-.54,0-.28-.01-.56-.06-.85-.12-.54-.11-1.09-.22-1.62-.35-1.08-.27-2.14-.63-3.16-1.07-1-.45-2.02-1-2.86-1.71-.62-.54-1.78-1.59-.98-2.46,.21-.22,.55-.34,.84-.4,.51-.1,1.03-.11,1.54-.11,.5,0,1,.06,1.5,.11,.5,.06,.99,.12,1.48,.22,1.01,.2,2,.44,2.99,.75,.41,.13,.81,.27,1.22,.41,.27,.1,.55,.19,.81,.29,.21,.08,.42,.22,.62,.33,.09,.04,.18,.08,.28,.12,.3,.13,.56,.31,.82,.5l.04,.03Z"/><path class="cls-1" d="M35.34,98.57c.19,.5,.32,1.01,.44,1.53,.22,1,.41,2,.55,3.01,.16,1.12,.27,2.25,.42,3.38,.08,.56,.15,1.13,.24,1.69,.09,.59,.23,1.2,.13,1.81-.09,.55-.47,1.02-1.01,1.17-.64,.17-1.24-.12-1.59-.65-.33-.5-.45-1.12-.59-1.7-.14-.55-.28-1.1-.41-1.66-.27-1.15-.56-2.29-.78-3.45-.19-.95-.32-1.92-.42-2.89-.05-.53-.1-1.07-.07-1.61,.02-.57,.13-1.17,.56-1.58,.44-.43,1.14-.55,1.68-.21,.06,.04,.11,.07,.16,.11,.34,.26,.56,.64,.71,1.04Z"/></g></g></svg>