<?xml version="1.0" encoding="UTF-8"?><svg id="Layer_2" xmlns="http://www.w3.org/2000/svg" viewBox="0 0 502.5 230.78"><defs><style>.cls-1{fill:#f9ccd8;}</style></defs><g id="Layer_1-2"><g><path class="cls-1" d="M219.53,223.43c12.6,2.06,24.96-3.77,31.1-15.03,2.05-3.76-5.37-12.11-7.68-7.86-5.2,9.55-15.5,14.8-26.3,13.04-5.51-.9-1.19,9.19,2.88,9.85h0Z"/><g><path class="cls-1" d="M499.68,48.63c-11.88-9.84-25.1-17.59-39.51-23.1-6.11-2.34-2.82,7.62,.96,9.06,13.71,5.24,26.09,12.44,37.4,21.8,5.64,4.67,4.58-4.92,1.16-7.76h0Z"/><path class="cls-1" d="M429.34,13.97c-11.15-4.56-22.9-7.27-34.92-8.04-6.14-.39-2.28,9.84,2.47,10.15,11.31,.72,22.17,3.2,32.65,7.49,2.39,.98,4.33-.67,4.39-3.09,.06-2.71-2.16-5.51-4.59-6.5h0Z"/><path class="cls-1" d="M345.46,.01c-8.37,.77-16.74,1.53-25.1,2.3-4.58,.42,.61,10.24,4.85,9.86,8.37-.77,16.74-1.53,25.1-2.3,4.58-.42-.61-10.24-4.85-9.86h0Z"/><path class="cls-1" d="M264.8,13.05c-9.97,1.71-19.37,4.9-28.42,9.39-4.75,2.35,1.54,11.64,6.48,9.19,8.37-4.15,17.21-6.89,26.41-8.46,5.66-.97,.68-11-4.47-10.12h0Z"/><path class="cls-1" d="M199.17,42.32c-14.28,8.35-27.12,18.36-38.71,30.18-3.24,3.31,3.55,12.19,6.48,9.19,11.58-11.82,24.42-21.83,38.71-30.18,3.76-2.2-2.52-11.51-6.48-9.19h0Z"/><path class="cls-1" d="M139.45,105.16c-6.89,6.49-11.78,14.27-14.4,23.38-1.43,4.97,7.24,11.7,9.01,5.53,2.18-7.57,6.12-14.3,11.87-19.72,4.04-3.81-2.56-12.89-6.48-9.19h0Z"/><path class="cls-1" d="M126.37,156.89c.29,12.93,4.28,24.99,11.69,35.59,3.99,5.71,10.59,1.09,6.58-4.64-5.8-8.3-8.8-17.61-9.03-27.73-.11-5.13-9.39-10.13-9.24-3.22h0Z"/><path class="cls-1" d="M158.65,211.7c11.23,10.94,25.29,17.8,40.99,19.06,5.64,.45,1.14-9.5-2.92-9.83-13.14-1.05-25.18-6.04-34.68-15.29-5.37-5.22-7.49,2.06-3.39,6.05h0Z"/><path class="cls-1" d="M255,184.02c-.62-9.88-3.04-19.34-7.06-28.37-2.36-5.3-10.1-5.53-7.05,1.31,3.31,7.44,5.12,15.19,5.62,23.31,.16,2.55,2.15,5.58,4.58,6.5,2.24,.85,4.06-.24,3.91-2.76h0Z"/><path class="cls-1" d="M219.9,132.89c-9.9-8.28-21.29-13.64-34.14-15.33-5.87-.77-1.85,9.45,2.62,10.04,10.13,1.33,19.68,5.15,27.55,11.74,5.66,4.74,8.61-2.57,3.97-6.46h0Z"/><path class="cls-1" d="M104.3,120.65c-12.36,.91-24.06,4.38-34.99,10.2-3.61,1.92,2.55,11.29,6.48,9.19,10.48-5.58,21.58-8.7,33.4-9.57,4.41-.32-.75-10.13-4.89-9.82h0Z"/><path class="cls-1" d="M30.42,155.6c-13.25,9.27-23.41,21.4-30.1,36.14-1.95,4.3,5.72,12.44,7.86,7.74,6.44-14.18,15.95-25.74,28.73-34.68,4.08-2.85-2.38-12.06-6.48-9.19h0Z"/></g></g></g></svg>