<?xml version="1.0" encoding="UTF-8"?><svg id="Layer_2" xmlns="http://www.w3.org/2000/svg" viewBox="0 0 30.52 32.19"><defs><style>.cls-1{fill:#3a9ffc;}</style></defs><g id="_"><g><path class="cls-1" d="M30.47,6.91c.14,.71-.02,1.43-.42,1.98-.4,.54-1.01,.87-1.71,.95-10.18,1.09-17.78,9.63-17.66,19.86,.02,1.33-.89,2.35-2.21,2.48-1.19,.12-2.61-.57-2.9-2.1-.03-.15-.05-.31-.05-.48-.15-12.6,9.54-23.53,22.06-24.87,1.59-.17,2.66,.97,2.89,2.18Z"/><path class="cls-1" d="M13.9,2.19c.16,.84-.09,1.68-.69,2.31L4.31,13.72c-.65,.68-1.56,.93-2.42,.67-.93-.28-1.66-1.1-1.85-2.09-.16-.84,.09-1.68,.69-2.31L9.63,.77c.65-.68,1.56-.93,2.42-.67,.93,.28,1.66,1.1,1.85,2.09Z"/></g></g></svg>