<?xml version="1.0" encoding="UTF-8"?><svg id="Layer_2" xmlns="http://www.w3.org/2000/svg" viewBox="0 0 445.18 431.97"><defs><style>.cls-1{fill:#007fc4;}</style></defs><g id="Layer_1-2"><g><path class="cls-1" d="M408.34,231.03c15.27,25.43,19.59,51.93,14.37,80.77-2.37-1.69-1.78-3.43-1.62-4.82,1.18-10.26-.05-20.42-1.1-30.59-1.52-14.6-6.97-27.8-14.28-40.34-.31-.54-.78-.98-1.68-2.1-.37,7.05,3,13.48,1.14,19.81-.45,.01-.89,.03-1.34,.04-.99-4.43-1.95-8.87-2.99-13.29-1.02-4.36-2.21-8.67-3.15-13.04-.7-3.23,.65-4.82,3.81-4.09,4.02,.93,7.91,2.45,11.85,3.75,.44,.15,1,.4,1.19,.77,.52,1.02,.86,2.13,1.28,3.21-.97,.37-1.94,1.02-2.91,1.03-1.17,0-2.35-.53-4.56-1.1Z"/><g><path class="cls-1" d="M336,374.81c.28-2.28,.47-4.58,.87-6.85,1.97-11.12,6.91-20.74,14.77-28.85,.1-.1,.2-.2,.31-.29,.05-.04,.12-.05,.23-.1l2.25,2.35c-10.4,10.8-15.6,23.74-14.94,38.82,.49,11.12,4.39,21.05,11.37,29.73,13.38,16.64,36.5,23.22,56.46,16.12,7.45-2.65,14.01-6.7,19.58-12.31,5.54-5.59,9.59-12.11,12.13-19.57,2.55-7.48,3.31-15.15,2.34-23.08,.61-.09,1.16-.18,1.72-.25,.52-.07,1.04-.13,1.85-.22,.07,3.31,.34,6.54,.18,9.74-.64,12.44-4.97,23.49-13.14,32.91-8.92,10.27-20.18,16.4-33.65,18.39-1.72,.25-3.45,.41-5.17,.61h-5.12c-.27-.06-.55-.16-.82-.17-5.07-.29-10.02-1.21-14.76-3.03-19.67-7.53-31.55-21.66-35.62-42.32-.42-2.15-.57-4.35-.85-6.53v-5.12Z"/><path class="cls-1" d="M370.47,401.59l2.54,2.31c-3.01,3-5.98,5.96-8.95,8.92,15.4,12.22,41.25,12.97,58.26-4.47,17.09-17.53,15.36-42.84,3.82-57.35-9.33,9.34-18.66,18.69-28.02,28.05,.37,.07,.83,.1,1.25,.24,1.01,.33,2.07,.58,2.98,1.09,2.14,1.19,3.58,2.96,3.58,5.53,0,2.56-1.42,4.36-3.57,5.54-3.34,1.82-6.74,1.76-10.07-.1-1.4-.78-2.14-1.68-3.07-3.43l-12.82,12.88-2.43-2.65c.07-.07,.32-.35,.59-.62,16.66-16.67,33.33-33.33,50-50,1.41-1.41,2.26-1.37,3.47,.17,7.38,9.37,10.8,20.06,10.27,31.95-.98,21.84-16.77,40.31-38.29,44.53-14.46,2.84-27.63-.38-39.28-9.52-1.28-1.01-1.34-1.96-.2-3.11,3.33-3.35,6.67-6.7,9.92-9.96Zm27.03-19.11c-1.6,.04-3.09,.39-4.29,1.54-1.2,1.15-1.2,2.56-.04,3.74,2.03,2.05,6.41,2.07,8.47,.03,1.21-1.19,1.2-2.65-.05-3.81-1.15-1.07-2.57-1.43-4.1-1.5Z"/><path class="cls-1" d="M342.83,377.28c.02-21.62,14.54-40.68,35.59-46.06,16.35-4.18,31.08-.51,43.94,10.46,1.25,1.07,1.26,1.96,.08,3.14-21.46,21.46-42.92,42.92-64.38,64.38-1.18,1.18-2.06,1.15-3.14-.08-7.9-8.96-12.09-20.02-12.08-31.84Zm76.06-34.01c-16.12-13.88-42.52-14.43-59.68,2.78-17.34,17.39-16.37,43.8-2.69,59.59,20.77-20.77,41.55-41.55,62.37-62.37Z"/><path class="cls-1" d="M411.33,369.08l3.09-1.24c.39,1.32,.77,2.53,1.11,3.75,.28,1.03,2.31,1.79,3.16,1.15,2.15-1.6,4.56-1.77,6.66-.45,2.05,1.29,3.16,3.83,2.68,6.17-.53,2.59-2.37,4.4-4.94,4.79-1.59,.24-3.02-.22-4.29-1.19-.98-.74-2.98-.03-3.28,1.15-.66,2.67-1.67,5.2-3.12,7.54-.7,1.12,.24,3.09,1.54,3.25,2.75,.34,4.82,2.58,4.98,5.41,.15,2.78-1.91,5.48-4.67,6.1-3.49,.78-6.58-1.43-7.04-5-.04-.34-.35-.72-.64-.93-1.08-.79-2.04-.75-3.34-.06-2.17,1.16-4.56,1.91-6.88,2.77-.96,.35-1.76,2.39-1.15,3.2,1.62,2.16,1.78,4.55,.46,6.65-1.26,2-3.78,3.11-6.08,2.67-2.58-.49-4.44-2.33-4.86-4.87-.27-1.63,.21-3.09,1.21-4.39,.67-.87-.06-2.97-1.11-3.26-1.03-.28-2.04-.6-3.06-.91-.2-.06-.37-.17-.65-.31l1.18-2.99c1.76,.44,3.48,.8,5.15,1.34,.44,.14,.84,.75,1.04,1.24,.55,1.34,.97,2.74,1.47,4.11,.38,1.02,.12,1.77-.76,2.4-1.05,.76-1.35,1.64-.99,2.66,.35,.99,1.3,1.64,2.38,1.65,1.13,0,2.1-.68,2.42-1.73,.32-1.06-.08-1.87-.91-2.52-1.13-.88-1.26-1.3-.8-2.64,.45-1.31,.93-2.6,1.37-3.92,.27-.83,.8-1.3,1.66-1.45,3.34-.58,6.36-1.91,9.19-3.77,.51-.33,1.45-.33,2.06-.11,1.3,.46,2.49,1.2,3.75,1.76,1.1,.49,1.56,1.22,1.33,2.44-.21,1.09,.21,1.98,1.23,2.48,1.01,.49,1.96,.26,2.75-.48,.79-.74,1.08-1.66,.69-2.72-.37-1.01-1.28-1.51-2.48-1.41-1.63,.14-1.88,0-2.57-1.43-.58-1.18-1.13-2.37-1.72-3.54-.4-.81-.38-1.54,.15-2.3,1.91-2.71,3.17-5.7,3.72-8.97,.16-.94,.65-1.52,1.57-1.81,1.28-.41,2.56-.85,3.82-1.32,1.08-.4,1.9-.21,2.58,.77,.71,1.02,1.67,1.3,2.69,.92,1.02-.37,1.68-1.39,1.62-2.5-.06-1.11-.81-2.07-1.87-2.32-1.01-.24-1.8,.15-2.42,.94-.89,1.14-1.3,1.27-2.64,.81-1.31-.45-2.65-.83-3.9-1.4-.54-.24-1.12-.81-1.3-1.36-.51-1.54-.83-3.14-1.24-4.83Z"/><path class="cls-1" d="M444.28,366.79l-3.33,.63c-4.52-18.64-15.32-31.92-33.47-38.28-18.12-6.34-34.81-2.71-49.99,9.02l-2.21-2.62c16.82-12.92,35.2-16.61,55.06-8.97,18.44,7.09,29.37,21,33.94,40.22Z"/><path class="cls-1" d="M407.75,375.69h3.24v3.32h-3.24v-3.32Z"/><path class="cls-1" d="M370.36,386.97l-3.01,1.42c-.57-1.77-1.15-3.43-1.65-5.12-.36-1.21-2.36-1.95-3.36-1.19-2.45,1.86-5.64,1.59-7.71-.65-2.08-2.26-2.1-5.79-.04-8.07,2.08-2.3,5.28-2.58,7.78-.68,.93,.71,3.02-.02,3.3-1.16,.67-2.74,1.73-5.33,3.23-7.73,.59-.94-.42-2.93-1.53-3.05-2.98-.34-5.21-2.89-5.09-5.85,.12-3.16,2.65-5.7,5.82-5.85,2.95-.14,5.54,2.09,5.88,5.06,.13,1.18,2.1,2.15,3.12,1.52,2.41-1.49,4.99-2.55,7.74-3.2,1.05-.25,1.79-2.3,1.15-3.16-1.6-2.16-1.77-4.56-.45-6.66,1.29-2.05,3.82-3.15,6.17-2.67,2.58,.53,4.4,2.38,4.78,4.94,.24,1.59-.23,3.02-1.19,4.29-.74,.98,0,2.94,1.16,3.29,1.69,.5,3.36,1.07,5.16,1.66l-1.42,3c-2.14-.58-4.2-1.08-6.21-1.74-.52-.17-1.05-.74-1.27-1.26-.57-1.3-.95-2.67-1.44-4-.41-1.09-.18-1.9,.81-2.57,.97-.67,1.26-1.62,.92-2.6-.36-1.06-1.16-1.59-2.24-1.69-1.06-.09-2.09,.54-2.49,1.48-.43,.99-.14,2.02,.76,2.76,1.26,1.02,1.34,1.3,.82,2.81-.43,1.24-.87,2.48-1.28,3.72-.27,.82-.79,1.31-1.65,1.46-3.38,.58-6.44,1.91-9.28,3.82-.47,.31-1.34,.37-1.88,.17-1.45-.56-2.83-1.31-4.23-2-.95-.47-1.09-1.27-.98-2.25,.17-1.49-.58-2.5-1.9-2.73-1.25-.22-2.53,.68-2.86,2.01-.39,1.55,.77,3.04,2.39,2.82,1.57-.22,2.39,.4,2.94,1.77,.44,1.08,1,2.12,1.53,3.16,.4,.8,.4,1.54-.14,2.3-1.91,2.71-3.18,5.69-3.74,8.97-.16,.93-.64,1.53-1.56,1.82-1.35,.43-2.69,.9-4.02,1.4-1.02,.38-1.77,.12-2.4-.76-.76-1.05-1.64-1.35-2.66-.99-.99,.35-1.64,1.29-1.64,2.38,0,1.13,.69,2.11,1.73,2.42,1.06,.32,1.87-.08,2.52-.91,.88-1.13,1.3-1.26,2.65-.79,1.31,.45,2.61,.93,3.92,1.37,.78,.26,1.22,.75,1.42,1.56,.5,1.95,1.06,3.89,1.64,5.96Z"/><path class="cls-1" d="M378.63,363.72c2.78-.02,5.11,2.26,5.14,5.03,.03,2.84-2.26,5.18-5.09,5.19-2.79,.01-5.1-2.26-5.14-5.03-.04-2.83,2.25-5.17,5.09-5.19Zm1.72,5.06c-.03-.91-.81-1.66-1.73-1.65-.91,.02-1.67,.79-1.67,1.7,0,.96,.83,1.75,1.78,1.7,.92-.05,1.65-.84,1.62-1.75Z"/><path class="cls-1" d="M390.53,361.96h-3.29v-3.28h3.29v3.28Z"/><path class="cls-1" d="M375.19,377.43v3.27h-3.29v-3.27h3.29Z"/></g><g><path class="cls-1" d="M12.84,72.38c-.13,.98-1.06,1.7-2.04,1.56-1.9-.26-3.81-.48-5.68-.91-1.07-.25-2.13-.6-3.13-1.04-.5-.22-1-.48-1.39-.86-.46-.45-.81-1.16-.42-1.78,.54-.85,1.61-.98,2.53-1.02,1.01-.04,2.04,.12,3.03,.31h-.06c.75,.14,1.5,.32,2.23,.55,.75,.23,1.49,.5,2.23,.75h0c.45,.15,.92,.29,1.38,.43,.38,.12,.72,.34,.95,.64,.3,.37,.45,.85,.38,1.36Z"/><path class="cls-1" d="M20.98,40.09c.46,.57,.48,1.43,.13,2.04-.38,.67-1.13,1.02-1.88,.93-.34-.04-.66-.14-.98-.25-.16-.04-.33-.08-.5-.12-.26-.07-.5-.18-.76-.29-.48-.22-.96-.44-1.42-.68-.94-.48-1.84-1.05-2.68-1.68-.83-.63-1.65-1.37-2.26-2.2-.46-.63-1.3-1.86-.37-2.48,.24-.16,.58-.2,.87-.19,.49,.02,.98,.13,1.45,.24,.46,.1,.91,.27,1.36,.43,.45,.16,.89,.33,1.32,.53,.89,.4,1.75,.85,2.6,1.34,.35,.21,.69,.42,1.04,.64,.23,.15,.46,.3,.69,.45,.18,.12,.34,.29,.5,.44,.08,.06,.15,.12,.23,.18,.25,.19,.45,.41,.65,.64l.03,.03Z"/><path class="cls-1" d="M56.29,14.57c.07,.5,.08,1.01,.07,1.51-.01,.97-.06,1.93-.15,2.9-.1,1.07-.24,2.14-.35,3.21-.05,.54-.11,1.07-.15,1.62-.05,.57-.05,1.16-.28,1.7-.2,.49-.65,.84-1.19,.86-.62,.02-1.12-.38-1.33-.95-.19-.54-.17-1.14-.18-1.7-.01-.54-.02-1.08-.02-1.62,0-1.12-.01-2.23,.03-3.35,.03-.92,.12-1.84,.24-2.76,.06-.5,.14-1.01,.28-1.5,.14-.52,.37-1.05,.86-1.34,.5-.3,1.17-.25,1.59,.17,.04,.04,.09,.09,.13,.14,.26,.32,.38,.71,.43,1.12Z"/></g><path class="cls-1" d="M398.08,18.55c-.15-1.08-1-1.96-2.08-2.14-4.7-.78-8.12-5.71-10.14-14.67-.25-1.1-1.15-1.79-2.25-1.73-1.06,.06-1.92,.84-2.09,1.91l-.06,.37c-.77,4.73-2.06,12.61-5.93,15.66-.16,0-.31,0-.45,.01-.13,0-.25,.02-.38,.03-1.26,.12-2.1,1.14-2.01,2.42,.09,1.17,1.01,2.38,2.53,2.29,.05,0,.1,0,.16-.01,.11-.01,.23-.02,.34-.03,2.85-.16,4.85,2.03,6.03,3.9,1.35,2.13,2.39,5.04,2.78,7.76,.15,1.06,1.05,1.79,2.14,1.73s1.89-.83,2-1.87c.63-6.31,3.58-11.12,8.08-13.2,.98-.45,1.5-1.38,1.36-2.42Zm-4.96,1.24c-2.75,2.2-4.73,5.33-5.89,9.3l-.62,2.1-.68-2.08c-1.48-4.53-4.33-7.88-7.61-8.96l-1.11-.36,.86-.78c2.55-2.33,4.93-8.73,5.96-14.21l.1-.02c1.98,6.04,5.26,12.29,8.83,13.86l1.03,.45-.88,.7Z"/><path class="cls-1" d="M366.06,52.11c-.2-1.49-1.38-2.7-2.86-2.94-6.47-1.07-11.15-7.85-13.93-20.16-.34-1.51-1.58-2.47-3.09-2.38s-2.64,1.16-2.88,2.62l-.08,.51c-1.06,6.5-2.84,17.33-8.15,21.53-.21,0-.42,0-.62,.02-.17,0-.35,.02-.53,.04-1.73,.17-2.89,1.57-2.76,3.32,.12,1.61,1.39,3.27,3.48,3.15,.07,0,.14-.01,.21-.02,.16-.02,.31-.03,.47-.04,3.91-.22,6.67,2.79,8.29,5.36,1.86,2.93,3.28,6.92,3.81,10.67,.21,1.46,1.44,2.46,2.94,2.38,1.47-.08,2.6-1.14,2.74-2.57,.87-8.67,4.91-15.28,11.1-18.15,1.34-.62,2.06-1.9,1.86-3.33Zm-6.82,1.7c-3.78,3.03-6.5,7.32-8.1,12.78l-.85,2.89-.94-2.86c-2.04-6.22-5.95-10.82-10.46-12.31l-1.52-.5,1.18-1.08c3.5-3.2,6.78-12,8.19-19.53l.14-.03c2.73,8.3,7.23,16.89,12.14,19.05l1.41,.62-1.2,.96Z"/></g></g></svg>