<svg xmlns="http://www.w3.org/2000/svg" viewBox="0 0 109.1 131.7"><defs><style>.cls-1{fill:#fcc550;}</style></defs><g id="Layer_2" data-name="Layer 2"><g id="Layer_1-2" data-name="Layer 1"><path class="cls-1" d="M4.5,73.59A261.25,261.25,0,0,0,48.33,65c6.8-2,13.58-4.14,20.15-6.77,6.18-2.48,12.36-5.61,16.56-11,7.61-9.69,8.44-24.38.87-34.39A32.16,32.16,0,0,0,70,1.83c-6.13-2-13.35-2.54-19.58-.72-7.83,2.3-13,8.91-14.72,16.73a32.2,32.2,0,0,0,3.72,23.27,4.5,4.5,0,1,0,7.77-4.54c-.36-.6-.7-1.21-1-1.84-.19-.37-.37-.75-.54-1.13.33.74,0-.1-.1-.29a26.31,26.31,0,0,1-1.26-4.43c-.07-.34-.13-.69-.19-1,.15.87,0,0,0-.26-.07-.77-.12-1.54-.14-2.31s0-1.39,0-2.09c0-.28,0-.56.07-.84s0-.56.08-.83c-.07.5-.06.48,0-.05a30.46,30.46,0,0,1,1-3.87c.08-.24.17-.48.26-.72.4-1.19-.41.78.14-.35.34-.69.68-1.37,1.09-2,.13-.21.27-.43.42-.64s.86-1.08.2-.31c.42-.48.83-1,1.29-1.4l.72-.63c.51-.48-.91.53.18-.12a23.83,23.83,0,0,1,2.16-1.2c-.76.35.06,0,.26-.09l1-.32c.67-.19,1.34-.35,2-.48.11,0,1.47-.19.46-.08l.83-.08c.84-.07,1.67-.1,2.51-.1,1.28,0,2.56.11,3.83.23-1.11-.11.15,0,.32.06l.75.13c.76.14,1.5.31,2.24.5,1.24.33,2.43.74,3.63,1.19s-.8-.41.33.13l.86.41c.62.31,1.23.63,1.83,1s1.18.72,1.75,1.11l.77.55c-.74-.53-.06,0,.12.11a24.42,24.42,0,0,1,3,2.88q.31.36.6.72c-.64-.8.12.19.21.31.33.48.65,1,.94,1.48s.56,1,.81,1.56l.3.64c-.48-1.08.11.35.18.56A23.36,23.36,0,0,1,81.94,26c0,.24.08.47.12.7.21,1.16,0-1,0,.2,0,.7.11,1.4.12,2.11A17.15,17.15,0,0,1,82,32.5c.24-1.22-.14.65-.19.89-.14.69-.32,1.37-.52,2s-.38,1.11-.57,1.66c-.37,1.12.42-.83-.08.23-.1.21-.19.42-.3.63a25.82,25.82,0,0,1-2,3.32c-.66,1,.61-.69-.15.2l-.46.54q-.6.67-1.26,1.32c-.5.48-1,.92-1.55,1.37-1,.86.7-.45-.4.3l-1,.71a37.3,37.3,0,0,1-3.78,2.17c-.62.32-1.25.62-1.88.9l-1,.43c-.49.21-.52.22-.09,0l-.58.23C60.24,51.93,54,54,47.76,55.81Q37.1,59,26.2,61.18q-5.57,1.14-11.17,2l-2.81.43-.94.13-1.14.16q-2.82.38-5.64.68c-2.33.26-4.61,1.89-4.5,4.5.1,2.22,2,4.78,4.5,4.5Z"/><path class="cls-1" d="M12.49,101.81c6-2.93,11.46-5.34,17.25-7.62q9.09-3.6,18.45-6.47t18.67-5c1.55-.35,3.09-.69,4.64-1,.79-.16,1.59-.31,2.38-.44l1.19-.19a3.52,3.52,0,0,1,.72-.09,44.89,44.89,0,0,1,4.78-.26c.8,0,1.59.07,2.38.11,1.48.09-.77-.17.7.08q.7.12,1.41.27a22.6,22.6,0,0,1,3.39,1.07c-1.06-.42.58.3.85.44.63.33,1.24.69,1.84,1.07s1,.67,1.45,1c-.87-.65.56.5.73.66A26.73,26.73,0,0,1,96,88.34c.53.64,0,.06,0-.07l.62.87c.33.5.65,1,.94,1.51s.58,1,.84,1.57l.38.81c.13.3.1.21-.11-.26.09.22.18.44.26.66a23.71,23.71,0,0,1,1,3.41c0,.23.08.46.13.69.24,1.17-.08-1,0,.21.07.71.12,1.42.12,2.13s0,1.22-.06,1.82c0,.26,0,.51-.07.76.09-1.12,0,.1,0,.29a26.46,26.46,0,0,1-1,3.82l-.33.88c-.4,1.13.27-.52,0,.14s-.53,1.14-.82,1.7a30.26,30.26,0,0,1-2.09,3.39c-.08.11-.85,1.11-.21.3l-.48.6c-.41.49-.83,1-1.27,1.43a32.17,32.17,0,0,1-3.06,2.89c-.1.08-1.1.86-.28.24l-.61.45c-.53.39-1.07.75-1.62,1.1s-1.23.75-1.86,1.09c-.38.21-.77.4-1.16.59-.15.08-1.29.53-.51.24a22.53,22.53,0,0,1-2.45.78c-.27.07-.55.11-.83.18-.54.09-.56.1-.06,0-.29,0-.57.06-.85.07s-.57,0-.85,0-1.59-.07-1.07,0c.67.06-.61-.11-.6-.11a13.1,13.1,0,0,1-1.37-.35c-.32-.1-.63-.22-1-.33-1-.33.4.27-.42-.18s-1.44-.77-2.13-1.21c-.34-.23-.68-.46-1-.71.63.46-.21-.17-.37-.31a23.42,23.42,0,0,1-1.77-1.68c-.56-.58-1.09-1.19-1.6-1.82.12.15.47.65,0,0-.28-.38-.55-.77-.8-1.16a26,26,0,0,1-2.19-4.09c.39.92-.11-.32-.15-.42l-.39-1.15c-.24-.77-.45-1.55-.62-2.33-.06-.27-.11-.53-.16-.79s-.25-1.86-.14-.8c-.08-.81-.14-1.61-.16-2.42a4.5,4.5,0,0,0-9,0,32.43,32.43,0,0,0,7,19.26c4.28,5.43,10.79,9.69,17.9,9.68s13.56-3.86,18.6-8.45a34.06,34.06,0,0,0,10-15.91c3.31-12.15-2.39-25.2-13.08-31.66C89,72,81.8,71.27,74.83,72.16A157.12,157.12,0,0,0,53.4,76.83,260,260,0,0,0,8,94a4.52,4.52,0,0,0-1.61,6.15,4.6,4.6,0,0,0,6.15,1.62Z"/></g></g></svg>