<svg xmlns="http://www.w3.org/2000/svg" viewBox="0 0 217.58 178.84"><defs><style>.cls-1{fill:#fff;}.cls-2{fill:#ffd040;}</style></defs><g id="Layer_2" data-name="Layer 2"><g id="Layer_1-2" data-name="Layer 1"><path class="cls-1" d="M216.32,177.39q-52.24.62-104.87,1.07t-105.16.38H0L1.9,173l1-3.1.51-1.55L4,166.87l1.27-3c.48-1,1-1.93,1.5-2.9l.75-1.44c.27-.47.57-.93.85-1.39l1.74-2.76c.63-.89,1.29-1.75,1.93-2.63l1-1.31c.34-.41.71-.82,1.06-1.23l2.15-2.45,2.33-2.28,1.16-1.14L21,143.28l2.51-2.08,2.66-1.89,1.34-.93,1.4-.84,2.81-1.65,2.92-1.44,1.47-.71,1.52-.6,3-1.19L43.8,131l1.57-.46c.52-.14,1.06-.24,1.59-.35l3.19-.68c1.07-.18,2.15-.29,3.23-.43a56.47,56.47,0,0,1,6.5-.45,60.47,60.47,0,0,1,25.38,5.11l-5.57,1.55h0c6.75-14.35,19.8-26,35.17-31.91,1-.36,1.92-.77,2.9-1.09l3-.9,1.48-.45,1.51-.36c1-.25,2-.46,3-.69l3.06-.51c1-.16,2-.35,3.07-.42,2-.19,4.11-.4,6.17-.41a71.88,71.88,0,0,1,12.35.57,73.52,73.52,0,0,1,12.1,2.54,76.44,76.44,0,0,1,39.63,27.57,73.52,73.52,0,0,1,11,21.38,66.64,66.64,0,0,1,2.71,11.6c.18,1,.24,2,.37,2.94s.18,2,.23,3l.07,1.47,0,.78c0,.48,0,1,0,1.48A16,16,0,0,1,216.32,177.39Zm-6.67-6.24a1.8,1.8,0,0,0-1.75.11.58.58,0,0,0-.11.1c0-.11-.1-.39-.15-.57l-.3-1.25-.3-1.24-.35-1.23c-.25-.81-.43-1.64-.72-2.44l-.8-2.4-.91-2.36c-.28-.79-.65-1.55-1-2.32s-.67-1.53-1.05-2.28a69.91,69.91,0,0,0-11-16.4A66.84,66.84,0,0,0,158.63,119a59.14,59.14,0,0,0-9.42-1.73,61,61,0,0,0-9.56-.32,73.88,73.88,0,0,0-9.51,1,78.75,78.75,0,0,0-26.93,10.29c-.73.4-1.4.87-2.09,1.33s-1.4.88-2.08,1.36c-1.32,1-2.75,1.91-4,3-2.72,2-5.21,4.34-7.85,6.66h0l-2.26,3-3.31-1.46a51.95,51.95,0,0,0-27.12-4c-.91.13-1.83.21-2.74.37l-2.72.58c-.45.1-.9.18-1.35.29l-1.33.4-2.65.8-2.58,1-1.29.51-1.25.61-2.49,1.21-2.38,1.42-1.2.7-1.13.81-2.27,1.59L27,150.22l-1.07.89-1,1-2,1.94-1.83,2.09c-.3.35-.61.69-.91,1l-.82,1.11L17.7,160.5l-1.47,2.36c-.24.39-.5.77-.73,1.17l-.64,1.24-1.27,2.46-1.07,2.55L12,171.56l-.43,1.32-.86,2.63-4.4-5.81q50.85,0,101.53.38T209.65,171.15Z"/><path class="cls-2" d="M72.31,75.7a2.73,2.73,0,0,1-3.43,1.73c-2.72-.9-5.46-1.75-8.09-2.91a27.13,27.13,0,0,1-4.32-2.39,7.09,7.09,0,0,1-1.81-1.64,2.16,2.16,0,0,1-.13-2.74c1-1.1,2.64-1,4-.79a19.17,19.17,0,0,1,4.36,1.3l-.09,0c1.07.43,2.11.91,3.13,1.44s2,1.15,3.06,1.73h0c.63.35,1.27.69,1.91,1a2.94,2.94,0,0,1,1.22,1.2A2.64,2.64,0,0,1,72.31,75.7Z"/><path class="cls-2" d="M93.17,30.52a2.81,2.81,0,0,1-.38,3,2.86,2.86,0,0,1-3,.85,7.44,7.44,0,0,1-1.37-.64l-.7-.32a7.25,7.25,0,0,1-1-.64c-.65-.45-1.29-.91-1.9-1.39a26.41,26.41,0,0,1-3.47-3.21,16.43,16.43,0,0,1-2.72-3.86c-.5-1.05-1.4-3.09.14-3.74a2.32,2.32,0,0,1,1.33,0,11.53,11.53,0,0,1,2.06.75,17.8,17.8,0,0,1,1.87,1,21,21,0,0,1,1.8,1.14,40.3,40.3,0,0,1,3.44,2.69c.45.4.89.81,1.35,1.23l.88.84a6.9,6.9,0,0,1,.61.79l.29.32a5.76,5.76,0,0,1,.78,1.12Z"/><path class="cls-2" d="M152.07,2.81a15.28,15.28,0,0,1-.31,2.24c-.28,1.42-.62,2.82-1,4.21-.44,1.55-.94,3.07-1.4,4.62-.22.78-.45,1.55-.67,2.33a8.06,8.06,0,0,1-.87,2.42,2,2,0,0,1-2,.94,2.06,2.06,0,0,1-1.69-1.76,7.79,7.79,0,0,1,.21-2.54c.14-.8.28-1.59.43-2.39.3-1.64.59-3.28,1-4.91.31-1.35.69-2.67,1.12-4a14.91,14.91,0,0,1,.83-2.13A3.06,3.06,0,0,1,149.31.13a2,2,0,0,1,2.3.69c0,.07.1.16.14.23A3.23,3.23,0,0,1,152.07,2.81Z"/><path class="cls-2" d="M196.93,33.21a26.66,26.66,0,0,1-2.45,2.42c-1.71,1.54-3.5,3-5.28,4.44.07-.06.15-.11.21-.17-.83.69-1.64,1.39-2.48,2.07a9.6,9.6,0,0,1-2.15,1.51,2.69,2.69,0,0,1-3.42-3.59,6.67,6.67,0,0,1,1.33-1.72c.37-.38.73-.76,1.12-1.12,1.09-1,2.24-2,3.38-2.91,1.51-1.26,3.08-2.46,4.66-3.63a15.93,15.93,0,0,1,2.69-1.68,2.58,2.58,0,0,1,3.25.5,1.67,1.67,0,0,1,.16.24C198.62,30.82,197.77,32.23,196.93,33.21Z"/></g></g></svg>