<svg xmlns="http://www.w3.org/2000/svg" viewBox="0 0 799.33 318.31"><defs><style>.cls-1{fill:#fff;}</style></defs><g id="Layer_2" data-name="Layer 2"><g id="Layer_1-2" data-name="Layer 1"><path class="cls-1" d="M799.33,316l-397.07,1.7q-198.85.69-397.69.62H0V0L4.74.18a168.14,168.14,0,0,1,50.82,9.9A167.59,167.59,0,0,1,100.92,35a169.13,169.13,0,0,1,35.66,37.52,167.49,167.49,0,0,1,22.56,46.6L153.93,116h0a104.08,104.08,0,0,1,42.81-2.66,110.92,110.92,0,0,1,41,14.36,112.37,112.37,0,0,1,32.45,28.78,104.76,104.76,0,0,1,18.62,38.64h0L283,192.24a159.75,159.75,0,0,1,35.54-8,161.88,161.88,0,0,1,36.42.32,151.46,151.46,0,0,1,17.95,3.28c3,.68,5.89,1.54,8.81,2.38s5.8,1.85,8.65,2.94a159,159,0,0,1,32.49,16.46l-5.85.69a68,68,0,0,1,102.9,4.16h0l-5-1.48a155.54,155.54,0,0,1,57.31-13c2.48-.09,5,0,7.44-.05h3.72c1.25,0,2.48.07,3.72.16l7.44.52,1.86.14,1.85.25,3.7.51,3.7.51c1.23.17,2.46.36,3.68.63l7.32,1.53c2.45.44,4.83,1.22,7.23,1.87l3.6,1c1.2.34,2.41.66,3.58,1.1,4.7,1.65,9.44,3.23,14,5.29l3.43,1.48c1.15.48,2.29,1,3.39,1.57l6.66,3.38a164.45,164.45,0,0,1,24.87,16.4c4,3,7.56,6.41,11.24,9.72.93.81,1.75,1.74,2.63,2.61l2.58,2.66,2.56,2.68c.87.87,1.62,1.86,2.44,2.78l4.74,5.66c1.51,1.95,3,3.95,4.39,5.93l2.15,3c.68,1,1.32,2.07,2,3.1,1.28,2.1,2.59,4.16,3.83,6.26h0l-5-1.76a73.24,73.24,0,0,1,46.72,2.24,72.27,72.27,0,0,1,20.34,12.18c.79.6,1.48,1.32,2.22,2s1.48,1.32,2.16,2c1.36,1.45,2.79,2.84,4,4.39.64.76,1.29,1.51,1.9,2.29l1.77,2.4.44.59.22.3.11.15.18.27a14.77,14.77,0,0,1,1.37,2.63A16.59,16.59,0,0,1,799.33,316Zm-8-4.5a2.31,2.31,0,0,0-2,.92,1.22,1.22,0,0,0-.13.3l-.7-.95L787,309.67c-.54-.69-1.12-1.34-1.67-2-1.07-1.36-2.33-2.57-3.51-3.84-.6-.63-1.27-1.18-1.89-1.78s-1.25-1.21-2-1.74a63.12,63.12,0,0,0-17.78-10.64,64,64,0,0,0-40.85-2l-2.65.75-2.35-2.51h0c-12.33-13.88-25.65-26.49-40.71-36.62l-2.8-1.92c-.92-.65-1.86-1.29-2.84-1.85L662.23,242l-1.44-.88-1.5-.8-3-1.62-3-1.62-1.49-.8-1.53-.71-6.1-2.92c-1-.51-2-.93-3.09-1.35L638,230c-4.11-1.86-8.42-3.18-12.65-4.71a183.48,183.48,0,0,0-26.19-6.48l-3.33-.59-1.67-.29-1.68-.19-6.72-.8c-2.24-.34-4.51-.34-6.76-.52s-4.52-.34-6.79-.41a209.48,209.48,0,0,0-54.47,5.62l-3.17.73-1.87-2.22h0a58.89,58.89,0,0,0-89.08-3.61l-2.63,2.8-3.23-2.11a150.34,150.34,0,0,0-30.62-15.51c-2.68-1-5.42-1.88-8.14-2.77s-5.51-1.6-8.3-2.25a144.43,144.43,0,0,0-16.91-3.08,152.26,152.26,0,0,0-34.34-.31,150.23,150.23,0,0,0-33.5,7.54l-3.84,1.34-2-4.2h0a129.66,129.66,0,0,0-20.74-32.78,123.36,123.36,0,0,0-13.73-13.42,118,118,0,0,0-51.27-24.71A132.32,132.32,0,0,0,155.63,125h0l-4,.73-1.19-3.89a158.16,158.16,0,0,0-21.33-44.06A159.61,159.61,0,0,0,95.34,42.25,158.75,158.75,0,0,0,52.45,18.66,159,159,0,0,0,4.4,9.31L9.13,4.74v309l-4.56-4.56q196.71,0,393.09.62Z"/></g></g></svg>