<svg xmlns="http://www.w3.org/2000/svg" viewBox="0 0 702.23 345.4"><defs><style>.cls-1{fill:#fff;}</style></defs><g id="Layer_2" data-name="Layer 2"><g id="Layer_1-2" data-name="Layer 1"><path class="cls-1" d="M700.07,0l1.58,170.14c.42,56.9.58,113.9.58,170.69v4.57H2.22l-.81-4.71c-.4-2.35-.77-4.73-1-7.12S0,328.77,0,326.36s0-4.84.15-7.26c.07-1.21.18-2.42.27-3.64s.28-2.41.43-3.63a107,107,0,0,1,7.84-28.4A117.58,117.58,0,0,1,100.23,214a109.91,109.91,0,0,1,29.44.06,100.2,100.2,0,0,1,14.22,3.06,82.26,82.26,0,0,1,13.43,5.17h0l-5.56,3.58a81.43,81.43,0,0,1,5.94-18.05,75.16,75.16,0,0,1,24.23-28.85,79.28,79.28,0,0,1,16.74-9,76,76,0,0,1,37.44-4.13,74.8,74.8,0,0,1,34.73,14.61h0l-6.5,1a193,193,0,0,1,58.27-58.09,200.65,200.65,0,0,1,37.3-18.52l4.92-1.76,2.46-.88c.82-.29,1.67-.5,2.5-.75l10.05-2.89,10.2-2.26c1.7-.42,3.43-.65,5.15-.93l5.16-.8,2.58-.4c.86-.14,1.72-.26,2.59-.32l5.21-.48,5.2-.47a25.21,25.21,0,0,1,2.61-.14l2.61-.07,5.22-.13c1.73,0,3.47-.14,5.21,0,3.48.12,7,.1,10.43.43l5.21.38c1.73.15,3.45.39,5.18.58s3.46.37,5.18.66l5.15.84,2.57.43,2.55.53,5.1,1.07c1.7.38,3.37.85,5.06,1.27s3.37.83,5,1.35a198.18,198.18,0,0,1,38.47,15.6,191.9,191.9,0,0,1,33.93,23.46h0l-5.84.15a171.57,171.57,0,0,1,94.66-41.6l-4,5.12a91,91,0,0,1-.68-15.56l.14-3.89c.06-1.3.26-2.59.38-3.88l.42-3.88.7-3.83a99.48,99.48,0,0,1,29.07-54c.94-.9,1.85-1.82,2.82-2.69l3-2.51c1.95-1.73,4.1-3.19,6.19-4.74.53-.37,1-.77,1.58-1.13l1.65-1,3.3-2.08.41-.26.21-.13.1-.07.17-.09c.44-.24.9-.47,1.37-.7a22.75,22.75,0,0,1,3.05-1.2A31.51,31.51,0,0,1,700.07,0Zm-4.82,7.76a7,7,0,0,0-.59,2.44.91.91,0,0,1-.24.57.73.73,0,0,1-.26.17l0,0L694,11l-.19.12-.37.24-3,1.89-1.5.94c-.49.33-1,.7-1.44,1-1.9,1.41-3.86,2.73-5.62,4.31l-2.72,2.28c-.88.79-1.71,1.63-2.57,2.45a92.79,92.79,0,0,0-17.11,22.47,92.16,92.16,0,0,0-9.32,26.65l-.64,3.49-.38,3.52c-.11,1.18-.29,2.35-.35,3.53l-.12,3.54a80.59,80.59,0,0,0,.62,14.15l.55,4.62-4.59.49a162.43,162.43,0,0,0-89.63,39.39L553,148.45l-3.21-2.16h0A223.67,223.67,0,0,0,516,126.69a208.44,208.44,0,0,0-36.6-12.86,203.51,203.51,0,0,0-38.24-5.53c-1.61-.09-3.22-.18-4.83-.18l-4.83-.07c-1.61-.07-3.22.06-4.83.1l-4.83.18-2.41.09c-.81,0-1.61,0-2.41.15l-4.81.45-4.81.46a24,24,0,0,0-2.39.31l-2.38.37-4.77.74c-1.59.25-3.19.45-4.75.84l-9.43,2-9.31,2.57c-.77.23-1.56.41-2.32.67l-2.28.78-4.57,1.57a206.49,206.49,0,0,0-35,16.24l-8.24,5.11c-2.68,1.79-5.3,3.71-8,5.53-.66.47-1.35.9-2,1.4l-1.91,1.5-3.83,3-1.92,1.5-1,.75-.91.81-3.65,3.22a223.06,223.06,0,0,0-27,28.31l-2.94,3.65-3.56-2.67h0a65.65,65.65,0,0,0-30.48-12.83,66.86,66.86,0,0,0-32.89,3.62,70.17,70.17,0,0,0-14.69,7.87,66.1,66.1,0,0,0-21.29,25.34,73,73,0,0,0-5.21,15.84L160,231.1l-4.81,0h0c-4.46,0-8.81.06-13.11.27s-8.52.57-12.7,1.11a149.53,149.53,0,0,0-24.22,5.1,133.21,133.21,0,0,0-60.25,37.77,143.24,143.24,0,0,0-14.67,19.18,145.25,145.25,0,0,0-11.39,21.93c-.41,1-.85,1.93-1.23,2.92s-.72,2-1.11,3c-.83,2-1.4,4-2.14,6-.39,1-.67,2-1,3.08l-1,3.12c-.63,2.09-1.15,4.21-1.84,6.36L6,336.27H697.66l-4.57,4.56c0-55.52.16-110.84.58-166.25Z"/></g></g></svg>