<svg xmlns="http://www.w3.org/2000/svg" viewBox="0 0 260.84 94.32"><defs><style>.cls-1{fill:#fff;}</style></defs><g id="Layer_2" data-name="Layer 2"><g id="Layer_1-2" data-name="Layer 1"><path class="cls-1" d="M259.63,92.87q-63.07.61-126.52,1.07T6.29,94.32H0l1.9-5.81,1.21-3.7L3.72,83l.74-1.8L6,77.57c.57-1.17,1.18-2.31,1.78-3.46l.9-1.73c.32-.56.68-1.11,1-1.66l2.07-3.3c.75-1,1.54-2.09,2.31-3.13l1.16-1.56c.41-.5.85-1,1.27-1.47l2.57-2.93,2.77-2.73,1.4-1.35L24.72,53l3-2.49,3.18-2.25,1.59-1.12,1.68-1,3.35-2L41,42.45l1.75-.85,1.81-.71,3.63-1.42,3.73-1.13,1.86-.56c.63-.16,1.27-.28,1.9-.42l3.81-.8c1.28-.22,2.58-.35,3.86-.52a69.44,69.44,0,0,1,7.76-.54,72.19,72.19,0,0,1,30.3,6.11h0l-5.57,1.54C104.37,26.3,120,12.72,138.23,5.77c1.15-.43,2.28-.9,3.44-1.28l3.52-1.07c.59-.17,1.17-.36,1.76-.52l1.79-.42c1.19-.29,2.38-.55,3.58-.82l3.62-.6c1.21-.19,2.42-.41,3.64-.49,2.44-.23,4.88-.48,7.33-.49a86.4,86.4,0,0,1,14.64.66,88.76,88.76,0,0,1,14.35,3,91.42,91.42,0,0,1,47.2,32.56A89,89,0,0,1,256.44,61.6a80,80,0,0,1,3.39,13.81c.23,1.16.32,2.34.48,3.5l.21,1.76.11,1.76.12,1.75.05.93c0,.52.05,1.06,0,1.61A19.48,19.48,0,0,1,259.63,92.87ZM253,86.63a2.84,2.84,0,0,0-1.81-.46.24.24,0,0,1-.12,0l-.16-.72-.34-1.53-.35-1.53-.4-1.51c-.28-1-.49-2-.83-3l-.93-3L247,72c-.34-1-.77-1.92-1.15-2.87s-.79-1.9-1.24-2.82a83.69,83.69,0,0,0-13.32-20.36,81.79,81.79,0,0,0-40.19-24.86c-1-.23-1.91-.52-2.88-.72l-2.91-.61c-1.95-.32-3.9-.67-5.87-.84a74.72,74.72,0,0,0-11.87-.42,91.52,91.52,0,0,0-11.79,1.24,94.86,94.86,0,0,0-11.5,2.9,92.71,92.71,0,0,0-21.68,10.18c-.88.51-1.7,1.11-2.53,1.69s-1.71,1.13-2.53,1.73c-1.59,1.27-3.32,2.42-4.86,3.79-3.27,2.55-6.22,5.48-9.32,8.42l-3,2.84L97.74,50h0a63.05,63.05,0,0,0-26.5-5.34,61.81,61.81,0,0,0-6.8.48c-1.12.15-2.25.25-3.37.44l-3.33.71c-.55.13-1.11.22-1.66.37l-1.63.49-3.26,1L48,49.34,46.43,50l-1.52.75L41.85,52.2l-2.93,1.74-1.47.87-1.39,1-2.78,2-2.62,2.19L29.35,61l-1.22,1.19L25.7,64.6l-2.24,2.57c-.38.43-.76.85-1.12,1.28l-1,1.37-2,2.74-1.81,2.89c-.29.48-.61,1-.89,1.45l-.79,1.51-1.56,3-1.32,3.14-.65,1.57-.53,1.62L10.69,91l-4.4-5.81q61.68,0,123.19.38T253,86.63Z"/></g></g></svg>