<svg xmlns="http://www.w3.org/2000/svg" viewBox="0 0 114.87 183.71"><defs><style>.cls-1{fill:#fcc550;}</style></defs><g id="Layer_2" data-name="Layer 2"><g id="Layer_1-2" data-name="Layer 1"><path class="cls-1" d="M111.59,174.81l-3-1.2-1.48-.61c-.81-.33-.2-.08,0,0l-1.1-.47q-3-1.32-6-2.71-6-2.79-11.81-5.93a232.16,232.16,0,0,1-22.66-14q-2.79-2-5.52-4L57.42,144c-.12-.1-.67-.52,0,0l-.63-.49-1.42-1.12q-5.17-4.11-10.12-8.5A230.61,230.61,0,0,1,26.38,115q-4.93-5.53-9.5-11.37c-.16-.22-.32-.43-.49-.64.58.75-.22-.3-.27-.36-.37-.47-.73-1-1.09-1.43-.76-1-1.51-2-2.26-3.07q-2.23-3.08-4.36-6.23c-1.31-2-4-3-6.16-1.62-1.93,1.25-3,4.07-1.61,6.16a233.86,233.86,0,0,0,35.83,41.6A236.49,236.49,0,0,0,81,170.2a237.18,237.18,0,0,0,28.22,13.29c2.19.86,5-1,5.53-3.15a4.63,4.63,0,0,0-3.14-5.53Z"/><path class="cls-1" d="M93.54,123.71c.74.56-.49-.39-.63-.5l-1.06-.87c-.76-.63-1.5-1.27-2.23-1.92-1.5-1.35-3-2.76-4.36-4.22s-2.66-2.88-3.91-4.39c-.3-.35-.58-.71-.87-1.06-.13-.16-1.06-1.36-.51-.63-.63-.84-1.25-1.68-1.85-2.53A84.29,84.29,0,0,1,72,97.53q-.67-1.31-1.29-2.64c-.2-.41-.39-.83-.57-1.25-.11-.23-.22-.47-.32-.71s-.46-1.09-.24-.55-.05-.13-.07-.18c-.1-.25-.2-.49-.29-.73-.17-.43-.34-.85-.5-1.28-.37-1-.72-2-1.05-3a81.25,81.25,0,0,1-3.2-13.12c-.37-2.33-3.4-3.83-5.54-3.14-2.53.82-3.53,3-3.14,5.53A86.8,86.8,0,0,0,78,121.56a88.06,88.06,0,0,0,11,9.92c1.88,1.44,5.12.35,6.16-1.61,1.26-2.38.39-4.63-1.62-6.16Z"/><path class="cls-1" d="M106.84,96.7Q96.87,60.52,88.18,24,85.72,13.68,83.37,3.32A4.53,4.53,0,0,0,77.83.18a4.6,4.6,0,0,0-3.14,5.53Q83,42.31,92.62,78.6q2.72,10.26,5.55,20.5a4.5,4.5,0,1,0,8.67-2.4Z"/></g></g></svg>