<svg xmlns="http://www.w3.org/2000/svg" viewBox="0 0 501.86 430.51"><defs><style>.cls-1{fill:#fcc550;}</style></defs><g id="Layer_2" data-name="Layer 2"><g id="Layer_1-2" data-name="Layer 1"><path class="cls-1" d="M0,380.79c2.81-11.61,9.52-21.29,15.55-31.3Q113.61,186.8,211.61,24.07C219.29,11.31,229.41,2.3,244.5.43c19.3-2.39,34,5.2,44.11,21.8q19.42,32,38.75,64.1Q409.88,223,492.29,359.63c4,6.59,6.42,14.09,9.57,21.16v12.75c-2.06,5.26-3.46,10.91-6.32,15.7-9.13,15.34-23.33,21.29-40.81,21.27q-165.09-.15-330.19-.05c-26.13,0-52.26-.06-78.39,0-17.14.06-30.92-6.29-39.83-21.24C3.47,404.45,2.07,398.8,0,393.54Zm250.88,20.3q101.42,0,202.84,0a38.56,38.56,0,0,0,8.26-.67,13.41,13.41,0,0,0,9.54-17.5,40.59,40.59,0,0,0-3.61-6.91Q366.32,207.71,264.69,39.47a45.92,45.92,0,0,0-3.23-4.89,13.55,13.55,0,0,0-21.58.13,42.5,42.5,0,0,0-2.95,4.5Q135.19,207.94,33.47,376.7a33.58,33.58,0,0,0-3.25,6.55,13.42,13.42,0,0,0,9.55,17.12,37.47,37.47,0,0,0,8.27.69Q149.46,401.1,250.88,401.09Z"/></g></g></svg>