<svg xmlns="http://www.w3.org/2000/svg" viewBox="0 0 520.72 347.25"><defs><style>.cls-1{fill:#057fc4;}</style></defs><g id="Layer_2" data-name="Layer 2"><g id="Layer_1-2" data-name="Layer 1"><path class="cls-1" d="M520.72,14.81c-2.37,10.85-4.91,21.67-7.09,32.56Q487.44,178.1,461.32,308.84c-5.08,25.26-21.54,38.38-47.37,38.39q-81.13,0-162.27,0-72.74,0-145.47,0c-13.64,0-25.69-3.75-35.3-13.9-6.91-7.29-10.11-16.23-12-25.86Q30.61,165.79,2.23,24.1c-.66-3.32-1.35-6.64-2-10C-1,7.19,2.21,1.72,8.27.39s11.52,2,13,9c3.54,16.38,6.71,32.84,10,49.27,1.6,7.94,3.19,15.87,5,25,3.78-3,7.07-5.26,9.91-8C51.17,71,55.76,66,60.52,61.13c23.52-23.87,58-23.84,81.47.08,4.4,4.48,8.58,9.16,13,13.58,16.32,16.2,35.72,16.1,51.93-.24,4.29-4.33,8.38-8.88,12.65-13.24,23.49-24,57.83-24.08,81.45-.23,6.08,6.14,11.93,12.55,18.43,18.21a31.42,31.42,0,0,0,40.66.24c6.16-5.27,11.75-11.24,17.39-17.09,24.72-25.66,59.11-25.67,83.92.07,4.24,4.39,8.4,8.87,12.81,13.08,2.78,2.67,6,4.92,9.86,8.08,1.81-8.83,3.45-16.67,5-24.51,3.18-15.94,6.27-31.9,9.52-47.83,1.86-9.11,8.53-13.63,15.45-10.16,2.63,1.31,4.43,4.29,6.61,6.51Zm-480,90c.17,1.31.2,1.81.3,2.3q19.68,98.64,39.38,197.26c3,15,10.33,21,25.75,21H413.88c16.3,0,23.27-5.95,26.45-22q14.37-72.49,28.91-145c3.55-17.73,7.11-35.46,10.74-53.58-14.34-5.25-23.68-16.37-33.65-26.74a74.43,74.43,0,0,0-6.8-6.11c-11.6-9.41-28.95-9.5-40.34.27-6.28,5.4-11.95,11.52-17.74,17.47-24.48,25.13-58.91,25-83.22-.21-5.76-6-11.49-12-17.77-17.42-11.26-9.68-29.07-9.63-40.27.14-6.62,5.77-12.59,12.31-18.8,18.55-19.42,19.51-48,23.73-69.59,9-8.7-5.93-15.8-14.24-23.49-21.61-6.18-5.93-12.5-11.33-21.45-12.7-13.15-2-23.47,2.92-32.29,12.22C64.56,88.28,55.08,99.5,40.7,104.8Z"/></g></g></svg>