<?xml version="1.0" encoding="UTF-8"?><svg id="Layer_2" xmlns="http://www.w3.org/2000/svg" viewBox="0 0 119.84 122.74"><defs><style>.cls-1{fill:#fff;}</style></defs><g id="_"><g id="Layer_41"><path class="cls-1" d="M63.9,66.86c-4.27,1.22-9.14,.2-12.73-2.68-2.04-1.63-3.75-3.72-5.3-6.45-.74,2.69-1.82,5.28-3.22,7.73-.56,.99-1.18,1.94-1.81,2.81-2.73,3.75-5.98,6.33-9.66,7.67-5.44,1.98-10.64,.57-13.23-3.59-2.51-4.04-2.2-9.14,.76-13.86-4.4,1.12-8.84,1.58-12.75-.3-2.91-1.41-4.91-3.65-5.65-6.31-.68-2.45-.23-5.19,1.27-7.72,.18-.3,.38-.6,.59-.89,3.36-4.62,9.37-5.83,14.23-6.36h.12c-1.89-1.09-3.67-2.26-5.31-3.53-2.22-1.7-4.52-3.56-6.19-5.85-1.78-2.46-2.25-5.19-1.3-7.7,.27-.73,.65-1.43,1.13-2.09,1-1.37,2.43-2.53,4.03-3.26,5.48-2.5,11.63,.46,15.78,2.9,1.57,.92,3.1,1.95,4.56,3.07,0-.06-.01-.11-.02-.17-.54-4.32,.53-8.68,2.92-11.97,.7-.96,1.51-1.82,2.41-2.55,4.12-3.36,9.89-3.37,14.35-.04,4.16,3.11,6.63,8.24,6.62,13.72,0,1.24-.12,2.52-.34,3.83,.36-.25,.74-.49,1.11-.72,4.24-2.53,9.62-2.79,13.7-.68,4.34,2.25,6.4,6.98,5.13,11.78-.41,1.53-1.12,3-2.11,4.37-1.68,2.3-4.03,4.12-6.64,5.13-1.29,.5-2.65,.86-4.12,1.09,.91,.5,1.84,1.08,2.73,1.75,3.76,2.82,6.11,6.88,6.28,10.86,.1,2.28-.54,4.43-1.85,6.23s-3.22,3.13-5.48,3.78Zm-13.82-22.36c-.31,.82-.72,1.59-1.23,2.3-.46,.63-.98,1.19-1.57,1.68,2.86,7.91,6.57,14.92,13.89,13.99,1.79-.23,3.33-1.06,4.22-2.28,.57-.78,.86-1.69,.87-2.7,.03-3.04-2.3-5.9-4.31-7.42-2.42-1.83-5.22-2.97-8.19-4.18-1.19-.49-2.42-.99-3.62-1.54-.02,.05-.04,.1-.05,.15Zm-.24-7.56l-.14,.26c.27,.53,.49,1.08,.65,1.66,7.06,1.07,14.73,1.64,18.47-3.5h0c.34-.47,.65-.98,.91-1.53,1.09-2.26,1.11-5.33-1.32-7.1-2.35-1.72-6.14-1.86-9.22-.34-2.27,1.12-4.34,3-6.33,5.73-1.22,1.68-2.26,3.46-3.02,4.82Zm-8.58,13.57c-.78-.04-1.57-.17-2.34-.41-3.47,2.1-7.18,3.93-11.04,5.43-.67,.52-1.33,1.06-1.96,1.62-1.09,.98-2.05,2.02-2.83,3.1-1.52,2.1-3.08,5.29-1.8,8.58,1.32,3.42,5.05,3.82,7.95,2.74,2.83-1.05,5.26-3,7.41-5.96,.46-.63,.9-1.31,1.33-2.02,2.33-3.89,3.68-8.39,3.94-13.07-.22,0-.44,0-.67,0Zm-4.42-12.1c.45,.23,.79,.61,.97,1.09,.28,.74,.14,1.63-.37,2.32-.17,.23-.36,.42-.59,.57,.6,1.56,1.92,2.79,3.6,3.3,1.8,.54,3.62-.08,4.74-1.63,.06-.08,.12-.17,.17-.26,1.11-1.74,1.05-3.93-.15-5.33-1.47-1.7-4.24-2.21-6.06-1.11-.66,.4-1.37,.41-1.97,.18-.14,.29-.26,.58-.35,.87Zm-3.17-19.67c.09,2.24,.73,4.65,1.95,7.38,.12,.28,.25,.55,.39,.82,1.27,1.49,2.46,3.07,3.53,4.7,.2,.3,.33,.62,.4,.94,2.07-.36,4.21-.02,6.08,.97,1.76-3.66,3.57-7.44,4.16-11.47,.44-3.03,.29-7.39-2.88-10.99-2.08-2.36-5.62-3.94-8.86-2.16-.99,.54-1.87,1.34-2.61,2.35-1.47,2.02-2.28,4.81-2.17,7.46Zm-5.54,22.84c-2.69-.28-5.38-.35-8-.22-4.17,.21-9.87,.51-13.31,3.64-.36,.33-.7,.7-.99,1.11-.8,1.1-1.24,2.34-1.24,3.51,0,2.01,1.49,3.51,2.89,4.25,3.98,2.1,9.23,.44,13.45-.9l.08-.03c1.58-.5,3.17-1.07,4.74-1.7,2.46-1.84,5.17-3.38,8.08-4.6-.68-.84-1.2-1.77-1.55-2.75-.18-.5-.32-1.02-.42-1.54-1.25-.21-2.5-.46-3.72-.77Zm6.06-8.55c-.4-.63-.79-1.26-1.17-1.89-2.38-2.99-5.14-5.6-8.18-7.78-3.83-2.74-8.3-5.46-12.46-4.9-1.52,.21-2.88,1-3.74,2.18-.05,.07-.1,.15-.15,.22-1.02,1.57-.34,3.08,.42,4.08,1.4,1.85,3.34,3.44,5.04,4.74,1.98,1.51,4.03,2.82,6.09,3.88,2.81,1.45,5.79,2.59,8.83,3.38,1.05,.12,2.11,.26,3.17,.43,.38-1.44,1.04-2.83,1.93-4.05,.07-.1,.15-.2,.22-.3Z"/></g><g id="Layer_9"><g><path class="cls-1" d="M49.74,113.79c17.11,4,34.91-5.1,41.98-21.14,.9-2.05-2.31-3.36-3.21-1.32-6.48,14.72-22.76,22.65-38.35,19.01-2.17-.51-2.57,2.94-.42,3.45Z"/><path class="cls-1" d="M67.43,122.74c9.27-.53,17.64-5.56,22.45-13.51,1.14-1.89-1.59-4.03-2.75-2.12-4.39,7.27-11.71,11.71-20.19,12.2-2.23,.13-1.74,3.57,.48,3.44Z"/></g><g><path class="cls-1" d="M111.32,25.26c-.59,0-1.15-.23-1.52-.64-.37-.4-.55-.94-.5-1.52,.69-8.35-5-15.76-13.24-17.23-1.07-.19-1.75-1.08-1.65-2.16,.09-.97,.86-2.01,2.13-2.01,.13,0,.26,.01,.39,.03,10.15,1.82,17.43,11.28,16.58,21.54-.11,1.3-1.19,1.99-2.19,1.99Z"/><path class="cls-1" d="M117.66,12.68c-.7,0-1.34-.33-1.75-.91l-6.04-8.56c-.44-.63-.51-1.39-.17-2.04,.37-.71,1.14-1.16,1.96-1.16,.7,0,1.33,.33,1.74,.91l6.04,8.56c.44,.63,.51,1.39,.17,2.04-.37,.71-1.14,1.16-1.96,1.16Z"/></g></g></g></svg>