<?xml version="1.0" encoding="UTF-8"?><svg id="Layer_2" xmlns="http://www.w3.org/2000/svg" viewBox="0 0 108.4 144.01"><defs><style>.cls-1{fill:#fff;}</style></defs><g id="_"><g id="Layer_40"><path class="cls-1" d="M49.23,86.39c10.93,5.41,17.87,17.43,19.02,32.96,.19,2.57,2.16,4.51,4.79,4.72,2.67,.22,4.93-1.51,5.36-4.12,1.12-6.67,3.86-13.74,7.31-18.9,3.02-4.51,8.08-9.76,15.07-9.2,.27,.02,.55,.05,.83,.09,.13,.02,.26,.03,.38,.04,3.74,.3,6.08-2.59,6.37-5.48,.32-3.13-1.69-5.69-4.78-6.07-.32-.04-.63-.07-.94-.1-.36-.03-.73-.05-1.11-.06-9.31-7.75-11.99-27.2-13.59-38.87l-.13-.92c-.36-2.62-2.43-4.6-5.03-4.82-2.69-.22-4.96,1.44-5.64,4.12-5.54,21.88-14.23,33.8-25.84,35.41-2.66,.37-4.83,2.48-5.26,5.13-.41,2.55,.81,4.86,3.18,6.04Zm6.84-4.46l2.55-1.05c8.89-3.65,17.33-18.79,22.59-33.52l.25,.05c2.18,13.53,7.63,29.42,13.75,35.29l2.06,1.98-2.74,.83c-8.13,2.46-15.34,10.51-19.26,21.54l-1.81,5.08-1.38-5.21c-2.61-9.82-7.29-17.63-13.9-23.22l-2.11-1.78Z"/></g><g id="Layer_9"><g><path class="cls-1" d="M31.14,1.7C15.95,3.99,4.44,17.15,3.9,32.46c-.07,1.95,2.96,1.98,3.03,.03,.5-14.06,11.14-25.77,24.98-27.86,1.92-.29,1.14-3.22-.78-2.94Z"/><path class="cls-1" d="M13.88,.16C6.52,3.59,1.35,10.39,.02,18.4c-.32,1.91,2.6,2.76,2.92,.83C4.15,11.91,8.66,5.94,15.38,2.79c1.77-.83,.26-3.46-1.51-2.64Z"/></g><g><path class="cls-1" d="M26.85,122.16c.51-.09,1.02,.03,1.41,.33,.38,.29,.61,.73,.65,1.24,.62,7.3,6.61,12.85,13.92,12.93,.95,0,1.66,.68,1.74,1.62,.07,.85-.45,1.85-1.54,2.04-.11,.02-.22,.03-.34,.03-9.01-.09-16.66-7.19-17.43-16.16-.1-1.14,.73-1.88,1.6-2.03Z"/><path class="cls-1" d="M23.21,133.93c.6-.1,1.2,.09,1.64,.53l6.45,6.5c.47,.48,.64,1.13,.44,1.74-.21,.66-.81,1.17-1.52,1.29-.6,.1-1.2-.09-1.64-.53l-6.45-6.5c-.47-.48-.64-1.13-.44-1.74,.21-.66,.81-1.17,1.52-1.29Z"/></g></g></g></svg>