<?xml version="1.0" encoding="UTF-8"?><svg id="Layer_2" xmlns="http://www.w3.org/2000/svg" viewBox="0 0 218.58 306.68"><defs><style>.cls-1{fill:#007fc4;}</style></defs><g id="Layer_1-2"><path class="cls-1" d="M205.52,188.02c16.48,39.64,17.05,78.48,3.47,118.66-3.03-2.93-1.83-5.29-1.31-7.24,3.86-14.44,4.26-29.24,4.9-44.02,.92-21.22-4.09-41.27-11.89-60.77-.33-.83-.9-1.57-1.96-3.36-2.03,10.01,1.44,19.93-2.56,28.6-.64-.08-1.28-.15-1.92-.23-.48-6.55-.92-13.11-1.47-19.66-.54-6.45-1.33-12.88-1.75-19.34-.31-4.76,1.95-6.77,6.32-5.05,5.56,2.19,10.81,5.19,16.17,7.88,.6,.3,1.35,.79,1.53,1.35,.52,1.58,.78,3.24,1.15,4.87-1.47,.32-2.99,1.05-4.39,.85-1.68-.24-3.25-1.26-6.29-2.54Z"/><path class="cls-1" d="M13.06,118.66C-3.42,79.03-3.99,40.18,9.59,0c3.03,2.93,1.83,5.29,1.31,7.24-3.86,14.44-4.26,29.24-4.9,44.02-.92,21.22,4.09,41.27,11.89,60.77,.33,.83,.9,1.57,1.96,3.36,2.03-10.01-1.44-19.93,2.56-28.6,.64,.08,1.28,.15,1.92,.23,.48,6.55,.92,13.11,1.47,19.66,.54,6.45,1.33,12.88,1.75,19.34,.31,4.76-1.95,6.77-6.32,5.05-5.56-2.19-10.81-5.19-16.17-7.88-.6-.3-1.35-.79-1.53-1.35-.52-1.58-.78-3.24-1.15-4.87,1.47-.32,2.99-1.05,4.39-.85,1.68,.24,3.25,1.26,6.29,2.54Z"/></g></svg>