<?xml version="1.0" encoding="UTF-8"?><svg id="Layer_2" xmlns="http://www.w3.org/2000/svg" viewBox="0 0 349.22 321.84"><defs><style>.cls-1{fill:#fcc54e;}</style></defs><g id="Layer_1-2"><path class="cls-1" d="M331.99,41.74c.38-2.02-.63-4.09-2.45-5.05-7.93-4.16-11.1-14.97-9.42-32.13,.21-2.1-1-3.88-2.99-4.42s-3.92,.37-4.86,2.16l-.33,.63c-4.17,7.97-11.11,21.26-19.81,24.43-.28-.09-.55-.17-.82-.24-.23-.06-.46-.12-.7-.17-2.32-.52-4.42,.79-5,3.13-.53,2.15,.4,4.83,3.17,5.58,.09,.02,.19,.05,.28,.07,.21,.04,.42,.09,.62,.15,5.17,1.4,7.45,6.48,8.45,10.5,1.15,4.6,1.29,10.39,.37,15.47-.36,1.98,.82,3.81,2.79,4.35s3.86-.36,4.66-2.16c4.84-10.87,12.93-17.71,22.19-18.78,2.01-.23,3.48-1.58,3.85-3.52Zm-9.58-.72c-6.2,2.31-11.58,6.71-15.99,13.1l-2.34,3.39v-4.12c.04-8.94-3.06-16.59-8.27-20.46l-1.76-1.3,2-.89c5.92-2.64,13.94-12.65,19-21.81l.2,.03c-.03,11.94,2.13,25,7.57,29.92l1.56,1.41-1.97,.73Z"/><path class="cls-1" d="M349.18,88.68c.19-1.04-.33-2.11-1.26-2.6-4.08-2.14-5.71-7.7-4.85-16.53,.11-1.08-.51-2-1.54-2.27s-2.02,.19-2.5,1.11l-.17,.32c-2.14,4.1-5.72,10.94-10.19,12.56-.14-.05-.28-.09-.42-.12-.12-.03-.24-.06-.36-.09-1.19-.27-2.28,.41-2.57,1.61-.27,1.1,.2,2.49,1.63,2.87,.05,.01,.1,.02,.15,.03,.11,.02,.21,.05,.32,.08,2.66,.72,3.83,3.33,4.35,5.4,.59,2.37,.66,5.34,.19,7.96-.18,1.02,.42,1.96,1.44,2.24s1.99-.19,2.4-1.11c2.49-5.59,6.65-9.11,11.41-9.66,1.03-.12,1.79-.81,1.98-1.81Zm-4.93-.37c-3.19,1.19-5.95,3.45-8.22,6.74l-1.2,1.74v-2.12c.02-4.6-1.57-8.53-4.25-10.52l-.9-.67,1.03-.46c3.04-1.36,7.17-6.51,9.77-11.22h.1c-.01,6.16,1.09,12.88,3.9,15.41l.8,.73-1.02,.38Z"/><path class="cls-1" d="M39.82,292.45c-.81-1.3-2.42-1.94-3.91-1.54-6.48,1.72-13.71-2.64-21.48-12.96-.95-1.26-2.51-1.64-3.89-.92-1.32,.69-1.98,2.19-1.59,3.65l.14,.51c1.74,6.51,4.64,17.37,1.44,23.52-.2,.09-.39,.19-.57,.28-.16,.08-.32,.17-.48,.26-1.55,.89-2.04,2.68-1.18,4.26,.79,1.45,2.67,2.47,4.58,1.48,.06-.03,.13-.07,.19-.11,.14-.08,.28-.16,.42-.23,3.56-1.85,7.39-.2,9.99,1.51,2.97,1.96,5.97,5.08,8.04,8.35,.81,1.28,2.38,1.69,3.74,.98,1.34-.7,1.95-2.16,1.48-3.55-2.83-8.45-1.84-16.32,2.73-21.6,.99-1.15,1.12-2.64,.34-3.89Zm-5.65,4.46c-2.25,4.41-2.99,9.57-2.19,15.33l.42,3.05-2.08-2.28c-4.52-4.95-10.1-7.6-14.93-7.09l-1.63,.17,.65-1.5c1.93-4.46,1.28-14.04-.57-21.66l.12-.08c6.03,6.6,13.84,12.72,19.34,12.68h1.58l-.72,1.39Z"/><path class="cls-1" d="M48.3,216.88c-1.23-1.97-3.66-2.93-5.91-2.33-9.81,2.6-20.74-3.99-32.49-19.6-1.44-1.91-3.8-2.47-5.88-1.4-2,1.04-2.99,3.31-2.4,5.53l.21,.78c2.63,9.85,7.02,26.27,2.18,35.57-.3,.14-.59,.28-.86,.42-.24,.12-.48,.26-.72,.39-2.34,1.34-3.09,4.05-1.78,6.45,1.2,2.2,4.04,3.73,6.92,2.23,.1-.05,.19-.1,.29-.16,.21-.12,.42-.24,.63-.35,5.38-2.79,11.19-.3,15.1,2.29,4.49,2.96,9.03,7.68,12.17,12.63,1.22,1.93,3.6,2.56,5.66,1.49,2.03-1.05,2.95-3.26,2.24-5.38-4.29-12.78-2.78-24.69,4.13-32.68,1.5-1.73,1.7-3.99,.51-5.89Zm-8.55,6.74c-3.41,6.67-4.52,14.47-3.31,23.19l.64,4.62-3.15-3.45c-6.83-7.49-15.28-11.5-22.59-10.73l-2.46,.26,.98-2.27c2.91-6.74,1.94-21.24-.86-32.77l.18-.13c9.13,9.99,20.94,19.24,29.26,19.17l2.39-.02-1.09,2.13Z"/></g></svg>