<?xml version="1.0" encoding="utf-8"?>
<!-- Generator: Adobe Illustrator 25.3.1, SVG Export Plug-In . SVG Version: 6.00 Build 0)  -->
<svg version="1.1" id="Layer_1" xmlns="http://www.w3.org/2000/svg" xmlns:xlink="http://www.w3.org/1999/xlink" x="0px" y="0px"
	 viewBox="0 0 324.81 229.64" style="enable-background:new 0 0 324.81 229.64;" xml:space="preserve">
<style type="text/css">
	.st0{fill:#9D0917;}
	.st1{fill:#EA0029;}
	.st2{fill:url(#SVGID_1_);}
	.st3{fill:url(#SVGID_2_);}
	.st4{fill:url(#SVGID_3_);}
	.st5{fill:url(#SVGID_4_);}
	.st6{fill:url(#SVGID_5_);}
	.st7{fill:url(#SVGID_6_);}
	.st8{fill:url(#SVGID_7_);}
	.st9{fill:url(#SVGID_8_);}
	.st10{fill:url(#SVGID_9_);}
	.st11{fill:url(#SVGID_10_);}
	.st12{fill:url(#SVGID_11_);}
	.st13{fill:url(#SVGID_12_);}
	.st14{opacity:0.58;fill:#EA0029;}
</style>
<g>
	<g>
		<g>
			<polygon class="st0" points="46.21,66.55 75.5,125.05 93.7,119.29 95.98,50.78 83.22,54.9 83.13,100.46 63.09,61.21 			"/>
			<polygon class="st0" points="104.8,47.98 103.79,116.09 120.21,110.89 121.23,42.77 			"/>
			<polygon class="st0" points="123.51,42.05 142.49,72.33 125.34,109.44 141.21,104.23 150.57,85.45 159.24,98.52 176.57,93.03 
				159.86,66.44 179.41,24.33 164.02,29.22 152.21,54.22 140.85,36.55 			"/>
			<polygon class="st0" points="231.88,7.71 249.23,2.21 249.12,54.96 271.25,47.95 271.26,63.01 231.56,75.59 			"/>
			<path class="st0" d="M207.19,16.25c15.23,1.5,22.33,19.3,20.21,37.82c-2.12,18.51-15.99,33.69-31.22,32.2
				c-15.24-1.5-22.88-18.66-20.76-37.17C177.55,30.57,191.96,14.74,207.19,16.25z M192.81,50.61c-0.83,12.08,2.24,23.86,7.09,24.12
				c4.84,0.28,9.64-11.06,10.46-23.15c0.84-12.09-1.86-23.48-6.71-23.76C198.8,27.55,193.64,38.52,192.81,50.61z"/>
		</g>
	</g>
	<g>
		<g>
			<polygon class="st1" points="47.96,64.52 77.25,123.03 95.45,117.26 97.73,48.75 84.97,52.88 84.89,98.43 64.84,59.18 			"/>
			<polygon class="st1" points="106.55,45.95 105.54,114.06 121.96,108.85 122.98,40.74 			"/>
			<polygon class="st1" points="125.26,40.02 144.24,70.3 127.09,107.41 142.96,102.2 152.33,83.42 160.99,96.49 178.32,91 
				161.62,64.41 181.16,22.3 165.77,27.19 153.96,52.19 142.6,34.52 			"/>
			<polygon class="st1" points="233.63,5.68 250.98,0.18 250.88,52.93 273.01,45.92 273.01,60.98 233.31,73.56 			"/>
			<path class="st1" d="M208.94,14.22c15.23,1.51,22.33,19.3,20.21,37.82c-2.12,18.51-15.99,33.69-31.22,32.19
				c-15.23-1.5-22.88-18.66-20.75-37.17C179.3,28.54,193.72,12.71,208.94,14.22z M194.56,48.58c-0.83,12.08,2.24,23.86,7.09,24.12
				c4.84,0.28,9.64-11.06,10.46-23.15c0.84-12.1-1.86-23.48-6.71-23.76C200.55,25.52,195.4,36.48,194.56,48.58z"/>
		</g>
	</g>
	<g>
		<linearGradient id="SVGID_1_" gradientUnits="userSpaceOnUse" x1="114.263" y1="45.9483" x2="114.263" y2="109.744">
			<stop  offset="0" style="stop-color:#FFFFFF"/>
			<stop  offset="0.1041" style="stop-color:#FEF7F7"/>
			<stop  offset="0.2687" style="stop-color:#FCE0E1"/>
			<stop  offset="0.4732" style="stop-color:#F9BBBC"/>
			<stop  offset="0.7095" style="stop-color:#F4878A"/>
			<stop  offset="0.9698" style="stop-color:#EF464A"/>
			<stop  offset="1" style="stop-color:#EE3E42"/>
		</linearGradient>
		<polygon class="st2" points="110.63,48.56 121.15,45.22 121.18,43.17 108.3,47.25 107.35,111.63 109.71,110.88 		"/>
		<linearGradient id="SVGID_2_" gradientUnits="userSpaceOnUse" x1="158.0049" y1="78.1296" x2="158.0049" y2="95.3339">
			<stop  offset="0" style="stop-color:#FFFFFF"/>
			<stop  offset="0.1041" style="stop-color:#FEF7F7"/>
			<stop  offset="0.2687" style="stop-color:#FCE0E1"/>
			<stop  offset="0.4732" style="stop-color:#F9BBBC"/>
			<stop  offset="0.7095" style="stop-color:#F4878A"/>
			<stop  offset="0.9698" style="stop-color:#EF464A"/>
			<stop  offset="1" style="stop-color:#EE3E42"/>
		</linearGradient>
		<polygon class="st3" points="153.45,78.78 152.56,80.57 161.73,94.4 163.45,93.85 		"/>
		<linearGradient id="SVGID_3_" gradientUnits="userSpaceOnUse" x1="65.2314" y1="57.7452" x2="65.2314" y2="126.2068">
			<stop  offset="0" style="stop-color:#FFFFFF"/>
			<stop  offset="0.1041" style="stop-color:#FEF7F7"/>
			<stop  offset="0.2687" style="stop-color:#FCE0E1"/>
			<stop  offset="0.4732" style="stop-color:#F9BBBC"/>
			<stop  offset="0.7095" style="stop-color:#F4878A"/>
			<stop  offset="0.9698" style="stop-color:#EF464A"/>
			<stop  offset="1" style="stop-color:#EE3E42"/>
		</linearGradient>
		<polygon class="st4" points="53.19,66.77 64.84,63.08 63.94,61.32 50.48,65.58 78.16,120.88 79.99,120.3 		"/>
		<linearGradient id="SVGID_4_" gradientUnits="userSpaceOnUse" x1="271.8077" y1="52.7791" x2="250.038" y2="52.7791">
			<stop  offset="0" style="stop-color:#FFFFFF"/>
			<stop  offset="0.1041" style="stop-color:#FEF7F7"/>
			<stop  offset="0.2687" style="stop-color:#FCE0E1"/>
			<stop  offset="0.4732" style="stop-color:#F9BBBC"/>
			<stop  offset="0.7095" style="stop-color:#F4878A"/>
			<stop  offset="0.9698" style="stop-color:#EF464A"/>
			<stop  offset="1" style="stop-color:#EE3E42"/>
		</linearGradient>
		<polygon class="st5" points="249.67,57.22 271.24,50.39 271.24,48.34 249.67,55.17 		"/>
		<linearGradient id="SVGID_5_" gradientUnits="userSpaceOnUse" x1="91.2667" y1="57.7458" x2="91.2667" y2="126.2096">
			<stop  offset="0" style="stop-color:#FFFFFF"/>
			<stop  offset="0.1041" style="stop-color:#FEF7F7"/>
			<stop  offset="0.2687" style="stop-color:#FCE0E1"/>
			<stop  offset="0.4732" style="stop-color:#F9BBBC"/>
			<stop  offset="0.7095" style="stop-color:#F4878A"/>
			<stop  offset="0.9698" style="stop-color:#EF464A"/>
			<stop  offset="1" style="stop-color:#EE3E42"/>
		</linearGradient>
		<polygon class="st6" points="88.99,101.75 89.08,55.46 95.81,53.29 95.88,51.21 86.74,54.16 86.66,98.43 		"/>
		<linearGradient id="SVGID_6_" gradientUnits="userSpaceOnUse" x1="242.1485" y1="2.8035" x2="242.1485" y2="68.2522">
			<stop  offset="0" style="stop-color:#FFFFFF"/>
			<stop  offset="0.1041" style="stop-color:#FEF7F7"/>
			<stop  offset="0.2687" style="stop-color:#FCE0E1"/>
			<stop  offset="0.4732" style="stop-color:#F9BBBC"/>
			<stop  offset="0.7095" style="stop-color:#F4878A"/>
			<stop  offset="0.9698" style="stop-color:#EF464A"/>
			<stop  offset="1" style="stop-color:#EE3E42"/>
		</linearGradient>
		<polygon class="st7" points="237.73,8.28 249.2,4.64 249.2,2.6 235.4,6.97 235.09,71.14 237.44,70.39 		"/>
		<linearGradient id="SVGID_7_" gradientUnits="userSpaceOnUse" x1="200.7848" y1="15.4225" x2="200.7848" y2="81.9128">
			<stop  offset="0" style="stop-color:#FFFFFF"/>
			<stop  offset="0.1041" style="stop-color:#FEF7F7"/>
			<stop  offset="0.2687" style="stop-color:#FCE0E1"/>
			<stop  offset="0.4732" style="stop-color:#F9BBBC"/>
			<stop  offset="0.7095" style="stop-color:#F4878A"/>
			<stop  offset="0.9698" style="stop-color:#EF464A"/>
			<stop  offset="1" style="stop-color:#EE3E42"/>
		</linearGradient>
		<path class="st8" d="M201.47,82.33c-0.61,0-1.22-0.03-1.82-0.09c-4.84-0.48-8.93-2.75-12.16-6.74
			c-5.14-6.37-7.47-16.65-6.22-27.49c1.9-16.58,14.31-30.59,27.1-30.59c0.58,0,1.18,0.03,1.76,0.09c4.6,0.45,8.49,2.62,11.58,6.43
			c0.44,0.55,0.86,1.14,1.26,1.75c-0.62-1.06-1.29-2.05-2.02-2.95c-3.24-4-7.33-6.28-12.18-6.76c-0.61-0.06-1.23-0.09-1.84-0.09
			c-13.22,0-26.03,14.36-27.98,31.37c-1.27,11.08,1.12,21.6,6.41,28.15c3.38,4.19,7.67,6.56,12.76,7.06
			c0.63,0.06,1.27,0.09,1.91,0.09c1.28,0,2.54-0.13,3.79-0.38C203.03,82.28,202.25,82.33,201.47,82.33z"/>
		<linearGradient id="SVGID_8_" gradientUnits="userSpaceOnUse" x1="206.6683" y1="75.6583" x2="206.6683" y2="22.3282">
			<stop  offset="0" style="stop-color:#FFFFFF"/>
			<stop  offset="0.1041" style="stop-color:#FEF7F7"/>
			<stop  offset="0.2687" style="stop-color:#FCE0E1"/>
			<stop  offset="0.4732" style="stop-color:#F9BBBC"/>
			<stop  offset="0.7095" style="stop-color:#F4878A"/>
			<stop  offset="0.9698" style="stop-color:#EF464A"/>
			<stop  offset="1" style="stop-color:#EE3E42"/>
		</linearGradient>
		<path class="st9" d="M202.96,76c0.09,0,0.21,0.01,0.32,0.01c7,0,12.07-13.03,12.94-25.63c0.72-10.49-1.15-20.22-4.65-24.2
			c-1.64-1.86-3.38-2.33-4.56-2.39c-0.11-0.01-0.22-0.01-0.33-0.01c-0.57,0-1.13,0.09-1.68,0.24c0.08,0,0.15-0.01,0.23-0.01
			c0.09,0,0.18,0,0.28,0c1,0.06,2.51,0.47,3.94,2.1c3.36,3.81,5.14,13.28,4.43,23.55c-0.82,11.93-5.66,24.8-12.06,24.8
			c-0.09,0-0.18,0-0.27-0.01c-1.47-0.08-2.81-0.8-3.99-2.13c-0.21-0.23-0.4-0.49-0.6-0.75c0.44,0.76,0.9,1.44,1.39,2
			C199.7,75.09,201.25,75.91,202.96,76z"/>
		<g>
			<linearGradient id="SVGID_9_" gradientUnits="userSpaceOnUse" x1="138.3413" y1="36.1022" x2="138.3413" y2="105.3643">
				<stop  offset="0" style="stop-color:#FFFFFF"/>
				<stop  offset="0.1041" style="stop-color:#FEF7F7"/>
				<stop  offset="0.2687" style="stop-color:#FCE0E1"/>
				<stop  offset="0.4732" style="stop-color:#F9BBBC"/>
				<stop  offset="0.7095" style="stop-color:#F4878A"/>
				<stop  offset="0.9698" style="stop-color:#EF464A"/>
				<stop  offset="1" style="stop-color:#EE3E42"/>
			</linearGradient>
			<polygon class="st10" points="142.92,38.32 142.93,38.34 142.95,38.33 141.85,36.62 127.97,41.02 146.25,70.17 130.4,104.46 
				133.62,103.41 148.71,70.76 130.78,42.17 			"/>
			<linearGradient id="SVGID_10_" gradientUnits="userSpaceOnUse" x1="166.0308" y1="36.1052" x2="166.0308" y2="105.3637">
				<stop  offset="0" style="stop-color:#FFFFFF"/>
				<stop  offset="0.1041" style="stop-color:#FEF7F7"/>
				<stop  offset="0.2687" style="stop-color:#FCE0E1"/>
				<stop  offset="0.4732" style="stop-color:#F9BBBC"/>
				<stop  offset="0.7095" style="stop-color:#F4878A"/>
				<stop  offset="0.9698" style="stop-color:#EF464A"/>
				<stop  offset="1" style="stop-color:#EE3E42"/>
			</linearGradient>
			<polygon class="st11" points="167.04,28.65 154.2,55.83 155.78,58.31 169.13,30.03 176.75,27.61 177.86,25.21 			"/>
		</g>
	</g>
	<g>
		<linearGradient id="SVGID_11_" gradientUnits="userSpaceOnUse" x1="13.1099" y1="142.6186" x2="324.4054" y2="142.6186">
			<stop  offset="0" style="stop-color:#FFEF95"/>
			<stop  offset="0.0527" style="stop-color:#FCEB91"/>
			<stop  offset="0.1068" style="stop-color:#F3DF85"/>
			<stop  offset="0.1616" style="stop-color:#E4CB70"/>
			<stop  offset="0.2167" style="stop-color:#CFB053"/>
			<stop  offset="0.2717" style="stop-color:#B48C2F"/>
			<stop  offset="0.2883" style="stop-color:#AB8022"/>
			<stop  offset="0.3497" style="stop-color:#EACA4B"/>
			<stop  offset="0.3718" style="stop-color:#EFD66B"/>
			<stop  offset="0.3973" style="stop-color:#F3E289"/>
			<stop  offset="0.4243" style="stop-color:#F6EBA0"/>
			<stop  offset="0.4533" style="stop-color:#F8F1B0"/>
			<stop  offset="0.4855" style="stop-color:#FAF5BA"/>
			<stop  offset="0.5276" style="stop-color:#FAF6BD"/>
			<stop  offset="0.7423" style="stop-color:#AB8022"/>
			<stop  offset="0.8712" style="stop-color:#F2CF7D"/>
		</linearGradient>
		<polygon class="st12" points="85.45,204.45 13.11,106.18 86.79,229.82 324.41,55.42 		"/>
		<linearGradient id="SVGID_12_" gradientUnits="userSpaceOnUse" x1="0.6304" y1="183.7377" x2="277.5143" y2="-10.1385">
			<stop  offset="0.2147" style="stop-color:#A30D11"/>
			<stop  offset="0.4128" style="stop-color:#DE5A61"/>
			<stop  offset="0.4785" style="stop-color:#F2757D"/>
			<stop  offset="0.5093" style="stop-color:#F16165"/>
			<stop  offset="0.5583" style="stop-color:#EE3A37"/>
			<stop  offset="0.7055" style="stop-color:#A30D11"/>
		</linearGradient>
		<polygon class="st13" points="82.36,154.93 -0.41,86.11 85.15,210.28 323.62,55.93 		"/>
		<polygon class="st14" points="82.36,154.93 -0.41,86.11 85.15,210.28 323.62,55.93 		"/>
	</g>
</g>
</svg>
