<?xml version="1.0" encoding="utf-8"?>
<!-- Generator: Adobe Illustrator 25.3.1, SVG Export Plug-In . SVG Version: 6.00 Build 0)  -->
<svg version="1.1" id="Layer_1" xmlns="http://www.w3.org/2000/svg" xmlns:xlink="http://www.w3.org/1999/xlink" x="0px" y="0px"
	 viewBox="0 0 400 478.57" style="enable-background:new 0 0 400 478.57;" xml:space="preserve">
<style type="text/css">
	.st0{fill:#E96805;}
	.st1{fill:#35AA2E;}
	.st2{fill:#0095D2;}
	.st3{fill:#EF6A05;}
</style>
<g>
	<path class="st0" d="M22.41,4.26c-1.27-0.03-2.55,0.46-3.59,1.16c-1.04,0.71-1.67,2.21-2.77,2.68c-1.3,0.56-3.29-0.7-4.83-0.88
		c-1.3-0.16-2.6,0-3.78,0.55c-2.35,1.08-3.43,3.32-2.97,5.84c0.58,3.21,2.99,5.68,5.5,7.55c3.68,2.75,7.69,5.13,11.54,7.65
		c1.3,0.85,2.93-0.91,1.7-1.86c0.04-0.04,0.07-0.08,0.11-0.13C26.84,22.1,29.17,14,27.19,8.2C26.46,6.03,24.8,4.32,22.41,4.26z
		 M24.77,11.31c0.37,5.03-1.49,9.67-3.61,14.11c-0.02,0.04-0.03,0.07-0.05,0.11c-3.7-2.44-7.62-4.83-10.78-7.84
		c-1.8-1.72-5.21-7.31-0.24-7.59c2.19-0.13,4.03,1.72,6.16,1.47c1.47-0.17,2.07-1.38,2.92-2.38c1.05-1.23,2.98-3.3,4.77-1.17
		C24.63,8.83,24.7,10.3,24.77,11.31z"/>
	<path class="st0" d="M60.61,32.4c-1.91-0.05-3.84,0.69-5.4,1.75c-1.56,1.07-2.51,3.32-4.17,4.04c-1.95,0.85-4.94-1.05-7.27-1.33
		c-1.95-0.23-3.9,0.01-5.69,0.83c-3.53,1.63-5.16,4.99-4.47,8.78c0.87,4.82,4.5,8.54,8.28,11.36c5.54,4.14,11.57,7.71,17.35,11.51
		c1.96,1.29,4.41-1.37,2.56-2.79c0.06-0.06,0.11-0.12,0.16-0.19c5.29-7.11,8.79-19.31,5.83-28.03C66.69,35.07,64.2,32.5,60.61,32.4z
		 M64.15,43.02c0.56,7.57-2.24,14.55-5.43,21.23c-0.03,0.06-0.05,0.11-0.07,0.17c-5.56-3.67-11.47-7.27-16.22-11.8
		c-2.71-2.59-7.84-10.99-0.36-11.42c3.29-0.19,6.07,2.58,9.26,2.22c2.21-0.25,3.12-2.08,4.4-3.59c1.58-1.85,4.48-4.96,7.17-1.76
		C63.94,39.29,64.04,41.5,64.15,43.02z"/>
	<g>
		<path class="st1" d="M367.28,436.83c-0.39,0.01-0.84-0.23-0.9-0.64c-0.16-1.19-0.25-2.47-0.28-4.14l-0.01-0.53l-0.53,0.01
			c-1,0.02-2.11-0.01-3.37-0.08c-1.2-0.07-1.29-1.06-1.28-1.36c0.01-0.8,0.54-1.62,1.54-1.66c0.04,0,0.08,0,0.12,0
			c0.59,0.02,1.2,0.01,1.87-0.01c0.37-0.01,0.75-0.03,1.12-0.05l0.5-0.03l-0.01-0.5c-0.01-1.06-0.04-2.32-0.13-3.6
			c-0.03-0.35,0.07-0.64,0.28-0.87c0.23-0.26,0.59-0.42,0.96-0.43c0.27-0.01,0.92,0.06,1,0.89c0.11,1.23,0.23,2.51,0.31,3.79
			l0.03,0.54l0.54-0.05c1.45-0.13,2.76-0.24,4.08-0.28l0.14,0c0.61-0.02,0.99,0.36,1.09,0.74c0.11,0.42-0.09,0.82-0.54,1.06
			c-1.47,0.78-3.05,1.31-4.83,1.61l-0.42,0.07l-0.02,0.43c-0.07,1.73-0.29,3.25-0.66,4.66C367.78,436.74,367.5,436.82,367.28,436.83
			C367.28,436.83,367.28,436.83,367.28,436.83z"/>
		<path class="st1" d="M302.4,448.09c0.24-0.44,0.47-0.87,0.7-1.27c0.22-0.41,0.46-0.81,0.71-1.2c0.3-0.46,0.62-0.9,0.96-1.32
			c0.34-0.42,0.72-0.8,1.16-1.15c0.83-0.67,1.77-1.01,2.82-1.03c0.33-0.02,0.64,0.05,0.93,0.19c0.29,0.14,0.56,0.33,0.8,0.55
			c0.07,0.07,0.13,0.16,0.16,0.27c0.03,0.11,0.06,0.22,0.09,0.32c0.07,0.36,0.1,0.73,0.09,1.09c-0.01,0.36-0.04,0.73-0.08,1.09
			c-0.05,0.42-0.14,0.81-0.25,1.19c-0.12,0.38-0.25,0.76-0.39,1.15c-0.16,0.43-0.36,0.84-0.6,1.21c-0.24,0.38-0.49,0.74-0.77,1.1
			c-0.39,0.5-0.81,0.97-1.27,1.42c-0.46,0.45-1,0.8-1.62,1.06c-0.32,0.14-0.64,0.28-0.96,0.42c-0.32,0.14-0.66,0.28-1.02,0.43
			c0.04,0.21,0.08,0.43,0.11,0.66c0.04,0.23,0.08,0.46,0.14,0.71c0.11,0.54,0.23,1.07,0.37,1.6c0.14,0.53,0.25,1.07,0.33,1.63
			c0.05,0.38,0.14,0.75,0.27,1.12c0.13,0.37,0.25,0.75,0.36,1.13c0.05,0.19,0.1,0.33,0.14,0.44s0.09,0.21,0.12,0.3
			c0.04,0.09,0.08,0.19,0.13,0.3c0.05,0.11,0.09,0.26,0.15,0.46c0.12,0.46,0.25,0.92,0.38,1.37c0.13,0.45,0.26,0.91,0.39,1.37
			c0.19,0.67,0.36,1.34,0.5,2c0.15,0.66,0.25,1.34,0.31,2.02c0.02,0.23,0.03,0.45,0.06,0.68c0.02,0.22,0.03,0.45,0.04,0.68
			c0,0.19,0,0.39,0.01,0.59c0.01,0.2,0,0.39-0.01,0.57c-0.01,0.1-0.06,0.2-0.14,0.28c-0.08,0.08-0.17,0.14-0.28,0.19
			c-0.11,0.05-0.23,0.06-0.36,0.06c-0.13-0.01-0.24-0.05-0.34-0.11c-0.24-0.15-0.45-0.32-0.65-0.5c-0.2-0.19-0.37-0.4-0.51-0.64
			c-0.15-0.25-0.3-0.51-0.45-0.76c-0.16-0.26-0.29-0.52-0.4-0.79c-0.26-0.61-0.49-1.22-0.71-1.83c-0.22-0.61-0.44-1.22-0.66-1.83
			c-0.14-0.36-0.26-0.7-0.38-1.04c-0.12-0.34-0.23-0.68-0.32-1.03c-0.07-0.29-0.14-0.53-0.21-0.73s-0.12-0.39-0.18-0.57
			c-0.05-0.18-0.11-0.37-0.16-0.57c-0.05-0.2-0.11-0.44-0.19-0.73c-0.13-0.49-0.24-0.97-0.36-1.45c-0.11-0.48-0.23-0.96-0.36-1.45
			c-0.13-0.54-0.26-1.07-0.38-1.59c-0.12-0.52-0.25-1.05-0.38-1.57c-0.09-0.32-0.18-0.65-0.28-0.98c-0.09-0.33-0.19-0.65-0.28-0.98
			c-0.13-0.48-0.25-0.97-0.39-1.45c-0.13-0.48-0.26-0.97-0.39-1.45c-0.14-0.61-0.27-1.22-0.4-1.83c-0.12-0.61-0.21-1.23-0.27-1.86
			c-0.01-0.1-0.03-0.19-0.05-0.28s-0.04-0.17-0.05-0.26c-0.06-0.35-0.06-0.69,0-1.02c0.05-0.33,0.13-0.66,0.23-0.99
			c0.1-0.31,0.29-0.5,0.56-0.58c0.27-0.08,0.58-0.06,0.93,0.05c0.25,0.07,0.47,0.19,0.65,0.36c0.18,0.17,0.33,0.38,0.45,0.62
			c0.27,0.58,0.51,1.16,0.73,1.74c0.22,0.58,0.4,1.18,0.53,1.8c0.03,0.1,0.05,0.2,0.09,0.3
			C302.32,447.86,302.36,447.97,302.4,448.09z M303.89,450.56c0.06,0.04,0.11,0.08,0.15,0.1c0.26-0.19,0.53-0.37,0.8-0.54
			c0.27-0.17,0.53-0.36,0.76-0.57c0.89-0.78,1.64-1.65,2.25-2.62c0.31-0.48,0.51-0.97,0.6-1.47c0.09-0.51,0.11-1.04,0.05-1.61
			c-0.55,0.13-0.99,0.38-1.33,0.73c-0.19,0.2-0.37,0.42-0.55,0.64c-0.17,0.22-0.35,0.43-0.55,0.64c-0.54,0.61-0.97,1.26-1.3,1.97
			c-0.33,0.7-0.6,1.44-0.81,2.21c-0.01,0.09-0.03,0.18-0.03,0.26C303.91,450.38,303.9,450.47,303.89,450.56z"/>
		<path class="st1" d="M319.87,452.27c-0.28,0.36-0.59,0.61-0.91,0.73c-0.32,0.13-0.62,0.19-0.89,0.2
			c-0.32,0.01-0.63-0.04-0.93-0.15c-0.16-0.24-0.29-0.5-0.38-0.76c-0.09-0.26-0.16-0.54-0.2-0.84c-0.1-0.74-0.14-1.47-0.14-2.22
			s0.02-1.48,0.05-2.22c0.03-0.69,0.05-1.37,0.07-2.04c0.02-0.67,0.06-1.35,0.11-2.03c0.07-0.94,0.15-1.88,0.24-2.81
			c0.08-0.93,0.17-1.88,0.26-2.83c0.08-0.88,0.15-1.75,0.21-2.62c0.06-0.87,0.14-1.74,0.23-2.62c0.07-0.75,0.15-1.49,0.24-2.23
			c0.09-0.73,0.18-1.48,0.26-2.24c0.04-0.37,0.1-0.73,0.16-1.08c0.07-0.35,0.18-0.7,0.35-1.03c0.11-0.25,0.25-0.48,0.42-0.7
			c0.07-0.1,0.16-0.16,0.25-0.19c0.1-0.03,0.2-0.04,0.32-0.03c0.29,0.01,0.54,0.1,0.73,0.27c0.19,0.17,0.35,0.39,0.47,0.65
			c0.25,0.59,0.4,1.2,0.44,1.81c0.05,0.61,0.06,1.24,0.04,1.87c-0.02,0.6-0.05,1.19-0.08,1.78c-0.03,0.59-0.07,1.18-0.12,1.77
			c-0.06,0.88-0.12,1.75-0.18,2.62c-0.07,0.87-0.15,1.74-0.24,2.62c-0.05,0.58-0.1,1.16-0.17,1.74c-0.07,0.58-0.14,1.16-0.21,1.74
			c-0.06,0.56-0.11,1.11-0.16,1.65c-0.05,0.54-0.09,1.08-0.14,1.63c-0.03,0.39-0.05,0.78-0.07,1.16c-0.02,0.38-0.03,0.77-0.05,1.17
			c-0.02,0.29-0.04,0.59-0.05,0.9c-0.01,0.31-0.03,0.61-0.05,0.92c-0.01,0.29-0.03,0.58-0.06,0.87s-0.05,0.58-0.08,0.89
			c0.06-0.06,0.1-0.12,0.15-0.17c0.04-0.05,0.09-0.11,0.15-0.17c0.12-0.11,0.24-0.21,0.36-0.32c0.12-0.11,0.24-0.2,0.38-0.3
			c0.17-0.11,0.35-0.09,0.51,0.06c0.08,0.07,0.12,0.14,0.1,0.22c-0.02,0.08-0.04,0.16-0.08,0.24c-0.17,0.38-0.37,0.74-0.59,1.08
			C320.34,451.6,320.11,451.93,319.87,452.27z"/>
		<path class="st1" d="M338.8,439.19c-0.09,0.13-0.17,0.26-0.25,0.38c-0.08,0.13-0.16,0.26-0.23,0.39
			c-0.27,0.54-0.53,1.08-0.79,1.62c-0.26,0.55-0.52,1.09-0.79,1.62c-0.17,0.33-0.34,0.67-0.5,1.01s-0.34,0.67-0.55,0.98
			c-0.22,0.3-0.46,0.56-0.73,0.77c-0.27,0.21-0.58,0.36-0.95,0.44c-0.07,0.02-0.13,0.04-0.2,0.08c-0.07,0.04-0.13,0.07-0.2,0.1
			c-0.23,0.09-0.46,0.15-0.68,0.19c-0.22,0.03-0.45,0.01-0.7-0.07c-0.4-0.14-0.71-0.39-0.92-0.74c-0.17-0.29-0.31-0.59-0.41-0.9
			c-0.1-0.31-0.18-0.64-0.22-0.99c-0.07-0.52-0.1-1.03-0.09-1.54c0.01-0.51,0.03-1.02,0.08-1.55c0.04-0.46,0.08-0.92,0.12-1.39
			c0.04-0.46,0.09-0.92,0.15-1.38c0.07-0.48,0.15-0.96,0.26-1.43c0.1-0.47,0.21-0.95,0.31-1.42c0.12-0.56,0.25-1.11,0.39-1.65
			c0.14-0.54,0.28-1.09,0.41-1.65c0.06-0.21,0.17-0.4,0.33-0.58c0.16-0.18,0.37-0.27,0.63-0.28c0.09-0.01,0.18-0.02,0.27-0.03
			c0.09-0.01,0.17-0.02,0.27-0.03c0.45,0.02,0.74,0.25,0.87,0.69c0.06,0.18,0.11,0.36,0.14,0.54c0.03,0.18,0.04,0.37,0,0.57
			c-0.05,0.24-0.07,0.48-0.05,0.72c0.02,0.24,0.02,0.49,0,0.73c0,0.18-0.02,0.37-0.03,0.56c-0.02,0.19-0.04,0.38-0.05,0.55
			c-0.06,0.53-0.13,1.06-0.2,1.59c-0.07,0.52-0.13,1.05-0.2,1.59c-0.03,0.33-0.07,0.65-0.11,0.96s-0.08,0.63-0.11,0.96
			c-0.03,0.25-0.06,0.51-0.1,0.78c-0.04,0.26-0.06,0.53-0.07,0.8c-0.01,0.37-0.05,0.74-0.13,1.1c-0.07,0.36-0.09,0.73-0.05,1.12
			c0.01,0.19,0.04,0.38,0.1,0.54c0.07,0.2,0.18,0.22,0.34,0.06c0.1-0.11,0.19-0.23,0.28-0.34c0.09-0.11,0.17-0.24,0.23-0.37
			c0.17-0.39,0.33-0.77,0.49-1.15c0.16-0.38,0.32-0.76,0.49-1.15c0.22-0.49,0.44-0.98,0.65-1.46c0.21-0.48,0.43-0.96,0.67-1.44
			c0.17-0.32,0.35-0.63,0.55-0.93c0.2-0.3,0.39-0.6,0.59-0.9c0.09-0.15,0.19-0.3,0.3-0.43c0.11-0.14,0.2-0.28,0.3-0.44
			c0.39-0.62,0.88-1.18,1.48-1.69c0.1-0.07,0.2-0.17,0.28-0.3c0.21-0.33,0.5-0.46,0.88-0.4c0.19,0.03,0.38,0.06,0.57,0.09
			c0.19,0.03,0.38,0.07,0.56,0.11c0.17,0.04,0.29,0.1,0.34,0.17c0.05,0.07,0.09,0.2,0.11,0.37c0.02,0.18,0.01,0.36-0.02,0.52
			c-0.03,0.16-0.07,0.33-0.09,0.51c-0.05,0.28-0.08,0.56-0.1,0.84c-0.02,0.28-0.07,0.56-0.14,0.85c-0.12,0.56-0.25,1.12-0.4,1.68
			c-0.14,0.56-0.28,1.12-0.42,1.68c-0.09,0.37-0.17,0.75-0.25,1.13c-0.08,0.38-0.16,0.76-0.25,1.13c-0.05,0.25-0.11,0.5-0.16,0.75
			c-0.06,0.25-0.11,0.5-0.16,0.75c-0.05,0.24-0.1,0.47-0.16,0.71c-0.05,0.24-0.09,0.48-0.12,0.72c-0.06,0.42-0.11,0.84-0.15,1.26
			c-0.04,0.43-0.09,0.85-0.14,1.29c-0.02,0.14-0.04,0.27-0.05,0.4c-0.01,0.13,0,0.26,0.01,0.41c0.03,0.21,0.02,0.41-0.01,0.6
			c-0.04,0.19-0.08,0.38-0.13,0.58c-0.02,0.06-0.05,0.13-0.07,0.19c-0.02,0.07-0.07,0.13-0.15,0.18c-0.07,0.05-0.14,0.12-0.21,0.21
			c-0.07,0.09-0.14,0.17-0.21,0.25c-0.03,0.02-0.06,0.05-0.08,0.07c-0.02,0.03-0.05,0.05-0.08,0.07c-0.23,0.14-0.46,0.26-0.69,0.34
			c-0.23,0.09-0.48,0.1-0.77,0.04c-0.38-0.08-0.63-0.28-0.77-0.61c-0.05-0.11-0.09-0.23-0.12-0.35c-0.03-0.12-0.06-0.24-0.08-0.36
			c-0.09-0.65-0.12-1.29-0.11-1.92s0.08-1.27,0.18-1.91c0.16-0.93,0.32-1.85,0.49-2.77c0.17-0.91,0.38-1.82,0.64-2.72
			c0.09-0.28,0.17-0.56,0.26-0.82c0.09-0.26,0.18-0.53,0.28-0.82c0.02-0.06,0.04-0.13,0.06-0.2c0.02-0.07,0.04-0.14,0.06-0.2
			c-0.01,0-0.02-0.01-0.03-0.01C338.82,439.2,338.81,439.19,338.8,439.19z"/>
		<path class="st1" d="M348.46,441.79c0.36,0.2,0.7,0.41,1.01,0.64c0.31,0.23,0.55,0.53,0.73,0.92c0.15,0.34,0.32,0.67,0.5,0.99
			c0.18,0.32,0.42,0.6,0.7,0.86c0.18,0.15,0.36,0.28,0.55,0.39c0.18,0.11,0.38,0.21,0.59,0.3c0.18,0.08,0.35,0.11,0.53,0.1
			c0.18-0.01,0.36-0.04,0.53-0.1c0.14-0.06,0.25-0.14,0.33-0.24c0.12-0.17,0.22-0.35,0.3-0.55c0.08-0.19,0.13-0.4,0.14-0.63
			c0.03-0.62-0.01-1.23-0.13-1.82c-0.12-0.59-0.33-1.16-0.65-1.71c-0.19-0.35-0.41-0.66-0.66-0.95c-0.25-0.29-0.52-0.56-0.81-0.82
			c-0.33-0.29-0.66-0.57-0.98-0.84c-0.32-0.28-0.63-0.57-0.93-0.87c-0.37-0.37-0.71-0.75-1.04-1.14c-0.33-0.39-0.61-0.82-0.86-1.29
			c-0.18-0.35-0.3-0.72-0.37-1.11c-0.07-0.39-0.08-0.78-0.04-1.18c0.04-0.4,0.14-0.78,0.29-1.14c0.15-0.37,0.36-0.7,0.63-1
			c0.08-0.09,0.17-0.17,0.25-0.26c0.08-0.09,0.17-0.17,0.25-0.26c0.24-0.24,0.52-0.43,0.84-0.55c0.32-0.12,0.64-0.19,0.97-0.2
			c0.33-0.01,0.66,0.03,0.98,0.11c0.32,0.08,0.61,0.19,0.87,0.34c0.54,0.31,1.05,0.69,1.55,1.12c0.18,0.15,0.34,0.32,0.49,0.5
			c0.14,0.18,0.29,0.37,0.44,0.55c0.1,0.12,0.18,0.24,0.26,0.35c0.08,0.11,0.17,0.23,0.26,0.35c0.12,0.16,0.13,0.33,0.05,0.52
			c-0.02,0.07-0.05,0.13-0.09,0.18c-0.04,0.05-0.11,0.07-0.2,0.07c-0.18,0.03-0.29-0.04-0.35-0.21c-0.05-0.11-0.1-0.21-0.15-0.32
			s-0.1-0.21-0.16-0.3c-0.26-0.36-0.55-0.67-0.88-0.95c-0.33-0.27-0.7-0.48-1.12-0.63c-0.17-0.06-0.36-0.1-0.56-0.11
			c-0.2-0.01-0.39-0.02-0.58-0.03c-0.12,0-0.23,0.03-0.33,0.09c-0.1,0.06-0.19,0.15-0.25,0.27c-0.17,0.33-0.29,0.66-0.36,1
			c-0.07,0.34-0.08,0.69-0.02,1.06c0.03,0.18,0.09,0.34,0.18,0.49c0.09,0.15,0.19,0.28,0.29,0.4c0.37,0.43,0.75,0.84,1.15,1.22
			c0.4,0.38,0.81,0.76,1.23,1.13c0.33,0.27,0.65,0.56,0.96,0.85c0.31,0.29,0.61,0.6,0.89,0.92c0.77,0.86,1.33,1.85,1.67,2.96
			c0.17,0.59,0.3,1.17,0.38,1.75c0.08,0.58,0.1,1.17,0.07,1.76c-0.01,0.7-0.15,1.33-0.41,1.9c-0.26,0.57-0.68,1.07-1.26,1.5
			c-0.25,0.18-0.5,0.31-0.77,0.39c-0.27,0.08-0.55,0.14-0.84,0.19c-0.9,0.14-1.76,0.06-2.58-0.26c-0.32-0.13-0.62-0.29-0.91-0.47
			c-0.29-0.18-0.57-0.37-0.84-0.56c-0.67-0.53-1.2-1.18-1.59-1.93c-0.17-0.31-0.28-0.64-0.33-0.97c-0.05-0.34-0.06-0.68-0.04-1.02
			c0.02-0.29,0.05-0.58,0.1-0.86C348.39,442.4,348.43,442.1,348.46,441.79z"/>
	</g>
	<path id="XMLID_665_" class="st2" d="M263.23,382.22c-0.35-3.48,0.37-6.72,2.45-9.57c1.32-1.81,3.16-2.42,4.9-1.8
		c1.74,0.63,3.03,2.31,2.71,4.45c-0.31,2.08-0.97,4.2-1.92,6.08c-0.95,1.88-2.45,3.48-3.79,5.31c1.49,2.04,3.65,3.04,6.06,3.61
		c2.46,0.59,4.86,0.38,7.42-1.05c-0.73,2.26-2.37,2.62-3.88,2.86c-4.15,0.68-7.79-0.54-10.79-3.48c-0.72-0.7-1.31-1.11-2.4-1
		c-6.89,0.73-12.23-2.1-16.22-7.53c-1.69-2.3-2.95-4.92-4.43-7.45c-0.58,0.29-1.35,0.68-2.45,1.24c0.22-2.66,1.26-4.62,2.22-6.58
		c0.46-0.93,1.52-0.93,2.15-0.23c1.86,2.07,3.59,4.26,5.35,6.42c0.06,0.07-0.1,0.32-0.21,0.61c-2.07,0.78-2.91-1.67-4.68-2.06
		c4.38,9.09,11.04,13.79,17.86,12.6C263.47,383.85,263.31,383.04,263.23,382.22z M270.65,375.76c0.17-0.94,0.11-1.96-0.92-2.41
		c-1.2-0.52-1.93,0.31-2.49,1.22c-1.69,2.78-2.28,5.72-1.35,9.31C268.64,381.46,270.09,378.86,270.65,375.76z"/>
</g>
<g>
	<path class="st3" d="M267.42,426.08c-0.01-0.3-0.01-0.57-0.01-0.82c0-0.25,0-0.5-0.01-0.76c-0.05-0.76-0.12-1.52-0.21-2.28
		c-0.06-0.49-0.11-0.97-0.17-1.45c-0.06-0.48-0.13-0.96-0.21-1.44c-0.15-0.95-0.31-1.89-0.48-2.83c-0.17-0.94-0.33-1.88-0.48-2.83
		c-0.07-0.5-0.14-0.99-0.19-1.47c-0.05-0.48-0.1-0.98-0.15-1.48c-0.07-0.84-0.14-1.68-0.23-2.51c-0.08-0.83-0.16-1.67-0.23-2.51
		c-0.07-0.75-0.09-1.5-0.06-2.24c0.01-0.33,0.04-0.67,0.07-1.01c0.04-0.34,0.09-0.67,0.17-0.99c0.05-0.18,0.12-0.35,0.22-0.51
		c0.1-0.16,0.21-0.33,0.32-0.5c0.07-0.11,0.15-0.16,0.25-0.15s0.2,0.02,0.29,0.02c0.11,0.01,0.18,0.05,0.21,0.13
		c0.03,0.08,0.05,0.17,0.06,0.27c0.01,0.34,0.02,0.68,0.03,1.02c0.01,0.34,0.04,0.67,0.07,1.01c0.07,0.71,0.14,1.42,0.2,2.12
		c0.07,0.71,0.14,1.42,0.21,2.14c0.13,1.08,0.25,2.14,0.37,3.2c0.12,1.06,0.24,2.12,0.39,3.19c0.1,0.66,0.21,1.31,0.33,1.96
		c0.12,0.65,0.23,1.31,0.33,1.96c0.05,0.33,0.09,0.66,0.14,1c0.04,0.34,0.08,0.67,0.12,1c0.07,0.71,0.14,1.42,0.21,2.12
		c0.07,0.71,0.14,1.41,0.19,2.11c0.03,0.42,0.05,0.84,0.06,1.25c0.01,0.42,0.01,0.83,0,1.25c-0.01,0.34-0.08,0.67-0.22,0.97
		c-0.14,0.3-0.29,0.6-0.44,0.91c-0.15,0.29-0.32,0.54-0.54,0.76c-0.21,0.22-0.42,0.44-0.63,0.68c-0.05,0.08-0.11,0.15-0.17,0.22
		c-0.07,0.07-0.12,0.15-0.17,0.22c-0.22,0.24-0.45,0.41-0.7,0.53c-0.25,0.12-0.53,0.14-0.85,0.07c-0.35-0.06-0.68-0.16-0.99-0.29
		c-0.31-0.13-0.61-0.29-0.9-0.5c-0.72-0.52-1.4-1.1-2.02-1.72c-0.62-0.62-1.22-1.28-1.79-1.98c-0.81-0.97-1.62-1.93-2.42-2.89
		s-1.61-1.92-2.41-2.91c-0.84-1.02-1.68-2.04-2.51-3.05c-0.83-1.01-1.66-2.04-2.49-3.08c-0.43-0.54-0.83-1.11-1.18-1.69
		c-0.36-0.58-0.66-1.21-0.9-1.87c-0.25-0.68-0.29-1.36-0.11-2.04c0.12-0.53,0.37-0.89,0.75-1.06c0.38-0.18,0.83-0.16,1.38,0.05
		c0.22,0.08,0.42,0.19,0.6,0.34c0.18,0.15,0.36,0.3,0.53,0.45c0.6,0.61,1.2,1.21,1.79,1.81c0.59,0.6,1.18,1.21,1.77,1.83
		c0.53,0.56,1.03,1.12,1.53,1.69c0.49,0.57,0.99,1.14,1.49,1.73c0.67,0.77,1.33,1.52,1.98,2.26c0.65,0.74,1.31,1.5,1.96,2.27
		c0.56,0.65,1.11,1.3,1.66,1.95c0.55,0.65,1.1,1.29,1.67,1.92c0.36,0.41,0.73,0.79,1.13,1.15c0.39,0.36,0.78,0.74,1.17,1.14
		c0.02,0.02,0.05,0.04,0.08,0.05C267.29,426,267.35,426.03,267.42,426.08z"/>
	<path class="st3" d="M278.59,406.29c-0.07,0.06-0.16,0.11-0.27,0.16c-0.11,0.04-0.22,0.06-0.33,0.05
		c-0.11-0.01-0.23-0.06-0.35-0.15c-0.12-0.09-0.23-0.25-0.33-0.48c-0.1-0.22-0.14-0.42-0.12-0.59c0.02-0.17,0.07-0.33,0.13-0.46
		c0.08-0.15,0.19-0.29,0.33-0.41c0.03-0.04,0.13-0.05,0.29-0.03s0.32,0.04,0.49,0.07c0.18,0.03,0.37,0.15,0.56,0.36
		c0.19,0.21,0.32,0.42,0.38,0.6c0.02,0.1,0.01,0.18-0.03,0.26c-0.05,0.08-0.11,0.16-0.2,0.24c-0.09,0.08-0.18,0.15-0.29,0.21
		C278.77,406.18,278.67,406.24,278.59,406.29z M284.25,422c0.13,0.35,0.25,0.67,0.36,0.98c0.1,0.27,0.18,0.52,0.26,0.77
		c0.08,0.24,0.11,0.42,0.11,0.52c0,0.28-0.06,0.51-0.18,0.68s-0.31,0.28-0.58,0.32c-0.41,0.05-0.76-0.02-1.05-0.21
		c-0.29-0.18-0.55-0.41-0.78-0.69c-0.16-0.18-0.29-0.36-0.38-0.54c-0.09-0.17-0.17-0.33-0.25-0.48c-0.08-0.15-0.16-0.32-0.23-0.49
		c-0.25-0.71-0.51-1.41-0.76-2.11c-0.26-0.7-0.5-1.4-0.74-2.11c-0.22-0.63-0.43-1.26-0.64-1.88c-0.21-0.62-0.39-1.26-0.54-1.92
		c-0.08-0.37-0.17-0.75-0.27-1.12s-0.2-0.74-0.29-1.11c-0.05-0.24-0.09-0.47-0.14-0.7c-0.05-0.23-0.1-0.46-0.14-0.7
		c-0.06-0.23-0.12-0.46-0.18-0.68c-0.06-0.22-0.12-0.45-0.16-0.68c-0.06-0.28-0.08-0.56-0.08-0.86c0-0.35,0.13-0.64,0.4-0.88
		c0.27-0.24,0.57-0.32,0.91-0.24c0.12,0.03,0.24,0.08,0.33,0.15c0.1,0.07,0.19,0.15,0.29,0.22c0.17,0.16,0.32,0.34,0.43,0.53
		c0.11,0.19,0.23,0.39,0.34,0.59c0.26,0.49,0.47,0.99,0.65,1.49s0.33,1.02,0.45,1.54c0.08,0.36,0.16,0.71,0.25,1.04
		s0.18,0.68,0.27,1.04l0.02,0c0.13,0.41,0.25,0.81,0.35,1.22s0.22,0.81,0.35,1.21l1.4,4.25c0.05,0.15,0.09,0.29,0.13,0.42
		C284.18,421.71,284.21,421.85,284.25,422z"/>
	<path class="st3" d="M294.5,398.06c-0.07,0-0.17,0-0.29,0.01c-0.12,0.01-0.22,0.02-0.29,0.03l-3.11,0.61
		c-0.24,0.05-0.47,0.1-0.71,0.17c-0.24,0.07-0.49,0.12-0.74,0.16c-0.12,0.02-0.26,0.04-0.39,0.03s-0.27-0.01-0.41-0.03
		c-0.12-0.02-0.23-0.05-0.34-0.1c-0.11-0.04-0.23-0.08-0.35-0.12c-0.02-0.31,0.13-0.52,0.44-0.63c0.37-0.12,0.74-0.23,1.1-0.33
		s0.73-0.22,1.08-0.33c0.59-0.17,1.17-0.33,1.75-0.47c0.58-0.14,1.16-0.25,1.75-0.34c0.03,0,0.08-0.02,0.17-0.04
		s0.13-0.04,0.16-0.06c-0.01-0.2-0.02-0.4-0.03-0.6s-0.02-0.4-0.03-0.6c-0.01-0.42-0.01-0.8-0.02-1.15c0-0.35-0.01-0.74-0.02-1.16
		c-0.01-0.21-0.02-0.43-0.02-0.65c0-0.22,0-0.43-0.02-0.65l-0.04-0.19c-0.15-0.53,0.01-0.91,0.47-1.13c0.22-0.12,0.45-0.2,0.68-0.25
		c0.23-0.05,0.46,0,0.69,0.14c0.19,0.11,0.36,0.23,0.5,0.38c0.14,0.15,0.21,0.35,0.21,0.61c0.01,0.2,0.04,0.4,0.09,0.61
		c0.05,0.21,0.09,0.41,0.13,0.6c0.08,0.42,0.13,0.82,0.16,1.19c0.02,0.38,0.08,0.78,0.16,1.19l0.19,0.98
		c0.17-0.03,0.33-0.06,0.5-0.1c0.17-0.03,0.33-0.06,0.5-0.08c0.63-0.12,1.25-0.22,1.87-0.29c0.62-0.07,1.25-0.09,1.9-0.05
		c0.14,0,0.29,0.02,0.43,0.05c0.14,0.03,0.29,0.06,0.44,0.09c0.05,0.02,0.09,0.04,0.13,0.07s0.09,0.05,0.15,0.07
		c-0.11,0.18-0.23,0.3-0.38,0.35s-0.29,0.1-0.44,0.13c-0.32,0.08-0.63,0.14-0.93,0.19c-0.3,0.05-0.61,0.12-0.92,0.21
		c-0.45,0.12-0.9,0.24-1.35,0.36c-0.45,0.12-0.89,0.24-1.35,0.36c-0.04,0.02-0.08,0.04-0.12,0.06c-0.04,0.01-0.09,0.04-0.16,0.08
		c0.02,0.08,0.05,0.24,0.09,0.47s0.09,0.5,0.15,0.83c0.06,0.32,0.12,0.66,0.19,1.01c0.07,0.35,0.13,0.69,0.19,1.01
		c0.06,0.32,0.11,0.6,0.15,0.83s0.08,0.39,0.09,0.47l0.57,2.92c0.07,0.33,0.17,0.82,0.31,1.46c0.14,0.64,0.3,1.36,0.47,2.16
		c0.18,0.8,0.37,1.64,0.56,2.51c0.2,0.87,0.4,1.7,0.6,2.49c0.2,0.79,0.39,1.5,0.57,2.14c0.17,0.64,0.33,1.11,0.46,1.42
		c0.2,0.48,0.4,0.96,0.62,1.44s0.46,0.94,0.74,1.39c0.04,0.08,0.08,0.16,0.11,0.25c0.03,0.09,0.07,0.17,0.11,0.25
		c0.06,0.1,0.13,0.2,0.19,0.3c0.06,0.1,0.13,0.19,0.21,0.27c0.15,0.17,0.29,0.34,0.43,0.5c0.14,0.16,0.28,0.33,0.43,0.5
		c0.13,0.15,0.17,0.29,0.13,0.42c-0.04,0.13-0.15,0.24-0.33,0.34c-0.33,0.14-0.66,0.21-0.98,0.22c-0.32,0.01-0.66-0.01-1-0.06
		c-0.52-0.06-0.97-0.21-1.36-0.46s-0.75-0.57-1.09-0.97c-0.51-0.61-0.93-1.25-1.27-1.93s-0.66-1.38-0.96-2.1
		c-0.08-0.19-0.18-0.53-0.31-1.03s-0.27-1.08-0.42-1.75c-0.15-0.66-0.31-1.37-0.47-2.12c-0.16-0.75-0.31-1.46-0.46-2.12
		c-0.14-0.67-0.27-1.25-0.36-1.76s-0.17-0.86-0.21-1.05c-0.09-0.53-0.18-1.05-0.28-1.56c-0.1-0.51-0.18-1.02-0.26-1.54
		c-0.02-0.17-0.05-0.42-0.09-0.75c-0.04-0.33-0.09-0.7-0.14-1.12c-0.05-0.42-0.11-0.85-0.17-1.3c-0.06-0.45-0.11-0.88-0.17-1.3
		c-0.05-0.42-0.1-0.79-0.14-1.12s-0.07-0.58-0.09-0.75L294.5,398.06z"/>
	<path class="st3" d="M328.82,417.47c-0.15,0.03-0.31,0.03-0.47-0.01c-0.13-0.01-0.27-0.05-0.43-0.12
		c-0.16-0.07-0.31-0.17-0.45-0.31c-0.49-0.56-0.89-1.16-1.19-1.81c-0.3-0.65-0.58-1.32-0.83-2.02c-0.15-0.42-0.28-0.85-0.4-1.28
		c-0.12-0.43-0.23-0.87-0.32-1.31c-0.15-0.67-0.3-1.32-0.45-1.97c-0.15-0.65-0.3-1.3-0.45-1.97c-0.04-0.18-0.07-0.36-0.09-0.54
		c-0.03-0.18-0.07-0.38-0.12-0.59c-0.11,0.17-0.2,0.33-0.28,0.47c-0.08,0.14-0.13,0.3-0.17,0.46c-0.18,0.71-0.39,1.4-0.65,2.08
		c-0.26,0.68-0.52,1.36-0.78,2.05c-0.12,0.29-0.23,0.57-0.31,0.86c-0.08,0.29-0.18,0.57-0.31,0.86c-0.09,0.21-0.19,0.41-0.29,0.6
		c-0.11,0.19-0.21,0.38-0.32,0.56c-0.27,0.42-0.55,0.81-0.85,1.18c-0.3,0.37-0.66,0.69-1.09,0.95c-0.66,0.45-1.39,0.68-2.19,0.7
		c-0.37,0.01-0.7-0.06-1-0.23c-0.3-0.17-0.57-0.38-0.81-0.66c-0.26-0.27-0.46-0.57-0.61-0.89c-0.14-0.33-0.26-0.67-0.34-1.03
		c-0.18-0.66-0.27-1.33-0.28-2.01c-0.01-0.68,0.01-1.36,0.07-2.05c0.06-0.51,0.12-1,0.2-1.49c0.08-0.49,0.21-0.97,0.4-1.45
		c0.43-1.12,1.04-2.15,1.83-3.1c0.48-0.57,0.98-1.1,1.51-1.58c0.53-0.49,1.11-0.93,1.75-1.33s1.29-0.75,1.95-1.04
		c0.66-0.29,1.34-0.53,2.04-0.73c0.04,0,0.08-0.02,0.1-0.03c0.03-0.02,0.05-0.03,0.08-0.03c0.07-0.37,0.14-0.71,0.2-1.04
		s0.13-0.66,0.21-1c0.02-0.16,0.1-0.28,0.23-0.36c0.13-0.08,0.29-0.11,0.49-0.11c0.35-0.01,0.63,0.1,0.84,0.34s0.34,0.48,0.39,0.71
		c0.11,0.32,0.17,0.64,0.19,0.98c0.02,0.34,0.03,0.67,0.04,1c0.05,0.83,0.11,1.67,0.18,2.49c0.07,0.83,0.18,1.65,0.35,2.47
		c0.2,1.03,0.44,2.04,0.72,3.03c0.28,0.99,0.59,1.98,0.93,2.96c0.2,0.59,0.41,1.18,0.63,1.76c0.22,0.58,0.45,1.16,0.67,1.73
		c0.12,0.33,0.26,0.65,0.4,0.96s0.29,0.63,0.44,0.95c0.02,0.06,0.05,0.15,0.1,0.29c0.05,0.19,0.05,0.35-0.01,0.48
		s-0.15,0.27-0.27,0.43c-0.1,0.13-0.21,0.23-0.34,0.31c-0.13,0.08-0.25,0.15-0.37,0.22C329.12,417.34,328.97,417.41,328.82,417.47z
		 M318.09,413.43l0.11-0.01c0.08-0.04,0.14-0.07,0.18-0.11c0.74-0.55,1.27-1.26,1.62-2.13c0.1-0.25,0.19-0.51,0.27-0.76
		c0.08-0.25,0.17-0.5,0.27-0.76c0.19-0.48,0.39-0.94,0.62-1.4c0.23-0.45,0.4-0.94,0.51-1.45c0.1-0.4,0.22-0.79,0.36-1.17
		c0.14-0.39,0.27-0.77,0.38-1.16c0.14-0.5,0.29-1,0.43-1.5c0.14-0.5,0.26-1.01,0.34-1.51c0.02-0.16,0.04-0.32,0.05-0.48
		c0.01-0.16-0.02-0.33-0.08-0.5c-0.15,0.05-0.29,0.1-0.42,0.17s-0.25,0.14-0.37,0.22c-0.48,0.31-0.94,0.64-1.4,0.97
		s-0.89,0.7-1.3,1.09c-0.33,0.32-0.65,0.66-0.93,1c-0.29,0.34-0.51,0.72-0.66,1.16c-0.06,0.19-0.13,0.38-0.2,0.57
		c-0.07,0.19-0.13,0.38-0.18,0.57c-0.08,0.31-0.15,0.62-0.22,0.93c-0.07,0.31-0.12,0.63-0.16,0.95c-0.04,0.28-0.06,0.55-0.05,0.83
		c0,0.28,0.01,0.56,0.01,0.84c0,0.47,0.03,0.94,0.09,1.4s0.16,0.92,0.3,1.38c0.05,0.15,0.1,0.31,0.17,0.46
		C317.87,413.19,317.97,413.32,318.09,413.43z"/>
	<path class="st3" d="M341.22,402.95c0.11-0.29,0.2-0.55,0.28-0.78c0.08-0.23,0.17-0.47,0.26-0.72c0.2-0.5,0.41-1,0.61-1.5
		c0.2-0.5,0.43-0.99,0.67-1.46c0.19-0.37,0.44-0.71,0.74-1c0.3-0.3,0.65-0.53,1.06-0.69c0.31-0.15,0.64-0.15,1-0.02
		c0.16,0.07,0.31,0.14,0.45,0.2c0.14,0.07,0.29,0.14,0.45,0.2c0.19,0.1,0.33,0.22,0.44,0.39s0.22,0.32,0.34,0.47
		c0.82,1.25,1.25,2.61,1.29,4.08c0,0.24,0.01,0.48,0.02,0.72c0.01,0.24,0.03,0.48,0.04,0.72c0,0.03,0.02,0.11,0.07,0.25
		c0.11-0.29,0.21-0.56,0.29-0.82c0.09-0.26,0.18-0.52,0.27-0.76c0.31-0.81,0.65-1.61,1.01-2.39c0.36-0.78,0.8-1.53,1.31-2.25
		c0.34-0.49,0.73-0.92,1.14-1.31c0.42-0.38,0.89-0.72,1.43-1.01c0.37-0.21,0.74-0.32,1.12-0.35c0.38-0.03,0.77,0.01,1.17,0.12
		c0.21,0.07,0.39,0.17,0.54,0.32c0.14,0.15,0.27,0.32,0.37,0.51c0.67,1.14,1.06,2.35,1.17,3.63c0.04,0.54,0.09,1.07,0.15,1.6
		s0.11,1.06,0.15,1.6c0.04,0.65,0.06,1.29,0.06,1.93c0,0.64-0.05,1.28-0.13,1.92c-0.07,0.65-0.11,1.31-0.1,1.96
		c0,0.65,0.03,1.31,0.07,1.98c0.03,0.33,0.06,0.65,0.07,0.98c0.01,0.33,0.04,0.65,0.07,0.98c0,0.08,0.01,0.17,0.03,0.25
		s0.03,0.17,0.05,0.25c0.03,0.13,0.04,0.25,0.04,0.37c0,0.12-0.05,0.25-0.13,0.37c-0.07,0.09-0.12,0.18-0.15,0.29
		c-0.03,0.11-0.06,0.21-0.09,0.31c-0.05,0.17-0.14,0.33-0.25,0.47c-0.11,0.14-0.24,0.24-0.38,0.28c-0.2,0.07-0.4,0.16-0.61,0.25
		s-0.44,0.1-0.68,0.03c-0.23-0.05-0.38-0.21-0.46-0.48c-0.15-0.46-0.27-0.93-0.37-1.41c-0.09-0.47-0.15-0.96-0.17-1.45
		c-0.01-0.37-0.02-0.74-0.03-1.12c-0.01-0.38-0.01-0.75,0.01-1.12c0.02-0.48,0.05-0.96,0.08-1.45s0.06-0.96,0.08-1.45
		c0.02-0.31,0.03-0.62,0.03-0.91c-0.01-0.3,0-0.6,0.03-0.92c0.02-0.33,0.06-0.66,0.11-1s0.09-0.67,0.13-1
		c0.05-0.46,0.1-0.9,0.15-1.33c0.05-0.43,0.09-0.88,0.12-1.33c0.02-0.41,0.04-0.82,0.05-1.23s0.03-0.82,0.05-1.23
		c0.02-0.41-0.02-0.78-0.13-1.1c-0.05-0.14-0.14-0.2-0.28-0.19c-0.16,0.02-0.3,0.04-0.45,0.08c-0.14,0.04-0.28,0.1-0.42,0.19
		c-0.59,0.38-1.09,0.83-1.5,1.36c-0.41,0.53-0.78,1.09-1.11,1.69c-0.23,0.44-0.46,0.89-0.67,1.35c-0.21,0.46-0.42,0.92-0.62,1.39
		c-0.15,0.34-0.29,0.69-0.41,1.04s-0.23,0.7-0.34,1.06c-0.15,0.5-0.28,0.99-0.4,1.48c-0.12,0.49-0.23,0.99-0.33,1.48
		c-0.08,0.38-0.13,0.77-0.17,1.15c-0.04,0.38-0.06,0.77-0.08,1.15c-0.04,0.62-0.08,1.24-0.1,1.85c-0.02,0.61-0.07,1.23-0.13,1.85
		c-0.02,0.34-0.11,0.66-0.26,0.96c-0.15,0.3-0.39,0.55-0.71,0.76c-0.1,0.06-0.19,0.12-0.27,0.19c-0.08,0.07-0.17,0.13-0.25,0.21
		c-0.03,0.03-0.06,0.05-0.08,0.05s-0.06,0.02-0.08,0.03c-0.21,0.08-0.47,0.06-0.77-0.05c-0.3-0.11-0.51-0.26-0.62-0.46
		c-0.19-0.28-0.32-0.57-0.39-0.88c-0.07-0.3-0.13-0.62-0.18-0.94c-0.09-0.49-0.17-0.99-0.23-1.48c-0.06-0.49-0.09-1-0.08-1.51
		c0-0.08-0.01-0.17-0.02-0.26s-0.02-0.19-0.04-0.29c-0.02-0.1-0.03-0.19-0.03-0.29c0-0.09,0.03-0.18,0.1-0.27
		c0.01-0.03,0.02-0.08,0.02-0.15c-0.02-0.17-0.04-0.33-0.06-0.5c-0.02-0.16-0.04-0.32-0.04-0.48c0-0.21,0-0.42,0.01-0.64
		c0.01-0.21,0.01-0.43,0.01-0.66c0.01-0.07,0.01-0.15,0-0.23c-0.02-0.08-0.02-0.17-0.03-0.25l0.15-2.24
		c0.02-0.3,0.05-0.59,0.07-0.88c0.02-0.29,0.04-0.59,0.07-0.88c0.04-0.37,0.07-0.74,0.11-1.12c0.04-0.38,0.06-0.75,0.09-1.12
		c0.02-0.33,0.03-0.65,0.01-0.96s-0.09-0.63-0.22-0.95c-0.24,0.2-0.45,0.42-0.65,0.64c-0.2,0.22-0.36,0.48-0.5,0.76
		c-0.08,0.17-0.18,0.34-0.29,0.5s-0.21,0.33-0.31,0.5c-0.19,0.37-0.35,0.75-0.47,1.15c-0.12,0.39-0.23,0.79-0.34,1.19
		c-0.11,0.37-0.2,0.74-0.29,1.1c-0.09,0.36-0.18,0.73-0.29,1.1c-0.15,0.6-0.27,1.19-0.36,1.77s-0.14,1.19-0.15,1.81
		c0,0.27,0,0.54-0.03,0.8c-0.02,0.26-0.03,0.53-0.03,0.8c0.01,0.44,0.02,0.88,0.04,1.31c0.02,0.43,0.05,0.86,0.09,1.28
		c0.02,0.24,0.02,0.49,0.01,0.73c-0.01,0.25,0,0.49,0.03,0.73c0.02,0.1,0.02,0.2,0.02,0.29c-0.01,0.09-0.01,0.19-0.01,0.29
		c0,0.24-0.02,0.45-0.07,0.62c-0.05,0.16-0.13,0.28-0.24,0.37s-0.23,0.15-0.39,0.2c-0.16,0.06-0.31,0.09-0.46,0.09
		s-0.3,0.01-0.46,0.01c-0.1,0-0.19-0.01-0.28-0.05c-0.09-0.03-0.17-0.07-0.26-0.11c-0.11-0.04-0.2-0.08-0.25-0.12
		c-0.05-0.04-0.11-0.11-0.18-0.21c-0.23-0.32-0.39-0.67-0.49-1.03c-0.06-0.24-0.12-0.48-0.16-0.71c-0.05-0.23-0.09-0.47-0.14-0.71
		c-0.08-0.49-0.16-0.99-0.24-1.49c-0.08-0.5-0.16-1-0.24-1.49c-0.08-0.54-0.16-1.06-0.23-1.58c-0.07-0.52-0.13-1.04-0.17-1.58
		c-0.16-1.78-0.28-3.57-0.35-5.35c-0.04-0.67-0.06-1.32-0.07-1.98c0-0.65-0.01-1.32,0-2c0-0.5,0.02-0.99,0.04-1.49
		c0.02-0.5,0.04-0.99,0.06-1.49c0-0.17,0.08-0.29,0.25-0.37c0.24-0.13,0.5-0.17,0.8-0.11c0.29,0.06,0.52,0.21,0.68,0.44
		c0.16,0.22,0.3,0.45,0.42,0.68c0.12,0.23,0.21,0.48,0.29,0.75c0.05,0.24,0.11,0.48,0.18,0.71s0.13,0.47,0.16,0.71
		c0.06,0.31,0.11,0.62,0.13,0.94c0.03,0.32,0.06,0.64,0.11,0.97c0.07,0.5,0.11,1,0.12,1.52S341.05,402.41,341.22,402.95z"/>
	<path class="st3" d="M370.35,413.68c0.02,0.37,0.03,0.72,0.04,1.05c0.01,0.29,0.02,0.55,0.02,0.81c0,0.25-0.02,0.43-0.05,0.53
		c-0.09,0.26-0.21,0.46-0.38,0.59s-0.38,0.17-0.65,0.13c-0.41-0.08-0.72-0.25-0.94-0.51s-0.4-0.56-0.53-0.89
		c-0.1-0.22-0.17-0.43-0.2-0.63c-0.03-0.19-0.06-0.37-0.1-0.54c-0.03-0.17-0.06-0.35-0.07-0.54c-0.03-0.75-0.06-1.5-0.09-2.24
		c-0.03-0.74-0.06-1.49-0.07-2.24c-0.02-0.67-0.03-1.33-0.04-1.98c-0.01-0.65,0.01-1.32,0.07-2c0.04-0.38,0.06-0.76,0.08-1.14
		c0.02-0.38,0.04-0.76,0.06-1.15c0.03-0.24,0.05-0.48,0.08-0.71c0.02-0.23,0.05-0.47,0.08-0.71c0.01-0.24,0.02-0.47,0.03-0.7
		s0.02-0.46,0.05-0.7c0.03-0.28,0.09-0.56,0.18-0.84c0.11-0.33,0.32-0.57,0.65-0.72s0.64-0.13,0.94,0.05
		c0.11,0.06,0.2,0.14,0.27,0.24c0.07,0.1,0.14,0.2,0.21,0.3c0.12,0.21,0.2,0.42,0.25,0.63s0.1,0.44,0.14,0.67
		c0.09,0.54,0.15,1.08,0.17,1.62c0.02,0.53,0,1.07-0.04,1.61c-0.04,0.37-0.06,0.72-0.08,1.07c-0.01,0.35-0.03,0.7-0.05,1.07l0.02,0
		c0,0.43-0.01,0.85-0.03,1.26c-0.03,0.42-0.04,0.84-0.03,1.26l0.05,4.47c0,0.16,0,0.3,0,0.44S370.36,413.52,370.35,413.68z
		 M369.72,396.99c-0.09,0.04-0.19,0.06-0.3,0.07c-0.11,0.01-0.22-0.01-0.33-0.05c-0.1-0.04-0.2-0.12-0.28-0.25
		c-0.08-0.13-0.14-0.31-0.17-0.55s0-0.44,0.07-0.6c0.07-0.16,0.16-0.29,0.27-0.4c0.12-0.12,0.27-0.22,0.44-0.29
		c0.04-0.03,0.14,0,0.28,0.06c0.15,0.07,0.29,0.14,0.45,0.22c0.17,0.08,0.31,0.25,0.43,0.52s0.18,0.49,0.18,0.69
		c-0.01,0.1-0.04,0.18-0.11,0.24s-0.16,0.12-0.27,0.17s-0.22,0.09-0.34,0.12C369.93,396.94,369.82,396.97,369.72,396.99z"/>
	<path class="st3" d="M382.78,410.19c0.12-0.27,0.24-0.54,0.36-0.82c0.12-0.28,0.24-0.55,0.34-0.82c0.17-0.46,0.36-0.91,0.56-1.35
		s0.43-0.87,0.68-1.29c0.26-0.47,0.53-0.93,0.82-1.41c0.28-0.47,0.58-0.94,0.88-1.4c0.27-0.41,0.54-0.81,0.83-1.2
		c0.29-0.39,0.58-0.78,0.87-1.15c0.24-0.31,0.48-0.62,0.72-0.91c0.24-0.3,0.49-0.59,0.76-0.89c0.17-0.19,0.35-0.37,0.55-0.54
		s0.4-0.34,0.59-0.51c0.11-0.1,0.22-0.19,0.32-0.27c0.1-0.08,0.21-0.17,0.32-0.27c0.21-0.2,0.47-0.28,0.78-0.24
		c0.15,0.03,0.29,0.07,0.43,0.1c0.13,0.03,0.27,0.06,0.41,0.07c0.17,0.04,0.29,0.11,0.38,0.23c0.08,0.12,0.16,0.24,0.23,0.36
		c0.09,0.16,0.16,0.31,0.21,0.48s0.07,0.33,0.09,0.5c0.07,0.71,0.06,1.41,0,2.09c-0.07,0.68-0.17,1.37-0.32,2.07
		c-0.12,0.58-0.24,1.17-0.37,1.75c-0.13,0.58-0.24,1.17-0.35,1.76c-0.2,1.02-0.39,2.04-0.55,3.06c-0.16,1.02-0.29,2.05-0.38,3.08
		c-0.04,0.5-0.08,0.99-0.12,1.49c-0.04,0.49-0.05,0.99-0.03,1.5c0.01,0.16,0.01,0.31,0.02,0.44c0,0.14,0.01,0.28,0.02,0.42
		c0.01,0.12,0.02,0.23,0.01,0.33s-0.06,0.21-0.16,0.31c0,0.01-0.01,0.02-0.01,0.02c-0.01,0-0.01,0.01-0.01,0.02
		c0,0.24-0.08,0.41-0.23,0.51c-0.15,0.09-0.32,0.17-0.51,0.23c-0.19,0.05-0.38,0.1-0.56,0.15c-0.18,0.06-0.37,0.11-0.58,0.15
		c-0.29,0.06-0.59,0.02-0.9-0.12c-0.3-0.14-0.53-0.34-0.68-0.6c-0.03-0.06-0.05-0.13-0.05-0.2s-0.01-0.14-0.03-0.22
		c-0.01-0.06-0.01-0.11,0-0.16c0.01-0.05,0.01-0.1,0-0.16c-0.1-1.57-0.02-3.15,0.23-4.73c0.04-0.31,0.08-0.61,0.11-0.92
		c0.03-0.3,0.08-0.61,0.15-0.91c0.09-0.49,0.19-0.97,0.31-1.46s0.22-0.97,0.33-1.46c0.09-0.4,0.19-0.8,0.3-1.21
		c0.1-0.4,0.21-0.8,0.34-1.2c0.08-0.32,0.18-0.63,0.28-0.95c0.1-0.31,0.21-0.63,0.3-0.95c0.18-0.59,0.36-1.18,0.55-1.76
		c0.19-0.58,0.34-1.18,0.45-1.8c0.03-0.08,0.04-0.17,0.04-0.25c0-0.09,0.01-0.18,0.03-0.3c-0.48,0.25-0.87,0.56-1.19,0.92
		c-0.19,0.22-0.36,0.44-0.53,0.67c-0.17,0.23-0.33,0.45-0.51,0.67c-0.19,0.25-0.38,0.49-0.58,0.74s-0.39,0.49-0.58,0.74
		c-0.21,0.27-0.39,0.55-0.56,0.83c-0.25,0.4-0.5,0.79-0.74,1.18s-0.49,0.78-0.74,1.18c-0.11,0.19-0.21,0.38-0.31,0.59
		c-0.1,0.21-0.2,0.41-0.29,0.62c-0.25,0.52-0.5,1.05-0.75,1.57c-0.25,0.52-0.49,1.05-0.73,1.58c-0.13,0.27-0.25,0.54-0.34,0.82
		c-0.09,0.28-0.2,0.56-0.32,0.83c-0.17,0.39-0.29,0.8-0.37,1.23s-0.19,0.84-0.31,1.26c-0.05,0.19-0.12,0.38-0.19,0.58
		s-0.14,0.38-0.19,0.57c-0.05,0.18-0.1,0.36-0.13,0.53c-0.04,0.17-0.09,0.34-0.17,0.5c-0.11,0.27-0.24,0.51-0.39,0.72
		c-0.07,0.11-0.14,0.18-0.21,0.23s-0.17,0.1-0.31,0.15c-0.1,0.03-0.21,0.04-0.32,0.03c-0.11-0.01-0.22-0.02-0.33-0.03
		s-0.21-0.03-0.3-0.05c-0.09-0.02-0.17-0.08-0.22-0.17c-0.27-0.36-0.45-0.74-0.56-1.14c-0.15-0.59-0.25-1.18-0.29-1.76
		c-0.04-0.58-0.05-1.17-0.05-1.77c0.02-0.68,0.03-1.37,0.03-2.05c0-0.69,0.03-1.37,0.07-2.05c0.06-0.81,0.14-1.61,0.24-2.42
		c0.1-0.81,0.2-1.62,0.31-2.44c0.08-0.63,0.18-1.26,0.3-1.89c0.12-0.63,0.23-1.26,0.34-1.91c0.15-0.79,0.32-1.62,0.51-2.46
		c0.06-0.24,0.14-0.47,0.24-0.7c0.1-0.23,0.24-0.44,0.42-0.63c0.18-0.21,0.39-0.3,0.62-0.28c0.2,0,0.38,0.03,0.54,0.09
		c0.16,0.06,0.29,0.2,0.4,0.42c0.1,0.21,0.18,0.42,0.23,0.62c0.05,0.2,0.08,0.42,0.08,0.66c-0.01,0.28-0.01,0.56,0,0.82
		c0.01,0.27,0.02,0.54,0.02,0.83c0.02,0.4,0.02,0.8,0.01,1.18c-0.01,0.38-0.04,0.78-0.08,1.19c-0.05,0.59-0.09,1.18-0.13,1.76
		c-0.04,0.58-0.08,1.17-0.13,1.76c-0.05,0.64-0.11,1.27-0.16,1.9c-0.05,0.63-0.11,1.26-0.16,1.9c-0.01,0.2-0.02,0.39-0.03,0.58
		c-0.01,0.19-0.01,0.39-0.01,0.59L382.78,410.19z"/>
</g>
</svg>
