<svg xmlns="http://www.w3.org/2000/svg" viewBox="0 0 217.36 458.04"><defs><style>.cls-1{fill:#057fc4;}</style></defs><g id="Layer_2" data-name="Layer 2"><g id="Layer_1-2" data-name="Layer 1"><path class="cls-1" d="M136.31,143.1A20.69,20.69,0,0,1,118,139.25a31.47,31.47,0,0,1-7.63-9.3,47.67,47.67,0,0,1-4.64,11.13,42,42,0,0,1-2.61,4c-3.93,5.4-8.61,9.12-13.91,11.06C81.35,159,73.87,157,70.13,151c-3.61-5.81-3.17-13.16,1.1-20-6.33,1.61-12.73,2.28-18.35-.43a14.66,14.66,0,0,1-8.13-9.08,14.29,14.29,0,0,1,1.83-11.12c.26-.44.54-.87.84-1.28,4.85-6.66,13.49-8.39,20.48-9.16l.18,0a65.8,65.8,0,0,1-7.65-5.06,43.64,43.64,0,0,1-8.91-8.42C49,82.94,48.29,79,49.64,75.39a12.35,12.35,0,0,1,1.63-3,14.93,14.93,0,0,1,5.8-4.7c7.88-3.6,16.74.66,22.72,4.17a64.47,64.47,0,0,1,6.56,4.43,1.87,1.87,0,0,1,0-.25,24.42,24.42,0,0,1,4.2-17.23A19.85,19.85,0,0,1,94,55.14c5.93-4.84,14.23-4.86,20.67-.06a24.6,24.6,0,0,1,9.53,19.76,34.25,34.25,0,0,1-.49,5.51c.53-.37,1.06-.71,1.61-1,6.11-3.63,13.85-4,19.72-1a14.55,14.55,0,0,1,7.4,17,19.06,19.06,0,0,1-3,6.29,21.56,21.56,0,0,1-9.56,7.38,28.52,28.52,0,0,1-5.93,1.57,33.22,33.22,0,0,1,3.93,2.51c5.41,4.06,8.8,9.91,9.05,15.63a14.08,14.08,0,0,1-2.66,9A14.62,14.62,0,0,1,136.31,143.1Zm-19.9-32.2a13.88,13.88,0,0,1-1.78,3.31,13.66,13.66,0,0,1-2.26,2.42c4.11,11.39,9.46,21.47,20,20.15a8.82,8.82,0,0,0,6.08-3.29,6.56,6.56,0,0,0,1.24-3.89c0-4.38-3.31-8.49-6.2-10.68-3.48-2.63-7.52-4.28-11.8-6-1.72-.7-3.48-1.42-5.21-2.21ZM116.06,100l-.2.37a12.6,12.6,0,0,1,.93,2.39c10.17,1.54,21.21,2.36,26.59-5h0a14.9,14.9,0,0,0,1.32-2.2c1.57-3.25,1.59-7.67-1.9-10.22s-8.84-2.68-13.27-.5a25.53,25.53,0,0,0-9.12,8.26A69.58,69.58,0,0,0,116.06,100Zm-12.35,19.54a13.55,13.55,0,0,1-3.36-.59,104.27,104.27,0,0,1-15.9,7.82c-1,.74-1.92,1.53-2.82,2.34a28.18,28.18,0,0,0-4.08,4.46c-2.19,3-4.42,7.61-2.59,12.35,1.9,4.92,7.26,5.5,11.45,3.95a23.08,23.08,0,0,0,10.67-8.59c.66-.9,1.3-1.88,1.92-2.91a41.06,41.06,0,0,0,5.67-18.82C104.35,119.57,104,119.56,103.71,119.55Zm-6.36-17.42a2.93,2.93,0,0,1,1.4,1.58,3.63,3.63,0,0,1-.53,3.33,3.48,3.48,0,0,1-.84.83,8,8,0,0,0,5.19,4.75,6.12,6.12,0,0,0,6.83-2.36c.08-.12.17-.24.25-.37a6.49,6.49,0,0,0-.22-7.67,7.22,7.22,0,0,0-8.72-1.6,3.17,3.17,0,0,1-2.85.25Q97.58,101.5,97.35,102.13ZM92.79,73.8a29.18,29.18,0,0,0,2.82,10.63c.18.4.36.79.55,1.18a66.4,66.4,0,0,1,5.08,6.77,4.14,4.14,0,0,1,.58,1.36,13.68,13.68,0,0,1,8.76,1.4c2.53-5.27,5.14-10.71,6-16.52.63-4.35.42-10.63-4.14-15.82-3-3.4-8.1-5.68-12.76-3.12a11.45,11.45,0,0,0-3.75,3.39A17.54,17.54,0,0,0,92.79,73.8Zm-8,32.89a74.28,74.28,0,0,0-11.52-.31c-6,.3-14.22.72-19.17,5.23a10.35,10.35,0,0,0-1.43,1.6,8.76,8.76,0,0,0-1.79,5c0,2.89,2.15,5.06,4.17,6.12,5.73,3,13.29.63,19.36-1.3l.12,0c2.27-.72,4.57-1.55,6.82-2.45A54.78,54.78,0,0,1,93,114a13.66,13.66,0,0,1-2.23-4,16.77,16.77,0,0,1-.6-2.21C88.38,107.5,86.58,107.13,84.82,106.69Zm8.73-12.32c-.58-.91-1.14-1.81-1.68-2.73A58.58,58.58,0,0,0,80.09,80.45c-5.51-3.94-12-7.86-17.94-7.06a8,8,0,0,0-5.39,3.14l-.22.33c-1.47,2.26-.48,4.43.6,5.87a38.59,38.59,0,0,0,7.27,6.83,59.68,59.68,0,0,0,8.76,5.59A61.46,61.46,0,0,0,85.89,100c1.51.16,3,.37,4.56.62a17.6,17.6,0,0,1,2.78-5.83C93.33,94.65,93.44,94.51,93.55,94.37Z"/><path class="cls-1" d="M63.52,458A18.44,18.44,0,0,1,52,453.75c-5.82-4.78-9.29-12.95-9.29-21.86a44.56,44.56,0,0,1,.45-6.11,38.22,38.22,0,0,1-6.32,5A28.42,28.42,0,0,1,21.51,435a24.9,24.9,0,0,1-9-1.77,19.11,19.11,0,0,1-12-21.17c1.43-8.59,8-16.43,16.6-20,.77-.32,1.55-.61,2.35-.88a43.35,43.35,0,0,1-6.18-3.84A32.29,32.29,0,0,1,0,361.74c0-10.56,6.61-19.28,16.38-21.7a25.81,25.81,0,0,1,6.6-.75,32.12,32.12,0,0,1,21.44,9.2l.23.22a83.4,83.4,0,0,1,.53-10.39c1-9.07,3.53-21.75,13.54-27.2a19.78,19.78,0,0,1,9.52-2.39,16.8,16.8,0,0,1,4.45.67c4.87,1.42,8.49,5.23,10.18,10.73,1.57,5.13,1.76,10.72,1.82,16a88.35,88.35,0,0,1-.72,12l.16-.17c6.33-6.75,15-14.48,25.81-14.31.67,0,1.35.05,2,.12,5.53.6,10.19,3,13.13,6.85,3.2,4.15,4.31,9.73,3.13,15.73-1.59,8-7.34,14.26-14,19.65,10.53.87,18.6,6.21,21.86,14.6,3.36,8.67-.41,18.14-9.6,24.13-6.22,4-13.83,6-22.61,5.91a57.47,57.47,0,0,1-6.33-.45,63.09,63.09,0,0,1-15.37-3.91,41,41,0,0,1,3.75,15.36A27.21,27.21,0,0,1,75.48,454,19.24,19.24,0,0,1,63.52,458ZM57,407.58c-.53,2.44-1.17,4.86-1.79,7.22-1.55,5.88-3,11.43-3,17.17,0,4.76,1.7,11.54,6.34,15a8.66,8.66,0,0,0,5.08,1.76,11.58,11.58,0,0,0,8.25-3.8c9.71-10,3.33-23.63-5.41-36.95a17.85,17.85,0,0,1-4.33.47,18.51,18.51,0,0,1-4.88-.75ZM35.4,397.79c-6.4-.09-11.6.91-15.88,3.08-5.8,2.93-9.89,8.83-10,14.35-.07,5.69,4.6,9.15,9.26,10.07a18.51,18.51,0,0,0,3.35.35h0c12,.18,19.89-12.08,26.29-24a16,16,0,0,1-1.76-2.87l-.56-.08A93.36,93.36,0,0,0,35.4,397.79Zm40.29,4.37A54.1,54.1,0,0,0,100,411.05c1.58.17,3.12.26,4.58.28,6.94.11,12.65-1.35,17.47-4.45s8.56-9.27,4.88-15.16c-3.54-5.67-10.14-7-15.05-7a37.85,37.85,0,0,0-7.91.76c-1.56.31-3.13.69-4.68,1.12a135.28,135.28,0,0,1-20.78,10.55,17.6,17.6,0,0,1-2,4C76.21,401.49,76,401.83,75.69,402.16ZM61.42,380.24A4.16,4.16,0,0,1,58.9,383c-3.73,1.5-6.11,6.29-5.2,10.44.74,3.41,4,6,7.9,6.29l.58,0a8,8,0,0,0,7.87-5.33,10.45,10.45,0,0,0-.89-9.21,4.6,4.6,0,0,1-1.54.24,4.76,4.76,0,0,1-3.92-2.08,3.88,3.88,0,0,1-.56-2.71A14,14,0,0,0,61.42,380.24Zm-38.24-31.9a15,15,0,0,0-6.52,1.28c-6.37,2.88-8,10.05-6.79,15.87,1.85,8.9,8.29,14.08,13.37,16.86,6.78,3.7,14.57,5.25,22.1,6.74a18,18,0,0,1,5.45-10.32,5.36,5.36,0,0,1-1-1.68,85.53,85.53,0,0,1-3.11-10.69c-.26-.51-.53-1-.81-1.52a38.18,38.18,0,0,0-9-11.35A23.08,23.08,0,0,0,23.18,348.34Zm51.59,29.28A20.33,20.33,0,0,1,76.62,380,17.85,17.85,0,0,1,79,385.48a71.89,71.89,0,0,1,16.14-7c2.73-1.66,5.41-3.42,8-5.24l.13-.1c6.83-4.87,15.32-10.93,16.66-19.34.47-3-.1-6.94-3.15-9.21a11.53,11.53,0,0,0-6.72-2.11,14.51,14.51,0,0,0-2.8.24c-8.66,1.66-15.59,10-20.65,16a100.71,100.71,0,0,0-8.77,12.37C76.9,373.31,75.87,375.5,74.77,377.62Zm-16.09-7.05A23.14,23.14,0,0,1,67,372.25c.94-1.79,1.93-3.57,2.95-5.29a80.43,80.43,0,0,0,4.93-17.22,78.23,78.23,0,0,0,1-13.63,50.23,50.23,0,0,0-1.45-13c-.65-2.28-2.16-5-5.7-5.27l-.51,0A10.52,10.52,0,0,0,60.71,321c-5.57,5.67-6.54,15.54-6.74,24.44a77.07,77.07,0,0,0,2.47,21.24c.54,1.29,1,2.6,1.54,3.92Z"/><path class="cls-1" d="M186.26,63a7.8,7.8,0,0,1-4.87-1.81,11.91,11.91,0,0,1-3.92-9.22,19.41,19.41,0,0,1,.19-2.57,15.72,15.72,0,0,1-2.66,2.1,12,12,0,0,1-6.46,1.79,10.47,10.47,0,0,1-3.81-.75,8.06,8.06,0,0,1-5.06-8.93,11.5,11.5,0,0,1,7-8.43l1-.37a18.83,18.83,0,0,1-2.61-1.62,13.62,13.62,0,0,1-5.58-10.8,9.2,9.2,0,0,1,6.9-9.16,11.26,11.26,0,0,1,2.79-.31,13.52,13.52,0,0,1,9,3.88l.1.09a35.4,35.4,0,0,1,.22-4.38C179,8.66,180,3.31,184.23,1a8.33,8.33,0,0,1,4-1,6.76,6.76,0,0,1,1.87.28,6.43,6.43,0,0,1,4.3,4.53,24,24,0,0,1,.76,6.75,35.13,35.13,0,0,1-.3,5.08l.07-.07c2.67-2.85,6.32-6.1,10.89-6l.85.06a7.88,7.88,0,0,1,5.54,2.89,8.17,8.17,0,0,1,1.32,6.63c-.67,3.39-3.1,6-5.92,8.29,4.44.36,7.84,2.62,9.22,6.15s-.17,7.65-4,10.18a16.64,16.64,0,0,1-9.54,2.49,22.36,22.36,0,0,1-2.67-.19,26.57,26.57,0,0,1-6.48-1.64,17.06,17.06,0,0,1,1.58,6.48,11.46,11.46,0,0,1-4.39,9.41A8.1,8.1,0,0,1,186.26,63Zm-2.74-21.28c-.22,1-.49,2.05-.75,3.05A28.17,28.17,0,0,0,181.51,52c0,2,.72,4.86,2.68,6.31a3.63,3.63,0,0,0,2.14.74,4.91,4.91,0,0,0,3.48-1.6c4.1-4.24,1.4-10-2.28-15.59a7.5,7.5,0,0,1-1.83.2,8.09,8.09,0,0,1-2.06-.31Zm-9.12-4.13a14.22,14.22,0,0,0-6.7,1.3,7.44,7.44,0,0,0-4.2,6,4.45,4.45,0,0,0,3.9,4.25,8.79,8.79,0,0,0,1.42.15h0c5.07.08,8.39-5.1,11.09-10.12a7.18,7.18,0,0,1-.75-1.21l-.23,0A39.32,39.32,0,0,0,174.4,37.56Zm17,1.84a22.85,22.85,0,0,0,10.24,3.76,18.74,18.74,0,0,0,1.93.11,12.85,12.85,0,0,0,7.37-1.87c2.08-1.34,3.61-3.92,2.06-6.4s-4.28-2.93-6.35-3a15.56,15.56,0,0,0-3.33.32c-.66.13-1.33.29-2,.48a57.65,57.65,0,0,1-8.76,4.44,7.75,7.75,0,0,1-.86,1.7C191.61,39.12,191.5,39.27,191.39,39.4Zm-6-9.24a1.74,1.74,0,0,1-1.06,1.18,4,4,0,0,0-2.19,4.4,3.58,3.58,0,0,0,3.33,2.65h.24A3.36,3.36,0,0,0,189,36.16a4.43,4.43,0,0,0-.37-3.89,1.8,1.8,0,0,1-.65.1,2,2,0,0,1-1.66-.87,1.61,1.61,0,0,1-.23-1.15A6,6,0,0,0,185.37,30.16ZM169.24,16.71a6.37,6.37,0,0,0-2.75.53c-2.68,1.22-3.37,4.24-2.86,6.7a10.7,10.7,0,0,0,5.64,7.11,32.38,32.38,0,0,0,9.32,2.84,7.54,7.54,0,0,1,2.3-4.35,2.36,2.36,0,0,1-.41-.71,36.44,36.44,0,0,1-1.31-4.51l-.34-.64a16.36,16.36,0,0,0-3.78-4.79A9.74,9.74,0,0,0,169.24,16.71ZM191,29.06a7.47,7.47,0,0,1,.78,1,7.64,7.64,0,0,1,1,2.31,30.32,30.32,0,0,1,6.81-2.95c1.15-.7,2.28-1.45,3.36-2.22l.05,0c2.88-2.05,6.46-4.61,7-8.16a4,4,0,0,0-1.32-3.88,4.89,4.89,0,0,0-2.84-.89,5.82,5.82,0,0,0-1.18.1c-3.65.7-6.57,4.2-8.71,6.76a42.93,42.93,0,0,0-3.7,5.22C191.9,27.24,191.47,28.16,191,29.06Zm-6.78-3a9.73,9.73,0,0,1,3.51.71c.4-.76.81-1.5,1.24-2.23a33.86,33.86,0,0,0,2.08-7.26,32.54,32.54,0,0,0,.44-5.75,21,21,0,0,0-.61-5.5,2.7,2.7,0,0,0-2.4-2.22h-.22a4.42,4.42,0,0,0-3.19,1.34c-2.35,2.39-2.75,6.55-2.84,10.31a32.91,32.91,0,0,0,1,9c.23.54.44,1.09.65,1.65Z"/></g></g></svg>