<svg xmlns="http://www.w3.org/2000/svg" viewBox="0 0 476.85 318"><defs><style>.cls-1{fill:#057fc4;}</style></defs><g id="Layer_2" data-name="Layer 2"><g id="Layer_1-2" data-name="Layer 1"><path class="cls-1" d="M476.85,13.56c-2.17,9.94-4.49,19.85-6.49,29.82q-24,119.72-47.9,239.44C417.8,306,402.73,318,379.08,318H230.48q-66.61,0-133.22,0c-12.49,0-23.53-3.43-32.33-12.73-6.32-6.67-9.25-14.86-11-23.68Q28,151.81,2.05,22.07C1.44,19,.81,16,.25,12.94-.91,6.58,2,1.58,7.57.36S18.12,2.2,19.5,8.58c3.25,15,6.15,30.08,9.19,45.12l4.6,22.88c3.47-2.76,6.48-4.82,9.08-7.31C46.86,65,51.07,60.4,55.43,56,77,34.12,108.54,34.15,130,56.05c4,4.11,7.86,8.39,11.93,12.44,14.95,14.83,32.71,14.74,47.55-.22,3.94-4,7.68-8.13,11.59-12.13,21.51-22,53-22,74.59-.21,5.56,5.62,10.92,11.5,16.87,16.68a28.78,28.78,0,0,0,37.24.22c5.64-4.83,10.76-10.29,15.93-15.65,22.63-23.5,54.12-23.5,76.85.06,3.88,4,7.69,8.12,11.73,12,2.55,2.44,5.46,4.5,9,7.4,1.66-8.08,3.15-15.26,4.59-22.45,2.92-14.59,5.75-29.21,8.72-43.79C458.36,2,464.47-2.11,470.8,1.07c2.41,1.2,4.06,3.93,6.05,6ZM37.27,96c.15,1.2.18,1.66.27,2.11q18,90.33,36.07,180.64C76.36,292.47,83.07,298,97.19,298H379c14.93,0,21.31-5.46,24.23-20.16q13.15-66.39,26.47-132.74c3.25-16.24,6.51-32.48,9.83-49.07-13.13-4.81-21.68-15-30.81-24.49a70.34,70.34,0,0,0-6.22-5.6c-10.63-8.61-26.52-8.7-36.95.26-5.75,4.94-10.94,10.54-16.25,16-22.41,23-53.94,22.93-76.21-.19-5.27-5.47-10.52-11-16.27-16-10.31-8.86-26.61-8.82-36.87.13-6.07,5.29-11.53,11.28-17.22,17C185,101,158.75,104.86,139,91.4c-8-5.43-14.47-13-21.51-19.79C111.84,66.18,106.05,61.23,97.86,60c-12-1.83-21.5,2.67-29.57,11.19C59.13,80.84,50.44,91.12,37.27,96Z"/></g></g></svg>