<?xml version="1.0" encoding="utf-8"?>
<!-- Generator: Adobe Illustrator 21.1.0, SVG Export Plug-In . SVG Version: 6.00 Build 0)  -->
<svg version="1.1" id="Layer_1" xmlns="http://www.w3.org/2000/svg" xmlns:xlink="http://www.w3.org/1999/xlink" x="0px" y="0px"
	 viewBox="0 0 253 345" style="enable-background:new 0 0 253 345;" xml:space="preserve">
<style type="text/css">
	.st0{fill:#F8C849;}
	.st1{fill-rule:evenodd;clip-rule:evenodd;fill:#007FC4;}
</style>
<path class="st0" d="M239.7,57.3h-57.4C182.3,26.8,157.6,2,127,2S71.7,26.8,71.7,57.3H12.5C6.1,57.3,0.8,62.5,0.8,69v262.3
	c0,6.5,5.2,11.7,11.7,11.7h227.2c6.5,0,11.7-5.2,11.7-11.7V69C251.4,62.5,246.2,57.3,239.7,57.3z"/>
<g>
	<path class="st1" d="M149.4,18.3c2,0,3.7,1.6,3.7,3.7s-1.6,3.7-3.7,3.7c-2,0-3.7-1.6-3.7-3.7C145.8,19.9,147.4,18.3,149.4,18.3
		L149.4,18.3z M150.4,50.2c3.2,4.7,7.2,6.2,12.3,3c0.2,1.8,0.2,3.6,0.1,5.4c-1,20.3-18.3,35.9-38.6,34.9
		c-20.3-1-35.9-18.3-34.9-38.6c1-20.3,18.9-36.1,39.2-35.1c-1.8,5.6-0.3,10.6,4.3,12.3C128.7,45.5,138,54.2,150.4,50.2L150.4,50.2z
		 M107.7,47.5c3,0,5.5,2.5,5.5,5.5c0,3-2.5,5.5-5.5,5.5c-3,0-5.5-2.5-5.5-5.5C102.2,50,104.7,47.5,107.7,47.5L107.7,47.5z M125,54.6
		c1.8,0,3.2,1.4,3.2,3.2s-1.4,3.2-3.2,3.2s-3.2-1.4-3.2-3.2C121.9,56,123.3,54.6,125,54.6L125,54.6z M111.3,67.6
		c2.1,0,3.9,1.7,3.9,3.9c0,2.1-1.7,3.9-3.9,3.9c-2.1,0-3.9-1.7-3.9-3.9C107.4,69.4,109.1,67.6,111.3,67.6L111.3,67.6z M119.6,38
		c1.7,0,3,1.4,3,3c0,1.7-1.4,3-3,3c-1.7,0-3-1.4-3-3C116.6,39.4,117.9,38,119.6,38L119.6,38z M136.1,69c2.8,0,5.1,2.3,5.1,5.1
		c0,2.8-2.3,5.1-5.1,5.1c-2.8,0-5.1-2.3-5.1-5.1C131,71.3,133.3,69,136.1,69L136.1,69z M146.8,32.4c1.9,0,3.4,1.5,3.4,3.4
		s-1.5,3.4-3.4,3.4c-1.9,0-3.4-1.5-3.4-3.4S144.9,32.4,146.8,32.4L146.8,32.4z"/>
</g>
</svg>
