<svg width="1584" height="710" viewBox="0 0 1584 710" fill="none" xmlns="http://www.w3.org/2000/svg">
<g opacity="0.9" clip-path="url(#clip0_108_107)">
<path d="M1583.6 514.315C1582.85 512.867 1581.3 512.1 1579.78 512.291L1557.85 429.412C1557.94 429.37 1558.04 429.327 1558.13 429.284C1559.98 428.347 1560.71 426.089 1559.77 424.236C1559.15 423.001 1557.94 422.277 1556.64 422.192L1550.06 330.324C1550.38 330.26 1550.7 330.153 1551.02 330.004C1552.87 329.067 1553.59 326.809 1552.66 324.956C1551.72 323.103 1549.46 322.379 1547.61 323.316C1547.1 323.572 1546.7 323.934 1546.38 324.338L1490.1 290.791C1490.53 289.811 1490.53 288.639 1489.99 287.595C1489.06 285.742 1486.8 285.018 1484.95 285.955C1484.56 286.147 1484.22 286.403 1483.95 286.701L1447.81 259.969C1448.41 258.925 1448.47 257.605 1447.88 256.455C1447.45 255.603 1446.73 255.006 1445.92 254.665L1461.33 193.47C1462.04 193.555 1462.78 193.427 1463.46 193.086C1465.32 192.149 1466.04 189.891 1465.1 188.038C1464.31 186.505 1462.61 185.738 1460.99 186.079L1445.49 141.412C1445.49 141.412 1445.51 141.412 1445.51 141.391C1447.37 140.454 1448.09 138.196 1447.15 136.343C1446.22 134.49 1443.96 133.765 1442.11 134.703C1441.11 135.214 1440.45 136.087 1440.19 137.088L1381.93 129.59C1381.93 129.015 1381.81 128.44 1381.53 127.886C1380.59 126.033 1378.33 125.309 1376.48 126.246C1374.63 127.184 1373.91 129.441 1374.84 131.295C1374.89 131.358 1374.93 131.422 1374.95 131.508L1281.01 204.823L1280.73 204.589L1280.58 205.164L1279.05 206.356L1280.35 206.08L1262.93 274.049C1262.2 273.963 1261.46 274.07 1260.78 274.432C1259.35 275.156 1258.61 276.647 1258.76 278.138L1204.57 290.791C1204.52 290.663 1204.46 290.535 1204.4 290.407C1203.46 288.554 1201.2 287.83 1199.35 288.767C1197.67 289.619 1196.92 291.579 1197.5 293.304L1046.83 280.417C1046.81 279.906 1046.68 279.374 1046.43 278.884C1045.49 277.031 1043.23 276.306 1041.38 277.244C1039.53 278.181 1038.8 280.439 1039.74 282.292C1040.1 282.995 1040.66 283.527 1041.29 283.889L996.367 400.742C995.536 400.529 994.621 400.614 993.79 401.04C993.024 401.424 992.47 402.042 992.108 402.766L941.794 386.173C941.943 385.385 941.857 384.533 941.453 383.766C940.516 381.913 938.259 381.189 936.407 382.126C935.108 382.786 934.362 384.085 934.362 385.427L886.475 391.2C886.411 390.944 886.305 390.667 886.177 390.412C885.24 388.558 882.983 387.834 881.131 388.771C879.278 389.709 878.555 391.967 879.491 393.82C879.577 393.969 879.64 394.097 879.726 394.224L814.719 451.756C813.612 450.776 811.972 450.521 810.567 451.245C808.715 452.182 807.991 454.44 808.928 456.293C809.545 457.486 810.716 458.21 811.972 458.317L814.315 508.053C813.91 508.117 813.484 508.223 813.101 508.436C811.398 509.309 810.652 511.29 811.27 513.037L783.015 524.433C781.843 524.283 780.715 524.688 779.906 525.476L730.124 486.497C730.315 486.177 730.464 485.815 730.55 485.432C730.997 483.43 729.74 481.427 727.739 480.959C726.248 480.618 724.779 481.214 723.928 482.365L714.197 477.977L660.177 453.609C660.582 451.628 659.326 449.69 657.346 449.243C655.344 448.796 653.343 450.052 652.874 452.054C652.746 452.63 652.768 453.226 652.895 453.758L597.024 474.121C596.534 473.206 595.661 472.503 594.575 472.247L597.705 437.996L515.303 430.115C515.239 428.454 514.089 426.984 512.407 426.601C511.512 426.388 510.639 426.537 509.894 426.899L483.278 387.856C483.832 387.366 484.258 386.684 484.428 385.896C484.875 383.894 483.619 381.892 481.618 381.423C480.681 381.21 479.744 381.38 478.977 381.806L432.964 319.844C433.475 319.354 433.837 318.715 434.007 317.991C434.454 315.989 433.198 313.986 431.197 313.518C429.195 313.071 427.194 314.327 426.725 316.329C426.534 317.118 426.64 317.906 426.917 318.587L382.756 344.275C382.245 343.615 381.5 343.104 380.627 342.912C378.859 342.507 377.113 343.423 376.39 345.021L259.557 309.386L259.408 309.833C259.685 308.576 259.301 307.319 258.471 306.446L288.813 269.171C289.154 269.384 289.537 269.554 289.942 269.639C291.943 270.087 293.945 268.83 294.413 266.828C294.86 264.826 293.604 262.823 291.602 262.355C290.41 262.078 289.239 262.419 288.387 263.143L212.053 192.81C212.287 192.447 212.479 192.043 212.585 191.574C212.926 190.083 212.309 188.613 211.159 187.74L233.474 149.868C233.623 149.932 233.772 149.975 233.921 149.996C235.922 150.443 237.924 149.187 238.392 147.184C238.839 145.182 237.583 143.18 235.581 142.711C234.517 142.477 233.431 142.711 232.601 143.308L142.959 56.2965C143.257 55.8918 143.491 55.4232 143.619 54.8907C144.066 52.8884 142.81 50.8862 140.808 50.4176C138.807 49.9703 136.805 51.227 136.337 53.2292C135.975 54.8055 136.677 56.3817 137.976 57.2124L101.992 134.66C101.885 134.639 101.8 134.596 101.694 134.575C99.692 134.127 97.6905 135.384 97.2221 137.386C96.924 138.728 97.3711 140.07 98.308 140.944L44.8423 215.452C44.5442 215.303 44.2461 215.175 43.9054 215.09C41.9039 214.621 39.9024 215.899 39.4339 217.901C38.9868 219.903 40.2431 221.906 42.2446 222.374C42.7982 222.502 43.3305 222.502 43.8415 222.374L65.5813 283.932C64.6231 284.422 63.8779 285.316 63.6223 286.445C63.1752 288.447 64.4315 290.45 66.433 290.918C66.8588 291.004 67.2634 291.025 67.6679 290.982L78.3142 334.456C77.1857 334.882 76.3127 335.862 76.0146 337.118C75.8017 338.034 75.9508 338.972 76.3766 339.738L25.5937 376.758C25.104 376.247 24.4652 375.864 23.72 375.693C21.7185 375.246 19.717 376.503 19.2485 378.505C18.8653 380.188 19.6744 381.849 21.1436 382.637L4.55664 426.707H4.53535C2.53384 426.26 0.532337 427.517 0.0638995 429.519C-0.383245 431.521 0.873019 433.523 2.87452 433.992C3.96045 434.247 5.02508 433.992 5.87678 433.374L45.694 476.23C45.332 476.656 45.0552 477.189 44.9274 477.785C44.4803 479.787 45.7366 481.79 47.7381 482.258C49.7396 482.705 51.7411 481.449 52.2095 479.446C52.2308 479.361 52.2308 479.297 52.2521 479.212L170.852 482.94L170.916 483.302L171.384 482.961L173.322 483.025L172.151 482.407L228.768 441.49C229.258 442.022 229.918 442.405 230.663 442.576C232.217 442.917 233.75 442.256 234.581 441.021L284.107 465.857C284.065 465.985 284.022 466.113 284.001 466.262C283.554 468.285 284.81 470.266 286.811 470.735C288.643 471.161 290.453 470.138 291.113 468.434L398.236 574.296C397.916 574.701 397.682 575.191 397.576 575.723C397.129 577.726 398.385 579.728 400.386 580.197C402.388 580.644 404.389 579.387 404.858 577.385C405.028 576.618 404.943 575.851 404.687 575.17L513.471 514.358C513.982 515.039 514.728 515.572 515.643 515.763C516.474 515.955 517.304 515.849 518.028 515.508L545.964 560.281C545.346 560.792 544.878 561.495 544.686 562.347C544.239 564.349 545.495 566.351 547.497 566.82C548.902 567.139 550.286 566.607 551.159 565.585L591.488 591.677C591.381 591.933 591.275 592.189 591.211 592.465C590.764 594.489 592.02 596.47 594.021 596.939C596.023 597.386 598.024 596.129 598.493 594.127C598.535 593.978 598.557 593.829 598.557 593.68L684.941 591.081C685.175 592.551 686.261 593.786 687.794 594.127C689.795 594.574 691.797 593.317 692.265 591.315C692.564 589.995 692.138 588.695 691.243 587.822L721.117 548.246C721.479 548.481 721.862 548.651 722.288 548.736C724.141 549.162 725.972 548.118 726.61 546.393L776.073 562.262C776.052 562.347 776.031 562.411 776.009 562.496C775.562 564.52 776.818 566.5 778.82 566.969C780.14 567.267 781.439 566.82 782.312 565.925C783.015 565.308 783.44 564.434 783.526 563.518L846.978 561.623C847.041 562.006 847.148 562.368 847.34 562.73C848.276 564.583 850.533 565.308 852.386 564.37C853.749 563.689 854.494 562.262 854.43 560.835L864.757 557.959L922.077 542.069C923.035 543.858 925.249 544.54 927.08 543.624C928.933 542.687 929.657 540.429 928.72 538.576C928.443 538.043 928.06 537.596 927.613 537.255L957.657 485.645C958.615 486.028 959.743 486.028 960.744 485.517L980.312 513.974L1048.98 467.114C1050.09 468.349 1051.92 468.754 1053.47 467.966C1054.28 467.561 1054.88 466.879 1055.22 466.113L1100.85 479.148C1100.74 479.894 1100.85 480.682 1101.21 481.406C1102.15 483.259 1104.41 483.983 1106.26 483.046C1107.11 482.599 1107.73 481.875 1108.05 481.044L1183.34 499.32C1183.25 500.022 1183.38 500.747 1183.72 501.428C1184.66 503.281 1186.91 504.006 1188.77 503.068C1190.62 502.131 1191.34 499.873 1190.41 498.02C1190.04 497.296 1189.47 496.742 1188.79 496.401L1206.38 448.199C1207.21 448.391 1208.08 448.284 1208.89 447.88C1210.51 447.049 1211.27 445.217 1210.8 443.534L1323.87 395.971L1323.68 395.524C1324.27 396.674 1325.38 397.398 1326.57 397.547L1327.08 445.835C1326.68 445.899 1326.3 446.005 1325.91 446.197C1324.06 447.134 1323.34 449.392 1324.27 451.245C1325.21 453.098 1327.47 453.822 1329.32 452.885C1330.41 452.331 1331.11 451.33 1331.3 450.201L1435.51 455.356C1435.55 455.803 1435.68 456.229 1435.89 456.634C1436.59 457.997 1438 458.764 1439.44 458.679L1446.53 502.259C1446.39 502.323 1446.26 502.366 1446.11 502.451C1444.26 503.388 1443.53 505.646 1444.47 507.499C1445.41 509.352 1447.66 510.076 1449.52 509.139C1450.5 508.628 1451.18 507.754 1451.43 506.775L1576.51 516.338C1576.53 516.85 1576.65 517.361 1576.91 517.851C1577.85 519.704 1580.1 520.428 1581.96 519.491C1583.79 518.426 1584.53 516.168 1583.6 514.315ZM1547.95 330.153C1548.31 330.302 1548.72 330.388 1549.1 330.409L1555.68 422.277C1555.36 422.341 1555.04 422.447 1554.72 422.596C1554.21 422.852 1553.79 423.235 1553.45 423.661L1510.09 398.548L1547.95 330.153ZM1441.21 259.884C1441.49 260.416 1441.87 260.842 1442.3 261.183L1424.07 293.517L1438.72 253.749L1441.42 256.092C1440.72 257.2 1440.59 258.627 1441.21 259.884ZM1454.01 334.136C1453.82 334.243 1453.65 334.349 1453.48 334.477L1424.37 301.441C1424.99 300.738 1425.31 299.822 1425.28 298.906L1449.24 295.349L1454.6 333.902C1454.39 333.966 1454.2 334.051 1454.01 334.136ZM1457.22 340.91L1479.07 373.691L1454.05 340.846C1455.01 341.315 1456.16 341.379 1457.22 340.91ZM1452.03 338.205L1430.12 309.45L1452.77 335.159C1452.09 335.99 1451.82 337.118 1452.03 338.205ZM1425.16 297.969C1425.09 297.734 1425.01 297.5 1424.9 297.287C1424.62 296.755 1424.26 296.329 1423.82 295.988L1443.17 261.652C1443.62 261.844 1444.11 261.929 1444.62 261.929L1449.13 294.412L1425.16 297.969ZM1422.39 295.327C1421.71 295.178 1420.96 295.2 1420.26 295.455L1365.62 191.063L1365.69 190.722C1365.77 190.658 1365.84 190.594 1365.9 190.552L1437.95 253.089L1422.39 295.327ZM1419.41 295.924C1419.13 296.116 1418.88 296.35 1418.66 296.605L1351.72 254.41L1363.17 191.51C1363.66 191.553 1364.15 191.489 1364.64 191.319L1419.41 295.924ZM1345.63 304.039C1346.01 303.507 1346.25 302.868 1346.31 302.207L1417.83 299.609C1417.9 299.971 1418 300.333 1418.19 300.695C1418.24 300.78 1418.28 300.844 1418.32 300.908L1377.01 333.412L1345.63 304.039ZM1402.97 359.015C1402.71 359.377 1402.52 359.782 1402.4 360.208L1355.96 353.605C1355.96 353.03 1355.83 352.412 1355.55 351.858C1355.51 351.773 1355.47 351.709 1355.42 351.645L1376.97 334.69L1402.97 359.015ZM1266.06 276.541L1328.81 244.612C1329.23 245.229 1329.83 245.698 1330.49 245.954L1317.82 294.071L1266.23 278.415C1266.34 277.797 1266.27 277.158 1266.06 276.541ZM1331.43 246.188C1331.64 246.209 1331.87 246.23 1332.09 246.209L1341.46 298.267C1341.26 298.331 1341.07 298.395 1340.88 298.501C1340.01 298.948 1339.39 299.673 1339.07 300.503L1318.72 294.326L1331.43 246.188ZM1333.02 246.06C1333.22 245.996 1333.41 245.932 1333.6 245.826C1334.07 245.591 1334.47 245.251 1334.79 244.867L1350.65 254.857L1342.78 298.096C1342.67 298.096 1342.54 298.096 1342.44 298.096L1333.02 246.06ZM1351.53 255.432L1418.15 297.415C1417.98 297.798 1417.85 298.224 1417.81 298.65L1346.29 301.249C1346.23 300.887 1346.12 300.525 1345.93 300.163C1345.46 299.225 1344.65 298.586 1343.71 298.288L1351.53 255.432ZM1350.85 253.835L1335.3 244.037C1335.77 243.035 1335.79 241.821 1335.24 240.756C1334.98 240.245 1334.6 239.798 1334.17 239.478L1341.95 225.974L1361.94 191.169C1362.02 191.212 1362.13 191.233 1362.22 191.276L1350.85 253.835ZM1333.34 239.01C1332.36 238.605 1331.24 238.605 1330.21 239.137C1328.66 239.926 1327.89 241.672 1328.25 243.312L1314.48 232.087L1360.96 190.594C1361 190.637 1361.07 190.68 1361.11 190.722L1333.34 239.01ZM1327.68 244.079L1265.63 275.667L1313.75 232.726L1327.68 244.079ZM1265.95 279.331L1317.57 294.987L1302.58 351.858C1302 351.794 1301.4 351.837 1300.85 352.05L1264.65 280.886C1265.23 280.481 1265.68 279.949 1265.95 279.331ZM1318.48 295.264L1338.86 301.441C1338.77 302.144 1338.9 302.868 1339.24 303.549C1339.43 303.911 1339.69 304.252 1339.97 304.529L1303.96 352.306C1303.81 352.22 1303.68 352.156 1303.51 352.093L1318.48 295.264ZM1340.92 305.211C1341.12 305.296 1341.31 305.381 1341.52 305.445L1333.45 354.095L1305.83 354.989C1305.77 354.606 1305.66 354.244 1305.47 353.882C1305.28 353.52 1305.05 353.179 1304.77 352.902L1340.92 305.211ZM1334.24 355.032L1348.59 354.585C1348.65 354.819 1348.74 355.053 1348.87 355.266C1349.12 355.777 1349.48 356.182 1349.91 356.523L1328.79 390.39C1328.66 390.326 1328.53 390.284 1328.4 390.22L1334.24 355.032ZM1348.46 353.605L1334.41 354.052L1342.46 305.594C1342.71 305.594 1342.97 305.594 1343.22 305.552L1350.89 350.048C1350.76 350.09 1350.63 350.154 1350.51 350.218C1349.19 350.9 1348.44 352.22 1348.46 353.605ZM1344.16 305.253C1344.2 305.232 1344.25 305.211 1344.29 305.189C1344.54 305.062 1344.76 304.913 1344.97 304.742L1376.25 334.009L1354.81 350.878C1354.02 350.112 1352.91 349.728 1351.8 349.835L1344.16 305.253ZM1355.81 354.563L1402.27 361.145C1402.27 361.742 1402.4 362.338 1402.67 362.892C1402.82 363.169 1402.99 363.424 1403.18 363.659L1382.02 387.493L1355 356.054C1355.38 355.628 1355.66 355.117 1355.81 354.563ZM1377.74 334.073L1418.94 301.654C1419.3 302.016 1419.73 302.271 1420.2 302.463L1406.46 357.481C1405.76 357.396 1405.01 357.524 1404.33 357.865C1404.08 357.993 1403.86 358.142 1403.65 358.312L1377.74 334.073ZM1421.11 302.697C1421.81 302.783 1422.56 302.655 1423.24 302.314C1423.3 302.293 1423.35 302.25 1423.41 302.229L1485.33 383.51C1484.99 383.83 1484.71 384.192 1484.5 384.618L1409.68 361.827C1409.81 361.06 1409.7 360.25 1409.32 359.505C1408.89 358.653 1408.17 358.035 1407.34 357.716L1421.11 302.697ZM1409.42 362.743L1484.2 385.534C1484.03 386.343 1484.14 387.195 1484.52 387.983C1484.73 388.409 1485.01 388.75 1485.33 389.048L1468.7 412.606L1409.17 363.211C1409.27 363.062 1409.34 362.892 1409.42 362.743ZM1494.81 431.01C1494.74 430.712 1494.64 430.413 1494.49 430.115C1494.21 429.583 1493.83 429.135 1493.36 428.795L1509.63 399.4L1552.98 424.492C1552.81 424.897 1552.7 425.344 1552.7 425.791L1494.81 431.01ZM1550.21 427.005L1444.53 453.183L1487.95 433.779C1488.95 435.44 1491.08 436.058 1492.85 435.163C1494.1 434.524 1494.85 433.289 1494.89 431.968L1550.21 427.005ZM1492.51 428.347C1492.14 428.198 1491.76 428.113 1491.36 428.092L1488.69 389.922C1488.99 389.858 1489.27 389.751 1489.55 389.624C1490.06 389.368 1490.48 388.985 1490.82 388.558L1508.77 398.953L1492.51 428.347ZM1490.4 428.156C1490.08 428.219 1489.76 428.326 1489.44 428.475C1489.12 428.646 1488.84 428.837 1488.59 429.072L1469.45 413.203L1486.12 389.581C1486.61 389.836 1487.16 389.986 1487.74 390.007L1490.4 428.156ZM1468.89 413.991L1487.97 429.817C1487.4 430.712 1487.23 431.841 1487.54 432.884L1442.53 452.992C1442.36 452.693 1442.15 452.395 1441.91 452.161L1468.89 413.991ZM1443 454.568L1552.93 427.325C1552.98 427.431 1553.02 427.559 1553.08 427.666C1553.1 427.708 1553.13 427.73 1553.15 427.772L1488.1 475.57L1442.83 455.952C1442.98 455.505 1443.02 455.036 1443 454.568ZM1546.99 329.621C1547.04 329.642 1547.08 329.685 1547.1 329.706L1509.24 398.101L1491.31 387.728C1491.72 386.748 1491.72 385.598 1491.21 384.575C1491.12 384.384 1490.99 384.213 1490.87 384.043L1546.99 329.621ZM1546.31 328.918L1490.18 383.34C1489.63 382.893 1488.97 382.637 1488.29 382.552L1487.69 334.286L1545.67 327.597C1545.74 327.874 1545.84 328.13 1545.97 328.385C1546.08 328.577 1546.21 328.747 1546.31 328.918ZM1488.38 292.665C1488.86 292.409 1489.29 292.047 1489.61 291.643L1545.89 325.19C1545.69 325.638 1545.59 326.128 1545.59 326.617L1487.71 333.306L1487.23 293.027C1487.61 292.963 1487.99 292.857 1488.38 292.665ZM1487.33 382.573C1486.99 382.616 1486.65 382.722 1486.33 382.871L1458.03 340.441C1458.93 339.738 1459.42 338.673 1459.44 337.566L1486.74 334.413L1487.33 382.573ZM1485.07 292.708C1485.44 292.878 1485.84 293.006 1486.25 293.048L1486.74 333.434L1459.33 336.586C1459.27 336.309 1459.16 336.053 1459.03 335.798C1458.8 335.329 1458.48 334.946 1458.12 334.626L1485.07 292.708ZM1484.27 292.196L1457.31 334.115C1456.76 333.86 1456.16 333.732 1455.56 333.753L1450.2 295.221L1483.07 290.343C1483.14 290.578 1483.22 290.791 1483.33 291.025C1483.56 291.472 1483.88 291.877 1484.27 292.196ZM1446.26 261.524C1446.64 261.332 1446.98 261.077 1447.26 260.779L1483.39 287.51C1483.07 288.085 1482.92 288.746 1482.92 289.406L1450.05 294.284L1445.53 261.822C1445.79 261.737 1446.02 261.631 1446.26 261.524ZM1445 254.452C1444.3 254.367 1443.55 254.495 1442.87 254.836C1442.57 254.985 1442.32 255.177 1442.08 255.39L1439.1 252.791L1459.14 198.454L1445 254.452ZM1438.32 252.109L1366.54 189.828C1366.84 189.38 1367.03 188.848 1367.11 188.315L1458.08 190.19C1458.12 190.637 1458.25 191.063 1458.46 191.489C1458.82 192.213 1459.4 192.767 1460.06 193.108L1438.32 252.109ZM1366.82 186.206L1414.83 156.557L1458.48 187.974C1458.27 188.358 1458.14 188.762 1458.08 189.188L1367.11 187.314C1367.09 186.973 1366.99 186.59 1366.82 186.206ZM1444.62 141.753L1460.12 186.419H1460.1C1459.69 186.632 1459.35 186.888 1459.08 187.208L1415.75 156.024L1440.98 140.454C1441.83 141.54 1443.26 142.051 1444.62 141.753ZM1381.87 130.592L1440.13 138.089C1440.13 138.6 1440.23 139.133 1440.47 139.623L1414.89 155.406L1381.55 131.422C1381.68 131.167 1381.78 130.869 1381.87 130.592ZM1379.95 132.977C1380.36 132.764 1380.7 132.509 1381 132.189L1414 155.96L1366.9 185.035L1377.95 133.382C1378.61 133.425 1379.31 133.297 1379.95 132.977ZM1375.61 132.296C1376.01 132.679 1376.48 132.977 1376.99 133.169L1365.92 184.971C1364.79 183.97 1363.13 183.672 1361.71 184.417C1360.3 185.12 1359.55 186.59 1359.66 188.06L1283.03 204.546L1375.61 132.296ZM1359.87 188.997C1359.94 189.146 1359.98 189.295 1360.07 189.444C1360.15 189.593 1360.21 189.721 1360.32 189.849L1313.71 231.448L1282.16 205.717L1359.87 188.997ZM1281.37 206.314L1312.99 232.108L1264.99 274.943C1264.67 274.666 1264.31 274.453 1263.93 274.304L1281.37 206.314ZM1261.27 281.312C1262.06 281.589 1262.95 281.61 1263.78 281.312L1299.98 352.476C1299.68 352.668 1299.42 352.923 1299.19 353.179L1242.68 317.693L1261.27 281.312ZM1298.38 356.033L1252.28 367.833L1238.74 371.305L1214.38 377.546C1214.38 377.546 1214.38 377.525 1214.36 377.525C1214.02 376.865 1213.51 376.353 1212.91 375.991L1242.23 318.566L1298.66 354.01C1298.4 354.627 1298.3 355.33 1298.38 356.033ZM1204.84 291.77L1259.03 279.118C1259.07 279.246 1259.14 279.374 1259.2 279.501C1259.5 280.077 1259.93 280.545 1260.42 280.886L1241.89 317.181L1204.52 293.709C1204.8 293.091 1204.91 292.431 1204.84 291.77ZM1202.82 295.477C1203.29 295.242 1203.69 294.901 1204.01 294.518L1241.44 318.033L1212.06 375.608C1211.72 375.523 1211.36 375.459 1211 375.48L1209.36 360.911L1202.01 295.796C1202.29 295.711 1202.56 295.604 1202.82 295.477ZM1201.05 295.881L1208.31 360.336L1210.04 375.587C1209.8 375.651 1209.57 375.736 1209.34 375.864C1208.7 376.183 1208.19 376.673 1207.84 377.248L1177.06 365.639L1200.39 295.796C1200.61 295.86 1200.84 295.881 1201.05 295.881ZM1071.1 347.811C1071.3 347.811 1071.47 347.811 1071.66 347.79L1080.62 384.171L1086.82 409.284C1086.71 409.326 1086.58 409.369 1086.48 409.433C1085.43 409.965 1084.75 410.902 1084.52 411.967L1061.01 409.837L1071.1 347.811ZM1060.03 409.731L999.305 404.257C999.284 403.724 999.156 403.192 998.9 402.702C998.858 402.617 998.815 402.531 998.773 402.468L1068.61 346.767C1069.06 347.193 1069.57 347.492 1070.15 347.662L1060.03 409.731ZM1081.43 383.446L1072.57 347.556C1072.68 347.513 1072.81 347.47 1072.91 347.407C1073.4 347.151 1073.81 346.81 1074.13 346.427L1123.36 376.716L1090.44 409.795C1089.67 409.22 1088.71 408.943 1087.73 409.049L1081.43 383.446ZM1142.35 354.457C1142.35 355.011 1142.48 355.586 1142.75 356.118C1142.88 356.353 1143.01 356.566 1143.18 356.779L1124.06 375.991L1074.64 345.596C1074.72 345.426 1074.79 345.234 1074.83 345.042L1142.35 354.457ZM1074.85 343.125L1110.03 329.173L1142.77 352.646C1142.63 352.923 1142.52 353.2 1142.46 353.498L1074.98 344.084C1074.98 343.764 1074.94 343.445 1074.85 343.125ZM1143.86 357.439C1144.75 358.078 1145.9 358.334 1146.99 358.057L1162.9 398.548C1162.68 398.868 1162.51 399.209 1162.41 399.571L1124.91 376.503L1143.86 357.439ZM1124.21 377.227L1162.24 400.614C1162.24 400.849 1162.26 401.104 1162.3 401.339L1091.8 411.733C1091.74 411.499 1091.65 411.286 1091.54 411.052C1091.44 410.839 1091.31 410.647 1091.16 410.455L1124.21 377.227ZM1091.93 412.692L1138.84 405.769L1162.6 402.255C1162.62 402.297 1162.64 402.34 1162.66 402.382C1162.85 402.744 1163.07 403.043 1163.34 403.32L1128.79 447.752L1091.31 414.843C1091.72 414.204 1091.93 413.458 1091.93 412.692ZM1147.91 357.694C1148.54 357.332 1149.06 356.821 1149.38 356.225L1175.86 366.215L1165.58 396.951C1165.13 396.993 1164.71 397.121 1164.28 397.334C1164.05 397.441 1163.83 397.59 1163.62 397.76L1147.91 357.694ZM1176.76 366.555L1207.46 378.143C1207.27 378.76 1207.25 379.442 1207.42 380.081L1169.18 398.697C1168.58 397.76 1167.64 397.142 1166.6 396.972L1176.76 366.555ZM1169.56 399.592L1207.76 380.997C1208.23 381.849 1208.99 382.467 1209.85 382.765L1199.37 435.398L1168.88 403.064C1169.67 402.105 1169.92 400.806 1169.56 399.592ZM1199.03 295.242C1199.18 295.349 1199.33 295.434 1199.5 295.498L1176.16 365.299L1149.74 355.33C1149.95 354.478 1149.87 353.562 1149.44 352.71C1149.31 352.455 1149.14 352.22 1148.97 352.007L1199.03 295.242ZM1198.03 294.262C1198.11 294.39 1198.2 294.497 1198.31 294.603L1148.25 351.368C1147.14 350.602 1145.67 350.431 1144.39 351.091C1143.99 351.304 1143.65 351.56 1143.35 351.88L1111.11 328.769L1198.03 294.262ZM1046.83 281.418L1195.71 294.156L1110.2 328.087L1046.49 282.398C1046.64 282.079 1046.74 281.759 1046.83 281.418ZM1045.89 283.165L1109.11 328.492L1074.51 342.231C1073.66 340.676 1071.83 339.973 1070.17 340.463L1045.11 283.825C1045.4 283.634 1045.68 283.421 1045.89 283.165ZM1042.27 284.251C1042.91 284.4 1043.57 284.4 1044.21 284.209L1069.27 340.846C1067.61 341.847 1066.97 343.977 1067.89 345.745C1067.93 345.83 1067.97 345.915 1068.02 345.979L998.176 401.679C997.921 401.445 997.644 401.232 997.367 401.083L1042.27 284.251ZM992.236 406.089C992.555 406.706 993.024 407.196 993.556 407.537L984.102 427.687L942.368 405.173C942.475 404.917 942.539 404.64 942.581 404.363L991.831 404.853C991.916 405.258 992.023 405.684 992.236 406.089ZM939.92 388.814C940.686 388.431 941.24 387.813 941.602 387.089L991.916 403.682C991.895 403.746 991.895 403.809 991.874 403.873L942.624 403.383C942.581 402.957 942.454 402.531 942.241 402.127C941.623 400.934 940.473 400.21 939.238 400.103L938.834 389.176C939.196 389.112 939.558 388.984 939.92 388.814ZM935.938 388.452C936.492 388.878 937.173 389.134 937.854 389.197L938.259 400.146C937.897 400.21 937.535 400.316 937.173 400.508C936.279 400.955 935.64 401.722 935.342 402.617L924.206 400.295L935.938 388.452ZM935.555 405.535C935.597 405.599 935.64 405.663 935.661 405.726L862.713 462.3L923.397 401.083L935.15 403.533C935.108 404.214 935.235 404.896 935.555 405.535ZM886.752 444.876L936.257 406.493C936.747 406.983 937.386 407.324 938.046 407.473L930.956 477.551L860.903 467.284C860.903 466.688 860.775 466.091 860.498 465.516C860.456 465.452 860.413 465.388 860.392 465.324L886.752 444.876ZM886.71 392.158L934.597 386.386C934.661 386.641 934.767 386.918 934.895 387.174C935.001 387.387 935.129 387.6 935.278 387.77L923.12 400.039L886.71 392.414C886.688 392.329 886.71 392.243 886.71 392.158ZM882.196 395.801C883.005 395.971 883.856 395.864 884.644 395.481C885.539 395.034 886.177 394.246 886.475 393.372L922.268 400.87L859.412 464.259C859.221 464.11 859.008 463.983 858.795 463.876L882.196 395.801ZM857.901 463.557C857.092 463.386 856.24 463.471 855.452 463.876C854.643 464.302 854.047 464.962 853.706 465.75L843.528 462.875L880.812 396.929L857.901 463.557ZM818.233 510.055C818.169 509.948 818.105 509.821 818.041 509.714L854.962 470.266C855.388 470.586 855.878 470.799 856.41 470.905L852.833 521.451L818.573 512.568C818.744 511.738 818.658 510.864 818.233 510.055ZM853.812 468.924C853.94 469.18 854.089 469.393 854.26 469.606L817.509 508.862L843.017 463.727L853.429 466.666C853.344 467.412 853.451 468.2 853.812 468.924ZM880.492 394.949C880.556 395.012 880.641 395.055 880.705 395.119L842.57 462.598L816.082 455.122C816.188 454.376 816.082 453.588 815.72 452.885C815.635 452.736 815.571 452.608 815.486 452.48L880.492 394.949ZM813.037 458.274C813.399 458.21 813.74 458.104 814.08 457.933C814.89 457.507 815.486 456.847 815.826 456.059L842.08 463.471L816.657 508.457C816.274 508.244 815.848 508.117 815.401 508.053L813.037 458.274ZM811.568 513.463C811.781 513.889 812.079 514.251 812.42 514.571L792.745 543.347L782.014 540.173L782.802 531.845C784.462 531.781 785.932 530.631 786.315 528.948C786.677 527.308 785.91 525.711 784.548 524.901L811.781 513.91L811.568 513.463ZM781.034 539.897L763.234 534.657C763.255 534.486 763.276 534.295 763.276 534.124L779.203 529.608C779.65 530.674 780.587 531.504 781.801 531.781L781.034 539.897ZM779.012 527.287C778.905 527.755 778.905 528.224 778.969 528.671L766.257 532.292L779.075 527.116C779.054 527.159 779.033 527.223 779.012 527.287ZM762.361 536.488C762.616 536.212 762.808 535.892 762.978 535.551L780.949 540.855L779.182 559.365C778.82 559.429 778.458 559.535 778.117 559.706L767.492 544.157L762.361 536.488ZM780.161 559.344L781.886 541.153L792.149 544.178L781.524 559.727C781.098 559.514 780.63 559.386 780.161 559.344ZM729.655 487.221L779.182 526.009L763 532.548C762.957 532.484 762.936 532.399 762.914 532.335C762.063 530.652 760.104 529.907 758.379 530.503L729.506 487.37C729.549 487.328 729.591 487.264 729.655 487.221ZM659.986 454.483L674.933 461.214L723.566 483.153C723.48 483.344 723.417 483.515 723.374 483.728C723.097 484.942 723.459 486.156 724.226 487.029L700.335 511.929L659.539 455.143C659.73 454.951 659.879 454.738 659.986 454.483ZM658.879 455.825L699.697 512.654L664.649 549.205C664.244 548.907 663.776 548.694 663.265 548.566C663.095 548.523 662.903 548.502 662.733 548.481L657.92 456.357C658.24 456.229 658.581 456.059 658.879 455.825ZM625.534 550.44L563.211 548.289C563.147 547.586 562.892 546.947 562.466 546.393L612.503 497.275L659.581 549.78C659.198 550.227 658.9 550.76 658.772 551.399C658.751 551.463 658.751 551.548 658.73 551.612L625.534 550.44ZM655.025 552.421L569.599 560.6L562.168 551.228C562.636 550.76 562.977 550.142 563.126 549.46C563.147 549.396 563.147 549.311 563.168 549.247L655.025 552.421ZM661.604 555.85C662.498 556.042 663.371 555.914 664.138 555.531L670.1 564.221L599.579 590.953L659.517 554.551C660.028 555.169 660.731 555.659 661.604 555.85ZM664.904 554.977C665.458 554.487 665.884 553.806 666.054 553.017C666.118 552.741 666.139 552.485 666.139 552.208L719.264 545.562L670.994 563.859L664.904 554.977ZM654.599 455.952C654.961 456.187 655.365 456.378 655.834 456.485C656.217 456.57 656.579 456.591 656.941 456.57L661.753 548.544C661.242 548.651 660.752 548.843 660.327 549.141L613.206 496.593L654.599 455.952ZM597.513 476.699C597.641 476.124 597.62 475.549 597.492 474.995L653.364 454.632C653.492 454.887 653.662 455.122 653.854 455.335L612.546 495.89L596.747 478.275C597.109 477.806 597.386 477.295 597.513 476.699ZM596.044 478.914L611.865 496.551L561.784 545.711C561.699 545.648 561.593 545.562 561.486 545.498L572.282 522.622L592.68 479.404C592.786 479.447 592.893 479.468 593.021 479.489C594.128 479.766 595.214 479.51 596.044 478.914ZM520.008 510.95L540.066 501.556L557.675 545.392C557.419 545.52 557.206 545.69 556.993 545.882L519.604 514.123C519.838 513.761 520.008 513.356 520.115 512.93C520.242 512.249 520.2 511.567 520.008 510.95ZM540.939 501.151L590.7 477.828C590.977 478.296 591.381 478.701 591.849 478.999L571.323 522.473L560.634 545.094C560.528 545.051 560.422 545.03 560.315 545.009C559.719 544.881 559.123 544.902 558.548 545.03L540.939 501.151ZM515.345 431.074L596.789 438.87L593.745 472.162C592.637 472.204 591.594 472.737 590.934 473.61L515.196 431.564C515.26 431.393 515.303 431.223 515.345 431.074ZM514.749 432.394L590.444 474.42C590.359 474.611 590.295 474.824 590.253 475.037C590.103 475.698 590.146 476.337 590.316 476.933L540.577 500.236L513.706 433.353C514.11 433.119 514.472 432.799 514.749 432.394ZM479.723 388.601C479.85 388.644 479.957 388.686 480.085 388.708C480.979 388.899 481.852 388.771 482.597 388.388L509.213 427.431C508.659 427.921 508.233 428.603 508.063 429.391C507.957 429.881 507.935 430.371 508.02 430.839L454.342 445.26C454.065 444.578 453.575 443.982 452.936 443.577L479.723 388.601ZM380.84 408.794L353.67 425.6L337.531 397.164C338.063 396.802 338.51 396.312 338.808 395.694L379.945 405.812C379.818 406.941 380.158 408.006 380.84 408.794ZM381.606 409.454C381.968 409.71 382.394 409.88 382.841 409.986C383.097 410.05 383.352 410.072 383.608 410.072L370.13 450.755C369.406 450.627 368.703 450.691 368.064 450.947L354.16 426.43L381.606 409.454ZM387.376 406.025L442.12 394.054L449.849 443.13C449.125 443.343 448.465 443.769 447.997 444.365L407.69 419.785L387.27 407.324C387.291 407.281 387.291 407.239 387.313 407.196C387.376 406.791 387.398 406.408 387.376 406.025ZM447.486 445.174C447.379 445.387 447.315 445.622 447.251 445.856C447.187 446.09 447.166 446.325 447.166 446.559L400.684 450.926L386.482 408.772C386.631 408.602 386.78 408.389 386.908 408.197L447.486 445.174ZM399.705 451.032L373.047 453.545C372.791 452.48 372.046 451.565 371.045 451.075L384.651 409.944C385.013 409.837 385.375 409.688 385.694 409.475L399.705 451.032ZM371.62 457.465L417.293 507.669C417.08 507.904 416.909 508.18 416.76 508.479L380.946 496.742L370.832 457.912C371.109 457.784 371.364 457.635 371.62 457.465ZM372.323 456.804C372.685 456.378 372.94 455.846 373.068 455.271C373.132 455.015 373.153 454.76 373.153 454.504L400.024 451.969L418.485 506.732C418.315 506.817 418.144 506.924 417.995 507.03L372.323 456.804ZM401.004 451.884L447.251 447.539C447.464 448.476 448.039 449.307 448.848 449.839L437.393 473.461L421.317 506.562C421.21 506.519 421.083 506.498 420.955 506.455C420.423 506.327 419.89 506.349 419.401 506.434L401.004 451.884ZM438.457 473.397L449.7 450.223C449.806 450.265 449.934 450.308 450.062 450.329C451.19 450.585 452.319 450.308 453.171 449.648L469.822 466.262L422.595 507.286C422.467 507.158 422.318 507.052 422.169 506.966L438.457 473.397ZM453.852 448.966C454.171 448.54 454.406 448.071 454.533 447.517C454.64 447.07 454.64 446.623 454.597 446.197L508.297 431.777C508.404 432.032 508.553 432.245 508.702 432.48L470.545 465.644L453.852 448.966ZM478.85 388.175L452.085 443.151C451.957 443.108 451.851 443.066 451.723 443.044C451.403 442.981 451.105 442.959 450.786 442.959L443.057 393.841L477.402 386.322C477.678 387.089 478.19 387.728 478.85 388.175ZM432.304 320.419L478.317 382.381C477.806 382.871 477.444 383.51 477.274 384.235C477.189 384.618 477.167 385.023 477.189 385.385L442.908 392.882L431.537 320.739C431.814 320.653 432.07 320.547 432.304 320.419ZM429.664 320.803C429.983 320.866 430.281 320.888 430.601 320.888L441.971 393.095L387.164 405.087C386.908 404.363 386.44 403.746 385.801 403.298L429.195 320.653C429.344 320.717 429.515 320.76 429.664 320.803ZM427.918 319.865C428.045 319.993 428.194 320.121 428.344 320.227L384.949 402.872C384.8 402.808 384.651 402.766 384.481 402.723C384.289 402.681 384.097 402.659 383.906 402.638L381.117 357.758L427.918 319.865ZM383.565 347.407C383.735 346.618 383.65 345.83 383.374 345.127L425.341 320.717L381.031 356.587L380.627 350.239C382.053 349.963 383.224 348.897 383.565 347.407ZM382.948 402.681C381.734 402.915 380.712 403.746 380.222 404.917L339.149 394.821C339.34 393.862 339.149 392.904 338.659 392.137L380.201 358.504L382.948 402.681ZM377.752 349.6C378.136 349.877 378.604 350.09 379.094 350.218C379.285 350.261 379.477 350.282 379.669 350.303L380.116 357.332L340.575 389.347L377.752 349.6ZM259.408 310.323L376.24 345.958C376.049 347.066 376.368 348.131 377.05 348.94L337.658 391.029C337.275 390.752 336.807 390.539 336.317 390.412C335.146 390.156 333.975 390.476 333.102 391.178L258.663 311.516C258.982 311.196 259.238 310.791 259.408 310.323ZM332.442 391.903C332.356 392.03 332.271 392.18 332.186 392.329L274.994 365.15L254.276 355.309C254.319 355.202 254.34 355.096 254.362 354.989C254.809 352.987 253.574 351.006 251.594 350.538L255.66 312.772C256.47 312.815 257.257 312.602 257.917 312.176L332.442 391.903ZM331.973 395.332L272.971 420.615L252.339 357.524C252.956 357.226 253.489 356.757 253.872 356.182L296.67 376.524L309.233 382.488L331.845 393.223V393.245C331.675 393.969 331.739 394.693 331.973 395.332ZM162.633 440.808L100.629 442.959C100.629 442.895 100.608 442.831 100.586 442.768L152.604 423.491C153.094 424.428 153.967 425.152 155.074 425.387C156.778 425.77 158.46 424.939 159.226 423.448L162.633 440.808ZM160.163 423.193L227.767 438.55L163.591 440.765L160.163 423.193ZM213.991 326.106L225.02 334.712L188.014 366.683C187.822 366.513 187.609 366.364 187.396 366.236L209.86 327.278C209.988 327.32 210.116 327.363 210.265 327.406C211.712 327.725 213.139 327.193 213.991 326.106ZM210.839 278.649L287.344 267.041C287.429 267.296 287.514 267.552 287.663 267.786L213.82 321.207C213.331 320.675 212.671 320.291 211.925 320.121C211.798 320.1 211.649 320.078 211.521 320.057L210.839 278.649ZM214.736 322.975L252.467 310.515C252.509 310.642 252.573 310.77 252.637 310.877L225.744 334.094L214.481 325.297C214.587 325.084 214.651 324.85 214.715 324.594C214.864 324.04 214.864 323.486 214.736 322.975ZM121.709 266.38C120.58 266.359 119.515 266.849 118.792 267.68L95.9019 252.706L126.116 215.452C126.414 215.622 126.734 215.771 127.074 215.856L121.709 266.38ZM126.798 227.508L125.03 268.596C124.604 267.616 123.753 266.828 122.645 266.53L126.798 227.508ZM120.814 273.75C121.027 273.793 121.219 273.814 121.432 273.836L122.688 317.671C121.772 317.82 120.942 318.31 120.367 319.013L99.7772 306.467L120.218 273.537C120.388 273.644 120.601 273.708 120.814 273.75ZM122.39 273.772C123.455 273.559 124.37 272.877 124.902 271.919L123.369 307.895L122.39 273.772ZM128.267 216.005C128.735 215.984 129.182 215.878 129.587 215.686L172.342 280.801C171.746 281.312 171.32 281.994 171.129 282.803C170.916 283.74 171.086 284.656 171.491 285.423L125.946 318.779C125.456 318.268 124.817 317.884 124.072 317.714C124.008 317.693 123.944 317.693 123.88 317.671L128.267 216.005ZM205.24 191.106L160.27 203.161L155.734 178.879C156.735 178.56 157.587 177.814 158.012 176.792L205.282 190.083C205.218 190.424 205.197 190.765 205.24 191.106ZM159.333 203.396L131.524 210.851C131.312 210.34 130.992 209.871 130.566 209.488L152.817 178.602C153.115 178.751 153.435 178.879 153.754 178.964C154.095 179.05 154.457 179.071 154.797 179.05L159.333 203.396ZM131.716 213.109C131.823 212.661 131.823 212.214 131.78 211.767L159.503 204.333L173.62 280.077C173.45 280.14 173.301 280.204 173.152 280.268L130.417 215.175C131.056 214.685 131.524 213.961 131.716 213.109ZM179.156 322.4L126.989 320.973C126.947 320.462 126.776 319.993 126.542 319.567L172.087 286.211C172.577 286.722 173.215 287.106 173.961 287.276C174.237 287.34 174.493 287.361 174.77 287.361L179.156 322.4ZM175.707 287.255C176.133 287.148 176.537 286.956 176.899 286.701L208.263 321.335C207.88 321.782 207.603 322.315 207.454 322.933C207.433 323.018 207.433 323.103 207.411 323.188L180.114 322.443L175.707 287.255ZM125.903 323.998L182.307 367.578C182.116 367.897 181.988 368.259 181.882 368.643C181.647 369.665 181.86 370.666 182.371 371.476L149.112 399.315L124.839 324.722C125.243 324.551 125.605 324.296 125.903 323.998ZM183.01 372.221C183.095 372.306 183.18 372.37 183.266 372.456L157.31 418.294C157.118 418.208 156.927 418.144 156.735 418.102C156.224 417.995 155.713 417.974 155.223 418.081L149.453 400.316L183.01 372.221ZM182.904 366.832L126.478 323.252C126.67 322.933 126.819 322.57 126.904 322.187C126.925 322.102 126.925 322.017 126.947 321.953L179.284 323.38L184.607 365.874C183.947 366.023 183.372 366.364 182.904 366.832ZM180.242 323.401L207.39 324.147C207.497 325.254 208.093 326.234 209.008 326.852L186.502 365.874C186.459 365.852 186.417 365.852 186.353 365.831C186.076 365.767 185.821 365.746 185.544 365.746L180.242 323.401ZM208.966 320.696L177.623 286.062C178.006 285.615 178.283 285.082 178.432 284.464C178.496 284.166 178.517 283.847 178.517 283.548L209.903 278.798L210.584 320.078C209.988 320.164 209.455 320.377 208.966 320.696ZM178.368 282.611C178.091 281.631 177.431 280.822 176.516 280.332L208.071 194.386C208.093 194.386 208.114 194.407 208.135 194.407C208.263 194.428 208.412 194.45 208.54 194.471L209.903 277.819L178.368 282.611ZM175.6 279.991C175.26 279.906 174.898 279.885 174.578 279.906L160.44 204.077L205.452 192.021C205.751 192.873 206.368 193.576 207.177 194.024L175.6 279.991ZM205.9 188.592L104.398 139.389C104.44 139.282 104.462 139.154 104.504 139.026C104.504 138.984 104.525 138.941 104.525 138.899L184.735 143.755L206.9 187.612C206.517 187.889 206.176 188.209 205.9 188.592ZM203.855 188.677L158.268 175.855C158.545 173.938 157.31 172.106 155.415 171.68C154.052 171.36 152.689 171.85 151.816 172.83L106.293 141.391L203.855 188.677ZM152.029 178.048L129.757 208.955C129.502 208.827 129.204 208.721 128.906 208.636C128.352 208.508 127.777 208.529 127.245 208.636L120.112 189.252L151.284 177.111C151.497 177.452 151.731 177.772 152.029 178.048ZM126.35 208.976C125.414 209.466 124.69 210.34 124.434 211.447C124.391 211.66 124.37 211.873 124.349 212.065L46.7373 217.965C46.7373 217.922 46.716 217.88 46.716 217.837L119.239 189.593L126.35 208.976ZM46.7373 219.563C46.7799 219.35 46.8012 219.137 46.8225 218.924L124.434 213.023C124.583 213.705 124.902 214.344 125.392 214.834L95.1141 252.173L46.4605 220.351C46.567 220.116 46.6734 219.84 46.7373 219.563ZM95.2845 253.451L118.259 268.489C118.131 268.745 118.046 269 117.982 269.277C117.876 269.789 117.855 270.278 117.94 270.768L70.6276 285.678C70.4573 285.316 70.2231 284.976 69.9463 284.677L95.2845 253.451ZM70.9044 288.085C71.0109 287.574 71.0322 287.084 70.947 286.594L118.259 271.684C118.515 272.238 118.898 272.707 119.366 273.069L98.9468 305.978L70.6702 288.767C70.7554 288.554 70.8405 288.32 70.9044 288.085ZM99.2449 307.298L119.856 319.844C119.771 320.057 119.686 320.291 119.622 320.526C119.494 321.101 119.515 321.676 119.643 322.208L82.956 336.16C82.7218 335.734 82.4024 335.351 82.0192 335.031L99.2449 307.298ZM83.2967 338.759C83.4245 338.183 83.4032 337.608 83.2754 337.076L117.833 323.934L81.2952 345.021L80.7203 341.506C81.9766 341.123 82.9986 340.122 83.2967 338.759ZM120.303 323.635C120.729 324.189 121.325 324.637 122.028 324.892L97.3924 439.615L97.1156 439.828C97.0305 439.828 96.924 439.828 96.8388 439.828L81.5081 346.043L120.303 323.635ZM122.965 325.084C123.306 325.105 123.646 325.105 123.966 325.041L148.346 399.997L99.5217 440.851C99.1597 440.51 98.7552 440.233 98.2654 440.062L122.965 325.084ZM148.644 400.977L154.308 418.379C153.307 418.847 152.54 419.763 152.263 420.914C152.136 421.489 152.157 422.042 152.263 422.575L137.721 427.964L100.246 441.852C100.203 441.766 100.16 441.681 100.097 441.596L148.644 400.977ZM158.162 418.762L184.139 372.924C184.33 373.009 184.522 373.073 184.713 373.116C185.65 373.329 186.587 373.158 187.375 372.732L199.022 390.433L158.651 419.188C158.502 419.039 158.332 418.89 158.162 418.762ZM188.12 372.157C188.631 371.667 188.993 371.028 189.164 370.304C189.249 369.9 189.27 369.495 189.227 369.09L247.229 355.458C247.292 355.607 247.356 355.756 247.42 355.905L199.767 389.858L188.12 372.157ZM247.101 353.328C247.016 353.733 246.994 354.137 247.037 354.521L188.972 367.982C188.887 367.791 188.78 367.599 188.674 367.429L225.829 335.329L247.548 352.263C247.335 352.582 247.186 352.945 247.101 353.328ZM226.553 334.69L253.233 311.643C253.638 312.069 254.149 312.389 254.724 312.581L250.635 350.431C249.677 350.452 248.762 350.857 248.102 351.517L226.553 334.69ZM288.217 268.596L257.875 305.871C257.534 305.658 257.151 305.488 256.746 305.402C254.745 304.934 252.743 306.212 252.275 308.214C252.168 308.683 252.168 309.13 252.232 309.577L214.438 322.059C214.417 322.038 214.417 322.017 214.395 321.974L288.217 268.596C288.217 268.574 288.217 268.574 288.217 268.596ZM211.436 193.555L287.897 263.867C287.621 264.25 287.429 264.698 287.301 265.188C287.237 265.486 287.216 265.784 287.216 266.104L210.839 277.691L209.498 194.471C210.222 194.343 210.882 194.024 211.436 193.555ZM232.643 149.464L210.328 187.293C210.158 187.229 209.966 187.165 209.775 187.122C209.093 186.973 208.391 187.016 207.773 187.229L185.863 143.84L231.046 146.588C231.11 147.738 231.706 148.803 232.643 149.464ZM142.299 57.0207L231.898 143.989C231.536 144.437 231.259 144.969 231.11 145.566C231.11 145.587 231.11 145.608 231.089 145.63L185.331 142.861L142.086 57.1698C142.15 57.1272 142.235 57.0846 142.299 57.0207ZM138.849 57.6597C138.956 57.681 139.041 57.7236 139.147 57.7449C139.85 57.9153 140.574 57.8514 141.213 57.6171L184.245 142.797L104.589 137.961C104.504 136.769 103.865 135.704 102.865 135.065L138.849 57.6597ZM103.631 140.709L151.263 173.597C151.114 173.874 151.007 174.172 150.943 174.47C150.816 175.066 150.837 175.642 150.965 176.195L119.814 188.336L102.609 141.519C102.992 141.327 103.333 141.05 103.631 140.709ZM99.0958 141.497C99.3939 141.646 99.692 141.774 100.033 141.859C100.586 141.987 101.161 141.987 101.694 141.859L118.898 188.699L46.354 216.943C46.1624 216.602 45.9282 216.282 45.6301 216.005L99.0958 141.497ZM66.4756 283.612L44.7784 222.076C45.2255 221.863 45.6088 221.544 45.9282 221.181L94.4966 252.94L69.2223 284.081C68.8816 283.868 68.4984 283.719 68.0938 283.612C67.5402 283.485 66.9866 283.506 66.4756 283.612ZM68.6048 290.748C69.2223 290.514 69.7546 290.109 70.1592 289.598L98.4145 306.808L81.1888 334.541C80.9545 334.435 80.7203 334.349 80.4648 334.307C80.0389 334.222 79.6344 334.2 79.2298 334.243L68.6048 290.748ZM76.9515 340.505C77.4412 341.016 78.08 341.4 78.8253 341.57C79.1447 341.634 79.4641 341.677 79.7834 341.655L80.4222 345.532L30.491 374.373L76.9515 340.505ZM26.3603 377.887L80.5926 346.554L95.8807 439.977C95.3483 440.126 94.8799 440.403 94.4753 440.765L26.0409 381.38C26.2751 381.018 26.4667 380.592 26.5732 380.145C26.7435 379.357 26.6371 378.569 26.3603 377.887ZM25.4021 382.105L93.8366 441.49C93.6236 441.809 93.4533 442.171 93.3468 442.555L37.7092 434.652L24.2949 382.786C24.6995 382.616 25.0827 382.381 25.4021 382.105ZM5.49352 427.005L22.0805 382.935H22.1018C22.5276 383.042 22.9747 383.042 23.3793 382.999L36.6872 434.482L7.47373 430.328C7.47373 428.944 6.70719 427.666 5.49352 427.005ZM46.4179 475.549L6.60073 432.693C6.92012 432.288 7.17563 431.819 7.32468 431.308L36.9427 435.525L47.1845 475.144C46.9076 475.229 46.6521 475.378 46.4179 475.549ZM49.3989 474.931C48.9517 474.824 48.5259 474.824 48.1213 474.867L37.986 435.632L92.5377 443.385L51.1875 475.889C50.719 475.442 50.1015 475.101 49.3989 474.931ZM52.2947 478.211C52.2308 477.657 52.0605 477.125 51.7837 476.677L93.2404 444.088C93.4533 445.579 94.5605 446.857 96.1149 447.198C97.6266 447.539 99.1597 446.9 99.9901 445.707L169.17 481.917L52.2947 478.211ZM100.437 444.834C100.501 444.685 100.544 444.535 100.586 444.365C100.629 444.216 100.65 444.046 100.65 443.896L162.803 441.745L170.575 481.555L100.437 444.834ZM171.576 481.619L163.783 441.724L227.81 439.509C227.874 439.913 228.023 440.318 228.214 440.68L171.576 481.619ZM227.98 437.613L159.609 422.085C159.673 421.34 159.524 420.615 159.184 419.976L199.512 391.221L229.023 436.058C228.576 436.484 228.214 436.995 227.98 437.613ZM229.854 435.547L200.321 390.667L247.995 356.672C248.378 357.098 248.889 357.418 249.443 357.631L231.834 435.163C231.131 435.121 230.45 435.249 229.854 435.547ZM232.771 435.398L250.38 357.865C250.742 357.907 251.083 357.886 251.423 357.822L272.077 420.999L234.708 437.016C234.283 436.292 233.601 435.717 232.771 435.398ZM284.555 464.962L235.028 440.126C235.07 439.999 235.113 439.871 235.134 439.722C235.283 439.083 235.262 438.465 235.092 437.869L272.396 421.893L286.045 463.684C285.449 463.983 284.916 464.409 284.555 464.962ZM288.472 463.407C287.961 463.28 287.45 463.28 286.961 463.386L273.269 421.531L332.42 396.184C332.612 396.482 332.867 396.738 333.144 396.972L325.117 409.156L289.281 463.684C289.026 463.578 288.749 463.471 288.472 463.407ZM290.069 464.238L325.543 410.263L333.932 397.483C334.145 397.59 334.379 397.675 334.635 397.718C335.337 397.867 336.04 397.824 336.658 397.611L352.84 426.132L290.495 464.728C290.389 464.536 290.24 464.366 290.069 464.238ZM291.027 465.516L353.33 426.941L367.212 451.415C366.51 451.927 365.977 452.693 365.765 453.609C365.701 453.886 365.679 454.184 365.679 454.461L291.198 466.027C291.176 465.836 291.113 465.687 291.027 465.516ZM291.368 466.965L365.828 455.399C366.169 456.698 367.212 457.763 368.596 458.061C369.044 458.168 369.469 458.168 369.895 458.125L379.86 496.38L291.368 467.391C291.368 467.263 291.368 467.114 291.368 466.965ZM398.917 573.572L293.072 468.967L380.137 497.488L399.811 573.061C399.492 573.189 399.194 573.359 398.917 573.572ZM400.748 572.827L381.223 497.85L416.462 509.395C416.143 511.12 417.08 512.845 418.655 513.506L401.77 572.827C401.43 572.784 401.089 572.784 400.748 572.827ZM404.198 574.296C403.814 573.785 403.303 573.359 402.686 573.082L419.571 513.761C421.487 514.038 423.318 512.824 423.766 510.907C423.787 510.822 423.808 510.737 423.808 510.651L512.747 512.504C512.79 512.845 512.875 513.165 513.003 513.484L404.198 574.296ZM512.811 511.269C512.79 511.354 512.769 511.439 512.769 511.546L423.829 509.693C423.766 509.096 423.553 508.521 423.233 508.031L470.503 466.943L513.493 509.821C513.173 510.225 512.939 510.715 512.811 511.269ZM514.174 509.139L471.227 466.304L509.362 433.161C509.788 433.502 510.299 433.758 510.852 433.885C511.108 433.949 511.385 433.971 511.64 433.971L515.75 508.436C515.196 508.521 514.642 508.777 514.174 509.139ZM517.283 508.457C517.091 508.415 516.921 508.394 516.729 508.372L512.62 433.843C512.684 433.821 512.769 433.8 512.833 433.779L539.704 500.662L519.604 510.076C519.093 509.288 518.284 508.67 517.283 508.457ZM550.201 559.897C549.882 559.706 549.52 559.578 549.158 559.471C548.327 559.28 547.497 559.386 546.773 559.727L518.837 514.954C518.88 514.911 518.944 514.869 518.986 514.826L556.376 546.585C556.142 546.947 555.971 547.352 555.865 547.778C555.567 549.077 555.993 550.355 556.866 551.228L550.201 559.897ZM550.968 560.494L557.632 551.867C557.952 552.059 558.314 552.187 558.697 552.293C559.676 552.506 560.656 552.336 561.444 551.846L568.491 560.728L551.99 562.304C551.798 561.623 551.457 560.984 550.968 560.494ZM592.02 590.825L551.692 564.733C551.798 564.477 551.905 564.221 551.968 563.944C552.011 563.71 552.054 563.476 552.054 563.242L569.173 561.601L592.19 590.634C592.126 590.698 592.062 590.761 592.02 590.825ZM595.682 589.611C594.703 589.398 593.723 589.569 592.935 590.059L570.323 561.516L658.793 553.039C658.857 553.273 658.921 553.507 659.028 553.72L597.79 590.911C597.258 590.272 596.534 589.803 595.682 589.611ZM685.005 589.59C684.962 589.739 684.941 589.888 684.941 590.037L598.557 592.636C598.535 592.551 598.514 592.465 598.493 592.359L670.653 565.009L686.154 587.609C685.601 588.141 685.175 588.802 685.005 589.59ZM690.498 587.162C690.179 586.991 689.838 586.842 689.476 586.757C688.582 586.565 687.709 586.693 686.964 587.076L671.59 564.669L719.69 546.436C719.861 546.84 720.095 547.224 720.393 547.543L690.498 587.162ZM719.477 544.199C719.456 544.327 719.435 544.455 719.414 544.583L666.033 551.249C665.905 550.738 665.65 550.27 665.33 549.844L700.25 513.42L720.819 542.069C720.159 542.602 719.669 543.326 719.477 544.199ZM722.969 541.302C722.501 541.324 722.075 541.43 721.649 541.601L700.932 512.739L724.971 487.668C725.333 487.903 725.759 488.094 726.206 488.201C726.376 488.243 726.547 488.265 726.696 488.286L722.969 541.302ZM726.547 543.56C726.099 542.495 725.163 541.664 723.949 541.388H723.928L727.675 488.244C728.037 488.18 728.378 488.073 728.697 487.903L757.485 530.929C756.101 531.866 755.483 533.592 755.994 535.189L726.547 543.56ZM726.909 545.413L726.759 545.861C726.866 545.392 726.866 544.923 726.802 544.476L756.42 536.062C757.442 537.639 759.529 538.256 761.253 537.362C761.36 537.298 761.466 537.255 761.573 537.191L766.96 545.072L777.223 560.387C777.074 560.536 776.946 560.686 776.818 560.856C776.691 561.005 776.584 561.154 776.499 561.303L726.909 545.413ZM846.978 560.579L783.526 562.475C783.462 562.091 783.355 561.729 783.164 561.367C782.951 560.941 782.653 560.579 782.312 560.281L793.129 544.476L847.02 560.366C846.999 560.43 846.999 560.494 846.978 560.579ZM847.276 559.429L793.682 543.624L813.186 515.103C814.208 515.614 815.465 515.678 816.593 515.103H816.614L847.851 558.534C847.616 558.79 847.425 559.088 847.276 559.429ZM850.299 557.214C849.852 557.256 849.426 557.384 849 557.597C848.851 557.682 848.702 557.767 848.575 557.853L817.402 514.528C817.743 514.23 818.02 513.846 818.233 513.463L852.748 522.43L850.299 557.214ZM905.915 545.477L854.281 559.791C854.217 559.599 854.153 559.407 854.047 559.237C853.472 558.108 852.428 557.405 851.257 557.235L853.706 522.665L921.651 540.301C921.651 540.557 921.693 540.834 921.757 541.089L905.915 545.477ZM921.779 539.321L853.791 521.685L857.368 470.969C857.879 470.948 858.369 470.82 858.859 470.564C859.029 470.479 859.178 470.373 859.327 470.287L922.204 538.299C921.991 538.619 921.864 538.959 921.779 539.321ZM924.994 536.488C924.547 536.531 924.121 536.659 923.716 536.872C923.375 537.042 923.077 537.277 922.801 537.532L860.03 469.627C860.371 469.222 860.605 468.754 860.754 468.243L930.849 478.531L924.994 536.488ZM926.804 536.723C926.548 536.616 926.25 536.531 925.973 536.488L931.829 478.637L955.336 482.088C955.336 482.663 955.463 483.238 955.74 483.792C956.017 484.324 956.4 484.772 956.847 485.091L926.804 536.723ZM957.358 478.765C956.379 479.276 955.698 480.149 955.442 481.151L931.914 477.7L939.004 407.58C939.111 407.58 939.238 407.558 939.366 407.558L945.711 432.16L957.699 478.616C957.571 478.658 957.465 478.701 957.358 478.765ZM960.276 478.552C959.743 478.381 959.19 478.318 958.636 478.381L946.584 431.628L940.303 407.303C940.409 407.26 940.516 407.217 940.601 407.175C941.155 406.898 941.602 406.493 941.943 406.025L983.719 428.56L960.276 478.552ZM984.57 429.029L1048.26 463.386C1048.11 463.833 1048.04 464.323 1048.09 464.813L962.66 481.001C962.596 480.788 962.511 480.597 962.426 480.384C962.128 479.787 961.681 479.297 961.149 478.957L984.57 429.029ZM980.589 512.547L961.553 484.899C962.383 484.154 962.831 483.068 962.788 481.96L1048.26 465.75C1048.32 465.9 1048.36 466.07 1048.45 466.219L980.589 512.547ZM1048.66 462.513L984.975 428.156L994.45 407.963C995.366 408.24 996.367 408.197 997.282 407.729C997.452 407.643 997.602 407.537 997.751 407.43L1048.77 462.321C1048.73 462.385 1048.68 462.449 1048.66 462.513ZM1050.11 461.171C1049.85 461.299 1049.64 461.448 1049.43 461.618L998.453 406.791C998.836 406.323 999.092 405.79 999.241 405.215L1059.88 410.689L1051.73 460.788C1051.17 460.788 1050.62 460.915 1050.11 461.171ZM1053.45 461.15C1053.2 461.043 1052.96 460.937 1052.69 460.873L1060.86 410.753L1084.45 412.883C1084.48 413.416 1084.6 413.927 1084.86 414.438C1085.07 414.843 1085.35 415.205 1085.67 415.503L1053.45 461.15ZM1102.87 476.273C1102.06 476.699 1101.47 477.359 1101.13 478.126L1055.5 465.09C1055.6 464.345 1055.5 463.557 1055.13 462.832C1054.9 462.385 1054.6 462.002 1054.24 461.682L1086.41 416.057C1087.07 416.398 1087.82 416.547 1088.58 416.462L1103.21 476.102C1103.11 476.166 1103 476.209 1102.87 476.273ZM1104.15 475.889L1089.52 416.249C1089.63 416.206 1089.76 416.164 1089.86 416.1C1090.14 415.951 1090.42 415.78 1090.63 415.567L1128.15 448.519L1106.47 476.379C1105.79 475.975 1104.98 475.804 1104.15 475.889ZM1183.59 498.276L1108.3 480C1108.39 479.297 1108.26 478.573 1107.92 477.892C1107.73 477.529 1107.51 477.231 1107.24 476.954L1128.89 449.136L1184 497.53C1183.83 497.765 1183.7 498.02 1183.59 498.276ZM1185.4 496.295C1185.13 496.444 1184.85 496.614 1184.64 496.827L1129.49 448.391L1164.09 403.916C1164.75 404.299 1165.52 404.491 1166.3 404.427L1185.87 496.103C1185.7 496.146 1185.53 496.21 1185.4 496.295ZM1187.34 495.89C1187.15 495.869 1186.98 495.869 1186.79 495.89L1167.22 404.214C1167.37 404.15 1167.52 404.108 1167.67 404.022C1167.84 403.937 1168.01 403.831 1168.16 403.724L1199.11 436.569L1187.34 495.89ZM1188.79 493.569L1199.97 437.421L1204.35 442.065C1203.44 443.194 1203.22 444.77 1203.91 446.133C1204.27 446.857 1204.84 447.411 1205.52 447.752L1188.79 493.569ZM1206.97 440.701C1206.48 440.744 1205.99 440.872 1205.55 441.106C1205.37 441.191 1205.2 441.298 1205.06 441.404L1200.2 436.271L1210.17 386.152L1206.97 440.701ZM1210.46 442.555C1209.91 441.575 1208.95 440.957 1207.93 440.765L1211.32 382.957C1211.81 382.914 1212.29 382.786 1212.74 382.552C1213.83 381.998 1214.51 380.997 1214.72 379.889L1323.31 393.543C1323.29 394.011 1323.36 394.501 1323.53 394.97L1210.46 442.555ZM1323.49 392.606L1214.79 378.931C1214.76 378.76 1214.74 378.611 1214.7 378.441L1276.28 362.679L1298.59 356.97C1298.64 357.077 1298.68 357.183 1298.74 357.29C1299.68 359.122 1301.89 359.867 1303.75 358.951L1324.85 390.71C1324.19 391.178 1323.72 391.86 1323.49 392.606ZM1325.7 390.241L1304.56 358.419C1305.28 357.78 1305.73 356.885 1305.83 355.948L1333.26 355.075L1327.45 390.007C1326.87 389.943 1326.27 390.007 1325.7 390.241ZM1328.11 445.707L1327.59 397.441C1328 397.377 1328.4 397.27 1328.77 397.079C1330.62 396.141 1331.34 393.884 1330.41 392.03C1330.19 391.604 1329.89 391.242 1329.57 390.944L1350.74 357.013C1350.76 357.013 1350.8 357.034 1350.82 357.034L1328.11 445.707ZM1329.77 446.325C1329.53 446.176 1329.3 446.048 1329.04 445.941L1351.74 357.268C1352.46 357.354 1353.21 357.247 1353.89 356.885C1354.02 356.821 1354.15 356.757 1354.25 356.672L1381.36 388.196L1329.77 446.325ZM1435.55 454.291L1331.38 449.136C1331.34 448.668 1331.21 448.178 1330.98 447.73C1330.83 447.454 1330.66 447.198 1330.47 446.964L1381.98 388.942L1436.46 452.31C1435.97 452.885 1435.65 453.567 1435.55 454.291ZM1437.55 451.501C1437.42 451.565 1437.32 451.628 1437.19 451.714L1382.64 388.239L1403.89 364.298C1404.72 364.873 1405.78 365.086 1406.78 364.851L1437.61 451.479C1437.59 451.479 1437.57 451.501 1437.55 451.501ZM1438.53 451.16L1407.7 364.532C1408.02 364.361 1408.29 364.17 1408.55 363.935L1468.15 413.373L1441.15 451.607C1440.36 451.16 1439.44 450.989 1438.53 451.16ZM1447.49 501.961L1440.4 458.402C1440.59 458.338 1440.76 458.274 1440.96 458.189C1441.6 457.869 1442.08 457.379 1442.45 456.826L1487.2 476.23L1450.56 503.154C1449.77 502.28 1448.64 501.854 1447.49 501.961ZM1576.59 515.252L1451.58 505.688C1451.58 505.113 1451.45 504.538 1451.18 503.984C1451.16 503.963 1451.16 503.942 1451.13 503.92L1488.23 476.656L1576.65 514.975C1576.61 515.082 1576.59 515.167 1576.59 515.252ZM1578.55 512.675C1577.89 513.016 1577.38 513.506 1577.04 514.102L1489.14 475.996L1553.72 428.539C1554.55 429.412 1555.74 429.817 1556.92 429.668L1578.85 512.547C1578.74 512.59 1578.63 512.632 1578.55 512.675Z" fill="url(#paint0_linear_108_107)"/>
<circle opacity="0.3" cx="1029" cy="168" r="7" fill="#FED141"/>
</g>
<defs>
<linearGradient id="paint0_linear_108_107" x1="323.132" y1="323.67" x2="1379.22" y2="323.67" gradientUnits="userSpaceOnUse">
<stop stop-color="#E5E5E5"/>
<stop offset="0.1801" stop-color="#E5E5E5"/>
<stop offset="0.486" stop-color="#E5E5E5"/>
<stop offset="0.9994" stop-color="#E5E5E5"/>
</linearGradient>
<clipPath id="clip0_108_107">
<rect width="1584" height="710" fill="white"/>
</clipPath>
</defs>
</svg>
