<svg xmlns="http://www.w3.org/2000/svg" viewBox="0 0 69.48 63.29"><defs><style>.cls-1{fill:#f8c849;}</style></defs><g id="Layer_2" data-name="Layer 2"><g id="Layer_1-2" data-name="Layer 1"><path class="cls-1" d="M69.47,12c.12-4.33-2.28-8.36-6.82-9-6.13-.83-9.47,4-13.5,7.62-1.53-3.83-3.69-7.82-7-9.74a5.39,5.39,0,0,0-8.06,2.82c-3.89,9.47.54,23,5.21,31.32a1.9,1.9,0,0,0,1.63,1.08l-.65.46A2.65,2.65,0,0,0,43.1,41C53.34,35.72,69.11,25,69.47,12Zm-8.7,6.89C56.35,25.65,49.72,30,43.2,34.47a2.26,2.26,0,0,0-.13-1.87,41.21,41.21,0,0,1-4.84-18.53c0-1.9-.65-8.67,2.36-7.24,2.32,1.09,3.68,7,4.4,9.26a2.94,2.94,0,0,0,4.33,1.61c3.58-2,5.51-5.36,8.78-7.63,2.65-1.84,5.88-.84,5.42,2.7A15.32,15.32,0,0,1,60.77,18.85Z"/><path class="cls-1" d="M37.29,44.63C34.52,48.71,30,55.34,24.1,54.24a19.88,19.88,0,0,0,1.85-3c2.22-4.44.12-9.26-5.39-7.62S14.35,51.36,18,55c-.79.62-1.44,1.09-1.78,1.31A24,24,0,0,1,1.49,59.78c-1.81-.11-2,2.81-.29,3.14a24.15,24.15,0,0,0,20.13-5.66c7.56,3.17,14.76-5.52,18.4-11.38C40.67,44.37,38.26,43.21,37.29,44.63ZM19.88,48c.45-.58,2.85-1.94,3.58-1.13,1.17,1.31-.58,3.68-2.68,5.75C19.41,51.33,18.68,49.56,19.88,48Z"/></g></g></svg>