<svg xmlns="http://www.w3.org/2000/svg" viewBox="0 0 244.22 135.08"><defs><style>.cls-1{fill:#fff;}</style></defs><g id="Layer_2" data-name="Layer 2"><g id="Layer_1-2" data-name="Layer 1"><path class="cls-1" d="M28.94,24.57q-.56,3.11-1.11,5.95l-1.11,5.73c-.24,1-.48,2.07-.74,3.08s-.49,2-.73,3.08q-.67,2.78-1.32,5.48t-1.39,5.46q-.76,2.82-1.63,5.64T19.22,64.6Q18,68.44,16.58,72.14a19.42,19.42,0,0,1-1.09,2.35,9,9,0,0,1-1.56,2.05A8.64,8.64,0,0,1,11,78.37a14.47,14.47,0,0,0-1.81,1c-.58.37-1.15.76-1.72,1.16a32.9,32.9,0,0,1-5.69,3A2.55,2.55,0,0,1,.84,82c-.1-.54-.17-1.11-.22-1.71s-.09-1.2-.11-1.82a16.56,16.56,0,0,0-.17-1.84A25.21,25.21,0,0,1,0,72.1a17.44,17.44,0,0,1,.7-4.55q1.14-4,2.38-8t2.38-8q1-3.69,2.13-7.3t2.1-7.24c.49-1.83,1-3.63,1.62-5.38s1.12-3.53,1.6-5.32,1-3.77,1.45-5.66,1-3.78,1.46-5.66c.36-1.43.77-2.82,1.22-4.16s.93-2.7,1.43-4.1c.24-.75.51-1.47.81-2.18s.59-1.42.88-2.16A3.42,3.42,0,0,1,21.49.78a4.57,4.57,0,0,1,2-.75,4.77,4.77,0,0,1,2.11.24A3.69,3.69,0,0,1,27.3,1.52a16.17,16.17,0,0,1,1,1.35,3.38,3.38,0,0,1,.54,1.48,17.16,17.16,0,0,0,1.65,5.42c.85,1.68,1.67,3.38,2.48,5.1,1.17,2.41,2.25,4.83,3.25,7.24a59.21,59.21,0,0,1,2.53,7.44Q40,34,41.16,38.26t2.47,8.67q1.2,4.18,2.54,8.32c.88,2.77,1.8,5.54,2.76,8.33a41.21,41.21,0,0,0,1.8,4.59q1,2.22,2,4.5a.64.64,0,0,0,.14.15,2.3,2.3,0,0,1,.2.17c.38,0,.61-.07.71-.28s.17-.43.24-.65c.37-1.44.75-2.86,1.15-4.26s.79-2.82,1.15-4.26l2.77-10q1.36-5,2.83-10c.81-2.85,1.66-5.67,2.54-8.48S66.16,29.5,67,26.65c.59-2,1.17-3.95,1.74-5.85s1.16-3.86,1.8-5.84A15.31,15.31,0,0,1,72,11.74a15.87,15.87,0,0,1,2.3-3,3.58,3.58,0,0,1,1.07,1.66,7.26,7.26,0,0,1,.22,1.82,6.85,6.85,0,0,1-.14,1.34,10.62,10.62,0,0,0-.21,1.32,61.54,61.54,0,0,1-1.5,9.79c-.77,3.21-1.52,6.44-2.28,9.7q-1.26,5.51-2.56,11T66.34,56.56c-.29,1.36-.53,2.74-.71,4.14a36,36,0,0,1-.8,4.19q-1,4.27-2,8.52A41.25,41.25,0,0,1,60,81.72a12.38,12.38,0,0,1-1,1.69c-.36.53-.76,1.08-1.18,1.62s-1,1.24-1.53,1.84-1.09,1.26-1.65,1.95A29,29,0,0,1,51,87.19,5.21,5.21,0,0,1,48.43,84q-.34-1-.72-2c-.25-.66-.48-1.32-.71-2-.8-1.91-1.58-3.82-2.36-5.72s-1.53-3.82-2.27-5.76c-.46-1.26-.89-2.53-1.26-3.79s-.76-2.54-1.17-3.84c-.68-2.26-1.36-4.52-2-6.77s-1.3-4.53-1.93-6.82q-1.2-4.17-2.31-8.36t-2.22-8.4a21.78,21.78,0,0,0-1-2.89C30,26.71,29.51,25.68,28.94,24.57Z"/><path class="cls-1" d="M114.82,98.35c-1.21,1.76-2.41,3.5-3.63,5.21s-2.49,3.41-3.82,5.11a42.14,42.14,0,0,1-4,4.55q-2.18,2.11-4.55,4a20.8,20.8,0,0,1-7.74,4.17,16,16,0,0,1-8.94-.26A17.91,17.91,0,0,1,74,116.41a21.16,21.16,0,0,1-4.76-8.23,36.71,36.71,0,0,1-1.39-7.12,41.51,41.51,0,0,1,0-7.23,42.48,42.48,0,0,1,.66-5.59c.34-1.82.72-3.65,1.14-5.51a49.3,49.3,0,0,1,1.61-5.56,51.29,51.29,0,0,1,2.28-5.38,64.42,64.42,0,0,1,4.23-7.44A31.76,31.76,0,0,1,83.35,58a23.9,23.9,0,0,1,4.26-3,27.21,27.21,0,0,1,4.81-2.09,25.56,25.56,0,0,1,4.36-1,18.59,18.59,0,0,1,4.41,0A22.31,22.31,0,0,1,106,53a11.16,11.16,0,0,1,4.23,2.78q.48.51,1,1c.34.32.7.63,1.07.93a15.46,15.46,0,0,1,3.08,3.92,35,35,0,0,1,2.12,4.6,12.52,12.52,0,0,1,.83,4.93,15.84,15.84,0,0,1-1,5,27.13,27.13,0,0,1-10.55,13.16c-1.43,1-2.89,1.9-4.36,2.79a40.74,40.74,0,0,1-4.58,2.41A32.33,32.33,0,0,1,91,96.63a21.81,21.81,0,0,1-7.18.15l-.64,0a30.18,30.18,0,0,0,.47,5.79,16.08,16.08,0,0,0,2,5.28,10.71,10.71,0,0,0,3,3.28,12,12,0,0,0,4.1,1.78,2.77,2.77,0,0,0,1.74-.08c.53-.22,1.08-.46,1.64-.74a24.38,24.38,0,0,0,3.4-2.47,34.67,34.67,0,0,0,3-3c1.33-1.41,2.57-2.87,3.72-4.35a48.12,48.12,0,0,0,3.21-4.66,9.16,9.16,0,0,1,1.64-1.86,3.25,3.25,0,0,1,2.27-.69,3.53,3.53,0,0,1,1.36.66,2.27,2.27,0,0,1,.59,1A1.84,1.84,0,0,1,114.82,98.35ZM83.24,92.74c.61,0,1.16,0,1.64.08a7,7,0,0,0,1.45,0A21,21,0,0,0,91.16,92a26.93,26.93,0,0,0,4.51-1.78q1.77-.89,3.42-1.83t3.24-2a20,20,0,0,0,5.54-5.09,24.74,24.74,0,0,0,3.49-6.64,7.87,7.87,0,0,0,.57-3.25,6.9,6.9,0,0,0-1-3.17,10.19,10.19,0,0,0-4.57-4.29,8.64,8.64,0,0,0-6.18-.34A15.86,15.86,0,0,0,95,66.15a20.08,20.08,0,0,0-4.06,4.12,36.2,36.2,0,0,0-4.79,8.81,47.93,47.93,0,0,0-1.72,5.2,39.67,39.67,0,0,0-1,5.38q-.06.77-.09,1.5C83.26,91.65,83.25,92.18,83.24,92.74Z"/><path class="cls-1" d="M201.1,61.51a9.55,9.55,0,0,1-.16,1.93,14.43,14.43,0,0,1-.51,1.9c-.42,1.16-.8,2.36-1.13,3.6s-.72,2.47-1.14,3.68q-.87,2.47-1.75,4.92c-.59,1.64-1.18,3.3-1.76,5-1,2.73-2,5.42-3,8.1a76.18,76.18,0,0,0-2.71,8.27c-.46,1.85-.94,3.68-1.46,5.48s-1.06,3.63-1.61,5.48a35.26,35.26,0,0,1-2.28,5.63,43.31,43.31,0,0,1-3.14,5.18l-.77,1.16a11.68,11.68,0,0,1-5.4,4.81,3.37,3.37,0,0,1-1.23.3c-.42,0-.84,0-1.27.1a1.35,1.35,0,0,1-1-.23,7.35,7.35,0,0,1-.86-.7,9.7,9.7,0,0,1-2.25-2.85c-.53-1-1-2.13-1.49-3.26a108.61,108.61,0,0,1-3.72-10.65A97.84,97.84,0,0,1,160,98.43c-.07-.52-.15-1-.24-1.46s-.17-.92-.25-1.4l-.28,0c-.34.94-.71,1.87-1.1,2.8s-.74,1.87-1,2.82c-.69,2.24-1.35,4.46-2,6.64l-1.92,6.66c-.35,1-.69,2-1,2.92s-.67,1.93-1,2.92c-.13.31-.25.61-.35.9s-.2.59-.29.91a10.23,10.23,0,0,1-1.74,3.42,3.17,3.17,0,0,1-2.28,1.3,3.54,3.54,0,0,1-2.52-.9,7.31,7.31,0,0,1-1.76-1.89,12.7,12.7,0,0,1-1.16-2.3,62.55,62.55,0,0,1-4.44-13.68c-.35-1.67-.71-3.36-1.06-5.06s-.65-3.37-.87-5q-.54-3.63-1-7.28c-.29-2.44-.55-4.88-.76-7.33-.2-2.26-.33-4.53-.41-6.8s-.17-4.52-.27-6.77a14.62,14.62,0,0,1,1.51-6.74,2.31,2.31,0,0,1,1.55-1.22,1.37,1.37,0,0,1,1.46.6,26.87,26.87,0,0,1,2.79,5.86,44.15,44.15,0,0,1,1.62,6.28q.53,2.72,1.06,5.47t1,5.47c.3,1.8.56,3.62.78,5.44s.48,3.63.78,5.44a72.94,72.94,0,0,1,1,8,42.28,42.28,0,0,0,1.26,7.88,3.67,3.67,0,0,0,.26.73c.28-.76.52-1.46.74-2.11l.65-1.92q1.55-4.71,3.06-9.42t3.25-9.32q.94-2.55,2.11-5.06a16.06,16.06,0,0,1,3.17-4.52.61.61,0,0,0,.21-.29.87.87,0,0,1,.14-.29,1.79,1.79,0,0,1,1.88-1.11,6.5,6.5,0,0,1,1.66.41,3,3,0,0,1,1.28,1.28,28.75,28.75,0,0,1,2.06,4.72q.8,2.4,1.69,4.82c.62,1.8,1.2,3.6,1.72,5.41s1.08,3.64,1.65,5.48q1.86,5.53,3.82,11.22a4.65,4.65,0,0,0,.39.89c.31-.66.62-1.28.92-1.85a11.92,11.92,0,0,0,.77-1.79l2-5.56q1-2.75,1.89-5.57,2-6.12,4.09-12.2a121.35,121.35,0,0,1,4.82-11.9c.89-1.94,1.79-3.86,2.72-5.75a30.84,30.84,0,0,1,3.38-5.4A4.23,4.23,0,0,1,199,61.71,4.09,4.09,0,0,1,201.1,61.51Z"/><path class="cls-1" d="M204,101a33.9,33.9,0,0,1,2,3.84,8.2,8.2,0,0,1,.62,4.22,34.35,34.35,0,0,0-.23,4,12.8,12.8,0,0,0,.65,4,15.18,15.18,0,0,0,1,2.22c.39.66.82,1.33,1.3,2a4.26,4.26,0,0,0,1.51,1.27,8,8,0,0,0,1.84.64,3,3,0,0,0,1.48-.15,12.82,12.82,0,0,0,1.94-1.17,6.49,6.49,0,0,0,1.58-1.71,27.26,27.26,0,0,0,2.88-6,20.26,20.26,0,0,0,1-6.56,18.68,18.68,0,0,0-.38-4.19,35.89,35.89,0,0,0-1.07-4c-.52-1.5-1.05-3-1.56-4.43s-1-2.93-1.35-4.44c-.49-1.82-.88-3.65-1.2-5.47a27.38,27.38,0,0,1-.36-5.6,14.2,14.2,0,0,1,.85-4.16,15,15,0,0,1,2-3.79,14.56,14.56,0,0,1,3-3.08,13,13,0,0,1,3.79-2l1.26-.36,1.27-.36a8.9,8.9,0,0,1,3.63-.21,10.67,10.67,0,0,1,3.43,1.14,13.4,13.4,0,0,1,2.89,2.11A12.35,12.35,0,0,1,240,71.41a38.24,38.24,0,0,1,2.86,6.32,12,12,0,0,1,.63,2.46c.12.83.24,1.67.38,2.53.08.56.15,1.08.2,1.58s.11,1,.19,1.57a1.75,1.75,0,0,1-.79,1.72,1.87,1.87,0,0,1-.62.4.84.84,0,0,1-.75-.15,1,1,0,0,1-.71-1.29c0-.42.06-.84.11-1.26a6.28,6.28,0,0,0,0-1.22,18.78,18.78,0,0,0-1.06-4.57,13.24,13.24,0,0,0-2.37-4,7.06,7.06,0,0,0-1.56-1.35c-.61-.4-1.2-.77-1.77-1.13a2.57,2.57,0,0,0-1.21-.32,2.36,2.36,0,0,0-1.27.39,15.48,15.48,0,0,0-3,2.5,9.94,9.94,0,0,0-2,3.3,5,5,0,0,0-.33,1.86,8.6,8.6,0,0,0,.21,1.79,53.6,53.6,0,0,0,1.42,5.94q.85,2.9,1.83,5.77c.54,1.46,1,2.93,1.47,4.4s.81,3,1.14,4.53a28,28,0,0,1-.11,12.32,47.11,47.11,0,0,1-2,6.19,31.43,31.43,0,0,1-3,5.67,16.93,16.93,0,0,1-4.73,5.24,14.23,14.23,0,0,1-6.67,2.44,9,9,0,0,1-3.13-.19,23.19,23.19,0,0,1-3-.93,18.12,18.12,0,0,1-7.66-5.48,21.19,21.19,0,0,1-2-3.11c-.58-1.09-1.12-2.18-1.62-3.29a21.64,21.64,0,0,1-1.51-9,10.55,10.55,0,0,1,.73-3.65,17.28,17.28,0,0,1,1.72-3.3,28.45,28.45,0,0,1,1.88-2.52C202.66,102.78,203.32,101.93,204,101Z"/></g></g></svg>