<svg xmlns="http://www.w3.org/2000/svg" viewBox="0 0 1587.9 564.45"><defs><style>.cls-1{fill:#f8c849;}.cls-2{fill:#007fc4;}</style></defs><g id="Layer_2" data-name="Layer 2"><g id="Layer_1-2" data-name="Layer 1"><polygon class="cls-1" points="0 0 985 495 1114 564 1377 564 1530 398 1377 232 0 0"/><path class="cls-2" d="M1524.84,246.45H1514V237.2h32.74v9.25h-10.88v31.83h-11Z"/><path class="cls-2" d="M1576.91,237.2h11v41.08h-11v-13h-14.26v13h-11V237.2h11V256h14.26Z"/><path class="cls-2" d="M1536.73,330.77a163.12,163.12,0,0,0-37.84-52.36,172,172,0,0,0-55.44-34,188.4,188.4,0,0,0-133,0,172.42,172.42,0,0,0-55.21,34,163,163,0,0,0-37.84,52.36,148.73,148.73,0,0,0-10.23,30.76,122.23,122.23,0,0,0-29.49-14.82q-23.81-8.32-55.21-8.33a150,150,0,0,0-23.08,1.43,67.31,67.31,0,0,0-13.56,3.33V308.87h132.78V236.06h-203.7V425.47q0,7.14,7.14,2.38,12.38-8.09,32.84-15.94t46.64-7.85q27.6,0,43.79,10.23t16.18,34.51q0,20.94-14,31.41t-35.94,10.47a58.66,58.66,0,0,1-20.46-3.34,70.23,70.23,0,0,1-16.18-8.32,69.15,69.15,0,0,1-12.38-10.95,55.43,55.43,0,0,1-8.09-11.66L984.91,495q15.23,30,48.3,49.73t81.15,19.76q30.45,0,55.68-8.33t42.84-23.32a103.27,103.27,0,0,0,25.79-33.41,163.54,163.54,0,0,0,16.55,18.18,170.23,170.23,0,0,0,55.21,34.26,188.26,188.26,0,0,0,133,0,169.81,169.81,0,0,0,55.44-34.26A165.86,165.86,0,0,0,1536.73,465q14-30.47,14-67.11T1536.73,330.77Zm-79.92,102.9a82,82,0,0,1-16.6,28.69,79.51,79.51,0,0,1-26.55,19.21q-15.66,7.11-36,7.11t-36-7.11A79.55,79.55,0,0,1,1315,462.36a81.83,81.83,0,0,1-16.59-28.69,114,114,0,0,1,0-71.12A81.83,81.83,0,0,1,1315,333.86a77.06,77.06,0,0,1,26.56-19q15.64-6.87,36-6.88t36,6.88a77,77,0,0,1,26.55,19,82,82,0,0,1,16.6,28.69,114,114,0,0,1,0,71.12Z"/></g></g></svg>