<svg xmlns="http://www.w3.org/2000/svg" viewBox="0 0 602.99 332.2"><defs><style>.cls-1{fill:#007fc4;}</style></defs><g id="Layer_2" data-name="Layer 2"><g id="Layer_1-2" data-name="Layer 1"><path class="cls-1" d="M539.93,14.2H529.06V5H561.8V14.2H550.92V46h-11Z"/><path class="cls-1" d="M592,5h11V46H592V33H577.74V46h-11V5h11V23.74H592Z"/><path class="cls-1" d="M551.82,98.52A162.93,162.93,0,0,0,514,46.17a172,172,0,0,0-55.44-34,188.26,188.26,0,0,0-133,0,172.53,172.53,0,0,0-55.21,34,162.93,162.93,0,0,0-37.84,52.35,148.73,148.73,0,0,0-10.23,30.76,122.23,122.23,0,0,0-29.49-14.82q-23.81-8.33-55.21-8.33a150,150,0,0,0-23.08,1.43,67.31,67.31,0,0,0-13.56,3.33V76.62H233.68V3.81H30V193.23q0,7.14,7.14,2.38,12.38-8.1,32.84-16t46.64-7.85q27.6,0,43.79,10.23t16.18,34.51q0,20.94-14,31.41T126.6,258.43a58.91,58.91,0,0,1-20.47-3.33A70.64,70.64,0,0,1,90,246.77a69.15,69.15,0,0,1-12.38-11,55.43,55.43,0,0,1-8.09-11.66L0,262.71q15.23,30,48.31,49.73t81.14,19.76q30.45,0,55.68-8.33T228,300.55a103.51,103.51,0,0,0,25.8-33.4,162.39,162.39,0,0,0,16.54,18.17,170.34,170.34,0,0,0,55.21,34.26,188.26,188.26,0,0,0,133,0A169.81,169.81,0,0,0,514,285.32a165.59,165.59,0,0,0,37.84-52.59q14-30.45,14-67.11T551.82,98.52ZM471.9,201.43a81.94,81.94,0,0,1-16.6,28.69,79.62,79.62,0,0,1-26.55,19.2q-15.64,7.11-36,7.11t-36-7.11a79.52,79.52,0,0,1-26.55-19.2,81.78,81.78,0,0,1-16.6-28.69,108.79,108.79,0,0,1-5.69-35.57,108.77,108.77,0,0,1,5.69-35.56,81.78,81.78,0,0,1,16.6-28.69,76.92,76.92,0,0,1,26.55-19q15.65-6.87,36-6.88t36,6.88a77,77,0,0,1,26.55,19,81.94,81.94,0,0,1,16.6,28.69,114,114,0,0,1,0,71.13Z"/></g></g></svg>