<svg id="Layer_1" data-name="Layer 1" xmlns="http://www.w3.org/2000/svg" viewBox="0 0 1374 380.8"><defs><style>.cls-1{fill:#fff;}.cls-2{fill:#ffd040;}</style></defs><g id="Layer_2" data-name="Layer 2"><g id="Layer_1-2" data-name="Layer 1-2"><path class="cls-1" d="M166.78,271.81a85.69,85.69,0,0,1-6.52-6.82q-3.39-3.9-6.28-7.31-3.37-4.14-6.76-8.53c.32,3.58.73,7.15,1.21,10.72q.48,4.63.84,9.87c.25,3.5.37,6.7.37,9.63v69.38H117.73V181.6h3.38l82.8,81.55q2.9,3,6.28,7.09l6.28,7.6q3.38,4.32,6.76,8.87-.73-5.56-1.21-11.15c-.32-3.2-.57-6.62-.72-10.25s-.25-7-.25-10V183.12H253V350.27h-3.38Z"/><path class="cls-1" d="M337,271.81a85.69,85.69,0,0,1-6.52-6.82q-3.39-3.9-6.28-7.31-3.39-4.14-6.76-8.53.48,5.37,1.21,10.72.48,4.63.84,9.87c.24,3.5.36,6.7.36,9.63v69.38H287.91V181.6h3.38l82.81,81.55q2.89,3,6.28,7.09l6.28,7.6q3.38,4.32,6.76,8.87-.74-5.56-1.21-11.15-.49-4.8-.73-10.25c-.16-3.63-.24-7-.24-10V183.12h31.91V350.27h-3.38Z"/><path class="cls-1" d="M850.73,187.45h35.6l27.77,62.18a124.2,124.2,0,0,1,4.51,11.63q2.13,6.42,4,11.87,2.14,6.4,4,13.06,1.65-6.65,3.8-13.06,1.89-5.46,4-11.75A125.2,125.2,0,0,1,939,249.63l27.06-62.18h32.28L927.63,350.27h-3.32Z"/><path class="cls-1" d="M1160.85,217.05H1115v-29.6h124.3v29.6h-45.88V348.79h-32.57Z"/><path class="cls-1" d="M1264.47,187.45H1371v29.6h-74v51.81h65.13V297H1297v22.21h77v29.6H1264.47Z"/><path class="cls-1" d="M1048.16,186H1051l73.82,162.82h-36l-7.4-17.82h-63.66l-7.39,17.76H977.19Zm22.27,116.93L1058.83,275q-1.9-4.26-3.56-9.24t-3.08-9.47q-1.65-5-3.07-10.19-1.66,5.22-3.08,10.19l-3,9.47a84.74,84.74,0,0,1-3.44,9.24L1028,302.9Z"/><path class="cls-1" d="M638,0C532.75,0,447.42,85.33,447.42,190.59c0,101.28,79,184.09,178.73,190.21-4.56-3-7.51-7.63-7.51-12.87h38.73c0,5.24-2.94,9.89-7.5,12.87,99.73-6.12,178.73-88.93,178.73-190.21C828.6,85.33,743.27,0,638,0Zm46.34,353.87c0,4.95-3.41,9-7.62,9h-77c-4.2,0-7.61-4-7.61-9h0c0-5,3.41-9,7.61-9h77C680.93,344.87,684.34,348.87,684.34,353.87Zm12.41-34.33a17.67,17.67,0,0,1,.36,3.55h0a17.31,17.31,0,0,1-17.3,17.32H596.22a17.31,17.31,0,0,1-17.32-17.3v0h0a17.67,17.67,0,0,1,.36-3.55,141.67,141.67,0,1,1,117.5,0Z"/><path class="cls-2" d="M32.61,191.21h49.5L49.49,348.29H0Z"/><circle class="cls-2" cx="58.5" cy="147.07" r="24.51"/></g></g></svg>