<svg xmlns="http://www.w3.org/2000/svg" viewBox="0 0 736.14 102"><defs><style>.cls-1{fill:#ffd040;}.cls-2{fill:#fff;}</style></defs><g id="Layer_2" data-name="Layer 2"><g id="Layer_1-2" data-name="Layer 1"><path class="cls-1" d="M0,0H27.94C56.18,0,73.12,14.71,73.12,39.09S56,78,27.94,78H20.81v23H0ZM27.34,59.74c17,0,24.38-6.83,24.38-20.65,0-14-7.73-20.81-24.38-20.81H20.81V59.74Z"/><path class="cls-2" d="M102.66,29.45h1.25l32.46,71.61H121l-3.34-8H88.88l-3.34,8H71.45Zm9.81,51.36-5.12-12.32c-2.08-5-4.28-12.73-4.28-12.73A127.45,127.45,0,0,1,98.9,68.49L93.79,80.81Z"/><path class="cls-2" d="M139.3,87.07l11.89-6.89c3.14,5.12,7.21,8.87,14.41,8.87,6.05,0,9.91-3,9.91-7.2,0-5-4-6.78-10.64-9.71l-3.66-1.56c-10.54-4.49-17.53-10.13-17.53-22,0-11,8.35-19.31,21.4-19.31,9.29,0,16,3.24,20.77,11.69l-11.38,7.31C172,43.75,169.25,42,165.08,42s-7,2.71-7,6.26c0,4.38,2.72,6.16,9,8.87l3.65,1.57c12.42,5.32,19.42,10.75,19.42,23,0,13.15-10.34,20.36-24.22,20.36C152.34,102,143.57,95.52,139.3,87.07Z"/><path class="cls-2" d="M195.35,87.07l11.9-6.89c3.13,5.12,7.2,8.87,14.4,8.87,6,0,9.92-3,9.92-7.2,0-5-4-6.78-10.65-9.71l-3.65-1.56c-10.55-4.49-17.54-10.13-17.54-22,0-11,8.35-19.31,21.4-19.31,9.29,0,16,3.24,20.77,11.69l-11.38,7.31C228,43.75,225.3,42,221.13,42s-7,2.71-7,6.26c0,4.38,2.72,6.16,9,8.87l3.65,1.57c12.43,5.32,19.42,10.75,19.42,23C246.18,94.79,235.85,102,222,102,208.39,102,199.63,95.52,195.35,87.07Z"/><path class="cls-2" d="M257.87,30.08h14.61v71H257.87Z"/><path class="cls-2" d="M392.1,68.07a105.21,105.21,0,0,1-8.45-9.7,125.14,125.14,0,0,1,1,12.94v29.75H371V29.45h1.46l35.8,33.61a102,102,0,0,1,8.35,9.71s-.94-8-.94-12.94V30.08h13.67v71.6H427.9Z"/><path class="cls-2" d="M470.18,29.45h1.25l32.46,71.61H488.55l-3.34-8H456.4l-3.34,8H439ZM480,80.81l-5.12-12.32c-2.09-5-4.28-12.73-4.28-12.73a127.45,127.45,0,0,1-4.17,12.73L461.3,80.81Z"/><path class="cls-2" d="M519.76,42.92H499.51V30.08h55.11V42.92H534.37v58.14H519.76Z"/><path class="cls-2" d="M565.37,30.08h47V42.92H580V65.46h28.5V78H580V88.22H613.8v12.84H565.37Z"/><path class="cls-2" d="M627.37,30.08H642V88.22h32.15v12.84H627.37Z"/><path class="cls-2" d="M696.16,78.51,669.23,30.08h16.18l12.52,22.86a121.85,121.85,0,0,1,5.74,13.46,113,113,0,0,1,5.54-13.46l12-22.86h14.93L710.88,77.47v23.59H696.16Z"/><path class="cls-2" d="M330.79,101.76a11.32,11.32,0,0,0,1.58-3.55c.1-.42.05-.6-.46-.6q-7.71,0-15.43,0c-.46,0-.52.12-.41.54a11.17,11.17,0,0,0,1.7,3.76c-15.28-2.16-30.57-16-30.69-36a36.7,36.7,0,1,1,43.71,35.81Zm-7-14.52c2.94,0,5.89,0,8.83,0a3.91,3.91,0,0,0,4-4,1.29,1.29,0,0,1,.52-1c6.5-5.6,9.16-12.67,7.34-21.05a21.2,21.2,0,0,0-41.91,4,20.69,20.69,0,0,0,8,17.15A1,1,0,0,1,311,83c.11,2.77,1.61,4.21,4.37,4.21Zm.37,7.83c3.1,0,6.2,0,9.3,0a2.76,2.76,0,1,0,0-5.51q-9.23,0-18.45,0a2.75,2.75,0,0,0-2.95,2.76A2.72,2.72,0,0,0,315,95.07C318.06,95.08,321.11,95.07,324.16,95.07Z"/></g></g></svg>