<svg xmlns="http://www.w3.org/2000/svg" viewBox="0 0 525.13 1155"><defs><style>.cls-1{fill:#fed141;fill-rule:evenodd;}</style></defs><g id="Layer_2" data-name="Layer 2"><g id="Layer_1-2" data-name="Layer 1"><path class="cls-1" d="M0,1142,166,412H359.17l166,730h-134c-33,8-79.56,13-131.1,13h0c-51.54,0-98.07-5-131.1-13Z"/><path class="cls-1" d="M262.87,574h0C331.43,574,387,554.06,387,529.47c0-.27,0-.55,0-.82L269.15,13.54h.11L267.6,6.58h0C266.67,2.65,265,0,263,0h-.18c-2,0-3.71,2.65-4.63,6.58h0l-1.65,7h.1L138.76,528.65c0,.27,0,.55,0,.82,0,24.59,55.58,44.53,124.12,44.53Z"/></g></g></svg>