<svg xmlns="http://www.w3.org/2000/svg" viewBox="0 0 239.38 167"><defs><style>.cls-1{fill:#231f20;}</style></defs><g id="Layer_2" data-name="Layer 2"><g id="Layer_1-2" data-name="Layer 1"><path class="cls-1" d="M148.13,22.27a38.08,38.08,0,0,0,4.2-3.83.84.84,0,0,0-.66-1.4,49.81,49.81,0,0,1-8.52-.93,53.45,53.45,0,0,0-5.86-9.41.84.84,0,0,0-1.64-.31l-3,11.65a74.67,74.67,0,0,0-8.85-.1.84.84,0,0,0-.53,1.44A32.82,32.82,0,0,0,131,25.49a27.56,27.56,0,0,0-1.61,7.3c-.1,1.37-.71,4.79,1.38,5.09,1.87.28,3.58-2.59,4.54-3.77a57.33,57.33,0,0,0,4.53-6.51L147,35a.84.84,0,0,0,1.39-.43c.76-3-.81-6.4-1.88-9.33.06-.45-.16-.64-.17-1.12s.05-.5.61-.9S147.74,22.58,148.13,22.27Zm-2.61-.16c-.44.32-.94.63-1.08,1.19a1.12,1.12,0,0,0,.12.76.74.74,0,0,0,0,.59c.49,1.51,1,3,1.46,4.55a15.63,15.63,0,0,1,.85,3.22l-6-6.18a.73.73,0,0,0-1-.06.84.84,0,0,0-1.22.26,56.14,56.14,0,0,1-3.15,4.77,22,22,0,0,1-3.3,4,1,1,0,0,1-1.14.63l0-.78c-.33-1,.08-2.7.22-3.71a26,26,0,0,1,1.55-5.86.87.87,0,0,0-.35-1.13,31.52,31.52,0,0,1-6.61-4.83q3.65-.08,7.3.19a.65.65,0,0,0,.63-.29.79.79,0,0,0,.44-.54l2.58-10.13a53.73,53.73,0,0,1,5,8.37.67.67,0,0,0,.56.41,1,1,0,0,0,.39.19,53.46,53.46,0,0,0,7,.89A42,42,0,0,1,145.52,22.11Z"/><path class="cls-1" d="M155.5,10a16.35,16.35,0,0,0-9.59-8.92c-.5-.18-.68.64-.18.81a15.45,15.45,0,0,1,9,8.36C154.92,10.71,155.71,10.46,155.5,10Z"/><path class="cls-1" d="M158.27,6A15.81,15.81,0,0,0,152.82.07c-.46-.29-.85.45-.4.73a15.16,15.16,0,0,1,5.15,5.61C157.82,6.89,158.53,6.44,158.27,6Z"/><path class="cls-1" d="M125.67,40.26c-2.94-4-6-8.34-5.58-13.53,0-.53-.79-.49-.83,0-.44,5.33,2.68,9.85,5.7,13.94C125.28,41.14,126,40.7,125.67,40.26Z"/><path class="cls-1" d="M120.78,38a14.73,14.73,0,0,1-3.54-7.37c-.09-.52-.92-.49-.83,0a15.63,15.63,0,0,0,3.8,7.94C120.57,39.05,121.14,38.43,120.78,38Z"/><path d="M14,62.54a.39.39,0,0,0,.3.21,1.86,1.86,0,0,1,.37.1,23.57,23.57,0,0,1,2.94,1.44,12.89,12.89,0,0,1,2.59,2,14.27,14.27,0,0,1,1.81,2.22,14.75,14.75,0,0,1,1.34,2.59,14.71,14.71,0,0,1,.89,2.78c.2.93.38,1.9.53,2.9s.29,2.26.4,3.37a32.19,32.19,0,0,1,.12,3.42A10.2,10.2,0,0,1,25,86.25a12.93,12.93,0,0,1-1,2.52,14.83,14.83,0,0,1-4.61,5.37,11.49,11.49,0,0,1-6.16,2.17,15.39,15.39,0,0,1-5.64-.79,8.5,8.5,0,0,1-3.31-2.09A3.33,3.33,0,0,1,3.9,93a1,1,0,0,0-.47-.31,3.43,3.43,0,0,0-.1.57,2.59,2.59,0,0,1-.1.53,1,1,0,0,1-.12.34.28.28,0,0,1-.27.14H2.19c-.31,0-.48,0-.54-.16a6.33,6.33,0,0,1-.45-1.48A10.06,10.06,0,0,1,1,91.1c0-.52,0-1,0-1.58s0-1,0-1.57q0-3.4,0-6.75c0-2.24,0-4.47,0-6.71C1,73.23,1,72,.94,70.72S.88,68.22.9,67c0-.92,0-1.84-.06-2.77S.77,62.35.75,61.43C.67,59.12.51,56.84.27,54.61.14,53.5.06,52.42,0,51.37a25.14,25.14,0,0,1,.09-3.23,5,5,0,0,0,.06-1.09c0-.35,0-.71,0-1.08a7.37,7.37,0,0,1,.12-.75c0-.24.11-.48.16-.71a1,1,0,0,1,.38-.69,1.61,1.61,0,0,1,.73-.3.83.83,0,0,1,.65.1,1.65,1.65,0,0,1,.45.49,5.17,5.17,0,0,1,.51.85,3.58,3.58,0,0,0,.52.81.49.49,0,0,1,.15.35v.4c.06.89.11,1.78.16,2.66s.11,1.77.16,2.66.11,1.84.18,2.75.16,1.82.29,2.74c.21-.37.41-.74.59-1.11s.39-.73.6-1.1a22.13,22.13,0,0,1,2.07-3.33c.77-1,1.59-2,2.46-3a28.12,28.12,0,0,1,2.07-2.15,16.44,16.44,0,0,1,2.35-1.8,9.44,9.44,0,0,1,4-1.46,2.57,2.57,0,0,1,2.4.91,4.75,4.75,0,0,1,1,2.21l.24,1.18c.07.4.14.79.19,1.19a7.7,7.7,0,0,1-.08,2.25,12.92,12.92,0,0,1-.59,2.17,13.37,13.37,0,0,1-2.19,4,20.22,20.22,0,0,1-3.25,3.22l-.95.78a6.72,6.72,0,0,1-1,.71,1.87,1.87,0,0,0-.29.2A.62.62,0,0,0,14,62.54ZM19.6,79.27a32.3,32.3,0,0,0-.55-6.36,10.84,10.84,0,0,0-.77-2.54,6.34,6.34,0,0,0-1.56-2.15,11.09,11.09,0,0,0-4.93-2.61,7,7,0,0,0-1.38-.17A3.83,3.83,0,0,0,9,65.65a7.4,7.4,0,0,1-1.44.42c-.49.09-1,.16-1.48.22a1.8,1.8,0,0,0-.67.17,1.48,1.48,0,0,0-.24.65A8.61,8.61,0,0,0,5,68.91v3.51c0,.57,0,1.14,0,1.72,0,.86-.08,1.73-.14,2.58s-.1,1.7-.1,2.55c0,.68,0,1.36-.08,2s-.12,1.36-.2,2.05a5.67,5.67,0,0,0,.28,2.39,4.26,4.26,0,0,0,1.46,1.91A9.59,9.59,0,0,0,10,89.54a7.27,7.27,0,0,0,4.16-.33,8.14,8.14,0,0,0,3.59-2.37,8.11,8.11,0,0,0,1.74-4,13.8,13.8,0,0,0,.11-1.8C19.56,80.47,19.58,79.87,19.6,79.27ZM18.42,46.48A11.84,11.84,0,0,0,14.63,49a48.33,48.33,0,0,0-4.28,5.47,46.9,46.9,0,0,0-3.41,6.05c-.05.14-.11.29-.18.46a3,3,0,0,0-.14.65,6.93,6.93,0,0,1,1-.91c.34-.24.67-.47,1-.71l1.57-1.12a13.8,13.8,0,0,0,1.5-1.25c.5-.47,1-1,1.42-1.44s.9-1,1.35-1.51A16.73,16.73,0,0,0,18.42,46.48Z"/><path d="M53.11,105.59a2,2,0,0,1-.85-.24,2.92,2.92,0,0,1-.71-.43,2.65,2.65,0,0,1-.66-.77,13.85,13.85,0,0,1-1.27-3.82c-.23-1.31-.41-2.65-.52-4-.06-.83-.1-1.66-.11-2.49s0-1.66,0-2.5c.06-1.27.1-2.52.14-3.75s.08-2.48.14-3.75q0-.51.09-1c0-.34.06-.71.06-1.11-.27.25-.52.49-.72.71a3.56,3.56,0,0,0-.53.74,32.67,32.67,0,0,1-2.16,3.41l-2.38,3.3a11.58,11.58,0,0,0-1,1.39,12.34,12.34,0,0,1-1,1.39c-.27.33-.54.65-.82.94l-.84.85A25.08,25.08,0,0,1,38,96.11a8.07,8.07,0,0,1-2.41,1.18,7.54,7.54,0,0,1-4.26.21,3.42,3.42,0,0,1-1.68-.89A5.71,5.71,0,0,1,28.51,95a5.54,5.54,0,0,1-.66-1.89,11.08,11.08,0,0,1-.12-2,15.56,15.56,0,0,1,.45-3.74,35.55,35.55,0,0,1,1.12-3.65c.34-.88.7-1.73,1.08-2.57a14,14,0,0,1,1.41-2.4,20.39,20.39,0,0,1,4.77-4.68A32.74,32.74,0,0,1,40,72a21.86,21.86,0,0,1,3.78-1.55,27.21,27.21,0,0,1,8-1.25.37.37,0,0,0,.21,0,.42.42,0,0,1,.16,0L53,67.39c.27-.56.55-1.12.85-1.69a.9.9,0,0,1,.57-.53,1.61,1.61,0,0,1,.94,0,1.87,1.87,0,0,1,1.34,1,3.3,3.3,0,0,1,.36,1.47A6.86,6.86,0,0,1,57,69.55c-.14.62-.27,1.22-.41,1.81-.31,1.53-.6,3-.88,4.56a39,39,0,0,0-.56,4.6c-.13,2-.18,3.88-.16,5.78s.1,3.83.24,5.76c.07,1.16.17,2.31.29,3.45s.24,2.29.37,3.43c.06.65.15,1.28.25,1.91s.22,1.27.34,1.93c0,.1,0,.29,0,.56a1.3,1.3,0,0,1-.25.86,4,4,0,0,1-.69.64,2.65,2.65,0,0,1-.75.38l-.78.23C53.7,105.51,53.4,105.56,53.11,105.59ZM35.8,93.21l.19,0a1.68,1.68,0,0,0,.38-.1,9,9,0,0,0,3.92-3q.45-.61.84-1.23T42,87.63c.57-.77,1.16-1.51,1.78-2.21a11.43,11.43,0,0,0,1.61-2.36,20.56,20.56,0,0,1,1.2-1.93c.44-.63.85-1.26,1.24-1.89l1.49-2.49a24.84,24.84,0,0,0,1.33-2.56c.12-.27.23-.55.33-.83a2.36,2.36,0,0,0,.09-.94,4.38,4.38,0,0,0-.83.1,5.56,5.56,0,0,0-.77.22q-1.5.49-3,1.08a26.26,26.26,0,0,0-2.85,1.33c-.75.42-1.47.86-2.15,1.33a6.93,6.93,0,0,0-1.74,1.76c-.2.32-.42.62-.63.92a10.47,10.47,0,0,0-.6.93c-.29.52-.57,1-.85,1.57a14.85,14.85,0,0,0-.74,1.63,10.47,10.47,0,0,0-.5,1.46c-.12.5-.25,1-.38,1.52a18.59,18.59,0,0,0-.52,2.55,16.26,16.26,0,0,0-.13,2.62,7.56,7.56,0,0,0,.09.91A1.93,1.93,0,0,0,35.8,93.21Z"/><path d="M66.07,47.51l-.53-.07a4.26,4.26,0,0,0-.54,0H59.12c-.44,0-.9,0-1.36.06a10.85,10.85,0,0,1-1.4,0,3.79,3.79,0,0,1-.73-.08c-.25-.06-.49-.12-.73-.2a3.27,3.27,0,0,1-.59-.3,6.52,6.52,0,0,0-.59-.33,1.07,1.07,0,0,1,1-1l2.14-.22c.71-.06,1.4-.13,2.09-.21,1.13-.11,2.25-.19,3.35-.24s2.21,0,3.31,0l.32,0a.89.89,0,0,0,.32-.06l.15-1.1c.06-.37.11-.74.16-1.11.13-.76.26-1.46.38-2.11s.24-1.35.37-2.11c0-.39.12-.79.2-1.18s.14-.79.2-1.19v-.35A1.6,1.6,0,0,1,69,33.78a5.11,5.11,0,0,1,1.32-.21,1.64,1.64,0,0,1,1.2.49,3.3,3.3,0,0,1,.77.87,1.64,1.64,0,0,1,.18,1.18,7.2,7.2,0,0,0-.06,1.15c0,.39,0,.77,0,1.14a17.44,17.44,0,0,1-.14,2.23,17.44,17.44,0,0,0-.14,2.23v1.85h1c.32,0,.63,0,1,0,1.18,0,2.35,0,3.51.14a20.92,20.92,0,0,1,3.47.57,5.28,5.28,0,0,1,.77.24l.77.32a1.84,1.84,0,0,1,.22.17.8.8,0,0,0,.25.18,1.47,1.47,0,0,1-.8.51,4,4,0,0,1-.85.08c-.61,0-1.19,0-1.76,0s-1.15,0-1.76.06l-2.58.18-2.58.18-.24.06a1.62,1.62,0,0,0-.32.09v.89c0,.44,0,1,0,1.56s0,1.24,0,1.91,0,1.31,0,1.92,0,1.12,0,1.56V61.8q0,.95,0,2.76c0,1.21.06,2.58.1,4.1s.09,3.12.14,4.78.13,3.24.22,4.75.18,2.88.28,4.1A21.92,21.92,0,0,0,73.17,85c.18.94.39,1.89.61,2.84a23.68,23.68,0,0,0,.85,2.8,3.89,3.89,0,0,1,.12.49,2,2,0,0,0,.12.49c.08.22.15.42.23.61a4.41,4.41,0,0,0,.28.58L76,93.91c.2.34.4.7.61,1.07a.79.79,0,0,1,.1.81,1.14,1.14,0,0,1-.73.49,5.4,5.4,0,0,1-1.87.06,10.3,10.3,0,0,1-1.8-.45A5.73,5.73,0,0,1,70,94.56a9.07,9.07,0,0,1-1.63-2.15,18.74,18.74,0,0,1-1.64-4c-.38-1.36-.72-2.74-1-4.16a15,15,0,0,1-.19-2c-.06-1-.1-2.07-.14-3.33s-.07-2.6-.1-4,0-2.77-.08-4,0-2.37,0-3.33v-2c0-1,0-2,0-2.93s0-1.93.08-2.9c0-.32.06-.79.1-1.41s.08-1.31.14-2.09.1-1.58.15-2.42.11-1.65.16-2.43.1-1.47.14-2.09.07-1.09.1-1.4Z"/><path d="M89.61,77c0-.52.12-1,.19-1.57s.15-1.06.2-1.58c.13-1,.25-2,.34-3.08s.21-2,.37-3.08l.57-3.21c.2-1.07.43-2.14.7-3.22a30.19,30.19,0,0,1,1-3.39,19.5,19.5,0,0,1,1.52-3.2c.39-.65.79-1.29,1.2-1.91a7.77,7.77,0,0,1,1.52-1.68l.65-.53a6.75,6.75,0,0,1,.69-.45,1.73,1.73,0,0,1,.91-.3,3.83,3.83,0,0,1,1,.1,6.52,6.52,0,0,1,1.63.61,13.17,13.17,0,0,1,1.48.93.76.76,0,0,1,.36.27c.29.5.57,1,.85,1.46a7.65,7.65,0,0,1,.65,1.5,17.09,17.09,0,0,1,.49,2.06c.12.68.24,1.38.38,2.09a6.91,6.91,0,0,1,.13,1.22,6.08,6.08,0,0,0,.18,1.22,7.78,7.78,0,0,1,.18,2.63,10.44,10.44,0,0,0,.06,2.62.9.9,0,0,1,0,.49,2.35,2.35,0,0,0-.06.54c0,.6,0,1.22.06,1.85s0,1.25.1,1.85c.08,1,.17,2,.27,3s.21,2,.32,3,.15,2,.22,3,.16,2,.29,3a4.87,4.87,0,0,0,.28,1.06,11.17,11.17,0,0,1,.35,1.07,3.51,3.51,0,0,1,.12.94,4.08,4.08,0,0,1-.1.93,4.21,4.21,0,0,1-.29.89,1,1,0,0,1-1.34.75,6.38,6.38,0,0,1-4.31-3.43A25.27,25.27,0,0,1,101,80.69a32.31,32.31,0,0,1-.89-5.11q-.31-3.19-.41-6.39t.1-6.39a32.46,32.46,0,0,0,0-3.69q-.11-1.83-.18-3.69a.72.72,0,0,0-.06-.29,2.94,2.94,0,0,1-.14-.46c-.24.37-.45.71-.65,1a6.83,6.83,0,0,0-.49.91c-.55,1.15-1.05,2.32-1.48,3.49a25.58,25.58,0,0,0-1,3.65,13,13,0,0,1-.31,1.34c-.13.45-.25.89-.36,1.34s-.24,1.07-.33,1.62-.2,1.09-.3,1.62c-.29,1.34-.53,2.68-.71,4s-.39,2.47-.53,3.69-.31,2.45-.5,3.69c-.1.71-.23,1.41-.37,2.09a14.48,14.48,0,0,1-.61,2,4.71,4.71,0,0,1-1,1.64q-.67.69-1.38,1.32a5.3,5.3,0,0,1-1,.69q-.52.3-1.08.57a1.61,1.61,0,0,1-1.24.18,2.19,2.19,0,0,1-1-.85A11.64,11.64,0,0,1,84.12,87a8.28,8.28,0,0,1-.55-1.9c-.13-.84-.24-1.67-.31-2.48S83.08,81,83,80.16c0-.58-.12-1.16-.2-1.74l-.24-1.73c-.23-2-.44-3.88-.61-5.8s-.27-3.87-.29-5.84c0-3.13-.1-6.25-.12-9.35s0-6.22-.08-9.35q0-3.36,0-6.67t0-6.67a2.17,2.17,0,0,1,.45-1.34A1.91,1.91,0,0,1,83.22,31a2.94,2.94,0,0,1,2.09.55,3,3,0,0,1,1,1.15,6.65,6.65,0,0,1,.53,1.46A14.59,14.59,0,0,1,87.3,37c0,1,.08,1.94.14,2.92s.06,1.77.12,2.64l.15,2.6c0,.5,0,1,0,1.48s0,1,0,1.48,0,1,.06,1.42.05,1,.1,1.42q.08,1.23.18,2.43c.06.8.14,1.61.22,2.43a21.15,21.15,0,0,1,.13,3.27c0,1.08-.08,2.17-.13,3.28a7.52,7.52,0,0,0,0,1.34c.06.45.11.89.16,1.34s0,1,.08,1.5.07,1,.12,1.54q.08,1.07.12,2.13c0,.71.06,1.43.12,2.17s.09,1.3.13,1.93.09,1.28.14,1.93c0,.14.06.26.08.38s0,.24.08.37A.42.42,0,0,0,89.61,77Z"/><path d="M137.57,70.75c-.07,1.08-.17,2.15-.3,3.2a28,28,0,0,1-.58,3.18c-.05.24-.11.46-.18.69a4.59,4.59,0,0,1-.26.63l-.7,2.15a1.08,1.08,0,0,1-.7,0,1,1,0,0,1-.43-.55,5.63,5.63,0,0,1-.61-3.2c.06-.77.15-1.54.27-2.32s.22-1.55.28-2.32a16.2,16.2,0,0,0,0-1.71c0-.58,0-1.16-.06-1.73a2.13,2.13,0,0,0-.1-.56l-.17-.62q-.45.23-.87.39a5.41,5.41,0,0,0-.79.42,32.9,32.9,0,0,0-3.14,2.22,29,29,0,0,0-2.85,2.59A23.25,23.25,0,0,0,124.13,76a22.92,22.92,0,0,0-1.82,3.12,1.29,1.29,0,0,0-.17.43L122,80c-.07.69-.12,1.37-.17,2s-.09,1.36-.1,2.06a22.46,22.46,0,0,1-.13,2.59c-.09.87-.16,1.74-.21,2.62,0,.27,0,.52,0,.76s0,.48,0,.73c-.06.55-.12,1.1-.17,1.65s-.1,1.1-.16,1.62-.07,1.08-.11,1.63-.07,1.1-.1,1.63v.73c0,.24,0,.49,0,.73a1.29,1.29,0,0,1-.08.55l-.19.52a9.9,9.9,0,0,1-.34,1,2,2,0,0,1-.6.78l-.28.18a1.18,1.18,0,0,1-.86.1,5.39,5.39,0,0,1-1.12.12,5.65,5.65,0,0,1-1.36-.13,3.41,3.41,0,0,1-1.19-.47,1.26,1.26,0,0,1-.6-.91,38,38,0,0,1-.12-4.23c0-1.69.08-3.53.19-5.54s.24-4.11.41-6.29.35-4.33.55-6.46.4-4.14.61-6.06.39-3.61.56-5.08.31-2.65.43-3.54.19-1.36.2-1.41a.71.71,0,0,1,.4-.2,4.29,4.29,0,0,1,.77-.12c.29,0,.58,0,.88,0s.53,0,.69,0a.24.24,0,0,1,.17,0s0,0,0,0v0a1.4,1.4,0,0,1,.46,0l.41.09a.62.62,0,0,1,.52.39,6.29,6.29,0,0,0,.26.7,15,15,0,0,1,.71,2.92q.19,1.52.27,3.06c0,.71,0,1.41,0,2.1s0,1.39-.07,2.09a.33.33,0,0,0,0,.14v.26l.38-.48c.11-.14.21-.27.29-.39a16.49,16.49,0,0,1,2.7-3c.85-.73,1.72-1.45,2.59-2.15a16.18,16.18,0,0,1,2.85-1.81,6.77,6.77,0,0,1,.66-.33c.22-.1.45-.22.7-.35a3.42,3.42,0,0,1,1.63-.36,6.51,6.51,0,0,1,1.65.29,1,1,0,0,1,.52.39,4.3,4.3,0,0,1,.32.6,6.31,6.31,0,0,1,.7,2.48A24.89,24.89,0,0,1,137.57,70.75Z"/><path d="M168.35,69.51c0,1.26-.07,2.38-.12,3.37a14.1,14.1,0,0,1-.44,2.86c-.21.79-.43,1.57-.67,2.35a16.44,16.44,0,0,1-.9,2.31c-.37.71-.75,1.4-1.15,2.09l-1.18,2.05a8.22,8.22,0,0,1-1.5,1.81,16.86,16.86,0,0,1-1.82,1.46.27.27,0,0,1-.13.1.53.53,0,0,0-.14.1,5.77,5.77,0,0,1-2.76,1.4,15.69,15.69,0,0,1-3.08.3,6.7,6.7,0,0,1-1.34-.14l-1.34-.26a11.21,11.21,0,0,1-5.55-2.68,14.58,14.58,0,0,1-3.49-5,19.18,19.18,0,0,1-1.54-5.4,25.63,25.63,0,0,1-.08-5.61,36,36,0,0,1,.63-4.18,32.76,32.76,0,0,1,1.15-4.06,26.79,26.79,0,0,1,2.64-5.59,20.37,20.37,0,0,1,4.07-4.67,12.11,12.11,0,0,1,7.53-3,6.92,6.92,0,0,1,3.61.69,8.8,8.8,0,0,1,2.86,2.35A13.75,13.75,0,0,1,165.8,56a32.82,32.82,0,0,1,1.28,4.16,26.45,26.45,0,0,1,.5,2.6c.12.87.24,1.75.37,2.64s.24,1.52.34,2.25A8.67,8.67,0,0,1,168.35,69.51Zm-18.74,3.9a14.79,14.79,0,0,0,.51,3.3,12.09,12.09,0,0,0,1.66,3.69,8.11,8.11,0,0,0,3.05,2.8,7.63,7.63,0,0,0,4.13.71,4.87,4.87,0,0,0,1.06-.28c.34-.13.69-.27,1-.43a4,4,0,0,0,1.6-1.42c.38-.61.74-1.24,1.08-1.9a13,13,0,0,0,1.11-3.31c.21-1.13.36-2.27.47-3.43.1-1,.16-2,.16-3a13.82,13.82,0,0,0-.32-2.92c-.13-.68-.25-1.37-.35-2.05s-.24-1.37-.4-2c-.21-1-.47-1.94-.77-2.88a12.15,12.15,0,0,0-1.24-2.69,11.5,11.5,0,0,0-1.62-2.13,6.43,6.43,0,0,0-2.25-1.5,3,3,0,0,0-1.89-.21,3.06,3.06,0,0,0-1.5,1.2,23.68,23.68,0,0,0-3.35,6,33.06,33.06,0,0,0-1.56,5.78A42.22,42.22,0,0,0,149.61,73.41Z"/><path d="M197.27,75.23c0,1.27-.07,2.39-.12,3.38a15,15,0,0,1-.44,2.86c-.21.79-.43,1.57-.67,2.34a16,16,0,0,1-.9,2.31c-.37.71-.75,1.41-1.15,2.09l-1.18,2.06a8.46,8.46,0,0,1-1.5,1.81,19.39,19.39,0,0,1-1.82,1.46.35.35,0,0,1-.13.1.28.28,0,0,0-.14.1,6,6,0,0,1-2.76,1.4,15.69,15.69,0,0,1-3.08.29A6.69,6.69,0,0,1,182,95.3c-.45-.1-.9-.18-1.34-.26a11.3,11.3,0,0,1-5.55-2.68,14.58,14.58,0,0,1-3.49-5,19.34,19.34,0,0,1-1.54-5.41,25.54,25.54,0,0,1-.08-5.6,35.66,35.66,0,0,1,.63-4.18,31.25,31.25,0,0,1,1.15-4.07,26.48,26.48,0,0,1,2.64-5.58,20.38,20.38,0,0,1,4.07-4.68,12.1,12.1,0,0,1,7.53-2.95,6.92,6.92,0,0,1,3.61.69,8.89,8.89,0,0,1,2.86,2.34,14,14,0,0,1,2.19,3.81A35.09,35.09,0,0,1,196,65.88c.21.87.38,1.74.5,2.61s.24,1.75.37,2.64.24,1.51.34,2.25A8.58,8.58,0,0,1,197.27,75.23Zm-18.74,3.91a14.63,14.63,0,0,0,.51,3.29,12.09,12.09,0,0,0,1.66,3.69,8,8,0,0,0,3.05,2.8,7.45,7.45,0,0,0,4.13.71,4.85,4.85,0,0,0,1.06-.27c.34-.13.69-.28,1-.44a3.85,3.85,0,0,0,1.59-1.42,21.66,21.66,0,0,0,1.09-1.89,12.75,12.75,0,0,0,1.1-3.31c.22-1.13.37-2.28.48-3.44.1-1,.16-2,.16-3a13.72,13.72,0,0,0-.32-2.91c-.13-.69-.25-1.37-.35-2.06s-.24-1.36-.4-2.05c-.21-1-.47-1.93-.77-2.88a13,13,0,0,0-2.86-4.81,6.43,6.43,0,0,0-2.25-1.5,3.07,3.07,0,0,0-1.89-.22,3.15,3.15,0,0,0-1.5,1.21,23.32,23.32,0,0,0-3.35,6,33.54,33.54,0,0,0-1.56,5.78A42.35,42.35,0,0,0,178.53,79.14Z"/><path d="M206.19,61.67c.21-.53.39-1,.55-1.44s.33-.88.52-1.32l1.18-2.77c.39-.92.83-1.81,1.3-2.68a7.3,7.3,0,0,1,1.4-1.83,5.94,5.94,0,0,1,2-1.25,2.31,2.31,0,0,1,1.86,0l.83.4.83.39a2.18,2.18,0,0,1,.8.73c.2.31.4.6.62.89a14.26,14.26,0,0,1,2.24,7.62c0,.44,0,.89,0,1.34l.06,1.34a2.71,2.71,0,0,0,.12.47c.21-.52.4-1,.57-1.52s.35-.95.54-1.4c.6-1.5,1.25-3,1.95-4.4a26.94,26.94,0,0,1,2.5-4.12,16.08,16.08,0,0,1,2.17-2.39,14.13,14.13,0,0,1,2.69-1.83,4.92,4.92,0,0,1,2.09-.61,6.54,6.54,0,0,1,2.17.25,2.42,2.42,0,0,1,1,.62,3.77,3.77,0,0,1,.68,1,15.68,15.68,0,0,1,2.05,6.79c0,1,.12,2,.21,3s.17,2,.22,3c0,1.21.07,2.4,0,3.59a26.76,26.76,0,0,1-.32,3.55,31.62,31.62,0,0,0-.25,3.63c0,1.21,0,2.43.06,3.67,0,.6.08,1.21.1,1.81s0,1.21.09,1.82a3.89,3.89,0,0,0,0,.47c0,.16.06.31.08.47a2.06,2.06,0,0,1,.06.69,1.39,1.39,0,0,1-.25.69,1.44,1.44,0,0,0-.3.54q-.1.28-.18.57a2.84,2.84,0,0,1-.47.87,1.48,1.48,0,0,1-.71.51l-1.15.43a1.87,1.87,0,0,1-1.26,0,1.13,1.13,0,0,1-.83-.91,23.77,23.77,0,0,1-.63-2.62,17.15,17.15,0,0,1-.27-2.7c0-.69,0-1.38,0-2.07a17.76,17.76,0,0,1,.06-2.07c.05-.9.11-1.79.19-2.69s.15-1.79.2-2.68c0-.58.08-1.14.08-1.7s0-1.11.08-1.69.13-1.23.23-1.86.2-1.25.28-1.85c.11-.84.21-1.66.32-2.47s.19-1.62.27-2.46.1-1.53.14-2.29.09-1.53.14-2.29a5.59,5.59,0,0,0-.2-2,.45.45,0,0,0-.51-.36,6.83,6.83,0,0,0-.83.14,3,3,0,0,0-.79.34A11.16,11.16,0,0,0,230,53.4a23.15,23.15,0,0,0-2.11,3.1c-.45.82-.88,1.64-1.28,2.49s-.81,1.69-1.21,2.56c-.29.63-.55,1.27-.79,1.91s-.46,1.3-.67,2c-.29.92-.55,1.83-.79,2.74s-.46,1.82-.67,2.74c-.15.71-.27,1.42-.35,2.13s-.15,1.42-.2,2.13c-.1,1.16-.19,2.3-.26,3.43s-.16,2.28-.29,3.44a4.52,4.52,0,0,1-.51,1.77,3.61,3.61,0,0,1-1.34,1.38,5.19,5.19,0,0,0-.52.34l-.47.37a.28.28,0,0,1-.16.1l-.16.06a2.13,2.13,0,0,1-1.42-.12,2.1,2.1,0,0,1-1.14-.87,4.83,4.83,0,0,1-.69-1.63c-.12-.57-.22-1.15-.3-1.76-.16-.92-.28-1.84-.37-2.76a20,20,0,0,1-.1-2.8c0-.16,0-.32,0-.49a5.24,5.24,0,0,0-.06-.54,3.23,3.23,0,0,1,0-.53.75.75,0,0,1,.2-.49.88.88,0,0,0,0-.28c0-.31-.06-.62-.1-.93a6.62,6.62,0,0,1-.06-.88c0-.4,0-.79,0-1.19s0-.8,0-1.22a1.55,1.55,0,0,0,0-.43,2.59,2.59,0,0,1,0-.48l.35-4.14c.06-.55.11-1.1.16-1.64s.11-1.08.16-1.64l.24-2.07c.08-.69.14-1.38.19-2.07a13.2,13.2,0,0,0,.06-1.77,5.3,5.3,0,0,0-.37-1.78,12.43,12.43,0,0,0-1.23,1.16,6.42,6.42,0,0,0-.94,1.41,8,8,0,0,1-.55.92c-.22.31-.41.61-.6.93a13,13,0,0,0-.9,2.11c-.24.72-.46,1.45-.67,2.19s-.41,1.36-.58,2-.36,1.35-.57,2c-.29,1.11-.53,2.2-.73,3.28a20.34,20.34,0,0,0-.33,3.35,14.36,14.36,0,0,1-.08,1.48,12.12,12.12,0,0,0-.08,1.48c0,.82,0,1.63,0,2.43s.06,1.6.12,2.38c0,.45,0,.91,0,1.37a6.85,6.85,0,0,0,0,1.36,2.36,2.36,0,0,1,0,.53c0,.17,0,.35,0,.53a3.84,3.84,0,0,1-.16,1.15,1.51,1.51,0,0,1-.46.67,2.07,2.07,0,0,1-.73.35,2.35,2.35,0,0,1-.84.16h-.85a1.27,1.27,0,0,1-.52-.1c-.15-.06-.31-.14-.47-.22a1.32,1.32,0,0,1-.45-.23,2.21,2.21,0,0,1-.34-.4,5.58,5.58,0,0,1-.87-1.93q-.15-.67-.27-1.32l-.24-1.32q-.19-1.38-.39-2.79c-.13-.93-.27-1.86-.4-2.78s-.25-2-.37-2.94-.21-1.94-.26-2.94c-.24-3.31-.39-6.62-.47-9.94-.05-1.23-.07-2.46-.06-3.67s0-2.44.06-3.71q0-1.38.12-2.76l.15-2.76a.69.69,0,0,1,.48-.67,2.07,2.07,0,0,1,1.48-.18,1.9,1.9,0,0,1,1.24.85,9.91,9.91,0,0,1,.75,1.28,7.75,7.75,0,0,1,.51,1.4,12.25,12.25,0,0,0,.32,1.33,7.36,7.36,0,0,1,.27,1.32,14.68,14.68,0,0,1,.22,1.75q.06.89.18,1.8.15,1.38.18,2.82A10.94,10.94,0,0,0,206.19,61.67Z"/><path d="M62.39,119.07a11.78,11.78,0,0,1,5,.51,9.6,9.6,0,0,1,4.32,3.07,7,7,0,0,1,1.61,3.68,1,1,0,0,1,0,.32,2.13,2.13,0,0,1-.11.57.69.69,0,0,1-.4.4.93.93,0,0,1-1.1-.29c-.35-.4-.7-.78-1.07-1.14s-.76-.74-1.14-1.13a5.57,5.57,0,0,0-1.79-1.18,6.85,6.85,0,0,0-2.08-.47,2,2,0,0,0-1.14.21l-1,.6a6.12,6.12,0,0,0-2.07,2.17,16.62,16.62,0,0,0-1.2,2.73,14.22,14.22,0,0,0-.67,2.89,24,24,0,0,0-.17,3c0,1,0,2,.1,3s.14,2,.21,3c0,.62.1,1.22.18,1.81s.15,1.19.22,1.81l.27,1.82c.09.59.19,1.2.31,1.8a36.63,36.63,0,0,0,.81,3.66,35.77,35.77,0,0,0,1.15,3.55q.3.81.6,1.65a9.9,9.9,0,0,0,.74,1.58,11.06,11.06,0,0,0,1.13,1.69,4.79,4.79,0,0,0,1.6,1.23l.6.21a2.45,2.45,0,0,0,.59.11,1.9,1.9,0,0,0,.93-.14,1.79,1.79,0,0,0,.75-.73,10.88,10.88,0,0,0,1.33-2.91,14.38,14.38,0,0,0,.52-3.17,27.46,27.46,0,0,0,0-3.62,3.89,3.89,0,0,1,.07-.86,3.33,3.33,0,0,1,.3-.81.87.87,0,0,1,.77-.45.94.94,0,0,1,.79.41.13.13,0,0,0,0,.09.1.1,0,0,1,0,.08,7.8,7.8,0,0,0,.57,1.62,4.31,4.31,0,0,1,.39,1.68,23.54,23.54,0,0,1,0,2.52,14.52,14.52,0,0,1-.34,2.48,12.23,12.23,0,0,1-.7,2.22c-.31.7-.65,1.39-1,2.06-.2.36-.41.69-.63,1s-.43.64-.63,1a3.92,3.92,0,0,1-1.38,1.34,13.12,13.12,0,0,1-1.73.82,7.68,7.68,0,0,1-3.3.46,12.26,12.26,0,0,1-3.25-.77,8,8,0,0,1-3.51-2.45,16,16,0,0,1-2.23-3.68c-.35-.85-.7-1.7-1-2.56a21.16,21.16,0,0,1-.83-2.63c-.38-1.38-.71-2.76-1-4.15s-.5-2.79-.67-4.2c-.2-1.56-.36-3.1-.49-4.63s-.17-3.06-.15-4.61c0-1.33,0-2.64,0-3.94a17.28,17.28,0,0,1,.54-3.89,18.55,18.55,0,0,1,1.48-3.84,14,14,0,0,1,2.42-3.29,10.3,10.3,0,0,1,2.87-2.06A17.69,17.69,0,0,1,62.39,119.07Z"/><path d="M93.58,163.53a4.23,4.23,0,0,1-1.42,1.66,4.86,4.86,0,0,1-1.56.66,4.54,4.54,0,0,1-1.76,0,6.72,6.72,0,0,1-1-1.26,7.62,7.62,0,0,1-.65-1.48,30.56,30.56,0,0,1-1-4c-.25-1.36-.47-2.72-.66-4.09s-.36-2.52-.55-3.76-.35-2.49-.48-3.76c-.18-1.75-.35-3.49-.5-5.23s-.32-3.5-.48-5.27-.3-3.26-.48-4.88-.33-3.24-.46-4.88c-.12-1.39-.22-2.78-.3-4.15s-.18-2.78-.27-4.2c0-.69-.07-1.37-.07-2a7.27,7.27,0,0,1,.29-2,6,6,0,0,1,.54-1.41.91.91,0,0,1,.4-.44,1.52,1.52,0,0,1,.57-.17,2.14,2.14,0,0,1,1.43.25,3.59,3.59,0,0,1,1.07,1,11.07,11.07,0,0,1,1.42,3.17,30.43,30.43,0,0,1,.69,3.42c.17,1.11.32,2.2.45,3.29s.26,2.18.38,3.29c.19,1.63.37,3.25.54,4.87s.31,3.24.43,4.88c.11,1.08.2,2.17.27,3.25s.13,2.16.19,3.25.17,2.07.27,3.08.19,2,.29,3c.08.73.16,1.45.26,2.16s.2,1.42.3,2.15c0,.54.12,1.1.2,1.66s.16,1.13.22,1.7.14,1.08.18,1.61.09,1.08.15,1.65a3.9,3.9,0,0,0,.22-.36c.06-.12.13-.24.21-.37s.37-.46.55-.7a7.4,7.4,0,0,1,.6-.67.72.72,0,0,1,1-.06.41.41,0,0,1,.25.37,4.66,4.66,0,0,1-.06.47,12.84,12.84,0,0,1-.72,2.17C94.23,162.14,93.91,162.83,93.58,163.53Z"/><path d="M120.46,137.06c-.35,1-.7,2.07-1.06,3.08s-.75,2-1.17,3.06a20.67,20.67,0,0,1-1.34,2.81c-.52.9-1.08,1.77-1.68,2.63a10.62,10.62,0,0,1-3.24,3.14,8.27,8.27,0,0,1-4.45,1.13,9.26,9.26,0,0,1-4.71-1.2,10.77,10.77,0,0,1-3.5-3.4A18.22,18.22,0,0,1,97.62,145a21.52,21.52,0,0,1-1-3.56,22.22,22.22,0,0,1-.46-2.85c-.08-1-.15-1.91-.2-2.88a22.79,22.79,0,0,1,0-3,25.36,25.36,0,0,1,.37-3,32.07,32.07,0,0,1,1-4.27,16,16,0,0,1,1.9-4,12.61,12.61,0,0,1,1.68-2.09,14.4,14.4,0,0,1,2.08-1.7,13.54,13.54,0,0,1,2-1.08,9.17,9.17,0,0,1,2.17-.64,10.77,10.77,0,0,1,2.53-.12,5.84,5.84,0,0,1,2.48.78l.63.35c.21.11.43.21.66.31a8,8,0,0,1,2.07,1.5,19.14,19.14,0,0,1,1.69,2,6.44,6.44,0,0,1,1.1,2.32,8.18,8.18,0,0,1,.2,2.63,13.89,13.89,0,0,1-3.36,8c-.58.69-1.16,1.35-1.77,2a23.8,23.8,0,0,1-1.92,1.83,16.65,16.65,0,0,1-3.07,2,11.37,11.37,0,0,1-3.52,1.08,1.67,1.67,0,0,0-.32.1,15.28,15.28,0,0,0,1,2.8,8.19,8.19,0,0,0,1.71,2.33,5.59,5.59,0,0,0,2,1.19,6.09,6.09,0,0,0,2.27.3,1.4,1.4,0,0,0,.85-.28c.23-.18.47-.38.71-.6a11.37,11.37,0,0,0,1.33-1.69,18.17,18.17,0,0,0,1.06-1.88c.46-.89.86-1.78,1.23-2.67a26.94,26.94,0,0,0,.93-2.75,4.55,4.55,0,0,1,.54-1.15,1.7,1.7,0,0,1,1-.66,1.84,1.84,0,0,1,.76.13,1.16,1.16,0,0,1,.44.44A.92.92,0,0,1,120.46,137.06Zm-16.38,1.66c.3-.08.58-.14.82-.19a4.29,4.29,0,0,0,.72-.22,10.51,10.51,0,0,0,2.27-1.08,13,13,0,0,0,2-1.51c.5-.46,1-.92,1.43-1.38s.9-1,1.32-1.45a10.3,10.3,0,0,0,2-3.29,12.79,12.79,0,0,0,.79-3.77,4.05,4.05,0,0,0-.18-1.68,3.47,3.47,0,0,0-.93-1.43,5.17,5.17,0,0,0-2.86-1.47,4.4,4.4,0,0,0-3.1.69,8.18,8.18,0,0,0-2.21,2,10.27,10.27,0,0,0-1.43,2.6,19,19,0,0,0-1.13,5,26.52,26.52,0,0,0-.12,2.81,19,19,0,0,0,.24,2.8c.05.26.11.51.17.76Z"/><path d="M146.63,163.23a1.92,1.92,0,0,1-.79,0,2.54,2.54,0,0,1-.72-.22,2.41,2.41,0,0,1-.75-.53,12.61,12.61,0,0,1-2-3.05c-.49-1.1-.94-2.23-1.35-3.41-.24-.71-.46-1.43-.65-2.15s-.37-1.46-.52-2.2c-.23-1.13-.48-2.23-.72-3.31s-.48-2.19-.72-3.32l-.15-.91a7.66,7.66,0,0,0-.19-1c-.18.28-.34.54-.47.78a3.54,3.54,0,0,0-.3.76,29.9,29.9,0,0,1-1.13,3.47l-1.34,3.42a9.89,9.89,0,0,0-.53,1.43,12,12,0,0,1-.54,1.44,10.36,10.36,0,0,1-.5,1l-.55.93a20.7,20.7,0,0,1-1.45,2,7,7,0,0,1-1.84,1.57,6.7,6.7,0,0,1-3.68,1.13,3,3,0,0,1-1.67-.4,5.4,5.4,0,0,1-1.35-1.11,5.29,5.29,0,0,1-1-1.51,10,10,0,0,1-.55-1.73,13.87,13.87,0,0,1-.44-3.38,30.79,30.79,0,0,1,.16-3.44c.1-.84.23-1.67.37-2.49a11.45,11.45,0,0,1,.7-2.42,18.34,18.34,0,0,1,3.12-5.15,28.91,28.91,0,0,1,2.55-2.63,20.54,20.54,0,0,1,3-2.21,25.6,25.6,0,0,1,3.28-1.7,25,25,0,0,1,3.45-1.18.38.38,0,0,0,.17,0,.27.27,0,0,1,.14-.05c.13-.61.24-1.19.36-1.74s.23-1.11.36-1.67a.78.78,0,0,1,.39-.59,1.45,1.45,0,0,1,.82-.18,1.68,1.68,0,0,1,1.4.59,3,3,0,0,1,.65,1.2,6.22,6.22,0,0,1,.29,1.66c0,.57,0,1.13,0,1.68.08,1.4.16,2.79.26,4.18a34.37,34.37,0,0,0,.53,4.15c.33,1.73.71,3.43,1.16,5.09s.95,3.33,1.5,5c.32,1,.66,2,1,2.95s.73,2,1.09,2.92c.2.55.42,1.09.65,1.61l.72,1.61c0,.09.09.26.16.49a1.23,1.23,0,0,1,0,.81,3.65,3.65,0,0,1-.46.71,2.27,2.27,0,0,1-.58.5l-.62.37A7.27,7.27,0,0,1,146.63,163.23Zm-17.91-6.95.18,0a1.31,1.31,0,0,0,.3-.18,8.09,8.09,0,0,0,2.75-3.54c.17-.42.32-.85.46-1.27s.29-.84.46-1.26c.32-.8.68-1.58,1.07-2.33a10.57,10.57,0,0,0,.87-2.42,20.39,20.39,0,0,1,.62-2c.25-.64.47-1.28.66-1.93l.75-2.51a25,25,0,0,0,.59-2.53,7.28,7.28,0,0,0,.1-.8,2.19,2.19,0,0,0-.12-.85,5.84,5.84,0,0,0-.71.27,4.83,4.83,0,0,0-.62.37c-.81.52-1.6,1.05-2.36,1.61a23.65,23.65,0,0,0-2.2,1.8c-.56.54-1.09,1.09-1.58,1.65a6.13,6.13,0,0,0-1.13,1.93c-.11.32-.23.64-.35.95a8,8,0,0,0-.31.94c-.14.52-.27,1-.39,1.57a14.15,14.15,0,0,0-.29,1.58,8.13,8.13,0,0,0-.1,1.39v1.42a15.36,15.36,0,0,0,.12,2.35,14.12,14.12,0,0,0,.47,2.31,6.09,6.09,0,0,0,.28.78A2,2,0,0,0,128.72,156.28Z"/><path d="M158,138.52c.1-.49.19-1,.28-1.48s.17-1,.24-1.48c.11-.82.24-1.63.4-2.42a20.63,20.63,0,0,1,.61-2.37c.25-.87.51-1.73.79-2.61s.57-1.75.89-2.62.58-1.53.89-2.28.64-1.48,1-2.21.55-1.19.82-1.77.58-1.16.9-1.74a8.32,8.32,0,0,1,.69-1.09c.26-.35.52-.7.77-1.07.14-.2.28-.39.42-.56s.28-.36.43-.56a1.53,1.53,0,0,1,1.18-.7H169a5.58,5.58,0,0,0,.7,0,1,1,0,0,1,.7.23,6.2,6.2,0,0,1,.52.5,3.1,3.1,0,0,1,.52.7,6.29,6.29,0,0,1,.35.79,18.12,18.12,0,0,1,.8,3.41,30.8,30.8,0,0,1,.27,3.5c0,1,.06,2,.08,3s.06,2,.12,3c0,1.74.15,3.47.28,5.2s.32,3.45.57,5.17c.14.82.26,1.64.38,2.47a21,21,0,0,0,.53,2.45l.2.71c.06.22.12.45.19.68a3.16,3.16,0,0,1,.15.54.84.84,0,0,1-.14.57s0,0,0,0,0,0,0,0a1,1,0,0,1-.17.92,4.13,4.13,0,0,1-.75.58c-.29.15-.58.3-.85.46s-.56.32-.88.47a2.37,2.37,0,0,1-1.5.15,2.47,2.47,0,0,1-1.35-.72.62.62,0,0,1-.16-.3,1.21,1.21,0,0,0-.12-.35.92.92,0,0,1-.07-.26.88.88,0,0,0-.06-.26,36.41,36.41,0,0,1-1.45-7.8c-.06-.52-.11-1-.18-1.54s-.1-1-.11-1.55c0-.83-.06-1.66-.06-2.5s0-1.67,0-2.5,0-1.39,0-2.08,0-1.39.09-2.09c0-.55,0-1.1.1-1.66s.09-1.11.13-1.66c.06-1,.13-2.06.22-3.09a22.85,22.85,0,0,0,0-3.1,2,2,0,0,0,0-.42,5,5,0,0,1-.07-.5,7.07,7.07,0,0,0-1.59,2q-.33.64-.6,1.29c-.18.44-.37.87-.56,1.3l-.66,1.43c-.23.48-.45,1-.66,1.43a14.17,14.17,0,0,0-.59,1.56c-.26.75-.51,1.48-.75,2.21s-.5,1.47-.76,2.21c-.11.35-.2.71-.28,1.09s-.16.75-.25,1.12c-.21.95-.41,1.9-.61,2.85s-.4,1.91-.58,2.86a10.75,10.75,0,0,0-.25,1.47,14.05,14.05,0,0,1-.2,1.47,10.28,10.28,0,0,0-.14,2.15c0,.73,0,1.45,0,2.17,0,.34-.05.67-.1,1s-.07.68-.09,1,0,.62,0,.92a3.37,3.37,0,0,1-.09.89,5.33,5.33,0,0,1-.36,1.32,1.51,1.51,0,0,1-.26.46,2.63,2.63,0,0,1-.44.37,1.58,1.58,0,0,1-.5.18l-.55.07-.52,0a.6.6,0,0,1-.43-.19,5.51,5.51,0,0,1-1.35-1.65,16.07,16.07,0,0,1-1.15-2.77c-.29-.94-.54-1.89-.76-2.87s-.48-2.25-.74-3.37-.49-2.24-.68-3.36q-.32-2-.54-4.05c-.15-1.36-.3-2.72-.44-4.09-.11-1.06-.19-2.13-.24-3.2s-.11-2.15-.18-3.24c-.07-1.36-.1-2.76-.11-4.22a6.57,6.57,0,0,1,.12-1.23,3.84,3.84,0,0,1,.45-1.19,1.25,1.25,0,0,1,.9-.7,2.43,2.43,0,0,1,.92-.06,1.32,1.32,0,0,1,.81.52,6.17,6.17,0,0,1,.61.93,3.82,3.82,0,0,1,.38,1c.1.47.2.92.32,1.35s.23.87.35,1.34c.19.65.34,1.29.47,1.92s.23,1.29.33,2c.15,1,.3,2,.46,2.93s.32,1.93.47,2.92.31,2.11.47,3.16.31,2.1.47,3.16c.06.32.11.65.17,1s.13.64.21,1Z"/><path d="M202.58,135c-.15,1.09-.31,2.16-.49,3.23s-.37,2.13-.6,3.21a21.88,21.88,0,0,1-.81,3c-.35,1-.74,1.94-1.18,2.88a10.64,10.64,0,0,1-2.62,3.68,8.25,8.25,0,0,1-4.18,1.9,9.13,9.13,0,0,1-4.85-.33,10.82,10.82,0,0,1-4-2.71,19,19,0,0,1-2.26-3,20.64,20.64,0,0,1-1.65-3.33,22.12,22.12,0,0,1-1-2.72c-.25-.92-.49-1.85-.72-2.8a26.42,26.42,0,0,1-.52-2.93,24.52,24.52,0,0,1-.16-3,30.31,30.31,0,0,1,.26-4.38,15.84,15.84,0,0,1,1.16-4.24,12.4,12.4,0,0,1,1.28-2.35,12.94,12.94,0,0,1,1.74-2,12.75,12.75,0,0,1,1.79-1.43,9.58,9.58,0,0,1,2-1,11.79,11.79,0,0,1,2.47-.57,5.68,5.68,0,0,1,2.58.32c.22.09.45.16.68.23l.71.19a8,8,0,0,1,2.3,1.11,19.21,19.21,0,0,1,2,1.63,6.39,6.39,0,0,1,1.5,2.09,8.27,8.27,0,0,1,.67,2.55,13.9,13.9,0,0,1-1.88,8.45q-.66,1.17-1.38,2.28a19.18,19.18,0,0,1-1.56,2.14,16.18,16.18,0,0,1-2.66,2.52,11.22,11.22,0,0,1-3.28,1.7l-.28.16a15.3,15.3,0,0,0,1.52,2.56,8.48,8.48,0,0,0,2.1,2,5.59,5.59,0,0,0,2.15.82,6.37,6.37,0,0,0,2.29-.11,1.38,1.38,0,0,0,.78-.44,7.17,7.17,0,0,0,.59-.71,12,12,0,0,0,1-1.9,18.89,18.89,0,0,0,.7-2c.29-1,.54-1.91.73-2.85a25.45,25.45,0,0,0,.42-2.87,5.12,5.12,0,0,1,.33-1.23,1.73,1.73,0,0,1,.89-.83,1.87,1.87,0,0,1,.78,0,1.33,1.33,0,0,1,.51.35A.92.92,0,0,1,202.58,135Zm-15.81,4.57.77-.33a4.67,4.67,0,0,0,.67-.34,11.5,11.5,0,0,0,2-1.47,13.87,13.87,0,0,0,1.67-1.84c.41-.54.8-1.08,1.16-1.62s.71-1.09,1-1.66a10.42,10.42,0,0,0,1.4-3.6,12.7,12.7,0,0,0,.1-3.85,4.08,4.08,0,0,0-.47-1.62A3.57,3.57,0,0,0,194,122a5.23,5.23,0,0,0-3.08-.94,4.45,4.45,0,0,0-2.92,1.24,8,8,0,0,0-1.81,2.37,10.09,10.09,0,0,0-.95,2.82,18.73,18.73,0,0,0-.2,5.14,23.23,23.23,0,0,0,.38,2.78,19.26,19.26,0,0,0,.74,2.72c.09.24.19.48.3.71S186.64,139.28,186.77,139.54Z"/><path d="M223.75,124c.24,1,.46,1.9.64,2.84a26.48,26.48,0,0,1,.39,2.89c0,.22,0,.43,0,.64a6,6,0,0,1-.05.62v2a1,1,0,0,1-.61.19.91.91,0,0,1-.52-.36,5,5,0,0,1-1.41-2.58c-.17-.67-.3-1.36-.41-2.07s-.25-1.39-.42-2.07a13.74,13.74,0,0,0-.45-1.47c-.19-.5-.36-1-.53-1.47a2.94,2.94,0,0,0-.25-.46l-.31-.48c-.22.21-.43.4-.64.58a4.46,4.46,0,0,0-.57.58,32.81,32.81,0,0,0-2.08,2.77,26.55,26.55,0,0,0-1.72,3,19.88,19.88,0,0,0-1.18,3,21.3,21.3,0,0,0-.69,3.19,1.41,1.41,0,0,0,0,.42l.05.44q.19.92.42,1.8c.14.6.31,1.19.49,1.79a21.67,21.67,0,0,1,.61,2.27q.24,1.15.54,2.31c.07.23.14.45.2.66a6.36,6.36,0,0,0,.19.62c.1.5.2,1,.31,1.48s.21,1,.31,1.43.24.94.36,1.43.25,1,.37,1.43c.07.21.13.42.2.63l.21.62a1.21,1.21,0,0,1,.09.49c0,.17,0,.34,0,.51a6.86,6.86,0,0,1,0,.91,2,2,0,0,1-.29.84l-.19.23a1.06,1.06,0,0,1-.72.33,4.78,4.78,0,0,1-.92.42,6.4,6.4,0,0,1-1.21.27,3.39,3.39,0,0,1-1.16-.08A1.14,1.14,0,0,1,212,156a35.93,35.93,0,0,1-1.28-3.59q-.68-2.19-1.38-4.82t-1.39-5.52q-.7-2.88-1.33-5.7T205.44,131l-.93-4.52c-.27-1.31-.47-2.36-.61-3.16s-.22-1.22-.22-1.27.11-.16.29-.28a3.7,3.7,0,0,1,.63-.31l.74-.28c.25-.08.45-.16.59-.22a.24.24,0,0,1,.14,0s0,0,0,0v0a1.64,1.64,0,0,1,.4-.12l.37,0a.57.57,0,0,1,.56.2l.41.53a12.26,12.26,0,0,1,1.42,2.3c.4.84.76,1.69,1.09,2.56q.35.9.6,1.8c.17.6.35,1.21.53,1.81a.21.21,0,0,0,0,.12s0,.11.08.23c.07-.2.14-.38.19-.53s.1-.28.14-.4A15,15,0,0,1,213.4,126c.53-.86,1.08-1.72,1.63-2.56a14.51,14.51,0,0,1,1.94-2.35,5.22,5.22,0,0,1,.48-.46c.16-.15.33-.32.5-.51a3.14,3.14,0,0,1,1.3-.76,6.1,6.1,0,0,1,1.5-.21.93.93,0,0,1,.56.2,4.26,4.26,0,0,1,.43.42,5.57,5.57,0,0,1,1.3,1.94A21.33,21.33,0,0,1,223.75,124Z"/></g></g></svg>