<svg xmlns="http://www.w3.org/2000/svg" viewBox="0 0 161.72 168.58"><defs><style>.cls-1{fill:#231f20;}</style></defs><g id="Layer_2" data-name="Layer 2"><g id="Layer_1-2" data-name="Layer 1"><path class="cls-1" d="M147.4,15.85a8.71,8.71,0,0,0-7.47-.63,5.58,5.58,0,0,0-1.36-3.64,5.89,5.89,0,0,0-6.87-1.29c-.07-4.89-2-11.46-7.59-10.11a7.2,7.2,0,0,0-4.92,5A10.62,10.62,0,0,0,119,9.86c-2.07-1-5.23-.09-6.79,1.47a6.12,6.12,0,0,0-1.17,6.92c-2.84-.48-5.2,2.61-6,5.24a4.11,4.11,0,0,0,.3,3.74c1.08,1.37,3.14,1.29,4.72,1.32,9.3.2,18.32-3.72,27.65-2.32a.69.69,0,0,0,.48-.1A29.78,29.78,0,0,0,144.9,26c2.47-.34,4.62-1.36,5.22-4A5.84,5.84,0,0,0,147.4,15.85Zm.81,7.13c-1.31,1.86-4.23,1.81-6.29,1.89a29.22,29.22,0,0,1-7.34-.71.58.58,0,0,0-.72.4c-5.18,0-10.29,1.11-15.41,1.91a37.71,37.71,0,0,1-10.22.6c-2.66-.31-2.19-2.64-1.34-4.45.91-2,2.92-3.89,5.13-2.53a.57.57,0,0,0,.4.1,6.56,6.56,0,0,0,1,.81c.74.49,1.62-.57.88-1.06a5,5,0,0,1-1.69-6.9c1.32-2,6-3.8,6.94-.42a.55.55,0,0,0,.26.37c.23.73.48,1.45.73,2.15a.69.69,0,0,0,1.29-.49c-1.43-4.07-3.36-11,2.18-13,2.65-1,4.68,1.31,5.55,3.56a14.67,14.67,0,0,1,.58,7.77.69.69,0,0,0,1.36.22c.07-.4.12-.84.16-1.32l.05,0a4.53,4.53,0,0,1,6,.84,4.6,4.6,0,0,1-.48,5.89c-.62.64.45,1.51,1.06.87a5.91,5.91,0,0,0,1.47-2.71c2.34-.87,5.06-1.11,7.17.46A4.23,4.23,0,0,1,148.21,23Z"/><path class="cls-1" d="M153.65,19c-.19-.4-.84-.16-.65.24a6.37,6.37,0,0,1-2.53,8.2c-.39.23,0,.78.4.56A7,7,0,0,0,153.65,19Z"/><path class="cls-1" d="M156.76,23.12l-1.29,3.63c-.15.42.48.71.63.29.43-1.21.86-2.42,1.28-3.63C157.53,23,156.91,22.7,156.76,23.12Z"/><path d="M23.49,34.76c-1,.09-2,.17-2.91.23s-1.86.16-2.78.27c-1.11.09-2.22.15-3.33.17s-2.22,0-3.34,0c-.42,0-.82,0-1.19.06s-.76,0-1.15,0-.5.24-.44.63A24.35,24.35,0,0,1,9,39.59c.15,1.16.27,2.32.37,3.49,0,.33.09.52.19.59a.94.94,0,0,0,.59.06,3.47,3.47,0,0,0,.45-.06,4,4,0,0,0,.44-.11,30.52,30.52,0,0,1,5.22-1c1.75-.17,3.52-.27,5.33-.3l2.95-.06,2.95,0c1,0,1.94,0,2.92,0l2.93.17,1.35,0a1.18,1.18,0,0,1,1,.41,1,1,0,0,1,0,1,2.22,2.22,0,0,1-.44.72,7.92,7.92,0,0,1-2.88,2.14,14.89,14.89,0,0,1-3.48,1c-2.79.49-5.58.86-8.37,1.14s-5.6.51-8.41.73l-1.39.12c-.44,0-.72.11-.81.23s-.13.39-.09.84a3,3,0,0,1,0,.41,1.18,1.18,0,0,0,.05.4c.2,2,.34,3.93.4,5.88s.2,3.91.4,5.88c.13,1.52.31,3,.53,4.54a45.6,45.6,0,0,1,.44,4.54c.05,1.29.11,2.57.17,3.83S12,78.75,12,80c0,1,0,1.91.06,2.84s0,1.88,0,2.85a8.35,8.35,0,0,1-.2,1.62A2.4,2.4,0,0,1,11,88.64a1.78,1.78,0,0,0-.4.58,1.48,1.48,0,0,1-1.08.72c-.38.07-.76.12-1.14.17a6.68,6.68,0,0,1-1.2,0,2.83,2.83,0,0,1-1.68-.6,3,3,0,0,1-1.08-1.47A26.07,26.07,0,0,1,3.11,83c-.24-1.73-.42-3.47-.54-5.24-.1-1.53-.21-3.06-.31-4.6S2,70.05,1.81,68.53c-.17-1.34-.34-2.68-.5-4S1,61.82,1,60.47q-.06-1.22-.12-2.4c0-.8-.06-1.59-.07-2.37,0-.3,0-.59,0-.88a6.53,6.53,0,0,0,0-.88c-.13-1.52-.23-3-.31-4.58S.3,46.28.2,44.72C.12,43.46.06,42.22,0,41s0-2.45,0-3.68a15.48,15.48,0,0,1,.9-4.79,3.31,3.31,0,0,1,1.38-1.59,3.62,3.62,0,0,1,2-.65l.54,0a2,2,0,0,0,.54-.07q1.26-.19,2.49-.33c.82-.09,1.65-.14,2.5-.15q4.64-.14,9.21-.55c3-.28,6.11-.52,9.19-.73a23,23,0,0,1,2.63-.09c.89,0,1.77,0,2.64,0a4.79,4.79,0,0,1,1.59.32,4.67,4.67,0,0,0,1.63.31c.24,0,.38.21.41.52a.83.83,0,0,0,0,.27.27.27,0,0,1-.07.23l-.84,1.24a6,6,0,0,1-.92,1.1,5.63,5.63,0,0,1-1.16.88,4.09,4.09,0,0,1-1.49.49c-1.64.26-3.27.44-4.9.54S25,34.54,23.49,34.76Z"/><path d="M57.63,91.25a2.07,2.07,0,0,1-.89,0,2.57,2.57,0,0,1-.81-.25,2.89,2.89,0,0,1-.84-.61,14.42,14.42,0,0,1-2.15-3.47c-.53-1.24-1-2.52-1.46-3.85-.25-.81-.49-1.62-.69-2.44s-.38-1.64-.54-2.48c-.24-1.27-.49-2.51-.74-3.74s-.51-2.46-.75-3.73c-.06-.34-.11-.69-.15-1s-.11-.72-.2-1.11c-.21.31-.4.6-.55.87a3.59,3.59,0,0,0-.34.86,35.39,35.39,0,0,1-1.34,3.87l-1.57,3.82a12.63,12.63,0,0,0-.63,1.6,12.56,12.56,0,0,1-.62,1.6c-.18.39-.38.76-.59,1.12l-.63,1a24.33,24.33,0,0,1-1.66,2.17,8.23,8.23,0,0,1-2.1,1.73,7.59,7.59,0,0,1-4.16,1.21,3.64,3.64,0,0,1-1.87-.48,6.23,6.23,0,0,1-1.5-1.28,5.77,5.77,0,0,1-1.09-1.71,10.82,10.82,0,0,1-.59-2,15.83,15.83,0,0,1-.43-3.8A36.21,36.21,0,0,1,29,75.28c.13-.94.29-1.88.46-2.79a13.53,13.53,0,0,1,.83-2.7,20.68,20.68,0,0,1,3.6-5.74,32.16,32.16,0,0,1,2.93-2.91,23.26,23.26,0,0,1,3.36-2.43,30.64,30.64,0,0,1,3.72-1.85,28.94,28.94,0,0,1,3.89-1.26.39.39,0,0,0,.2-.06.3.3,0,0,1,.16,0c.15-.68.29-1.33.43-2s.28-1.23.44-1.86a.93.93,0,0,1,.44-.67,1.69,1.69,0,0,1,.93-.18,1.91,1.91,0,0,1,1.57.69,3.14,3.14,0,0,1,.7,1.37A6.83,6.83,0,0,1,53,54.75c0,.64,0,1.27,0,1.89.06,1.57.12,3.14.21,4.7A39.17,39.17,0,0,0,53.7,66c.33,2,.74,3.87,1.21,5.74s1,3.76,1.59,5.63c.34,1.13.71,2.24,1.1,3.35L58.77,84c.21.63.45,1.24.7,1.83s.51,1.2.78,1.82c0,.11.09.29.17.55a1.44,1.44,0,0,1,0,.91,3.84,3.84,0,0,1-.54.79,2.45,2.45,0,0,1-.65.56l-.71.4C58.2,91,57.91,91.14,57.63,91.25Zm-20-8.15.2,0a1.77,1.77,0,0,0,.35-.19A9.2,9.2,0,0,0,41.32,79c.2-.48.38-.95.54-1.42s.34-.94.54-1.41c.38-.89.79-1.76,1.24-2.6a11.59,11.59,0,0,0,1-2.7,21,21,0,0,1,.74-2.2q.42-1.08.78-2.16c.29-.93.58-1.87.88-2.81a27.93,27.93,0,0,0,.72-2.83q.08-.45.12-.9a2.3,2.3,0,0,0-.12-1,4.42,4.42,0,0,0-.8.29,5,5,0,0,0-.71.4c-.92.56-1.81,1.15-2.68,1.76a26.6,26.6,0,0,0-2.5,2c-.65.59-1.25,1.2-1.81,1.82A6.75,6.75,0,0,0,38,67.39c-.13.36-.26.71-.41,1.06s-.26.7-.37,1c-.16.58-.32,1.16-.47,1.75s-.26,1.19-.35,1.78a11.74,11.74,0,0,0-.14,1.56c0,.53,0,1.06,0,1.59a19.51,19.51,0,0,0,.09,2.65,16.64,16.64,0,0,0,.48,2.61,8.32,8.32,0,0,0,.3.88A2.21,2.21,0,0,0,37.62,83.1Z"/><path d="M70,62.25q.09-.33.15-.6l.12-.51c.28-1.34.57-2.67.85-4a24.7,24.7,0,0,1,1.19-3.93,40.63,40.63,0,0,1,1.84-4.07,18.71,18.71,0,0,1,2.51-3.7,11.33,11.33,0,0,1,2.62-2.24A8.62,8.62,0,0,1,82.49,42a4.81,4.81,0,0,1,4.65,1.68,7.94,7.94,0,0,1,1.61,2.74,15.22,15.22,0,0,1,.67,3.1,12.73,12.73,0,0,1,0,2.69q-.12,1.34-.33,2.64A29.28,29.28,0,0,1,88,59.64a36.34,36.34,0,0,1-1.88,4.51c-.19.34-.36.69-.52,1a7.34,7.34,0,0,1-.51,1c-.19.33-.37.68-.55,1s-.37.7-.56,1-.38.68-.59,1l-.64,1-.63,1-.64,1c-.25.32-.48.64-.7,1s-.48.65-.74,1c-.78,1-1.58,2-2.43,2.87s-1.74,1.78-2.68,2.64a3,3,0,0,0-.53.63l-.48.71c-.12.2-.24.39-.35.59s-.25.4-.39.6a5.86,5.86,0,0,1-1.71,1.59,12,12,0,0,1-2.13,1,4.81,4.81,0,0,1-1.1.28,2.13,2.13,0,0,1-1.14-.2,2.24,2.24,0,0,1-.9-.59,6,6,0,0,1-.63-.85,6.58,6.58,0,0,1-.94-2,18.35,18.35,0,0,1-.47-2.21c-.23-1.34-.45-2.7-.66-4.06s-.43-2.73-.66-4.1c-.13-.93-.28-1.86-.44-2.8s-.31-1.88-.45-2.84c-.24-1.5-.48-3-.73-4.49s-.48-3-.69-4.51-.35-2.84-.51-4.23-.33-2.81-.51-4.24-.22-2.55-.25-3.82-.05-2.55-.06-3.83c0-1.69,0-3.38,0-5.09a31.44,31.44,0,0,0-.35-5.05,4.11,4.11,0,0,1-.08-.84c0-.27,0-.54,0-.8a2.8,2.8,0,0,1,.49-1.51A4.4,4.4,0,0,1,60.36,26a1.2,1.2,0,0,1,.31-.13L61,25.8a3.51,3.51,0,0,1,1.71.4,3,3,0,0,1,1.21,1.28c.32.56.62,1.12.91,1.67a14,14,0,0,1,.76,1.72,12.25,12.25,0,0,1,.52,2.37c.1.79.21,1.59.33,2.38a19.25,19.25,0,0,1,.23,2c0,.67.1,1.33.16,2l.34,4c.12,1.3.25,2.63.39,4,.08.61.17,1.24.26,1.87s.19,1.26.27,1.87l.36,2.3.36,2.3c.13.85.25,1.68.38,2.5s.26,1.65.41,2.49a2.54,2.54,0,0,0,.14.62C69.83,61.72,69.9,62,70,62.25Zm1.94,12.53.16.07a1.45,1.45,0,0,1,.22-.22c.69-.76,1.35-1.51,2-2.26s1.28-1.53,1.91-2.34a.24.24,0,0,0,.06-.17c.52-.82,1-1.63,1.56-2.42s1-1.6,1.48-2.42,1-1.76,1.48-2.64.93-1.78,1.39-2.68.75-1.68,1.09-2.54.7-1.73,1.08-2.59a15.65,15.65,0,0,0,1.21-5A10.7,10.7,0,0,0,85.63,48a4.2,4.2,0,0,0-.38-1.56,1,1,0,0,0-.32-.43,1,1,0,0,0-.5-.18,3.5,3.5,0,0,0-2.62.83,13.06,13.06,0,0,0-3.16,3.85q-.8,1.48-1.47,3a20.44,20.44,0,0,0-1.09,3.17,21.13,21.13,0,0,1-.65,2.19c-.26.72-.49,1.44-.7,2.15-.32,1.24-.62,2.47-.88,3.7l-.81,3.69c-.15.71-.29,1.42-.42,2.14s-.26,1.45-.41,2.19c0,.32-.1.66-.15,1Z"/><path d="M116.66,58.12c.11,1.11.19,2.19.23,3.26a30.24,30.24,0,0,1,0,3.29c0,.24,0,.48-.07.72a4.68,4.68,0,0,1-.16.67l-.34,2.27a1.13,1.13,0,0,1-.7.11,1,1,0,0,1-.52-.48,5.69,5.69,0,0,1-1.15-3.1c-.07-.78-.11-1.57-.11-2.37s0-1.59-.12-2.37a14.91,14.91,0,0,0-.26-1.72c-.12-.58-.24-1.15-.35-1.72a2.76,2.76,0,0,0-.19-.55l-.28-.59c-.27.2-.54.38-.8.54a5.81,5.81,0,0,0-.73.55,35.94,35.94,0,0,0-2.77,2.75,27.93,27.93,0,0,0-2.42,3.07,22.63,22.63,0,0,0-1.8,3.17,23.53,23.53,0,0,0-1.3,3.43,1.25,1.25,0,0,0-.1.46l0,.5c0,.7.1,1.39.17,2.07s.14,1.38.24,2.08a25,25,0,0,1,.31,2.62c.05.88.13,1.76.22,2.65,0,.27.08.53.11.77s.06.48.1.72c0,.57.07,1.13.11,1.69s.08,1.11.11,1.65.11,1.09.16,1.65.11,1.12.17,1.65c0,.24.09.49.13.73s.08.48.13.73a1.32,1.32,0,0,1,0,.56c0,.18-.07.37-.1.56,0,.34-.11.68-.19,1a2,2,0,0,1-.46.88l-.25.23a1.19,1.19,0,0,1-.85.24,5,5,0,0,1-1.1.31,5.88,5.88,0,0,1-1.39.1A3.68,3.68,0,0,1,99,92.64a1.26,1.26,0,0,1-.74-.82,39.35,39.35,0,0,1-.84-4.21q-.39-2.53-.73-5.58t-.64-6.36c-.19-2.22-.37-4.4-.53-6.56s-.29-4.22-.4-6.17-.21-3.69-.29-5.19-.14-2.7-.16-3.61,0-1.39,0-1.45.15-.16.37-.26a4.23,4.23,0,0,1,.76-.25q.42-.1.87-.18a5.67,5.67,0,0,0,.68-.15.26.26,0,0,1,.17,0,0,0,0,0,0,0,0v0a1.24,1.24,0,0,1,.46-.06l.42,0a.62.62,0,0,1,.59.31c.1.19.22.41.37.65a14.85,14.85,0,0,1,1.2,2.8c.3,1,.56,2,.78,3,.16.71.28,1.41.37,2.11s.19,1.39.29,2.09a.57.57,0,0,0,0,.14s0,.13,0,.27l.31-.55c.08-.16.16-.3.22-.43a16.18,16.18,0,0,1,2.2-3.47c.73-.88,1.48-1.74,2.24-2.59a15.43,15.43,0,0,1,2.54-2.29c.2-.15.4-.3.6-.43s.42-.3.65-.48a3.43,3.43,0,0,1,1.57-.63,6.47,6.47,0,0,1,1.7,0,1,1,0,0,1,.59.31,3.87,3.87,0,0,1,.42.54,6.26,6.26,0,0,1,1.11,2.37A23.93,23.93,0,0,1,116.66,58.12Z"/><path d="M131.08,75.5c.14.68.26,1.33.37,1.94s.18,1,.25,1.5a3.74,3.74,0,0,1,.05,1,2.38,2.38,0,0,1-.54,1.22,1.48,1.48,0,0,1-1.17.42,3,3,0,0,1-1.89-.7,6.59,6.59,0,0,1-1.24-1.52,4.25,4.25,0,0,1-.54-1.12l-.32-1a9.34,9.34,0,0,1-.29-1c-.26-1.4-.52-2.78-.78-4.15s-.52-2.76-.75-4.16c-.21-1.24-.42-2.47-.62-3.68s-.34-2.46-.43-3.74c0-.72-.09-1.44-.16-2.16s-.15-1.43-.21-2.15c0-.46,0-.9-.06-1.34s0-.89,0-1.35-.09-.89-.14-1.31-.08-.86-.09-1.32a8.11,8.11,0,0,1,.1-1.62,2.1,2.1,0,0,1,1-1.51,1.89,1.89,0,0,1,1.78-.18,1.73,1.73,0,0,1,.57.38c.16.16.32.32.47.5A4.77,4.77,0,0,1,127,49.6c.15.39.3.79.44,1.21a21.82,21.82,0,0,1,.76,3,27.49,27.49,0,0,1,.37,3c0,.69.08,1.37.15,2s.14,1.32.2,2h0c.12.79.21,1.58.28,2.36s.17,1.58.29,2.37l1.33,8.33c0,.29.08.56.11.81Zm-5.79-30.94a1.45,1.45,0,0,1-.54.21,1.34,1.34,0,0,1-.63,0,1.22,1.22,0,0,1-.59-.39,2.28,2.28,0,0,1-.47-1,2.13,2.13,0,0,1,0-1.14,2.5,2.5,0,0,1,.39-.82,2.57,2.57,0,0,1,.75-.67c.07-.06.26,0,.54,0s.59.17.89.28a1.92,1.92,0,0,1,.94.84,3.44,3.44,0,0,1,.53,1.24.61.61,0,0,1-.14.48,2,2,0,0,1-.45.38,3.7,3.7,0,0,1-.59.31C125.67,44.42,125.47,44.5,125.29,44.56Z"/><path d="M161.09,52.77a3.35,3.35,0,0,1-.69.14.91.91,0,0,1-.42,0,.68.68,0,0,1-.31-.26c-.09-.12-.21-.31-.37-.57a2,2,0,0,0-.18-.26c-.69-.53-1.4-1-2.12-1.51a6.15,6.15,0,0,0-2.39-.91,3.23,3.23,0,0,0-.87,0,8.12,8.12,0,0,1-.86,0,5,5,0,0,0-.66.11,8,8,0,0,0-.84.26,6.14,6.14,0,0,0-.77.33,1,1,0,0,0-.46.34,49.75,49.75,0,0,0-2.66,5.25,18.48,18.48,0,0,0-1.41,5.71,50.58,50.58,0,0,0-.27,5.47,27.26,27.26,0,0,0,.58,5.44c.19.95.38,1.87.58,2.77a4.61,4.61,0,0,0,1.39,2.37c.32.32.62.6.88.84a9.25,9.25,0,0,0,.95.77,1.55,1.55,0,0,0,.74.15,10.89,10.89,0,0,0,1.12,0,9.53,9.53,0,0,0,1.13-.18,2.2,2.2,0,0,0,.72-.27,5.57,5.57,0,0,0,1.35-1.3,11.88,11.88,0,0,0,1-1.59,7.8,7.8,0,0,0,.53-1.26c.15-.44.32-.88.49-1.33s.35-.93.52-1.39a3.85,3.85,0,0,1,.82-1.26,1.07,1.07,0,0,1,.9-.33.83.83,0,0,1,.69.6,4.62,4.62,0,0,1,.29,1,2.29,2.29,0,0,1-.08,1c-.21,1-.43,1.9-.67,2.83a18.8,18.8,0,0,1-.93,2.74,18.32,18.32,0,0,1-1.53,2.78,11.48,11.48,0,0,1-2.09,2.36,9.57,9.57,0,0,1-6,2.65A9.32,9.32,0,0,1,143,83.81a12.46,12.46,0,0,1-3.41-4,19.21,19.21,0,0,1-1.76-5,26.45,26.45,0,0,1-.56-6,50.86,50.86,0,0,1,.48-6c.22-1.46.49-2.91.81-4.33a25.83,25.83,0,0,1,1.31-4.17,18.34,18.34,0,0,1,3.8-6,13.09,13.09,0,0,1,6.11-3.47,6.41,6.41,0,0,1,1.67-.24c.59,0,1.16,0,1.73,0a14.32,14.32,0,0,1,2.85.43,8.54,8.54,0,0,1,2.64,1.22l1.32,1a4.85,4.85,0,0,1,1.09,1.22,5,5,0,0,1,.66,2.09A3.3,3.3,0,0,1,161.09,52.77Z"/><path d="M45,114.61a13.18,13.18,0,0,1,5.56,1.14,10.84,10.84,0,0,1,4.49,3.93,8,8,0,0,1,1.38,4.3,1.41,1.41,0,0,1,0,.37,2.77,2.77,0,0,1-.19.62.74.74,0,0,1-.49.4,1,1,0,0,1-1.2-.46c-.34-.48-.7-.94-1.07-1.39l-1.15-1.39a5.91,5.91,0,0,0-1.86-1.53,7.89,7.89,0,0,0-2.27-.76,2.11,2.11,0,0,0-1.3.11c-.4.17-.81.35-1.22.55a6.79,6.79,0,0,0-2.56,2.19,19,19,0,0,0-1.66,2.92,16,16,0,0,0-1.07,3.15,28.4,28.4,0,0,0-.54,3.3c-.11,1.13-.19,2.26-.23,3.38s-.07,2.23-.11,3.36c0,.7,0,1.38,0,2s0,1.35,0,2.05.06,1.38.1,2.06.08,1.37.14,2.06a41.43,41.43,0,0,0,.48,4.18c.23,1.37.52,2.74.88,4.1.16.63.32,1.27.49,1.91a10.64,10.64,0,0,0,.64,1.85,11.12,11.12,0,0,0,1.08,2A5.48,5.48,0,0,0,45,162.65l.65.3a2.94,2.94,0,0,0,.64.19,2.08,2.08,0,0,0,1.06-.06,1.84,1.84,0,0,0,.92-.72,12.29,12.29,0,0,0,1.82-3.11,16,16,0,0,0,1-3.48,31.09,31.09,0,0,0,.37-4.05,3.56,3.56,0,0,1,.18-1,3.3,3.3,0,0,1,.43-.86.94.94,0,0,1,.9-.42,1,1,0,0,1,.84.55.14.14,0,0,0,0,.09.13.13,0,0,1,0,.1,8.64,8.64,0,0,0,.45,1.87,4.8,4.8,0,0,1,.24,1.93c-.05.94-.15,1.88-.29,2.82a16.49,16.49,0,0,1-.67,2.73,12.34,12.34,0,0,1-1,2.4,22.93,22.93,0,0,1-1.38,2.19,12.83,12.83,0,0,1-.81,1.06q-.42.5-.81,1a4.59,4.59,0,0,1-1.7,1.33,15.67,15.67,0,0,1-2,.72,8.51,8.51,0,0,1-3.74.14,13.43,13.43,0,0,1-3.55-1.24,9.07,9.07,0,0,1-3.65-3.14,18,18,0,0,1-2.06-4.36c-.3-1-.59-2-.87-3a24.08,24.08,0,0,1-.62-3c-.27-1.59-.48-3.17-.64-4.75s-.24-3.18-.27-4.78c0-1.77,0-3.51,0-5.23s.15-3.44.35-5.17q.21-2.24.48-4.41A19.36,19.36,0,0,1,32.28,125a20.42,20.42,0,0,1,2.09-4.12,15.67,15.67,0,0,1,3.08-3.4,11.22,11.22,0,0,1,3.45-2A19.35,19.35,0,0,1,45,114.61Z"/><path d="M89.15,164.64a2.06,2.06,0,0,1-.89,0,3.23,3.23,0,0,1-.81-.25,2.93,2.93,0,0,1-.84-.62,14.42,14.42,0,0,1-2.15-3.47c-.53-1.24-1-2.52-1.46-3.85q-.39-1.22-.69-2.43t-.54-2.49c-.24-1.26-.49-2.51-.75-3.73s-.5-2.47-.74-3.74c-.06-.34-.11-.68-.15-1s-.11-.71-.2-1.11c-.21.32-.4.61-.55.88a3.51,3.51,0,0,0-.34.85,34.68,34.68,0,0,1-1.34,3.87l-1.57,3.82a12.63,12.63,0,0,0-.63,1.6,12.56,12.56,0,0,1-.62,1.6,10.72,10.72,0,0,1-.59,1.12l-.63,1A26.37,26.37,0,0,1,72,158.83a8,8,0,0,1-2.1,1.73,7.59,7.59,0,0,1-4.16,1.21,3.46,3.46,0,0,1-1.87-.48,6,6,0,0,1-1.5-1.28,5.77,5.77,0,0,1-1.09-1.71,10.36,10.36,0,0,1-.59-2,15.84,15.84,0,0,1-.44-3.8,36.22,36.22,0,0,1,.25-3.86c.13-1,.29-1.88.46-2.8a13.53,13.53,0,0,1,.83-2.7,20.68,20.68,0,0,1,3.6-5.74,32.16,32.16,0,0,1,2.93-2.91,22.47,22.47,0,0,1,3.36-2.42,29.25,29.25,0,0,1,3.72-1.85A30,30,0,0,1,79.29,129a.39.39,0,0,0,.2-.05.47.47,0,0,1,.15-.06c.16-.68.3-1.33.44-1.94s.28-1.24.44-1.87a.9.9,0,0,1,.44-.66,1.69,1.69,0,0,1,.93-.18,1.89,1.89,0,0,1,1.57.68,3.2,3.2,0,0,1,.7,1.37,6.46,6.46,0,0,1,.3,1.86q0,1,0,1.89.08,2.37.21,4.71a38.78,38.78,0,0,0,.52,4.67c.33,2,.73,3.87,1.21,5.75s1,3.75,1.59,5.63c.34,1.12.7,2.24,1.1,3.34s.78,2.2,1.17,3.3c.21.62.45,1.23.7,1.82s.51,1.21.78,1.83c0,.1.09.28.17.54a1.44,1.44,0,0,1,0,.91,4.29,4.29,0,0,1-.54.79,2.45,2.45,0,0,1-.65.56l-.71.4C89.71,164.42,89.43,164.53,89.15,164.64Zm-20-8.15.2,0a1.57,1.57,0,0,0,.35-.19,9.2,9.2,0,0,0,3.15-3.93q.3-.71.54-1.41c.16-.47.34-.94.54-1.42.38-.89.79-1.76,1.24-2.6a11.26,11.26,0,0,0,1-2.7,22.74,22.74,0,0,1,.74-2.2c.28-.72.54-1.44.78-2.15.29-.94.58-1.88.88-2.81a26.19,26.19,0,0,0,.71-2.84c.06-.3.1-.6.13-.9a2.34,2.34,0,0,0-.13-.95,5.63,5.63,0,0,0-.79.29,5.42,5.42,0,0,0-.71.4c-.92.57-1.81,1.15-2.68,1.77a25.27,25.27,0,0,0-2.5,2c-.65.59-1.25,1.2-1.82,1.83a6.86,6.86,0,0,0-1.3,2.14c-.13.36-.26.71-.41,1.06s-.26.7-.37,1.06c-.16.58-.32,1.16-.47,1.75a18.05,18.05,0,0,0-.35,1.78,10.05,10.05,0,0,0-.14,1.56c0,.52,0,1,0,1.59a19.36,19.36,0,0,0,.08,2.64,16.66,16.66,0,0,0,.49,2.61,8.32,8.32,0,0,0,.3.88A2.21,2.21,0,0,0,69.14,156.49Z"/><path d="M115.8,111.91c.25,1.07.47,2.14.66,3.2a30.61,30.61,0,0,1,.38,3.26q0,.36,0,.72t-.06.69l0,2.29a1.11,1.11,0,0,1-.68.2,1,1,0,0,1-.58-.41,5.63,5.63,0,0,1-1.54-2.92c-.17-.76-.32-1.54-.43-2.33s-.25-1.58-.42-2.34a14.89,14.89,0,0,0-.49-1.66l-.56-1.66a2.33,2.33,0,0,0-.27-.52l-.35-.56c-.25.24-.49.46-.73.65a5.53,5.53,0,0,0-.64.64,33.81,33.81,0,0,0-2.39,3.08,29,29,0,0,0-2,3.37,23.77,23.77,0,0,0-2.21,7,1.34,1.34,0,0,0,0,.46l0,.5c.14.69.28,1.36.43,2s.33,1.35.52,2a24,24,0,0,1,.65,2.56c.17.87.35,1.73.56,2.6.08.26.15.51.21.74s.13.48.2.71c.1.56.21,1.11.33,1.66s.22,1.09.32,1.62.25,1.06.38,1.62.26,1.09.38,1.61c.08.24.15.47.22.71s.15.47.23.7a1.52,1.52,0,0,1,.08.56l0,.56a7,7,0,0,1,0,1,2.05,2.05,0,0,1-.34.93l-.22.26a1.2,1.2,0,0,1-.81.36,5.75,5.75,0,0,1-1.05.45,6.2,6.2,0,0,1-1.36.28,3.68,3.68,0,0,1-1.3-.11,1.25,1.25,0,0,1-.84-.71,40,40,0,0,1-1.38-4.06c-.48-1.65-1-3.46-1.46-5.44s-1-4.06-1.46-6.23-1-4.31-1.39-6.43-.84-4.14-1.21-6.06-.69-3.63-1-5.11-.49-2.66-.63-3.56-.22-1.37-.23-1.43.13-.18.34-.31a4.28,4.28,0,0,1,.71-.34c.27-.1.55-.2.84-.29l.66-.24a.24.24,0,0,1,.16-.06s0,0,0,0v0a1.26,1.26,0,0,1,.45-.12l.42,0a.63.63,0,0,1,.62.23q.18.27.45.6a14.05,14.05,0,0,1,1.56,2.62c.43.94.82,1.91,1.18,2.9.24.67.45,1.35.63,2s.37,1.36.56,2a.47.47,0,0,0,0,.14l.08.25.23-.58c.06-.17.12-.32.16-.45a16.27,16.27,0,0,1,1.73-3.73c.61-1,1.24-1.92,1.88-2.86a16.15,16.15,0,0,1,2.22-2.61l.54-.5c.19-.17.38-.35.58-.56a3.45,3.45,0,0,1,1.47-.83,6.69,6.69,0,0,1,1.69-.21,1.05,1.05,0,0,1,.63.23,5.44,5.44,0,0,1,.48.48A6.37,6.37,0,0,1,115,109.4,22.16,22.16,0,0,1,115.8,111.91Z"/><path d="M146.79,143.31c-.41,1.16-.83,2.31-1.25,3.44s-.88,2.28-1.37,3.42a24,24,0,0,1-1.56,3.13c-.6,1-1.24,2-1.94,2.92A11.92,11.92,0,0,1,137,159.7a9.38,9.38,0,0,1-5,1.18,10.38,10.38,0,0,1-5.27-1.43,12.18,12.18,0,0,1-3.87-3.89A21.42,21.42,0,0,1,121,151.8a30.2,30.2,0,0,1-1.55-7.24q-.12-1.59-.18-3.24a26.56,26.56,0,0,1,.07-3.34,29.8,29.8,0,0,1,.47-3.34,36.35,36.35,0,0,1,1.26-4.77,17.83,17.83,0,0,1,2.2-4.41,14.07,14.07,0,0,1,1.93-2.32,15.55,15.55,0,0,1,2.37-1.88,15,15,0,0,1,2.29-1.18,10.94,10.94,0,0,1,2.46-.68,12.87,12.87,0,0,1,2.84-.08,6.31,6.31,0,0,1,2.78.92c.22.14.46.28.69.4s.49.25.74.36a9,9,0,0,1,2.3,1.73A20.59,20.59,0,0,1,143.5,125a7.3,7.3,0,0,1,1.2,2.63,9.39,9.39,0,0,1,.17,3,15.7,15.7,0,0,1-3.92,8.9c-.66.76-1.34,1.49-2,2.21a23.41,23.41,0,0,1-2.2,2,18.86,18.86,0,0,1-3.49,2.19,12.73,12.73,0,0,1-4,1.15l-.35.11a17.08,17.08,0,0,0,1.12,3.16,9.35,9.35,0,0,0,1.88,2.65,6.13,6.13,0,0,0,2.19,1.38,6.84,6.84,0,0,0,2.54.38,1.53,1.53,0,0,0,1-.3c.27-.2.53-.42.81-.66a13.73,13.73,0,0,0,1.52-1.88,19.74,19.74,0,0,0,1.23-2.09c.53-1,1-2,1.43-3a30.31,30.31,0,0,0,1.1-3.07,4.93,4.93,0,0,1,.63-1.28,1.91,1.91,0,0,1,1.16-.73,2.13,2.13,0,0,1,.86.17,1.38,1.38,0,0,1,.49.5A1.08,1.08,0,0,1,146.79,143.31Zm-18.44,1.56c.34-.08.65-.15.93-.2a4.55,4.55,0,0,0,.8-.23,12.21,12.21,0,0,0,2.57-1.17,15.18,15.18,0,0,0,2.25-1.66c.57-.51,1.12-1,1.64-1.53s1-1.05,1.5-1.6a11.75,11.75,0,0,0,2.34-3.66,14.18,14.18,0,0,0,1-4.22,4.59,4.59,0,0,0-.17-1.9,3.83,3.83,0,0,0-1-1.62,5.82,5.82,0,0,0-3.18-1.71,5,5,0,0,0-3.5.72A9.42,9.42,0,0,0,131,128.3a11.74,11.74,0,0,0-1.66,2.9,21.08,21.08,0,0,0-1.36,5.63,30.25,30.25,0,0,0-.19,3.15,22.59,22.59,0,0,0,.22,3.16c0,.29.11.57.17.84S128.27,144.56,128.35,144.87Z"/></g></g></svg>