<svg xmlns="http://www.w3.org/2000/svg" viewBox="0 0 253.82 154.46"><g id="Layer_2" data-name="Layer 2"><g id="Layer_1-2" data-name="Layer 1"><path d="M242.6,18.53h0Z"/><path d="M252.86,33.47a17.1,17.1,0,0,0-1.45-3.13,14.67,14.67,0,0,0-1-1.48c-.35-.46-.71-.92-1.1-1.35a16.78,16.78,0,0,0-2.59-2.32,14.18,14.18,0,0,0-1.35-.81c0-.23,0-.47-.08-.7-.08-.56-.18-1.12-.31-1.67a11.15,11.15,0,0,0-.47-1.62,14.41,14.41,0,0,0-1.58-3c-.33-.46-.66-.9-1-1.33a13.72,13.72,0,0,0-1.12-1.17,13.31,13.31,0,0,0-1.29-1.07,14.21,14.21,0,0,0-1.38-.9c-.49-.29-1-.56-1.51-.82s-1-.5-1.58-.71a12.64,12.64,0,0,0-3.28-.7,15,15,0,0,0-3.28.05c-.52.07-1,.17-1.55.28s-1,.24-1.52.4a20.77,20.77,0,0,0-3.13,1.28c-.48.24-1,.49-1.42.75l-1.39.76-1.37.74c-.46.25-.93.5-1.4.72a12.7,12.7,0,0,1-1.45.55c-.23.06-.46.12-.69.16s-.65.07-1,.09-.64,0-1-.05a6.17,6.17,0,0,1-.73-.12l-.69-.21-.72-.33a6.1,6.1,0,0,1-.6-.38q-.34-.26-.66-.54c-.12-.12-.23-.25-.34-.38a7.26,7.26,0,0,1-.46-.63,6.36,6.36,0,0,1-.3-.58,7.77,7.77,0,0,1-.33-.92,9.75,9.75,0,0,1-.24-1h0v0c0-.22-.07-.45-.09-.67.31,0,.62.06.93.07l1,.07.92.06.46,0H211l.1,0a.31.31,0,0,0,.27,0h0a.33.33,0,0,0,.2-.24.72.72,0,0,0-.08-.35l-.09-.26c-.06-.17-.12-.33-.17-.5s-.16-.62-.26-.93-.23-.63-.33-.95l0,0c-.17-.54-.32-1.09-.48-1.63-.07-.28-.15-.55-.23-.83s-.19-.59-.28-.89l0,0c-.11-.35-.21-.7-.31-1s-.24-.72-.35-1.08v0c-.12-.4-.23-.8-.37-1.19a4.47,4.47,0,0,0-.27-.59,2,2,0,0,0-.16-.24.32.32,0,0,0-.17-.11h0l0,0a.2.2,0,0,0-.23,0l-.14.11a.78.78,0,0,0-.1.15s0,0,0,0l-.21.34-.34.56-.46.72c-.16.28-.32.55-.47.83-.32.58-.6,1.17-.9,1.75s-.63,1.19-.91,1.81l-.85,1.83c-.14.29-.28.59-.4.9a3.06,3.06,0,0,0-.13.43.66.66,0,0,0,0,.2.2.2,0,0,0,0,.11.22.22,0,0,0,0,.11.44.44,0,0,0,.26.18l.32.1a7.52,7.52,0,0,0,1,.15c.34,0,.69.08,1,.1l1.26.09a3.17,3.17,0,0,0,0,.44,6.16,6.16,0,0,0,.37,2.08,6.29,6.29,0,0,0,.62,1.34,6.52,6.52,0,0,0,1,1.22,6.21,6.21,0,0,0,2.71,1.53,5,5,0,0,0,.77.16l.77.07a8.76,8.76,0,0,0,1.62-.09,5.57,5.57,0,0,0,.79-.17c.25-.07.5-.16.76-.25a13.56,13.56,0,0,0,1.52-.64c1.89-.92,3.72-2,5.63-2.83a24,24,0,0,1,2.76-1.09,21.39,21.39,0,0,1,2.49-.58,13.61,13.61,0,0,1,1.69-.16c.61,0,1.22,0,1.82.08l.78.11.79.17h0a10.12,10.12,0,0,1,1.18.38,22.5,22.5,0,0,1,2.09,1h0l0,0h0a22.18,22.18,0,0,1,2,1.26h0l0,0h0a13.34,13.34,0,0,1,1.35,1.14A13.51,13.51,0,0,1,241.49,17a15.43,15.43,0,0,1,1.11,1.54h0l0,0h0c.3.51.57,1,.82,1.56.09.19.17.38.25.58s.12.35.18.53c.11.35.2.7.28,1.05s.14.68.19,1h0c0,.21.07.41.1.62l-.75-.33a13.58,13.58,0,0,0-1.63-.55c-.29-.07-.59-.15-.88-.2s-.61-.1-.91-.13a7.18,7.18,0,0,0-.8,0,5.65,5.65,0,0,0-.93.07,13,13,0,0,0-1.64.37h0c-.29.09-.59.17-.88.29a16.15,16.15,0,0,0-1.59.72,8.13,8.13,0,0,0-1.43,1,6.71,6.71,0,0,0-1.11,1.21,8.43,8.43,0,0,0-.87,1.55,7.94,7.94,0,0,0-.53,1.65,6.36,6.36,0,0,0-.12,1.74,5.88,5.88,0,0,0,.32,1.71,6.26,6.26,0,0,0,.8,1.54,5.33,5.33,0,0,0,.54.62,7,7,0,0,0,.63.58c.23.18.47.34.71.5a5.4,5.4,0,0,0,.75.4,6.74,6.74,0,0,0,.86.3,5,5,0,0,0,.86.14l.12,0H236A6,6,0,0,0,237.5,37a11.88,11.88,0,0,0,1.65-.46,6.71,6.71,0,0,0,1.51-.71A7.38,7.38,0,0,0,242,34.73a8.59,8.59,0,0,0,1.09-1.32A13.62,13.62,0,0,0,244,32a13.89,13.89,0,0,0,.65-1.61,16,16,0,0,0,.46-1.64,15.57,15.57,0,0,0,.29-1.66c0-.46.07-.93.07-1.39.23.14.46.28.68.43h0c.23.17.46.34.67.53l.67.6h0c.22.21.44.42.64.64s.41.46.61.7a19,19,0,0,1,1.24,1.7l0,0,.06.1,0,0h0a16,16,0,0,1,1,1.88,19.71,19.71,0,0,1,.73,2q.15.52.27,1c.07.32.12.64.18,1a22.89,22.89,0,0,1,.25,2.73c0,.39,0,.78,0,1.17l-.09,1.13c-.05.39-.1.78-.17,1.16s-.13.71-.22,1.07-.2.73-.32,1.09-.22.64-.34,1-.36.87-.57,1.3-.37.76-.57,1.14-.31.53-.47.78l-.51.75c-.23.3-.46.61-.7.91s-.46.54-.7.8l-.69.67-.67.58c-.25.21-.5.4-.76.58s-.47.32-.71.47h0l0,0h0c-.28.16-.56.34-.84.49s-.6.3-.9.45l-1,.41-1.1.37c-.32.1-.65.19-1,.26l-1.07.22a21.57,21.57,0,0,1-2.26.21h0a14.57,14.57,0,0,1-2-.08,11.9,11.9,0,0,1-1.33-.22c-.38-.09-.76-.19-1.14-.31s-.67-.24-1-.37l-.38-.15a1.74,1.74,0,0,0-.5-.17.59.59,0,0,0-.48,1,3.4,3.4,0,0,0,.68.36l.62.26a11.68,11.68,0,0,0,1.29.47,10.69,10.69,0,0,0,1.36.31,13,13,0,0,0,1.4.15,14.1,14.1,0,0,0,1.72,0,15,15,0,0,0,1.63-.15c.59-.09,1.17-.19,1.75-.33l.57-.15,1.1-.35c.54-.19,1.06-.41,1.58-.64a15.6,15.6,0,0,0,1.57-.82c.25-.15.49-.3.74-.47s.45-.29.67-.46c.48-.37.95-.76,1.4-1.17a12,12,0,0,0,1.17-1.2c.38-.45.75-.91,1.09-1.39a14,14,0,0,0,.95-1.46c.31-.55.6-1.1.87-1.66a15.34,15.34,0,0,0,.66-1.57,15.84,15.84,0,0,0,.53-1.65c.07-.3.14-.6.2-.91s.1-.58.14-.87c.09-.58.14-1.18.18-1.77a18.55,18.55,0,0,0-.16-3.49,8.74,8.74,0,0,0-.14-.87c-.05-.27-.1-.55-.16-.81C253.2,34.58,253.05,34,252.86,33.47ZM244.52,26c0,.28,0,.56-.07.83s-.06.54-.11.8-.13.6-.2.9-.19.72-.31,1.08-.23.69-.36,1-.18.46-.29.68-.21.43-.33.64a11.92,11.92,0,0,1-.71,1.13c-.18.23-.35.45-.54.66l-.1.11,0,0a7.45,7.45,0,0,1-.66.6,7.33,7.33,0,0,1-.64.45,8.78,8.78,0,0,1-.79.44c-.34.14-.67.26-1,.37h0a10.65,10.65,0,0,1-1.08.27c-.23,0-.45.06-.68.07l-.57,0h0l-.11,0c-.22,0-.43-.07-.65-.12l-.42-.13-.58-.26c-.25-.15-.5-.32-.75-.49l-.49-.4c-.22-.21-.42-.43-.61-.65s-.2-.28-.3-.42-.24-.43-.34-.65-.14-.36-.21-.54-.11-.47-.15-.7-.05-.42-.06-.62,0-.63,0-.94.09-.53.15-.8.1-.35.16-.52.12-.33.18-.49.22-.49.34-.73.27-.46.42-.68h0c.18-.23.36-.45.56-.66l.4-.37a6.93,6.93,0,0,1,.76-.54c.31-.18.63-.34,1-.49s.89-.36,1.35-.51l.9-.26.93-.19c.23,0,.46-.06.69-.07h.61c.2,0,.4,0,.6,0,.38.06.76.13,1.14.22a12.14,12.14,0,0,1,1.41.45c.53.21,1,.44,1.57.7C244.53,25.46,244.53,25.74,244.52,26Z"/><path d="M207,16.54a.42.42,0,0,0-.16.57h0a.42.42,0,0,0,.49.2l.09,0a.45.45,0,0,0,.19-.53h0A.43.43,0,0,0,207,16.54Z"/><path d="M210,18.93a.37.37,0,0,0-.23.07.31.31,0,0,0-.14.23.37.37,0,0,0,.21.4.36.36,0,0,0,.23,0h0a.45.45,0,0,0,.2-.16.41.41,0,0,0,.05-.29A.35.35,0,0,0,210,18.93Z"/><path d="M221,17.51c.6-.31,1.19-.63,1.8-.91h0l.06,0h0l.44-.19A34.21,34.21,0,0,1,226.93,15c.36-.11.71-.22,1.06-.31s.69-.15,1-.21a10.32,10.32,0,0,1,1.46-.15h0a13.54,13.54,0,0,1,1.56,0h.13a9.09,9.09,0,0,1,.91.15,16.8,16.8,0,0,1,1.71.51l.12.05h0a16,16,0,0,1,1.64.73,15.45,15.45,0,0,1,1.56.95l.62.47.59.5h0c.37.34.72.71,1.07,1.08l.51.54c.07.09.15.17.23.26l.12.13.17.14a.26.26,0,0,0,.34,0,.29.29,0,0,0,.05-.32l-.19-.27-.18-.21-.38-.44c-.26-.3-.52-.59-.79-.86a13.88,13.88,0,0,0-5.22-3.39,14.08,14.08,0,0,0-2-.6c-.34-.07-.68-.13-1-.17s-.67-.06-1-.07a11.41,11.41,0,0,0-2,.11c-.34.05-.69.1-1,.17s-.68.16-1,.25a18.49,18.49,0,0,0-1.91.62,30.6,30.6,0,0,0-3.65,1.64l-1.75.93c-.61.31-1.22.63-1.84.92h0c-.34.15-.67.31-1,.44s-.68.25-1,.36h0l-.7.2-.72.14-.66.1a1.37,1.37,0,0,0-.28,0,.24.24,0,0,0-.16.09c-.06.11,0,.2.11.24a.93.93,0,0,0,.33.07,2.06,2.06,0,0,0,.43,0c.13,0,.26,0,.39,0a8.46,8.46,0,0,0,1-.14l.94-.23a10,10,0,0,0,1-.31l1-.41.7-.34C219.81,18.12,220.4,17.82,221,17.51Z"/><path d="M218.48,18.76l.05,0h-.05Z"/><path d="M242.05,26.15l-.07-.06-.12-.07-.21-.1a4,4,0,0,0-.47-.21q-.27-.12-.54-.21l-.47-.16a4.51,4.51,0,0,0-1-.16,5.33,5.33,0,0,0-1.05.1,6.17,6.17,0,0,0-1.9.72,8.1,8.1,0,0,0-1.74,1.29,4.83,4.83,0,0,0-1.15,1.7,5.71,5.71,0,0,0-.35,2,4.66,4.66,0,0,0,.1,1,3.68,3.68,0,0,0,.15.47.94.94,0,0,0,.19.32.14.14,0,0,0,0,.06.1.1,0,0,0,.1,0h0a.08.08,0,0,0,0-.11h0v0c0-.12,0-.25-.05-.37l0-.42h0c0-.31,0-.63,0-.94s.08-.6.14-.9h0c.06-.22.12-.43.2-.64a4.61,4.61,0,0,1,.22-.51c.08-.13.15-.26.24-.39s.26-.33.4-.49h0l0,0,0,0c.16-.17.34-.33.52-.49A9,9,0,0,1,236,27a8.92,8.92,0,0,1,.86-.47,5.89,5.89,0,0,1,.7-.26,8.08,8.08,0,0,1,1-.24,3.66,3.66,0,0,1,.57-.05,3.09,3.09,0,0,1,.43,0,8.79,8.79,0,0,1,.87.15h0c.26.06.52.13.77.21l.36.12.16.05.16,0h0a.21.21,0,0,0,.23-.12.21.21,0,0,0-.06-.25Z"/><path d="M235.41,33.66a.42.42,0,0,0-.31,0,.57.57,0,0,0-.13.08.4.4,0,0,0-.1.44.43.43,0,0,0,.31.26.4.4,0,0,0,.19,0,.49.49,0,0,0,.2-.11.47.47,0,0,0,.12-.34.36.36,0,0,0-.08-.2A.59.59,0,0,0,235.41,33.66Z"/><polygon points="244.44 51.53 244.44 51.53 244.44 51.53 244.44 51.53"/><path d="M239.29,53c-.41.09-.81.17-1.22.24a15.13,15.13,0,0,1-1.78.19c-.36,0-.73,0-1.09,0h-.53a.54.54,0,0,0-.22,0,.12.12,0,0,0-.1.09c0,.07,0,.13.09.16l.25.07.61.11a7.27,7.27,0,0,0,1.32.1,13.88,13.88,0,0,0,2-.24c.35-.07.7-.14,1-.23l.34-.1.66-.2a18.85,18.85,0,0,0,1.93-.76,15.52,15.52,0,0,0,1.81-.94h0a11.21,11.21,0,0,0,1-.76c.28-.23.55-.46.81-.7l.76-.73a10.69,10.69,0,0,0,.71-.8c.23-.27.44-.55.65-.84a14.29,14.29,0,0,0,1.08-1.8c.16-.31.3-.63.44-1a9.94,9.94,0,0,0,.35-1c.11-.34.21-.69.3-1s.15-.7.21-1c0-.17.05-.35.07-.53s0-.34.05-.51c0-.33.05-.67.06-1s0-.7,0-1.05,0-.7-.05-1-.08-.72-.13-1.07-.14-.7-.23-1c0-.15-.08-.31-.13-.46s-.1-.36-.16-.53-.22-.65-.36-1-.27-.64-.43-1c-.07-.14-.14-.28-.22-.42a2.92,2.92,0,0,0-.25-.4.25.25,0,0,0-.43.24c.07.16.16.32.23.48l.23.46a17.09,17.09,0,0,1,.79,2.1h0c.08.26.15.51.21.77s.07.28.1.42,0,.24.07.36c0,.3.09.59.11.9s.05.6.06.9,0,.82,0,1.23,0,.8-.07,1.2a14.38,14.38,0,0,1-.25,1.6h0c0,.07,0,.14-.05.21h0c-.07.27-.14.53-.22.8s-.09.29-.14.44-.09.23-.13.35h0v0c-.11.26-.22.53-.34.79s-.23.47-.35.71-.28.51-.43.76-.28.45-.43.67-.37.51-.57.76-.4.49-.62.73l0,0a20.82,20.82,0,0,1-1.52,1.45h0c-.16.14-.33.27-.5.4s-.33.24-.51.35a8,8,0,0,1-.74.44c-.27.15-.54.28-.81.4h0c-.39.18-.79.34-1.19.5s-.76.27-1.14.39h0Q239.88,52.87,239.29,53Z"/><path d="M247.42,30.41a.45.45,0,0,0,.23,0,.59.59,0,0,0,.17-.1A.48.48,0,0,0,248,30a.44.44,0,0,0-.42-.47.45.45,0,0,0-.36.16.43.43,0,0,0,0,.47.36.36,0,0,0,.15.15A.42.42,0,0,0,247.42,30.41Z"/><path d="M12.43,25.73c.33-.49.64-1,.93-1.38s.58-.85.88-1.27a17.37,17.37,0,0,1,3-3.4A27.94,27.94,0,0,1,21,17a13.92,13.92,0,0,1,4.22-1.79,5.89,5.89,0,0,1,4.29.41,8.29,8.29,0,0,1,3,3,9.71,9.71,0,0,1,1,2.73,19.63,19.63,0,0,1,.37,2.86,16.43,16.43,0,0,1-.32,4c-.28,1.31-.61,2.63-1,3.95q-1,3.4-2.34,6.67c-.86,2.19-1.78,4.35-2.74,6.51Q26.27,48,25.12,50.55t-2.44,5q-1.11,2.19-2.25,4.31T18.1,64.16c-.25.47-.49.94-.71,1.42l-.66,1.48a5.7,5.7,0,0,1-1.2,1.78,8.9,8.9,0,0,1-1.69,1.32,3.18,3.18,0,0,1-1.51.5c-.52,0-1,.09-1.56.17a.57.57,0,0,1-.41-.12l-.89-.89a3.13,3.13,0,0,1-.69-1.1,18.09,18.09,0,0,1-1-3.79c-.2-1.28-.37-2.59-.51-3.91S7,58.16,6.8,56.75s-.35-2.82-.52-4.26-.36-2.92-.5-4.37-.22-2.92-.25-4.41-.14-3.12-.23-4.64S5.15,36,5.15,34.44c0-1.27,0-2.54,0-3.81s.11-2.54.25-3.81c.05-.55.09-1.12.1-1.7s0-1.16.1-1.74a4,4,0,0,1,.58-1.86,4.77,4.77,0,0,1,1.32-1.37,2.13,2.13,0,0,1,2.05-.38,2.79,2.79,0,0,1,1.56,1.45c.22.5.42,1,.6,1.57a10.21,10.21,0,0,1,.39,1.66C12.19,24.73,12.29,25.15,12.43,25.73Zm1.89,34.16a3.13,3.13,0,0,0,.62-.91l.4-.85c.12-.26.25-.53.39-.8.91-1.58,1.78-3.17,2.6-4.79s1.64-3.25,2.44-4.91c.47-.94.92-1.87,1.34-2.8S23,43,23.46,42s1.08-2.21,1.61-3.3,1-2.21,1.49-3.37,1-2.31,1.4-3.44a27.88,27.88,0,0,0,1.11-3.56c.17-.64.33-1.27.5-1.89a12,12,0,0,0,.33-1.92,8.42,8.42,0,0,0,0-1.81A5,5,0,0,0,29.27,21a2.07,2.07,0,0,0-.74-.94,2.15,2.15,0,0,0-1.2-.14L27,20a1.66,1.66,0,0,0-.37.11,9.9,9.9,0,0,0-2.73,1.22,27.34,27.34,0,0,0-2.4,1.76,29.71,29.71,0,0,0-4.26,4.44,45.41,45.41,0,0,0-3.43,5.1,9.82,9.82,0,0,0-.89,2.13,6,6,0,0,0-.18,2.34c.08.91.13,1.82.16,2.73s.07,1.82.13,2.74c.11,2,.22,4,.34,5.92s.25,3.93.42,5.92c.08.8.15,1.61.21,2.44s.11,1.66.17,2.48a1.52,1.52,0,0,0,0,.29A.39.39,0,0,0,14.32,59.89Z"/><path d="M52,46.06c.14.93.25,1.85.33,2.75a23.22,23.22,0,0,1,.08,2.78c0,.21,0,.41,0,.62a4.82,4.82,0,0,1-.1.57l-.2,1.94a1.06,1.06,0,0,1-.6.12,1,1,0,0,1-.46-.39A4.82,4.82,0,0,1,50,51.87a19.06,19.06,0,0,1-.19-2c0-.68-.1-1.35-.19-2-.07-.47-.17-1-.29-1.44s-.25-1-.36-1.44a2.62,2.62,0,0,0-.19-.46L48.51,44l-.66.49a4.13,4.13,0,0,0-.6.49A30.26,30.26,0,0,0,45,47.44a24.9,24.9,0,0,0-1.93,2.7,19.33,19.33,0,0,0-1.4,2.76,19.59,19.59,0,0,0-1,3,1.13,1.13,0,0,0-.07.39v.43c.07.58.15,1.17.23,1.74s.17,1.16.29,1.75a20.33,20.33,0,0,1,.35,2.21c.08.75.18,1.49.3,2.24,0,.23.08.44.12.64s.07.41.11.62c.05.47.1.95.16,1.42s.11.94.15,1.39l.21,1.39c.07.48.13.94.2,1.4.05.2.09.4.14.61s.09.4.14.61a1.26,1.26,0,0,1,0,.47c0,.16,0,.32-.07.48a8.62,8.62,0,0,1-.11.87,1.84,1.84,0,0,1-.36.76l-.2.2a1.06,1.06,0,0,1-.72.24,3.82,3.82,0,0,1-.91.31,5.84,5.84,0,0,1-1.17.14A3.15,3.15,0,0,1,38.44,76a1,1,0,0,1-.66-.66,32,32,0,0,1-.87-3.53c-.29-1.43-.57-3-.84-4.7s-.54-3.5-.79-5.37-.48-3.71-.7-5.53S34.17,52.62,34,51l-.45-4.38q-.18-1.91-.27-3.06c-.06-.77-.09-1.17-.09-1.22a.65.65,0,0,1,.31-.24,3.78,3.78,0,0,1,.63-.24c.23-.06.48-.13.73-.18a5.71,5.71,0,0,0,.57-.16.24.24,0,0,1,.14,0,0,0,0,0,0,0,0v0a1.15,1.15,0,0,1,.39-.07h.36a.53.53,0,0,1,.51.24c.09.16.2.34.34.54a11.91,11.91,0,0,1,1.12,2.33c.3.82.56,1.66.79,2.52.15.59.29,1.18.39,1.77s.21,1.18.32,1.76a.37.37,0,0,0,0,.12s0,.11,0,.22l.24-.47c.07-.14.12-.26.17-.38A14,14,0,0,1,42,47c.58-.77,1.18-1.53,1.79-2.28a13.72,13.72,0,0,1,2.07-2l.49-.4a6.06,6.06,0,0,0,.53-.42,2.89,2.89,0,0,1,1.31-.6,5.73,5.73,0,0,1,1.44,0,.81.81,0,0,1,.51.24,3.19,3.19,0,0,1,.37.44,5.29,5.29,0,0,1,1,2A18.52,18.52,0,0,1,52,46.06Z"/><path d="M63,63c.08.71.15,1.39.2,2s.1,1.08.13,1.58a3.32,3.32,0,0,1,0,1,2.47,2.47,0,0,1-.66,1.21,1.56,1.56,0,0,1-1.24.33,3.11,3.11,0,0,1-1.89-.89,6.72,6.72,0,0,1-1.14-1.68,4.83,4.83,0,0,1-.46-1.2c-.08-.36-.16-.7-.24-1a8.32,8.32,0,0,1-.21-1c-.14-1.46-.29-2.91-.44-4.34s-.29-2.89-.4-4.35c-.11-1.3-.22-2.58-.31-3.85a38.56,38.56,0,0,1-.11-3.9c0-.74,0-1.49,0-2.23s0-1.49,0-2.24q0-.7.06-1.38c0-.46,0-.92.07-1.39s0-.93,0-1.37,0-.9,0-1.37a8.56,8.56,0,0,1,.25-1.65,2.18,2.18,0,0,1,1.18-1.47,1.94,1.94,0,0,1,1.84,0,1.89,1.89,0,0,1,.56.44c.15.18.3.36.44.56a5,5,0,0,1,.56,1.2c.12.41.24.84.35,1.28A23,23,0,0,1,62,40.34a27,27,0,0,1,.11,3.12c0,.72,0,1.42,0,2.09s0,1.38,0,2.1h0c.06.82.09,1.65.09,2.46s0,1.63.08,2.46l.63,8.7c0,.3,0,.59,0,.85ZM59.79,30.59a1.59,1.59,0,0,1-.58.16,1.39,1.39,0,0,1-.64-.06,1.31,1.31,0,0,1-.58-.45,2.45,2.45,0,0,1-.39-1.06A2.17,2.17,0,0,1,57.66,28a2.78,2.78,0,0,1,.47-.81,2.91,2.91,0,0,1,.83-.62c.09-.05.27,0,.56.08s.59.24.89.38a1.89,1.89,0,0,1,.89.95,3.35,3.35,0,0,1,.44,1.32.63.63,0,0,1-.19.48,2.21,2.21,0,0,1-.49.35,4,4,0,0,1-.64.27Z"/><path d="M78.47,55.3c.17-.56.33-1.11.5-1.68s.31-1.13.45-1.68c.22-.94.47-1.85.74-2.75a26.86,26.86,0,0,1,1-2.67c.39-1,.8-1.94,1.22-2.92s.88-2,1.35-2.93S84.56,39,85,38.15s.91-1.65,1.38-2.45.77-1.31,1.16-2,.8-1.27,1.24-1.9a9.65,9.65,0,0,1,.93-1.18c.35-.38.68-.75,1-1.14.2-.22.38-.42.56-.6s.37-.38.56-.6a1.75,1.75,0,0,1,1.45-.67l.85.08a7.09,7.09,0,0,0,.81,0,1.15,1.15,0,0,1,.78.36,5.38,5.38,0,0,1,.54.64,3.24,3.24,0,0,1,.52.87,5.87,5.87,0,0,1,.31,1,20.8,20.8,0,0,1,.52,4,37.14,37.14,0,0,1-.09,4.07l-.27,3.48c-.1,1.16-.17,2.32-.22,3.48-.14,2-.24,4-.29,6s0,4,0,6l.15,2.9a22,22,0,0,0,.31,2.9c.06.3.1.59.15.85s.09.53.14.81a3.73,3.73,0,0,1,.11.64,1,1,0,0,1-.23.64s0,0,0,0,0,0,0,0a1.12,1.12,0,0,1-.31,1,4.46,4.46,0,0,1-.93.58c-.36.14-.71.28-1,.43s-.69.3-1.07.44a2.79,2.79,0,0,1-1.76,0,2.83,2.83,0,0,1-1.48-1,.7.7,0,0,1-.14-.37,1.6,1.6,0,0,0-.1-.42,1.18,1.18,0,0,1,0-.31,1.2,1.2,0,0,0,0-.31,42.63,42.63,0,0,1-.75-9.19q0-.91,0-1.8a15.65,15.65,0,0,1,.07-1.8c0-1,.12-1.93.22-2.9s.18-1.93.27-2.9c.08-.8.17-1.6.26-2.4s.21-1.6.35-2.4c.08-.64.19-1.27.31-1.91s.24-1.27.35-1.9c.19-1.19.4-2.37.62-3.55a26.32,26.32,0,0,0,.41-3.58,2,2,0,0,0,0-.49c0-.17,0-.36,0-.58a8,8,0,0,0-2.07,2.07c-.3.47-.59.94-.85,1.43s-.53,1-.8,1.43l-.93,1.57c-.32.53-.63,1-.93,1.58a17.64,17.64,0,0,0-.87,1.74c-.39.82-.77,1.65-1.14,2.46s-.75,1.64-1.13,2.47a12.4,12.4,0,0,0-.46,1.22c-.14.43-.27.85-.41,1.26-.36,1.08-.71,2.16-1,3.23s-.69,2.16-1,3.23a13.06,13.06,0,0,0-.45,1.68c-.11.57-.25,1.13-.41,1.68a11.93,11.93,0,0,0-.41,2.46c-.06.85-.15,1.68-.29,2.51-.06.38-.13.77-.23,1.16a11.3,11.3,0,0,0-.22,1.16c-.06.36-.1.71-.13,1a3.92,3.92,0,0,1-.2,1A6,6,0,0,1,78,69.17a1.74,1.74,0,0,1-.35.5,3.6,3.6,0,0,1-.56.37,2,2,0,0,1-.6.15l-.64,0-.6,0a.74.74,0,0,1-.48-.27,6.78,6.78,0,0,1-1.37-2.07,19.79,19.79,0,0,1-1-3.33q-.33-1.68-.54-3.42c-.14-1.32-.29-2.65-.46-4s-.29-2.65-.37-4q-.13-2.35-.15-4.74c0-1.59,0-3.18,0-4.78,0-1.25,0-2.49.1-3.73s.13-2.5.18-3.77c.08-1.57.21-3.2.37-4.88a8.83,8.83,0,0,1,.29-1.41,4.47,4.47,0,0,1,.66-1.33,1.43,1.43,0,0,1,1.12-.7,2.54,2.54,0,0,1,1.07,0,1.42,1.42,0,0,1,.87.7,8,8,0,0,1,.61,1.14A5.05,5.05,0,0,1,76.42,31q.08.82.21,1.59c.08.52.16,1.05.25,1.6.14.77.24,1.53.31,2.28s.12,1.51.15,2.31c0,1.16.12,2.31.19,3.44s.13,2.28.19,3.44.11,2.48.17,3.7.11,2.47.17,3.71c0,.39,0,.77.08,1.14s.07.75.12,1.14Z"/><path d="M144.35,56.16a2.44,2.44,0,0,1-.2,1.72,1.48,1.48,0,0,1-.86.65,2.47,2.47,0,0,1-1.37,0c-.66-.38-1.34-.74-2-1.08s-1.36-.69-2-1.08q-2.71-1.55-5.37-3.14L127.15,50q-2.84-1.71-5.62-3.47L115.91,43c-.23-.14-.45-.27-.69-.39a1.42,1.42,0,0,0-.89-.1c.11.61.22,1.2.3,1.78l.27,1.74q.61,3.84,1.18,7.61t1.1,7.56a21.68,21.68,0,0,1,.24,3c0,1,0,2,.11,3a4.35,4.35,0,0,1-1.43,2.45,5,5,0,0,1-2.06,1,7.55,7.55,0,0,1-2.65.07,1,1,0,0,1-.28-.29l-.23-.37A12,12,0,0,1,109.51,67a27.77,27.77,0,0,1-.71-3.36c-.24-1.41-.44-2.79-.62-4.14s-.38-2.72-.61-4.09c-.33-2.1-.65-4.19-1-6.27s-.66-4.16-1-6.22q-.57-3.65-1-7.41-.41-2.8-.78-5.6T103,24.26c-.18-1.29-.35-2.57-.53-3.84s-.34-2.57-.49-3.89c-.12-1.05-.2-2.08-.23-3.1a16.33,16.33,0,0,1,.18-3.11,1.53,1.53,0,0,1,1.64-1.47A4.55,4.55,0,0,1,106.47,10a7.06,7.06,0,0,1,1.67,2.24,26.36,26.36,0,0,1,1.06,2.58,30.16,30.16,0,0,1,1.15,4.07c.29,1.36.55,2.75.79,4.15q.52,3.11,1,6.17c.32,2,.65,4.09,1,6.16l.09.66a5,5,0,0,0,.13.7c.63-.14,1.23-.26,1.79-.34A12,12,0,0,0,116.8,36c1.73-.49,3.44-1,5.12-1.52s3.39-1,5.12-1.55l3.78-1.17,3.78-1.18a2,2,0,0,1,2.16.61,3.3,3.3,0,0,1-.84,1.35,5.94,5.94,0,0,1-1.25.9c-.61.31-1.22.59-1.84.84s-1.25.5-1.88.73c-1.48.59-3,1.17-4.48,1.75L122,38.47c-.36.14-.73.27-1.1.38l-1.22.38a5.71,5.71,0,0,0,.55.5l4.18,2.49c1.37.81,2.75,1.66,4.14,2.53S131,46.27,132.2,47l3.6,2.32c.89.55,1.76,1.1,2.62,1.66L141,52.71a7.7,7.7,0,0,1,1,.74l.93.82A4.68,4.68,0,0,1,144.35,56.16Z"/><path d="M150.22,45.63c.08.71.15,1.39.21,2s.09,1.08.12,1.58a3.32,3.32,0,0,1,0,1,2.47,2.47,0,0,1-.66,1.21,1.56,1.56,0,0,1-1.24.33,3.11,3.11,0,0,1-1.89-.89,6.72,6.72,0,0,1-1.14-1.68,4.43,4.43,0,0,1-.45-1.2c-.09-.36-.17-.7-.25-1s-.15-.68-.21-1c-.14-1.46-.29-2.91-.44-4.34s-.29-2.89-.4-4.35c-.11-1.3-.21-2.58-.31-3.85s-.13-2.57-.11-3.9c0-.74,0-1.49,0-2.23s0-1.49,0-2.24q0-.71.06-1.38c0-.46,0-.92.06-1.39s0-.93,0-1.37,0-.9,0-1.37a8.56,8.56,0,0,1,.25-1.65A2.21,2.21,0,0,1,145,16.42a1.94,1.94,0,0,1,1.84,0,1.74,1.74,0,0,1,.56.44c.15.18.3.36.44.56a4.68,4.68,0,0,1,.56,1.2c.12.41.24.84.35,1.28a23,23,0,0,1,.52,3.13,24.9,24.9,0,0,1,.11,3.12c0,.72,0,1.42,0,2.09s0,1.38,0,2.1h0c.06.82.09,1.65.09,2.46s0,1.63.09,2.46l.62,8.7c0,.3.05.59.05.85ZM147,13.25a1.71,1.71,0,0,1-.58.16,1.38,1.38,0,0,1-.64-.06,1.21,1.21,0,0,1-.58-.45,2.45,2.45,0,0,1-.4-1.06,2.27,2.27,0,0,1,.06-1.18,2.8,2.8,0,0,1,.48-.81,2.73,2.73,0,0,1,.82-.62c.09-.05.27,0,.56.08s.59.24.89.38a1.9,1.9,0,0,1,.9,1,3.48,3.48,0,0,1,.43,1.32.66.66,0,0,1-.18.48,2.29,2.29,0,0,1-.5.35,4,4,0,0,1-.64.27Z"/><path d="M163.73,54.83c.24-.52.48-1.06.72-1.59s.47-1.07.68-1.6c.35-.9.72-1.78,1.12-2.63a24.29,24.29,0,0,1,1.34-2.51c.52-.9,1-1.81,1.61-2.73s1.14-1.81,1.73-2.7,1.08-1.57,1.64-2.33,1.13-1.5,1.71-2.23.94-1.19,1.41-1.77,1-1.15,1.49-1.72a9,9,0,0,1,1.09-1c.39-.32.77-.65,1.16-1l.63-.52c.2-.15.42-.32.64-.52a1.76,1.76,0,0,1,1.52-.46l.83.2a5.14,5.14,0,0,0,.8.15,1.24,1.24,0,0,1,.73.46A7.56,7.56,0,0,1,185,31a3.15,3.15,0,0,1,.4.93,7.87,7.87,0,0,1,.18,1,22.1,22.1,0,0,1,0,4.07,35.8,35.8,0,0,1-.66,4c-.24,1.14-.49,2.28-.74,3.41s-.49,2.28-.7,3.42q-.61,3-1.11,5.95c-.33,2-.59,4-.79,6-.07,1-.16,1.93-.25,2.89a21.87,21.87,0,0,0-.08,2.92c0,.31,0,.59,0,.86s0,.54,0,.82a3.54,3.54,0,0,1,0,.65,1,1,0,0,1-.31.6s0,0,0,0,0,0,0,0a1.09,1.09,0,0,1-.45,1,4.16,4.16,0,0,1-1,.45c-.38.09-.74.18-1.09.29s-.72.2-1.12.28a2.71,2.71,0,0,1-1.75-.24,2.83,2.83,0,0,1-1.32-1.18.66.66,0,0,1-.09-.39,1.63,1.63,0,0,0-.05-.43,1.6,1.6,0,0,1,0-.31.81.81,0,0,0,0-.31,42.6,42.6,0,0,1,.52-9.21c.08-.6.16-1.2.22-1.79a15.62,15.62,0,0,1,.31-1.77c.19-.95.39-1.9.62-2.84s.45-1.89.66-2.84c.2-.78.39-1.56.6-2.34s.43-1.56.67-2.33.36-1.24.57-1.85.41-1.22.61-1.84c.35-1.15.72-2.29,1.1-3.42a25.52,25.52,0,0,0,.9-3.49,1.67,1.67,0,0,0,.08-.49c0-.17,0-.36.06-.58a8.29,8.29,0,0,0-2.33,1.77c-.37.42-.71.86-1,1.3s-.65.88-1,1.31l-1.14,1.43-1.14,1.43a17.42,17.42,0,0,0-1.09,1.6c-.5.77-1,1.53-1.47,2.29s-1,1.52-1.46,2.28c-.22.37-.43.75-.62,1.15l-.58,1.2c-.5,1-1,2-1.49,3.05s-1,2-1.44,3.06a11.63,11.63,0,0,0-.68,1.6c-.19.55-.4,1.08-.64,1.61a12.2,12.2,0,0,0-.75,2.38c-.17.83-.38,1.64-.63,2.45-.11.37-.23.74-.38,1.11a9.86,9.86,0,0,0-.38,1.12,10.46,10.46,0,0,0-.27,1,4.41,4.41,0,0,1-.35,1,6,6,0,0,1-.77,1.39,1.54,1.54,0,0,1-.42.45,3.38,3.38,0,0,1-.6.29,1.64,1.64,0,0,1-.62.06l-.64-.06c-.22,0-.41-.07-.59-.11a.61.61,0,0,1-.43-.33A6.57,6.57,0,0,1,157,66.57a19.78,19.78,0,0,1-.53-3.44c-.06-1.14-.08-2.29-.06-3.46,0-1.33.07-2.67.09-4s.07-2.67.17-4c.13-1.57.3-3.14.5-4.72s.42-3.15.63-4.74c.17-1.23.38-2.45.61-3.68s.47-2.45.7-3.7c.3-1.55.65-3.15,1-4.79a8.82,8.82,0,0,1,.48-1.36,4.47,4.47,0,0,1,.83-1.22,1.47,1.47,0,0,1,1.21-.55,3,3,0,0,1,1.06.19,1.47,1.47,0,0,1,.76.82,6.61,6.61,0,0,1,.44,1.21,4.77,4.77,0,0,1,.14,1.29c0,.56,0,1.09,0,1.61s0,1.05,0,1.61c0,.79,0,1.55,0,2.3s-.09,1.52-.17,2.32c-.1,1.15-.2,2.3-.28,3.43s-.18,2.27-.29,3.43-.23,2.47-.34,3.69-.22,2.46-.34,3.7c0,.38,0,.76-.07,1.14a10.71,10.71,0,0,0,0,1.14Z"/><path d="M211.79,53l-.66.92-.66.91a21.28,21.28,0,0,1-3.18,3.31,15,15,0,0,1-4,2.37,12.93,12.93,0,0,1-6.75.79,7.08,7.08,0,0,1-3-1.28,8.13,8.13,0,0,1-2.14-2.48,5.21,5.21,0,0,1-.72-2.67,9.09,9.09,0,0,1,.43-2.67,14.15,14.15,0,0,1,2-4.23,21.65,21.65,0,0,1,3.06-3.52q1.69-1.57,3.5-2.94a16.87,16.87,0,0,1,4-2.24,34.78,34.78,0,0,1,4.1-1.4,25.86,25.86,0,0,1,4.31-.77c0-.33.08-.64.1-.93a7.13,7.13,0,0,1,.1-.89c.06-.27.1-.55.14-.83s.09-.55.15-.83a1.22,1.22,0,0,1,.31-.68,1.51,1.51,0,0,1,.76-.19,6.52,6.52,0,0,1,1.08-.06,1.26,1.26,0,0,1,1,.56l.19.27a.89.89,0,0,1,.15.31c.13.69.28,1.38.43,2.07s.3,1.38.44,2.07c.22,1,.44,2.1.64,3.17s.39,2.13.53,3.2a72.52,72.52,0,0,1,.73,8.55q.1,4.29.11,8.64,0,3.22-.1,6.4t-.38,6.39c-.08,1.05-.17,1.87-.25,2.47a12.81,12.81,0,0,1-.31,1.61c-.12.49-.28,1-.47,1.58s-.46,1.34-.79,2.34-.71,2-1.13,3a19.66,19.66,0,0,1-1.51,2.78,21.67,21.67,0,0,1-5.5,5.68,22.59,22.59,0,0,1-2.18,1.32,13,13,0,0,1-2.33,1,10,10,0,0,1-4.21.48,12.86,12.86,0,0,1-4.08-1.18A15.75,15.75,0,0,1,192,93.1,18.12,18.12,0,0,1,189.26,90a12.5,12.5,0,0,1-1.64-3.21,16.86,16.86,0,0,1-.76-3.54,26.72,26.72,0,0,1-.13-4.47,11.14,11.14,0,0,1,1.81-5.39,2,2,0,0,1,1-.79,2.71,2.71,0,0,1,1.33-.16l.45,0,.46-.07a2.22,2.22,0,0,1,.62,0,3.19,3.19,0,0,1,.73.21,2.85,2.85,0,0,1,.62.35,1.28,1.28,0,0,1,.39.46.79.79,0,0,1,0,.45,1.79,1.79,0,0,1-.16.46,7,7,0,0,0-1,2.73,20.82,20.82,0,0,0-.19,2.86q0,.82-.06,1.68a5.61,5.61,0,0,0,.23,1.67A8,8,0,0,0,194.35,86a5.62,5.62,0,0,0,2.9,1.95,6.24,6.24,0,0,0,3.69-.13,10,10,0,0,0,3.76-2.14,11.74,11.74,0,0,0,2.61-3.5,19.23,19.23,0,0,0,1.45-3.6c.35-1.24.68-2.49,1-3.73.19-.75.31-1.28.37-1.6a7.54,7.54,0,0,0,.1-.8c0-.22,0-.49,0-.79s.06-.84.14-1.61q.38-3.19.7-6.36c.22-2.11.44-4.25.66-6.4q.08-1,.12-2.07t.12-2.07l-.1-.06Zm-13.95,2c0,1.05.55,1.43,1.66,1.15a12.58,12.58,0,0,0,4.06-1.84,21.07,21.07,0,0,0,3.35-2.92,22.55,22.55,0,0,0,3.1-4.52,31.06,31.06,0,0,0,2.06-5.1,1.33,1.33,0,0,0,.13-.58c.05-.94-.32-1.2-1.12-.78a11.91,11.91,0,0,0-2,1.24l-2.89,2.41-2.9,2.4A19.32,19.32,0,0,0,201,48.86a19.83,19.83,0,0,0-1.88,2.74A9.83,9.83,0,0,0,197.84,55Z"/><path d="M23.39,109.68l-.47,1.26c-.38,1.21-.77,2.41-1.15,3.61s-.77,2.38-1.16,3.56a13.8,13.8,0,0,1-2.5,4.66,4.76,4.76,0,0,1-1.7,1.38,9.46,9.46,0,0,1-2.06.71,1.26,1.26,0,0,1-.49.12,2.49,2.49,0,0,0-.5.08,4.92,4.92,0,0,1-3-.28,8.63,8.63,0,0,1-2.49-1.72,9.53,9.53,0,0,1-1.68-2.16A15.88,15.88,0,0,1,5,118.4a11.53,11.53,0,0,1-.64-2.18c-.13-.73-.27-1.49-.41-2.28a23.21,23.21,0,0,1-.37-4.44c0-1.46,0-2.94,0-4.43,0-1.1.08-2.19.17-3.29s.2-2.19.35-3.26a11.76,11.76,0,0,1,.4-1.8A17.76,17.76,0,0,1,5.14,95a1.83,1.83,0,0,0,.2-.43,2.19,2.19,0,0,1,.24-.65.66.66,0,0,1,.57-.31,3.1,3.1,0,0,1,.91,0,1.58,1.58,0,0,1,.8.41,5.72,5.72,0,0,1,.94,1.15,2.43,2.43,0,0,1,.31,1.42,2.6,2.6,0,0,0,.08.55A24.53,24.53,0,0,1,9.83,101l.33,3.9q.23,3,.58,6a41.43,41.43,0,0,0,1.17,5.93,18,18,0,0,0,.66,1.83,7,7,0,0,0,1,1.63c.17.17.34.34.51.49s.36.34.56.54c.37-.36.72-.7,1-1a3.85,3.85,0,0,0,.75-1.16c.35-.81.68-1.62,1-2.43s.6-1.64.86-2.47c.43-1.37.83-2.71,1.19-4s.75-2.68,1.15-4a92.41,92.41,0,0,1,3.67-9.7,8.11,8.11,0,0,0,.42-1.35c.09-.46.17-.92.23-1.38a30.2,30.2,0,0,1,.92-3.75c.39-1.21.83-2.41,1.34-3.59a1.33,1.33,0,0,1,.4-.55,2.1,2.1,0,0,1,.6-.29c.36-.11.71-.21,1.05-.29a2.37,2.37,0,0,1,1.12,0,2.33,2.33,0,0,1,1,.57,3.63,3.63,0,0,1,.65.92,5.5,5.5,0,0,1,.62,2,15.43,15.43,0,0,1,.07,2q-.09,3.06-.18,6.08c-.07,2-.11,4-.14,6.07,0,1.67-.09,3.35-.18,5s-.22,3.34-.37,5c-.05.67-.11,1.33-.18,2s-.14,1.31-.22,2c0,.49-.07,1-.1,1.46l-.09,1.47c-.14,1.31-.26,2.62-.38,3.92s-.27,2.61-.43,3.93c-.1.82-.22,1.65-.36,2.48s-.26,1.67-.39,2.53a19.44,19.44,0,0,1-1.61,5.11A16,16,0,0,1,25,142.11a19.93,19.93,0,0,1-6.05,4.1,22.29,22.29,0,0,1-2.23.82,12.7,12.7,0,0,1-2.35.46,13.24,13.24,0,0,1-3.51-.07,9,9,0,0,1-3.31-1.22A5.08,5.08,0,0,0,7,146a2.61,2.61,0,0,1-.51-.22,11,11,0,0,1-1.76-1.12,8.05,8.05,0,0,1-1.46-1.51,19,19,0,0,1-1.95-2.92,9.77,9.77,0,0,1-1.06-3.29c-.1-.63-.17-1.26-.23-1.88a6.77,6.77,0,0,1,.1-1.85A7.17,7.17,0,0,1,.79,131a3.73,3.73,0,0,1,1.66-1.65.9.9,0,0,1,.95,0,2.22,2.22,0,0,1,1.06,1.72,8,8,0,0,0,.64,2.7,20,20,0,0,0,1.26,2.38,6.28,6.28,0,0,0,2,2.09,7.14,7.14,0,0,0,2.62,1,7.66,7.66,0,0,0,2.82,0,7,7,0,0,0,2.63-1.14,10.62,10.62,0,0,0,3.93-5.2,7,7,0,0,0,.45-1.56l.27-1.59c.21-1.17.39-2.33.55-3.5s.32-2.33.5-3.49c.18-1.53.35-3.05.5-4.55s.32-3,.5-4.59l.36-3.17c0-.15,0-.29,0-.41a2.33,2.33,0,0,1,0-.37Z"/><path d="M60,121.41c0,1,.06,2,.07,2.8a12.58,12.58,0,0,1-.22,2.39c-.14.66-.28,1.32-.44,2a13.45,13.45,0,0,1-.64,2c-.27.61-.55,1.2-.84,1.79l-.88,1.75a7,7,0,0,1-1.15,1.58,15.86,15.86,0,0,1-1.43,1.29.22.22,0,0,1-.11.09.39.39,0,0,0-.11.09,4.82,4.82,0,0,1-2.21,1.29,12.48,12.48,0,0,1-2.53.4,5.29,5.29,0,0,1-1.12-.05l-1.12-.14a9.28,9.28,0,0,1-4.71-2,12.08,12.08,0,0,1-3.14-4,16,16,0,0,1-1.54-4.39,21,21,0,0,1-.34-4.63,30.78,30.78,0,0,1,.32-3.49,25.48,25.48,0,0,1,.75-3.42A21.67,21.67,0,0,1,40.55,112,16.59,16.59,0,0,1,43.68,108a10,10,0,0,1,6.08-2.82,5.81,5.81,0,0,1,3,.39,7.46,7.46,0,0,1,2.48,1.81,11.51,11.51,0,0,1,2,3,28.39,28.39,0,0,1,1.26,3.37,20.77,20.77,0,0,1,.54,2.13c.14.72.29,1.44.44,2.17s.28,1.24.39,1.84A7,7,0,0,1,60,121.41Zm-15.31,4.16a12.93,12.93,0,0,0,.59,2.69,10.08,10.08,0,0,0,1.55,3,6.61,6.61,0,0,0,2.67,2.17,6.22,6.22,0,0,0,3.44.38,3.84,3.84,0,0,0,.87-.28c.28-.12.55-.26.83-.41a3.2,3.2,0,0,0,1.25-1.25c.28-.52.55-1.06.8-1.62a10.9,10.9,0,0,0,.75-2.79c.12-1,.2-1.9.23-2.86s0-1.65,0-2.46a11.8,11.8,0,0,0-.4-2.4c-.15-.56-.28-1.12-.4-1.68s-.26-1.12-.43-1.67c-.22-.8-.48-1.58-.77-2.35a10.45,10.45,0,0,0-1.16-2.16,10.68,10.68,0,0,0-1.45-1.68A5.35,5.35,0,0,0,51.14,109a2.5,2.5,0,0,0-1.58-.08A2.57,2.57,0,0,0,48.38,110a19.44,19.44,0,0,0-2.47,5.15,28.33,28.33,0,0,0-1,4.86A37.49,37.49,0,0,0,44.72,125.57Z"/><path d="M81.1,119.6l-.48.75-.48.75a16.15,16.15,0,0,1-2.35,2.76,11.91,11.91,0,0,1-3,2,10.29,10.29,0,0,1-5.28.93A5.64,5.64,0,0,1,67,126a6.36,6.36,0,0,1-1.8-1.85,4.3,4.3,0,0,1-.7-2.07,7.72,7.72,0,0,1,.22-2.13,11.15,11.15,0,0,1,1.37-3.42,17.91,17.91,0,0,1,2.25-2.92c.84-.87,1.71-1.7,2.62-2.48a13.26,13.26,0,0,1,3-1.94,27.58,27.58,0,0,1,3.16-1.29,20.09,20.09,0,0,1,3.36-.8,6.58,6.58,0,0,0,0-.74,5.74,5.74,0,0,1,0-.71c0-.22.05-.44.07-.66s0-.44.08-.66a1,1,0,0,1,.21-.55,1.28,1.28,0,0,1,.6-.18,4,4,0,0,1,.84-.1,1,1,0,0,1,.78.39l.16.21a.76.76,0,0,1,.13.23c.14.54.28,1.08.44,1.62s.29,1.07.44,1.61c.22.81.44,1.63.65,2.46s.4,1.66.56,2.51a56.32,56.32,0,0,1,1,6.7c.19,2.25.35,4.51.49,6.8q.15,2.53.21,5c0,1.67,0,3.35,0,5.06,0,.83,0,1.48-.08,2a11.36,11.36,0,0,1-.16,1.29c-.08.39-.18.81-.31,1.26s-.29,1.08-.51,1.88a23.89,23.89,0,0,1-.75,2.4,16.09,16.09,0,0,1-1.06,2.26,16.9,16.9,0,0,1-4.08,4.73A15.71,15.71,0,0,1,78.62,153a9.94,9.94,0,0,1-1.8.86,7.85,7.85,0,0,1-3.29.58,10.45,10.45,0,0,1-3.26-.74,12.18,12.18,0,0,1-2.88-1.63,13.27,13.27,0,0,1-2.33-2.29,9.27,9.27,0,0,1-1.44-2.45,12.82,12.82,0,0,1-.77-2.75,21.93,21.93,0,0,1-.31-3.52,8.86,8.86,0,0,1,1.18-4.32,1.51,1.51,0,0,1,.72-.67,2.11,2.11,0,0,1,1-.19l.36,0,.36-.07a1.55,1.55,0,0,1,.49,0,2.32,2.32,0,0,1,.58.13,1.79,1.79,0,0,1,.5.24,1.08,1.08,0,0,1,.33.35.64.64,0,0,1,.06.35,1.17,1.17,0,0,1-.11.37,5.77,5.77,0,0,0-.64,2.2,17,17,0,0,0,0,2.26q0,.65,0,1.32a4,4,0,0,0,.26,1.31,6.16,6.16,0,0,0,1.2,2.09,4.42,4.42,0,0,0,2.38,1.4,4.87,4.87,0,0,0,2.89-.27A8,8,0,0,0,77,145.66a9.35,9.35,0,0,0,1.89-2.88,15.24,15.24,0,0,0,1-2.9c.22-1,.42-2,.6-3,.12-.59.19-1,.22-1.27a5.75,5.75,0,0,0,.05-.64c0-.18,0-.38,0-.62s0-.67,0-1.28c.1-1.69.18-3.37.26-5s.15-3.37.22-5.07c0-.55,0-1.1,0-1.64s0-1.09,0-1.64l-.08,0Zm-10.9,2.22c0,.83.5,1.11,1.36.84A9.85,9.85,0,0,0,74.67,121a16.2,16.2,0,0,0,2.51-2.46,17.43,17.43,0,0,0,2.23-3.7,24.84,24.84,0,0,0,1.4-4.11,1.51,1.51,0,0,0,.07-.46c0-.75-.31-.93-.92-.57a9.91,9.91,0,0,0-1.48,1.07l-2.17,2-2.17,2a14.62,14.62,0,0,0-1.73,2,15.12,15.12,0,0,0-1.36,2.25A7.66,7.66,0,0,0,70.2,121.82Z"/><path d="M96.74,125.45c0-.44.05-.88.08-1.31s.07-.88.09-1.32c.06-.85.1-1.71.13-2.56s.07-1.71.15-2.56.21-1.8.32-2.69.25-1.79.41-2.69a27.12,27.12,0,0,1,.7-2.86,16.3,16.3,0,0,1,1.1-2.72c.29-.56.59-1.11.9-1.64a6.47,6.47,0,0,1,1.17-1.46l.51-.47a5.23,5.23,0,0,1,.55-.41,1.52,1.52,0,0,1,.74-.29,2.86,2.86,0,0,1,.82,0,5,5,0,0,1,1.38.43,10.4,10.4,0,0,1,1.27.69.66.66,0,0,1,.31.21l.77,1.17a5.46,5.46,0,0,1,.62,1.2,15.28,15.28,0,0,1,.5,1.68c.14.56.27,1.13.42,1.71a6.52,6.52,0,0,1,.17,1,4.14,4.14,0,0,0,.21,1,6.38,6.38,0,0,1,.27,2.17,8.68,8.68,0,0,0,.18,2.16.72.72,0,0,1,0,.41,2.13,2.13,0,0,0,0,.44c0,.5.1,1,.14,1.53s.1,1,.17,1.53c.12.82.24,1.66.38,2.5s.27,1.67.41,2.5.22,1.65.33,2.48.23,1.66.39,2.48a4.41,4.41,0,0,0,.28.87c.13.28.24.56.35.86a2.77,2.77,0,0,1,.14.78,3.29,3.29,0,0,1,0,.77,4.17,4.17,0,0,1-.2.75.86.86,0,0,1-1.08.69,5.29,5.29,0,0,1-3.72-2.63,20.64,20.64,0,0,1-1.76-3.94,25.66,25.66,0,0,1-1-4.18c-.28-1.75-.5-3.51-.66-5.27s-.24-3.52-.23-5.29a25.86,25.86,0,0,0-.17-3c-.11-1-.22-2-.33-3a.5.5,0,0,0-.06-.24,3,3,0,0,1-.14-.37c-.17.32-.34.61-.48.88a6.79,6.79,0,0,0-.37.78c-.4,1-.75,2-1,3a20.42,20.42,0,0,0-.68,3.07c-.05.37-.11.74-.2,1.12s-.16.75-.23,1.13-.15.89-.19,1.35-.11.91-.17,1.35c-.17,1.13-.3,2.25-.39,3.37s-.2,2-.26,3.07-.13,2-.22,3.08c-.06.59-.12,1.17-.21,1.74a10.85,10.85,0,0,1-.41,1.73,4,4,0,0,1-.76,1.41c-.35.4-.71.79-1.08,1.16a4.22,4.22,0,0,1-.77.61c-.28.19-.57.36-.86.53a1.39,1.39,0,0,1-1,.21,1.74,1.74,0,0,1-.84-.66A8,8,0,0,1,92.7,134a6.43,6.43,0,0,1-.55-1.54q-.23-1-.39-2c-.1-.67-.22-1.35-.35-2-.07-.48-.15-1-.24-1.43s-.19-.95-.29-1.42c-.29-1.6-.55-3.19-.79-4.77s-.41-3.18-.53-4.81c-.2-2.59-.38-5.16-.56-7.73s-.35-5.14-.52-7.73c-.13-1.84-.24-3.68-.33-5.51s-.19-3.67-.3-5.52a1.81,1.81,0,0,1,.31-1.13,1.6,1.6,0,0,1,1-.65,2.75,2.75,0,0,1,2.68,1.25,6.66,6.66,0,0,1,.51,1.18,12.6,12.6,0,0,1,.48,2.4c.08.8.17,1.6.26,2.4s.14,1.47.23,2.18.17,1.43.26,2.15c0,.41.08.82.1,1.22s.06.81.11,1.22l.12,1.17a11.7,11.7,0,0,0,.15,1.17c.08.67.17,1.34.27,2s.19,1.33.29,2a16.49,16.49,0,0,1,.28,2.7c0,.89,0,1.8,0,2.71a6,6,0,0,0,.1,1.11c.06.37.13.73.19,1.1s.09.82.14,1.24.11.83.17,1.26c.08.59.15,1.17.21,1.76s.12,1.18.2,1.79.15,1.07.21,1.59.13,1,.21,1.59c0,.11.06.21.08.31l.09.3A.38.38,0,0,0,96.74,125.45Z"/><path d="M128,112.46c-.1.24-.19.49-.27.73s-.16.49-.23.74c-.25,1-.49,2-.71,3s-.46,2-.7,3c-.16.62-.31,1.24-.45,1.87a14.55,14.55,0,0,1-.54,1.85,6.32,6.32,0,0,1-.93,1.56,3.84,3.84,0,0,1-1.4,1.1.89.89,0,0,0-.3.22,2.25,2.25,0,0,1-.3.24,5.8,5.8,0,0,1-1.06.57,2.43,2.43,0,0,1-1.19.16,3,3,0,0,1-1.82-.88,7.83,7.83,0,0,1-1-1.34,9.3,9.3,0,0,1-.74-1.56,16.91,16.91,0,0,1-.74-2.53q-.28-1.28-.45-2.61c-.12-.78-.23-1.56-.34-2.35s-.2-1.58-.27-2.36-.11-1.65-.12-2.48,0-1.66,0-2.49,0-1.94,0-2.9,0-1.91.06-2.9a2.66,2.66,0,0,1,.32-1.1,1.46,1.46,0,0,1,.94-.71l.44-.15.43-.16a1.53,1.53,0,0,1,1.72.81,8.46,8.46,0,0,1,.44.84,2.7,2.7,0,0,1,.22,1,4.13,4.13,0,0,0,.19,1.21,10.1,10.1,0,0,1,.28,1.21c.06.31.12.62.16.94s.08.64.12,1c.1.91.19,1.81.27,2.71s.18,1.81.28,2.72c.08.56.14,1.11.18,1.64s.1,1.08.18,1.65.09.88.13,1.33a12.36,12.36,0,0,0,.19,1.36,10.13,10.13,0,0,1,.21,1.89,6.18,6.18,0,0,0,.35,1.88,2.91,2.91,0,0,0,.37.86c.2.32.39.31.59,0l.34-.68a3.38,3.38,0,0,0,.23-.7c.14-.71.26-1.41.39-2.1s.25-1.4.38-2.1c.19-.91.36-1.8.53-2.69s.35-1.76.56-2.65a17,17,0,0,1,.57-1.75l.63-1.73a6.52,6.52,0,0,1,.33-.83,7.67,7.67,0,0,0,.32-.84,12.26,12.26,0,0,1,1.83-3.38,2.14,2.14,0,0,0,.36-.61,1.38,1.38,0,0,1,1.31-1l1-.06c.33,0,.66,0,1,0a1,1,0,0,1,.64.16,1.45,1.45,0,0,1,.32.57,2.74,2.74,0,0,1,.17.87c0,.28,0,.58,0,.88,0,.48.08,1,.15,1.43a8,8,0,0,1,.08,1.47c0,1,0,2,0,3s0,2,0,3c0,.65,0,1.31,0,2s0,1.32,0,2c0,.43,0,.87,0,1.31s0,.87,0,1.3,0,.83,0,1.25,0,.83.08,1.24c.06.71.14,1.44.22,2.16s.18,1.46.26,2.2c0,.24,0,.46.08.68a3.76,3.76,0,0,0,.17.68,3,3,0,0,1,.21,1c0,.33,0,.66,0,1,0,.11,0,.23-.05.35a.61.61,0,0,1-.17.35,1.66,1.66,0,0,0-.27.43,4.67,4.67,0,0,1-.27.49l-.1.15a.91.91,0,0,1-.11.16,7.52,7.52,0,0,1-1,.83,2.34,2.34,0,0,1-1.27.35,1.67,1.67,0,0,1-1.52-.73,4,4,0,0,1-.33-.53c-.1-.2-.18-.39-.26-.58a21.49,21.49,0,0,1-1.33-6.4q-.15-2.41-.24-4.8c-.06-1.59,0-3.18,0-4.78,0-.51.08-1,.12-1.47s.1-1,.16-1.46a2,2,0,0,0,0-.36,2.05,2.05,0,0,1,0-.37,0,0,0,0,1-.05,0Z"/><path d="M153.85,103.65c.18.89.34,1.76.47,2.63s.2,1.75.24,2.67a5.8,5.8,0,0,1,0,.59,3.43,3.43,0,0,1-.07.56l-.08,1.87a1,1,0,0,1-.57.15.89.89,0,0,1-.46-.35,4.69,4.69,0,0,1-1.19-2.42c-.12-.63-.22-1.26-.29-1.91s-.17-1.29-.3-1.92a12.06,12.06,0,0,0-.36-1.37c-.15-.46-.29-.91-.42-1.36a2.14,2.14,0,0,0-.21-.43l-.27-.46-.61.51a3.68,3.68,0,0,0-.54.5,29.8,29.8,0,0,0-2,2.47,23.21,23.21,0,0,0-1.7,2.7,18.77,18.77,0,0,0-2,5.62.91.91,0,0,0,0,.38l0,.4c.1.57.2,1.12.31,1.67s.24,1.11.38,1.66a21.25,21.25,0,0,1,.47,2.1c.12.72.25,1.43.41,2.14.05.22.1.42.15.61a5.47,5.47,0,0,0,.15.58c.07.46.14.91.22,1.37s.16.89.23,1.32.18.88.28,1.33.18.9.27,1.33c.06.19.11.38.17.58s.11.38.16.58a1.17,1.17,0,0,1,.06.45c0,.15,0,.31,0,.46a5.83,5.83,0,0,1-.06.84,1.65,1.65,0,0,1-.3.75l-.18.21a1.05,1.05,0,0,1-.68.27,4.09,4.09,0,0,1-.86.35,4.69,4.69,0,0,1-1.12.19,2.76,2.76,0,0,1-1-.11,1,1,0,0,1-.67-.6,31.06,31.06,0,0,1-1-3.34c-.35-1.36-.71-2.85-1.07-4.48s-.71-3.33-1.05-5.11-.68-3.53-1-5.27-.59-3.4-.85-5-.48-3-.68-4.18-.33-2.19-.43-2.92-.15-1.13-.15-1.17.11-.15.28-.25a4.15,4.15,0,0,1,.59-.26l.69-.22.54-.18s.07,0,.13,0,0,0,0,0v0a.92.92,0,0,1,.38-.09l.34,0a.5.5,0,0,1,.5.2l.36.5a11.73,11.73,0,0,1,1.21,2.17c.33.78.63,1.57.89,2.39A16.67,16.67,0,0,1,142,107c.13.56.27,1.12.41,1.68a.36.36,0,0,0,0,.11.68.68,0,0,1,.06.21l.21-.47.14-.37a13.52,13.52,0,0,1,1.49-3c.52-.77,1.05-1.54,1.6-2.29a13.58,13.58,0,0,1,1.87-2.08l.45-.4a4.79,4.79,0,0,0,.48-.44,2.86,2.86,0,0,1,1.23-.64,4.83,4.83,0,0,1,1.38-.13.79.79,0,0,1,.5.19,3.78,3.78,0,0,1,.39.41,5.12,5.12,0,0,1,1.1,1.83A16.85,16.85,0,0,1,153.85,103.65Z"/><path d="M166.33,94.46l-.44,0a3.32,3.32,0,0,0-.45,0l-4.86.29c-.37,0-.74.06-1.12.11a7.36,7.36,0,0,1-1.16.09,3.09,3.09,0,0,1-.6,0,6.19,6.19,0,0,1-.62-.13,2.78,2.78,0,0,1-.5-.21,4,4,0,0,0-.51-.25.9.9,0,0,1,.8-.87l1.75-.28,1.72-.29q1.4-.21,2.76-.36c.91-.09,1.83-.15,2.74-.16l.26,0a.7.7,0,0,0,.26-.07c0-.3,0-.61.08-.92s.05-.61.07-.92c.08-.63.14-1.22.21-1.76s.14-1.13.21-1.77c0-.32.06-.65.1-1s.08-.66.11-1l0-.3a1.31,1.31,0,0,1,.95-1.62,4.22,4.22,0,0,1,1.08-.25,1.4,1.4,0,0,1,1,.35,2.92,2.92,0,0,1,.68.68,1.32,1.32,0,0,1,.2,1,6.05,6.05,0,0,0,0,1c0,.32.06.64.08.94a16.19,16.19,0,0,1,0,1.85,14.27,14.27,0,0,0,0,1.85l.09,1.54.78,0c.26,0,.52,0,.78,0,1-.06,1.95-.08,2.92-.06a17.83,17.83,0,0,1,2.89.3,2.94,2.94,0,0,1,.65.16l.65.22a1.33,1.33,0,0,1,.19.14.91.91,0,0,0,.22.13,1.25,1.25,0,0,1-.64.47,4.07,4.07,0,0,1-.7.1c-.5,0-1,.09-1.45.11a12.38,12.38,0,0,0-1.45.13l-2.13.28-2.12.27-.2.06a1.07,1.07,0,0,0-.25.1l0,.73q0,.54.06,1.29c0,.5,0,1,.08,1.58s.06,1.09.08,1.59,0,.93.06,1.29l0,.73L172,106c0,.52.09,1.28.17,2.28s.18,2.13.28,3.39.23,2.57.35,3.94.27,2.67.42,3.92.29,2.37.43,3.38a17.09,17.09,0,0,0,.41,2.25c.2.77.41,1.55.64,2.32a22.87,22.87,0,0,0,.84,2.27,1.87,1.87,0,0,1,.13.4,2.77,2.77,0,0,0,.12.41c.07.17.15.33.22.49a4.17,4.17,0,0,0,.26.46l.56.85c.18.27.36.56.56.85a.7.7,0,0,1,.12.66.93.93,0,0,1-.58.45,4.38,4.38,0,0,1-1.55.14,8.26,8.26,0,0,1-1.5-.29,4.73,4.73,0,0,1-2-1,7.84,7.84,0,0,1-1.46-1.69,16,16,0,0,1-1.55-3.2c-.38-1.1-.72-2.23-1-3.39a11.42,11.42,0,0,1-.26-1.64c-.1-.79-.19-1.71-.28-2.75s-.19-2.15-.28-3.32-.18-2.29-.27-3.33-.14-2-.19-2.75l-.1-1.65c0-.83-.06-1.64-.11-2.43s-.08-1.6-.08-2.41c0-.26,0-.64,0-1.16s0-1.09,0-1.73,0-1.32,0-2,0-1.37,0-2,0-1.22,0-1.74,0-.9,0-1.16Z"/></g></g></svg>