<svg xmlns="http://www.w3.org/2000/svg" viewBox="0 0 254.59 133.41"><defs><style>.cls-1{fill:#231f20;}</style></defs><g id="Layer_2" data-name="Layer 2"><g id="Layer_1-2" data-name="Layer 1"><path class="cls-1" d="M249.06,84.4a34.78,34.78,0,0,0,5.07-1.72.8.8,0,0,0,0-1.46,46.76,46.76,0,0,1-7-4,51,51,0,0,0-1.52-10.35c.55-.79-.69-1.68-1.3-.89l-7,9a70.16,70.16,0,0,0-7.61-3.42.8.8,0,0,0-1,1.05A31.18,31.18,0,0,0,233,80.73a26,26,0,0,0-4.14,5.71c-.6,1.14-2.42,3.87-.73,4.92,1.52.94,4.08-.89,5.35-1.55a52.58,52.58,0,0,0,6.37-3.92q1.7,4.52,3.38,9a.79.79,0,0,0,1.36.15c1.79-2.28,1.72-5.84,1.9-8.77.22-.37.11-.62.27-1s.24-.41.87-.54C248.13,84.63,248.6,84.52,249.06,84.4Zm-2.2-1.12a2.23,2.23,0,0,0-1.39.62,1.13,1.13,0,0,0-.18.7.77.77,0,0,0-.25.5l-.45,4.49a14.42,14.42,0,0,1-.48,3.1q-1.41-3.8-2.83-7.59a.69.69,0,0,0-.87-.44.79.79,0,0,0-1.15-.24,52.38,52.38,0,0,1-4.53,2.94,20.59,20.59,0,0,1-4.36,2.22,1,1,0,0,1-1.22.12l.27-.69A9.41,9.41,0,0,1,231,85.89a24.38,24.38,0,0,1,3.55-4.48.82.82,0,0,0,.13-1.11,30,30,0,0,1-3.9-6.67Q234,74.94,237,76.54a.6.6,0,0,0,.66,0,.72.72,0,0,0,.58-.3l6-7.79a51.09,51.09,0,0,1,1.21,9.14.59.59,0,0,0,.33.56.71.71,0,0,0,.26.32,48.87,48.87,0,0,0,5.73,3.41A38,38,0,0,1,246.86,83.28Z"/><text/><text/><path d="M27.89,72.7a2.38,2.38,0,0,1-1.23.91,5.68,5.68,0,0,1-1.41.28,6.3,6.3,0,0,1-1.66-.13c-.06-.23-.12-.43-.19-.62l-.18-.58A21,21,0,0,1,22.39,70a14.46,14.46,0,0,1-.4-2.66A12.48,12.48,0,0,0,21.83,66c-.08-.46-.14-.91-.2-1.37-.09-.73-.17-1.46-.22-2.18s-.12-1.46-.19-2.19c-.13-1.32-.26-2.63-.37-3.94s-.22-2.62-.3-3.94q-.09-1.63-.15-3.24L20.28,46c0-.15,0-.31,0-.48s0-.34-.06-.55l-13.87.83c.06.46.1.91.14,1.35s.1.89.18,1.35c.1.89.2,1.78.3,2.7s.19,1.81.29,2.69.22,1.77.35,2.64.24,1.75.35,2.64c.26,1.77.47,3.53.64,5.29a44.9,44.9,0,0,1,.19,5.32,19.86,19.86,0,0,1-.16,2.44A10.14,10.14,0,0,1,8,74.58a1.84,1.84,0,0,1-.53.74,1.07,1.07,0,0,1-.83.26.73.73,0,0,1-.37-.17l-.34-.28a6.23,6.23,0,0,1-1.52-2.32,17.73,17.73,0,0,1-.73-2.64q-.48-2.83-.93-5.6T1.79,59Q.89,53.48.44,47.85c0-.66-.1-1.33-.16-2s-.11-1.34-.12-2Q0,40.76,0,37.59c0-1.15,0-2.28,0-3.39S0,32,0,30.86c0-.67,0-1.32,0-2a12.08,12.08,0,0,1,.11-2,3.41,3.41,0,0,1,.22-1A6.37,6.37,0,0,1,.83,25,.39.39,0,0,1,1,24.85l.22-.11q.45,0,.9,0A1.48,1.48,0,0,1,3,25a.33.33,0,0,0,.22.08.73.73,0,0,1,.25.08,1.85,1.85,0,0,1,.6.44,3.55,3.55,0,0,1,.5.7,4.63,4.63,0,0,1,.36.82,2.32,2.32,0,0,1,.12.78,10,10,0,0,0,.07,1.22c0,.4.09.82.12,1.25l.16,2.73c0,.9.12,1.81.2,2.72.08,1.29.16,2.59.25,3.88s.19,2.59.29,3.89l0,.15a.4.4,0,0,1,0,.15l3.47-.44c1.15-.15,2.3-.28,3.44-.4s2.33-.2,3.48-.24l3.57-.18c0-.36,0-.69,0-1s0-.63,0-.94c0-1.37-.07-2.73-.11-4.07s-.07-2.67-.07-4c0-1.05,0-2.09,0-3.12a23.05,23.05,0,0,1,.29-3.1,8.54,8.54,0,0,1,.33-1.3c.14-.43.29-.85.47-1.27a1,1,0,0,1,.73-.6,1.19,1.19,0,0,1,1,.11,4.5,4.5,0,0,1,1.07.88,2.91,2.91,0,0,1,.63,1.24,35.81,35.81,0,0,1,.7,3.78c.17,1.27.33,2.54.48,3.83.1.81.19,1.62.28,2.42s.17,1.6.24,2.41.17,1.63.22,2.47.12,1.66.19,2.48c.11,1,.21,2,.29,2.94s.17,2,.26,2.95c.12,1.17.23,2.33.34,3.5s.22,2.33.34,3.49c.11.89.21,1.78.3,2.68s.19,1.79.29,2.68c.14,1.42.24,2.83.31,4.24s.09,2.84,0,4.27a7.56,7.56,0,0,1-.23,1.67A4.25,4.25,0,0,1,27.89,72.7Z"/><path d="M58.41,39.24c0,1.22.07,2.31.08,3.26a14.2,14.2,0,0,1-.26,2.79c-.15.77-.33,1.54-.51,2.3A15.25,15.25,0,0,1,57,49.88c-.32.7-.64,1.4-1,2.08l-1,2a8,8,0,0,1-1.34,1.84A19.91,19.91,0,0,1,52,57.37a.5.5,0,0,1-.13.1.33.33,0,0,0-.12.1,5.7,5.7,0,0,1-2.59,1.51,15.23,15.23,0,0,1-3,.47,6.33,6.33,0,0,1-1.3-.06l-1.31-.17A10.91,10.91,0,0,1,38,57.05a14,14,0,0,1-3.66-4.63,18.91,18.91,0,0,1-1.8-5.13,24.35,24.35,0,0,1-.4-5.41,36.2,36.2,0,0,1,.37-4.07,31.41,31.41,0,0,1,.87-4,26.1,26.1,0,0,1,2.23-5.54,19.83,19.83,0,0,1,3.65-4.75,11.75,11.75,0,0,1,7.11-3.29,6.73,6.73,0,0,1,3.52.45,8.53,8.53,0,0,1,2.9,2.11,13.65,13.65,0,0,1,2.34,3.55,33.17,33.17,0,0,1,1.47,3.94,22.7,22.7,0,0,1,.63,2.49c.17.83.34,1.67.52,2.53s.32,1.44.45,2.15A8.33,8.33,0,0,1,58.41,39.24ZM40.53,44.09a14.77,14.77,0,0,0,.69,3.16A12,12,0,0,0,43,50.71a7.79,7.79,0,0,0,3.12,2.53,7.32,7.32,0,0,0,4,.45,4.42,4.42,0,0,0,1-.33c.33-.15.65-.31,1-.48a3.79,3.79,0,0,0,1.46-1.46c.33-.61.65-1.24.94-1.9a12.41,12.41,0,0,0,.87-3.26c.14-1.1.23-2.22.26-3.34a24.93,24.93,0,0,0,0-2.87,12.91,12.91,0,0,0-.47-2.8c-.17-.65-.32-1.31-.46-2s-.31-1.31-.5-2c-.26-.93-.57-1.84-.91-2.74a13,13,0,0,0-3-4.48A6.48,6.48,0,0,0,48,24.79a3,3,0,0,0-1.84-.09,2.91,2.91,0,0,0-1.38,1.24,23,23,0,0,0-2.89,6,33.55,33.55,0,0,0-1.17,5.67A41.59,41.59,0,0,0,40.53,44.09Z"/><path d="M75.88,41.14c-.11.29-.22.57-.31.86s-.19.57-.28.86c-.28,1.16-.56,2.33-.82,3.51s-.53,2.34-.82,3.51c-.19.72-.36,1.45-.52,2.19a15.76,15.76,0,0,1-.63,2.16,7.61,7.61,0,0,1-1.08,1.82,4.58,4.58,0,0,1-1.64,1.29,1.19,1.19,0,0,0-.35.25,3.17,3.17,0,0,1-.35.29,6.22,6.22,0,0,1-1.24.66,2.83,2.83,0,0,1-1.38.18,3.46,3.46,0,0,1-2.13-1,8.71,8.71,0,0,1-1.2-1.57,11.78,11.78,0,0,1-.88-1.82,21.07,21.07,0,0,1-.86-3c-.21-1-.39-2-.53-3s-.26-1.82-.39-2.75-.24-1.84-.32-2.75S60,40.88,60,39.91,60,38,60,37q0-1.73,0-3.39c0-1.11.06-2.24.06-3.38A3.09,3.09,0,0,1,60.46,29a1.68,1.68,0,0,1,1.1-.83l.51-.18.5-.19a1.8,1.8,0,0,1,2,.95,7.79,7.79,0,0,1,.52,1,3.48,3.48,0,0,1,.26,1.11,4.88,4.88,0,0,0,.21,1.42,9.65,9.65,0,0,1,.34,1.41c.07.36.13.72.18,1.1s.09.75.14,1.1c.12,1.06.22,2.12.32,3.17s.21,2.11.33,3.18c.09.66.16,1.29.21,1.92s.12,1.26.21,1.91.11,1,.15,1.56a14.33,14.33,0,0,0,.23,1.6,12.57,12.57,0,0,1,.25,2.2,7.23,7.23,0,0,0,.4,2.19,3.29,3.29,0,0,0,.44,1c.22.37.45.35.68,0l.4-.79a3.94,3.94,0,0,0,.27-.82c.16-.83.31-1.64.45-2.46s.29-1.63.44-2.45c.22-1.06.43-2.1.62-3.13s.41-2.07.65-3.1A20.45,20.45,0,0,1,73,39.73l.74-2a6.42,6.42,0,0,1,.38-1,10.47,10.47,0,0,0,.38-1,14.21,14.21,0,0,1,2.13-3.95,2.28,2.28,0,0,0,.42-.72,1.61,1.61,0,0,1,1.53-1.16l1.15-.07q.57,0,1.14,0a1.2,1.2,0,0,1,.74.19,1.76,1.76,0,0,1,.38.66,3.18,3.18,0,0,1,.2,1c0,.33,0,.68,0,1a16,16,0,0,0,.18,1.68,9.59,9.59,0,0,1,.1,1.71c0,1.15,0,2.29,0,3.44s-.06,2.3-.06,3.45c0,.76,0,1.53,0,2.31s0,1.55,0,2.31c0,.51,0,1,0,1.53s0,1,0,1.53,0,1,0,1.45a14.09,14.09,0,0,0,.08,1.45c.08.83.17,1.68.27,2.52l.3,2.57c0,.28,0,.54.09.8a5.38,5.38,0,0,0,.2.79,3.59,3.59,0,0,1,.24,1.17c0,.38,0,.77,0,1.18,0,.13,0,.27,0,.41a.77.77,0,0,1-.21.41,2,2,0,0,0-.31.5c-.09.19-.2.38-.31.57a.83.83,0,0,0-.13.18.57.57,0,0,1-.12.18,8,8,0,0,1-1.18,1,2.8,2.8,0,0,1-1.49.41,2,2,0,0,1-1.77-.85,4.28,4.28,0,0,1-.38-.62c-.12-.23-.22-.45-.31-.67a24.05,24.05,0,0,1-1.06-3.69,26.18,26.18,0,0,1-.5-3.79c-.11-1.88-.2-3.75-.28-5.61s-.06-3.71,0-5.58q.06-.88.15-1.71T75.93,42a2.81,2.81,0,0,0,0-.43c0-.15,0-.29,0-.42h-.06A.07.07,0,0,0,75.88,41.14Z"/><path d="M87.09,40.61a19.76,19.76,0,0,1,1.76,1.62A4.46,4.46,0,0,1,90,44.3a20.94,20.94,0,0,0,.62,2.13,7.27,7.27,0,0,0,1.07,1.94,9.54,9.54,0,0,0,.94,1c.32.27.67.54,1,.8a2.29,2.29,0,0,0,1,.37,4.26,4.26,0,0,0,1.07,0,1.76,1.76,0,0,0,.74-.35,7.43,7.43,0,0,0,.79-1,3.48,3.48,0,0,0,.5-1.18,14.91,14.91,0,0,0,.4-3.61,11.45,11.45,0,0,0-.68-3.6,10,10,0,0,0-1-2.1A21.73,21.73,0,0,0,95.2,36.8l-1.64-2c-.53-.66-1-1.34-1.51-2S90.92,31,90.42,30.13A14.56,14.56,0,0,1,89.2,27.3,7.61,7.61,0,0,1,88.87,25a8.41,8.41,0,0,1,.33-2.33,8.15,8.15,0,0,1,1-2.14,7.17,7.17,0,0,1,1.6-1.74l.59-.42.58-.42a4.88,4.88,0,0,1,1.85-.78,5.79,5.79,0,0,1,2,0,7.27,7.27,0,0,1,1.88.56,6.55,6.55,0,0,1,1.59,1,21,21,0,0,1,2.65,2.75,6.93,6.93,0,0,1,.78,1.16c.21.4.44.82.67,1.24s.27.53.39.78.24.5.39.78a1,1,0,0,1-.09,1,.92.92,0,0,1-.25.32.45.45,0,0,1-.42.07.55.55,0,0,1-.6-.54c-.07-.23-.13-.45-.18-.68a3.11,3.11,0,0,0-.21-.63A10.23,10.23,0,0,0,102,22.74a7.46,7.46,0,0,0-2-1.64A4,4,0,0,0,99,20.69l-1.12-.26a1.35,1.35,0,0,0-.69.06,1.22,1.22,0,0,0-.58.44,8.21,8.21,0,0,0-1.08,1.84,5.46,5.46,0,0,0-.41,2.07,2.67,2.67,0,0,0,.18,1,4.59,4.59,0,0,0,.43.89,31,31,0,0,0,1.83,2.82c.66.89,1.33,1.77,2,2.65.55.65,1.07,1.32,1.57,2s1,1.39,1.43,2.13a15.53,15.53,0,0,1,2.22,6.41,26.76,26.76,0,0,1,.12,3.56,17.38,17.38,0,0,1-.5,3.49,9.41,9.41,0,0,1-1.49,3.59,7.66,7.66,0,0,1-3,2.49,4.93,4.93,0,0,1-1.66.49,12.06,12.06,0,0,1-1.71.06,9.94,9.94,0,0,1-5-1.42,11.85,11.85,0,0,1-1.63-1.24c-.5-.46-1-.92-1.44-1.41A12,12,0,0,1,86,48a5.71,5.71,0,0,1-.29-2A9.27,9.27,0,0,1,86,44a14.56,14.56,0,0,1,.51-1.66C86.74,41.78,86.92,41.21,87.09,40.61Z"/><path d="M135.13,48.49c-.51,1.06-1,2.1-1.55,3.13s-1.09,2.06-1.67,3.08a22.37,22.37,0,0,1-1.82,2.8,32.57,32.57,0,0,1-2.15,2.55,11.36,11.36,0,0,1-3.88,2.9,8.9,8.9,0,0,1-4.88.57,9.93,9.93,0,0,1-4.84-1.93,11.54,11.54,0,0,1-3.24-4.1,19.84,19.84,0,0,1-1.33-3.76,22.69,22.69,0,0,1-.6-3.93,22.88,22.88,0,0,1-.09-3.09q.06-1.53.18-3.09a27.6,27.6,0,0,1,.43-3.16,30.32,30.32,0,0,1,.81-3.11A36.16,36.16,0,0,1,112.21,33,17.43,17.43,0,0,1,114.78,29a13.41,13.41,0,0,1,2.08-2,14.48,14.48,0,0,1,2.44-1.52,14.26,14.26,0,0,1,2.3-.87,10.19,10.19,0,0,1,2.4-.38,12.17,12.17,0,0,1,2.7.23,6.15,6.15,0,0,1,2.53,1.18,7,7,0,0,0,.62.45c.21.15.43.29.65.42a8.33,8.33,0,0,1,2,1.89A19.43,19.43,0,0,1,134,30.78a6.9,6.9,0,0,1,.85,2.62,8.71,8.71,0,0,1-.16,2.82,14.88,14.88,0,0,1-4.68,8c-.71.64-1.42,1.26-2.15,1.87a23.65,23.65,0,0,1-2.3,1.67,18,18,0,0,1-3.54,1.7,12.46,12.46,0,0,1-3.9.66l-.34.06a16.92,16.92,0,0,0,.71,3.12A8.82,8.82,0,0,0,120,56a5.71,5.71,0,0,0,1.92,1.54,6.81,6.81,0,0,0,2.37.64,1.55,1.55,0,0,0,.94-.19,8.79,8.79,0,0,0,.83-.53,13.22,13.22,0,0,0,1.65-1.61A19.42,19.42,0,0,0,129.1,54q.92-1.32,1.68-2.67a30.05,30.05,0,0,0,1.37-2.79,4.88,4.88,0,0,1,.74-1.14,1.81,1.81,0,0,1,1.18-.56,1.93,1.93,0,0,1,.79.25,1.29,1.29,0,0,1,.41.53A1,1,0,0,1,135.13,48.49ZM117.51,48l.9-.09a4.1,4.1,0,0,0,.78-.13,11.62,11.62,0,0,0,2.56-.83,13.2,13.2,0,0,0,2.31-1.33c.6-.41,1.17-.84,1.72-1.27s1.08-.88,1.6-1.35A11.38,11.38,0,0,0,130,39.76a13.47,13.47,0,0,0,1.36-3.9,4.12,4.12,0,0,0,.05-1.81,3.72,3.72,0,0,0-.79-1.64,5.58,5.58,0,0,0-2.83-2,4.75,4.75,0,0,0-3.39.31,8.49,8.49,0,0,0-2.62,1.82,10.88,10.88,0,0,0-1.89,2.56,20.18,20.18,0,0,0-1.9,5.18,27.81,27.81,0,0,0-.52,3,23.24,23.24,0,0,0-.14,3c0,.28,0,.55.08.82S117.46,47.66,117.51,48Z"/><path d="M144.78,49.27c.08-.51.18-1,.28-1.52s.2-1,.28-1.51c.18-1,.35-2,.5-3s.32-2,.53-2.95.48-2.06.73-3.08.53-2,.85-3.06a28.78,28.78,0,0,1,1.2-3.22,18.19,18.19,0,0,1,1.64-3c.42-.62.84-1.21,1.27-1.79a7.56,7.56,0,0,1,1.56-1.53,8,8,0,0,1,.66-.48,6.85,6.85,0,0,1,.69-.4,1.72,1.72,0,0,1,.89-.23,3.19,3.19,0,0,1,.95.15,6.14,6.14,0,0,1,1.55.68,11.92,11.92,0,0,1,1.38,1c.19.11.3.21.32.28l.74,1.46a7,7,0,0,1,.55,1.49,17.9,17.9,0,0,1,.36,2c.07.67.16,1.35.24,2a6.73,6.73,0,0,1,.07,1.19,5.17,5.17,0,0,0,.1,1.19,7.53,7.53,0,0,1,0,2.55,9.82,9.82,0,0,0-.09,2.54.84.84,0,0,1,0,.47,2.28,2.28,0,0,0-.09.51c0,.59,0,1.19,0,1.8s0,1.21,0,1.79c0,1,.05,2,.1,2.95s.08,2,.13,3,0,1.94,0,2.92,0,2,.12,2.93a4.66,4.66,0,0,0,.21,1c.1.34.2.69.28,1.05a3.42,3.42,0,0,1,.06.92,4.48,4.48,0,0,1-.15.89,4.31,4.31,0,0,1-.33.84,1,1,0,0,1-1.34.65,6.15,6.15,0,0,1-4-3.56,24.47,24.47,0,0,1-1.5-4.8,29.67,29.67,0,0,1-.57-5c-.09-2.07-.1-4.13-.05-6.19s.21-4.12.46-6.17a30.51,30.51,0,0,0,.22-3.56l0-3.58a.59.59,0,0,0,0-.29,3.87,3.87,0,0,1-.1-.44l-.69.95a9.53,9.53,0,0,0-.53.85c-.59,1.09-1.14,2.19-1.62,3.29a24.5,24.5,0,0,0-1.21,3.47,12.41,12.41,0,0,1-.38,1.28c-.16.42-.29.85-.42,1.27s-.3,1-.42,1.55-.24,1-.37,1.54c-.36,1.28-.66,2.56-.91,3.85s-.51,2.36-.72,3.53-.44,2.35-.68,3.54c-.15.68-.31,1.34-.48,2a13,13,0,0,1-.71,2,4.42,4.42,0,0,1-1.08,1.53q-.69.63-1.41,1.2a5.3,5.3,0,0,1-1,.61c-.35.17-.71.33-1.08.49a1.55,1.55,0,0,1-1.21.1,2.08,2.08,0,0,1-.89-.87,10.9,10.9,0,0,1-.81-1.73,7.4,7.4,0,0,1-.43-1.86c-.08-.82-.14-1.63-.17-2.42s-.07-1.59-.13-2.41c0-.57,0-1.13-.09-1.69s-.09-1.13-.13-1.69q-.18-2.84-.27-5.64c-.06-1.86,0-3.75,0-5.65.13-3,.26-6,.41-9s.3-6,.45-9c.09-2.16.22-4.3.37-6.43s.28-4.28.41-6.44a2,2,0,0,1,.51-1.27,1.81,1.81,0,0,1,1.28-.62,2.87,2.87,0,0,1,2,.65,2.83,2.83,0,0,1,.94,1.17,6.92,6.92,0,0,1,.44,1.44,14.39,14.39,0,0,1,.23,2.84l0,2.83c0,.86,0,1.71,0,2.56s0,1.68,0,2.52c0,.48,0,1,0,1.43s0,.95,0,1.43,0,.92,0,1.38,0,.91,0,1.37c0,.79,0,1.58,0,2.36s0,1.56.07,2.35a19.67,19.67,0,0,1-.05,3.17c-.09,1-.2,2.09-.31,3.16a7,7,0,0,0,0,1.3c0,.43,0,.87.08,1.3s0,1,0,1.45,0,1,0,1.5c0,.68,0,1.37,0,2.06s0,1.39,0,2.1,0,1.27,0,1.88,0,1.23,0,1.87c0,.13,0,.25.05.37s0,.24.06.36A.37.37,0,0,0,144.78,49.27Z"/><path d="M193.83,37.4c.27,1.19.49,2.26.67,3.2a13.91,13.91,0,0,1,.26,2.78c0,.79,0,1.58-.09,2.36a15.1,15.1,0,0,1-.32,2.38c-.18.75-.37,1.5-.58,2.23s-.43,1.47-.64,2.2a8.34,8.34,0,0,1-1,2.06,19.61,19.61,0,0,1-1.36,1.79.44.44,0,0,1-.11.12.52.52,0,0,0-.11.13,5.64,5.64,0,0,1-2.27,2,15.45,15.45,0,0,1-2.82,1,6.91,6.91,0,0,1-1.29.18c-.44,0-.88,0-1.32.07A10.92,10.92,0,0,1,177,58.61a14.18,14.18,0,0,1-4.44-3.89,18.58,18.58,0,0,1-2.7-4.72,23.71,23.71,0,0,1-1.37-5.25,35.2,35.2,0,0,1-.38-4.07,32.84,32.84,0,0,1,.13-4.08,26.26,26.26,0,0,1,1.19-5.86,19.51,19.51,0,0,1,2.73-5.33,11.77,11.77,0,0,1,6.39-4.53,6.77,6.77,0,0,1,3.55-.19,8.5,8.5,0,0,1,3.23,1.54,13.34,13.34,0,0,1,2.94,3.07,32.87,32.87,0,0,1,2.17,3.61,25.51,25.51,0,0,1,1.07,2.33c.31.79.64,1.59,1,2.4s.58,1.36.83,2A8.17,8.17,0,0,1,193.83,37.4Zm-16.7,8a15.13,15.13,0,0,0,1.25,3,11.9,11.9,0,0,0,2.41,3.08,7.82,7.82,0,0,0,3.52,1.92,7.27,7.27,0,0,0,4-.29,4.7,4.7,0,0,0,.94-.5c.29-.2.58-.42.86-.65a3.84,3.84,0,0,0,1.17-1.7c.22-.66.41-1.34.58-2a12.48,12.48,0,0,0,.27-3.37c-.07-1.11-.18-2.22-.35-3.33a25.11,25.11,0,0,0-.54-2.82,14,14,0,0,0-1-2.67c-.29-.61-.56-1.23-.81-1.84s-.54-1.23-.85-1.84c-.42-.86-.89-1.71-1.39-2.53a12.62,12.62,0,0,0-3.8-3.85,6.41,6.41,0,0,0-2.46-.89,2.42,2.42,0,0,0-3,1.71,23,23,0,0,0-1.75,6.45,32.89,32.89,0,0,0-.12,5.79A41.86,41.86,0,0,0,177.13,45.42Z"/><path d="M204.58,56.48a4.41,4.41,0,0,1-1.6,1.7,5.27,5.27,0,0,1-1.7.64,4.71,4.71,0,0,1-1.87,0,6.88,6.88,0,0,1-1-1.4,8.08,8.08,0,0,1-.63-1.6,33.88,33.88,0,0,1-.89-4.35c-.2-1.46-.37-2.93-.51-4.4s-.27-2.72-.42-4.05-.25-2.68-.34-4c-.11-1.88-.21-3.76-.29-5.62s-.18-3.76-.27-5.67c-.08-1.75-.18-3.5-.29-5.24s-.21-3.48-.26-5.24c-.07-1.5-.11-3-.13-4.46s-.06-3-.1-4.51c0-.74,0-1.46,0-2.18a7.51,7.51,0,0,1,.41-2.13,6.47,6.47,0,0,1,.63-1.49,1,1,0,0,1,.46-.45,1.53,1.53,0,0,1,.62-.15,2.25,2.25,0,0,1,1.51.33,3.83,3.83,0,0,1,1.1,1.16,11.79,11.79,0,0,1,1.37,3.45,31.37,31.37,0,0,1,.59,3.7c.12,1.19.23,2.37.33,3.53s.17,2.35.25,3.54c.13,1.75.24,3.5.35,5.24s.18,3.49.24,5.24c.07,1.17.11,2.33.13,3.49l.06,3.5c0,1.12.08,2.22.14,3.3s.11,2.16.17,3.26c.05.78.11,1.56.18,2.32s.14,1.53.22,2.32c0,.58.08,1.18.14,1.79s.11,1.21.15,1.82.1,1.16.12,1.73.05,1.17.09,1.78l.24-.38c.07-.12.15-.24.25-.38l.62-.72a6.25,6.25,0,0,1,.67-.69.76.76,0,0,1,1,0,.44.44,0,0,1,.26.41c0,.15,0,.32-.09.5a13.4,13.4,0,0,1-.88,2.29Q205.17,55.37,204.58,56.48Z"/><path d="M234,47.57c-.71.12-1.38.24-2,.37a11.75,11.75,0,0,1-2,.21,18,18,0,0,1-4.28-.24,35.73,35.73,0,0,1-4.21-1A32.14,32.14,0,0,1,218,45.62a32.5,32.5,0,0,1-3.27-1.68,16.82,16.82,0,0,1-2.52-1.82,8.81,8.81,0,0,1-1.94-2.42,11,11,0,0,1-1.35-4,16.68,16.68,0,0,1-.06-4.46,14.38,14.38,0,0,1,1.08-4,7.48,7.48,0,0,1,2-2.83l.87-.72a6.72,6.72,0,0,1,1-.65,7.17,7.17,0,0,1,2.67-1,12.17,12.17,0,0,1,2.84-.14,11.69,11.69,0,0,1,3.48.68c1.09.39,2.19.82,3.29,1.29a17.07,17.07,0,0,1,2.61,1.37q1.23.81,2.43,1.65a2.59,2.59,0,0,1,.41.51,1.43,1.43,0,0,0,.53.51c0-.18,0-.54,0-1.07s0-1.09-.06-1.68,0-1.13-.06-1.64,0-.84,0-1c0-1.43,0-2.73.09-3.91s.09-2.47.13-3.9q.06-1.62.15-3.24c.06-1.09.12-2.17.19-3.25,0-.61.08-1.23.11-1.86s.07-1.24.08-1.86c0-.25,0-.51,0-.76a6.31,6.31,0,0,0-.07-.76,2.3,2.3,0,0,1,.19-1.26,2.82,2.82,0,0,1,.77-1A2.72,2.72,0,0,1,234.6.08a2.52,2.52,0,0,1,1.28,0,1.64,1.64,0,0,1,1,.59,4.16,4.16,0,0,1,.56,1A6.2,6.2,0,0,1,238,4.39l-.09,2.31c0,.78,0,1.56,0,2.32,0,1.1,0,2.19,0,3.29s0,2.19,0,3.29c0,.48,0,1.15.07,2s.08,1.8.13,2.84.1,2.12.16,3.24.11,2.2.17,3.24.11,2,.15,2.84.07,1.52.1,2c.06,1,.13,2,.2,3.05s.17,2,.28,3.08c.13,1.27.27,2.52.42,3.76s.3,2.49.46,3.76c.09.76.2,1.52.3,2.27s.2,1.53.28,2.32.1,1.38.1,2.08,0,1.39.07,2.08a2,2,0,0,1-.26,1.05,3.29,3.29,0,0,1-.77.9,2.73,2.73,0,0,1-1,.54,1.83,1.83,0,0,1-1.11,0,5.33,5.33,0,0,0-.89-.25,1.67,1.67,0,0,1-.83-.41,3.23,3.23,0,0,1-.6-.69,1.87,1.87,0,0,1-.26-.9c-.11-1-.23-2-.36-3s-.29-2-.5-3a2.33,2.33,0,0,1-.08-.36C234,47.81,234,47.69,234,47.57Zm-17.79-9.15a24.38,24.38,0,0,0,2.82,1.9,18.08,18.08,0,0,0,3.11,1.42c1.17.41,2.35.77,3.53,1.07s2.38.55,3.62.76c.67.11,1.33.19,2,.24s1.37.12,2.11.2c0-.56,0-1.17,0-1.84s0-1.32-.12-2a13.12,13.12,0,0,0-.32-1.91,6.47,6.47,0,0,0-.66-1.66,25.49,25.49,0,0,0-2-2.77,11.75,11.75,0,0,0-1.78-1.72,10.64,10.64,0,0,0-1.65-1.05c-.53-.26-1.05-.51-1.58-.73a16.63,16.63,0,0,0-3.43-1.08,17.57,17.57,0,0,0-3.57-.3A3.89,3.89,0,0,0,215,30.54a7.29,7.29,0,0,0-.95,2.66,6.94,6.94,0,0,0,0,1.22,5.78,5.78,0,0,0,.25,1.32A5.49,5.49,0,0,0,215,37.1,5.67,5.67,0,0,0,216.16,38.42Z"/><path d="M51.93,84.93a11.89,11.89,0,0,1,5.09.51,9.7,9.7,0,0,1,4.37,3.11A7.22,7.22,0,0,1,63,92.28a1,1,0,0,1,0,.32,2.13,2.13,0,0,1-.11.57.7.7,0,0,1-.4.41.94.94,0,0,1-1.12-.3c-.35-.4-.71-.78-1.09-1.15L59.18,91a5.57,5.57,0,0,0-1.8-1.2,7.11,7.11,0,0,0-2.11-.47,1.93,1.93,0,0,0-1.15.22q-.52.27-1,.6A6.09,6.09,0,0,0,51,92.34a16.25,16.25,0,0,0-1.21,2.76A14.53,14.53,0,0,0,49.09,98a24.42,24.42,0,0,0-.18,3c0,1,0,2,.11,3s.14,2,.21,3c0,.63.11,1.24.18,1.83s.15,1.21.22,1.83.19,1.23.28,1.84.2,1.22.31,1.83c.22,1.26.49,2.49.82,3.7s.71,2.4,1.16,3.59c.2.55.41,1.1.61,1.66a10.65,10.65,0,0,0,.75,1.6,10.87,10.87,0,0,0,1.15,1.71,4.88,4.88,0,0,0,1.61,1.25l.61.22a2.43,2.43,0,0,0,.59.1,1.65,1.65,0,0,0,1.71-.87,11.21,11.21,0,0,0,1.34-3,14.46,14.46,0,0,0,.53-3.2,30,30,0,0,0,0-3.66,3.45,3.45,0,0,1,.07-.87,3.33,3.33,0,0,1,.3-.81.87.87,0,0,1,.78-.46.91.91,0,0,1,.79.41s0,.08,0,.09a.22.22,0,0,1,0,.08,8,8,0,0,0,.57,1.64,4.24,4.24,0,0,1,.4,1.7,24.1,24.1,0,0,1,0,2.55,13.92,13.92,0,0,1-.35,2.51,11.47,11.47,0,0,1-.7,2.24,21.39,21.39,0,0,1-1,2.09q-.3.54-.63,1c-.22.32-.43.65-.64,1a3.89,3.89,0,0,1-1.39,1.35,12.78,12.78,0,0,1-1.75.83,7.57,7.57,0,0,1-3.34.47,12.57,12.57,0,0,1-3.29-.78,8.12,8.12,0,0,1-3.55-2.48,15.76,15.76,0,0,1-2.25-3.72c-.36-.86-.71-1.72-1.05-2.59a21.61,21.61,0,0,1-.83-2.66c-.39-1.39-.73-2.79-1-4.19s-.5-2.82-.68-4.26-.37-3.13-.49-4.67-.17-3.1-.15-4.67c0-1.34,0-2.67,0-4a17.17,17.17,0,0,1,.56-3.93A17.93,17.93,0,0,1,43,91.55a14.57,14.57,0,0,1,2.45-3.33,10.27,10.27,0,0,1,2.9-2.07A17.48,17.48,0,0,1,51.93,84.93Z"/><path d="M83.21,128.94a4.15,4.15,0,0,1-1.44,1.67,4.77,4.77,0,0,1-1.58.67,4.23,4.23,0,0,1-1.77,0,6.64,6.64,0,0,1-1-1.28,8.09,8.09,0,0,1-.66-1.49,33,33,0,0,1-1-4.06c-.26-1.37-.48-2.75-.67-4.13s-.37-2.55-.56-3.8-.35-2.52-.48-3.81c-.18-1.77-.35-3.53-.51-5.29s-.32-3.54-.48-5.33-.31-3.3-.49-4.93-.34-3.28-.46-4.94c-.12-1.41-.23-2.81-.31-4.2s-.18-2.81-.28-4.25c0-.7-.07-1.38-.06-2.06a7.36,7.36,0,0,1,.29-2,6.26,6.26,0,0,1,.54-1.44,1,1,0,0,1,.41-.44,1.78,1.78,0,0,1,.58-.17,2.16,2.16,0,0,1,1.44.25,3.73,3.73,0,0,1,1.09,1,11,11,0,0,1,1.43,3.2A31.62,31.62,0,0,1,78,85.64q.24,1.68.45,3.33c.14,1.09.26,2.2.38,3.33.19,1.64.38,3.29.55,4.92s.31,3.28.43,4.94c.12,1.1.21,2.19.27,3.29s.13,2.19.2,3.29.17,2.09.27,3.11.19,2,.3,3.06c.07.74.16,1.47.26,2.19s.19,1.44.3,2.18q.08.82.21,1.68t.21,1.71c.08.55.14,1.09.19,1.63s.09,1.1.15,1.67c.08-.13.16-.25.22-.36s.13-.24.21-.37.38-.48.56-.71a6.35,6.35,0,0,1,.6-.68.73.73,0,0,1,1-.06.41.41,0,0,1,.25.37q0,.21-.06.48a13.09,13.09,0,0,1-.73,2.19C83.87,127.53,83.55,128.23,83.21,128.94Z"/><path d="M110.4,102.16c-.35,1-.71,2.09-1.07,3.12s-.76,2.06-1.19,3.09a21.09,21.09,0,0,1-1.35,2.84c-.52.91-1.09,1.8-1.7,2.66a10.74,10.74,0,0,1-3.27,3.18,8.43,8.43,0,0,1-4.51,1.14A9.33,9.33,0,0,1,92.55,117,11,11,0,0,1,89,113.54a18.57,18.57,0,0,1-1.71-3.35,22.12,22.12,0,0,1-1-3.61,22.58,22.58,0,0,1-.47-2.89q-.12-1.43-.21-2.91a25.18,25.18,0,0,1,0-3,26.3,26.3,0,0,1,.37-3A32.67,32.67,0,0,1,87,90.45a16.53,16.53,0,0,1,1.92-4,12.6,12.6,0,0,1,1.71-2.12,13.56,13.56,0,0,1,2.1-1.72,14.39,14.39,0,0,1,2-1.1,9.4,9.4,0,0,1,2.2-.64,11,11,0,0,1,2.56-.12,5.71,5.71,0,0,1,2.51.79l.63.35.67.31a8.18,8.18,0,0,1,2.1,1.52,20.89,20.89,0,0,1,1.71,2,6.59,6.59,0,0,1,1.11,2.35,8.37,8.37,0,0,1,.2,2.66,14.09,14.09,0,0,1-3.4,8.07c-.58.69-1.18,1.36-1.79,2a20,20,0,0,1-1.94,1.85,17.11,17.11,0,0,1-3.11,2,11.63,11.63,0,0,1-3.56,1.09,2.29,2.29,0,0,0-.32.11,16,16,0,0,0,1.06,2.82,8.07,8.07,0,0,0,1.73,2.36,5.53,5.53,0,0,0,2,1.21,6.17,6.17,0,0,0,2.29.3,1.43,1.43,0,0,0,.86-.29c.24-.18.47-.38.72-.6a11.6,11.6,0,0,0,1.34-1.71,16.14,16.14,0,0,0,1.07-1.91,27.19,27.19,0,0,0,1.24-2.7,26,26,0,0,0,1-2.78,4.8,4.8,0,0,1,.55-1.16,1.71,1.71,0,0,1,1-.67,1.94,1.94,0,0,1,.78.14,1.16,1.16,0,0,1,.44.44A.94.94,0,0,1,110.4,102.16Zm-16.57,1.68.84-.2a3.91,3.91,0,0,0,.72-.21,11,11,0,0,0,2.29-1.09,13.57,13.57,0,0,0,2-1.53c.51-.47,1-.93,1.45-1.4s.9-1,1.33-1.46a10.46,10.46,0,0,0,2.05-3.33,12.81,12.81,0,0,0,.8-3.82,4,4,0,0,0-.18-1.7,3.59,3.59,0,0,0-.94-1.44,5.3,5.3,0,0,0-2.89-1.5,4.52,4.52,0,0,0-3.14.71,8.19,8.19,0,0,0-2.23,2,10,10,0,0,0-1.45,2.63,18.68,18.68,0,0,0-1.14,5.08,22.57,22.57,0,0,0-.12,2.84,19.42,19.42,0,0,0,.24,2.83c.05.27.1.52.17.77Z"/><path d="M136.87,128.64a1.76,1.76,0,0,1-.79,0,2.6,2.6,0,0,1-.73-.22,2.48,2.48,0,0,1-.77-.53,13.08,13.08,0,0,1-2-3.09c-.5-1.11-1-2.26-1.37-3.45-.25-.72-.47-1.45-.66-2.18s-.37-1.47-.52-2.22c-.24-1.14-.49-2.26-.73-3.35s-.49-2.22-.73-3.35l-.15-.93c0-.31-.11-.64-.19-1-.19.28-.35.55-.48.79a3.42,3.42,0,0,0-.3.77,30.58,30.58,0,0,1-1.14,3.51L125,116.83a11.5,11.5,0,0,0-.53,1.45,14.2,14.2,0,0,1-.54,1.45c-.16.35-.33.69-.51,1s-.37.64-.56.94a22.63,22.63,0,0,1-1.46,2,7.12,7.12,0,0,1-1.86,1.58,6.8,6.8,0,0,1-3.73,1.15,3.2,3.2,0,0,1-1.69-.4,5.57,5.57,0,0,1-1.36-1.13,5.09,5.09,0,0,1-1-1.53,9.17,9.17,0,0,1-.56-1.75,14.19,14.19,0,0,1-.45-3.41,31.42,31.42,0,0,1,.17-3.48c.1-.86.23-1.7.37-2.52a11.57,11.57,0,0,1,.71-2.45,18.19,18.19,0,0,1,3.15-5.22,29.64,29.64,0,0,1,2.59-2.66,20.58,20.58,0,0,1,3-2.23A26.87,26.87,0,0,1,124,97.9a25.47,25.47,0,0,1,3.48-1.19.48.48,0,0,0,.18-.06l.14-.05c.13-.61.25-1.2.36-1.75s.23-1.12.37-1.69a.79.79,0,0,1,.39-.6,1.48,1.48,0,0,1,.83-.18,1.71,1.71,0,0,1,1.42.6,2.81,2.81,0,0,1,.65,1.22,5.8,5.8,0,0,1,.3,1.67c0,.57,0,1.14,0,1.69.08,1.42.16,2.83.26,4.24A37.69,37.69,0,0,0,133,106q.5,2.63,1.17,5.15t1.52,5c.32,1,.66,2,1,3l1.11,2.95c.2.56.42,1.1.65,1.63l.73,1.63c0,.09.09.26.16.49a1.19,1.19,0,0,1,0,.82,4.13,4.13,0,0,1-.47.72,2.15,2.15,0,0,1-.58.51l-.63.37C137.38,128.43,137.13,128.54,136.87,128.64Zm-18.11-7,.17,0a1.05,1.05,0,0,0,.31-.18,8.12,8.12,0,0,0,2.78-3.58c.18-.43.33-.86.47-1.28s.29-.85.46-1.28c.33-.81.69-1.6,1.08-2.36a10.69,10.69,0,0,0,.89-2.45,17.5,17.5,0,0,1,.63-2c.24-.66.47-1.31.67-2L127,104a22.63,22.63,0,0,0,.6-2.56,7.46,7.46,0,0,0,.1-.81,2,2,0,0,0-.13-.85,4,4,0,0,0-.71.27,5,5,0,0,0-.63.37c-.82.52-1.61,1.06-2.39,1.63a25.54,25.54,0,0,0-2.22,1.82,22.72,22.72,0,0,0-1.6,1.67,6,6,0,0,0-1.14,1.95c-.11.32-.23.64-.35,1a6.36,6.36,0,0,0-.32,1c-.14.52-.27,1-.4,1.58a14.5,14.5,0,0,0-.29,1.6,9.55,9.55,0,0,0-.1,1.41v1.43a15.75,15.75,0,0,0,.12,2.38,13.5,13.5,0,0,0,.48,2.34,5.35,5.35,0,0,0,.28.79A1.94,1.94,0,0,0,118.76,121.6Z"/><path d="M148.36,103.63c.09-.49.19-1,.28-1.49s.17-1,.24-1.49c.11-.84.24-1.65.4-2.45a23,23,0,0,1,.62-2.41c.25-.87.51-1.75.8-2.63s.58-1.77.9-2.65.58-1.55.9-2.3.65-1.51,1-2.24l.83-1.79c.28-.59.58-1.17.91-1.76a7.65,7.65,0,0,1,.7-1.11l.78-1.07a7.05,7.05,0,0,1,.43-.57c.13-.18.28-.36.43-.57a1.53,1.53,0,0,1,1.19-.71h.74a5.74,5.74,0,0,0,.71,0,1,1,0,0,1,.71.24c.18.16.36.33.52.5a3.2,3.2,0,0,1,.53.71,6.44,6.44,0,0,1,.35.8,17.62,17.62,0,0,1,.81,3.45,31.31,31.31,0,0,1,.28,3.54c0,1,.06,2,.08,3s.06,2,.11,3c.06,1.76.16,3.51.29,5.26s.33,3.5.58,5.23c.14.83.26,1.66.39,2.5a19.53,19.53,0,0,0,.52,2.48q.12.39.21.72c.06.22.12.45.19.69a2.92,2.92,0,0,1,.15.54.82.82,0,0,1-.14.58s0,0,0,0,0,0,0,0a1,1,0,0,1-.17.92,3.54,3.54,0,0,1-.76.58c-.3.16-.58.31-.85.47s-.58.32-.9.48a2.37,2.37,0,0,1-1.52.15,2.47,2.47,0,0,1-1.36-.72.66.66,0,0,1-.16-.31,1.48,1.48,0,0,0-.13-.35,1.47,1.47,0,0,1-.06-.27.92.92,0,0,0-.07-.26,37.37,37.37,0,0,1-1.47-7.89c-.05-.53-.11-1-.17-1.56a11.6,11.6,0,0,1-.11-1.57c0-.84-.06-1.68-.07-2.53s0-1.69,0-2.53,0-1.4,0-2.1,0-1.41.09-2.11,0-1.12.09-1.68.1-1.12.14-1.68c.06-1,.13-2.09.22-3.12a21.91,21.91,0,0,0,0-3.14,1.54,1.54,0,0,0,0-.43,5,5,0,0,1-.07-.5,7.09,7.09,0,0,0-1.61,2c-.22.43-.42.87-.6,1.31s-.38.88-.58,1.31-.43,1-.66,1.44l-.67,1.45a15.28,15.28,0,0,0-.59,1.58c-.26.75-.52,1.5-.77,2.24s-.5,1.48-.76,2.23c-.11.35-.21.72-.29,1.1l-.24,1.13c-.22,1-.43,1.93-.63,2.89s-.4,1.93-.59,2.89a11,11,0,0,0-.24,1.49,14.84,14.84,0,0,1-.21,1.49,11.2,11.2,0,0,0-.14,2.17c0,.74,0,1.47,0,2.2,0,.34-.05.68-.1,1a8.78,8.78,0,0,0-.09,1c0,.32,0,.63,0,.93a3.93,3.93,0,0,1-.09.9,5.08,5.08,0,0,1-.37,1.34,1.32,1.32,0,0,1-.26.46,2.77,2.77,0,0,1-.45.37,1.55,1.55,0,0,1-.51.18l-.55.08-.52,0a.58.58,0,0,1-.44-.19,5.69,5.69,0,0,1-1.37-1.67,17.15,17.15,0,0,1-1.16-2.79c-.29-1-.54-1.92-.77-2.91-.24-1.14-.49-2.27-.75-3.4s-.49-2.27-.68-3.41c-.21-1.36-.39-2.72-.55-4.09s-.3-2.75-.44-4.14c-.12-1.08-.2-2.15-.25-3.24s-.11-2.17-.18-3.27c-.07-1.37-.1-2.8-.11-4.27a7.54,7.54,0,0,1,.12-1.24,3.73,3.73,0,0,1,.46-1.21,1.24,1.24,0,0,1,.9-.71,2.53,2.53,0,0,1,.94-.06,1.27,1.27,0,0,1,.81.53,6.36,6.36,0,0,1,.63.93,4.48,4.48,0,0,1,.38,1.07c.1.47.2.93.32,1.36s.24.89.36,1.36c.19.66.35,1.3.47,1.94s.24,1.31.34,2c.15,1,.3,2,.46,3s.32,2,.47,3l.48,3.2c.16,1.06.32,2.12.47,3.19l.18,1c.06.32.13.64.21,1Z"/><path d="M193.47,100.05c-.16,1.1-.32,2.18-.49,3.26s-.38,2.16-.61,3.26a21.22,21.22,0,0,1-.83,3,30.79,30.79,0,0,1-1.19,2.92,10.78,10.78,0,0,1-2.65,3.72,8.29,8.29,0,0,1-4.23,1.93,9.2,9.2,0,0,1-4.9-.34,11,11,0,0,1-4.1-2.74,18.86,18.86,0,0,1-2.28-3,21.08,21.08,0,0,1-1.68-3.36,22.09,22.09,0,0,1-1-2.76c-.26-.92-.5-1.86-.73-2.82a25.33,25.33,0,0,1-.53-3,27.41,27.41,0,0,1-.17-3,32.63,32.63,0,0,1,.27-4.43,16.52,16.52,0,0,1,1.17-4.28,13.42,13.42,0,0,1,1.3-2.39A14.85,14.85,0,0,1,172.61,84a13.86,13.86,0,0,1,1.81-1.45,9.57,9.57,0,0,1,2.05-1,11.39,11.39,0,0,1,2.49-.58,5.68,5.68,0,0,1,2.61.33l.69.23.71.19a7.9,7.9,0,0,1,2.34,1.12,17.54,17.54,0,0,1,2,1.65,6.68,6.68,0,0,1,1.52,2.11,8.44,8.44,0,0,1,.67,2.59,14,14,0,0,1-1.9,8.54c-.45.79-.91,1.55-1.39,2.31a23.52,23.52,0,0,1-1.58,2.17,16.58,16.58,0,0,1-2.7,2.54,11.19,11.19,0,0,1-3.31,1.72l-.29.16a15.3,15.3,0,0,0,1.55,2.59,8.3,8.3,0,0,0,2.12,2,5.54,5.54,0,0,0,2.17.83,6.31,6.31,0,0,0,2.32-.11,1.44,1.44,0,0,0,.79-.44q.3-.33.6-.72a12.65,12.65,0,0,0,1-1.93,17.91,17.91,0,0,0,.72-2.06c.29-1,.54-1.92.73-2.88a26,26,0,0,0,.43-2.9,4.84,4.84,0,0,1,.34-1.25,1.64,1.64,0,0,1,.89-.84,1.92,1.92,0,0,1,.79,0,1.23,1.23,0,0,1,.52.36A.93.93,0,0,1,193.47,100.05Zm-16,4.62.78-.34a4.22,4.22,0,0,0,.67-.34A10.93,10.93,0,0,0,181,102.5a13,13,0,0,0,1.69-1.86c.42-.54.81-1.09,1.18-1.64s.71-1.1,1-1.67a10.51,10.51,0,0,0,1.41-3.64,13,13,0,0,0,.11-3.9,4.3,4.3,0,0,0-.48-1.64,3.63,3.63,0,0,0-1.19-1.25,5.28,5.28,0,0,0-3.11-1,4.44,4.44,0,0,0-3,1.25,8.36,8.36,0,0,0-1.84,2.4,10.28,10.28,0,0,0-.95,2.85,18.77,18.77,0,0,0-.21,5.2,26,26,0,0,0,.39,2.81,20.7,20.7,0,0,0,.74,2.75c.1.25.2.49.31.72S177.35,104.41,177.48,104.67Z"/><path d="M214.88,88.92c.25,1,.46,1.92.64,2.87a24.91,24.91,0,0,1,.4,2.93c0,.21,0,.43,0,.65a4.1,4.1,0,0,1,0,.62v2.06a1,1,0,0,1-.61.19.93.93,0,0,1-.53-.36,5.07,5.07,0,0,1-1.43-2.6c-.17-.69-.3-1.38-.41-2.1s-.25-1.41-.42-2.09A14.15,14.15,0,0,0,212,89.6c-.19-.5-.37-1-.54-1.49a2,2,0,0,0-.24-.46l-.33-.49c-.22.21-.43.41-.64.59a5.29,5.29,0,0,0-.58.58,33.64,33.64,0,0,0-2.1,2.81,25.46,25.46,0,0,0-1.74,3.06,20,20,0,0,0-1.19,3.06,20.51,20.51,0,0,0-.7,3.22,1,1,0,0,0,0,.42l.05.45c.13.62.27,1.22.42,1.82s.31,1.21.5,1.82a22,22,0,0,1,.61,2.29c.17.78.35,1.56.55,2.33.08.24.14.46.2.67s.12.42.19.63c.1.5.21,1,.32,1.49s.22,1,.31,1.46.25,1,.37,1.44.25,1,.37,1.45l.21.63.21.63a1.43,1.43,0,0,1,.09.5c0,.17,0,.34,0,.51s0,.62,0,.93a1.85,1.85,0,0,1-.3.84l-.19.24a1.09,1.09,0,0,1-.73.33,4.63,4.63,0,0,1-.93.42,5.23,5.23,0,0,1-1.22.27,3,3,0,0,1-1.17-.08,1.11,1.11,0,0,1-.77-.62,35.1,35.1,0,0,1-1.3-3.64q-.69-2.2-1.39-4.87t-1.42-5.58q-.69-2.91-1.34-5.77t-1.17-5.43c-.36-1.73-.68-3.26-1-4.58s-.48-2.39-.62-3.2-.22-1.23-.22-1.28.11-.17.29-.28a3.18,3.18,0,0,1,.64-.32c.24-.1.49-.19.75-.28l.59-.22a.17.17,0,0,1,.14-.05s0,0,0,0v0a1.27,1.27,0,0,1,.4-.11l.38,0a.57.57,0,0,1,.56.19l.42.54a12.59,12.59,0,0,1,1.44,2.33c.4.84.77,1.71,1.1,2.59.23.6.43,1.21.6,1.82s.35,1.22.54,1.83a.21.21,0,0,0,0,.12s0,.11.08.23c.07-.2.14-.38.2-.53s.1-.29.13-.41a14.82,14.82,0,0,1,1.5-3.38c.54-.88,1.09-1.74,1.65-2.6A14.4,14.4,0,0,1,208,86c.15-.16.31-.31.48-.46s.33-.32.5-.51a3.19,3.19,0,0,1,1.32-.77,6.26,6.26,0,0,1,1.52-.21.92.92,0,0,1,.56.19,3.58,3.58,0,0,1,.44.43,5.57,5.57,0,0,1,1.31,2A19.54,19.54,0,0,1,214.88,88.92Z"/></g></g></svg>