<svg xmlns="http://www.w3.org/2000/svg" viewBox="0 0 140 132.04"><defs><style>.cls-1{fill:#ffd040;}</style></defs><g id="Layer_2" data-name="Layer 2"><g id="tips_and_trick" data-name="tips and trick"><g id="Layer_19" data-name="Layer 19"><path class="cls-1" d="M24.22,5a3.4,3.4,0,0,0-2.87-3.81c-3.52-.47-7-1-10.6-1.18a33.73,33.73,0,0,0-6.11.3,8.68,8.68,0,0,0-2.92.84c-1,.57-2,1.67-1.63,3,.54,1.79,2.39,2.56,4,3.08a24.31,24.31,0,0,0,5.57.94H9.56a40.52,40.52,0,0,0,4.27.1c1.44-.05,2.9-.16,4.35-.24h0l2.68-.1a3.56,3.56,0,0,0,2-.66A3.22,3.22,0,0,0,24.22,5Z"/><path class="cls-1" d="M22.74,66.72A3.49,3.49,0,0,0,24,63.13a3.54,3.54,0,0,0-2.89-2.59,7.9,7.9,0,0,0-1.88,0l-1,0a9.65,9.65,0,0,0-1.49.15c-1,.15-1.92.31-2.87.51A33,33,0,0,0,8.27,62.8a21.56,21.56,0,0,0-5.14,2.81c-1.13.9-3.24,2.68-1.88,4.25a2.78,2.78,0,0,0,1.45.77,14.48,14.48,0,0,0,2.7.29,21.35,21.35,0,0,0,2.65-.1c.87-.06,1.74-.14,2.62-.28A51,51,0,0,0,16,69.42l2.17-.63,1.45-.46a8.72,8.72,0,0,0,1.11-.54l.49-.2a7.09,7.09,0,0,0,1.48-.82Z"/><path class="cls-1" d="M73.16,129.77a19.09,19.09,0,0,0,.87-2.65q.69-2.61,1.18-5.25c.35-2,.62-3.94,1-5.91.18-1,.35-2,.54-3a10.29,10.29,0,0,0,.34-3.17,2.52,2.52,0,0,0-1.7-2.13,2.54,2.54,0,0,0-2.84,1,9.92,9.92,0,0,0-1.16,3c-.28,1-.56,1.91-.83,2.88-.55,2-1.13,4-1.6,6-.4,1.66-.7,3.35-.94,5.05a20.5,20.5,0,0,0-.24,2.82,3.8,3.8,0,0,0,.88,2.81,2.42,2.42,0,0,0,2.93.49,2.82,2.82,0,0,0,.29-.18A4.08,4.08,0,0,0,73.16,129.77Z"/><path class="cls-1" d="M139.72,120.47a33.69,33.69,0,0,0-1.4-4c-1.07-2.66-2.28-5.24-3.46-7.84q.07.16.15.3c-.55-1.21-1.07-2.44-1.63-3.65a12.1,12.1,0,0,0-1.57-2.87,3.34,3.34,0,0,0-5.77,2.13,8.73,8.73,0,0,0,.53,2.65c.21.62.41,1.24.64,1.86.66,1.71,1.42,3.41,2.17,5.08,1,2.24,2.09,4.43,3.21,6.59a19.22,19.22,0,0,0,2.08,3.34c.93,1.13,2.45,2,3.89,1.22a1.83,1.83,0,0,0,.3-.18C140.29,124.05,140.12,122,139.72,120.47Z"/></g></g></g></svg>