<?xml version="1.0" standalone="no"?>
<!DOCTYPE svg PUBLIC "-//W3C//DTD SVG 1.1//EN" "http://www.w3.org/Graphics/SVG/1.1/DTD/svg11.dtd" >
<svg xmlns="http://www.w3.org/2000/svg" xmlns:xlink="http://www.w3.org/1999/xlink" version="1.1">
<metadata>
Created by FontForge 20170731 at Tue Mar  1 18:52:07 2022
 By Aleksey,,,
(c) 2001 House Industries/Brand Design Co., Inc. All Rights Reserved.
</metadata>
<defs>
<font id="NeutraDisp-Bold" horiz-adv-x="434" >
  <font-face 
    font-family="Neutra Display"
    font-weight="700"
    font-stretch="normal"
    units-per-em="2048"
    panose-1="2 0 0 0 0 0 0 0 0 0"
    ascent="1597"
    descent="-451"
    x-height="700"
    cap-height="1393"
    bbox="-129 -524 2580 1835"
    underline-thickness="40"
    underline-position="-312"
    unicode-range="U+000D-FB04"
  />
<missing-glyph horiz-adv-x="372" 
 />
    <glyph glyph-name="ff" unicode="ff" horiz-adv-x="958" 
d="M752 530v-530h-205v530h-221v-530h-205v530h-82v170h82v510q0 128 61 194t164 66q105 0 174 -49l-86 -151q-23 20 -57 20q-22 0 -36.5 -19t-14.5 -59v-512h221v508q0 128 62 195t173 67q130 0 199 -79l-115 -129q-21 28 -63 28q-51 0 -51 -80v-510h168v-170h-168z" />
    <glyph glyph-name="fi" unicode="fi" horiz-adv-x="827" 
d="M639 893q-52 0 -90.5 37.5t-38.5 91.5t38.5 91.5t90.5 37.5q53 0 91 -37t38 -92t-38 -92t-91 -37zM326 530v-530h-205v530h-82v170h82v508q0 128 62 195t173 67q130 0 199 -79l-115 -129q-21 28 -63 28q-51 0 -51 -80v-510h415v-700h-204v530h-211z" />
    <glyph glyph-name="fl" unicode="fl" horiz-adv-x="837" 
d="M326 530v-530h-205v530h-82v170h82v463q0 146 91.5 226.5t223.5 80.5q140 0 228 -78.5t88 -230.5v-1161h-205v1163q0 60 -27 96.5t-84 36.5q-110 0 -110 -127v-469h131v-170h-131z" />
    <glyph glyph-name="ffi" unicode="ffi" horiz-adv-x="1263" 
d="M1075 893q-52 0 -90.5 37.5t-38.5 91.5t38.5 91.5t90.5 37.5q53 0 91 -37t38 -92t-38 -92t-91 -37zM752 530v-530h-205v530h-221v-530h-205v530h-82v170h82v510q0 128 61 194t164 66q105 0 174 -49l-86 -151q-23 20 -57 20q-22 0 -36.5 -19t-14.5 -59v-512h221v508
q0 128 62 195t173 67q130 0 199 -79l-115 -129q-21 28 -63 28q-51 0 -51 -80v-510h426v-700h-205v530h-221z" />
    <glyph glyph-name="ffl" unicode="ffl" horiz-adv-x="1263" 
d="M752 530v-530h-205v530h-221v-530h-205v530h-82v170h82v510q0 128 61 194t164 66q105 0 174 -49l-86 -151q-23 20 -57 20q-22 0 -36.5 -19t-14.5 -59v-512h221v463q0 146 91.5 226.5t223.5 80.5q140 0 228 -78.5t88 -230.5v-1161h-205v1163q0 60 -27 96.5t-84 36.5
q-110 0 -110 -127v-469h131v-170h-131z" />
    <glyph glyph-name="LA" unicode="LA" horiz-adv-x="2347" 
d="M1370 195l-80 -195h-221l610 1421h13l612 -1421h-231l-80 195h-623zM152 0v1393h219v-1198h622l-84 -195h-757zM1911 389q1 0 -56 137.5t-115 275.5l-57 138l-231 -551h459z" />
    <glyph glyph-name="fb" unicode="fb" horiz-adv-x="1351" 
d="M326 700h131v-170h-131v-530h-205v530h-82v170h82v463q0 146 91.5 226.5t223.5 80.5q140 0 228 -78.5t88 -230.5v-540q63 98 217 98q138 0 233.5 -105.5t95.5 -263.5t-95.5 -263t-233.5 -105q-154 0 -217 98v-80h-205v1163q0 60 -27 96.5t-84 36.5q-110 0 -110 -127v-469
zM915 162q78 0 125 51t47 137t-47 137.5t-125 51.5t-122.5 -51t-44.5 -138t44.5 -137.5t122.5 -50.5z" />
    <glyph glyph-name="fh" unicode="fh" horiz-adv-x="1310" 
d="M326 700h131v-170h-131v-530h-205v530h-82v170h82v463q0 146 91.5 226.5t223.5 80.5q140 0 228 -78.5t88 -230.5v-551q66 109 219 109q119 0 191.5 -79t72.5 -216v-424h-205v410q0 60 -31.5 92.5t-93.5 32.5q-74 0 -113.5 -40.5t-39.5 -117.5v-377h-205v1163
q0 60 -27 96.5t-84 36.5q-110 0 -110 -127v-469z" />
    <glyph glyph-name="fj" unicode="fj" horiz-adv-x="827" 
d="M639 893q-52 0 -90.5 37.5t-38.5 91.5t38.5 91.5t90.5 37.5q53 0 91 -37t38 -92t-38 -92t-91 -37zM326 530v-530h-205v530h-82v170h82v508q0 128 62 195t173 67q130 0 199 -79l-115 -129q-21 28 -63 28q-51 0 -51 -80v-510h415v-909q0 -118 -58.5 -182t-166.5 -64
q-123 0 -194 78l100 125q31 -27 59 -27q56 0 56 64v745h-211z" />
    <glyph glyph-name="fk" unicode="fk" horiz-adv-x="1261" 
d="M326 530v-530h-205v530h-82v170h82v463q0 146 91.5 226.5t223.5 80.5q140 0 228 -78.5t88 -230.5v-733l229 272h238l-250 -286l278 -414h-243l-173 258q-79 -90 -79 -92v-166h-205v1163q0 60 -27 96.5t-84 36.5q-110 0 -110 -127v-469h131v-170h-131z" />
    <glyph glyph-name="ffb" unicode="ffb" horiz-adv-x="1777" 
d="M326 530v-530h-205v530h-82v170h82v510q0 128 61 194t164 66q105 0 174 -49l-86 -151q-23 20 -57 20q-22 0 -36.5 -19t-14.5 -59v-512h221v463q0 146 91.5 226.5t223.5 80.5q140 0 228 -78.5t88 -230.5v-540q63 98 217 98q138 0 233.5 -105.5t95.5 -263.5t-95.5 -263
t-233.5 -105q-154 0 -217 98v-80h-205v1163q0 60 -27 96.5t-84 36.5q-110 0 -110 -127v-469h131v-170h-131v-530h-205v530h-221zM1341 162q78 0 125 51t47 137t-47 137.5t-125 51.5t-122.5 -51t-44.5 -138t44.5 -137.5t122.5 -50.5z" />
    <glyph glyph-name="fff" unicode="fff" horiz-adv-x="1384" 
d="M973 700v508q0 128 62 195t173 67q130 0 199 -79l-115 -129q-21 28 -63 28q-51 0 -51 -80v-510h168v-170h-168v-530h-205v530h-221v-530h-205v530h-221v-530h-205v530h-82v170h82v510q0 128 61 194t164 66q105 0 174 -49l-86 -151q-23 20 -57 20q-22 0 -36.5 -19
t-14.5 -59v-512h221v510q0 128 61 194t164 66q105 0 174 -49l-86 -151q-23 20 -57 20q-22 0 -36.5 -19t-14.5 -59v-512h221z" />
    <glyph glyph-name="ffh" unicode="ffh" horiz-adv-x="1736" 
d="M326 530v-530h-205v530h-82v170h82v510q0 128 61 194t164 66q105 0 174 -49l-86 -151q-23 20 -57 20q-22 0 -36.5 -19t-14.5 -59v-512h221v463q0 146 91.5 226.5t223.5 80.5q140 0 228 -78.5t88 -230.5v-551q66 109 219 109q119 0 191.5 -79t72.5 -216v-424h-205v410
q0 60 -31.5 92.5t-93.5 32.5q-74 0 -113.5 -40.5t-39.5 -117.5v-377h-205v1163q0 60 -27 96.5t-84 36.5q-110 0 -110 -127v-469h131v-170h-131v-530h-205v530h-221z" />
    <glyph glyph-name="ffj" unicode="ffj" horiz-adv-x="1263" 
d="M1075 893q-52 0 -90.5 37.5t-38.5 91.5t38.5 91.5t90.5 37.5q53 0 91 -37t38 -92t-38 -92t-91 -37zM752 530v-530h-205v530h-221v-530h-205v530h-82v170h82v510q0 128 61 194t164 66q105 0 174 -49l-86 -151q-23 20 -57 20q-22 0 -36.5 -19t-14.5 -59v-512h221v508
q0 128 62 195t173 67q130 0 199 -79l-115 -129q-21 28 -63 28q-51 0 -51 -80v-510h426v-909q0 -118 -59 -182t-167 -64q-123 0 -194 78l100 125q31 -27 60 -27q55 0 55 64v745h-221z" />
    <glyph glyph-name="ffk" unicode="ffk" horiz-adv-x="1687" 
d="M752 530v-530h-205v530h-221v-530h-205v530h-82v170h82v510q0 128 61 194t164 66q105 0 174 -49l-86 -151q-23 20 -57 20q-22 0 -36.5 -19t-14.5 -59v-512h221v463q0 146 91.5 226.5t223.5 80.5q140 0 228 -78.5t88 -230.5v-733l229 272h238l-250 -286l278 -414h-243
l-173 258q-79 -90 -79 -92v-166h-205v1163q0 60 -27 96.5t-84 36.5q-110 0 -110 -127v-469h131v-170h-131z" />
    <glyph glyph-name=".notdef" horiz-adv-x="372" 
 />
    <glyph glyph-name=".notdef" horiz-adv-x="372" 
 />
    <glyph glyph-name=".null" horiz-adv-x="0" 
 />
    <glyph glyph-name="nonmarkingreturn" horiz-adv-x="682" 
 />
    <glyph glyph-name="CR" unicode="&#xd;" horiz-adv-x="372" 
 />
    <glyph glyph-name="space" unicode=" " horiz-adv-x="372" 
 />
    <glyph glyph-name="exclam" unicode="!" horiz-adv-x="471" 
d="M150 434l-31 959h233l-30 -959h-172zM236 -12q-59 0 -101.5 40.5t-42.5 102.5t42.5 102.5t101.5 40.5q58 0 100.5 -40.5t42.5 -102.5t-42.5 -102.5t-100.5 -40.5z" />
    <glyph glyph-name="quotedbl" unicode="&#x22;" horiz-adv-x="669" 
d="M403 979l-24 414h225l-24 -414h-177zM90 979l-24 414h225l-25 -414h-176z" />
    <glyph glyph-name="numbersign" unicode="#" horiz-adv-x="966" 
d="M248 727h-123v168h166l47 190h176l-49 -190h160l47 190h176l-49 -190h125v-168h-168l-39 -158h131l-6 -168h-168l-45 -178h-176l45 178h-158l-45 -178h-176l45 178h-121v168h164zM582 727h-160l-39 -158h158z" />
    <glyph glyph-name="dollar" unicode="$" horiz-adv-x="927" 
d="M397 -14q-131 16 -220.5 78t-141.5 149l162 106q37 -62 83.5 -101.5t116.5 -53.5v317q-169 60 -237 134.5t-68 197.5q0 119 80 197t225 90v174h150v-180q170 -27 262 -164l-147 -109q-54 75 -115 94v-274q167 -54 246 -133.5t79 -204.5q0 -141 -83 -222.5t-242 -94.5
v-224h-150v224zM397 926q-55 -8 -80.5 -36.5t-25.5 -68.5q0 -42 21 -71.5t85 -57.5v234zM547 162q127 22 127 131q0 51 -26.5 80.5t-100.5 56.5v-268z" />
    <glyph glyph-name="percent" unicode="%" horiz-adv-x="1540" 
d="M348 496q-126 0 -217.5 87t-91.5 216t91.5 216t217.5 87t217.5 -87t91.5 -216t-91.5 -216t-217.5 -87zM348 0l633 1085h211l-633 -1085h-211zM1192 -18q-126 0 -217.5 87t-91.5 216t91.5 216t217.5 87t217.5 -87t91.5 -216t-91.5 -216t-217.5 -87zM348 670q51 0 87 36
t36 93t-36 93t-87 36t-87 -36t-36 -93t36 -93t87 -36zM1192 156q51 0 87 36t36 93t-36 93t-87 36t-87 -36t-36 -93t36 -93t87 -36z" />
    <glyph glyph-name="ampersand" unicode="&#x26;" horiz-adv-x="1343" 
d="M690 795l266 -342q50 124 50 301h200q0 -278 -114 -473l219 -281h-262l-93 119q-161 -137 -387 -137q-234 0 -368.5 114t-134.5 297q0 78 23 141t71.5 115t103.5 92t139 88q-106 134 -106 279q0 128 89.5 215.5t238.5 87.5q148 0 232.5 -81.5t84.5 -213.5q0 -93 -62 -169
t-190 -152zM586 930q79 47 114 88.5t35 97.5q0 46 -28.5 78.5t-81.5 32.5q-57 0 -87 -34t-30 -85q0 -49 17 -85t53 -83zM838 270l-330 424q-117 -66 -166 -135t-49 -166q0 -102 72.5 -161.5t205.5 -59.5q160 0 267 98z" />
    <glyph glyph-name="quotesingle" unicode="'" horiz-adv-x="356" 
d="M90 979l-24 414h225l-25 -414h-176z" />
    <glyph glyph-name="parenleft" unicode="(" horiz-adv-x="626" 
d="M459 -281q-365 365 -365 877t365 877l127 -105q-131 -156 -201 -341.5t-70 -430.5t70 -430.5t201 -341.5z" />
    <glyph glyph-name="parenright" unicode=")" horiz-adv-x="626" 
d="M168 -281l-127 105q130 155 200 341t70 431t-70 431t-200 341l127 105q364 -364 364 -877t-364 -877z" />
    <glyph glyph-name="asterisk" unicode="*" horiz-adv-x="770" 
d="M301 840l23 174l-138 -107l-82 142l166 67l-166 68l82 141l138 -111l-23 179h168l-25 -179l140 111l82 -141l-168 -68l168 -67l-82 -142l-138 107l23 -174h-168z" />
    <glyph glyph-name="plus" unicode="+" horiz-adv-x="739" 
d="M465 438v-213h-191v213h-200v185h200v213h191v-213h201v-185h-201z" />
    <glyph glyph-name="comma" unicode="," 
d="M82 -197l72 199q-36 18 -58 52t-22 77q0 62 42.5 102.5t100.5 40.5t100.5 -40.5t42.5 -102.5q0 -24 -8 -49.5t-17.5 -43t-27.5 -46.5l-112 -189h-113z" />
    <glyph glyph-name="hyphen" unicode="-" horiz-adv-x="512" 
d="M68 338v186h376v-186h-376z" />
    <glyph glyph-name="hyphen" unicode="&#xad;" horiz-adv-x="512" 
d="M68 338v186h376v-186h-376z" />
    <glyph glyph-name="period" unicode="." 
d="M217 -12q-58 0 -100.5 40.5t-42.5 102.5t42.5 102.5t100.5 40.5t100.5 -40.5t42.5 -102.5t-42.5 -102.5t-100.5 -40.5z" />
    <glyph glyph-name="slash" unicode="/" horiz-adv-x="851" 
d="M-2 -262l588 1716h211l-588 -1716h-211z" />
    <glyph glyph-name="zero" unicode="0" horiz-adv-x="1261" 
d="M631 -18q-151 0 -281.5 73.5t-208.5 203t-78 284.5q0 156 78 285t208.5 201.5t281.5 72.5t281 -72.5t208 -201.5t78 -285q0 -155 -78 -284.5t-208 -203t-281 -73.5zM631 170q153 0 249.5 104t96.5 269t-96.5 267.5t-249.5 102.5t-249.5 -102.5t-96.5 -267.5t96.5 -269
t249.5 -104z" />
    <glyph glyph-name="one" unicode="1" horiz-adv-x="602" 
d="M229 0v905h-170v180h383v-1085h-213z" />
    <glyph glyph-name="two" unicode="2" horiz-adv-x="905" 
d="M4 0v10l387 422q112 121 143 164q64 89 64 170q0 66 -39.5 106.5t-112.5 40.5q-72 0 -124 -47t-74 -127l-187 72q44 138 148 214.5t240 76.5q172 0 269 -91.5t97 -240.5q0 -97 -57.5 -189.5t-182.5 -228.5l-159 -172h420v-180h-832z" />
    <glyph glyph-name="three" unicode="3" horiz-adv-x="954" 
d="M467 -18q-162 0 -275 80.5t-159 187.5l180 92q80 -176 254 -176q98 0 154.5 53.5t56.5 153.5q0 96 -65 147t-164 51q-90 0 -168 -24l-17 31l266 327h-411v180h762v-10l-291 -362q129 -13 218 -106t89 -238q0 -170 -111 -278.5t-319 -108.5z" />
    <glyph glyph-name="four" unicode="4" horiz-adv-x="995" 
d="M799 346h141v-170h-141v-176h-207v176h-545v143l739 801h13v-774zM592 346v309l-285 -309h285z" />
    <glyph glyph-name="five" unicode="5" horiz-adv-x="917" 
d="M442 -18q-147 0 -255 70t-152 167l178 92q73 -145 229 -145q94 0 146.5 50.5t52.5 141.5q0 90 -59 137.5t-170 47.5q-91 0 -149 -21t-107 -57l-11 6v614h639v-180h-456v-196q54 16 141 16q169 0 280 -105t111 -266q0 -165 -108 -268.5t-310 -103.5z" />
    <glyph glyph-name="six" unicode="6" horiz-adv-x="956" 
d="M477 -18q-176 0 -295 102t-119 276q0 160 150 357l283 368h233l-283 -364q30 10 76 10q158 0 264.5 -102.5t106.5 -263.5q0 -175 -120 -279t-296 -104zM477 168q90 0 142.5 55t52.5 142q0 86 -55 143t-142 57q-95 0 -145.5 -54.5t-50.5 -145.5q0 -86 53.5 -141.5
t144.5 -55.5z" />
    <glyph glyph-name="seven" unicode="7" horiz-adv-x="927" 
d="M150 0l430 905h-521v180h824v-10l-508 -1075h-225z" />
    <glyph glyph-name="eight" unicode="8" horiz-adv-x="929" 
d="M272 625q-116 69 -116 202q0 111 88 193t231 82t231.5 -82t88.5 -193q0 -134 -119 -202q98 -40 155.5 -115t57.5 -178q0 -152 -115.5 -251t-298.5 -99t-298.5 99t-115.5 251q0 103 57 178t154 115zM475 702q50 0 80.5 31.5t30.5 81.5t-30 80.5t-81 30.5t-80.5 -30.5
t-29.5 -80.5t30 -81.5t80 -31.5zM475 166q88 0 141.5 52.5t53.5 133.5t-53.5 133t-141.5 52t-141 -52t-53 -133t53 -133.5t141 -52.5z" />
    <glyph glyph-name="nine" unicode="9" horiz-adv-x="956" 
d="M256 0l256 365q-29 -13 -68 -13q-161 0 -271 102.5t-110 264.5q0 175 120 279t296 104t295 -102.5t119 -276.5q0 -80 -36 -162t-114 -194l-254 -367h-233zM481 518q95 0 145 55t50 146q0 86 -53 141t-144 55q-90 0 -143 -54.5t-53 -141.5t54 -144t144 -57z" />
    <glyph glyph-name="colon" unicode=":" horiz-adv-x="454" 
d="M227 401q-58 0 -100.5 41t-42.5 103t42.5 102.5t100.5 40.5q59 0 101.5 -40.5t42.5 -102.5t-43 -103t-101 -41zM227 -12q-58 0 -100.5 40.5t-42.5 102.5t42.5 102.5t100.5 40.5q59 0 101.5 -40.5t42.5 -102.5t-42.5 -102.5t-101.5 -40.5z" />
    <glyph glyph-name="semicolon" unicode=";" horiz-adv-x="454" 
d="M227 401q-58 0 -100.5 41t-42.5 103t42.5 102.5t100.5 40.5q59 0 101.5 -40.5t42.5 -102.5t-43 -103t-101 -41zM92 -197l72 199q-36 18 -58 52t-22 77q0 62 42.5 102.5t100.5 40.5q59 0 101.5 -40.5t42.5 -102.5q0 -24 -8.5 -49.5t-17.5 -42.5t-28 -47l-112 -189h-113z
" />
    <glyph glyph-name="semicolon" unicode="&#x37e;" horiz-adv-x="454" 
d="M227 401q-58 0 -100.5 41t-42.5 103t42.5 102.5t100.5 40.5q59 0 101.5 -40.5t42.5 -102.5t-43 -103t-101 -41zM92 -197l72 199q-36 18 -58 52t-22 77q0 62 42.5 102.5t100.5 40.5q59 0 101.5 -40.5t42.5 -102.5q0 -24 -8.5 -49.5t-17.5 -42.5t-28 -47l-112 -189h-113z
" />
    <glyph glyph-name="less" unicode="&#x3c;" horiz-adv-x="663" 
d="M592 182l-539 314v8l539 309v-186l-225 -129l225 -129v-187z" />
    <glyph glyph-name="equal" unicode="=" horiz-adv-x="739" 
d="M74 571v185h592v-185h-592zM74 295v184h592v-184h-592z" />
    <glyph glyph-name="greater" unicode="&#x3e;" horiz-adv-x="663" 
d="M72 182v187l225 129l-225 129v186l538 -313v-8z" />
    <glyph glyph-name="question" unicode="?" horiz-adv-x="927" 
d="M319 424v369h74q87 0 145 32.5t81.5 81t23.5 109.5q0 85 -55.5 146t-147.5 61q-84 0 -138.5 -40t-100.5 -118l-168 98q56 108 159 178t246 70q195 0 310.5 -114t115.5 -281q0 -162 -87 -264t-257 -131v-197h-201zM418 -12q-59 0 -101.5 40.5t-42.5 102.5t42.5 102.5
t101.5 40.5q58 0 100.5 -40.5t42.5 -102.5t-42.5 -102.5t-100.5 -40.5z" />
    <glyph glyph-name="at" unicode="@" horiz-adv-x="1583" 
d="M834 -385q-223 0 -401.5 92t-280 258.5t-101.5 378.5q0 157 62 294.5t165.5 232t240.5 148.5t286 54q156 0 291 -50t230 -138.5t149.5 -214t54.5 -271.5q0 -208 -86 -315t-230 -107q-178 0 -241 127q-41 -66 -100 -94t-142 -28q-132 0 -223.5 99.5t-91.5 248.5
q0 151 91.5 251.5t223.5 100.5q131 0 193 -92v74h206v-416q0 -111 89 -111q55 0 93 66t38 192q0 246 -147 379t-404 133q-245 0 -398 -156.5t-153 -406.5q0 -252 157.5 -407.5t421.5 -155.5q172 0 287 59l82 -145q-138 -80 -362 -80zM778 160q71 0 109.5 45.5t38.5 124.5
q0 81 -38.5 127.5t-109.5 46.5q-69 0 -107 -46.5t-38 -127.5q0 -79 37.5 -124.5t107.5 -45.5z" />
    <glyph glyph-name="A" unicode="A" horiz-adv-x="1320" 
d="M344 195l-80 -195h-221l610 1421h13l612 -1421h-231l-80 195h-623zM885 389q1 0 -56 137.5t-115 275.5l-57 138l-231 -551h459z" />
    <glyph glyph-name="B" unicode="B" horiz-adv-x="1216" 
d="M152 0v1393h493q200 0 304 -99.5t104 -257.5q0 -90 -44.5 -157.5t-123.5 -106.5q125 -36 195.5 -127.5t70.5 -224.5q0 -186 -119.5 -303t-349.5 -117h-530zM369 846h264q109 0 156 46.5t47 137.5q0 85 -46.5 129.5t-156.5 44.5h-264v-358zM369 188h301q138 0 198 62.5
t60 177.5q0 113 -66 177.5t-203 64.5h-290v-482z" />
    <glyph glyph-name="C" unicode="C" horiz-adv-x="1454" 
d="M788 -18q-196 0 -357 92t-254 256t-93 366t94.5 366.5t257.5 256.5t359 92q365 0 557 -270l-168 -119q-71 96 -166 143t-230 47q-206 0 -341.5 -147t-135.5 -369q0 -225 137.5 -370.5t348.5 -145.5q261 0 417 203l170 -117q-109 -145 -252.5 -214.5t-343.5 -69.5z" />
    <glyph glyph-name="D" unicode="D" horiz-adv-x="1361" 
d="M152 0v1393h393q337 0 535 -192t198 -505q0 -154 -50.5 -282.5t-144 -220t-231.5 -142.5t-307 -51h-393zM371 195h161q260 0 389.5 135t129.5 366t-129.5 366.5t-389.5 135.5h-161v-1003z" />
    <glyph glyph-name="E" unicode="E" horiz-adv-x="1171" 
d="M152 0v1393h886v-195h-667v-577h592v-191h-592v-235h696v-195h-915z" />
    <glyph glyph-name="F" unicode="F" horiz-adv-x="1105" 
d="M152 0v1393h868v-195h-649v-577h592v-195h-592v-426h-219z" />
    <glyph glyph-name="G" unicode="G" horiz-adv-x="1480" 
d="M829 -18q-211 0 -381.5 92t-267 255.5t-96.5 366.5q0 202 95 366.5t259 256.5t361 92q182 0 308 -57.5t220 -163.5l-151 -143q-74 81 -158.5 123t-224.5 42q-211 0 -346.5 -146.5t-135.5 -369.5q0 -225 142 -370.5t376 -145.5q205 0 338 88v158h-372v195h575v-457
q-222 -182 -541 -182z" />
    <glyph glyph-name="H" unicode="H" horiz-adv-x="1409" 
d="M1038 621v772h219v-1393h-219v426h-667v-426h-219v1393h219v-772h667z" />
    <glyph glyph-name="I" unicode="I" horiz-adv-x="534" 
d="M158 0v1393h219v-1393h-219z" />
    <glyph glyph-name="J" unicode="J" horiz-adv-x="972" 
d="M434 -18q-280 0 -403 237l180 111q42 -76 88.5 -113t126.5 -37q87 0 134.5 49t47.5 166v998h221v-1002q0 -200 -108 -304.5t-287 -104.5z" />
    <glyph glyph-name="K" unicode="K" horiz-adv-x="1261" 
d="M371 702l542 691h248l-493 -625l567 -768h-266l-445 602l-153 -188v-414h-219v1393h219v-691z" />
    <glyph glyph-name="L" unicode="L" horiz-adv-x="1054" 
d="M152 0v1393h219v-1198h614v-195h-833z" />
    <glyph glyph-name="M" unicode="M" horiz-adv-x="1675" 
d="M152 0v1421h10l680 -784l671 784h11v-1421h-207v903l-475 -567h-11l-473 567v-903h-206z" />
    <glyph glyph-name="N" unicode="N" horiz-adv-x="1415" 
d="M1249 -20l-893 935v-915h-204v1413h16l893 -936v916h205v-1413h-17z" />
    <glyph glyph-name="O" unicode="O" horiz-adv-x="1605" 
d="M803 -18q-148 0 -280.5 54t-229 148t-153 227t-56.5 285t56.5 285.5t153 227t229 148t280.5 54.5t280.5 -54.5t229 -148t153 -227t56.5 -285.5t-56.5 -285t-153 -227t-229 -148t-280.5 -54zM803 180q215 0 353 146.5t138 369.5t-138 369.5t-353 146.5t-353.5 -146.5
t-138.5 -369.5t138.5 -369.5t353.5 -146.5z" />
    <glyph glyph-name="P" unicode="P" horiz-adv-x="1181" 
d="M371 330v-330h-219v1393h356q283 0 438.5 -144t155.5 -389q0 -243 -156 -386.5t-438 -143.5h-137zM371 524h129q377 0 377 336q0 338 -377 338h-129v-674z" />
    <glyph glyph-name="Q" unicode="Q" horiz-adv-x="1605" 
d="M907 -10v-244h-209v244q-266 37 -440 233t-174 473q0 152 56.5 285t153 226.5t229 147.5t280.5 54t280.5 -54t229 -147.5t153 -226.5t56.5 -285q0 -277 -174.5 -473t-440.5 -233zM698 184v224h209v-224q174 35 280.5 175t106.5 337q0 223 -138 368.5t-353 145.5
q-216 0 -354 -146t-138 -368q0 -197 106.5 -337t280.5 -175z" />
    <glyph glyph-name="R" unicode="R" horiz-adv-x="1200" 
d="M823 395l283 -395h-260l-238 338q-47 -6 -100 -6h-137v-332h-219v1393h356q283 0 438.5 -144t155.5 -389q0 -162 -71.5 -282t-207.5 -183zM371 520h129q377 0 377 340q0 338 -377 338h-129v-678z" />
    <glyph glyph-name="S" unicode="S" horiz-adv-x="1087" 
d="M45 274l184 93q97 -189 316 -189q111 0 178.5 49t67.5 133q0 38 -12.5 69.5t-29 52.5t-50.5 43t-58.5 34t-71.5 33l-96 43q-83 36 -141.5 73t-106.5 86t-72 112.5t-24 142.5q0 160 107.5 261t279.5 101q266 0 397 -219l-165 -109q-80 136 -228 136q-83 0 -130.5 -44.5
t-47.5 -117.5q0 -41 12 -71t42 -56t66 -46t99 -48l96 -43q70 -31 118.5 -58t95.5 -64.5t75 -79t45 -98.5t17 -126q0 -186 -127.5 -285.5t-333.5 -99.5q-173 0 -301 77.5t-201 214.5z" />
    <glyph glyph-name="T" unicode="T" horiz-adv-x="1144" 
d="M463 0v1198h-414v195h1047v-195h-414v-1198h-219z" />
    <glyph glyph-name="U" unicode="U" horiz-adv-x="1349" 
d="M676 -18q-115 0 -211.5 32.5t-168.5 94.5t-112.5 160t-40.5 223v901h219v-889q0 -324 314 -324q311 0 311 324v889h219v-901q0 -165 -70.5 -282t-188.5 -172.5t-271 -55.5z" />
    <glyph glyph-name="V" unicode="V" horiz-adv-x="1320" 
d="M664 -20l-621 1413h231l398 -936l385 936h221l-602 -1413h-12z" />
    <glyph glyph-name="W" unicode="W" horiz-adv-x="1925" 
d="M539 -18l-498 1411h231l299 -889l394 917h12l395 -917l293 889h217l-487 -1411h-13l-411 970l-422 -970h-10z" />
    <glyph glyph-name="X" unicode="X" horiz-adv-x="1312" 
d="M532 756l-401 637h248l278 -441l279 441h231q-393 -623 -395 -623l488 -770h-248l-363 573l-362 -573h-232z" />
    <glyph glyph-name="Y" unicode="Y" horiz-adv-x="1339" 
d="M567 442l-524 951h242l395 -727l389 727h229l-512 -949v-444h-219v442z" />
    <glyph glyph-name="Z" unicode="Z" horiz-adv-x="1224" 
d="M59 0v12l736 1186h-623v195h975v-13l-735 -1185h712v-195h-1065z" />
    <glyph glyph-name="bracketleft" unicode="[" horiz-adv-x="628" 
d="M152 -262v1716h411v-178h-201v-1360h201v-178h-411z" />
    <glyph glyph-name="backslash" unicode="\" horiz-adv-x="851" 
d="M643 -262l-588 1716h211l588 -1716h-211z" />
    <glyph glyph-name="bracketright" unicode="]" horiz-adv-x="628" 
d="M66 -262v178h200v1360h-200v178h411v-1716h-411z" />
    <glyph glyph-name="asciicircum" unicode="^" horiz-adv-x="595" 
d="M80 428v195h436v-195h-436z" />
    <glyph glyph-name="underscore" unicode="_" horiz-adv-x="552" 
d="M-4 -262v186h561v-186h-561z" />
    <glyph glyph-name="grave" unicode="`" horiz-adv-x="1024" 
d="M436 791l-174 311h232l102 -311h-160z" />
    <glyph glyph-name="a" unicode="a" horiz-adv-x="778" 
d="M498 420q-3 127 -129 127q-102 0 -168 -76l-125 115q118 133 305 133q152 0 236.5 -78.5t84.5 -230.5v-410h-204v63q-69 -81 -197 -81q-114 0 -187 58t-73 175q0 99 76.5 152t197.5 53h183zM498 281h-172q-39 0 -60.5 -18.5t-21.5 -49.5q0 -68 94 -68q68 0 114 31.5
t46 75.5v29z" />
    <glyph glyph-name="b" unicode="b" horiz-adv-x="890" 
d="M508 -18q-154 0 -217 98v-80h-205v1454h205v-833q63 98 217 98q138 0 234 -105.5t96 -263.5t-96 -263t-234 -105zM455 162q78 0 125 51t47 137t-47 137.5t-125 51.5t-123 -51t-45 -138q0 -86 45 -137t123 -51z" />
    <glyph glyph-name="c" unicode="c" horiz-adv-x="772" 
d="M426 -18q-160 0 -266.5 104.5t-106.5 263.5t106 264t263 105q188 0 293 -123l-135 -125q-63 70 -152 70q-75 0 -119.5 -54.5t-44.5 -136.5t45.5 -136t122.5 -54q91 0 160 73l135 -122q-55 -63 -126 -96t-175 -33z" />
    <glyph glyph-name="d" unicode="d" horiz-adv-x="890" 
d="M383 -18q-138 0 -234 105t-96 263t96 263.5t234 105.5q154 0 217 -98v833h205v-1454h-205v80q-63 -98 -217 -98zM436 162q78 0 123 51t45 137q0 87 -45 138t-123 51t-125 -51.5t-47 -137.5t47 -137t125 -51z" />
    <glyph glyph-name="e" unicode="e" horiz-adv-x="851" 
d="M266 281q33 -127 183 -127q103 0 182 67l123 -123q-107 -116 -301 -116q-181 0 -290.5 103t-109.5 265q0 159 109 264t270 105q180 0 280.5 -125t88.5 -313h-535zM268 424h318q-11 56 -50.5 89.5t-103.5 33.5q-63 0 -106 -31.5t-58 -91.5z" />
    <glyph glyph-name="f" unicode="f" horiz-adv-x="532" 
d="M326 530v-530h-205v530h-82v170h82v508q0 128 62 195t173 67q130 0 199 -79l-115 -129q-21 28 -63 28q-51 0 -51 -80v-510h168v-170h-168z" />
    <glyph glyph-name="g" unicode="g" horiz-adv-x="808" 
d="M498 700h256v-155h-101q29 -56 29 -105q0 -121 -85 -199.5t-214 -78.5q-74 0 -137 26q-19 -19 -19 -45q0 -21 11.5 -32.5t52.5 -20t121 -12.5q190 -10 273 -76t83 -186q0 -124 -93.5 -198.5t-279.5 -74.5q-183 0 -284 68t-101 180q0 135 137 182q-43 20 -66.5 59.5
t-23.5 86.5q0 97 97 143q-70 77 -70 178q0 121 85 200t214 79q63 0 115 -19zM383 324q55 0 88 31.5t33 84.5t-33 85t-88 32t-88 -32t-33 -85t33 -84.5t88 -31.5zM395 -283q170 0 170 93q0 44 -43.5 65t-159.5 21q-81 0 -121 -19.5t-40 -66.5q0 -43 50 -68t144 -25z" />
    <glyph glyph-name="h" unicode="h" horiz-adv-x="845" 
d="M82 0v1454h205v-844q66 109 219 109q119 0 191.5 -79t72.5 -216v-424h-205v410q0 60 -31.5 92.5t-93.5 32.5q-74 0 -113.5 -40.5t-39.5 -117.5v-377h-205z" />
    <glyph glyph-name="i" unicode="i" horiz-adv-x="376" 
d="M188 893q-52 0 -90.5 37.5t-38.5 91.5t38.5 91.5t90.5 37.5q53 0 91 -37t38 -92t-38 -92t-91 -37zM86 0v700h205v-700h-205z" />
    <glyph glyph-name="j" unicode="j" horiz-adv-x="376" 
d="M188 893q-52 0 -90.5 37.5t-38.5 91.5t38.5 91.5t90.5 37.5q53 0 91 -37t38 -92t-38 -92t-91 -37zM66 -455q-124 0 -195 78l100 125q31 -27 60 -27q55 0 55 64v915h205v-909q0 -118 -58.5 -182t-166.5 -64z" />
    <glyph glyph-name="k" unicode="k" horiz-adv-x="796" 
d="M287 168v-168h-205v1454h205v-1026l229 272h238l-250 -286l278 -414h-243l-172 258z" />
    <glyph glyph-name="l" unicode="l" horiz-adv-x="376" 
d="M86 0v1454h205v-1454h-205z" />
    <glyph glyph-name="m" unicode="m" horiz-adv-x="1271" 
d="M82 0v700h205v-79q62 98 196 98q139 0 199 -119q86 119 254 119q121 0 190.5 -79t69.5 -212v-428h-205v408q0 64 -25 95.5t-87 31.5q-138 0 -138 -158v-377h-204v408q0 63 -25.5 95t-87.5 32q-137 0 -137 -158v-377h-205z" />
    <glyph glyph-name="n" unicode="n" horiz-adv-x="839" 
d="M82 0v700h205v-90q65 109 219 109q119 0 191.5 -79t72.5 -216v-424h-205v410q0 60 -31.5 92.5t-93.5 32.5q-74 0 -113.5 -40.5t-39.5 -117.5v-377h-205z" />
    <glyph glyph-name="o" unicode="o" horiz-adv-x="872" 
d="M436 -18q-162 0 -272.5 104.5t-110.5 263.5t110.5 264t272.5 105t272.5 -105t110.5 -264t-110.5 -263.5t-272.5 -104.5zM436 156q78 0 125 54t47 140t-47 140.5t-125 54.5t-125 -54.5t-47 -140.5t47 -140t125 -54z" />
    <glyph glyph-name="p" unicode="p" horiz-adv-x="890" 
d="M86 -434v1134h205v-79q63 98 217 98q138 0 234 -105.5t96 -263.5t-96 -263t-234 -105q-154 0 -217 98v-514h-205zM455 162q78 0 125 51t47 137t-47 137.5t-125 51.5t-123 -51t-45 -138q0 -86 45 -137t123 -51z" />
    <glyph glyph-name="q" unicode="q" horiz-adv-x="890" 
d="M600 -434v514q-63 -98 -217 -98q-138 0 -234 105t-96 263t96 263.5t234 105.5q154 0 217 -98v79h205v-1134h-205zM436 162q78 0 123 51t45 137q0 87 -45 138t-123 51t-125 -51.5t-47 -137.5t47 -137t125 -51z" />
    <glyph glyph-name="r" unicode="r" horiz-adv-x="618" 
d="M82 0v700h205v-108q62 127 200 127q59 0 111 -31l-66 -176q-44 23 -88 23q-157 0 -157 -205v-330h-205z" />
    <glyph glyph-name="s" unicode="s" horiz-adv-x="669" 
d="M336 -18q-89 0 -171.5 35.5t-144.5 103.5l130 115q74 -89 182 -89q102 0 102 52q0 25 -25 39t-110 32q-231 49 -231 228q0 99 70 160t188 61q148 0 258 -96l-109 -125q-57 57 -143 57q-38 0 -59 -14t-21 -35q0 -26 27.5 -39.5t115.5 -30.5q234 -46 234 -223
q0 -108 -75.5 -169.5t-217.5 -61.5z" />
    <glyph glyph-name="t" unicode="t" horiz-adv-x="548" 
d="M121 530h-82v170h82v457h205v-457h163v-170h-163v-284q0 -51 14.5 -69.5t44.5 -18.5q29 0 61 24l80 -143q-69 -57 -176 -57q-229 0 -229 260v288z" />
    <glyph glyph-name="u" unicode="u" horiz-adv-x="845" 
d="M340 -18q-119 0 -191.5 78.5t-72.5 215.5v424h205v-409q0 -60 31.5 -92.5t93.5 -32.5q74 0 113.5 40.5t39.5 117.5v376h205v-700h-205v90q-64 -108 -219 -108z" />
    <glyph glyph-name="v" unicode="v" horiz-adv-x="776" 
d="M387 -18l-381 718h230l167 -340l162 340h205l-375 -718h-8z" />
    <glyph glyph-name="w" unicode="w" horiz-adv-x="1112" 
d="M330 -18l-324 718h230l135 -331l186 350h6l197 -350l143 331h203l-328 -718h-8l-211 395l-221 -395h-8z" />
    <glyph glyph-name="x" unicode="x" horiz-adv-x="802" 
d="M287 369l-238 331h234l125 -174l124 174h220l-238 -323l270 -377h-233l-156 217q0 1 -39.5 -53.5t-78.5 -109.5l-39 -54h-220z" />
    <glyph glyph-name="y" unicode="y" horiz-adv-x="776" 
d="M301 63l-295 637h230l167 -403l164 403h203l-473 -1134h-205z" />
    <glyph glyph-name="z" unicode="z" horiz-adv-x="708" 
d="M31 0v8l325 522h-278v170h592v-8l-324 -522h305v-170h-620z" />
    <glyph glyph-name="braceleft" unicode="{" horiz-adv-x="712" 
d="M532 -262q-45 0 -82 6t-76.5 24.5t-66.5 48t-44 81t-17 120.5v283q0 71 -26.5 100t-82.5 29h-92v178h92q56 0 82.5 29t26.5 100v437q0 69 17 120.5t44 81t66.5 48t76.5 24.5t82 6h115v-178h-104q-44 0 -65 -22t-21 -74v-486q0 -149 -140 -174q140 -25 140 -174v-334
q0 -52 21 -74t65 -22h104v-178h-115z" />
    <glyph glyph-name="bar" unicode="|" horiz-adv-x="499" 
d="M143 -262v1716h213v-1716h-213z" />
    <glyph glyph-name="braceright" unicode="}" horiz-adv-x="712" 
d="M66 -262v178h104q44 0 65 22t21 74v334q0 149 139 174q-139 25 -139 174v486q0 52 -21 74t-65 22h-104v178h114q287 0 287 -280v-437q0 -71 26 -100t82 -29h93v-178h-93q-56 0 -82 -29t-26 -100v-283q0 -280 -287 -280h-114z" />
    <glyph glyph-name="asciitilde" unicode="~" horiz-adv-x="741" 
d="M477 446q-43 0 -80 15t-65.5 30t-50.5 15q-45 0 -60 -57l-160 20q15 105 71.5 167t131.5 62q56 0 115.5 -29.5t81.5 -29.5q44 0 59 57l158 -20q-15 -106 -70.5 -168t-130.5 -62z" />
    <glyph glyph-name="nbspace" unicode="&#xa0;" horiz-adv-x="372" 
 />
    <glyph glyph-name="exclamdown" unicode="&#xa1;" horiz-adv-x="471" 
d="M236 1118q-58 0 -101 41t-43 103t42.5 102.5t101.5 40.5q58 0 100.5 -40.5t42.5 -102.5t-42.5 -103t-100.5 -41zM119 0l31 958h172l30 -958h-233z" />
    <glyph glyph-name="cent" unicode="&#xa2;" horiz-adv-x="782" 
d="M358 -10q-134 27 -219.5 125.5t-85.5 234.5q0 138 85.5 237t219.5 124v194h150v-190q140 -18 225 -129l-135 -117q-29 47 -90 68v-375q54 17 100 63l133 -114q-92 -106 -233 -125v-203h-150v207zM358 528q-46 -22 -72 -68.5t-26 -109.5q0 -131 98 -178v0v0v0v1v0v0v1v0v1
v0v1v0v1v1v0v1v1v1v0v1v1v1v1v1v1v1v1v1v1v1v1v1v1v1v1v1v1v1v1v1v1v1v1v1v1v1v1v1v1v1v1v1v1v1v1v1v1v1v1v1v1v1v1v1v1v1v1v1v1v1v1v1v1v1v1v1v1v1v1v1v1v1v2v1v1v1v1v1v1v1v2v1v1v1v1v2v1v1v1v1v2v1v1v1v1v2v1v1v1v2v1v1v1v2v1v1v2v1v1v2v1v1v2v1v1v2v1v1v2v1v1v2v1v1v2v1
v2v1v1v2v1v2v1v1v2v1v2v1v2v1v2v1v1v2v1v2v1v2v1v2v1v2v1v2v1v2v1v2v2v1v2v1v2v1v2v1v2v2v1v2v1v2v1v2v2v1v2v1v2v2v1v2v2v1v2v1v2v2v1v2v2v1v2v2v1v2v2v2v1v2v2v1v2v2v1v2v2v2v1v2v2v2v1v2v2v2v1v2v2v2v2v1v2v2v2v2v1v2v2v2v2v1v2v2v2v2v2v1v2v2v2v2v2v2v2v2v1v2v2v2v2v9z
" />
    <glyph glyph-name="sterling" unicode="&#xa3;" horiz-adv-x="1015" 
d="M305 440h-190v162v0v0h1v0h1h1h1h1h1h1h1h1h1h1h1h1h1h1h1h1h1h1h1h1h1h2h1h1h1h1h2h1h1h2h1h1h2h1h2h1h1h2h1h2h1h2h1h2h2h1h2h1h2h2h1h2h2h1h2h2h2h1h2h2h2h1h2h2h2h10q-45 92 -45 178q0 132 101.5 227t269.5 95q244 0 370 -205l-168 -104q-74 120 -200 120
q-73 0 -114.5 -40.5t-41.5 -104.5q0 -75 43 -166h301v-162h-225q39 -90 39 -180q0 -15 -4 -43q83 -49 151 -49q53 0 86.5 18t75.5 60l129 -131q-113 -133 -283 -133q-126 0 -239 86q-89 -86 -217 -86q-96 0 -156.5 54t-60.5 138q0 82 57 130t145 48q60 0 123 -26
q-11 45 -47 114zM342 172q-49 43 -96 43q-64 0 -64 -47q0 -23 18 -36t48 -13q70 0 94 53z" />
    <glyph glyph-name="yen" unicode="&#xa5;" horiz-adv-x="1105" 
d="M440 403l-59 103h-270v151h180l-250 428h235l285 -510l287 510h217l-252 -428h182v-151h-270q-59 -103 -61 -103h331v-151h-336v-252h-213v252h-335v151h329z" />
    <glyph glyph-name="brokenbar" unicode="&#xa6;" 
d="M217 305q-58 0 -100.5 41t-42.5 103t42.5 102.5t100.5 40.5t100.5 -40.5t42.5 -102.5t-42.5 -103t-100.5 -41z" />
    <glyph glyph-name="section" unicode="&#xa7;" horiz-adv-x="1040" 
d="M213 614q-55 80 -55 174q0 144 98 229t258 85q232 0 360 -191l-165 -108q-71 117 -197 117q-72 0 -111 -32.5t-39 -88.5q0 -51 28 -81t106 -59l239 -88q266 -99 266 -325q0 -73 -47 -135.5t-123 -104.5q52 -71 52 -162q0 -131 -98 -210.5t-275 -79.5q-132 0 -238 56
t-157 146l153 115q89 -133 242 -133q77 0 117.5 26.5t40.5 75.5q0 41 -29.5 70.5t-112.5 58.5l-217 76q-136 48 -201 124.5t-65 195.5q0 160 170 249zM713 106q88 46 88 125q0 55 -29 87t-98 57l-240 84q-69 25 -123 61q-69 -48 -69 -129q0 -58 27 -91t93 -56l222 -78
q79 -28 129 -60z" />
    <glyph glyph-name="dieresis" unicode="&#xa8;" horiz-adv-x="1024" 
d="M678 795q-46 0 -81.5 34t-35.5 82t36 82.5t81 34.5q47 0 82 -34t35 -83t-35 -82.5t-82 -33.5zM346 795q-46 0 -81.5 34t-35.5 82t36 82.5t81 34.5q47 0 82 -34t35 -83t-35 -82.5t-82 -33.5z" />
    <glyph glyph-name="copyright" unicode="&#xa9;" horiz-adv-x="1255" 
d="M629 -12q-150 0 -277.5 71t-204.5 200t-77 286t77 286t204.5 200t277.5 71q149 0 276 -71t204 -200t77 -286t-77 -286t-204 -200t-276 -71zM629 90q187 0 317.5 130.5t130.5 324.5q0 193 -130.5 323.5t-317.5 130.5q-124 0 -227 -58.5t-163.5 -163t-60.5 -232.5
t60.5 -232.5t163.5 -163.5t227 -59zM637 209q-147 0 -243.5 95t-96.5 241q0 145 96.5 240.5t239.5 95.5q171 0 266 -113l-131 -121q-56 60 -131 60q-64 0 -99.5 -46t-35.5 -116q0 -71 36 -116.5t101 -45.5q32 0 61.5 11.5t43.5 22t34 29.5l131 -118q-49 -58 -113.5 -88.5
t-158.5 -30.5z" />
    <glyph glyph-name="ordfeminine" unicode="&#xaa;" horiz-adv-x="714" 
d="M459 834q-1 59 -28.5 84.5t-82.5 25.5q-92 0 -158 -70l-112 105q48 57 114 90t179 33q121 0 199.5 -70t78.5 -209v-368h-190v57q-65 -74 -178 -74q-102 0 -168 53t-66 158q0 89 69.5 137t178.5 48h164zM459 707h-156q-30 0 -48.5 -17.5t-18.5 -42.5q0 -26 19.5 -41.5
t57.5 -15.5q62 0 104 26.5t42 65.5v25z" />
    <glyph glyph-name="guillemotleft" unicode="&#xab;" horiz-adv-x="825" 
d="M553 66l-158 282v8l158 279h215l-158 -283l158 -286h-215zM215 66l-158 282v8l158 279h215l-158 -283l158 -286h-215z" />
    <glyph glyph-name="logicalnot" unicode="&#xac;" 
d="M217 305q-58 0 -100.5 41t-42.5 103t42.5 102.5t100.5 40.5t100.5 -40.5t42.5 -102.5t-42.5 -103t-100.5 -41z" />
    <glyph glyph-name="registered" unicode="&#xae;" horiz-adv-x="798" 
d="M397 729q-144 0 -244 97t-100 243q0 148 100 245t244 97q146 0 247 -97t101 -245q0 -146 -101 -243t-247 -97zM397 799q119 0 197 76t78 194q0 122 -77.5 198t-197.5 76q-118 0 -193 -76t-75 -198q0 -118 75.5 -194t192.5 -76zM496 995l69 -114h-112l-56 92h-37v-92h-106
v385h145q78 0 124 -43t46 -103q0 -83 -73 -125zM360 1059h37q66 0 66 57q0 58 -66 58h-37v-115z" />
    <glyph glyph-name="macron" unicode="&#xaf;" horiz-adv-x="1024" 
d="M309 836v155h406v-155h-406z" />
    <glyph glyph-name="macron" unicode="&#x2c9;" horiz-adv-x="1024" 
d="M309 836v155h406v-155h-406z" />
    <glyph glyph-name="degree" unicode="&#xb0;" horiz-adv-x="610" 
d="M309 639q-100 0 -170.5 68t-70.5 163q0 98 70.5 165t170.5 67t171 -67t71 -165q0 -95 -71 -163t-171 -68zM309 770q41 0 69 28.5t28 71.5t-28 72t-69 29t-68.5 -29t-27.5 -72t27.5 -71.5t68.5 -28.5z" />
    <glyph glyph-name="twosuperior" unicode="&#xb2;" 
d="M217 305q-58 0 -100.5 41t-42.5 103t42.5 102.5t100.5 40.5t100.5 -40.5t42.5 -102.5t-42.5 -103t-100.5 -41z" />
    <glyph glyph-name="threesuperior" unicode="&#xb3;" 
d="M217 305q-58 0 -100.5 41t-42.5 103t42.5 102.5t100.5 40.5t100.5 -40.5t42.5 -102.5t-42.5 -103t-100.5 -41z" />
    <glyph glyph-name="acute" unicode="&#xb4;" horiz-adv-x="1024" 
d="M428 791l102 311h232l-174 -311h-160z" />
    <glyph glyph-name="mu" unicode="&#xb5;" 
d="M217 305q-58 0 -100.5 41t-42.5 103t42.5 102.5t100.5 40.5t100.5 -40.5t42.5 -102.5t-42.5 -103t-100.5 -41z" />
    <glyph glyph-name="mu" unicode="&#x3bc;" 
d="M217 305q-58 0 -100.5 41t-42.5 103t42.5 102.5t100.5 40.5t100.5 -40.5t42.5 -102.5t-42.5 -103t-100.5 -41z" />
    <glyph glyph-name="paragraph" unicode="&#xb6;" horiz-adv-x="1189" 
d="M571 590h-90q-186 0 -306 117.5t-120 283.5t120 284t306 118h629v-1393h-209v1202h-121v-1202h-209v590zM571 780v422h-84q-94 0 -150 -53t-56 -158t56 -158t150 -53h84z" />
    <glyph glyph-name="periodcentered" unicode="&#xb7;" 
d="M217 305q-58 0 -100.5 41t-42.5 103t42.5 102.5t100.5 40.5t100.5 -40.5t42.5 -102.5t-42.5 -103t-100.5 -41z" />
    <glyph glyph-name="periodcentered" unicode="&#x2219;" 
d="M217 305q-58 0 -100.5 41t-42.5 103t42.5 102.5t100.5 40.5t100.5 -40.5t42.5 -102.5t-42.5 -103t-100.5 -41z" />
    <glyph glyph-name="cedilla" unicode="&#xb8;" horiz-adv-x="1024" 
d="M514 -410q-132 0 -190 99l104 63q21 -43 68 -43q25 0 41 13.5t16 39.5t-16.5 41t-47.5 15h-57v182h117v-88q63 -9 101 -51t38 -113q0 -70 -52 -114t-122 -44z" />
    <glyph glyph-name="onesuperior" unicode="&#xb9;" 
d="M217 305q-58 0 -100.5 41t-42.5 103t42.5 102.5t100.5 40.5t100.5 -40.5t42.5 -102.5t-42.5 -103t-100.5 -41z" />
    <glyph glyph-name="ordmasculine" unicode="&#xba;" horiz-adv-x="804" 
d="M406 438q-148 0 -248.5 94.5t-100.5 237.5q0 142 101 237t248 95q146 0 247 -95.5t101 -236.5q0 -143 -101 -237.5t-247 -94.5zM406 598q69 0 110 47.5t41 124.5q0 76 -41.5 123t-109.5 47q-70 0 -111 -47t-41 -123q0 -77 41 -124.5t111 -47.5z" />
    <glyph glyph-name="guillemotright" unicode="&#xbb;" horiz-adv-x="825" 
d="M395 66l158 282l-158 287h215l158 -283v-8l-158 -278h-215zM57 66l158 282l-158 287h215l158 -283v-8l-158 -278h-215z" />
    <glyph glyph-name="onequarter" unicode="&#xbc;" 
d="M217 305q-58 0 -100.5 41t-42.5 103t42.5 102.5t100.5 40.5t100.5 -40.5t42.5 -102.5t-42.5 -103t-100.5 -41z" />
    <glyph glyph-name="onehalf" unicode="&#xbd;" 
d="M217 305q-58 0 -100.5 41t-42.5 103t42.5 102.5t100.5 40.5t100.5 -40.5t42.5 -102.5t-42.5 -103t-100.5 -41z" />
    <glyph glyph-name="threequarters" unicode="&#xbe;" 
d="M217 305q-58 0 -100.5 41t-42.5 103t42.5 102.5t100.5 40.5t100.5 -40.5t42.5 -102.5t-42.5 -103t-100.5 -41z" />
    <glyph glyph-name="questiondown" unicode="&#xbf;" horiz-adv-x="927" 
d="M510 1118q-58 0 -100.5 41t-42.5 103t42.5 102.5t100.5 40.5t100.5 -40.5t42.5 -102.5t-42.5 -103t-100.5 -41zM489 -18q-195 0 -310.5 114t-115.5 281q0 162 87.5 264t257.5 131v197h200v-369h-73q-87 0 -145 -32.5t-81.5 -81t-23.5 -109.5q0 -86 55 -146.5t147 -60.5
q84 0 139 40.5t101 117.5l168 -99q-56 -108 -159.5 -177.5t-246.5 -69.5z" />
    <glyph glyph-name="Agrave" unicode="&#xc0;" horiz-adv-x="1320" 
d="M344 195l-80 -195h-221l610 1421h13l612 -1421h-231l-80 195h-623zM885 389q1 0 -56 137.5t-115 275.5l-57 138l-231 -551h459zM579 1483l-174 311h232l102 -311h-160z" />
    <glyph glyph-name="Aacute" unicode="&#xc1;" horiz-adv-x="1320" 
d="M344 195l-80 -195h-221l610 1421h13l612 -1421h-231l-80 195h-623zM885 389q1 0 -56 137.5t-115 275.5l-57 138l-231 -551h459zM580 1483l102 311h232l-174 -311h-160z" />
    <glyph glyph-name="Acircumflex" unicode="&#xc2;" horiz-adv-x="1320" 
d="M344 195l-80 -195h-221l610 1421h13l612 -1421h-231l-80 195h-623zM885 389q1 0 -56 137.5t-115 275.5l-57 138l-231 -551h459zM389 1483l264 311h10l264 -311h-162l-106 88l-109 -88h-161z" />
    <glyph glyph-name="Atilde" unicode="&#xc3;" horiz-adv-x="1320" 
d="M344 195l-80 -195h-221l610 1421h13l612 -1421h-231l-80 195h-623zM885 389q1 0 -56 137.5t-115 275.5l-57 138l-231 -551h459zM757 1478q-40 0 -74.5 14.5t-60.5 29t-45 14.5q-20 0 -32 -12t-21 -44l-139 19q13 95 60.5 150t115.5 55q40 0 74.5 -14.5t60.5 -29t45 -14.5
q20 0 32 12t21 44l139 -19q-13 -95 -60.5 -150t-115.5 -55z" />
    <glyph glyph-name="Adieresis" unicode="&#xc4;" horiz-adv-x="1320" 
d="M989 1178q-46 0 -81.5 34t-35.5 82t36 82.5t81 34.5q47 0 82 -34t35 -83t-35 -82.5t-82 -33.5zM330 1178q-46 0 -81.5 34t-35.5 82t36 82.5t81 34.5q47 0 81.5 -34t34.5 -83t-34.5 -82.5t-81.5 -33.5zM344 195l-80 -195h-221l610 1421h13l612 -1421h-231l-80 195h-623z
M885 389q1 0 -56 137.5t-115 275.5l-57 138l-231 -551h459z" />
    <glyph glyph-name="Aring" unicode="&#xc5;" horiz-adv-x="1320" 
d="M344 195l-80 -195h-221l571 1329q-64 15 -106.5 65.5t-42.5 112.5q0 75 58 130t136 55t136.5 -55t58.5 -130q0 -62 -42.5 -112.5t-106.5 -65.5l573 -1329h-231l-80 195h-623zM659 1436q30 0 49 19t19 52t-19 53.5t-49 20.5t-48.5 -20.5t-18.5 -53.5t18.5 -52t48.5 -19z
M885 389q1 0 -56 137.5t-115 275.5l-57 138l-231 -551h459z" />
    <glyph glyph-name="AE" unicode="&#xc6;" horiz-adv-x="1964" 
d="M33 0l936 1393h862v-195h-668v-580h592v-190h-592v-233h697v-195h-916v195h-559l-129 -195h-223zM514 389h430v645z" />
    <glyph glyph-name="Ccedilla" unicode="&#xc7;" horiz-adv-x="1454" 
d="M698 -12q-175 20 -314.5 115.5t-219.5 250.5t-80 342q0 202 94.5 366.5t257.5 256.5t359 92q365 0 557 -270l-168 -119q-71 96 -166 143t-230 47q-206 0 -341.5 -147t-135.5 -369q0 -225 137.5 -370.5t348.5 -145.5q261 0 417 203l170 -117q-106 -140 -243 -210t-326 -74
v-70q63 -9 101 -51t38 -113q0 -70 -52 -114t-122 -44q-132 0 -190 99l104 63q21 -43 68 -43q25 0 41 13.5t16 39.5q0 56 -63 56h-58v170z" />
    <glyph glyph-name="Egrave" unicode="&#xc8;" horiz-adv-x="1171" 
d="M152 0v1393h886v-195h-667v-577h592v-191h-592v-235h696v-195h-915zM538 1483l-174 311h232l102 -311h-160z" />
    <glyph glyph-name="Eacute" unicode="&#xc9;" horiz-adv-x="1171" 
d="M152 0v1393h886v-195h-667v-577h592v-191h-592v-235h696v-195h-915zM520 1483l102 311h232l-174 -311h-160z" />
    <glyph glyph-name="Ecircumflex" unicode="&#xca;" horiz-adv-x="1171" 
d="M152 0v1393h886v-195h-667v-577h592v-191h-592v-235h696v-195h-915zM344 1483l264 311h10l264 -311h-162l-106 88l-109 -88h-161z" />
    <glyph glyph-name="Edieresis" unicode="&#xcb;" horiz-adv-x="1171" 
d="M152 0v1393h886v-195h-667v-577h592v-191h-592v-235h696v-195h-915zM778 1487q-46 0 -81.5 34t-35.5 82t36 82.5t81 34.5q47 0 82 -34t35 -83t-35 -82.5t-82 -33.5zM446 1487q-46 0 -81.5 34t-35.5 82t36 82.5t81 34.5q47 0 82 -34t35 -83t-35 -82.5t-82 -33.5z" />
    <glyph glyph-name="Igrave" unicode="&#xcc;" horiz-adv-x="534" 
d="M158 0v1393h219v-1393h-219zM190 1483l-174 311h232l102 -311h-160z" />
    <glyph glyph-name="Iacute" unicode="&#xcd;" horiz-adv-x="534" 
d="M158 0v1393h219v-1393h-219zM182 1483l102 311h232l-174 -311h-160z" />
    <glyph glyph-name="Icircumflex" unicode="&#xce;" horiz-adv-x="534" 
d="M158 0v1393h219v-1393h-219zM-4 1483l264 311h10l264 -311h-162l-106 88l-109 -88h-161z" />
    <glyph glyph-name="Idieresis" unicode="&#xcf;" horiz-adv-x="534" 
d="M158 0v1393h219v-1393h-219zM432 1487q-46 0 -81.5 34t-35.5 82t36 82.5t81 34.5q47 0 82 -34t35 -83t-35 -82.5t-82 -33.5zM100 1487q-46 0 -81.5 34t-35.5 82t36 82.5t81 34.5q47 0 82 -34t35 -83t-35 -82.5t-82 -33.5z" />
    <glyph glyph-name="Eth" unicode="&#xd0;" horiz-adv-x="1361" 
d="M152 430h-129v191h129v772h393q337 0 535 -192t198 -505q0 -154 -50.5 -282.5t-144 -220t-231.5 -142.5t-307 -51h-393v430zM371 621h336v-191h-336v-235h161q260 0 389.5 135t129.5 366t-129.5 366.5t-389.5 135.5h-161v-577z" />
    <glyph glyph-name="Ntilde" unicode="&#xd1;" horiz-adv-x="1415" 
d="M1249 -20l-893 935v-915h-204v1413h16l893 -936v916h205v-1413h-17zM805 1478q-40 0 -74.5 14.5t-60.5 29t-45 14.5q-20 0 -32 -12t-21 -44l-139 19q13 95 60.5 150t115.5 55q40 0 74.5 -14.5t60.5 -29t45 -14.5q20 0 32 12t21 44l139 -19q-13 -95 -60.5 -150t-115.5 -55
z" />
    <glyph glyph-name="Ograve" unicode="&#xd2;" horiz-adv-x="1605" 
d="M803 -18q-148 0 -280.5 54t-229 148t-153 227t-56.5 285t56.5 285.5t153 227t229 148t280.5 54.5t280.5 -54.5t229 -148t153 -227t56.5 -285.5t-56.5 -285t-153 -227t-229 -148t-280.5 -54zM803 180q215 0 353 146.5t138 369.5t-138 369.5t-353 146.5t-353.5 -146.5
t-138.5 -369.5t138.5 -369.5t353.5 -146.5zM727 1483l-174 311h232l102 -311h-160z" />
    <glyph glyph-name="Oacute" unicode="&#xd3;" horiz-adv-x="1605" 
d="M803 -18q-148 0 -280.5 54t-229 148t-153 227t-56.5 285t56.5 285.5t153 227t229 148t280.5 54.5t280.5 -54.5t229 -148t153 -227t56.5 -285.5t-56.5 -285t-153 -227t-229 -148t-280.5 -54zM803 180q215 0 353 146.5t138 369.5t-138 369.5t-353 146.5t-353.5 -146.5
t-138.5 -369.5t138.5 -369.5t353.5 -146.5zM719 1483l102 311h232l-174 -311h-160z" />
    <glyph glyph-name="Ocircumflex" unicode="&#xd4;" horiz-adv-x="1605" 
d="M803 -18q-148 0 -280.5 54t-229 148t-153 227t-56.5 285t56.5 285.5t153 227t229 148t280.5 54.5t280.5 -54.5t229 -148t153 -227t56.5 -285.5t-56.5 -285t-153 -227t-229 -148t-280.5 -54zM803 180q215 0 353 146.5t138 369.5t-138 369.5t-353 146.5t-353.5 -146.5
t-138.5 -369.5t138.5 -369.5t353.5 -146.5zM533 1483l264 311h10l264 -311h-162l-106 88l-109 -88h-161z" />
    <glyph glyph-name="Otilde" unicode="&#xd5;" horiz-adv-x="1605" 
d="M803 -18q-148 0 -280.5 54t-229 148t-153 227t-56.5 285t56.5 285.5t153 227t229 148t280.5 54.5t280.5 -54.5t229 -148t153 -227t56.5 -285.5t-56.5 -285t-153 -227t-229 -148t-280.5 -54zM803 180q215 0 353 146.5t138 369.5t-138 369.5t-353 146.5t-353.5 -146.5
t-138.5 -369.5t138.5 -369.5t353.5 -146.5zM901 1478q-40 0 -74.5 14.5t-60.5 29t-45 14.5q-20 0 -32 -12t-21 -44l-139 19q13 95 60.5 150t115.5 55q40 0 74.5 -14.5t60.5 -29t45 -14.5q20 0 32 12t21 44l139 -19q-13 -95 -60.5 -150t-115.5 -55z" />
    <glyph glyph-name="Odieresis" unicode="&#xd6;" horiz-adv-x="1605" 
d="M969 1487q-45 0 -81 34.5t-36 82.5t35.5 82t81.5 34q47 0 81.5 -33.5t34.5 -82.5t-34.5 -83t-81.5 -34zM637 1487q-45 0 -81 34.5t-36 82.5t35.5 82t81.5 34q47 0 82 -33.5t35 -82.5t-35 -83t-82 -34zM803 -18q-148 0 -280.5 54t-229 148t-153 227t-56.5 285t56.5 285.5
t153 227t229 148t280.5 54.5t280.5 -54.5t229 -148t153 -227t56.5 -285.5t-56.5 -285t-153 -227t-229 -148t-280.5 -54zM803 180q215 0 353 146.5t138 369.5t-138 369.5t-353 146.5t-353.5 -146.5t-138.5 -369.5t138.5 -369.5t353.5 -146.5z" />
    <glyph glyph-name="multiply" unicode="&#xd7;" 
d="M217 305q-58 0 -100.5 41t-42.5 103t42.5 102.5t100.5 40.5t100.5 -40.5t42.5 -102.5t-42.5 -103t-100.5 -41z" />
    <glyph glyph-name="Oslash" unicode="&#xd8;" horiz-adv-x="1605" 
d="M1376 1135q146 -189 146 -439q0 -152 -56.5 -285t-153 -227t-229 -148t-280.5 -54q-261 0 -453 153l-157 -155l-123 120q79 78 159 156q-145 192 -145 440q0 152 56.5 285.5t153 227t229 148t280.5 54.5q255 0 452 -154l158 154l123 -121zM383 408l727 706
q-130 100 -307 100q-215 0 -354.5 -147.5t-139.5 -370.5q0 -162 74 -288zM1223 985l-725 -706q131 -101 305 -101q215 0 354 147.5t139 370.5q0 162 -73 289z" />
    <glyph glyph-name="Ugrave" unicode="&#xd9;" horiz-adv-x="1349" 
d="M676 -18q-115 0 -211.5 32.5t-168.5 94.5t-112.5 160t-40.5 223v901h219v-889q0 -324 314 -324q311 0 311 324v889h219v-901q0 -165 -70.5 -282t-188.5 -172.5t-271 -55.5zM598 1483l-174 311h232l102 -311h-160z" />
    <glyph glyph-name="Uacute" unicode="&#xda;" horiz-adv-x="1349" 
d="M676 -18q-115 0 -211.5 32.5t-168.5 94.5t-112.5 160t-40.5 223v901h219v-889q0 -324 314 -324q311 0 311 324v889h219v-901q0 -165 -70.5 -282t-188.5 -172.5t-271 -55.5zM590 1483l102 311h232l-174 -311h-160z" />
    <glyph glyph-name="Ucircumflex" unicode="&#xdb;" horiz-adv-x="1349" 
d="M676 -18q-115 0 -211.5 32.5t-168.5 94.5t-112.5 160t-40.5 223v901h219v-889q0 -324 314 -324q311 0 311 324v889h219v-901q0 -165 -70.5 -282t-188.5 -172.5t-271 -55.5zM404 1483l264 311h10l264 -311h-162l-106 88l-109 -88h-161z" />
    <glyph glyph-name="Udieresis" unicode="&#xdc;" horiz-adv-x="1349" 
d="M809 1194q-41 0 -72.5 30.5t-31.5 73.5t31.5 74t72.5 31q42 0 73 -30.5t31 -74.5t-31 -74t-73 -30zM539 1194q-41 0 -73 30.5t-32 73.5t32 74t73 31q42 0 73 -30.5t31 -74.5t-31 -74t-73 -30zM676 -18q-115 0 -211.5 32.5t-168.5 94.5t-112.5 160t-40.5 223v901h219v-889
q0 -324 314 -324q311 0 311 324v889h219v-901q0 -165 -70.5 -282t-188.5 -172.5t-271 -55.5z" />
    <glyph glyph-name="Yacute" unicode="&#xdd;" horiz-adv-x="1339" 
d="M567 442l-524 951h242l395 -727l389 727h229l-512 -949v-444h-219v442zM586 1483l102 311h232l-174 -311h-160z" />
    <glyph glyph-name="Thorn" unicode="&#xde;" horiz-adv-x="1181" 
d="M371 1237h137q283 0 438.5 -143.5t155.5 -388.5q0 -243 -156.5 -387t-437.5 -144h-137v-174h-219v1393h219v-156zM371 369h129q377 0 377 336q0 337 -377 337h-129v-673z" />
    <glyph glyph-name="germandbls" unicode="&#xdf;" horiz-adv-x="944" 
d="M635 -18q-189 0 -281 102l117 131q68 -68 152 -68q86 0 86 52q0 8 -1.5 14t-5 11t-7.5 9t-12.5 7.5t-15 6t-19.5 6t-23 5.5t-27 6.5t-31 7.5q-184 46 -184 222q0 76 36.5 124.5t92.5 71.5v477q0 58 -27.5 93.5t-85.5 35.5q-112 0 -112 -127v-1169h-205v1163
q0 146 92.5 226.5t224.5 80.5q136 0 226 -79t90 -228v-598q-83 -3 -115.5 -18.5t-32.5 -44.5q0 -26 23 -37.5t100 -30.5q43 -10 76.5 -24t66.5 -38.5t51.5 -65.5t18.5 -95q0 -229 -268 -229z" />
    <glyph glyph-name="agrave" unicode="&#xe0;" horiz-adv-x="778" 
d="M498 420q-3 127 -129 127q-102 0 -168 -76l-125 115q118 133 305 133q152 0 236.5 -78.5t84.5 -230.5v-410h-204v63q-69 -81 -197 -81q-114 0 -187 58t-73 175q0 99 76.5 152t197.5 53h183zM498 281h-172q-39 0 -60.5 -18.5t-21.5 -49.5q0 -68 94 -68q68 0 114 31.5
t46 75.5v29zM309 791l-174 311h232l102 -311h-160z" />
    <glyph glyph-name="aacute" unicode="&#xe1;" horiz-adv-x="778" 
d="M498 420q-3 127 -129 127q-102 0 -168 -76l-125 115q118 133 305 133q152 0 236.5 -78.5t84.5 -230.5v-410h-204v63q-69 -81 -197 -81q-114 0 -187 58t-73 175q0 99 76.5 152t197.5 53h183zM498 281h-172q-39 0 -60.5 -18.5t-21.5 -49.5q0 -68 94 -68q68 0 114 31.5
t46 75.5v29zM307 791l102 311h232l-174 -311h-160z" />
    <glyph glyph-name="acircumflex" unicode="&#xe2;" horiz-adv-x="778" 
d="M498 420q-3 127 -129 127q-102 0 -168 -76l-125 115q118 133 305 133q152 0 236.5 -78.5t84.5 -230.5v-410h-204v63q-69 -81 -197 -81q-114 0 -187 58t-73 175q0 99 76.5 152t197.5 53h183zM498 281h-172q-39 0 -60.5 -18.5t-21.5 -49.5q0 -68 94 -68q68 0 114 31.5
t46 75.5v29zM115 791l264 311h10l264 -311h-162l-106 88l-109 -88h-161z" />
    <glyph glyph-name="atilde" unicode="&#xe3;" horiz-adv-x="778" 
d="M498 420q-3 127 -129 127q-102 0 -168 -76l-125 115q118 133 305 133q152 0 236.5 -78.5t84.5 -230.5v-410h-204v63q-69 -81 -197 -81q-114 0 -187 58t-73 175q0 99 76.5 152t197.5 53h183zM498 281h-172q-39 0 -60.5 -18.5t-21.5 -49.5q0 -68 94 -68q68 0 114 31.5
t46 75.5v29zM483 786q-40 0 -74.5 14.5t-60.5 29t-45 14.5q-20 0 -32 -12t-21 -44l-139 19q13 95 60.5 150t115.5 55q40 0 74.5 -14.5t60.5 -29t45 -14.5q20 0 32 12t21 44l139 -19q-13 -95 -60.5 -150t-115.5 -55z" />
    <glyph glyph-name="adieresis" unicode="&#xe4;" horiz-adv-x="778" 
d="M498 420q-3 127 -129 127q-102 0 -168 -76l-125 115q118 133 305 133q152 0 236.5 -78.5t84.5 -230.5v-410h-204v63q-69 -81 -197 -81q-114 0 -187 58t-73 175q0 99 76.5 152t197.5 53h183zM498 281h-172q-39 0 -60.5 -18.5t-21.5 -49.5q0 -68 94 -68q68 0 114 31.5
t46 75.5v29zM551 795q-46 0 -81.5 34t-35.5 82t36 82.5t81 34.5q47 0 82 -34t35 -83t-35 -82.5t-82 -33.5zM219 795q-46 0 -81.5 34t-35.5 82t36 82.5t81 34.5q47 0 82 -34t35 -83t-35 -82.5t-82 -33.5z" />
    <glyph glyph-name="aring" unicode="&#xe5;" horiz-adv-x="778" 
d="M498 420q-3 127 -129 127q-102 0 -168 -76l-125 115q118 133 305 133q152 0 236.5 -78.5t84.5 -230.5v-410h-204v63q-69 -81 -197 -81q-114 0 -187 58t-73 175q0 99 76.5 152t197.5 53h183zM498 281h-172q-39 0 -60.5 -18.5t-21.5 -49.5q0 -68 94 -68q68 0 114 31.5
t46 75.5v29zM385 776q-78 0 -136.5 54.5t-58.5 127.5q0 75 58.5 130t136.5 55t136.5 -55t58.5 -130q0 -73 -58.5 -127.5t-136.5 -54.5zM385 887q30 0 49 19t19 52t-19 53.5t-49 20.5t-49 -20.5t-19 -53.5t19 -52t49 -19z" />
    <glyph glyph-name="ae" unicode="&#xe6;" horiz-adv-x="1290" 
d="M610 602q93 117 260 117q180 0 280.5 -125.5t88.5 -314.5h-534q38 -125 182 -125q103 0 182 67l123 -123q-107 -116 -301 -116q-200 0 -293 133q-90 -133 -297 -133q-114 0 -187 58t-73 175q0 99 76.5 151t197.5 52h187q-3 129 -133 129q-102 0 -168 -76l-125 115
q118 133 305 133q160 0 229 -117zM705 418h319q-11 60 -50.5 94.5t-103.5 34.5t-107 -33.5t-58 -95.5zM502 279h-176q-39 0 -60.5 -17.5t-21.5 -48.5q0 -68 94 -68q69 0 116.5 30.5t47.5 76.5v27z" />
    <glyph glyph-name="ccedilla" unicode="&#xe7;" horiz-adv-x="761" 
d="M332 -8q-124 30 -201.5 127.5t-77.5 230.5q0 159 106 264t263 105q188 0 293 -123l-135 -125q-63 70 -152 70q-75 0 -119.5 -54.5t-44.5 -136.5t45.5 -136t122.5 -54q91 0 160 73l135 -122q-103 -121 -278 -129v-70q63 -9 101 -51t38 -113q0 -70 -52 -114t-122 -44
q-133 0 -191 99l105 63q21 -43 67 -43q25 0 41.5 13.5t16.5 39.5t-16.5 41t-47.5 15h-57v174z" />
    <glyph glyph-name="egrave" unicode="&#xe8;" horiz-adv-x="851" 
d="M266 281q33 -127 183 -127q103 0 182 67l123 -123q-107 -116 -301 -116q-181 0 -290.5 103t-109.5 265q0 159 109 264t270 105q180 0 280.5 -125t88.5 -313h-535zM268 424h318q-11 56 -50.5 89.5t-103.5 33.5q-63 0 -106 -31.5t-58 -91.5zM350 791l-174 311h232l102 -311
h-160z" />
    <glyph glyph-name="eacute" unicode="&#xe9;" horiz-adv-x="851" 
d="M266 281q33 -127 183 -127q103 0 182 67l123 -123q-107 -116 -301 -116q-181 0 -290.5 103t-109.5 265q0 159 109 264t270 105q180 0 280.5 -125t88.5 -313h-535zM268 424h318q-11 56 -50.5 89.5t-103.5 33.5q-63 0 -106 -31.5t-58 -91.5zM348 791l102 311h232l-174 -311
h-160z" />
    <glyph glyph-name="ecircumflex" unicode="&#xea;" horiz-adv-x="851" 
d="M266 281q33 -127 183 -127q103 0 182 67l123 -123q-107 -116 -301 -116q-181 0 -290.5 103t-109.5 265q0 159 109 264t270 105q180 0 280.5 -125t88.5 -313h-535zM268 424h318q-11 56 -50.5 89.5t-103.5 33.5q-63 0 -106 -31.5t-58 -91.5zM162 791l264 311h10l264 -311
h-162l-106 88l-109 -88h-161z" />
    <glyph glyph-name="edieresis" unicode="&#xeb;" horiz-adv-x="851" 
d="M266 281q33 -127 183 -127q103 0 182 67l123 -123q-107 -116 -301 -116q-181 0 -290.5 103t-109.5 265q0 159 109 264t270 105q180 0 280.5 -125t88.5 -313h-535zM268 424h318q-11 56 -50.5 89.5t-103.5 33.5q-63 0 -106 -31.5t-58 -91.5zM592 795q-46 0 -81.5 34
t-35.5 82t36 82.5t81 34.5q47 0 82 -34t35 -83t-35 -82.5t-82 -33.5zM260 795q-46 0 -81.5 34t-35.5 82t36 82.5t81 34.5q47 0 82 -34t35 -83t-35 -82.5t-82 -33.5z" />
    <glyph glyph-name="igrave" unicode="&#xec;" horiz-adv-x="376" 
d="M86 0v700h205v-700h-205zM112 791l-174 311h232l102 -311h-160z" />
    <glyph glyph-name="iacute" unicode="&#xed;" horiz-adv-x="376" 
d="M86 0v700h205v-700h-205zM104 791l102 311h232l-174 -311h-160z" />
    <glyph glyph-name="icircumflex" unicode="&#xee;" horiz-adv-x="376" 
d="M86 0v700h205v-700h-205zM-82 791l264 311h10l264 -311h-162l-106 88l-109 -88h-161z" />
    <glyph glyph-name="idieresis" unicode="&#xef;" horiz-adv-x="376" 
d="M86 0v700h205v-700h-205zM354 795q-46 0 -81.5 34t-35.5 82t36 82.5t81 34.5q47 0 82 -34t35 -83t-35 -82.5t-82 -33.5zM22 795q-46 0 -81.5 34t-35.5 82t36 82.5t81 34.5q47 0 82 -34t35 -83t-35 -82.5t-82 -33.5z" />
    <glyph glyph-name="eth" unicode="&#xf0;" horiz-adv-x="872" 
d="M406 1059l-103 -86l-94 100l106 88q-65 67 -155 142l96 133q115 -74 199 -158l102 86l94 -100l-104 -86q127 -155 199.5 -344t72.5 -392q0 -226 -106.5 -343t-276.5 -117q-162 0 -272.5 104.5t-110.5 263.5q0 160 100.5 264.5t239.5 104.5q74 0 121.5 -21.5t81.5 -68.5
q-48 242 -190 430zM436 156q78 0 125 54t47 140t-47 140.5t-125 54.5t-125 -54.5t-47 -140.5t47 -140t125 -54z" />
    <glyph glyph-name="ntilde" unicode="&#xf1;" horiz-adv-x="839" 
d="M82 0v700h205v-90q65 109 219 109q119 0 191.5 -79t72.5 -216v-424h-205v410q0 60 -31.5 92.5t-93.5 32.5q-74 0 -113.5 -40.5t-39.5 -117.5v-377h-205zM520 786q-40 0 -74.5 14.5t-60.5 29t-45 14.5q-20 0 -32 -12t-21 -44l-139 19q13 95 60.5 150t115.5 55
q40 0 74.5 -14.5t60.5 -29t45 -14.5q20 0 32 12t21 44l139 -19q-13 -95 -60.5 -150t-115.5 -55z" />
    <glyph glyph-name="ograve" unicode="&#xf2;" horiz-adv-x="872" 
d="M436 -18q-162 0 -272.5 104.5t-110.5 263.5t110.5 264t272.5 105t272.5 -105t110.5 -264t-110.5 -263.5t-272.5 -104.5zM436 156q78 0 125 54t47 140t-47 140.5t-125 54.5t-125 -54.5t-47 -140.5t47 -140t125 -54zM360 791l-174 311h232l102 -311h-160z" />
    <glyph glyph-name="oacute" unicode="&#xf3;" horiz-adv-x="872" 
d="M436 -18q-162 0 -272.5 104.5t-110.5 263.5t110.5 264t272.5 105t272.5 -105t110.5 -264t-110.5 -263.5t-272.5 -104.5zM436 156q78 0 125 54t47 140t-47 140.5t-125 54.5t-125 -54.5t-47 -140.5t47 -140t125 -54zM352 791l102 311h232l-174 -311h-160z" />
    <glyph glyph-name="ocircumflex" unicode="&#xf4;" horiz-adv-x="872" 
d="M436 -18q-162 0 -272.5 104.5t-110.5 263.5t110.5 264t272.5 105t272.5 -105t110.5 -264t-110.5 -263.5t-272.5 -104.5zM436 156q78 0 125 54t47 140t-47 140.5t-125 54.5t-125 -54.5t-47 -140.5t47 -140t125 -54zM166 791l264 311h10l264 -311h-162l-106 88l-109 -88
h-161z" />
    <glyph glyph-name="otilde" unicode="&#xf5;" horiz-adv-x="872" 
d="M436 -18q-162 0 -272.5 104.5t-110.5 263.5t110.5 264t272.5 105t272.5 -105t110.5 -264t-110.5 -263.5t-272.5 -104.5zM436 156q78 0 125 54t47 140t-47 140.5t-125 54.5t-125 -54.5t-47 -140.5t47 -140t125 -54zM534 786q-40 0 -74.5 14.5t-60.5 29t-45 14.5
q-20 0 -32 -12t-21 -44l-139 19q13 95 60.5 150t115.5 55q40 0 74.5 -14.5t60.5 -29t45 -14.5q20 0 32 12t21 44l139 -19q-13 -95 -60.5 -150t-115.5 -55z" />
    <glyph glyph-name="odieresis" unicode="&#xf6;" horiz-adv-x="872" 
d="M436 -18q-162 0 -272.5 104.5t-110.5 263.5t110.5 264t272.5 105t272.5 -105t110.5 -264t-110.5 -263.5t-272.5 -104.5zM436 156q78 0 125 54t47 140t-47 140.5t-125 54.5t-125 -54.5t-47 -140.5t47 -140t125 -54zM602 795q-46 0 -81.5 34t-35.5 82t36 82.5t81 34.5
q47 0 82 -34t35 -83t-35 -82.5t-82 -33.5zM270 795q-46 0 -81.5 34t-35.5 82t36 82.5t81 34.5q47 0 82 -34t35 -83t-35 -82.5t-82 -33.5z" />
    <glyph glyph-name="divide" unicode="&#xf7;" 
d="M217 305q-58 0 -100.5 41t-42.5 103t42.5 102.5t100.5 40.5t100.5 -40.5t42.5 -102.5t-42.5 -103t-100.5 -41z" />
    <glyph glyph-name="oslash" unicode="&#xf8;" horiz-adv-x="872" 
d="M106 156q-53 88 -53 194q0 159 110.5 264t272.5 105q135 0 240 -78l98 86l86 -98l-96 -82q55 -90 55 -197q0 -159 -110.5 -263.5t-272.5 -104.5q-135 0 -239 77l-99 -84l-86 99zM256 283l287 245q-41 27 -107 27q-87 0 -136.5 -57.5t-49.5 -147.5q0 -37 6 -67zM616 420
l-288 -248q49 -27 108 -27q87 0 137 57.5t50 147.5q0 30 -7 70z" />
    <glyph glyph-name="ugrave" unicode="&#xf9;" horiz-adv-x="845" 
d="M340 -18q-119 0 -191.5 78.5t-72.5 215.5v424h205v-409q0 -60 31.5 -92.5t93.5 -32.5q74 0 113.5 40.5t39.5 117.5v376h205v-700h-205v90q-64 -108 -219 -108zM346 791l-174 311h232l102 -311h-160z" />
    <glyph glyph-name="uacute" unicode="&#xfa;" horiz-adv-x="845" 
d="M340 -18q-119 0 -191.5 78.5t-72.5 215.5v424h205v-409q0 -60 31.5 -92.5t93.5 -32.5q74 0 113.5 40.5t39.5 117.5v376h205v-700h-205v90q-64 -108 -219 -108zM338 791l102 311h232l-174 -311h-160z" />
    <glyph glyph-name="ucircumflex" unicode="&#xfb;" horiz-adv-x="845" 
d="M340 -18q-119 0 -191.5 78.5t-72.5 215.5v424h205v-409q0 -60 31.5 -92.5t93.5 -32.5q74 0 113.5 40.5t39.5 117.5v376h205v-700h-205v90q-64 -108 -219 -108zM152 791l264 311h10l264 -311h-162l-106 88l-109 -88h-161z" />
    <glyph glyph-name="udieresis" unicode="&#xfc;" horiz-adv-x="845" 
d="M340 -18q-119 0 -191.5 78.5t-72.5 215.5v424h205v-409q0 -60 31.5 -92.5t93.5 -32.5q74 0 113.5 40.5t39.5 117.5v376h205v-700h-205v90q-64 -108 -219 -108zM588 795q-46 0 -81.5 34t-35.5 82t36 82.5t81 34.5q47 0 82 -34t35 -83t-35 -82.5t-82 -33.5zM256 795
q-46 0 -81.5 34t-35.5 82t36 82.5t81 34.5q47 0 82 -34t35 -83t-35 -82.5t-82 -33.5z" />
    <glyph glyph-name="yacute" unicode="&#xfd;" horiz-adv-x="776" 
d="M301 63l-295 637h230l167 -403l164 403h203l-473 -1134h-205zM311 791l102 311h232l-174 -311h-160z" />
    <glyph glyph-name="thorn" unicode="&#xfe;" horiz-adv-x="890" 
d="M86 -434v1888h205v-833q63 98 217 98q138 0 234 -105.5t96 -263.5t-96 -263t-234 -105q-154 0 -217 98v-514h-205zM455 162q78 0 125 51t47 137t-47 137.5t-125 51.5t-123 -51t-45 -138q0 -86 45 -137t123 -51z" />
    <glyph glyph-name="ydieresis" unicode="&#xff;" horiz-adv-x="776" 
d="M301 63l-295 637h230l167 -403l164 403h203l-473 -1134h-205zM557 795q-46 0 -81.5 34t-35.5 82t36 82.5t81 34.5q47 0 82 -34t35 -83t-35 -82.5t-82 -33.5zM225 795q-46 0 -81.5 34t-35.5 82t36 82.5t81 34.5q47 0 82 -34t35 -83t-35 -82.5t-82 -33.5z" />
    <glyph glyph-name="Amacron" unicode="&#x100;" horiz-adv-x="1320" 
d="M457 1528v155h405v-155h-405zM344 195l-80 -195h-221l610 1421h13l612 -1421h-231l-80 195h-623zM885 389q1 0 -56 137.5t-115 275.5l-57 138l-231 -551h459z" />
    <glyph glyph-name="amacron" unicode="&#x101;" horiz-adv-x="778" 
d="M193 836v155h405v-155h-405zM498 420q-3 127 -129 127q-102 0 -168 -76l-125 115q118 133 305 133q152 0 236.5 -78.5t84.5 -230.5v-410h-204v63q-69 -81 -197 -81q-114 0 -187 58t-73 175q0 99 76.5 152t197.5 53h183zM498 281h-172q-39 0 -60.5 -18.5t-21.5 -49.5
q0 -68 94 -68q68 0 114 31.5t46 75.5v29z" />
    <glyph glyph-name="Abreve" unicode="&#x102;" horiz-adv-x="1320" 
d="M659 1475q-107 0 -174.5 60t-85.5 155l164 24q20 -80 96 -80q77 0 97 80l164 -24q-18 -95 -85.5 -155t-175.5 -60zM344 195l-80 -195h-221l610 1421h13l612 -1421h-231l-80 195h-623zM885 389q1 0 -56 137.5t-115 275.5l-57 138l-231 -551h459z" />
    <glyph glyph-name="abreve" unicode="&#x103;" horiz-adv-x="778" 
d="M389 782q-107 0 -174.5 60t-85.5 155l164 25q20 -80 96 -80t96 80l164 -25q-18 -95 -85.5 -155t-174.5 -60zM498 420q-3 127 -129 127q-102 0 -168 -76l-125 115q118 133 305 133q152 0 236.5 -78.5t84.5 -230.5v-410h-204v63q-69 -81 -197 -81q-114 0 -187 58t-73 175
q0 99 76.5 152t197.5 53h183zM498 281h-172q-39 0 -60.5 -18.5t-21.5 -49.5q0 -68 94 -68q68 0 114 31.5t46 75.5v29z" />
    <glyph glyph-name="Aogonek" unicode="&#x104;" horiz-adv-x="1320" 
d="M967 195h-623l-80 -195h-221l610 1421h13l612 -1421h-35l-61 -100q-47 -77 -47 -131q0 -60 53 -60q49 0 76 51l98 -69q-62 -101 -186 -101q-75 0 -128 43t-53 117q0 77 66 172l53 78h-67zM426 389h459q1 0 -56 137.5t-115 275.5l-57 138z" />
    <glyph glyph-name="aogonek" unicode="&#x105;" horiz-adv-x="778" 
d="M498 420q-3 127 -129 127q-102 0 -168 -76l-125 115q118 133 305 133q152 0 236.5 -78.5t84.5 -230.5v-410h-22l-62 -100q-47 -77 -47 -131q0 -60 54 -60q48 0 75 51l99 -69q-62 -101 -187 -101q-75 0 -127.5 42.5t-52.5 117.5q0 77 66 172l53 78h-53v63
q-69 -81 -197 -81q-114 0 -187 58t-73 175q0 99 76.5 152t197.5 53h183zM498 281h-172q-39 0 -60.5 -18.5t-21.5 -49.5q0 -68 94 -68q68 0 114 31.5t46 75.5v29z" />
    <glyph glyph-name="Cacute" unicode="&#x106;" horiz-adv-x="1454" 
d="M705 1483l102 311h231l-174 -311h-159zM788 -18q-196 0 -357 92t-254 256t-93 366t94.5 366.5t257.5 256.5t359 92q365 0 557 -270l-168 -119q-71 96 -166 143t-230 47q-206 0 -341.5 -147t-135.5 -369q0 -225 137.5 -370.5t348.5 -145.5q261 0 417 203l170 -117
q-109 -145 -252.5 -214.5t-343.5 -69.5z" />
    <glyph glyph-name="cacute" unicode="&#x107;" horiz-adv-x="772" 
d="M330 791l102 311h232l-175 -311h-159zM426 -18q-160 0 -266.5 104.5t-106.5 263.5t106 264t263 105q188 0 293 -123l-135 -125q-63 70 -152 70q-75 0 -119.5 -54.5t-44.5 -136.5t45.5 -136t122.5 -54q91 0 160 73l135 -122q-55 -63 -126 -96t-175 -33z" />
    <glyph glyph-name="Ccircumflex" unicode="&#x108;" horiz-adv-x="1454" 
d="M500 1483l264 311h10l264 -311h-161l-107 88l-108 -88h-162zM788 -18q-196 0 -357 92t-254 256t-93 366t94.5 366.5t257.5 256.5t359 92q365 0 557 -270l-168 -119q-71 96 -166 143t-230 47q-206 0 -341.5 -147t-135.5 -369q0 -225 137.5 -370.5t348.5 -145.5
q261 0 417 203l170 -117q-109 -145 -252.5 -214.5t-343.5 -69.5z" />
    <glyph glyph-name="ccircumflex" unicode="&#x109;" horiz-adv-x="772" 
d="M139 791l264 311h11l264 -311h-162l-106 88l-109 -88h-162zM426 -18q-160 0 -266.5 104.5t-106.5 263.5t106 264t263 105q188 0 293 -123l-135 -125q-63 70 -158 70q-73 0 -115.5 -53.5t-42.5 -137.5t43 -137t119 -53q97 0 166 73l135 -122q-55 -63 -126 -96t-175 -33z
" />
    <glyph glyph-name="Ccaron" unicode="&#x10c;" horiz-adv-x="1454" 
d="M768 1483l-264 311h162l106 -88l109 88h161l-264 -311h-10zM788 -18q-196 0 -357 92t-254 256t-93 366t94.5 366.5t257.5 256.5t359 92q365 0 557 -270l-168 -119q-71 96 -166 143t-230 47q-206 0 -341.5 -147t-135.5 -369q0 -225 137.5 -370.5t348.5 -145.5
q261 0 417 203l170 -117q-109 -145 -252.5 -214.5t-343.5 -69.5z" />
    <glyph glyph-name="ccaron" unicode="&#x10d;" horiz-adv-x="772" 
d="M403 791l-264 311h162l107 -88l108 88h162l-264 -311h-11zM426 -18q-160 0 -266.5 104.5t-106.5 263.5t106 264t263 105q188 0 293 -123l-135 -125q-63 70 -152 70q-75 0 -119.5 -54.5t-44.5 -136.5t45.5 -136t122.5 -54q91 0 160 73l135 -122q-55 -63 -126 -96t-175 -33
z" />
    <glyph glyph-name="Dcaron" unicode="&#x10e;" horiz-adv-x="1361" 
d="M535 1483l-265 311h162l107 -88l108 88h162l-264 -311h-10zM152 0v1393h393q337 0 535 -192t198 -505q0 -154 -50.5 -282.5t-144 -220t-231.5 -142.5t-307 -51h-393zM371 195h161q260 0 389.5 135t129.5 366t-129.5 366.5t-389.5 135.5h-161v-1003z" />
    <glyph glyph-name="dcaron" unicode="&#x10f;" horiz-adv-x="1165" 
d="M911 958l70 189q-36 17 -61 50.5t-25 76.5q0 59 41 98t98 39q55 0 96 -39t41 -96q0 -67 -47 -143l-108 -175h-105zM383 -18q-138 0 -234 105t-96 263t96 263.5t234 105.5q154 0 217 -98v833h205v-1454h-205v80q-63 -98 -217 -98zM436 162q78 0 123 51t45 137
q0 87 -45 138t-123 51t-125 -51.5t-47 -137.5t47 -137t125 -51z" />
    <glyph glyph-name="Dcroat" unicode="&#x110;" horiz-adv-x="1361" 
d="M152 430h-129v191h129v772h393q337 0 535 -192t198 -505q0 -154 -50.5 -282.5t-144 -220t-231.5 -142.5t-307 -51h-393v430zM371 621h336v-191h-336v-235h161q260 0 389.5 135t129.5 366t-129.5 366.5t-389.5 135.5h-161v-577z" />
    <glyph glyph-name="dcroat" unicode="&#x111;" horiz-adv-x="911" 
d="M600 950h-170v170h170v334h205v-334h104v-170h-104v-950h-205v80q-63 -98 -217 -98q-138 0 -234 105t-96 263t96 263.5t234 105.5q154 0 217 -98v329zM436 162q78 0 123 51t45 137q0 87 -45 138t-123 51t-125 -51.5t-47 -137.5t47 -137t125 -51z" />
    <glyph glyph-name="Emacron" unicode="&#x112;" horiz-adv-x="1171" 
d="M403 1528v155h406v-155h-406zM152 0v1393h886v-195h-667v-577h592v-191h-592v-235h696v-195h-915z" />
    <glyph glyph-name="emacron" unicode="&#x113;" horiz-adv-x="851" 
d="M229 836v155h406v-155h-406zM266 281q33 -127 183 -127q103 0 182 67l123 -123q-107 -116 -301 -116q-181 0 -290.5 103t-109.5 265q0 159 109 264t270 105q180 0 280.5 -125t88.5 -313h-535zM268 424h318q-11 56 -50.5 89.5t-103.5 33.5q-63 0 -106 -31.5t-58 -91.5z
" />
    <glyph glyph-name="Edotaccent" unicode="&#x116;" horiz-adv-x="1171" 
d="M608 1487q-45 0 -80.5 34.5t-35.5 82.5t35.5 82t80.5 34q47 0 82 -33.5t35 -82.5t-35 -83t-82 -34zM152 0v1393h886v-195h-667v-577h592v-191h-592v-235h696v-195h-915z" />
    <glyph glyph-name="edotaccent" unicode="&#x117;" horiz-adv-x="851" 
d="M426 795q-46 0 -81.5 34t-35.5 82t36 82.5t81 34.5q47 0 82 -34t35 -83t-35 -82.5t-82 -33.5zM266 281q33 -127 183 -127q103 0 182 67l123 -123q-107 -116 -301 -116q-181 0 -290.5 103t-109.5 265q0 159 109 264t270 105q180 0 280.5 -125t88.5 -313h-535zM268 424h318
q-11 56 -50.5 89.5t-103.5 33.5q-63 0 -106 -31.5t-58 -91.5z" />
    <glyph glyph-name="Eogonek" unicode="&#x118;" horiz-adv-x="1171" 
d="M152 0v1393h886v-195h-667v-577h592v-191h-592v-235h696v-195h-78l-61 -100q-47 -77 -47 -131q0 -60 53 -60q49 0 76 51l98 -69q-62 -101 -186 -101q-75 0 -128 43t-53 117q0 77 66 172l53 78h-708z" />
    <glyph glyph-name="eogonek" unicode="&#x119;" horiz-adv-x="851" 
d="M485 -18l-51 -82q-47 -77 -47 -131q0 -60 53 -60q49 0 76 51l98 -69q-62 -101 -186 -101q-75 0 -127.5 42.5t-52.5 117.5q0 79 65 172q3 4 8 11t15 22t16.5 25t5.5 10q-140 26 -222.5 123.5t-82.5 236.5q0 159 109 264t270 105q180 0 280.5 -125t88.5 -313h-535
q33 -127 183 -127q103 0 182 67l123 -123q-102 -105 -269 -116zM268 424h318q-11 56 -50.5 89.5t-103.5 33.5q-63 0 -106 -31.5t-58 -91.5z" />
    <glyph glyph-name="Ecaron" unicode="&#x11a;" horiz-adv-x="1171" 
d="M598 1483l-264 311h162l106 -88l109 88h161l-264 -311h-10zM152 0v1393h886v-195h-667v-577h592v-191h-592v-235h696v-195h-915z" />
    <glyph glyph-name="ecaron" unicode="&#x11b;" horiz-adv-x="851" 
d="M422 791l-264 311h161l107 -88l109 88h161l-264 -311h-10zM266 281q33 -127 183 -127q103 0 182 67l123 -123q-107 -116 -301 -116q-181 0 -290.5 103t-109.5 265q0 159 109 264t270 105q180 0 280.5 -125t88.5 -313h-535zM268 424h318q-11 56 -50.5 89.5t-103.5 33.5
q-63 0 -106 -31.5t-58 -91.5z" />
    <glyph glyph-name="Gcircumflex" unicode="&#x11c;" horiz-adv-x="1480" 
d="M508 1483l264 311h10l265 -311h-162l-107 88l-108 -88h-162zM829 -18q-211 0 -381.5 92t-267 255.5t-96.5 366.5q0 202 95 366.5t259 256.5t361 92q182 0 308 -57.5t220 -163.5l-151 -143q-74 81 -158.5 123t-224.5 42q-211 0 -346.5 -146.5t-135.5 -369.5
q0 -225 142 -370.5t376 -145.5q205 0 338 88v158h-372v195h575v-457q-222 -182 -541 -182z" />
    <glyph glyph-name="gcircumflex" unicode="&#x11d;" horiz-adv-x="808" 
d="M133 791l264 311h11l264 -311h-162l-107 88l-108 -88h-162zM498 700h256v-155h-101q29 -56 29 -105q0 -121 -85 -199.5t-214 -78.5q-74 0 -137 26q-19 -19 -19 -45q0 -21 11.5 -32.5t52.5 -20t121 -12.5q190 -10 273 -76t83 -186q0 -124 -93.5 -198.5t-279.5 -74.5
q-183 0 -284 68t-101 180q0 135 137 182q-43 20 -66.5 59.5t-23.5 86.5q0 97 97 143q-70 77 -70 178q0 121 85 200t214 79q63 0 115 -19zM383 324q55 0 88 31.5t33 84.5t-33 85t-88 32t-88 -32t-33 -85t33 -84.5t88 -31.5zM395 -283q170 0 170 93q0 44 -43.5 65t-159.5 21
q-81 0 -121 -19.5t-40 -66.5q0 -43 50 -68t144 -25z" />
    <glyph glyph-name="Gbreve" unicode="&#x11e;" horiz-adv-x="1480" 
d="M780 1475q-107 0 -174.5 60t-85.5 155l164 24q20 -80 96 -80q77 0 97 80l163 -24q-18 -95 -85.5 -155t-174.5 -60zM829 -18q-211 0 -381.5 92t-267 255.5t-96.5 366.5q0 202 95 366.5t259 256.5t361 92q182 0 308 -57.5t220 -163.5l-151 -143q-74 81 -158.5 123
t-224.5 42q-211 0 -346.5 -146.5t-135.5 -369.5q0 -225 142 -370.5t376 -145.5q205 0 338 88v158h-372v195h575v-457q-222 -182 -541 -182z" />
    <glyph glyph-name="gbreve" unicode="&#x11f;" horiz-adv-x="808" 
d="M397 782q-107 0 -174.5 60t-85.5 155l164 25q20 -80 96 -80q77 0 97 80l163 -25q-18 -95 -85.5 -155t-174.5 -60zM498 700h256v-155h-101q29 -56 29 -105q0 -121 -85 -199.5t-214 -78.5q-74 0 -137 26q-19 -19 -19 -45q0 -21 11.5 -32.5t52.5 -20t121 -12.5
q190 -10 273 -76t83 -186q0 -124 -93.5 -198.5t-279.5 -74.5q-183 0 -284 68t-101 180q0 135 137 182q-43 20 -66.5 59.5t-23.5 86.5q0 97 97 143q-70 77 -70 178q0 121 85 200t214 79q63 0 115 -19zM383 324q55 0 88 31.5t33 84.5t-33 85t-88 32t-88 -32t-33 -85t33 -84.5
t88 -31.5zM395 -283q170 0 170 93q0 44 -43.5 65t-159.5 21q-81 0 -121 -19.5t-40 -66.5q0 -43 50 -68t144 -25z" />
    <glyph glyph-name="Gcommaaccent" unicode="&#x122;" horiz-adv-x="1480" 
d="M829 -18q-211 0 -381.5 92t-267 255.5t-96.5 366.5q0 202 95 366.5t259 256.5t361 92q182 0 308 -57.5t220 -163.5l-151 -143q-74 81 -158.5 123t-224.5 42q-211 0 -346.5 -146.5t-135.5 -369.5q0 -225 142 -370.5t376 -145.5q205 0 338 88v158h-372v195h575v-457
q-222 -182 -541 -182zM690 -514l68 188q-33 15 -53.5 48t-20.5 73q0 57 39.5 96t93.5 39q55 0 95 -39t40 -96q0 -23 -7.5 -47t-16 -39.5t-25.5 -44.5l-106 -178h-107z" />
    <glyph glyph-name="gcommaaccent" unicode="&#x123;" horiz-adv-x="808" 
d="M403 795q-55 0 -96 39t-41 96q0 67 47 143l109 174h104l-69 -188q36 -17 61 -50.5t25 -76.5q0 -59 -41.5 -98t-98.5 -39zM498 700h256v-155h-101q29 -56 29 -105q0 -121 -85 -199.5t-214 -78.5q-74 0 -137 26q-19 -19 -19 -45q0 -21 11.5 -32.5t52.5 -20t121 -12.5
q190 -10 273 -76t83 -186q0 -124 -93.5 -198.5t-279.5 -74.5q-183 0 -284 68t-101 180q0 135 137 182q-43 20 -66.5 59.5t-23.5 86.5q0 97 97 143q-70 77 -70 178q0 121 85 200t214 79q63 0 115 -19zM383 324q55 0 88 31.5t33 84.5t-33 85t-88 32t-88 -32t-33 -85t33 -84.5
t88 -31.5zM395 -283q170 0 170 93q0 44 -43.5 65t-159.5 21q-81 0 -121 -19.5t-40 -66.5q0 -43 50 -68t144 -25z" />
    <glyph glyph-name="Hcircumflex" unicode="&#x124;" horiz-adv-x="1409" 
d="M434 1483l264 311h11l264 -311h-162l-106 88l-109 -88h-162zM1038 621v772h219v-1393h-219v426h-667v-426h-219v1393h219v-772h667z" />
    <glyph glyph-name="hcircumflex" unicode="&#x125;" horiz-adv-x="845" 
d="M129 1524l264 311h10l265 -311h-162l-107 88l-108 -88h-162zM82 0v1454h205v-844q66 109 219 109q119 0 191.5 -79t72.5 -216v-424h-205v410q0 60 -31.5 92.5t-93.5 32.5q-74 0 -113.5 -40.5t-39.5 -117.5v-377h-205z" />
    <glyph glyph-name="Imacron" unicode="&#x12a;" horiz-adv-x="534" 
d="M63 1528v155h406v-155h-406zM158 0v1393h219v-1393h-219z" />
    <glyph glyph-name="imacron" unicode="&#x12b;" horiz-adv-x="376" 
d="M-14 836v155h405v-155h-405zM86 0v700h205v-700h-205z" />
    <glyph glyph-name="Iogonek" unicode="&#x12e;" horiz-adv-x="534" 
d="M158 0v1393h219v-1393h-37l-61 -100q-48 -79 -48 -131q0 -60 54 -60q48 0 75 51l99 -69q-62 -101 -187 -101q-75 0 -127.5 42.5t-52.5 117.5q0 77 66 172l53 78h-53z" />
    <glyph glyph-name="iogonek" unicode="&#x12f;" horiz-adv-x="376" 
d="M188 893q-52 0 -90.5 37.5t-38.5 91.5t38.5 91.5t90.5 37.5q53 0 91 -37t38 -92t-38 -92t-91 -37zM86 0v700h205v-700h-29l-61 -100q-47 -77 -47 -131q0 -60 53 -60q49 0 76 51l98 -69q-62 -101 -186 -101q-75 0 -128 43t-53 117q0 77 66 172l53 78h-47z" />
    <glyph glyph-name="Idotaccent" unicode="&#x130;" horiz-adv-x="534" 
d="M266 1487q-45 0 -80.5 34.5t-35.5 82.5t35.5 82t80.5 34q47 0 82 -33.5t35 -82.5t-35 -83t-82 -34zM158 0v1393h219v-1393h-219z" />
    <glyph glyph-name="dotlessi" unicode="&#x131;" horiz-adv-x="376" 
d="M86 0v700h205v-700h-205z" />
    <glyph glyph-name="Jcircumflex" unicode="&#x134;" horiz-adv-x="972" 
d="M436 1483l264 311h11l264 -311h-162l-106 88l-109 -88h-162zM434 -18q-280 0 -403 237l180 111q42 -76 88.5 -113t126.5 -37q87 0 134.5 49t47.5 166v998h221v-1002q0 -200 -108 -304.5t-287 -104.5z" />
    <glyph glyph-name="jcircumflex" unicode="&#x135;" horiz-adv-x="376" 
d="M-82 791l264 311h11l264 -311h-162l-107 88l-108 -88h-162zM66 -455q-124 0 -195 78l100 125q31 -27 60 -27q55 0 55 64v915h205v-909q0 -118 -58.5 -182t-166.5 -64z" />
    <glyph glyph-name="Kcommaaccent" unicode="&#x136;" horiz-adv-x="1261" 
d="M371 702l542 691h248l-493 -625l567 -768h-266l-445 602l-153 -188v-414h-219v1393h219v-691zM522 -514l68 188q-33 15 -53.5 48t-20.5 73q0 57 39.5 96t93.5 39q55 0 95 -39t40 -96q0 -23 -7.5 -47t-16 -39.5t-25.5 -44.5l-106 -178h-107z" />
    <glyph glyph-name="kcommaaccent" unicode="&#x137;" horiz-adv-x="796" 
d="M287 168v-168h-205v1454h205v-1026l229 272h238l-250 -286l278 -414h-243l-172 258zM283 -514l67 188q-33 15 -53.5 48t-20.5 73q0 57 40 96t94 39q55 0 95 -39t40 -96q0 -23 -7.5 -47t-16 -39.5t-25.5 -44.5l-107 -178h-106z" />
    <glyph glyph-name="Lacute" unicode="&#x139;" horiz-adv-x="1054" 
d="M174 1483l102 311h232l-174 -311h-160zM152 0v1393h219v-1198h614v-195h-833z" />
    <glyph glyph-name="lacute" unicode="&#x13a;" horiz-adv-x="376" 
d="M104 1524l103 311h231l-174 -311h-160zM86 0v1454h205v-1454h-205z" />
    <glyph glyph-name="Lcommaaccent" unicode="&#x13b;" horiz-adv-x="1054" 
d="M152 0v1393h219v-1198h614v-195h-833zM426 -514l68 188q-33 15 -53.5 48t-20.5 73q0 57 39.5 96t93.5 39q55 0 95 -39t40 -96q0 -23 -7.5 -47t-16 -39.5t-25.5 -44.5l-107 -178h-106z" />
    <glyph glyph-name="lcommaaccent" unicode="&#x13c;" horiz-adv-x="376" 
d="M86 0v1454h205v-1454h-205zM59 -514l68 188q-33 15 -53.5 48t-20.5 73q0 57 39.5 96t93.5 39q55 0 95.5 -39t40.5 -96q0 -23 -8 -47.5t-16 -39t-26 -44.5l-106 -178h-107z" />
    <glyph glyph-name="Lcaron" unicode="&#x13d;" horiz-adv-x="1054" 
d="M586 958l69 189q-36 17 -61 50.5t-25 76.5q0 59 41.5 98t98.5 39q55 0 96 -39t41 -96q0 -67 -47 -143l-109 -175h-104zM152 0v1393h219v-1198h614v-195h-833z" />
    <glyph glyph-name="lcaron" unicode="&#x13e;" horiz-adv-x="643" 
d="M389 958l70 189q-36 17 -61 50.5t-25 76.5q0 59 41 98t98 39q55 0 96 -39t41 -96q0 -67 -47 -143l-108 -175h-105zM86 0v1454h205v-1454h-205z" />
    <glyph glyph-name="Lslash" unicode="&#x141;" horiz-adv-x="1054" 
d="M371 426v-231h614v-195h-833v354l-129 -43v183l129 43v856h219v-785l395 131v-182z" />
    <glyph glyph-name="lslash" unicode="&#x142;" horiz-adv-x="425" 
d="M315 451v-451h-204v334l-93 -51v184q6 3 15.5 8.5t30 17t34 19t13.5 6.5v936h204v-819l101 57v-184z" />
    <glyph glyph-name="Nacute" unicode="&#x143;" horiz-adv-x="1415" 
d="M598 1483l102 311h232l-174 -311h-160zM1249 -20l-893 935v-915h-204v1413h16l893 -936v916h205v-1413h-17z" />
    <glyph glyph-name="nacute" unicode="&#x144;" horiz-adv-x="839" 
d="M338 791l102 311h232l-174 -311h-160zM82 0v700h205v-90q65 109 219 109q119 0 191.5 -79t72.5 -216v-424h-205v410q0 60 -31.5 92.5t-93.5 32.5q-74 0 -113.5 -40.5t-39.5 -117.5v-377h-205z" />
    <glyph glyph-name="Ncommaaccent" unicode="&#x145;" horiz-adv-x="1415" 
d="M1249 -20l-893 935v-915h-204v1413h16l893 -936v916h205v-1413h-17zM586 -514l67 188q-33 15 -53 47.5t-20 73.5q0 57 39.5 96t93.5 39q55 0 95 -39t40 -96q0 -23 -7.5 -47t-16 -39.5t-25.5 -44.5l-107 -178h-106z" />
    <glyph glyph-name="ncommaaccent" unicode="&#x146;" horiz-adv-x="839" 
d="M82 0v700h205v-90q65 109 219 109q119 0 191.5 -79t72.5 -216v-424h-205v410q0 60 -31.5 92.5t-93.5 32.5q-74 0 -113.5 -40.5t-39.5 -117.5v-377h-205zM299 -514l68 188q-33 15 -53.5 48t-20.5 73q0 57 39.5 96t93.5 39q55 0 95 -39t40 -96q0 -23 -7.5 -47t-16 -39.5
t-25.5 -44.5l-106 -178h-107z" />
    <glyph glyph-name="Ncaron" unicode="&#x147;" horiz-adv-x="1415" 
d="M698 1483l-264 311h162l106 -88l109 88h162l-264 -311h-11zM1249 -20l-893 935v-915h-204v1413h16l893 -936v916h205v-1413h-17z" />
    <glyph glyph-name="ncaron" unicode="&#x148;" horiz-adv-x="839" 
d="M412 791l-265 311h162l107 -88l108 88h162l-264 -311h-10zM82 0v700h205v-90q65 109 219 109q119 0 191.5 -79t72.5 -216v-424h-205v410q0 60 -31.5 92.5t-93.5 32.5q-74 0 -113.5 -40.5t-39.5 -117.5v-377h-205z" />
    <glyph glyph-name="Omacron" unicode="&#x14c;" horiz-adv-x="1605" 
d="M600 1528v155h406v-155h-406zM803 -18q-148 0 -280.5 54t-229 148t-153 227t-56.5 285t56.5 285.5t153 227t229 148t280.5 54.5t280.5 -54.5t229 -148t153 -227t56.5 -285.5t-56.5 -285t-153 -227t-229 -148t-280.5 -54zM803 180q215 0 353 146.5t138 369.5t-138 369.5
t-353 146.5t-353.5 -146.5t-138.5 -369.5t138.5 -369.5t353.5 -146.5z" />
    <glyph glyph-name="omacron" unicode="&#x14d;" horiz-adv-x="872" 
d="M233 836v155h406v-155h-406zM436 -18q-162 0 -272.5 104.5t-110.5 263.5t110.5 264t272.5 105t272.5 -105t110.5 -264t-110.5 -263.5t-272.5 -104.5zM436 156q78 0 125 54t47 140t-47 140.5t-125 54.5t-125 -54.5t-47 -140.5t47 -140t125 -54z" />
    <glyph glyph-name="Ohungarumlaut" unicode="&#x150;" horiz-adv-x="1605" 
d="M870 1483l93 311h206l-139 -311h-160zM584 1483l92 311h207l-140 -311h-159zM803 -18q-148 0 -280.5 54t-229 148t-153 227t-56.5 285t56.5 285.5t153 227t229 148t280.5 54.5t280.5 -54.5t229 -148t153 -227t56.5 -285.5t-56.5 -285t-153 -227t-229 -148t-280.5 -54z
M803 180q215 0 353 146.5t138 369.5t-138 369.5t-353 146.5t-353.5 -146.5t-138.5 -369.5t138.5 -369.5t353.5 -146.5z" />
    <glyph glyph-name="ohungarumlaut" unicode="&#x151;" horiz-adv-x="872" 
d="M498 791l92 311h207l-140 -311h-159zM211 791l92 311h207l-139 -311h-160zM436 -18q-162 0 -272.5 104.5t-110.5 263.5t110.5 264t272.5 105t272.5 -105t110.5 -264t-110.5 -263.5t-272.5 -104.5zM436 156q78 0 125 54t47 140t-47 140.5t-125 54.5t-125 -54.5t-47 -140.5
t47 -140t125 -54z" />
    <glyph glyph-name="OE" unicode="&#x152;" horiz-adv-x="1980" 
d="M817 0q-168 0 -306 51t-231.5 142.5t-144.5 220t-51 282.5t50.5 282.5t144 220.5t231.5 143t307 51h1030v-195h-667v-580h592v-190h-592v-233h696v-195h-1059zM829 195h132v1003h-132q-260 0 -389 -135t-129 -367q0 -231 129 -366t389 -135z" />
    <glyph glyph-name="oe" unicode="&#x153;" horiz-adv-x="1411" 
d="M713 106q-97 -124 -277 -124q-162 0 -272.5 104.5t-110.5 263.5t110.5 264t272.5 105q180 0 277 -127q100 127 278 127q181 0 281 -126.5t88 -318.5h-533q37 -120 181 -120q103 0 182 67l123 -123q-107 -116 -301 -116q-199 0 -299 124zM825 418h320q-11 60 -50.5 94.5
t-103.5 34.5t-107.5 -33.5t-58.5 -95.5zM436 156q78 0 125 54t47 140t-47 140.5t-125 54.5t-125 -54.5t-47 -140.5t47 -140t125 -54z" />
    <glyph glyph-name="Racute" unicode="&#x154;" horiz-adv-x="1200" 
d="M455 1483l102 311h231l-174 -311h-159zM823 395l283 -395h-260l-238 338q-47 -6 -100 -6h-137v-332h-219v1393h356q283 0 438.5 -144t155.5 -389q0 -162 -71.5 -282t-207.5 -183zM371 520h129q377 0 377 340q0 338 -377 338h-129v-678z" />
    <glyph glyph-name="racute" unicode="&#x155;" horiz-adv-x="618" 
d="M221 791l103 311h231l-174 -311h-160zM82 0v700h205v-108q62 127 200 127q59 0 111 -31l-66 -176q-44 23 -88 23q-157 0 -157 -205v-330h-205z" />
    <glyph glyph-name="Rcommaaccent" unicode="&#x156;" horiz-adv-x="1200" 
d="M823 395l283 -395h-260l-238 338q-47 -6 -100 -6h-137v-332h-219v1393h356q283 0 438.5 -144t155.5 -389q0 -162 -71.5 -282t-207.5 -183zM473 -514l68 188q-33 15 -53.5 48t-20.5 73q0 57 39.5 96t93.5 39q55 0 95 -39t40 -96q0 -23 -7.5 -47t-16 -39.5t-25.5 -44.5
l-106 -178h-107zM371 520h129q377 0 377 340q0 338 -377 338h-129v-678z" />
    <glyph glyph-name="rcommaaccent" unicode="&#x157;" horiz-adv-x="618" 
d="M82 0v700h205v-108q62 127 200 127q59 0 111 -31l-66 -176q-44 23 -88 23q-157 0 -157 -205v-330h-205zM57 -514l68 188q-33 15 -53.5 48t-20.5 73q0 57 39.5 96t93.5 39q55 0 95 -39t40 -96q0 -23 -7.5 -47t-16 -39.5t-25.5 -44.5l-106 -178h-107z" />
    <glyph glyph-name="Rcaron" unicode="&#x158;" horiz-adv-x="1200" 
d="M553 1483l-264 311h162l106 -88l109 88h161l-264 -311h-10zM823 395l283 -395h-260l-238 338q-47 -6 -100 -6h-137v-332h-219v1393h356q283 0 438.5 -144t155.5 -389q0 -162 -71.5 -282t-207.5 -183zM371 520h129q377 0 377 340q0 338 -377 338h-129v-678z" />
    <glyph glyph-name="rcaron" unicode="&#x159;" horiz-adv-x="618" 
d="M332 791l-264 311h161l107 -88l108 88h162l-264 -311h-10zM82 0v700h205v-108q62 127 200 127q59 0 111 -31l-66 -176q-44 23 -88 23q-157 0 -157 -205v-330h-205z" />
    <glyph glyph-name="Sacute" unicode="&#x15a;" horiz-adv-x="1087" 
d="M440 1483l103 311h231l-174 -311h-160zM45 274l184 93q97 -189 316 -189q111 0 178.5 49t67.5 133q0 38 -12.5 69.5t-29 52.5t-50.5 43t-58.5 34t-71.5 33l-96 43q-83 36 -141.5 73t-106.5 86t-72 112.5t-24 142.5q0 160 107.5 261t279.5 101q266 0 397 -219l-165 -109
q-80 136 -228 136q-83 0 -130.5 -44.5t-47.5 -117.5q0 -41 12 -71t42 -56t66 -46t99 -48l96 -43q70 -31 118.5 -58t95.5 -64.5t75 -79t45 -98.5t17 -126q0 -186 -127.5 -285.5t-333.5 -99.5q-173 0 -301 77.5t-201 214.5z" />
    <glyph glyph-name="sacute" unicode="&#x15b;" horiz-adv-x="669" 
d="M233 791l103 311h231l-174 -311h-160zM332 147q102 0 102 52q0 25 -25 39t-110 32q-231 49 -231 228q0 99 70 160t188 61q148 0 258 -96l-109 -125q-57 57 -143 57q-38 0 -59 -14t-21 -35q0 -26 27.5 -39.5t115.5 -30.5q234 -46 234 -223q0 -108 -75.5 -169.5
t-217.5 -61.5q-89 0 -171.5 35.5t-144.5 103.5l130 115q74 -89 182 -89z" />
    <glyph glyph-name="Scircumflex" unicode="&#x15c;" horiz-adv-x="1087" 
d="M254 1483l264 311h10l265 -311h-162l-107 88l-108 -88h-162zM45 274l184 93q97 -189 316 -189q111 0 178.5 49t67.5 133q0 38 -12.5 69.5t-29 52.5t-50.5 43t-58.5 34t-71.5 33l-96 43q-83 36 -141.5 73t-106.5 86t-72 112.5t-24 142.5q0 160 107.5 261t279.5 101
q266 0 397 -219l-165 -109q-80 136 -228 136q-83 0 -130.5 -44.5t-47.5 -117.5q0 -41 12 -71t42 -56t66 -46t99 -48l96 -43q70 -31 118.5 -58t95.5 -64.5t75 -79t45 -98.5t17 -126q0 -186 -127.5 -285.5t-333.5 -99.5q-173 0 -301 77.5t-201 214.5z" />
    <glyph glyph-name="scircumflex" unicode="&#x15d;" horiz-adv-x="669" 
d="M63 791l265 311h10l264 -311h-162l-106 88l-109 -88h-162zM336 -18q-89 0 -171.5 35.5t-144.5 103.5l130 115q74 -89 182 -89q102 0 102 52q0 25 -25 39t-110 32q-231 49 -231 228q0 99 70 160t188 61q148 0 258 -96l-109 -125q-57 57 -143 57q-38 0 -59 -14t-21 -35
q0 -26 27.5 -39.5t115.5 -30.5q234 -46 234 -223q0 -108 -75.5 -169.5t-217.5 -61.5z" />
    <glyph glyph-name="Scaron" unicode="&#x160;" horiz-adv-x="1087" 
d="M45 274l184 93q97 -189 316 -189q111 0 178.5 49t67.5 133q0 38 -12.5 69.5t-29 52.5t-50.5 43t-58.5 34t-71.5 33l-96 43q-83 36 -141.5 73t-106.5 86t-72 112.5t-24 142.5q0 160 107.5 261t279.5 101q266 0 397 -219l-165 -109q-80 136 -228 136q-83 0 -130.5 -44.5
t-47.5 -117.5q0 -41 12 -71t42 -56t66 -46t99 -48l96 -43q70 -31 118.5 -58t95.5 -64.5t75 -79t45 -98.5t17 -126q0 -186 -127.5 -285.5t-333.5 -99.5q-173 0 -301 77.5t-201 214.5zM504 1483l-264 311h162l106 -88l109 88h161l-264 -311h-10z" />
    <glyph glyph-name="scaron" unicode="&#x161;" horiz-adv-x="669" 
d="M336 -18q-89 0 -171.5 35.5t-144.5 103.5l130 115q74 -89 182 -89q102 0 102 52q0 25 -25 39t-110 32q-231 49 -231 228q0 99 70 160t188 61q148 0 258 -96l-109 -125q-57 57 -143 57q-38 0 -59 -14t-21 -35q0 -26 27.5 -39.5t115.5 -30.5q234 -46 234 -223
q0 -108 -75.5 -169.5t-217.5 -61.5zM318 791l-264 311h162l106 -88l109 88h161l-264 -311h-10z" />
    <glyph glyph-name="Tcommaaccent" unicode="&#x162;" horiz-adv-x="1144" 
d="M463 0v1198h-414v195h1047v-195h-414v-1198h-219zM442 -514l68 188q-33 15 -53.5 48t-20.5 73q0 57 39.5 96t93.5 39q55 0 95.5 -39t40.5 -96q0 -23 -8 -47.5t-16 -39t-26 -44.5l-106 -178h-107z" />
    <glyph glyph-name="Tcommaaccent" unicode="&#x21a;" horiz-adv-x="1144" 
d="M463 0v1198h-414v195h1047v-195h-414v-1198h-219zM442 -514l68 188q-33 15 -53.5 48t-20.5 73q0 57 39.5 96t93.5 39q55 0 95.5 -39t40.5 -96q0 -23 -8 -47.5t-16 -39t-26 -44.5l-106 -178h-107z" />
    <glyph glyph-name="tcommaaccent" unicode="&#x163;" horiz-adv-x="548" 
d="M121 530h-82v170h82v457h205v-457h163v-170h-163v-284q0 -51 14.5 -69.5t44.5 -18.5q29 0 61 24l80 -143q-69 -57 -176 -57q-229 0 -229 260v288zM178 -514l68 188q-33 15 -53.5 48t-20.5 73q0 57 39.5 96t93.5 39q55 0 95 -39t40 -96q0 -23 -7.5 -47t-16 -39.5
t-25.5 -44.5l-106 -178h-107z" />
    <glyph glyph-name="tcommaaccent" unicode="&#x21b;" horiz-adv-x="548" 
d="M121 530h-82v170h82v457h205v-457h163v-170h-163v-284q0 -51 14.5 -69.5t44.5 -18.5q29 0 61 24l80 -143q-69 -57 -176 -57q-229 0 -229 260v288zM178 -514l68 188q-33 15 -53.5 48t-20.5 73q0 57 39.5 96t93.5 39q55 0 95 -39t40 -96q0 -23 -7.5 -47t-16 -39.5
t-25.5 -44.5l-106 -178h-107z" />
    <glyph glyph-name="Tcaron" unicode="&#x164;" horiz-adv-x="1144" 
d="M567 1483l-264 311h162l106 -88l109 88h162l-264 -311h-11zM463 0v1198h-414v195h1047v-195h-414v-1198h-219z" />
    <glyph glyph-name="tcaron" unicode="&#x165;" horiz-adv-x="684" 
d="M430 958l70 189q-36 17 -61 50.5t-25 76.5q0 59 41 98t98 39q55 0 96 -39t41 -96q0 -67 -47 -143l-108 -175h-105zM121 530h-82v170h82v457h205v-457h163v-170h-163v-284q0 -51 14.5 -69.5t44.5 -18.5q29 0 61 24l80 -143q-69 -57 -176 -57q-229 0 -229 260v288z" />
    <glyph glyph-name="Umacron" unicode="&#x16a;" horiz-adv-x="1349" 
d="M471 1528v155h406v-155h-406zM676 -18q-115 0 -211.5 32.5t-168.5 94.5t-112.5 160t-40.5 223v901h219v-889q0 -324 314 -324q311 0 311 324v889h219v-901q0 -165 -70.5 -282t-188.5 -172.5t-271 -55.5z" />
    <glyph glyph-name="umacron" unicode="&#x16b;" horiz-adv-x="845" 
d="M213 836v155h405v-155h-405zM340 -18q-119 0 -191.5 78.5t-72.5 215.5v424h205v-409q0 -60 31.5 -92.5t93.5 -32.5q74 0 113.5 40.5t39.5 117.5v376h205v-700h-205v90q-64 -108 -219 -108z" />
    <glyph glyph-name="Ubreve" unicode="&#x16c;" horiz-adv-x="1349" 
d="M674 1475q-107 0 -174.5 60t-85.5 155l164 24q20 -80 96 -80t96 80l164 -24q-18 -95 -85.5 -155t-174.5 -60zM676 -18q-115 0 -211.5 32.5t-168.5 94.5t-112.5 160t-40.5 223v901h219v-889q0 -324 314 -324q311 0 311 324v889h219v-901q0 -165 -70.5 -282t-188.5 -172.5
t-271 -55.5z" />
    <glyph glyph-name="ubreve" unicode="&#x16d;" horiz-adv-x="845" 
d="M420 782q-107 0 -174.5 60t-85.5 155l164 25q20 -80 96 -80t96 80l164 -25q-18 -95 -85.5 -155t-174.5 -60zM340 -18q-119 0 -191.5 78.5t-72.5 215.5v424h205v-409q0 -60 31.5 -92.5t93.5 -32.5q74 0 113.5 40.5t39.5 117.5v376h205v-700h-205v90q-64 -108 -219 -108z
" />
    <glyph glyph-name="Uring" unicode="&#x16e;" horiz-adv-x="1349" 
d="M674 1468q-78 0 -136.5 55t-58.5 128q0 75 58.5 129.5t136.5 54.5t136 -54.5t58 -129.5q0 -74 -58 -128.5t-136 -54.5zM676 -18q-115 0 -211.5 32.5t-168.5 94.5t-112.5 160t-40.5 223v901h219v-889q0 -324 314 -324q311 0 311 324v889h219v-901q0 -165 -70.5 -282
t-188.5 -172.5t-271 -55.5zM674 1579q30 0 48.5 19.5t18.5 52.5t-18.5 53t-48.5 20t-49 -20t-19 -53t19 -52.5t49 -19.5z" />
    <glyph glyph-name="uring" unicode="&#x16f;" horiz-adv-x="845" 
d="M416 776q-78 0 -136.5 54.5t-58.5 127.5q0 75 58.5 130t136.5 55t136 -55t58 -130q0 -73 -58 -127.5t-136 -54.5zM340 -18q-119 0 -191.5 78.5t-72.5 215.5v424h205v-409q0 -60 31.5 -92.5t93.5 -32.5q74 0 113.5 40.5t39.5 117.5v376h205v-700h-205v90
q-64 -108 -219 -108zM416 887q30 0 48.5 19t18.5 52t-18.5 53.5t-48.5 20.5t-49 -20.5t-19 -53.5t19 -52t49 -19z" />
    <glyph glyph-name="Uhungarumlaut" unicode="&#x170;" horiz-adv-x="1349" 
d="M741 1483l93 311h206l-139 -311h-160zM455 1483l92 311h207l-140 -311h-159zM676 -18q-115 0 -211.5 32.5t-168.5 94.5t-112.5 160t-40.5 223v901h219v-889q0 -324 314 -324q311 0 311 324v889h219v-901q0 -165 -70.5 -282t-188.5 -172.5t-271 -55.5z" />
    <glyph glyph-name="uhungarumlaut" unicode="&#x171;" horiz-adv-x="845" 
d="M475 791l92 311h207l-139 -311h-160zM188 791l93 311h206l-139 -311h-160zM340 -18q-119 0 -191.5 78.5t-72.5 215.5v424h205v-409q0 -60 31.5 -92.5t93.5 -32.5q74 0 113.5 40.5t39.5 117.5v376h205v-700h-205v90q-64 -108 -219 -108z" />
    <glyph glyph-name="Uogonek" unicode="&#x172;" horiz-adv-x="1349" 
d="M616 -16q-212 16 -342.5 147t-130.5 361v901h219v-889q0 -324 314 -324q311 0 311 324v889h219v-901q0 -227 -126.5 -356.5t-334.5 -149.5l-51 -86q-47 -77 -47 -131q0 -60 53 -60q49 0 76 51l98 -69q-62 -101 -186 -101q-75 0 -127.5 42.5t-52.5 117.5q0 79 65 172z" />
    <glyph glyph-name="uogonek" unicode="&#x173;" horiz-adv-x="845" 
d="M559 0v90q-64 -108 -219 -108q-119 0 -191.5 78.5t-72.5 215.5v424h205v-409q0 -60 31.5 -92.5t93.5 -32.5q74 0 113.5 40.5t39.5 117.5v376h205v-700h-23l-61 -100q-47 -77 -47 -131q0 -60 53 -60q49 0 76 51l98 -69q-62 -101 -186 -101q-75 0 -127.5 42.5t-52.5 117.5
q0 79 65 172l53 78h-53z" />
    <glyph glyph-name="Ydieresis" unicode="&#x178;" horiz-adv-x="1339" 
d="M836 1487q-45 0 -81 34.5t-36 82.5t35.5 82t81.5 34q47 0 81.5 -33.5t34.5 -82.5t-34.5 -83t-81.5 -34zM504 1487q-45 0 -81 34.5t-36 82.5t35.5 82t81.5 34q47 0 82 -33.5t35 -82.5t-35 -83t-82 -34zM567 442l-524 951h242l395 -727l389 727h229l-512 -949v-444h-219
v442z" />
    <glyph glyph-name="Zacute" unicode="&#x179;" horiz-adv-x="1224" 
d="M553 1483l102 311h232l-174 -311h-160zM59 0v12l736 1186h-623v195h975v-13l-735 -1185h712v-195h-1065z" />
    <glyph glyph-name="zacute" unicode="&#x17a;" horiz-adv-x="708" 
d="M272 791l103 311h231l-174 -311h-160zM31 0v8l325 522h-278v170h592v-8l-324 -522h305v-170h-620z" />
    <glyph glyph-name="Zdotaccent" unicode="&#x17b;" horiz-adv-x="1224" 
d="M643 1487q-45 0 -81 34.5t-36 82.5t35.5 82t81.5 34q47 0 82 -33.5t35 -82.5t-35 -83t-82 -34zM59 0v12l736 1186h-623v195h975v-13l-735 -1185h712v-195h-1065z" />
    <glyph glyph-name="zdotaccent" unicode="&#x17c;" horiz-adv-x="708" 
d="M362 795q-45 0 -80.5 34t-35.5 82t35.5 82.5t80.5 34.5q47 0 82 -34t35 -83t-35 -82.5t-82 -33.5zM31 0v8l325 522h-278v170h592v-8l-324 -522h305v-170h-620z" />
    <glyph glyph-name="Zcaron" unicode="&#x17d;" horiz-adv-x="1224" 
d="M59 0v12l736 1186h-623v195h975v-13l-735 -1185h712v-195h-1065zM641 1483l-264 311h162l106 -88l109 88h161l-264 -311h-10z" />
    <glyph glyph-name="zcaron" unicode="&#x17e;" horiz-adv-x="708" 
d="M31 0v8l325 522h-278v170h592v-8l-324 -522h305v-170h-620zM352 791l-264 311h162l106 -88l109 88h161l-264 -311h-10z" />
    <glyph glyph-name="florin" unicode="&#x192;" horiz-adv-x="688" 
d="M152 410h-82v170h102l29 256q15 133 79.5 199.5t172.5 66.5q78 0 124 -23.5t87 -72.5l-121 -127q-29 43 -70 43q-28 0 -44.5 -18.5t-22.5 -65.5l-29 -258h147v-170h-168l-96 -844h-205z" />
    <glyph glyph-name="Scommaaccent" unicode="&#x218;" horiz-adv-x="1087" 
d="M45 274l184 93q97 -189 316 -189q111 0 178.5 49t67.5 133q0 38 -12.5 69.5t-29 52.5t-50.5 43t-58.5 34t-71.5 33l-96 43q-83 36 -141.5 73t-106.5 86t-72 112.5t-24 142.5q0 160 107.5 261t279.5 101q266 0 397 -219l-165 -109q-80 136 -228 136q-83 0 -130.5 -44.5
t-47.5 -117.5q0 -41 12 -71t42 -56t66 -46t99 -48l96 -43q70 -31 118.5 -58t95.5 -64.5t75 -79t45 -98.5t17 -126q0 -186 -127.5 -285.5t-333.5 -99.5q-173 0 -301 77.5t-201 214.5zM420 -514l67 188q-33 15 -53 47.5t-20 73.5q0 57 39.5 96t93.5 39q55 0 95 -39t40 -96
q0 -23 -7.5 -47t-16 -39.5t-25.5 -44.5l-107 -178h-106z" />
    <glyph glyph-name="scommaaccent" unicode="&#x219;" horiz-adv-x="669" 
d="M332 147q102 0 102 52q0 25 -25 39t-110 32q-231 49 -231 228q0 99 70 160t188 61q148 0 258 -96l-109 -125q-57 57 -143 57q-38 0 -59 -14t-21 -35q0 -26 27.5 -39.5t115.5 -30.5q234 -46 234 -223q0 -108 -75.5 -169.5t-217.5 -61.5q-89 0 -171.5 35.5t-144.5 103.5
l130 115q74 -89 182 -89zM211 -514l68 188q-33 15 -53.5 48t-20.5 73q0 57 39.5 96t93.5 39q55 0 95 -39t40 -96q0 -23 -7.5 -47t-16 -39.5t-25.5 -44.5l-107 -178h-106z" />
    <glyph glyph-name="circumflex" unicode="&#x2c6;" horiz-adv-x="1024" 
d="M242 791l264 311h10l264 -311h-162l-106 88l-109 -88h-161z" />
    <glyph glyph-name="caron" unicode="&#x2c7;" horiz-adv-x="1024" 
d="M508 791l-264 311h162l106 -88l109 88h161l-264 -311h-10z" />
    <glyph glyph-name="breve" unicode="&#x2d8;" horiz-adv-x="1024" 
d="M512 782q-107 0 -174.5 60t-85.5 155l164 25q20 -80 96 -80t96 80l164 -25q-18 -95 -85.5 -155t-174.5 -60z" />
    <glyph glyph-name="dotaccent" unicode="&#x2d9;" horiz-adv-x="1024" 
d="M512 795q-46 0 -81.5 34t-35.5 82t36 82.5t81 34.5q47 0 82 -34t35 -83t-35 -82.5t-82 -33.5z" />
    <glyph glyph-name="ring" unicode="&#x2da;" horiz-adv-x="1024" 
d="M512 776q-78 0 -136.5 54.5t-58.5 127.5q0 75 58.5 130t136.5 55t136.5 -55t58.5 -130q0 -73 -58.5 -127.5t-136.5 -54.5zM512 887q30 0 49 19t19 52t-19 53.5t-49 20.5t-49 -20.5t-19 -53.5t19 -52t49 -19z" />
    <glyph glyph-name="ogonek" unicode="&#x2db;" horiz-adv-x="1024" 
d="M483 -410q-75 0 -127.5 42.5t-52.5 117.5q0 77 66 172l53 78h129l-62 -100q-47 -77 -47 -131q0 -60 54 -60q48 0 75 51l99 -69q-62 -101 -187 -101z" />
    <glyph glyph-name="tilde" unicode="&#x2dc;" horiz-adv-x="1024" 
d="M610 786q-40 0 -74.5 14.5t-60.5 29t-45 14.5q-20 0 -32 -12t-21 -44l-139 19q13 95 60.5 150t115.5 55q40 0 74.5 -14.5t60.5 -29t45 -14.5q20 0 32 12t21 44l139 -19q-13 -95 -60.5 -150t-115.5 -55z" />
    <glyph glyph-name="hungarumlaut" unicode="&#x2dd;" horiz-adv-x="1024" 
d="M580 791l92 311h207l-140 -311h-159zM293 791l92 311h207l-139 -311h-160z" />
    <glyph glyph-name="Delta" unicode="&#x394;" 
d="M217 305q-58 0 -100.5 41t-42.5 103t42.5 102.5t100.5 40.5t100.5 -40.5t42.5 -102.5t-42.5 -103t-100.5 -41z" />
    <glyph glyph-name="Delta" unicode="&#x2206;" 
d="M217 305q-58 0 -100.5 41t-42.5 103t42.5 102.5t100.5 40.5t100.5 -40.5t42.5 -102.5t-42.5 -103t-100.5 -41z" />
    <glyph glyph-name="Omega" unicode="&#x3a9;" 
d="M217 305q-58 0 -100.5 41t-42.5 103t42.5 102.5t100.5 40.5t100.5 -40.5t42.5 -102.5t-42.5 -103t-100.5 -41z" />
    <glyph glyph-name="Omega" unicode="&#x2126;" 
d="M217 305q-58 0 -100.5 41t-42.5 103t42.5 102.5t100.5 40.5t100.5 -40.5t42.5 -102.5t-42.5 -103t-100.5 -41z" />
    <glyph glyph-name="pi" unicode="&#x3c0;" 
d="M217 305q-58 0 -100.5 41t-42.5 103t42.5 102.5t100.5 40.5t100.5 -40.5t42.5 -102.5t-42.5 -103t-100.5 -41z" />
    <glyph glyph-name="endash" unicode="&#x2013;" horiz-adv-x="819" 
d="M68 338v186h684v-186h-684z" />
    <glyph glyph-name="emdash" unicode="&#x2014;" horiz-adv-x="1310" 
d="M68 338v186h1175v-186h-1175z" />
    <glyph glyph-name="quoteleft" unicode="&#x2018;" horiz-adv-x="436" 
d="M217 940q-55 0 -96 39t-41 96q0 68 47 144l109 174h104l-70 -189q36 -17 61 -50.5t25 -76.5q0 -59 -41 -98t-98 -39z" />
    <glyph glyph-name="quoteright" unicode="&#x2019;" horiz-adv-x="436" 
d="M96 958l70 189q-36 17 -61 50.5t-25 76.5q0 59 41 98t98 39q55 0 96 -39t41 -96q0 -67 -47 -143l-108 -175h-105z" />
    <glyph glyph-name="quotesinglbase" unicode="&#x201a;" horiz-adv-x="436" 
d="M96 -188l70 188q-36 17 -61 50.5t-25 76.5q0 59 41 98t98 39q55 0 96 -39t41 -96q0 -67 -47 -143l-108 -174h-105z" />
    <glyph glyph-name="quotedblleft" unicode="&#x201c;" horiz-adv-x="798" 
d="M580 940q-55 0 -96.5 39t-41.5 96q0 68 47 144l109 174h104l-69 -189q36 -17 61 -50.5t25 -76.5q0 -59 -41 -98t-98 -39zM217 940q-55 0 -96 39t-41 96q0 68 47 144l109 174h104l-70 -189q36 -17 61 -50.5t25 -76.5q0 -59 -41 -98t-98 -39z" />
    <glyph glyph-name="quotedblright" unicode="&#x201d;" horiz-adv-x="798" 
d="M459 958l69 189q-36 17 -61 50.5t-25 76.5q0 59 41.5 98t98.5 39q55 0 96 -39t41 -96q0 -67 -47 -143l-109 -175h-104zM96 958l70 189q-36 17 -61 50.5t-25 76.5q0 59 41 98t98 39q55 0 96 -39t41 -96q0 -67 -47 -143l-108 -175h-105z" />
    <glyph glyph-name="quotedblbase" unicode="&#x201e;" horiz-adv-x="798" 
d="M459 -188l69 188q-36 17 -61 50.5t-25 76.5q0 59 41.5 98t98.5 39q55 0 96 -39t41 -96q0 -67 -47 -143l-109 -174h-104zM96 -188l70 188q-36 17 -61 50.5t-25 76.5q0 59 41 98t98 39q55 0 96 -39t41 -96q0 -67 -47 -143l-108 -174h-105z" />
    <glyph glyph-name="dagger" unicode="&#x2020;" horiz-adv-x="583" 
d="M195 1047h-140v176h140v170h194v-170h139v-176h-139v-445h-194v445z" />
    <glyph glyph-name="daggerdbl" unicode="&#x2021;" horiz-adv-x="583" 
d="M195 1055h-140v168h140v170h194v-170h139v-168h-139v-115h139v-168h-139v-170h-194v170h-140v168h140v115z" />
    <glyph glyph-name="bullet" unicode="&#x2022;" horiz-adv-x="528" 
d="M264 336q-79 0 -137.5 57t-58.5 139q0 83 58.5 140t137.5 57q80 0 138.5 -57t58.5 -140q0 -82 -59 -139t-138 -57z" />
    <glyph glyph-name="ellipsis" unicode="&#x2026;" horiz-adv-x="1257" 
d="M1040 -12q-58 0 -100.5 40.5t-42.5 102.5t42.5 102.5t100.5 40.5q59 0 101.5 -40.5t42.5 -102.5t-42.5 -102.5t-101.5 -40.5zM629 -12q-59 0 -101.5 40.5t-42.5 102.5t42.5 102.5t101.5 40.5q58 0 100.5 -40.5t42.5 -102.5t-42.5 -102.5t-100.5 -40.5zM217 -12
q-58 0 -100.5 40.5t-42.5 102.5t42.5 102.5t100.5 40.5t100.5 -40.5t42.5 -102.5t-42.5 -102.5t-100.5 -40.5z" />
    <glyph glyph-name="perthousand" unicode="&#x2030;" horiz-adv-x="2226" 
d="M348 496q-126 0 -217.5 87t-91.5 216t91.5 216t217.5 87t217.5 -87t91.5 -216t-91.5 -216t-217.5 -87zM348 0l633 1085h211l-633 -1085h-211zM1878 -18q-126 0 -217.5 87t-91.5 216t91.5 216t217.5 87t217.5 -87t91.5 -216t-91.5 -216t-217.5 -87zM1192 -18
q-126 0 -217.5 87t-91.5 216t91.5 216t217.5 87t217.5 -87t91.5 -216t-91.5 -216t-217.5 -87zM348 670q51 0 87 36t36 93t-36 93t-87 36t-87 -36t-36 -93t36 -93t87 -36zM1878 156q51 0 87 36t36 93t-36 93t-87 36t-87 -36t-36 -93t36 -93t87 -36zM1192 156q51 0 87 36
t36 93t-36 93t-87 36t-87 -36t-36 -93t36 -93t87 -36z" />
    <glyph glyph-name="guilsinglleft" unicode="&#x2039;" horiz-adv-x="487" 
d="M215 66l-158 282v8l158 279h215l-158 -283l158 -286h-215z" />
    <glyph glyph-name="guilsinglright" unicode="&#x203a;" horiz-adv-x="487" 
d="M57 66l158 282l-158 287h215l158 -283v-8l-158 -278h-215z" />
    <glyph glyph-name="fraction" unicode="&#x2044;" horiz-adv-x="761" 
d="M-41 0l633 1085h211l-633 -1085h-211z" />
    <glyph glyph-name="fraction" unicode="&#x2215;" horiz-adv-x="761" 
d="M-41 0l633 1085h211l-633 -1085h-211z" />
    <glyph glyph-name="Euro" unicode="&#x20ac;" horiz-adv-x="1216" 
d="M172 596h-129v152v0v0h1v0h1v0h1h1h1h1h1h1h1h1h1h1h1h1h1h1h1h1h1h1h1h1h1h1h1h1h1h1h1h1h1h1h1h1h1h1h2h1h1h1h1h1h2h1h1h1h2h1h1h2h1h1h2h1h1h2h1h1h2h1h2h1h2h1h1h2h1h2h1h2h1h2h1h2h2h1h2h1h2h1h2h2h1h2h2h1h2h2h1h2h2h1h2h2h2h1h2h2h2h1h2h2h2h1h2h2h2h2h2h2h1h2h2
h9q63 160 207 257t319 97q133 0 239.5 -51.5t172.5 -147.5l-148 -121q-95 136 -264 136q-97 0 -174.5 -45t-122.5 -125h367v-152h-414q-2 -16 -2 -53q0 -33 2 -49h414v-152h-369q43 -83 121.5 -129.5t177.5 -46.5q192 0 289 145l156 -114q-143 -215 -445 -215
q-176 0 -320 99.5t-206 260.5h-164v152h129q-2 16 -2 49q0 35 2 53z" />
    <glyph glyph-name="trademark" unicode="&#x2122;" horiz-adv-x="1091" 
d="M520 926v473h12l230 -228l227 228h12v-473h-137v192l-102 -112l-103 112v-192h-139zM180 1278h-127v115h389v-115h-123v-352h-139v352z" />
    <glyph glyph-name="partialdiff" unicode="&#x2202;" 
d="M217 305q-58 0 -100.5 41t-42.5 103t42.5 102.5t100.5 40.5t100.5 -40.5t42.5 -102.5t-42.5 -103t-100.5 -41z" />
    <glyph glyph-name="product" unicode="&#x220f;" 
d="M217 305q-58 0 -100.5 41t-42.5 103t42.5 102.5t100.5 40.5t100.5 -40.5t42.5 -102.5t-42.5 -103t-100.5 -41z" />
    <glyph glyph-name="minus" unicode="&#x2212;" 
d="M217 305q-58 0 -100.5 41t-42.5 103t42.5 102.5t100.5 40.5t100.5 -40.5t42.5 -102.5t-42.5 -103t-100.5 -41z" />
    <glyph glyph-name="radical" unicode="&#x221a;" 
d="M217 305q-58 0 -100.5 41t-42.5 103t42.5 102.5t100.5 40.5t100.5 -40.5t42.5 -102.5t-42.5 -103t-100.5 -41z" />
    <glyph glyph-name="integral" unicode="&#x222b;" 
d="M217 305q-58 0 -100.5 41t-42.5 103t42.5 102.5t100.5 40.5t100.5 -40.5t42.5 -102.5t-42.5 -103t-100.5 -41z" />
    <glyph glyph-name="approxequal" unicode="&#x2248;" 
d="M217 305q-58 0 -100.5 41t-42.5 103t42.5 102.5t100.5 40.5t100.5 -40.5t42.5 -102.5t-42.5 -103t-100.5 -41z" />
    <glyph glyph-name="lessequal" unicode="&#x2264;" 
d="M217 305q-58 0 -100.5 41t-42.5 103t42.5 102.5t100.5 40.5t100.5 -40.5t42.5 -102.5t-42.5 -103t-100.5 -41z" />
    <glyph glyph-name="greaterequal" unicode="&#x2265;" 
d="M217 305q-58 0 -100.5 41t-42.5 103t42.5 102.5t100.5 40.5t100.5 -40.5t42.5 -102.5t-42.5 -103t-100.5 -41z" />
    <glyph glyph-name="lozenge" unicode="&#x25ca;" 
d="M217 305q-58 0 -100.5 41t-42.5 103t42.5 102.5t100.5 40.5t100.5 -40.5t42.5 -102.5t-42.5 -103t-100.5 -41z" />
    <glyph glyph-name="plusminus" horiz-adv-x="1263" 
d="M752 530v-530h-205v530h-221v-530h-205v530h-82v170h82v510q0 128 61 194t164 66q105 0 174 -49l-86 -151q-23 20 -57 20q-22 0 -36.5 -19t-14.5 -59v-512h221v463q0 146 91.5 226.5t223.5 80.5q140 0 228 -78.5t88 -230.5v-1161h-205v1163q0 60 -27 96.5t-84 36.5
q-110 0 -110 -127v-469h131v-170h-131z" />
    <glyph glyph-name="Q.alt1" horiz-adv-x="1605" 
d="M903 10q72 -74 124 -104.5t128 -30.5q88 0 170 82l139 -141q-122 -140 -299 -140q-70 0 -133.5 18.5t-121.5 57.5t-96 71t-95 87q-76 72 -131.5 107.5t-120.5 35.5q-138 0 -227 -110l-140 133q70 94 181 133q-93 93 -145 218t-52 271q0 152 56.5 285t153 226.5t229 147.5
t280.5 54t280.5 -54t229 -147.5t153 -226.5t56.5 -285q0 -184 -81.5 -334.5t-221.5 -241t-316 -112.5zM803 193q216 0 353.5 141.5t137.5 363.5q0 223 -138 368.5t-353 145.5q-216 0 -354 -146t-138 -368t138 -363.5t354 -141.5z" />
    <glyph glyph-name="apple" 
d="M217 305q-58 0 -100.5 41t-42.5 103t42.5 102.5t100.5 40.5t100.5 -40.5t42.5 -102.5t-42.5 -103t-100.5 -41z" />
    <glyph glyph-name="G.alt" horiz-adv-x="1560" 
d="M805 -18q-147 0 -280 54t-230 148t-154 227.5t-57 284.5t57 285t154 227.5t230 148t280 54.5q378 0 567 -281l-164 -122q-68 101 -164.5 152.5t-242.5 51.5q-213 0 -351.5 -147t-138.5 -369q0 -223 138.5 -370.5t353.5 -147.5q171 0 275.5 68.5t144.5 179.5h-394v195h648
q-6 -299 -186 -469t-486 -170z" />
    <glyph glyph-name="K.alt" horiz-adv-x="1243" 
d="M371 614l557 779h241l-583 -815l616 -578h-305l-526 494v-494h-219v1393h219v-779z" />
    <glyph glyph-name="M.alt" horiz-adv-x="1703" 
d="M135 0l154 1421h12l551 -854l551 854h12l154 -1421h-213l-90 862l-414 -649h-8l-416 649l-90 -862h-203z" />
    <glyph glyph-name="Q.alt" horiz-adv-x="1605" 
d="M1327 201l207 -232l-154 -129l-213 236q-163 -94 -364 -94q-148 0 -280.5 54t-229 148t-153 227t-56.5 285t56.5 285.5t153 227t229 148t280.5 54.5t280.5 -54.5t229 -148t153 -227t56.5 -285.5q0 -290 -195 -495zM1030 229l-160 179l156 131q10 -12 27 -30.5t53 -59
t59.5 -67t22.5 -26.5q106 133 106 340q0 223 -138 369.5t-353 146.5t-353.5 -146.5t-138.5 -369.5t138.5 -369.5t353.5 -146.5q129 0 227 49z" />
    <glyph glyph-name="W.alt" horiz-adv-x="1851" 
d="M829 844l-241 549h219q127 -293 127 -295l121 295h207l-226 -529l185 -428l372 957h215l-579 -1413h-17l-282 636q1 1 -67.5 -158t-136.5 -318l-69 -160h-16l-598 1413h227l394 -957z" />
    <glyph glyph-name="a.alt" horiz-adv-x="882" 
d="M379 -18q-138 0 -232 105t-94 263q0 159 94 264t232 105q150 0 213 -98v79h205v-700h-205v80q-63 -98 -213 -98zM432 162q77 0 120.5 50.5t43.5 137.5t-43.5 138t-120.5 51q-78 0 -123 -51t-45 -138q0 -86 45 -137t123 -51z" />
    <glyph glyph-name="g.alt" horiz-adv-x="890" 
d="M430 -455q-250 0 -369 215l160 90q73 -131 201 -131q85 0 131.5 48.5t46.5 144.5v168q-63 -98 -217 -98q-138 0 -234 105t-96 263t96 263.5t234 105.5q154 0 217 -98v79h205v-788q0 -174 -98.5 -270.5t-276.5 -96.5zM436 162q78 0 123 51t45 137q0 87 -45 138t-123 51
t-125 -51.5t-47 -137.5t47 -137t125 -51z" />
    <glyph glyph-name="k.alt" horiz-adv-x="784" 
d="M287 274v-274h-205v1454h205v-1044l223 290h229q-266 -342 -268 -342l311 -358h-262q-149 176 -233 274z" />
    <glyph glyph-name="u.alt" horiz-adv-x="827" 
d="M406 -18q-161 0 -245.5 86.5t-84.5 244.5v387h205v-381q0 -81 31.5 -120t101.5 -39t101.5 39t31.5 120v381h205v-387q0 -156 -91.5 -243.5t-254.5 -87.5z" />
    <glyph glyph-name="aacute.alt" horiz-adv-x="882" 
d="M379 -18q-138 0 -232 105t-94 263q0 159 94 264t232 105q150 0 213 -98v79h205v-700h-205v80q-63 -98 -213 -98zM432 162q77 0 120.5 50.5t43.5 137.5t-43.5 138t-120.5 51q-78 0 -123 -51t-45 -138q0 -86 45 -137t123 -51zM322 791l102 311h231l-174 -311h-159z" />
    <glyph glyph-name="agrave.alt" horiz-adv-x="882" 
d="M379 -18q-138 0 -232 105t-94 263q0 159 94 264t232 105q150 0 213 -98v79h205v-700h-205v80q-63 -98 -213 -98zM432 162q77 0 120.5 50.5t43.5 137.5t-43.5 138t-120.5 51q-78 0 -123 -51t-45 -138q0 -86 45 -137t123 -51zM330 791l-174 311h231l102 -311h-159z" />
    <glyph glyph-name="acircumflex.alt" horiz-adv-x="882" 
d="M379 -18q-138 0 -232 105t-94 263q0 159 94 264t232 105q150 0 213 -98v79h205v-700h-205v80q-63 -98 -213 -98zM432 162q77 0 120.5 50.5t43.5 137.5t-43.5 138t-120.5 51q-78 0 -123 -51t-45 -138q0 -86 45 -137t123 -51zM186 791l265 311h10l264 -311h-162l-106 88
l-109 -88h-162z" />
    <glyph glyph-name="adieresis.alt" horiz-adv-x="882" 
d="M379 -18q-138 0 -232 105t-94 263q0 159 94 264t232 105q150 0 213 -98v79h205v-700h-205v80q-63 -98 -213 -98zM432 162q77 0 120.5 50.5t43.5 137.5t-43.5 138t-120.5 51q-78 0 -123 -51t-45 -138q0 -86 45 -137t123 -51zM627 795q-46 0 -81.5 34t-35.5 82t36 82.5
t81 34.5q47 0 81.5 -34t34.5 -83t-34.5 -82.5t-81.5 -33.5zM295 795q-46 0 -81.5 34t-35.5 82t36 82.5t81 34.5q47 0 82 -34t35 -83t-35 -82.5t-82 -33.5z" />
    <glyph glyph-name="atilde.alt" horiz-adv-x="882" 
d="M379 -18q-138 0 -232 105t-94 263q0 159 94 264t232 105q150 0 213 -98v79h205v-700h-205v80q-63 -98 -213 -98zM432 162q77 0 120.5 50.5t43.5 137.5t-43.5 138t-120.5 51q-78 0 -123 -51t-45 -138q0 -86 45 -137t123 -51zM555 786q-40 0 -74.5 14.5t-60.5 29t-45 14.5
q-20 0 -32 -12t-21 -44l-140 19q13 95 60.5 150t115.5 55q40 0 75 -14.5t61 -29t45 -14.5q20 0 32 12t21 44l139 -19q-13 -95 -60.5 -150t-115.5 -55z" />
    <glyph glyph-name="aring.alt" horiz-adv-x="882" 
d="M379 -18q-138 0 -232 105t-94 263q0 159 94 264t232 105q150 0 213 -98v79h205v-700h-205v80q-63 -98 -213 -98zM432 162q77 0 120.5 50.5t43.5 137.5t-43.5 138t-120.5 51q-78 0 -123 -51t-45 -138q0 -86 45 -137t123 -51zM438 776q-78 0 -136 54.5t-58 127.5
q0 75 58 130t136 55t136.5 -55t58.5 -130q0 -73 -58.5 -127.5t-136.5 -54.5zM438 887q30 0 49 19t19 52t-19 53.5t-49 20.5t-48.5 -20.5t-18.5 -53.5t18.5 -52t48.5 -19z" />
    <glyph glyph-name="uacute.alt" horiz-adv-x="827" 
d="M406 -18q-161 0 -245.5 86.5t-84.5 244.5v387h205v-381q0 -81 31.5 -120t101.5 -39t101.5 39t31.5 120v381h205v-387q0 -156 -91.5 -243.5t-254.5 -87.5zM332 791l102 311h232l-174 -311h-160z" />
    <glyph glyph-name="ugrave.alt" horiz-adv-x="827" 
d="M406 -18q-161 0 -245.5 86.5t-84.5 244.5v387h205v-381q0 -81 31.5 -120t101.5 -39t101.5 39t31.5 120v381h205v-387q0 -156 -91.5 -243.5t-254.5 -87.5zM340 791l-174 311h231l103 -311h-160z" />
    <glyph glyph-name="ucircumflex.alt" horiz-adv-x="827" 
d="M406 -18q-161 0 -245.5 86.5t-84.5 244.5v387h205v-381q0 -81 31.5 -120t101.5 -39t101.5 39t31.5 120v381h205v-387q0 -156 -91.5 -243.5t-254.5 -87.5zM145 791l265 311h10l264 -311h-162l-106 88l-109 -88h-162z" />
    <glyph glyph-name="udieresis.alt" horiz-adv-x="827" 
d="M406 -18q-161 0 -245.5 86.5t-84.5 244.5v387h205v-381q0 -81 31.5 -120t101.5 -39t101.5 39t31.5 120v381h205v-387q0 -156 -91.5 -243.5t-254.5 -87.5zM582 795q-46 0 -81.5 34t-35.5 82t36 82.5t81 34.5q47 0 81.5 -34t34.5 -83t-34.5 -82.5t-81.5 -33.5zM250 795
q-46 0 -81.5 34t-35.5 82t36 82.5t81 34.5q47 0 82 -34t35 -83t-35 -82.5t-82 -33.5z" />
    <glyph glyph-name="zero.up" horiz-adv-x="1585" 
d="M803 -18q-148 0 -280.5 54t-229 148t-153 227t-56.5 285t56.5 285.5t153 227t229 148t280.5 54.5t280.5 -54.5t229 -148t153 -227t56.5 -285.5t-56.5 -285t-153 -227t-229 -148t-280.5 -54zM803 180q215 0 353 146.5t138 369.5t-138 369.5t-353 146.5t-353.5 -146.5
t-138.5 -369.5t138.5 -369.5t353.5 -146.5z" />
    <glyph glyph-name="one.up" horiz-adv-x="647" 
d="M268 0v1198h-219v195h438v-1393h-219z" />
    <glyph glyph-name="two.up" horiz-adv-x="1114" 
d="M37 0v12l588 623q94 98 134 180t40 168q0 100 -64 164.5t-184 64.5q-97 0 -171 -62t-108 -171l-192 72q51 173 175.5 266.5t299.5 93.5q210 0 337.5 -117.5t127.5 -302.5q0 -120 -57.5 -233.5t-174.5 -235.5l-313 -327h553v-195h-991z" />
    <glyph glyph-name="three.up" horiz-adv-x="1138" 
d="M571 -18q-190 0 -325 80t-209 219l184 96q51 -92 131.5 -144.5t210.5 -52.5q139 0 217 77t78 206q0 128 -86 204t-242 76q-90 0 -194 -28l-12 18l364 465h-532v195h903v-13l-373 -473q175 -27 285 -147.5t110 -306.5q0 -219 -142.5 -345t-367.5 -126z" />
    <glyph glyph-name="four.up" horiz-adv-x="1259" 
d="M1042 424h160v-180h-160v-244h-215v244h-800v12l1003 1167h12v-999zM827 424v489l-419 -489h419z" />
    <glyph glyph-name="five.up" horiz-adv-x="1165" 
d="M563 -18q-178 0 -318.5 82.5t-207.5 214.5l184 98q53 -93 134 -145t208 -52q139 0 218 83t79 216q0 132 -85.5 214.5t-237.5 82.5q-210 0 -353 -129l-14 6v740h797v-195h-598v-274q87 41 204 41q150 0 267.5 -63t182 -173t64.5 -246q0 -227 -143 -364t-381 -137z" />
    <glyph glyph-name="six.up" horiz-adv-x="1181" 
d="M596 -18q-221 0 -366.5 136.5t-145.5 334.5q0 165 127 352l399 588h240l-334 -486q67 19 121 19q196 0 330.5 -133.5t134.5 -331.5q0 -98 -37 -186t-102.5 -152.5t-161 -102.5t-205.5 -38zM592 174q132 0 210.5 83.5t78.5 203.5q0 124 -77 206.5t-212 82.5
q-132 0 -210.5 -82t-78.5 -207q0 -120 79 -203.5t210 -83.5z" />
    <glyph glyph-name="seven.up" horiz-adv-x="1146" 
d="M203 0l581 1198h-718v195h1044v-13l-674 -1380h-233z" />
    <glyph glyph-name="eight.up" horiz-adv-x="1206" 
d="M352 805q-149 98 -149 266q0 145 118.5 242.5t282.5 97.5t282 -97.5t118 -242.5q0 -168 -150 -266q123 -52 195.5 -147.5t72.5 -225.5q0 -197 -145.5 -323.5t-372.5 -126.5t-373.5 126.5t-146.5 323.5q0 130 72.5 225.5t195.5 147.5zM604 889q80 0 131 46t51 118
q0 75 -51 121.5t-131 46.5q-82 0 -133 -46.5t-51 -121.5q0 -72 51 -118t133 -46zM604 176q130 0 212.5 74t82.5 188t-82.5 187t-212.5 73t-213.5 -73t-83.5 -187q0 -118 83 -190t214 -72z" />
    <glyph glyph-name="nine.up" horiz-adv-x="1189" 
d="M367 0l307 477q-67 -18 -125 -18q-203 0 -336 134t-133 335q0 98 38 186.5t104 154t162.5 104t207.5 38.5q112 0 209 -38t163.5 -103t104 -152t37.5 -184q0 -146 -143 -369l-361 -565h-235zM594 635q133 0 212 86t79 207q0 123 -78.5 207t-212.5 84t-213.5 -85
t-79.5 -206q0 -123 78 -208t215 -85z" />
    <glyph glyph-name="numbersign.up" horiz-adv-x="1040" 
d="M279 1020h-134v168h177l51 205h182l-51 -205h170l51 205h182l-51 -205h135v-168h-178l-53 -211h135v-168h-178l-49 -192h-183l50 192h-170l-50 -192h-182l49 192h-133v168h176zM631 1020h-170l-53 -211h170z" />
    <glyph glyph-name="dollar.up" horiz-adv-x="1067" 
d="M457 -14q-150 17 -257.5 91.5t-168.5 192.5l174 99q56 -92 110.5 -139t141.5 -60v469q-82 37 -141.5 75t-110 88t-76 114t-25.5 141q0 138 99 237.5t254 114.5v174h149v-180q102 -17 174 -71t127 -146l-166 -107q-60 102 -135 131v-407q75 -34 129 -64t104.5 -69t81 -81
t48.5 -97t18 -121q0 -169 -102.5 -268t-278.5 -117v-224h-149v224zM457 1223q-67 -12 -104.5 -55t-37.5 -103q0 -66 34 -109.5t108 -83.5v351zM606 174q81 17 124.5 67.5t43.5 123.5q0 68 -43.5 115t-124.5 89v-395z" />
    <glyph glyph-name="percent.up" horiz-adv-x="1775" 
d="M422 666q-154 0 -266.5 107t-112.5 265t112.5 265.5t266.5 107.5t267.5 -107.5t113.5 -265.5t-113.5 -265t-267.5 -107zM346 0l868 1393h216l-869 -1393h-215zM1352 -18q-154 0 -266.5 107t-112.5 265t112.5 265.5t266.5 107.5t267.5 -107.5t113.5 -265.5t-113.5 -265
t-267.5 -107zM422 842q76 0 129 55.5t53 140.5q0 86 -53 141.5t-129 55.5t-128 -55.5t-52 -141.5q0 -85 52 -140.5t128 -55.5zM1352 158q76 0 129 55.5t53 140.5q0 86 -53 141.5t-129 55.5t-128.5 -55.5t-52.5 -141.5q0 -85 52.5 -140.5t128.5 -55.5z" />
    <glyph glyph-name="parenleft.up" horiz-adv-x="626" 
d="M459 -281q-365 365 -365 877t365 877l127 -105q-131 -156 -201 -341.5t-70 -430.5t70 -430.5t201 -341.5z" />
    <glyph glyph-name="parenright.up" horiz-adv-x="626" 
d="M168 -281l-127 105q130 155 200 341t70 431t-70 431t-200 341l127 105q364 -364 364 -877t-364 -877z" />
    <glyph glyph-name="plus.up" horiz-adv-x="739" 
d="M465 561v-213h-191v213h-200v184h200v213h191v-213h201v-184h-201z" />
    <glyph glyph-name="comma.up" 
d="M82 -197l72 199q-36 18 -58 52t-22 77q0 62 42.5 102.5t100.5 40.5t100.5 -40.5t42.5 -102.5q0 -24 -8 -49.5t-17.5 -43t-27.5 -46.5l-112 -189h-113z" />
    <glyph glyph-name="less.up" horiz-adv-x="671" 
d="M600 293l-547 325v9l547 321v-198l-221 -129l221 -129v-199z" />
    <glyph glyph-name="equal.up" horiz-adv-x="739" 
d="M74 694v185h592v-185h-592zM74 418v184h592v-184h-592z" />
    <glyph glyph-name="greater.up" horiz-adv-x="671" 
d="M72 293v199l221 129l-221 129v198l546 -325v-9z" />
    <glyph glyph-name="degree.up" horiz-adv-x="643" 
d="M322 903q-110 0 -188.5 75t-78.5 179q0 107 78 180.5t189 73.5t188.5 -73.5t77.5 -180.5q0 -104 -78 -179t-188 -75zM322 1040q49 0 80.5 33t31.5 84t-31.5 84t-80.5 33t-81 -33t-32 -84t32 -84t81 -33z" />
    <glyph glyph-name="sterling.up" horiz-adv-x="1163" 
d="M375 508h-230v160h160q-31 66 -48.5 111t-33.5 111t-16 126q0 169 124 282t314 113q153 0 262 -70.5t158 -179.5l-176 -102q-40 83 -98 124.5t-148 41.5q-96 0 -155.5 -52.5t-59.5 -156.5q0 -63 15 -130.5t29.5 -107.5t43.5 -110h367v-160h-308q21 -79 21 -146t-16 -129
q107 -67 217 -67q64 0 110 24t92 74l136 -125q-75 -86 -153.5 -121.5t-184.5 -35.5q-157 0 -297 104q-90 -104 -250 -104q-101 0 -165.5 54t-64.5 142t62.5 143.5t157.5 55.5q81 0 163 -35v20q0 60 -28 146zM369 193q-55 38 -109 38q-38 0 -57 -15t-19 -38t18 -38t56 -15
q73 0 111 68z" />
    <glyph glyph-name="section.up" horiz-adv-x="1155" 
d="M258 829q-78 105 -78 232q0 151 114 250.5t286 99.5q137 0 226.5 -53.5t151.5 -151.5l-170 -116q-78 131 -208 131q-83 0 -128.5 -43t-45.5 -109q0 -129 141 -188l244 -105q151 -65 221.5 -153t70.5 -215q0 -154 -174 -254q68 -89 68 -205q0 -140 -112 -229t-310 -89
q-137 0 -261.5 64t-178.5 155l155 123q114 -151 285 -151q95 0 146 36t51 99q0 58 -36.5 91t-142.5 77l-227 96q-137 57 -205.5 144t-68.5 194q0 183 186 270zM782 266q90 43 90 127q0 63 -40.5 103t-131.5 79l-243 105q-37 14 -86 47q-44 -24 -66 -55.5t-22 -83.5
q0 -58 36 -94.5t115 -69.5l228 -96q38 -15 120 -62z" />
    <glyph glyph-name="germandbls.up" horiz-adv-x="931" 
d="M635 -18q-189 0 -281 102l117 131q68 -68 152 -68q82 0 82 52q0 20 -17.5 33.5t-43 22t-81.5 21.5q-45 11 -76.5 31.5t-56.5 59t-28.5 95t8.5 140.5l94 522q31 172 -105 172q-112 0 -112 -127v-1169h-205v1163q0 146 92.5 226.5t224.5 80.5q74 0 134 -22t105 -69.5
t59.5 -120.5t-3.5 -175l-108 -534q-10 -51 9.5 -72t90.5 -39q213 -53 213 -223q0 -105 -62.5 -169t-201.5 -64z" />
    <glyph glyph-name="copyright.up" horiz-adv-x="1609" 
d="M805 -16q-191 0 -354.5 91t-262 255.5t-98.5 365.5q0 151 58 284.5t155 227t228 147.5t274 54t274 -54t228 -147.5t155 -227t58 -284.5q0 -201 -98.5 -365.5t-262 -255.5t-354.5 -91zM805 94q163 0 300 77.5t217.5 216t80.5 308.5t-80.5 308.5t-217.5 216t-300 77.5
t-300 -77.5t-217.5 -216t-80.5 -308.5t80.5 -308.5t217.5 -216t300 -77.5zM809 260q-119 0 -220 55.5t-161.5 156t-60.5 224.5t60.5 226t161.5 158.5t220 56.5q223 0 340 -168l-162 -129q-35 47 -73 69.5t-97 22.5q-97 0 -159 -66.5t-62 -169.5q0 -102 62 -166.5t159 -64.5
q66 0 107 24.5t75 69.5l166 -121q-119 -178 -356 -178z" />
    <glyph glyph-name="yen.up" horiz-adv-x="1300" 
d="M547 461h-375v160h299l-428 772h242l379 -707l370 707h223l-417 -772h299v-160h-373v-105h373v-159h-373v-197h-219v197h-375v159h375v105z" />
    <glyph glyph-name="ordfeminine.up" horiz-adv-x="735" 
d="M469 1143q-1 59 -28.5 84.5t-82.5 25.5q-92 0 -157 -69l-113 104q48 57 114 90t179 33q121 0 199.5 -69.5t78.5 -208.5v-369h-190v57q-64 -73 -178 -73q-102 0 -168 52.5t-66 157.5q0 89 69.5 137t178.5 48h164zM469 1016h-156q-30 0 -48.5 -17.5t-18.5 -42.5
q0 -26 20 -41.5t58 -15.5q62 0 103.5 26.5t41.5 65.5v25z" />
    <glyph glyph-name="ordmasculine.up" horiz-adv-x="825" 
d="M416 748q-148 0 -248 94t-100 237q0 142 100.5 237t247.5 95q146 0 247 -95.5t101 -236.5q0 -143 -101 -237t-247 -94zM416 907q69 0 110 47.5t41 124.5q0 76 -41.5 123t-109.5 47q-70 0 -111 -47t-41 -123q0 -77 41 -124.5t111 -47.5z" />
    <glyph glyph-name="florin.up" horiz-adv-x="729" 
d="M182 492h-104v170h123l55 483q15 133 79.5 199.5t172.5 66.5q78 0 126.5 -22.5t88.5 -69.5l-125 -131q-29 43 -70 43q-28 0 -44.5 -18.5t-22.5 -65.5l-55 -485h159v-170h-178l-106 -926h-205z" />
    <glyph glyph-name="fraction.up" horiz-adv-x="907" 
d="M-72 0l836 1393h215l-836 -1393h-215z" />
    <glyph glyph-name="Euro.up" horiz-adv-x="1597" 
d="M227 727v0v0v0h-1v0h-1h-1v0h-1h-1h-1h-1h-1h-1h-1h-1h-1h-1h-1h-1h-1h-1h-1h-1h-1h-1h-1h-1h-1h-1h-1h-1h-1h-1h-1h-1h-1h-1h-2h-1h-1h-1h-1h-1h-2h-1h-1h-1h-2h-1h-1h-2h-1h-1h-1h-2h-1h-2h-1h-1h-2h-1h-2h-1h-1h-2h-1h-2h-1h-2h-1h-2h-1h-2h-1h-2h-2h-1h-2h-1h-2h-1
h-2h-2h-1h-2h-2h-1h-2h-2h-1h-2h-2h-1h-2h-2h-2h-1h-2h-2h-2h-1h-2h-2h-2h-1h-2h-2h-2h-2h-8v160h176q60 234 249.5 379t436.5 145q366 0 557 -270l-168 -119q-72 97 -161 143.5t-234 46.5q-158 0 -277.5 -88.5t-169.5 -236.5h619v-160h-649v-31q0 -25 4 -75h645v-160h-602
q58 -129 172 -205t258 -76q151 0 252.5 50t173.5 153l170 -117q-194 -284 -596 -284q-231 0 -414 131.5t-254 347.5h-188v160h155q-4 50 -4 75v31z" />
    <glyph glyph-name="perthousand.up" horiz-adv-x="2623" 
d="M422 666q-154 0 -266.5 107t-112.5 265t112.5 265.5t266.5 107.5t267.5 -107.5t113.5 -265.5t-113.5 -265t-267.5 -107zM346 0l868 1393h216l-869 -1393h-215zM2200 -18q-154 0 -266.5 107t-112.5 265t112.5 265.5t266.5 107.5t267 -107.5t113 -265.5t-113 -265
t-267 -107zM1352 -18q-154 0 -266.5 107t-112.5 265t112.5 265.5t266.5 107.5t267.5 -107.5t113.5 -265.5t-113.5 -265t-267.5 -107zM422 842q76 0 129 55.5t53 140.5q0 86 -53 141.5t-129 55.5t-128 -55.5t-52 -141.5q0 -85 52 -140.5t128 -55.5zM2200 158q76 0 129 55.5
t53 140.5q0 86 -53 141.5t-129 55.5t-128.5 -55.5t-52.5 -141.5q0 -85 52.5 -140.5t128.5 -55.5zM1352 158q76 0 129 55.5t53 140.5q0 86 -53 141.5t-129 55.5t-128.5 -55.5t-52.5 -141.5q0 -85 52.5 -140.5t128.5 -55.5z" />
    <glyph glyph-name="AE.alt" horiz-adv-x="1918" 
d="M1094 428l100 -233h651v-195h-792l-80 195h-633l-82 -195h-215l600 1393h776v-195h-657l250 -580h585v-190h-503zM893 389l-234 567q-237 -567 -239 -567h473z" />
    <glyph glyph-name="fl.alt" horiz-adv-x="827" 
d="M326 530v-530h-205v530h-82v170h82v510q0 127 60.5 193.5t174.5 66.5q91 0 140 -38l-58 -158q-24 16 -57 16q-25 0 -40 -19.5t-15 -58.5v-512h129v-170h-129zM537 0v1454h204v-1454h-204z" />
    <glyph glyph-name="ffl.alt" horiz-adv-x="1253" 
d="M752 530v-530h-205v530h-221v-530h-205v530h-82v170h82v510q0 128 61 194t164 66q105 0 174 -49l-86 -151q-23 20 -57 20q-22 0 -36.5 -19t-14.5 -59v-512h221v510q0 127 60.5 193.5t174.5 66.5q91 0 140 -38l-58 -158q-24 16 -57 16q-25 0 -40 -19.5t-15 -58.5v-512h129
v-170h-129zM963 0v1454h204v-1454h-204z" />
    <glyph glyph-name="at.up" horiz-adv-x="1583" 
d="M834 -49q-223 0 -401.5 92t-280 258.5t-101.5 378.5q0 157 62 294.5t165.5 232t240.5 148.5t286 54q156 0 291 -50t230 -138.5t149.5 -214t54.5 -271.5q0 -208 -86 -315t-230 -107q-178 0 -241 127q-41 -67 -100 -95t-142 -28q-132 0 -223.5 100t-91.5 249
q0 151 91.5 251.5t223.5 100.5q131 0 193 -92v73h206v-415q0 -111 89 -111q55 0 93 66t38 192q0 246 -147 379t-404 133q-245 0 -398 -156.5t-153 -406.5q0 -252 157.5 -407.5t421.5 -155.5q172 0 287 59l82 -145q-138 -80 -362 -80zM778 496q71 0 109.5 45.5t38.5 124.5
q0 81 -38.5 127.5t-109.5 46.5q-69 0 -107 -46.5t-38 -127.5q0 -79 37.5 -124.5t107.5 -45.5z" />
    <glyph glyph-name="fb.alt" horiz-adv-x="1341" 
d="M326 530v-530h-205v530h-82v170h82v510q0 127 60.5 193.5t174.5 66.5q91 0 140 -38l-58 -158q-24 16 -57 16q-25 0 -40 -19.5t-15 -58.5v-512h129v-170h-129zM958 -18q-154 0 -217 98v-80h-204v1454h204v-833q63 98 217 98q138 0 234 -105.5t96 -263.5t-96 -263
t-234 -105zM905 162q78 0 125 51t47 137t-47 137.5t-125 51.5t-123 -51t-45 -138q0 -86 45 -137t123 -51z" />
    <glyph glyph-name="fh.alt" horiz-adv-x="1300" 
d="M326 530v-530h-205v530h-82v170h82v510q0 127 60.5 193.5t174.5 66.5q91 0 140 -38l-58 -158q-24 16 -57 16q-25 0 -40 -19.5t-15 -58.5v-512h129v-170h-129zM537 0v1454h204v-844q66 109 220 109q119 0 191.5 -79t72.5 -216v-424h-205v410q0 60 -31.5 92.5t-93.5 32.5
q-74 0 -114 -40.5t-40 -117.5v-377h-204z" />
    <glyph glyph-name="fk.alt" horiz-adv-x="1239" 
d="M326 530v-530h-205v530h-82v170h82v510q0 127 60.5 193.5t174.5 66.5q91 0 140 -38l-58 -158q-24 16 -57 16q-25 0 -40 -19.5t-15 -58.5v-512h129v-170h-129zM741 274v-274h-204v1454h204v-1044l224 290h229q-266 -342 -268 -342l311 -358h-262q-150 176 -234 274z" />
    <glyph glyph-name="ffb.alt" horiz-adv-x="1767" 
d="M752 530v-530h-205v530h-221v-530h-205v530h-82v170h82v510q0 128 61 194t164 66q105 0 174 -49l-86 -151q-23 20 -57 20q-22 0 -36.5 -19t-14.5 -59v-512h221v510q0 127 60.5 193.5t174.5 66.5q91 0 140 -38l-58 -158q-24 16 -57 16q-25 0 -40 -19.5t-15 -58.5v-512h129
v-170h-129zM1384 -18q-154 0 -217 98v-80h-204v1454h204v-833q63 98 217 98q138 0 234 -105.5t96 -263.5t-96 -263t-234 -105zM1331 162q78 0 125 51t47 137t-47 137.5t-125 51.5t-123 -51t-45 -138q0 -86 45 -137t123 -51z" />
    <glyph glyph-name="ffh.alt" horiz-adv-x="1726" 
d="M752 530v-530h-205v530h-221v-530h-205v530h-82v170h82v510q0 128 61 194t164 66q105 0 174 -49l-86 -151q-23 20 -57 20q-22 0 -36.5 -19t-14.5 -59v-512h221v510q0 127 60.5 193.5t174.5 66.5q91 0 140 -38l-58 -158q-24 16 -57 16q-25 0 -40 -19.5t-15 -58.5v-512h129
v-170h-129zM963 0v1454h204v-844q66 109 219 109q119 0 192 -79t73 -216v-424h-205v410q0 60 -31.5 92.5t-93.5 32.5q-74 0 -114 -40.5t-40 -117.5v-377h-204z" />
    <glyph glyph-name="ffk.alt" horiz-adv-x="1665" 
d="M752 530v-530h-205v530h-221v-530h-205v530h-82v170h82v510q0 128 61 194t164 66q105 0 174 -49l-86 -151q-23 20 -57 20q-22 0 -36.5 -19t-14.5 -59v-512h221v510q0 127 60.5 193.5t174.5 66.5q91 0 140 -38l-58 -158q-24 16 -57 16q-25 0 -40 -19.5t-15 -58.5v-512h129
v-170h-129zM1167 274v-274h-204v1454h204v-1044l224 290h229q-266 -342 -268 -342l311 -358h-262q-150 176 -234 274z" />
    <glyph glyph-name="endash.up" horiz-adv-x="903" 
d="M80 428v195h743v-195h-743z" />
    <glyph glyph-name="emdash.up" horiz-adv-x="1476" 
d="M80 428v195h1317v-195h-1317z" />
    <glyph glyph-name="Gbreve.alt" horiz-adv-x="1560" 
d="M795 1475q-107 0 -174.5 60t-85.5 155l163 24q20 -80 97 -80q76 0 96 80l164 -24q-18 -95 -85.5 -155t-174.5 -60zM805 -18q-147 0 -280 54t-230 148t-154 227.5t-57 284.5t57 285t154 227.5t230 148t280 54.5q378 0 567 -281l-164 -122q-68 101 -164.5 152.5
t-242.5 51.5q-213 0 -351.5 -147t-138.5 -369q0 -223 138.5 -370.5t353.5 -147.5q171 0 275.5 68.5t144.5 179.5h-394v195h648q-6 -299 -186 -469t-486 -170z" />
    <glyph glyph-name="Gcircumflex.alt" horiz-adv-x="1560" 
d="M528 1483l265 311h10l264 -311h-162l-106 88l-109 -88h-162zM805 -18q-147 0 -280 54t-230 148t-154 227.5t-57 284.5t57 285t154 227.5t230 148t280 54.5q378 0 567 -281l-164 -122q-68 101 -164.5 152.5t-242.5 51.5q-213 0 -351.5 -147t-138.5 -369
q0 -223 138.5 -370.5t353.5 -147.5q171 0 275.5 68.5t144.5 179.5h-394v195h648q-6 -299 -186 -469t-486 -170z" />
    <glyph glyph-name="Gcommaaccent.alt" horiz-adv-x="1480" 
d="M805 -18q-147 0 -280 54t-230 148t-154 227.5t-57 284.5t57 285t154 227.5t230 148t280 54.5q378 0 567 -281l-164 -122q-68 101 -164.5 152.5t-242.5 51.5q-213 0 -351.5 -147t-138.5 -369q0 -223 138.5 -370.5t353.5 -147.5q171 0 275.5 68.5t144.5 179.5h-394v195h648
q-6 -299 -186 -469t-486 -170zM690 -524l68 188q-33 15 -53.5 48t-20.5 73q0 57 39.5 96t93.5 39q55 0 95 -39t40 -96q0 -23 -7.5 -47t-16 -39.5t-25.5 -44.5l-106 -178h-107z" />
    <glyph glyph-name="Kcommaaccent.alt" horiz-adv-x="1261" 
d="M371 614l557 779h241l-583 -815l616 -578h-305l-526 494v-494h-219v1393h219v-779zM522 -524l68 188q-33 15 -53.5 48t-20.5 73q0 57 39.5 96t93.5 39q55 0 95 -39t40 -96q0 -23 -7.5 -47t-16 -39.5t-25.5 -44.5l-106 -178h-107z" />
    <glyph glyph-name="abreve.alt" horiz-adv-x="882" 
d="M432 782q-107 0 -174.5 60t-85.5 155l164 25q20 -80 96 -80t96 80l164 -25q-18 -95 -85.5 -155t-174.5 -60zM379 -18q-138 0 -232 105t-94 263q0 159 94 264t232 105q150 0 213 -98v79h205v-700h-205v80q-63 -98 -213 -98zM432 162q77 0 120.5 50.5t43.5 137.5t-43.5 138
t-120.5 51q-78 0 -123 -51t-45 -138q0 -86 45 -137t123 -51z" />
    <glyph glyph-name="amacron.alt" horiz-adv-x="882" 
d="M244 836v155h405v-155h-405zM379 -18q-138 0 -232 105t-94 263q0 159 94 264t232 105q150 0 213 -98v79h205v-700h-205v80q-63 -98 -213 -98zM432 162q77 0 120.5 50.5t43.5 137.5t-43.5 138t-120.5 51q-78 0 -123 -51t-45 -138q0 -86 45 -137t123 -51z" />
    <glyph glyph-name="aogonek.alt" horiz-adv-x="882" 
d="M774 0l-61 -100q-47 -77 -47 -131q0 -60 53 -60q49 0 76 51l98 -69q-62 -101 -186 -101q-75 0 -128 43t-53 117q0 77 66 172l53 78h-53v80q-63 -98 -213 -98q-138 0 -232 105t-94 263q0 159 94 264t232 105q150 0 213 -98v79h205v-700h-23zM432 162q77 0 120.5 50.5
t43.5 137.5t-43.5 138t-120.5 51q-78 0 -123 -51t-45 -138q0 -86 45 -137t123 -51z" />
    <glyph glyph-name="gbreve.alt" horiz-adv-x="890" 
d="M440 782q-107 0 -174.5 60t-85.5 155l164 25q20 -80 96 -80q77 0 97 80l163 -25q-18 -95 -85.5 -155t-174.5 -60zM61 -240l160 90q73 -131 201 -131q85 0 131.5 48.5t46.5 144.5v168q-63 -98 -217 -98q-138 0 -234 105t-96 263t96 263.5t234 105.5q154 0 217 -98v79h205
v-788q0 -174 -98.5 -270.5t-276.5 -96.5q-250 0 -369 215zM436 162q78 0 123 51t45 137q0 87 -45 138t-123 51t-125 -51.5t-47 -137.5t47 -137t125 -51z" />
    <glyph glyph-name="gcircumflex.alt" horiz-adv-x="890" 
d="M174 791l264 311h11l264 -311h-162l-107 88l-108 -88h-162zM430 -455q-250 0 -369 215l160 90q73 -131 201 -131q85 0 131.5 48.5t46.5 144.5v168q-63 -98 -217 -98q-138 0 -234 105t-96 263t96 263.5t234 105.5q154 0 217 -98v79h205v-788q0 -174 -98.5 -270.5
t-276.5 -96.5zM436 162q78 0 123 51t45 137q0 87 -45 138t-123 51t-125 -51.5t-47 -137.5t47 -137t125 -51z" />
    <glyph glyph-name="gcommaaccent.alt" horiz-adv-x="890" 
d="M418 795q-55 0 -96 39t-41 96q0 67 47 143l108 174h105l-70 -188q36 -17 61 -50.5t25 -76.5q0 -59 -41 -98t-98 -39zM61 -240l160 90q73 -131 201 -131q85 0 131.5 48.5t46.5 144.5v168q-63 -98 -217 -98q-138 0 -234 105t-96 263t96 263.5t234 105.5q154 0 217 -98v79
h205v-788q0 -174 -98.5 -270.5t-276.5 -96.5q-250 0 -369 215zM436 162q78 0 123 51t45 137q0 87 -45 138t-123 51t-125 -51.5t-47 -137.5t47 -137t125 -51z" />
    <glyph glyph-name="kcommaaccent.alt" horiz-adv-x="796" 
d="M287 274v-274h-205v1454h205v-1044l223 290h229q-266 -342 -268 -342l311 -358h-262q-149 176 -233 274zM283 -524l67 188q-33 15 -53.5 48t-20.5 73q0 57 40 96t94 39q55 0 95 -39t40 -96q0 -23 -7.5 -47t-16 -39.5t-25.5 -44.5l-107 -178h-106z" />
    <glyph glyph-name="ubreve.alt" horiz-adv-x="827" 
d="M414 782q-107 0 -174.5 60t-85.5 155l163 25q20 -80 97 -80q76 0 96 80l164 -25q-18 -95 -85.5 -155t-174.5 -60zM406 -18q-161 0 -245.5 86.5t-84.5 244.5v387h205v-381q0 -81 31.5 -120t101.5 -39t101.5 39t31.5 120v381h205v-387q0 -156 -91.5 -243.5t-254.5 -87.5z
" />
    <glyph glyph-name="uhungarumlaut.alt" horiz-adv-x="827" 
d="M477 791l92 311h207l-139 -311h-160zM190 791l93 311h206l-139 -311h-160zM406 -18q-161 0 -245.5 86.5t-84.5 244.5v387h205v-381q0 -81 31.5 -120t101.5 -39t101.5 39t31.5 120v381h205v-387q0 -156 -91.5 -243.5t-254.5 -87.5z" />
    <glyph glyph-name="umacron.alt" horiz-adv-x="827" 
d="M211 836v155h405v-155h-405zM406 -18q-161 0 -245.5 86.5t-84.5 244.5v387h205v-381q0 -81 31.5 -120t101.5 -39t101.5 39t31.5 120v381h205v-387q0 -156 -91.5 -243.5t-254.5 -87.5z" />
    <glyph glyph-name="uogonek.alt" horiz-adv-x="827" 
d="M362 -16q-140 10 -213 95.5t-73 233.5v387h205v-381q0 -81 31.5 -120t101.5 -39t101.5 39t31.5 120v381h205v-387q0 -133 -66 -216.5t-188 -106.5l-56 -90q-47 -77 -47 -131q0 -60 54 -60q48 0 75 51l99 -69q-62 -101 -187 -101q-75 0 -127.5 42.5t-52.5 117.5
q0 77 66 172z" />
    <glyph glyph-name="uring.alt" horiz-adv-x="827" 
d="M414 776q-78 0 -136.5 54.5t-58.5 127.5q0 75 58.5 130t136.5 55t136 -55t58 -130q0 -73 -58 -127.5t-136 -54.5zM406 -18q-161 0 -245.5 86.5t-84.5 244.5v387h205v-381q0 -81 31.5 -120t101.5 -39t101.5 39t31.5 120v381h205v-387q0 -156 -91.5 -243.5t-254.5 -87.5z
M414 887q30 0 48.5 19t18.5 52t-18.5 53.5t-48.5 20.5t-49 -20.5t-19 -53.5t19 -52t49 -19z" />
    <glyph glyph-name="idotaccent" horiz-adv-x="376" 
d="M188 893q-52 0 -90.5 37.5t-38.5 91.5t38.5 91.5t90.5 37.5q53 0 91 -37t38 -92t-38 -92t-91 -37zM86 0v700h205v-700h-205z" />
    <glyph glyph-name="hyphen.up" horiz-adv-x="536" 
d="M80 434v187h377v-187h-377z" />
    <glyph glyph-name="space.up" horiz-adv-x="454" 
 />
    <glyph glyph-name="_440" horiz-adv-x="1024" 
 />
    <glyph glyph-name="infinity" horiz-adv-x="1263" 
d="M1075 893q-52 0 -90.5 37.5t-38.5 91.5t38.5 91.5t90.5 37.5q53 0 91 -37t38 -92t-38 -92t-91 -37zM752 530v-530h-205v530h-221v-530h-205v530h-82v170h82v510q0 128 61 194t164 66q105 0 174 -49l-86 -151q-23 20 -57 20q-22 0 -36.5 -19t-14.5 -59v-512h221v508
q0 128 62 195t173 67q130 0 199 -79l-115 -129q-21 28 -63 28q-51 0 -51 -80v-510h426v-700h-205v530h-221z" />
    <glyph glyph-name="notequal" horiz-adv-x="958" 
d="M752 530v-530h-205v530h-221v-530h-205v530h-82v170h82v510q0 128 61 194t164 66q105 0 174 -49l-86 -151q-23 20 -57 20q-22 0 -36.5 -19t-14.5 -59v-512h221v508q0 128 62 195t173 67q130 0 199 -79l-115 -129q-21 28 -63 28q-51 0 -51 -80v-510h168v-170h-168z" />
    </font>
</defs>
</svg>
