<?xml version="1.0" encoding="utf-8"?>
<!-- Generator: Adobe Illustrator 25.3.1, SVG Export Plug-In . SVG Version: 6.00 Build 0)  -->
<svg version="1.1" id="Layer_1" xmlns="http://www.w3.org/2000/svg" xmlns:xlink="http://www.w3.org/1999/xlink" x="0px" y="0px"
	 viewBox="0 0 624 487.1" style="enable-background:new 0 0 624 487.1;" xml:space="preserve">
<style type="text/css">
	.st0{fill:none;stroke:#4DC3B7;stroke-width:4;stroke-miterlimit:10;}
	.st1{fill:none;stroke:#4FC4B9;stroke-miterlimit:10;}
	.st2{opacity:0.34;fill:#4FC4B9;}
	.st3{fill:#C3DC58;}
	.st4{fill:#443B31;}
	.st5{fill:#4FC4B9;}
	.st6{opacity:0.96;fill:#FFFFFF;}
	.st7{fill:none;stroke:#CB1939;stroke-width:4;stroke-linecap:round;stroke-linejoin:round;stroke-miterlimit:10;}
	.st8{fill:#EF6A05;}
</style>
<g>
	<path class="st0" d="M14.4,364.3c5-9.2,13.5-15.9,22-22.1c6.6-4.8,13.4-9.5,21-12.6c16.6-6.8,45.7-7.1,59.3,6.7
		c8.4,8.5,15.2,18.5,20.7,29.2c4.6,9.1,11.6,22.2,11.6,32.6c0,20.1-16.5,42-32.1,52.5c-20.3,13.7-48,16-70,5.1
		C16.8,440.6-2.2,395.2,14.4,364.3z"/>
	<g>
		<path class="st1" d="M19.7,359c-4.8,10.5-4.5,23-1.4,34.2c6.8,24.7,27.2,45.2,51.6,51.3s51.8-2.7,67.9-22.2
			c4.6-5.6,8.4-12.1,10.1-19.3c1.5-6.4,1.3-13.1,0.2-19.6c-4.7-27.6-26.5-50.7-52.5-59.5c-14.3-4.8-31.8-5.2-44.5,3.8
			C39.8,335.9,25.7,346,19.7,359z"/>
	</g>
	<path class="st2" d="M68.6,411.9c-0.7-1.7-1.2-3.5-2.2-5.1c-1.6-2.6-4.4-4.1-7.3-5c-2.9-0.9-5.8-1.2-8.8-1.8
		c-1.7-0.4-3.5-0.8-4.9-1.9c-3.5-2.7-3.7-8.1-2.1-12.2c1.6-4.1,4.6-7.5,6.6-11.4c1.4-2.7,2.4-5.7,4.7-7.6c3.3-2.7,8.5-2.8,10.9-6.3
		c1.1-1.6,1.3-3.7,2-5.5c1.4-3.5,4.8-5.8,8.4-6.7c3.6-0.9,7.4-0.4,10.9,0.5c2.9,0.8,5.8,1.8,8.2,3.7c2.8,2.2,4.8,5.3,7.2,8
		c2.9,3.4,6.5,6.2,10.4,8.3c1.4,0.8,2.9,1.4,4,2.6c1.2,1.3,1.8,3.1,2.3,4.9c1.2,4.3,1.9,9.1-0.1,13.1c-1.8,3.7-5.6,5.9-8,9.1
		c-1.9,2.5-2.9,5.6-4.5,8.3c-4.4,7.1-12.4,8.2-19.3,11.7C79.9,422.1,71.9,419.6,68.6,411.9z"/>
	<path class="st3" d="M65,381.3c-0.7-0.2-1.5-0.3-2.1-0.8c-1.9-1.4-0.4-4.7,1.8-5.5c2.2-0.9,4.7-0.6,6.7-1.7
		c3.1-1.6,4.1-5.6,5.4-8.9c1.3-3.3,4.3-6.8,7.6-5.7c2.1,0.6,3.3,2.8,4.4,4.6c2.1,3.5,4.7,6.7,7.7,9.4c3.2,3,7.1,5.9,8.3,10.2
		c1.1,3.8-0.2,7.7-1.4,11.4c-0.7,2.1-1.6,4.4-3.6,5.3c-1.4,0.6-2.9,0.4-4.4,0.8c-4.6,1-7.2,6.8-11.9,7.7c-4.2,0.8-8-2.9-10.3-6.6
		C70.1,396.1,71.5,383.3,65,381.3z"/>
	<path class="st4" d="M61.9,396.5c5.5-3-6.5-5.8-4.7-0.5c0.2,0.6,0.9,0.9,1.5,1C59.7,397.2,60.9,397,61.9,396.5z"/>
	<g>
		<path class="st4" d="M73.5,353.2C73.5,353.2,73.5,353.2,73.5,353.2c0.1,0,0.1-0.1,0.2-0.1L73.5,353.2z"/>
		<path class="st4" d="M73.5,353.2c-0.9,0.4-1,1.7-1,2.7c0,0.8,0.1,1.7,0.4,2.4c0.4,0.7,1.2,1.3,2,1c0.8-0.2,1.2-1.2,1.3-2.1
			c0.1-0.9,0-1.9-0.5-2.7C75.2,353.8,74.4,353.2,73.5,353.2z"/>
		<path class="st4" d="M84.1,351.2l-0.1,0c0.2-0.3-0.2-0.6-0.5-0.5c-0.3,0.1-0.4,0.5-0.5,0.8c-0.2,0.9,0,1.9,0.5,2.7
			c0.1,0.2,0.3,0.4,0.5,0.3c0.2,0,0.3-0.1,0.4-0.3C85.1,353.3,84.9,352,84.1,351.2z"/>
		<path class="st4" d="M105.2,368.6c0.9-0.1,1.8-0.5,2.3-1.2c3.2-4.7-8.1-4.2-4.6,0.5C103.4,368.6,104.4,368.8,105.2,368.6z"/>
		<path class="st4" d="M59.3,372.9c-0.2-0.8-1-1.4-1.8-1.8c-1.4-0.7-3.9-1-3.4,1c0,0.2,0.1,0.3,0.2,0.5
			C54.9,374.1,60.3,376.3,59.3,372.9z"/>
		<path class="st4" d="M69.3,410.9c-1-0.5-1,0.4-2,0.7c-1.1,0.4-2.3,0.8-3,1.7c-0.7,0.9-0.7,2.6,0.3,3.1c0.7,0.4,1.6,0.1,2.3-0.2
			c1.4-0.6,2.8-1.6,3.2-3.1C70.3,412.3,70.1,411.2,69.3,410.9z"/>
		<path class="st4" d="M64.5,407.2c0.1,0.6,0.8,1,1.4,1.1c0.7,0.1,1.4,0.2,2.1-0.1c3.2-1.5-1.1-4.9-3.2-1.9
			C64.6,406.5,64.4,406.8,64.5,407.2z"/>
		<path class="st4" d="M76.7,415.2c0.2-0.1,0.3-0.3,0.3-0.4C76.8,415.1,76.5,415.4,76.7,415.2z"/>
		<path class="st4" d="M76.9,414.6C76.8,414.4,76.7,414.3,76.9,414.6L76.9,414.6z"/>
		<path class="st4" d="M76.9,414.6C76.9,414.6,76.9,414.6,76.9,414.6C77,414.6,77,414.6,76.9,414.6
			C76.9,414.6,76.9,414.6,76.9,414.6z"/>
		<path class="st4" d="M77,414.7C77,414.7,77,414.8,77,414.7c0,0.2-0.1,0.4-0.3,0.5C76.5,415.4,76.8,415.1,77,414.7
			C77,414.7,77,414.7,77,414.7c-0.9,0.9-1.4,2.3-1.3,3.6c0,0.7,0.2,1.4,0.7,1.9c0.5,0.5,1.2,0.8,1.9,0.6c0.8-0.3,1.2-1.2,1.3-2.1
			c0.1-0.9,0.1-1.9-0.4-2.7C78.7,415.3,77.9,414.7,77,414.7z"/>
		<path class="st4" d="M95.9,409.2c-0.8,1.1,0.1,3.8,0.6,4.8c0.6,1.2,1.9,2.3,3.1,1.9c0.7-0.3,1.1-1,1.4-1.7
			C101.6,412,98.2,406.2,95.9,409.2z"/>
		<path class="st4" d="M103.9,406.8c-0.7-0.3-1.4-0.2-1.9,0.2c-1.3,1.4,0.9,3.5,2.1,4c0.8,0.3,1.8,0.2,2.2-0.5
			C107.2,409.3,105.5,407.4,103.9,406.8z"/>
		<path class="st4" d="M116.7,403.2c0.4,0.1,0.8,0.1,1.1,0c0.1,0,0.1-0.1,0.2-0.1c0.5-0.4,0.7-1.1,0.4-1.7
			C117.6,399,112.8,402.4,116.7,403.2z"/>
		<path class="st4" d="M108.2,394.4c-0.1,0.2-0.2,0.5-0.3,0.8c-0.4,2.4,4.2,4.8,5.1,2.1C113.8,394.9,109.5,392.4,108.2,394.4z"/>
		<path class="st4" d="M112.5,388.1c0.3,0.3,0.7,0.5,1.2,0.6c0.4,0.1,1,0.2,1.7,0.2c1.5,0,3.3-0.4,3.6-1.8
			C119.6,383.3,109.4,384.5,112.5,388.1z"/>
		<path class="st4" d="M106.3,379.8C106.3,379.8,106.4,379.9,106.3,379.8c2.2,4.2,7.8-2.8,3.5-3.1
			C108.3,376.6,105.4,378,106.3,379.8z"/>
	</g>
	<path class="st5" d="M149.4,396.6c-0.1-0.4-0.3-4.6-0.5-5c-0.2,2-1.1,9.5-1.5,11.3c-1.5,6.5-4.9,12.9-10,19
		c-15.9,19.2-42.9,28.1-67.3,22c-11.8-3-22.9-9.4-32.1-18.5c-9.1-9.1-15.7-20.3-19-32.3c-3.4-12.4-2.9-24.4,1.3-33.7
		c2-4.4,5-8.5,8.5-12.3c0,0-0.1,0.1-0.1,0.1c0,0,2.3-3.3,2.3-3.3c-1.6,1.5-3.3,1.6-7.3,7.5c-0.2,0.2-0.4,0.4-0.6,0.6
		c-1.5,2.2-2.9,4.5-4,6.8c-4.4,9.6-4.9,22-1.4,34.7c3.4,12.3,10.1,23.7,19.4,32.9c9.3,9.3,20.7,15.8,32.7,18.9
		c9.5,2.4,19.4,2.5,29,0.7c15.3-2.9,29.7-11,39.7-23.1c5.2-6.3,8.7-12.9,10.2-19.6c0.2-0.7,0.3-1.5,0.5-2.3
		C149,400.1,149.6,397.4,149.4,396.6z"/>
	<path class="st6" d="M65,381.3c-0.7-0.2-1.5-0.3-2.1-0.8c-1.9-1.4-0.4-4.7,1.8-5.5c2.2-0.9,4.7-0.6,6.7-1.7
		c3.1-1.6,4.1-5.6,5.4-8.9c1.3-3.3,4.3-6.8,7.6-5.7c2.1,0.6,3.3,2.8,4.4,4.6c2.1,3.5,4.7,6.7,7.7,9.4c3.2,3,7.1,5.9,8.3,10.2
		c1.1,3.8-0.2,7.7-1.4,11.4c-0.7,2.1-1.6,4.4-3.6,5.3c-1.4,0.6-2.9,0.4-4.4,0.8c-4.6,1-7.2,6.8-11.9,7.7c-4.2,0.8-8-2.9-10.3-6.6
		C70.1,396.1,71.5,383.3,65,381.3z"/>
	<path class="st7" d="M603,170.4c-2.3-4.6-5.8-8.4-9.9-11.5c-0.1-0.1-0.2-0.2-0.3-0.3c-3.5-2.8-4.8-7.7-2.6-11.6
		c0.2-0.3,0.4-0.6,0.6-0.9c2.1-2.9,4-5.4,4-5.4c-2.9-0.7-6.9-0.7-11.2,1.5l6.4-12.4c0,0-7.4-1-16.7,8.2c-0.2-0.1-4.4-18.3-4.4-18.3
		s0.3,9.9-3.6,15.8c-2.1,3.1-5.9,5.4-12.2,1.5c-8.9-5.5-27-5.8-39.5,14.2c-12.5,19.9-12.7,38.5,11.9,61.9
		c24.6,23.4,51.5,18.8,66.1,2C604,200.4,611.3,186.8,603,170.4z"/>
	<g>
		<path class="st8" d="M542.8,50c0.3-0.2,0.5-0.4,0.7-0.6c0.2-0.2,0.4-0.3,0.6-0.5c1.1-1.2,2.2-2.3,3.3-3.5c1.1-1.2,2.1-2.4,3.1-3.7
			c0.5-0.7,1.1-1.4,1.6-2.1c0.5-0.7,1.1-1.4,1.6-2.1c0.5-0.6,1-1.2,1.4-1.8c0.5-0.6,1-1.2,1.5-1.7c0.7-0.8,1.4-1.6,2-2.4
			c0.7-0.8,1.3-1.6,2-2.3c0.2-0.2,0.5-0.5,0.7-0.7c0.3-0.2,0.6-0.3,0.9-0.4c0.2-0.1,0.5-0.1,0.7-0.1c0.2,0,0.4,0.1,0.7,0.4
			c-0.1,0.1-0.1,0.2-0.2,0.3c0,0.1-0.1,0.2-0.1,0.2l-0.7,1.2c-0.1,0.2-0.2,0.3-0.3,0.5c-0.1,0.2-0.2,0.3-0.3,0.5
			c-0.4,0.4-0.7,0.8-1,1.2s-0.7,0.8-1,1.2c-0.2,0.3-0.5,0.5-0.7,0.8c-0.2,0.3-0.5,0.6-0.7,0.8c-0.8,0.8-1.5,1.7-2.1,2.6
			c-0.6,0.9-1.3,1.8-2,2.7c-1,1.4-2,2.7-3,4.1c-1,1.4-2,2.7-3.2,4c-0.7,0.8-1.4,1.6-2.1,2.3c-0.7,0.7-1.5,1.4-2.3,2.1
			c-0.5,0.4-0.9,0.7-1.4,1c-0.5,0.3-0.9,0.7-1.4,1c0,0-0.1,0-0.1,0.1c0,0,0,0-0.1,0c-0.2-0.1-0.4,0-0.6,0c-0.2,0.1-0.4,0.1-0.5,0.1
			c-0.2,0-0.4,0-0.6-0.1c-0.2-0.1-0.4-0.1-0.6-0.2c-0.1,0-0.2,0-0.2-0.1c-0.1,0-0.2-0.1-0.3-0.1c-0.7,0-1.2-0.3-1.5-0.9
			c-0.2-0.5-0.4-1-0.4-1.4c-0.1-1.4-0.1-2.8-0.1-4.1c0-1.4,0-2.7,0.1-4s0.1-2.6,0.1-4c0.1-0.9,0.1-1.9,0.2-2.8
			c0.1-0.9,0.1-1.8,0.2-2.8c0-0.6,0.1-1.2,0.1-1.8c0-0.6,0.1-1.1,0.1-1.7c0.1-1.5,0.3-3,0.5-4.5c0.2-1.5,0.5-3,0.8-4.4
			c0.1-0.5,0.2-0.9,0.4-1.4c0.2-0.5,0.3-0.9,0.5-1.3c0.1-0.2,0.2-0.3,0.3-0.5c0.1-0.1,0.2-0.3,0.3-0.4c0.1-0.1,0.2-0.2,0.2-0.3
			c0.1-0.1,0.1-0.2,0.2-0.3c0.3-0.4,0.7-0.6,1.1-0.6c0.4,0,0.8,0.2,1,0.7c0.3,0.5,0.5,1,0.6,1.5c0.1,0.5,0.2,1.1,0.2,1.6
			c0.1,1.4,0.1,2.8,0,4.1c0,1.3-0.1,2.7-0.1,4.1c0,1,0,1.9,0,2.9c0,1,0,1.9,0,2.9c0,1.1-0.1,2.2-0.1,3.3c0,1.1-0.1,2.2-0.1,3.3
			c0,1.2,0,2.4,0,3.6c0,1.2,0,2.4,0,3.6c0,0.1,0,0.1,0,0.2C542.8,49.8,542.8,49.9,542.8,50z"/>
		<path class="st8" d="M562,56.2c-0.2,0.3-0.4,0.7-0.6,1c-0.2,0.3-0.3,0.5-0.5,0.7c-0.2,0.2-0.3,0.4-0.4,0.4
			c-0.3,0.2-0.5,0.3-0.7,0.3c-0.2,0-0.5-0.1-0.7-0.3c-0.3-0.3-0.5-0.7-0.5-1.1c0-0.4,0-0.8,0.1-1.1c0.1-0.3,0.1-0.5,0.2-0.7
			c0.1-0.2,0.2-0.4,0.3-0.5c0.1-0.2,0.2-0.3,0.3-0.5c0.5-0.7,0.9-1.4,1.4-2.1c0.5-0.7,0.9-1.4,1.4-2c0.4-0.6,0.8-1.2,1.3-1.8
			c0.4-0.6,0.9-1.2,1.4-1.7c0.3-0.3,0.6-0.6,0.8-1c0.3-0.3,0.5-0.7,0.8-1c0.2-0.2,0.4-0.4,0.5-0.6c0.2-0.2,0.3-0.4,0.5-0.6
			c0.2-0.2,0.3-0.4,0.5-0.6c0.2-0.2,0.3-0.4,0.5-0.6c0.2-0.2,0.5-0.4,0.7-0.6c0.3-0.2,0.7-0.3,1.1-0.2c0.4,0.1,0.7,0.3,0.8,0.7
			c0.1,0.1,0.1,0.3,0.1,0.4c0,0.1,0,0.3,0,0.4c0,0.3-0.1,0.5-0.2,0.7s-0.2,0.5-0.3,0.7c-0.3,0.5-0.6,1.1-0.9,1.6
			c-0.3,0.5-0.7,1-1.1,1.4c-0.3,0.3-0.5,0.6-0.8,0.9c-0.2,0.3-0.5,0.6-0.8,0.9l0,0c-0.3,0.4-0.6,0.8-0.9,1.1
			c-0.3,0.4-0.6,0.7-0.9,1.1l-2.9,4c-0.1,0.1-0.2,0.3-0.3,0.4C562.3,55.9,562.2,56,562,56.2z M572.4,40.9c-0.1,0-0.2-0.1-0.3-0.1
			c-0.1-0.1-0.2-0.2-0.3-0.3c-0.1-0.1-0.1-0.2-0.1-0.4c0-0.2,0.1-0.4,0.2-0.6c0.1-0.2,0.3-0.4,0.5-0.5c0.2-0.1,0.3-0.2,0.5-0.2
			c0.2,0,0.4,0,0.6,0c0.1,0,0.1,0.1,0.2,0.2c0.1,0.2,0.2,0.3,0.3,0.5c0.1,0.2,0.1,0.4,0,0.7c-0.1,0.3-0.2,0.6-0.3,0.7
			c-0.1,0.1-0.2,0.1-0.3,0.1c-0.1,0-0.2,0-0.3,0c-0.1,0-0.3-0.1-0.4-0.1C572.7,41,572.6,40.9,572.4,40.9z"/>
		<path class="st8" d="M584.2,52.2c0-0.1-0.1-0.2-0.2-0.3c-0.1-0.1-0.1-0.2-0.2-0.3l-2.4-2.6c-0.2-0.2-0.4-0.4-0.6-0.6
			c-0.2-0.2-0.4-0.4-0.6-0.6c-0.1-0.1-0.2-0.2-0.3-0.4c-0.1-0.1-0.1-0.3-0.2-0.4c0-0.1-0.1-0.3-0.1-0.4c0-0.1-0.1-0.3-0.1-0.4
			c0.3-0.2,0.6-0.2,0.8,0.1c0.3,0.3,0.6,0.6,1,0.8c0.3,0.3,0.6,0.6,0.9,0.8c0.5,0.5,1,0.9,1.5,1.4c0.5,0.5,0.9,1,1.3,1.5
			c0,0,0.1,0.1,0.1,0.1c0.1,0.1,0.1,0.1,0.2,0.1c0.2-0.1,0.4-0.3,0.6-0.4c0.2-0.1,0.4-0.3,0.5-0.4c0.4-0.3,0.7-0.5,1.1-0.7
			c0.3-0.2,0.7-0.4,1.1-0.7c0.2-0.1,0.4-0.3,0.6-0.4c0.2-0.1,0.4-0.3,0.6-0.4l0.2-0.1c0.4-0.4,0.9-0.5,1.3-0.2
			c0.2,0.1,0.4,0.3,0.6,0.5c0.2,0.2,0.3,0.4,0.3,0.7c0,0.2,0,0.5-0.1,0.7c-0.1,0.2-0.2,0.4-0.4,0.6c-0.2,0.1-0.4,0.3-0.5,0.4
			c-0.2,0.2-0.3,0.3-0.5,0.5c-0.3,0.3-0.7,0.6-1,0.8c-0.3,0.2-0.7,0.5-1,0.8l-0.8,0.7c0.1,0.1,0.3,0.3,0.4,0.4
			c0.1,0.1,0.2,0.3,0.4,0.4c0.5,0.5,0.9,1.1,1.4,1.6c0.4,0.5,0.8,1.1,1.1,1.8c0.1,0.1,0.2,0.3,0.2,0.4c0.1,0.2,0.1,0.3,0.2,0.5
			c0,0.1,0,0.1,0,0.2c0,0.1,0,0.1,0,0.2c-0.2,0-0.4,0-0.6-0.1c-0.1-0.1-0.3-0.2-0.4-0.3c-0.3-0.3-0.5-0.5-0.7-0.8
			c-0.2-0.3-0.5-0.5-0.7-0.7c-0.4-0.4-0.7-0.7-1.1-1.1c-0.4-0.3-0.7-0.7-1.1-1.1c0,0-0.1-0.1-0.1-0.1c0,0-0.1-0.1-0.2-0.1
			c-0.1,0.1-0.2,0.2-0.4,0.4c-0.2,0.2-0.4,0.4-0.7,0.6c-0.3,0.2-0.6,0.5-0.9,0.8c-0.3,0.3-0.6,0.5-0.8,0.8c-0.3,0.2-0.5,0.4-0.7,0.6
			c-0.2,0.2-0.3,0.3-0.4,0.4l-2.4,2.2c-0.3,0.3-0.7,0.6-1.2,1.1c-0.5,0.5-1.1,1.1-1.8,1.7c-0.7,0.6-1.3,1.3-2,2s-1.4,1.4-2,2
			c-0.6,0.6-1.2,1.2-1.7,1.8c-0.5,0.5-0.9,1-1.1,1.3c-0.3,0.5-0.7,0.9-1,1.4c-0.3,0.5-0.6,1-0.9,1.5c0,0.1-0.1,0.2-0.2,0.3
			c-0.1,0.1-0.1,0.2-0.2,0.3c-0.1,0.1-0.1,0.2-0.2,0.4c-0.1,0.1-0.1,0.2-0.1,0.4c-0.1,0.2-0.2,0.5-0.2,0.7c-0.1,0.2-0.1,0.5-0.2,0.7
			c-0.1,0.2-0.2,0.3-0.3,0.4c-0.1,0-0.3,0-0.5-0.1c-0.3-0.2-0.6-0.5-0.8-0.8c-0.2-0.3-0.4-0.6-0.5-1c-0.2-0.5-0.4-1-0.3-1.5
			c0-0.5,0.1-1,0.3-1.6c0.3-0.8,0.6-1.6,1.1-2.3c0.4-0.7,0.9-1.4,1.4-2.1c0.1-0.2,0.4-0.5,0.8-0.9c0.4-0.4,0.9-0.9,1.4-1.4
			c0.5-0.5,1.1-1.1,1.7-1.7c0.6-0.6,1.2-1.1,1.7-1.7c0.5-0.5,1-1,1.5-1.4c0.4-0.4,0.7-0.7,0.9-0.8c0.5-0.4,0.9-0.8,1.3-1.2
			c0.4-0.4,0.9-0.8,1.3-1.1c0.1-0.1,0.4-0.3,0.7-0.5c0.3-0.2,0.6-0.5,1-0.8c0.4-0.3,0.7-0.6,1.1-0.9c0.4-0.3,0.8-0.6,1.1-0.9
			c0.4-0.3,0.7-0.5,1-0.8c0.3-0.2,0.5-0.4,0.7-0.5L584.2,52.2z"/>
		<path class="st8" d="M615,85.9c-0.2-0.2-0.3-0.3-0.4-0.4c-0.1-0.1-0.2-0.2-0.2-0.3c0-0.1,0-0.2,0-0.3c0-0.1,0.1-0.3,0.2-0.5
			c0-0.1,0.1-0.2,0.1-0.3c0-0.7,0-1.5,0-2.2c0-0.7-0.2-1.4-0.5-2.1c-0.1-0.2-0.2-0.4-0.4-0.6c-0.2-0.2-0.3-0.4-0.4-0.6
			c-0.1-0.1-0.2-0.2-0.4-0.4c-0.2-0.2-0.4-0.3-0.6-0.5c-0.2-0.1-0.4-0.3-0.6-0.4c-0.2-0.1-0.3-0.1-0.5-0.1c-1.7,0.2-3.3,0.4-4.9,0.8
			c-1.6,0.4-3.1,1-4.6,1.8c-1.4,0.8-2.7,1.6-3.9,2.5c-1.2,0.9-2.4,1.9-3.4,3.1c-0.6,0.6-1.1,1.2-1.6,1.8c-0.5,0.6-0.8,1.3-0.9,2.1
			c-0.1,0.4-0.1,0.7-0.1,1c0,0.3-0.1,0.6-0.1,1c0,0.1,0.1,0.3,0.3,0.6c0.2,0.2,0.4,0.5,0.6,0.8c0.2,0.3,0.4,0.5,0.7,0.7
			c0.2,0.2,0.4,0.3,0.5,0.4c0.5,0.2,1,0.3,1.6,0.3c0.5,0,1.1,0,1.6-0.1c0.4-0.1,0.7-0.1,1.1-0.3c0.4-0.1,0.8-0.2,1.2-0.3
			c0.4-0.1,0.8-0.2,1.2-0.3c0.4-0.1,0.8-0.1,1.3-0.1c0.3,0.1,0.5,0.2,0.7,0.4c0.1,0.2,0.1,0.5-0.1,0.8c-0.1,0.2-0.3,0.5-0.5,0.7
			c-0.2,0.2-0.4,0.4-0.7,0.5c-0.8,0.3-1.5,0.6-2.3,0.9c-0.8,0.3-1.5,0.5-2.3,0.7c-0.9,0.2-1.8,0.3-2.7,0.3c-0.9,0-1.8-0.1-2.6-0.3
			c-2.1-0.5-3.7-1.4-4.8-2.8c-1.1-1.4-1.6-3.2-1.4-5.4c0.1-1.6,0.4-3,1.1-4.3c0.7-1.3,1.5-2.5,2.6-3.7c1.2-1.3,2.4-2.4,3.8-3.3
			c1.4-1,2.8-1.8,4.3-2.6c1.1-0.6,2.2-1.1,3.4-1.6c1.1-0.5,2.3-0.9,3.5-1.2c2.1-0.5,4.1-0.6,6-0.3c1.9,0.3,3.7,1.1,5.4,2.5
			c0.4,0.3,0.7,0.6,1,1c0.3,0.4,0.6,0.8,0.8,1.2c0.4,0.7,0.8,1.4,1.1,2.2c0.3,0.8,0.4,1.6,0.5,2.4c0,0.5,0,0.9-0.1,1.4
			c0,0.5-0.1,0.9-0.3,1.3c-0.3,0.6-0.6,1.1-1.1,1.5C616.3,85.6,615.7,85.8,615,85.9z"/>
	</g>
</g>
<g>
	<path class="st8" d="M458.3,40.7c-0.2,0.3-0.4,0.5-0.7,0.6c-0.3,0.1-0.6,0.2-0.9,0.3c-0.3,0.1-0.7,0.1-1,0
		c-0.1-0.1-0.1-0.3-0.2-0.4c-0.1-0.1-0.1-0.2-0.2-0.4c-0.3-0.5-0.5-1-0.7-1.5c-0.2-0.5-0.3-1.1-0.4-1.6c0-0.3-0.1-0.5-0.2-0.8
		s-0.1-0.6-0.2-0.8c-0.1-0.5-0.2-0.9-0.3-1.4s-0.2-0.9-0.3-1.4c-0.2-0.8-0.3-1.6-0.5-2.4c-0.2-0.8-0.3-1.6-0.4-2.4
		c-0.1-0.7-0.2-1.4-0.3-2c-0.1-0.7-0.2-1.3-0.3-2c0-0.1,0-0.2-0.1-0.3c0-0.1,0-0.2-0.1-0.3l-8.6,1.4c0.1,0.3,0.1,0.6,0.2,0.8
		c0.1,0.3,0.1,0.6,0.2,0.8c0.1,0.5,0.2,1.1,0.3,1.7s0.2,1.1,0.3,1.7c0.1,0.5,0.2,1.1,0.4,1.6c0.1,0.5,0.3,1.1,0.4,1.6
		c0.3,1.1,0.5,2.2,0.7,3.3c0.2,1.1,0.4,2.2,0.4,3.3c0,0.5,0.1,1,0,1.5c0,0.5-0.1,1-0.2,1.5c-0.1,0.2-0.1,0.4-0.3,0.5
		c-0.1,0.1-0.3,0.2-0.5,0.2c-0.1,0-0.2,0-0.2-0.1c-0.1-0.1-0.2-0.1-0.2-0.2c-0.5-0.4-0.8-0.8-1.1-1.4c-0.2-0.5-0.4-1-0.6-1.6
		c-0.3-1.2-0.6-2.3-0.9-3.5c-0.3-1.1-0.6-2.3-0.9-3.5c-0.6-2.3-1.1-4.5-1.5-6.9c-0.1-0.4-0.1-0.8-0.2-1.2c-0.1-0.4-0.1-0.8-0.2-1.2
		c-0.2-1.3-0.3-2.6-0.5-3.9c-0.1-0.7-0.1-1.4-0.2-2.1c-0.1-0.7-0.1-1.4-0.2-2.1c0-0.4-0.1-0.8-0.1-1.2c0-0.4-0.1-0.8-0.1-1.2
		c0-0.2,0-0.4,0.1-0.6c0.1-0.2,0.1-0.4,0.2-0.6c0-0.1,0.1-0.1,0.1-0.1c0,0,0.1-0.1,0.1-0.1c0.2,0,0.4-0.1,0.6-0.1
		c0.2,0,0.4,0,0.6,0.1c0,0,0.1,0,0.1,0c0.1,0,0.1,0,0.2,0c0.1,0,0.3,0.1,0.4,0.2c0.1,0.1,0.2,0.3,0.4,0.4c0.1,0.2,0.2,0.3,0.3,0.5
		c0.1,0.2,0.1,0.3,0.1,0.5c0,0.3,0.1,0.5,0.1,0.8c0.1,0.2,0.1,0.5,0.1,0.8c0.1,0.6,0.2,1.1,0.3,1.7c0.1,0.6,0.2,1.1,0.3,1.7
		c0.1,0.8,0.3,1.6,0.4,2.4c0.1,0.8,0.3,1.6,0.4,2.4c0,0,0,0.1,0,0.1c0,0,0,0.1,0,0.1c0.7-0.2,1.4-0.3,2.1-0.5
		c0.7-0.2,1.4-0.3,2.1-0.5c0.7-0.1,1.4-0.3,2.2-0.4c0.7-0.1,1.5-0.2,2.2-0.3c0-0.2,0-0.4-0.1-0.6c0-0.2,0-0.4-0.1-0.6
		c-0.1-0.9-0.2-1.7-0.3-2.5c-0.1-0.8-0.2-1.7-0.3-2.5c-0.1-0.7-0.1-1.3-0.2-2c0-0.6,0-1.3,0-2c0-0.3,0.1-0.6,0.1-0.8
		c0.1-0.3,0.1-0.6,0.2-0.8c0.1-0.2,0.2-0.3,0.4-0.4c0.2-0.1,0.4-0.1,0.6,0c0.3,0.1,0.5,0.3,0.7,0.5c0.2,0.2,0.4,0.4,0.5,0.7
		c0.3,0.8,0.5,1.5,0.7,2.3c0.2,0.8,0.4,1.6,0.5,2.4c0.1,0.5,0.2,1,0.3,1.5c0.1,0.5,0.2,1,0.3,1.5c0.1,0.5,0.2,1,0.3,1.5
		s0.2,1,0.3,1.5c0.1,0.6,0.2,1.2,0.4,1.8c0.1,0.6,0.2,1.2,0.3,1.8c0.1,0.7,0.3,1.4,0.4,2.2c0.1,0.7,0.3,1.4,0.4,2.2
		c0.1,0.5,0.2,1.1,0.3,1.7c0.1,0.6,0.2,1.1,0.3,1.7c0.2,0.9,0.3,1.8,0.5,2.6c0.1,0.9,0.2,1.8,0.3,2.7c0,0.4,0,0.7,0,1.1
		C458.6,40.1,458.5,40.4,458.3,40.7z"/>
	<path class="st8" d="M465.1,18.6c-0.1,0.1-0.2,0.1-0.3,0.1c-0.1,0-0.3,0-0.4,0c-0.1,0-0.2-0.1-0.4-0.2c-0.1-0.1-0.2-0.3-0.3-0.6
		s-0.1-0.5,0-0.7c0.1-0.2,0.1-0.4,0.2-0.5c0.1-0.2,0.3-0.3,0.4-0.4c0,0,0.2,0,0.3,0c0.2,0,0.4,0.1,0.5,0.2c0.2,0.1,0.4,0.2,0.6,0.5
		c0.2,0.3,0.3,0.5,0.3,0.7c0,0.1,0,0.2-0.1,0.3c-0.1,0.1-0.2,0.2-0.3,0.2c-0.1,0.1-0.2,0.1-0.4,0.2
		C465.4,18.5,465.2,18.6,465.1,18.6z M468.6,37.2c0.1,0.4,0.2,0.8,0.2,1.2c0.1,0.3,0.1,0.6,0.1,0.9c0,0.3,0,0.5,0,0.6
		c-0.1,0.3-0.2,0.6-0.3,0.7c-0.2,0.2-0.4,0.3-0.7,0.3c-0.5,0-0.8-0.2-1.1-0.4c-0.3-0.3-0.5-0.6-0.7-0.9c-0.1-0.2-0.3-0.5-0.3-0.7
		c-0.1-0.2-0.1-0.4-0.2-0.6c-0.1-0.2-0.1-0.4-0.2-0.6c-0.2-0.8-0.3-1.7-0.5-2.5c-0.2-0.8-0.3-1.7-0.4-2.5c-0.1-0.7-0.3-1.5-0.4-2.2
		c-0.1-0.7-0.2-1.5-0.3-2.2c0-0.4-0.1-0.9-0.1-1.3c0-0.4-0.1-0.9-0.1-1.3c0-0.3,0-0.5,0-0.8c0-0.3,0-0.5,0-0.8
		c0-0.3-0.1-0.5-0.1-0.8c0-0.3,0-0.5-0.1-0.8c0-0.3,0-0.6,0.1-1c0.1-0.4,0.3-0.7,0.6-0.9c0.3-0.2,0.7-0.2,1.1-0.1
		c0.1,0.1,0.2,0.1,0.3,0.2c0.1,0.1,0.2,0.2,0.3,0.3c0.2,0.2,0.3,0.4,0.4,0.7s0.2,0.5,0.3,0.7c0.2,0.6,0.3,1.2,0.5,1.8
		c0.1,0.6,0.2,1.2,0.2,1.8c0,0.4,0,0.8,0.1,1.2c0,0.4,0.1,0.8,0.1,1.2l0,0c0.1,0.5,0.1,0.9,0.2,1.4c0,0.5,0.1,0.9,0.2,1.4l0.8,5
		c0,0.2,0.1,0.3,0.1,0.5C468.5,36.8,468.5,37,468.6,37.2z"/>
	<path class="st8" d="M489.7,27.3c-0.1,0.2-0.3,0.4-0.4,0.5c-0.1,0.2-0.3,0.4-0.4,0.5c-0.6,0.7-1.2,1.4-1.8,1.9
		c-0.7,0.6-1.4,1-2.3,1.4c-1.2,0.5-2.5,0.6-3.9,0.5c-0.7-0.1-1.3-0.4-1.8-0.7c-0.5-0.4-0.9-0.8-1.2-1.4c-0.3-0.5-0.4-1-0.4-1.5
		c0-0.5,0.1-1,0.3-1.5c0.3-0.9,0.6-1.7,1.2-2.4c0.5-0.7,1.1-1.4,1.8-2c0.7-0.6,1.3-1.2,2-1.7c0.7-0.5,1.5-1,2.3-1.3
		c0.8-0.3,1.6-0.6,2.4-0.8c0.8-0.2,1.6-0.4,2.5-0.4c0-0.2,0.1-0.4,0.1-0.5c0-0.2,0-0.3,0.1-0.5c0-0.2,0.1-0.3,0.1-0.5
		c0-0.2,0.1-0.3,0.1-0.5c0-0.2,0.1-0.3,0.2-0.4c0.1-0.1,0.2-0.1,0.4-0.1c0.2,0,0.4,0,0.6,0c0.2,0,0.4,0.1,0.6,0.3
		c0,0,0.1,0.1,0.1,0.2c0,0.1,0.1,0.1,0.1,0.2c0.1,0.4,0.2,0.8,0.3,1.2c0.1,0.4,0.2,0.8,0.3,1.2c0.1,0.6,0.3,1.2,0.4,1.8
		c0.1,0.6,0.2,1.2,0.3,1.9c0.2,1.6,0.4,3.3,0.4,5c0,1.7,0.1,3.3,0.1,5c0,1.2,0,2.5-0.1,3.7s-0.1,2.5-0.2,3.7c0,0.6-0.1,1.1-0.1,1.4
		c0,0.3-0.1,0.7-0.2,0.9c-0.1,0.3-0.2,0.6-0.3,0.9c-0.1,0.3-0.3,0.8-0.5,1.4c-0.2,0.6-0.4,1.2-0.7,1.7c-0.2,0.6-0.5,1.1-0.9,1.6
		c-0.8,1.3-1.9,2.4-3.2,3.3c-0.4,0.3-0.8,0.5-1.3,0.8c-0.4,0.2-0.9,0.4-1.4,0.6c-0.8,0.3-1.6,0.4-2.4,0.3c-0.8-0.1-1.6-0.3-2.4-0.7
		c-0.8-0.4-1.4-0.8-2-1.3c-0.6-0.5-1.1-1.1-1.6-1.8c-0.4-0.6-0.7-1.2-0.9-1.9c-0.2-0.6-0.4-1.3-0.4-2.1c-0.1-0.9-0.1-1.7-0.1-2.6
		c0.1-1.2,0.4-2.2,1.1-3.1c0.1-0.2,0.3-0.4,0.6-0.5c0.2-0.1,0.5-0.1,0.8-0.1c0.1,0,0.2,0,0.3,0c0.1,0,0.2,0,0.3,0c0.1,0,0.2,0,0.4,0
		c0.1,0,0.3,0.1,0.4,0.1c0.1,0.1,0.3,0.1,0.4,0.2c0.1,0.1,0.2,0.2,0.2,0.3c0,0.1,0,0.2,0,0.3c0,0.1-0.1,0.2-0.1,0.3
		c-0.3,0.5-0.5,1-0.6,1.6c-0.1,0.5-0.1,1.1-0.1,1.7c0,0.3,0,0.6,0,1c0,0.3,0,0.7,0.1,1c0.2,0.6,0.4,1.1,0.8,1.6
		c0.4,0.6,1,0.9,1.7,1.1c0.7,0.2,1.4,0.2,2.1-0.1c0.8-0.3,1.6-0.7,2.2-1.2c0.6-0.6,1.1-1.2,1.5-2c0.4-0.7,0.6-1.4,0.8-2.1
		c0.2-0.7,0.4-1.4,0.6-2.2c0.1-0.4,0.2-0.7,0.2-0.9c0-0.2,0.1-0.3,0.1-0.5c0-0.1,0-0.3,0-0.5c0-0.2,0-0.5,0.1-0.9
		c0.1-1.2,0.3-2.5,0.4-3.7c0.1-1.2,0.3-2.5,0.4-3.7c0-0.4,0.1-0.8,0.1-1.2c0-0.4,0-0.8,0.1-1.2C489.8,27.4,489.7,27.4,489.7,27.3
		C489.7,27.4,489.7,27.3,489.7,27.3z M481.6,28.5c0,0.6,0.3,0.8,1,0.7c0.9-0.2,1.6-0.6,2.4-1.1c0.7-0.5,1.4-1.1,1.9-1.7
		c0.7-0.8,1.3-1.7,1.8-2.6c0.5-0.9,0.9-1.9,1.2-3c0-0.1,0.1-0.2,0.1-0.3c0-0.5-0.2-0.7-0.6-0.5c-0.4,0.2-0.8,0.5-1.1,0.7
		c-0.6,0.5-1.1,0.9-1.7,1.4c-0.6,0.5-1.1,0.9-1.7,1.4c-0.5,0.4-0.9,0.9-1.4,1.4c-0.4,0.5-0.8,1-1.1,1.6
		C481.9,27.2,481.7,27.8,481.6,28.5z"/>
	<path class="st8" d="M506,33.4c0.1-0.3,0.2-0.6,0.3-0.9c0.1-0.3,0.2-0.6,0.3-0.9c0.2-0.6,0.3-1.2,0.5-1.8s0.3-1.2,0.5-1.8
		c0.2-0.6,0.4-1.3,0.6-1.9c0.2-0.6,0.4-1.2,0.7-1.9c0.3-0.7,0.6-1.3,0.9-1.9c0.3-0.6,0.7-1.2,1.2-1.8c0.3-0.4,0.6-0.7,0.9-1
		c0.3-0.3,0.7-0.6,1.1-0.9c0.1-0.1,0.3-0.2,0.4-0.3c0.1-0.1,0.3-0.2,0.5-0.2c0.2-0.1,0.4-0.1,0.6-0.1c0.2,0,0.4,0.1,0.6,0.1
		c0.3,0.1,0.6,0.3,0.9,0.5c0.3,0.2,0.6,0.4,0.8,0.7c0.1,0.1,0.2,0.1,0.2,0.2c0.1,0.3,0.3,0.6,0.4,1s0.2,0.6,0.3,1
		c0.1,0.4,0.1,0.9,0.1,1.3c0,0.4,0,0.9,0,1.3c0,0.2,0,0.5,0,0.7c0,0.3,0,0.5,0,0.8c0,0.5,0,1.1-0.1,1.6c-0.1,0.5-0.2,1.1-0.2,1.6
		c0,0.1,0,0.2,0,0.3c0,0.1-0.1,0.2-0.1,0.3c0,0.4-0.1,0.7-0.1,1.1c0,0.4-0.1,0.8-0.1,1.1c0,0.6-0.1,1.2-0.1,1.9
		c0,0.6-0.1,1.2-0.1,1.9c0,0.6-0.1,1.2-0.1,1.8c-0.1,0.6-0.1,1.2-0.1,1.8c0,0.2,0,0.4,0.1,0.7c0,0.2,0.1,0.4,0.1,0.7
		c0,0.2,0,0.4,0,0.6c0,0.2-0.1,0.4-0.1,0.5c-0.1,0.2-0.2,0.3-0.3,0.5c-0.2,0.4-0.5,0.5-0.9,0.3c-1.2-0.5-1.9-1.3-2.3-2.4
		c-0.3-1-0.6-2.1-0.7-3.1c-0.1-1-0.1-2.1-0.1-3.2c0.1-1.3,0.2-2.6,0.3-3.9c0.2-1.3,0.4-2.6,0.6-3.8c0.2-0.7,0.3-1.5,0.3-2.2
		c0.1-0.7,0.1-1.5,0.2-2.2c0-0.1,0-0.1,0-0.2c0-0.1,0-0.2,0-0.3c-0.2,0.2-0.3,0.4-0.5,0.6c-0.1,0.2-0.3,0.3-0.4,0.5
		c-0.4,0.6-0.8,1.3-1.2,2c-0.4,0.7-0.7,1.4-1,2.1c-0.1,0.3-0.2,0.5-0.3,0.8c-0.1,0.3-0.2,0.5-0.3,0.8c-0.1,0.3-0.2,0.6-0.3,0.9
		c-0.1,0.3-0.2,0.6-0.3,0.9c-0.3,0.8-0.6,1.6-0.8,2.4c-0.2,0.7-0.5,1.4-0.6,2.2c-0.2,0.7-0.4,1.4-0.6,2.2c-0.1,0.4-0.3,0.8-0.4,1.2
		c-0.1,0.4-0.3,0.8-0.6,1.2c-0.2,0.4-0.5,0.7-0.8,0.9c-0.3,0.2-0.6,0.5-0.9,0.7c-0.2,0.1-0.4,0.2-0.6,0.3c-0.2,0.1-0.5,0.2-0.7,0.2
		c-0.3,0.1-0.6,0.1-0.8,0c-0.2-0.1-0.4-0.3-0.5-0.6c-0.2-0.4-0.3-0.7-0.4-1.1c-0.1-0.4-0.2-0.8-0.2-1.2c0-0.5,0-1,0-1.5
		c0-0.5,0-1,0.1-1.5c0-0.4,0-0.7,0-1.1c0-0.4,0-0.7,0-1.1c0-1.2,0.1-2.4,0.1-3.5c0.1-1.2,0.2-2.4,0.3-3.5c0.2-1.9,0.5-3.8,0.8-5.6
		c0.3-1.9,0.5-3.7,0.8-5.6c0.2-1.3,0.4-2.7,0.6-4c0.2-1.3,0.4-2.7,0.6-4c0-0.3,0.2-0.6,0.4-0.8c0.2-0.2,0.5-0.3,0.8-0.3
		c0.5,0,0.9,0.2,1.2,0.5c0.3,0.2,0.4,0.5,0.5,0.8c0.1,0.3,0.2,0.6,0.2,0.9c0.1,0.6,0.1,1.2,0,1.8c-0.1,0.6-0.1,1.2-0.2,1.8
		c-0.1,0.5-0.1,1.1-0.2,1.6c0,0.5-0.1,1.1-0.1,1.6c0,0.3-0.1,0.6-0.1,0.9c0,0.3-0.1,0.6-0.1,0.9c0,0.3-0.1,0.6-0.1,0.9
		c0,0.3-0.1,0.6-0.1,0.9c0,0.5-0.1,1-0.1,1.5c0,0.5-0.1,1-0.1,1.5c0,0.7-0.1,1.3-0.2,2c-0.1,0.6-0.2,1.3-0.4,2
		c-0.1,0.3-0.1,0.5-0.1,0.8c0,0.3,0,0.5,0,0.8c0,0.3-0.1,0.6-0.1,0.9c0,0.3-0.1,0.6-0.1,0.9c0,0.4-0.1,0.9-0.1,1.3
		c0,0.4-0.1,0.9-0.1,1.3c0,0.4-0.1,0.8-0.1,1.2c0,0.4-0.1,0.8-0.1,1.2c0,0.1,0,0.2,0,0.2c0,0.1,0,0.2,0,0.2
		C505.9,33.4,505.9,33.4,506,33.4z"/>
</g>
</svg>
