<svg xmlns="http://www.w3.org/2000/svg" viewBox="0 0 100.64 107.3"><defs><style>.cls-1{fill:#010101;}.cls-2{fill:#057fc4;stroke:#fff;stroke-miterlimit:10;stroke-width:1.18px;}.cls-3{fill:#ffd040;}.cls-4{fill:#fff;}</style></defs><g id="Layer_2" data-name="Layer 2"><g id="Layer_1-2" data-name="Layer 1"><path class="cls-1" d="M4.53,93.41H1.28V80.93H4.53Z"/><path class="cls-1" d="M8.3,80.93h3.24l5.94,7.63h0V80.93h3.24V93.41H17.52l-5.94-7.65h0v7.65H8.3Z"/><path class="cls-1" d="M24.53,80.93h3.25l5.94,7.63h0V80.93H37V93.41H33.75l-5.94-7.65h0v7.65H24.53Z"/><path class="cls-1" d="M53.94,86.94A6.63,6.63,0,0,1,47,93.82a6.65,6.65,0,1,1,0-13.3A6.66,6.66,0,0,1,53.94,86.94ZM43.52,87a3.53,3.53,0,1,0,7,0,3.53,3.53,0,0,0-7,0Z"/><path class="cls-1" d="M61,88.51l3-7.58h3.52L62.23,93.41H59.72L54.47,80.93H58Z"/><path class="cls-1" d="M71.55,91.24l-.86,2.17H67.25l4.8-12.48h3.54l4.7,12.48H76.83L76,91.24Zm2.27-6.45h0l-1.34,4h2.69Z"/><path class="cls-1" d="M87.26,93.41H84V83.68H81.33V80.93h8.61v2.75H87.26Z"/><path class="cls-1" d="M96,83.68v2.08h3.66v2.75H96v2.15h3.86v2.75h-7.1V80.93h7.1v2.75Z"/><path class="cls-1" d="M1.27,98.61H4.62c1.81,0,3.06.83,3.06,2.76s-1.07,2.86-3,2.86H3.46V107H1.27Zm2.19,3.86h.37c.79,0,1.58,0,1.58-1s-.73-1.07-1.58-1.07H3.46Z"/><path class="cls-1" d="M11.92,105.56,11.34,107H9l3.24-8.41h2.39L17.81,107H15.48l-.55-1.46Zm1.53-4.35h0l-.9,2.68h1.82Z"/><path class="cls-1" d="M24.23,100.77a2.31,2.31,0,0,0-1.45-.56c-.4,0-.94.24-.94.71s.59.68,1,.8l.56.17c1.18.34,2.08.94,2.08,2.3a2.86,2.86,0,0,1-.87,2.27,3.74,3.74,0,0,1-2.39.79,5.22,5.22,0,0,1-3-1l.94-1.77a3,3,0,0,0,1.94.87c.51,0,1.06-.25,1.06-.84s-.86-.83-1.33-1c-1.37-.4-2.28-.75-2.28-2.38a2.74,2.74,0,0,1,2.91-2.83,5.76,5.76,0,0,1,2.63.69Z"/><path class="cls-1" d="M32.23,100.77a2.34,2.34,0,0,0-1.45-.56c-.41,0-.94.24-.94.71s.59.68,1,.8l.56.17c1.17.34,2.07.94,2.07,2.3a2.86,2.86,0,0,1-.87,2.27,3.74,3.74,0,0,1-2.39.79,5.22,5.22,0,0,1-3-1l.94-1.77a3,3,0,0,0,1.95.87c.51,0,1.06-.25,1.06-.84s-.86-.83-1.33-1c-1.38-.4-2.28-.75-2.28-2.38a2.73,2.73,0,0,1,2.9-2.83,5.83,5.83,0,0,1,2.64.69Z"/><path class="cls-1" d="M37.79,107H35.6V98.61h2.19Z"/><path class="cls-1" d="M49.22,102.66a4.67,4.67,0,1,1-4.65-4.33A4.47,4.47,0,0,1,49.22,102.66Zm-7,0a2.38,2.38,0,1,0,4.75,0,2.38,2.38,0,0,0-4.75,0Z"/><path class="cls-1" d="M51.36,98.61h2.18l4,5.14h0V98.61h2.18V107H57.58l-4-5.15h0V107H51.36Z"/><path class="cls-1" d="M64.45,105.56,63.87,107H61.55l3.24-8.41h2.39L70.35,107H68l-.55-1.46ZM66,101.21h0l-.9,2.68h1.82Z"/><path class="cls-1" d="M75.5,107H73.31v-6.56H71.5V98.61h5.81v1.85H75.5Z"/><path class="cls-1" d="M81.4,100.46v1.41h2.47v1.85H81.4v1.45H84V107H79.22V98.61H84v1.85Z"/><path class="cls-1" d="M88.66,105.17h2.63V107H86.47V98.61h2.19Z"/><path class="cls-1" d="M92.19,98.61h2.62l1.58,2.28L98,98.61h2.63L97.48,103v4H95.29v-4Z"/><polygon class="cls-2" points="100.06 0.6 63 0.59 50.34 13.56 37.66 0.62 0.59 0.62 0.59 77.1 100.06 77.1 100.06 0.6"/><path class="cls-3" d="M18.47,1.17c-8.42,0-15.23,4.64-15.23,10.36S10.05,21.9,18.47,21.9,33.7,17.26,33.7,11.53,26.88,1.17,18.47,1.17Z"/><rect class="cls-4" x="7.87" y="24.57" width="21.22" height="43.18"/><path class="cls-4" d="M92.42,41a25,25,0,0,0-8.33-14.15,19.53,19.53,0,0,0-13.33-4.61,18.33,18.33,0,0,0-7.71,2,16.64,16.64,0,0,0-3,2.13c-.84.77-2.4,2.05-2.74,3.17V24.74H36.35V77.09H57.29V62.59A19,19,0,0,0,59,64.71a17.48,17.48,0,0,0,14.8,5.13,20.61,20.61,0,0,0,10.12-4.23,24.1,24.1,0,0,0,5.89-7.19A25.35,25.35,0,0,0,92.42,41ZM64.07,57.1a7.53,7.53,0,0,1-6.78-3.8l0-14.23a7.66,7.66,0,0,1,6.8-3.77c5.07,0,9.82,4.85,9.82,10.9C73.89,52,69.15,57.07,64.07,57.1Z"/></g></g></svg>