<?xml version="1.0" encoding="UTF-8"?><svg id="Layer_2" xmlns="http://www.w3.org/2000/svg" viewBox="0 0 380.24 308.89"><defs><style>.cls-1{fill:#ffd040;}.cls-2{fill:#fcc54e;}.cls-3{fill:#e31d93;}</style></defs><g id="Layer_1-2"><path class="cls-1" d="M66.59,308.89c-4.32,0-8.43-1.46-11.89-4.21-6.04-4.81-9.73-13.13-9.87-22.26-.03-2.16,.12-4.27,.37-6.27-2.03,2.03-4.15,3.76-6.41,5.22-4.55,2.95-10.1,4.57-15.63,4.57-3.28,0-6.4-.56-9.27-1.68-8.99-3.49-14.06-12.14-12.64-21.52,1.34-8.82,7.89-16.96,16.71-20.74,.79-.34,1.59-.65,2.4-.93-2.31-1.15-4.45-2.44-6.4-3.85C5.36,230.97,.13,221.23,0,211.15c-.14-10.82,6.47-19.86,16.45-22.49,2.17-.57,4.44-.86,6.75-.86,7.88,0,15.95,3.31,22.12,9.09,.08,.08,.16,.15,.24,.23-.09-3.58,.03-7.15,.38-10.66,.91-9.31,3.29-22.34,13.47-28.08,2.98-1.67,6.43-2.6,9.73-2.6,1.58,0,3.11,.21,4.56,.61,5.02,1.39,8.78,5.24,10.6,10.84,1.69,5.24,1.97,10.97,2.11,16.39,.11,4.03-.07,8.17-.55,12.36,.05-.06,.11-.12,.16-.18,6.38-7.02,15.13-15.07,26.24-15.07,.69,0,1.38,.03,2.07,.09,5.68,.53,10.5,2.95,13.57,6.82,3.34,4.2,4.57,9.91,3.45,16.07-1.51,8.27-7.31,14.73-14.09,20.35,10.8,.73,19.16,6.08,22.63,14.63,3.58,8.83-.14,18.6-9.47,24.88-6.32,4.25-14.08,6.41-23.09,6.41-2.11,0-4.29-.12-6.49-.37-5.45-.59-10.75-1.86-15.81-3.77,2.53,5.55,3.84,10.63,4.08,15.69,.42,8.91-3.54,17.74-10.33,23.04-3.61,2.81-7.83,4.29-12.2,4.29Zm-7.42-51.62c-.51,2.51-1.12,5-1.72,7.43-1.49,6.05-2.9,11.76-2.79,17.64,.1,4.88,1.92,11.8,6.73,15.23,1.6,1.15,3.36,1.73,5.23,1.73,2.93,0,6-1.47,8.4-4.02,9.81-10.44,3.05-24.27-6.11-37.79-1.44,.36-2.92,.55-4.43,.55-1.68,0-3.37-.23-5.01-.69-.1-.03-.2-.06-.3-.09Zm-22.33-9.7c-6.56,0-11.87,1.11-16.23,3.39-5.89,3.09-10,9.21-9.99,14.87,.01,5.83,4.85,9.31,9.64,10.18,1.17,.21,2.33,.31,3.44,.31h0c12.32,0,20.2-12.69,26.58-25-.72-.91-1.34-1.88-1.86-2.91l-.57-.07c-3.01-.36-7-.77-11.02-.77Zm41.37,3.86c7.65,4.94,16.26,7.95,25.03,8.74,1.61,.15,3.2,.22,4.7,.22,7.11,0,12.95-1.58,17.83-4.83,5-3.33,8.63-9.64,4.77-15.62-3.72-5.76-10.5-6.97-15.53-6.97-2.58,0-5.31,.3-8.09,.91-1.6,.34-3.2,.75-4.78,1.22-6.77,4.34-13.88,8.08-21.14,11.13-.51,1.48-1.19,2.87-2.02,4.14-.24,.36-.49,.71-.75,1.05Zm-14.97-22.25c-.32,1.21-1.14,2.31-2.53,2.9-3.8,1.6-6.17,6.54-5.18,10.78,.82,3.48,4.18,6.08,8.19,6.32,.2,.01,.4,.02,.6,.02,3.72,0,6.78-2.14,7.99-5.58,1.13-3.22,.71-6.7-1.06-9.42-.49,.17-1.02,.26-1.57,.26-1.65,0-3.21-.79-4.06-2.07-.55-.82-.75-1.79-.61-2.77-.58-.18-1.17-.33-1.78-.44Zm-39.68-32.11c-2.44,0-4.68,.47-6.67,1.41-6.49,3.06-8.05,10.43-6.72,16.38,2.04,9.09,8.72,14.3,13.97,17.07,7,3.69,15.01,5.16,22.76,6.57,.57-4.07,2.49-7.82,5.42-10.65-.43-.48-.77-1.06-1.02-1.71-1.34-3.54-2.47-7.21-3.35-10.9-.28-.52-.56-1.03-.85-1.55-2.89-5.03-5.95-8.79-9.35-11.5-4.04-3.2-9.34-5.11-14.19-5.11Zm53.32,29.22c.71,.76,1.36,1.57,1.94,2.42,1.14,1.66,2,3.55,2.55,5.57,5.22-3.17,10.74-5.67,16.44-7.43,2.77-1.74,5.48-3.59,8.08-5.5l.13-.1c6.92-5.1,15.53-11.44,16.78-20.08,.44-3.05-.21-7.11-3.37-9.4-1.82-1.33-4.28-2.05-6.92-2.05-.97,0-1.93,.1-2.87,.29-8.85,1.83-15.82,10.45-20.92,16.75-3.2,3.96-6.16,8.27-8.8,12.81-.92,2.27-1.94,4.53-3.04,6.73Zm-16.59-6.98c2.94,0,5.86,.55,8.56,1.6,.94-1.86,1.92-3.69,2.94-5.47,2.25-5.68,3.86-11.65,4.79-17.72,.68-4.45,.97-9.15,.86-13.99-.1-4.17-.38-9.01-1.69-13.34-.7-2.32-2.29-5.13-5.92-5.31-.18,0-.35-.01-.53-.01-2.84,0-5.64,1.23-7.7,3.38-5.62,5.9-6.46,16.03-6.54,25.16-.07,7.27,.89,14.58,2.86,21.73,.57,1.32,1.11,2.65,1.64,3.99,.24,0,.48-.01,.72-.01Z"/><path class="cls-3" d="M305.59,201.89c-4.32,0-8.43-1.46-11.89-4.21-6.04-4.81-9.73-13.13-9.87-22.26-.03-2.16,.12-4.27,.37-6.27-2.03,2.03-4.15,3.76-6.41,5.22-4.55,2.95-10.1,4.57-15.63,4.57-3.28,0-6.4-.56-9.27-1.68-8.99-3.49-14.06-12.14-12.64-21.52,1.34-8.82,7.89-16.96,16.71-20.74,.79-.34,1.59-.65,2.4-.93-2.31-1.15-4.45-2.44-6.4-3.85-8.62-6.24-13.84-15.98-13.97-26.06-.14-10.82,6.47-19.86,16.45-22.49,2.17-.57,4.44-.86,6.75-.86,7.88,0,15.95,3.31,22.12,9.09,.08,.08,.16,.15,.24,.23-.09-3.58,.03-7.15,.38-10.66,.91-9.31,3.29-22.34,13.47-28.08,2.98-1.67,6.43-2.6,9.73-2.6,1.58,0,3.11,.21,4.56,.61,5.02,1.39,8.78,5.24,10.6,10.84,1.69,5.24,1.97,10.97,2.11,16.39,.11,4.03-.07,8.17-.55,12.36,.05-.06,.11-.12,.16-.18,6.38-7.02,15.13-15.07,26.24-15.07,.69,0,1.38,.03,2.07,.09,5.68,.53,10.5,2.95,13.57,6.82,3.34,4.2,4.57,9.91,3.45,16.07-1.51,8.27-7.31,14.73-14.09,20.35,10.8,.73,19.16,6.08,22.63,14.63,3.58,8.83-.14,18.6-9.47,24.88-6.32,4.25-14.08,6.41-23.09,6.41-2.11,0-4.29-.12-6.49-.37-5.45-.59-10.75-1.86-15.81-3.77,2.53,5.55,3.84,10.63,4.08,15.69,.42,8.91-3.54,17.74-10.33,23.04-3.61,2.81-7.83,4.29-12.2,4.29Zm-7.42-51.62c-.51,2.51-1.12,5-1.72,7.43-1.49,6.05-2.9,11.76-2.79,17.64,.1,4.88,1.92,11.8,6.73,15.23,1.6,1.15,3.36,1.73,5.23,1.73,2.93,0,6-1.47,8.4-4.02,9.81-10.44,3.05-24.27-6.11-37.79-1.44,.36-2.92,.55-4.43,.55-1.68,0-3.37-.23-5.01-.69-.1-.03-.2-.06-.3-.09Zm-22.33-9.7c-6.56,0-11.87,1.11-16.23,3.39-5.89,3.09-10,9.21-9.99,14.87,.01,5.83,4.85,9.31,9.64,10.18,1.17,.21,2.33,.31,3.44,.31h0c12.32,0,20.2-12.69,26.58-25-.72-.91-1.34-1.88-1.86-2.91l-.57-.07c-3.01-.36-7-.77-11.02-.77Zm41.37,3.86c7.65,4.94,16.26,7.95,25.03,8.74,1.61,.15,3.2,.22,4.7,.22,7.11,0,12.95-1.58,17.83-4.83,5-3.33,8.63-9.64,4.77-15.62-3.72-5.76-10.5-6.97-15.53-6.97-2.58,0-5.31,.3-8.09,.91-1.6,.34-3.2,.75-4.78,1.22-6.77,4.34-13.88,8.08-21.14,11.13-.51,1.48-1.19,2.87-2.02,4.14-.24,.36-.49,.71-.75,1.05Zm-14.97-22.25c-.32,1.21-1.14,2.31-2.53,2.9-3.8,1.6-6.17,6.54-5.18,10.78,.82,3.48,4.18,6.08,8.19,6.32,.2,.01,.4,.02,.6,.02,3.72,0,6.78-2.14,7.99-5.58,1.13-3.22,.71-6.7-1.06-9.42-.49,.17-1.02,.26-1.57,.26-1.65,0-3.21-.79-4.06-2.07-.55-.82-.75-1.79-.61-2.77-.58-.18-1.17-.33-1.78-.44Zm-39.68-32.11c-2.44,0-4.68,.47-6.67,1.41-6.49,3.06-8.05,10.43-6.72,16.38,2.04,9.09,8.72,14.3,13.97,17.07,7,3.69,15.01,5.16,22.76,6.57,.57-4.07,2.49-7.82,5.42-10.65-.43-.48-.77-1.06-1.02-1.71-1.34-3.54-2.47-7.21-3.35-10.9-.28-.52-.56-1.03-.85-1.55-2.89-5.03-5.95-8.79-9.35-11.5-4.04-3.2-9.34-5.11-14.19-5.11Zm53.32,29.22c.71,.76,1.36,1.57,1.94,2.42,1.14,1.66,2,3.55,2.55,5.57,5.22-3.17,10.74-5.67,16.44-7.43,2.77-1.74,5.48-3.59,8.08-5.5l.13-.1c6.92-5.1,15.53-11.44,16.78-20.08,.44-3.05-.21-7.11-3.37-9.4-1.82-1.33-4.28-2.05-6.92-2.05-.97,0-1.93,.1-2.87,.29-8.85,1.83-15.82,10.45-20.92,16.75-3.2,3.96-6.16,8.27-8.8,12.81-.92,2.27-1.94,4.53-3.04,6.73Zm-16.59-6.98c2.94,0,5.86,.55,8.56,1.6,.94-1.86,1.92-3.69,2.94-5.47,2.25-5.68,3.86-11.65,4.79-17.72,.68-4.45,.97-9.15,.86-13.99-.1-4.17-.38-9.01-1.69-13.34-.7-2.32-2.29-5.13-5.92-5.31-.18,0-.35-.01-.53-.01-2.84,0-5.64,1.23-7.7,3.38-5.62,5.9-6.46,16.03-6.54,25.16-.07,7.27,.89,14.58,2.86,21.73,.57,1.32,1.11,2.65,1.64,3.99,.24,0,.48-.01,.72-.01Z"/><path class="cls-2" d="M355.07,50.88c-2.73,0-5.53-1.13-6.98-3.54-.58-.43-1.39-1.41-.8-3.33,1.09-3.5,6.88-8.89,11.3-8.55,1.93,.17,4.37,1.42,5.01,6.44,.41,3.23-1.52,6.64-4.6,8.12-1.17,.56-2.55,.86-3.94,.86Zm3.04-13.45c-3.37,0-8.08,4.47-8.91,7.16-.29,.94,.02,1.12,.13,1.17l.25,.14,.13,.25c1.52,2.77,5.71,3.37,8.44,2.07,2.33-1.12,3.79-3.67,3.48-6.07-.38-2.97-1.45-4.56-3.21-4.71-.1,0-.21-.01-.31-.01Z"/><path class="cls-2" d="M366.29,12.7c-2.25,0-4.55-.93-5.75-2.91-.48-.35-1.14-1.16-.65-2.74,.89-2.88,5.66-7.32,9.3-7.03,1.59,.14,3.6,1.17,4.13,5.3,.34,2.66-1.25,5.47-3.78,6.68-.96,.46-2.1,.71-3.24,.71Zm2.5-11.06c-2.78,0-6.65,3.68-7.33,5.9-.24,.77,.02,.92,.1,.96l.21,.12,.11,.21c1.25,2.28,4.7,2.78,6.94,1.7,1.92-.92,3.12-3.02,2.87-5-.31-2.45-1.2-3.75-2.64-3.88-.09,0-.17-.01-.26-.01Z"/><path class="cls-2" d="M331.96,28.88c-4.06,0-8.22-1.68-10.38-5.26-.87-.64-2.06-2.09-1.18-4.95,1.61-5.2,10.22-13.22,16.8-12.71,2.87,.25,6.5,2.11,7.45,9.58,.61,4.8-2.26,9.87-6.83,12.07-1.74,.84-3.79,1.27-5.86,1.27Zm4.52-19.98c-5.02,0-12.01,6.65-13.25,10.65-.43,1.4,.03,1.66,.19,1.74l.37,.21,.2,.37c2.26,4.12,8.49,5.02,12.54,3.07,3.46-1.66,5.63-5.46,5.18-9.02-.56-4.42-2.16-6.77-4.77-7-.15-.01-.31-.02-.46-.02Z"/><path class="cls-3" d="M28.34,152.7c2.94-.61,6.21-.01,8.3,2.26,.72,.33,1.81,1.21,1.6,3.41-.39,4.01-5.44,11.1-10.28,11.71-2.12,.25-5.03-.56-6.83-5.83-1.16-3.38,.17-7.49,3.15-9.76,1.14-.87,2.55-1.49,4.05-1.8Zm-.29,15.15c3.63-.75,7.71-6.61,8.01-9.69,.1-1.08-.27-1.2-.39-1.24l-.3-.1-.2-.24c-2.25-2.65-6.9-2.37-9.54-.35-2.26,1.72-3.27,4.79-2.4,7.31,1.06,3.12,2.58,4.59,4.5,4.36,.11-.01,.23-.03,.34-.05Z"/><path class="cls-3" d="M10.27,125.04c3.89-.8,8.2-.02,10.97,2.99,.96,.44,2.39,1.6,2.11,4.51-.52,5.29-7.18,14.67-13.58,15.47-2.8,.33-6.64-.74-9.02-7.7-1.53-4.47,.22-9.89,4.16-12.89,1.5-1.15,3.37-1.96,5.36-2.37Zm-.39,20.02c4.8-.99,10.19-8.73,10.58-12.8,.14-1.42-.36-1.58-.52-1.63l-.4-.13-.26-.32c-2.97-3.5-9.12-3.13-12.6-.47-2.98,2.27-4.32,6.33-3.18,9.66,1.41,4.12,3.4,6.06,5.94,5.76,.15-.02,.3-.04,.45-.07Z"/><path class="cls-3" d="M43.88,131.23c1.77,.51,3.37,1.77,3.86,3.6,.3,.39,.64,1.17-.11,2.31-1.36,2.06-6.12,4.47-8.92,3.42-1.22-.47-2.57-1.74-2.04-5.11,.34-2.17,2.23-4.02,4.5-4.39,.86-.15,1.81-.08,2.71,.18Zm-4.49,8.14c2.18,.63,6.07-1.38,7.11-2.97,.36-.55,.19-.73,.14-.78l-.14-.14-.04-.19c-.46-2.08-3.07-3.25-5.07-2.92-1.72,.29-3.14,1.67-3.39,3.28-.31,1.99,.09,3.22,1.19,3.65,.07,.03,.13,.05,.2,.07Z"/></g></svg>