<?xml version="1.0" encoding="UTF-8"?><svg id="Layer_2" xmlns="http://www.w3.org/2000/svg" viewBox="0 0 513.34 321.64"><defs><style>.cls-1{fill:#e91e79;}</style></defs><g id="_"><path class="cls-1" d="M513.32,301.45c-.17-1.25-1.16-2.26-2.4-2.47-5.43-.9-9.36-6.59-11.69-16.92-.29-1.27-1.33-2.07-2.59-2-1.22,.07-2.22,.97-2.42,2.2l-.07,.43c-.89,5.45-2.38,14.55-6.84,18.07-.18,0-.35,0-.52,.02-.15,0-.29,.02-.44,.03-1.45,.14-2.43,1.32-2.31,2.79,.1,1.36,1.16,2.74,2.92,2.64,.06,0,.12,0,.18-.02,.13-.02,.26-.03,.39-.03,3.28-.18,5.59,2.34,6.96,4.49,1.56,2.46,2.76,5.81,3.2,8.95,.17,1.23,1.21,2.07,2.47,2s2.18-.96,2.3-2.16c.73-7.27,4.12-12.82,9.32-15.23,1.13-.52,1.73-1.59,1.56-2.79Zm-5.73,1.43c-3.17,2.54-5.46,6.15-6.8,10.72l-.71,2.43-.79-2.4c-1.71-5.22-4.99-9.08-8.78-10.33l-1.28-.42,.99-.9c2.94-2.68,5.69-10.07,6.87-16.39l.12-.02c2.29,6.97,6.06,14.17,10.19,15.99l1.18,.52-1.01,.81Z"/><path class="cls-1" d="M485.17,258.56c-.23-1.72-1.59-3.11-3.3-3.4-7.46-1.23-12.87-9.06-16.07-23.26-.39-1.74-1.83-2.85-3.57-2.75-1.68,.09-3.05,1.34-3.32,3.02l-.1,.59c-1.23,7.5-3.27,19.99-9.4,24.83-.25,0-.49,.01-.72,.02-.2,.01-.4,.03-.61,.05-2,.2-3.34,1.81-3.18,3.83,.14,1.86,1.6,3.77,4.02,3.64,.08,0,.16-.01,.25-.02,.18-.02,.36-.04,.54-.05,4.51-.25,7.69,3.22,9.56,6.18,2.14,3.38,3.79,7.98,4.4,12.3,.24,1.69,1.67,2.84,3.39,2.74,1.7-.09,3-1.31,3.17-2.97,1-10,5.67-17.63,12.81-20.93,1.55-.72,2.37-2.19,2.15-3.84Zm-7.87,1.96c-4.36,3.49-7.5,8.45-9.34,14.74l-.98,3.34-1.08-3.3c-2.35-7.18-6.86-12.49-12.06-14.2l-1.75-.58,1.36-1.24c4.04-3.69,7.82-13.84,9.45-22.52l.16-.03c3.14,9.58,8.33,19.48,14.01,21.98l1.63,.72-1.39,1.11Z"/><path class="cls-1" d="M18.78,107.24c-1.22,0-2.38-.41-3.35-1.19-1.7-1.36-2.74-3.7-2.78-6.28,0-.61,.04-1.21,.11-1.77-.57,.57-1.17,1.06-1.81,1.47-1.28,.83-2.85,1.29-4.41,1.29-.93,0-1.81-.16-2.62-.47-2.53-.98-3.97-3.42-3.56-6.07,.38-2.49,2.23-4.79,4.71-5.85,.22-.1,.45-.18,.68-.26-.65-.33-1.26-.69-1.8-1.08C1.51,85.26,.04,82.51,0,79.66c-.04-3.05,1.83-5.6,4.64-6.35,.61-.16,1.25-.24,1.91-.24,2.22,0,4.5,.94,6.24,2.57,.02,.02,.05,.04,.07,.06-.03-1.01,0-2.02,.11-3.01,.26-2.62,.93-6.3,3.8-7.92,.84-.47,1.81-.73,2.74-.73,.44,0,.88,.06,1.29,.17,1.42,.39,2.48,1.48,2.99,3.06,.48,1.48,.55,3.09,.59,4.62,.03,1.14-.02,2.3-.16,3.49l.05-.05c1.8-1.98,4.27-4.25,7.4-4.25,.19,0,.39,0,.58,.03,1.6,.15,2.96,.83,3.83,1.92,.94,1.18,1.29,2.79,.97,4.53-.43,2.33-2.06,4.15-3.97,5.74,3.05,.21,5.41,1.72,6.39,4.13,1.01,2.49-.04,5.25-2.67,7.02-1.78,1.2-3.97,1.81-6.51,1.81-.6,0-1.21-.03-1.83-.1-1.54-.17-3.03-.52-4.46-1.06,.71,1.57,1.08,3,1.15,4.43,.12,2.51-1,5-2.91,6.5-1.02,.79-2.21,1.21-3.44,1.21Zm-2.09-14.56c-.14,.71-.32,1.41-.49,2.1-.42,1.71-.82,3.32-.79,4.98,.03,1.38,.54,3.33,1.9,4.3,.45,.32,.95,.49,1.48,.49,.83,0,1.69-.41,2.37-1.13,2.77-2.95,.86-6.85-1.72-10.66-.41,.1-.82,.15-1.25,.15-.48,0-.95-.07-1.41-.19l-.08-.02Zm-6.3-2.74c-1.85,0-3.35,.31-4.58,.96-1.66,.87-2.82,2.6-2.82,4.19,0,1.65,1.37,2.63,2.72,2.87,.33,.06,.66,.09,.97,.09h0c3.48,0,5.7-3.58,7.5-7.05-.2-.26-.38-.53-.52-.82l-.16-.02c-.85-.1-1.97-.22-3.11-.22Zm11.67,1.09c2.16,1.39,4.59,2.24,7.06,2.47,.46,.04,.9,.06,1.33,.06,2.01,0,3.65-.45,5.03-1.36,1.41-.94,2.44-2.72,1.35-4.41-1.05-1.62-2.96-1.97-4.38-1.97-.73,0-1.5,.09-2.28,.26-.45,.1-.9,.21-1.35,.34-1.91,1.22-3.92,2.28-5.96,3.14-.14,.42-.34,.81-.57,1.17-.07,.1-.14,.2-.21,.3Zm-4.22-6.28c-.09,.34-.32,.65-.71,.82-1.07,.45-1.74,1.84-1.46,3.04,.23,.98,1.18,1.72,2.31,1.78,.06,0,.11,0,.17,0,1.05,0,1.91-.6,2.25-1.57,.32-.91,.2-1.89-.3-2.66-.14,.05-.29,.07-.44,.07-.47,0-.9-.22-1.14-.59-.15-.23-.21-.51-.17-.78-.16-.05-.33-.09-.5-.12Zm-11.19-9.06c-.69,0-1.32,.13-1.88,.4-1.83,.86-2.27,2.94-1.9,4.62,.57,2.56,2.46,4.03,3.94,4.82,1.97,1.04,4.23,1.45,6.42,1.85,.16-1.15,.7-2.21,1.53-3.01-.12-.14-.22-.3-.29-.48-.38-1-.7-2.03-.95-3.08-.08-.15-.16-.29-.24-.44-.81-1.42-1.68-2.48-2.64-3.24-1.14-.9-2.64-1.44-4-1.44Zm15.04,8.24c.2,.21,.38,.44,.55,.68,.32,.47,.56,1,.72,1.57,1.47-.89,3.03-1.6,4.64-2.1,.78-.49,1.55-1.01,2.28-1.55l.04-.03c1.95-1.44,4.38-3.23,4.73-5.67,.12-.86-.06-2.01-.95-2.65-.51-.37-1.21-.58-1.95-.58-.27,0-.55,.03-.81,.08-2.5,.52-4.46,2.95-5.9,4.72-.9,1.12-1.74,2.33-2.48,3.61-.26,.64-.55,1.28-.86,1.9Zm-4.68-1.97c.83,0,1.65,.15,2.41,.45,.26-.52,.54-1.04,.83-1.54,.63-1.6,1.09-3.29,1.35-5,.19-1.25,.27-2.58,.24-3.95-.03-1.18-.11-2.54-.48-3.76-.2-.66-.65-1.45-1.67-1.5-.05,0-.1,0-.15,0-.8,0-1.59,.35-2.17,.95-1.59,1.66-1.82,4.52-1.84,7.1-.02,2.05,.25,4.11,.81,6.13,.16,.37,.31,.75,.46,1.13,.07,0,.14,0,.2,0Z"/><path class="cls-1" d="M93.32,49.51c-3.32,.95-7.11,.15-9.9-2.09-1.58-1.27-2.92-2.89-4.12-5.02-.58,2.09-1.42,4.11-2.51,6.01-.44,.77-.91,1.51-1.41,2.19-2.12,2.92-4.65,4.93-7.52,5.97-4.24,1.54-8.28,.45-10.3-2.8-1.95-3.14-1.72-7.11,.59-10.79-3.42,.87-6.88,1.23-9.92-.23-2.26-1.09-3.82-2.84-4.4-4.91-.53-1.91-.18-4.04,.99-6.01,.14-.24,.29-.47,.46-.69,2.62-3.6,7.29-4.54,11.07-4.95h.1c-1.47-.85-2.86-1.76-4.14-2.75-1.72-1.32-3.52-2.77-4.82-4.55-1.39-1.91-1.75-4.04-1.02-5.99,.21-.57,.51-1.11,.88-1.62,.78-1.07,1.89-1.97,3.13-2.54,4.26-1.95,9.05,.36,12.28,2.26,1.22,.72,2.41,1.52,3.55,2.39,0-.04-.01-.09-.02-.13-.42-3.36,.41-6.76,2.27-9.31,.54-.75,1.17-1.42,1.87-1.99,3.21-2.61,7.69-2.62,11.17-.03,3.23,2.42,5.16,6.41,5.15,10.67,0,.96-.09,1.96-.26,2.98,.28-.2,.57-.38,.87-.56,3.3-1.97,7.49-2.17,10.66-.53,3.38,1.75,4.98,5.43,4,9.17-.32,1.19-.87,2.34-1.64,3.4-1.3,1.79-3.14,3.21-5.17,3.99-1,.39-2.07,.67-3.2,.84,.71,.39,1.43,.84,2.12,1.36,2.93,2.2,4.76,5.35,4.89,8.45,.08,1.77-.42,3.45-1.44,4.85-1.03,1.42-2.51,2.44-4.27,2.94Zm-10.76-17.4c-.24,.64-.56,1.24-.96,1.79-.36,.49-.77,.93-1.22,1.31,2.22,6.16,5.11,11.61,10.81,10.89,1.39-.18,2.59-.82,3.28-1.77,.44-.6,.67-1.31,.67-2.1,.02-2.37-1.79-4.59-3.35-5.77-1.88-1.42-4.06-2.31-6.38-3.26-.93-.38-1.88-.77-2.82-1.2-.01,.04-.03,.08-.04,.12Zm-.19-5.89l-.11,.2c.21,.41,.38,.84,.51,1.29,5.49,.84,11.46,1.27,14.37-2.72h0c.26-.36,.5-.76,.71-1.19,.85-1.76,.86-4.15-1.02-5.53-1.83-1.34-4.78-1.45-7.17-.27-1.77,.87-3.38,2.33-4.93,4.46-.95,1.3-1.76,2.69-2.35,3.75Zm-6.67,10.56c-.61-.03-1.22-.14-1.82-.32-2.7,1.63-5.59,3.06-8.59,4.23-.52,.4-1.03,.82-1.52,1.26-.85,.76-1.59,1.57-2.2,2.41-1.19,1.63-2.39,4.11-1.4,6.68,1.03,2.66,3.93,2.97,6.19,2.14,2.2-.82,4.09-2.33,5.77-4.64,.35-.49,.7-1.02,1.04-1.57,1.81-3.03,2.86-6.53,3.07-10.17-.17,0-.35,0-.52,0Zm-3.44-9.41c.35,.18,.61,.48,.75,.85,.21,.58,.11,1.27-.28,1.8-.13,.18-.28,.33-.46,.45,.47,1.22,1.49,2.17,2.8,2.56,1.4,.42,2.81-.07,3.69-1.27,.05-.06,.09-.13,.14-.2,.87-1.36,.82-3.06-.12-4.15-1.14-1.32-3.3-1.72-4.71-.86-.52,.31-1.07,.32-1.54,.14-.11,.22-.2,.45-.28,.68Zm-2.47-15.31c.07,1.74,.57,3.62,1.52,5.74,.1,.22,.2,.43,.3,.64,.99,1.16,1.91,2.39,2.74,3.66,.15,.23,.26,.48,.31,.74,1.61-.28,3.28-.02,4.73,.75,1.37-2.84,2.78-5.79,3.24-8.92,.34-2.35,.23-5.75-2.24-8.55-1.61-1.83-4.37-3.07-6.89-1.68-.77,.42-1.45,1.04-2.03,1.83-1.14,1.57-1.77,3.74-1.69,5.8Zm-4.31,17.77c-2.09-.21-4.19-.27-6.23-.17-3.24,.17-7.68,.39-10.36,2.83-.28,.26-.54,.55-.77,.86-.62,.86-.97,1.82-.97,2.73,0,1.56,1.16,2.73,2.25,3.31,3.1,1.64,7.18,.34,10.47-.7l.06-.02c1.23-.39,2.47-.83,3.69-1.32,1.92-1.43,4.02-2.63,6.28-3.58-.53-.66-.94-1.38-1.2-2.14-.14-.39-.25-.79-.33-1.2-.97-.16-1.94-.36-2.9-.6Zm4.72-6.65c-.31-.49-.62-.98-.91-1.47-1.85-2.32-4-4.36-6.37-6.05-2.98-2.13-6.46-4.25-9.7-3.81-1.18,.16-2.24,.78-2.91,1.7-.04,.06-.08,.11-.12,.17-.8,1.22-.26,2.4,.33,3.17,1.09,1.44,2.6,2.68,3.92,3.69,1.54,1.18,3.13,2.19,4.74,3.02,2.19,1.13,4.5,2.01,6.87,2.63,.82,.09,1.64,.2,2.47,.34,.3-1.12,.81-2.2,1.5-3.15,.06-.08,.11-.15,.17-.23Z"/></g></svg>