<?xml version="1.0" encoding="UTF-8"?><svg id="Layer_2" xmlns="http://www.w3.org/2000/svg" viewBox="0 0 375.11 388.52"><defs><style>.cls-1{fill:#007fc4;}</style></defs><g id="Layer_1-2"><g><path class="cls-1" d="M353.46,381.84c-1.64,0-3.27-.19-4.87-.56-1.44-.34-2.06-1.65-1.93-2.78,.14-1.22,1.09-2.1,2.26-2.1,.19,0,.38,.02,.57,.07,1.28,.3,2.59,.45,3.9,.45,6.83,0,13-3.99,15.72-10.17,.4-.9,1.24-1.46,2.21-1.46,.86,0,1.67,.44,2.13,1.14,.44,.67,.5,1.49,.16,2.25-3.52,8-11.44,13.16-20.17,13.16Z"/><path class="cls-1" d="M360.93,388.52c-1.51,0-2.46-1.26-2.49-2.47-.04-1.3,.91-2.34,2.2-2.41,4.19-.24,7.85-2.45,10.03-6.07,.43-.71,1.15-1.13,1.94-1.13,.87,0,1.72,.52,2.17,1.31,.45,.8,.44,1.75-.04,2.54-2.92,4.83-8.02,7.9-13.67,8.23h-.15Z"/></g><g><path class="cls-1" d="M38.23,10.5c.1,.89-.17,1.77-.72,2.41-.55,.62-1.33,.98-2.22,1-12.72,.32-22.98,10.12-23.87,22.8-.11,1.65-1.34,2.82-2.99,2.85-1.48,.03-3.17-.97-3.38-2.89-.02-.19-.03-.39-.01-.6,1.09-15.62,14.2-28.16,29.83-28.55,1.99-.05,3.19,1.47,3.36,2.99Z"/><path class="cls-1" d="M18.19,2.97c.11,1.06-.28,2.07-1.09,2.78L5.15,16.28c-.88,.77-2.02,.99-3.06,.59C.97,16.43,.15,15.34,.02,14.09c-.11-1.06,.28-2.07,1.09-2.78L13.05,.79C13.93,.02,15.07-.2,16.11,.2c1.13,.44,1.94,1.53,2.08,2.78Z"/></g></g></svg>