<?xml version="1.0" encoding="UTF-8"?><svg id="Layer_2" xmlns="http://www.w3.org/2000/svg" viewBox="0 0 394.45 447.75"><defs><style>.cls-1{fill:#231f20;}</style></defs><g id="Layer_1-2"><path class="cls-1" d="M20.69,447.75c-1.31,0-2.81-.85-2.95-2.24-.41-4.03-.56-8.33-.51-13.95h0c0-.98-.78-1.78-1.75-1.79h0c-3.38-.04-7.08-.25-11.31-.63C.12,428.77-.04,425.43,0,424.41c.12-2.68,2-5.4,5.35-5.4,.13,0,.26,0,.39,.01,1.97,.12,4.03,.18,6.29,.18,1.26,0,2.52-.02,3.78-.05h0c.95-.02,1.71-.79,1.73-1.74h0c.08-3.57,.13-7.81-.07-12.12-.05-1.16,.29-2.14,1.03-2.91,.81-.85,2.03-1.35,3.27-1.35,.92,0,3.09,.3,3.25,3.08,.25,4.16,.51,8.47,.64,12.78h0c.03,1,.88,1.78,1.88,1.72h0c4.9-.28,9.31-.5,13.74-.5h.48c2.07,0,3.3,1.32,3.6,2.62,.33,1.43-.4,2.75-1.95,3.51-5.02,2.47-10.39,4.07-16.41,4.89h0c-.83,.11-1.47,.79-1.53,1.63h0c-.42,5.8-1.32,10.9-2.73,15.58-.35,1.17-1.31,1.41-2.05,1.41h0Z"/><path class="cls-1" d="M340.28,102.24c-2.87,0-6.15-1.87-6.46-4.89-.89-8.82-1.23-18.24-1.11-30.53h0c.02-2.15-1.7-3.9-3.84-3.93h0c-7.39-.09-15.48-.54-24.75-1.37-8.85-.8-9.21-8.12-9.11-10.34,.26-5.88,4.37-11.82,11.71-11.82,.28,0,.56,0,.85,.02,4.32,.26,8.82,.38,13.76,.38,2.76,0,5.52-.04,8.27-.11h0c2.08-.05,3.75-1.73,3.79-3.8h0c.17-7.82,.28-17.09-.14-26.53-.11-2.55,.64-4.69,2.25-6.37,1.77-1.85,4.44-2.95,7.15-2.95,2.02,0,6.75,.66,7.12,6.75,.55,9.11,1.12,18.53,1.41,27.97h0c.07,2.19,1.92,3.89,4.1,3.77h0c10.71-.6,20.37-1.1,30.06-1.1h1.05c4.53,.02,7.21,2.89,7.87,5.73,.72,3.14-.87,6.01-4.26,7.68-10.99,5.41-22.74,8.91-35.92,10.7h0c-1.82,.25-3.22,1.74-3.35,3.57h0c-.93,12.69-2.88,23.84-5.98,34.09-.77,2.56-2.86,3.09-4.48,3.09h0Z"/></g></svg>