<svg width="22" height="20" viewBox="0 0 22 20" fill="none" xmlns="http://www.w3.org/2000/svg">
<path d="M8.89828 17.2872C7.13795 17.2872 5.41716 16.78 3.95364 15.8298C2.49011 14.8796 1.34962 13.5291 0.676414 11.9492C0.00321093 10.3692 -0.172436 8.63079 0.171695 6.95384C0.515826 5.27689 1.36426 3.73676 2.60968 2.5283C3.8551 1.31985 5.44154 0.497385 7.16827 0.164938C8.89501 -0.16751 10.6845 0.00501199 12.3102 0.660674C13.936 1.31634 15.3251 2.42568 16.3017 3.84835C17.2782 5.27102 17.7985 6.94309 17.7966 8.65304C17.794 10.9438 16.8553 13.1399 15.1869 14.7589C13.5184 16.3778 11.2566 17.2872 8.89828 17.2872ZM8.89828 2.84342C7.71539 2.84342 6.55905 3.18414 5.57551 3.82251C4.59197 4.46088 3.82539 5.36822 3.37272 6.42979C2.92005 7.49136 2.80162 8.65949 3.03239 9.78645C3.26316 10.9134 3.83277 11.9486 4.66921 12.7611C5.50564 13.5736 6.57131 14.1269 7.73147 14.351C8.89164 14.5752 10.0942 14.4602 11.187 14.0204C12.2799 13.5807 13.2139 12.8361 13.8711 11.8807C14.5283 10.9253 14.8791 9.80207 14.8791 8.65304C14.8791 7.11223 14.249 5.63452 13.1273 4.54501C12.0057 3.45549 10.4845 2.84342 8.89828 2.84342Z" fill="white"/>
<path fill-rule="evenodd" clip-rule="evenodd" d="M4.4849 15.0115C5.78879 15.8581 7.32475 16.3116 8.89828 16.3116C11.007 16.3116 13.024 15.4982 14.5075 14.0587C15.99 12.6201 16.8187 10.6749 16.8209 8.65194C16.8226 7.14142 16.3632 5.66193 15.4973 4.40049C14.6312 3.13868 13.3961 2.15058 11.9453 1.56548C10.4943 0.980292 8.89565 0.8259 7.35272 1.12296C5.80991 1.41999 4.39622 2.1542 3.28908 3.22848C2.18224 4.30247 1.43156 5.66775 1.12739 7.14996C0.823268 8.63196 0.978221 10.1686 1.57395 11.5667C2.16982 12.9652 3.18131 14.1652 4.4849 15.0115ZM5.04436 3.00415C6.18752 2.26218 7.52863 1.8678 8.89828 1.8678C10.7342 1.8678 12.5005 2.57598 13.8071 3.8452C15.1147 5.11535 15.8547 6.84418 15.8547 8.65304C15.8547 10.0014 15.4429 11.3172 14.6749 12.4336C13.9072 13.5497 12.819 14.4154 11.5512 14.9255C10.2836 15.4356 8.8903 15.5686 7.54639 15.3089C6.20236 15.0492 4.96403 14.4076 3.98943 13.4609C3.01452 12.5139 2.34725 11.3038 2.07661 9.98217C1.80592 8.66029 1.94511 7.29045 2.47529 6.04711C3.00533 4.80412 3.90091 3.74631 5.04436 3.00415ZM3.95364 15.8298C5.41716 16.78 7.13795 17.2872 8.89828 17.2872C11.2566 17.2872 13.5184 16.3778 15.1869 14.7589C16.8553 13.1399 17.794 10.9438 17.7966 8.65304C17.7985 6.9431 17.2782 5.27102 16.3017 3.84835C15.3251 2.42568 13.936 1.31634 12.3102 0.660674C10.6845 0.00501193 8.89501 -0.16751 7.16827 0.164938C5.44154 0.497385 3.8551 1.31985 2.60968 2.5283C1.36426 3.73676 0.515826 5.27689 0.171695 6.95384C-0.172436 8.63079 0.00321099 10.3692 0.676414 11.9492C1.34962 13.5291 2.49011 14.8796 3.95364 15.8298ZM5.57551 3.82251C6.55905 3.18414 7.71539 2.84342 8.89828 2.84342C10.4845 2.84342 12.0057 3.45549 13.1273 4.54501C14.249 5.63452 14.8791 7.11223 14.8791 8.65304C14.8791 9.80207 14.5283 10.9253 13.8711 11.8807C13.2139 12.8361 12.2799 13.5807 11.187 14.0204C10.0942 14.4602 8.89164 14.5752 7.73147 14.351C6.57131 14.1269 5.50564 13.5736 4.66921 12.7611C3.83277 11.9486 3.26316 10.9134 3.03239 9.78645C2.80162 8.65949 2.92005 7.49136 3.37272 6.42979C3.82539 5.36822 4.59197 4.46088 5.57551 3.82251Z" fill="white"/>
<path fill-rule="evenodd" clip-rule="evenodd" d="M18.5317 19.5716L13.3826 14.4225L15.4522 12.3529L20.6013 17.502C21.1728 18.0735 21.1728 19.0001 20.6013 19.5716C20.0298 20.1431 19.1032 20.1431 18.5317 19.5716Z" fill="white"/>
</svg>
