<?xml version="1.0" encoding="utf-8"?>
<!-- Generator: Adobe Illustrator 21.1.0, SVG Export Plug-In . SVG Version: 6.00 Build 0)  -->
<svg version="1.1" id="Layer_1" xmlns="http://www.w3.org/2000/svg" xmlns:xlink="http://www.w3.org/1999/xlink" x="0px" y="0px"
	 viewBox="0 0 42.5 42.5" style="enable-background:new 0 0 42.5 42.5;" xml:space="preserve">
<path d="M37.2,0.5h-32c-2.8,0-5,2.2-5,5v32c0,2.8,2.2,5,5,5h32c2.8,0,5-2.2,5-5v-32C42.2,2.7,40,0.5,37.2,0.5z M13.2,16.5v19h-6v-19
	H13.2z M7.2,11c0-1.4,1.2-2.5,3-2.5s2.9,1.1,3,2.5c0,1.4-1.1,2.5-3,2.5C8.4,13.5,7.2,12.4,7.2,11z M35.2,35.5h-6c0,0,0-9.3,0-10
	c0-2-1-4-3.5-4h-0.1c-2.4,0-3.4,2.1-3.4,4c0,0.9,0,10,0,10h-6v-19h6v2.6c0,0,1.9-2.6,5.8-2.6c4,0,7.2,2.7,7.2,8.3V35.5z"/>
</svg>
