<svg width="861" height="864" viewBox="0 0 861 864" fill="none" xmlns="http://www.w3.org/2000/svg">
<ellipse cx="430.5" cy="432" rx="430.5" ry="432" fill="#1381C4"/>
<path d="M563.332 267H296.772C240.023 267 194.104 312.969 194 369.546V494.349C194 551.031 240.023 597 296.772 597H563.332C620.081 597 666 551.031 666 494.349V369.546C666 312.865 620.081 267 563.332 267ZM497.942 438.188L391.63 496.43C387.048 498.926 382.883 495.598 382.883 490.293V370.899C382.883 365.594 387.152 362.266 391.838 364.866L498.775 426.124C503.46 428.828 502.732 435.692 497.942 438.188Z" fill="white"/>
</svg>
