<svg width="855" height="855" viewBox="0 0 855 855" fill="none" xmlns="http://www.w3.org/2000/svg">
<circle cx="427.5" cy="427.5" r="427.5" fill="#1381C4"/>
<path d="M319.435 442.529H369.969V650.565C369.969 654.672 373.297 658 377.404 658H463.085C467.192 658 470.52 654.672 470.52 650.565V443.509H528.612C532.389 443.509 535.567 440.674 535.998 436.922L544.821 360.334C545.064 358.227 544.396 356.116 542.986 354.536C541.575 352.953 539.556 352.048 537.436 352.048H470.523V304.038C470.523 289.566 478.315 282.227 493.686 282.227C495.877 282.227 537.436 282.227 537.436 282.227C541.544 282.227 544.872 278.897 544.872 274.792V204.491C544.872 200.383 541.544 197.055 537.436 197.055H477.142C476.717 197.034 475.772 197 474.381 197C463.919 197 427.555 199.054 398.83 225.479C367.003 254.763 371.427 289.826 372.485 295.905V352.046H319.435C315.328 352.046 312 355.374 312 359.482V435.092C312 439.199 315.328 442.529 319.435 442.529Z" fill="white"/>
</svg>
