<svg width="50" height="50" viewBox="0 0 50 50" fill="none" xmlns="http://www.w3.org/2000/svg">
<path d="M25 0C11.1947 0 0 11.1947 0 25C0 38.8105 11.1947 50 25 50C38.8105 50 50 38.8105 50 25C50 11.1947 38.8105 0 25 0ZM38.7737 26.0842C38.7737 28.4105 38.5 30.7368 38.5 30.7368C38.5 30.7368 38.2316 32.7158 37.4053 33.5842C36.3579 34.7263 35.1842 34.7368 34.6474 34.8C30.7895 35.0842 25.0053 35.1 25.0053 35.1C25.0053 35.1 17.8421 35.0316 15.6421 34.8105C15.0316 34.6895 13.6526 34.7263 12.6053 33.5842C11.7789 32.7105 11.5105 30.7368 11.5105 30.7368C11.5105 30.7368 11.2368 28.4105 11.2368 26.0842V23.9053C11.2368 21.5789 11.5105 19.2579 11.5105 19.2579C11.5105 19.2579 11.7789 17.2789 12.6053 16.4053C13.6526 15.2632 14.8263 15.2579 15.3632 15.1895C19.2158 14.9 25 14.9 25 14.9H25.0105C25.0105 14.9 30.7895 14.9 34.6474 15.1895C35.1842 15.2579 36.3579 15.2632 37.4053 16.4053C38.2316 17.2789 38.5 19.2579 38.5 19.2579C38.5 19.2579 38.7737 21.5842 38.7737 23.9053V26.0842Z" fill="white"/>
<path d="M22.1579 28.7263L29.6 24.7052L22.1579 20.6578V28.7263Z" fill="white"/>
</svg>
