<svg width="50" height="50" viewBox="0 0 50 50" fill="none" xmlns="http://www.w3.org/2000/svg">
<path d="M25 0C11.1947 0 0 11.1947 0 25C0 38.8105 11.1947 50 25 50C38.8105 50 50 38.8105 50 25C50 11.1947 38.8105 0 25 0ZM35.4474 19.7263C35.4579 19.9526 35.4579 20.1842 35.4579 20.4105C35.4579 27.4211 30.0368 35.5053 20.1263 35.5053C17.0842 35.5053 14.2526 34.6263 11.8632 33.1211C12.2842 33.1684 12.7105 33.1947 13.1474 33.1947C15.6737 33.1947 18 32.3474 19.8421 30.9211C17.4842 30.8789 15.4947 29.3421 14.8053 27.2368C15.1368 27.3 15.4737 27.3316 15.8211 27.3316C16.3158 27.3316 16.7895 27.2684 17.2421 27.1474C14.7737 26.6579 12.9158 24.5158 12.9158 21.9474V21.8789C13.6421 22.2789 14.4737 22.5158 15.3579 22.5421C13.9158 21.5895 12.9579 19.9684 12.9579 18.1263C12.9579 17.1526 13.2263 16.2421 13.6895 15.4579C16.3474 18.6684 20.3211 20.7789 24.8 21C24.7105 20.6105 24.6579 20.2053 24.6579 19.7947C24.6579 16.8632 27.0684 14.4895 30.0474 14.4895C31.6 14.4895 33 15.1316 33.9789 16.1684C35.2053 15.9263 36.3632 15.4895 37.4 14.8789C36.9947 16.1211 36.1421 17.1579 35.0316 17.8158C36.1211 17.6895 37.1632 17.4053 38.1263 16.9789C37.4158 18.0421 36.5 18.9789 35.4474 19.7263Z" fill="white"/>
</svg>
