<svg width="861" height="864" viewBox="0 0 861 864" fill="none" xmlns="http://www.w3.org/2000/svg">
<ellipse cx="430.5" cy="432" rx="430.5" ry="432" fill="#1381C4"/>
<path d="M354.685 432C354.685 390.396 388.404 356.661 430.009 356.661C471.615 356.661 505.352 390.396 505.352 432C505.352 473.604 471.615 507.339 430.009 507.339C388.404 507.339 354.685 473.604 354.685 432ZM313.956 432C313.956 496.094 365.912 548.049 430.009 548.049C494.106 548.049 546.062 496.094 546.062 432C546.062 367.906 494.106 315.951 430.009 315.951C365.912 315.951 313.956 367.906 313.956 432ZM523.535 311.351C523.535 326.32 535.675 338.478 550.663 338.478C565.633 338.478 577.791 326.32 577.791 311.351C577.791 296.382 565.651 284.242 550.663 284.242C535.675 284.242 523.535 296.382 523.535 311.351ZM338.693 615.958C316.658 614.954 304.682 611.285 296.722 608.181C286.17 604.074 278.649 599.182 270.726 591.277C262.821 583.373 257.91 575.851 253.821 565.3C250.717 557.341 247.048 545.365 246.044 523.331C244.948 499.508 244.729 492.352 244.729 432C244.729 371.648 244.966 364.51 246.044 340.669C247.048 318.635 250.735 306.678 253.821 298.7C257.928 288.149 262.821 280.627 270.726 272.705C278.63 264.8 286.152 259.889 296.722 255.8C304.682 252.697 316.658 249.028 338.693 248.024C362.517 246.928 369.673 246.709 430.009 246.709C490.363 246.709 497.502 246.947 521.344 248.024C543.379 249.028 555.336 252.715 563.314 255.8C573.866 259.889 581.388 264.8 589.311 272.705C597.216 280.609 602.108 288.149 606.216 298.7C609.319 306.659 612.989 318.635 613.993 340.669C615.088 364.51 615.307 371.648 615.307 432C615.307 492.334 615.088 499.49 613.993 523.331C612.989 545.365 609.301 557.341 606.216 565.3C602.108 575.851 597.216 583.373 589.311 591.277C581.406 599.182 573.866 604.074 563.314 608.181C555.355 611.285 543.379 614.954 521.344 615.958C497.52 617.053 490.363 617.273 430.009 617.273C369.673 617.273 362.517 617.053 338.693 615.958ZM336.831 207.369C312.769 208.464 296.339 212.28 281.971 217.866C267.111 223.635 254.514 231.375 241.936 243.934C229.376 256.494 221.635 269.09 215.866 283.968C210.28 298.335 206.465 314.765 205.369 338.825C204.256 362.922 204 370.626 204 432C204 493.374 204.256 501.078 205.369 525.175C206.465 549.235 210.28 565.665 215.866 580.032C221.635 594.892 229.358 607.506 241.936 620.066C254.496 632.625 267.093 640.347 281.971 646.134C296.357 651.72 312.769 655.536 336.831 656.631C360.947 657.726 368.633 658 430.009 658C491.404 658 499.09 657.744 523.188 656.631C547.249 655.536 563.679 651.72 578.047 646.134C592.907 640.347 605.504 632.625 618.082 620.066C630.642 607.506 638.365 594.892 644.152 580.032C649.738 565.665 653.572 549.235 654.649 525.175C655.744 501.06 656 493.374 656 432C656 370.626 655.744 362.922 654.649 338.825C653.554 314.765 649.738 298.335 644.152 283.968C638.365 269.108 630.642 256.512 618.082 243.934C605.522 231.375 592.907 223.635 578.065 217.866C563.679 212.28 547.249 208.446 523.206 207.369C499.108 206.274 491.404 206 430.027 206C368.633 206 360.947 206.256 336.831 207.369Z" fill="white"/>
</svg>
