<svg xmlns="http://www.w3.org/2000/svg" viewBox="0 0 176.84 122.2"><defs><style>.cls-1{fill:#fff;}</style></defs><g id="Layer_2" data-name="Layer 2"><g id="_1" data-name="1"><path class="cls-1" d="M146.87,73.14c-5.54-5.09-12.67-7.68-21.19-7.68a22.38,22.38,0,0,0-3.15-9.26A23.15,23.15,0,0,0,103.2,45.38c.52-8.52-.27-20.24-6.94-28a20,20,0,0,0-15.72-7q-.86,0-1.77.06c-9,.59-18,7-22.32,15.87a34.2,34.2,0,0,0-2.94,9.42,26.49,26.49,0,0,0-5-.46,27.61,27.61,0,0,0-15.41,4.58A24.11,24.11,0,0,0,22.91,59.41C14.05,60.52,6.46,68.25,2.65,75.93c-3.16,6.36-3.5,11.94-1,16.58,3.59,6.67,11,8,16.42,9.06l1.15.21c11.73,2.27,23.8,2.46,34.19,2.46l5.2,0h5.13c13.9,0,28.63.38,42.35,4.9a7.42,7.42,0,0,0,2.32.38,6,6,0,0,0,.74,0,96.18,96.18,0,0,0,20.82,3l1.41,0c13.71,0,19.51-7,22-12.88C157.1,90.59,154.56,80.2,146.87,73.14ZM97,98.07l-.73-.14c-11.3-2-22.77-2.19-34.5-2.19H55q-3.84,0-7.68,0c-10.69-.15-22-.54-32.47-3.62-3-.88-4.9-2.44-5.68-4.62-1.31-3.72,1.07-8.35,3.31-11.57,2.66-3.85,7.31-8,12.38-8a9.73,9.73,0,0,1,6.53,2.61l1.27.91c.93.94,1.7,1.83,2.63,2.7a1.24,1.24,0,0,0,.85.35,1.49,1.49,0,0,0,1.31-.85c.08-.18.13-.47-.26-.84a18.31,18.31,0,0,1-5.88-12.7A15.48,15.48,0,0,1,35.61,48.9c2.91-3.07,8.63-5.3,13.58-5.3,5.93,0,10.15,3.89,10.61,9.17h0l.06.39c.33,2.46.75,5,1.12,7.1a.9.9,0,0,0,1,.83A1.37,1.37,0,0,0,63,60.62a1,1,0,0,0,.21-.89C61.68,50.62,57,22.89,77.83,19.09a12.83,12.83,0,0,1,2.37-.22C88.47,18.87,93,27,94.44,34c1.54,7.71.72,16.39-2.38,25.11a.93.93,0,0,0,.08.91,1.39,1.39,0,0,0,1.11.54,1,1,0,0,0,1-.73,39.9,39.9,0,0,0,1.15-3.92l.14-.53.55-.2.1,0a15.63,15.63,0,0,1,6.29-1.3,14.82,14.82,0,0,1,13.28,7.61c3.42,6.44,1.29,14.8-5,19.42a.8.8,0,0,0-.36,1,1.45,1.45,0,0,0,1.27.94,1.18,1.18,0,0,0,.71-.25,17.88,17.88,0,0,0,5.7-7.28l.22-.51.54-.1A37.1,37.1,0,0,1,125.7,74c6.73,0,12.34,2.15,16.24,6.22,5.05,5.28,6.77,14.26.9,20.17-2.57,2.59-6.3,3.85-11.39,3.85a64.35,64.35,0,0,1-8.72-.79l-1.41-.2Z"/><path class="cls-1" d="M8.41,15.21A3.28,3.28,0,0,1,5.65,13.6a3.2,3.2,0,0,1-.09-3.17A19.75,19.75,0,0,1,20.75,0l.38,0a3.23,3.23,0,0,1,3.2,3.08,3,3,0,0,1-2.67,3.19A13.68,13.68,0,0,0,11,13.59,2.93,2.93,0,0,1,8.41,15.21Z"/><path class="cls-1" d="M167.86,122.2a3.26,3.26,0,0,1-2.78-1.64,3.17,3.17,0,0,1,0-3.18l6-10.66a3,3,0,0,1,2.6-1.56,3.26,3.26,0,0,1,2.79,1.63,3.15,3.15,0,0,1,0,3.18l-5.95,10.66a3,3,0,0,1-2.61,1.57Z"/></g></g></svg>