<svg xmlns="http://www.w3.org/2000/svg" viewBox="0 0 31.53 31.53"><g id="Layer_2" data-name="Layer 2"><g id="Layer_1-2" data-name="Layer 1"><path d="M17.86,16.73H15V11.55a.29.29,0,0,0-.29-.29H13.67a.29.29,0,0,0-.29.29v6.52h0a.32.32,0,0,0,.08.21h0a.29.29,0,0,0,.2.09h4.19a.29.29,0,0,0,.29-.3V17A.29.29,0,0,0,17.86,16.73Z"/><path d="M23.28,0h-15A8.27,8.27,0,0,0,0,8.25v15a8.27,8.27,0,0,0,8.25,8.25h15a8.27,8.27,0,0,0,8.25-8.25v-15A8.27,8.27,0,0,0,23.28,0Zm-.11,17.18c0,4.15-5.69,6.62-7.09,7.17a.94.94,0,0,1-.62,0c-1.41-.55-7.09-3-7.09-7.17V9a.86.86,0,0,1,.54-.8,18.37,18.37,0,0,1,5.41-1.06c.48,0,1,0,1.45,0s1,0,1.44,0a18.29,18.29,0,0,1,5.41,1.06.87.87,0,0,1,.55.8Z"/></g></g></svg>