<svg xmlns="http://www.w3.org/2000/svg" viewBox="0 0 462.03 451"><defs><style>.cls-1{fill:#057fc4;}</style></defs><g id="Layer_2" data-name="Layer 2"><g id="Layer_1-2" data-name="Layer 1"><path class="cls-1" d="M369.12,128.58a10,10,0,0,1-6.21-2.45c-3.11-2.66-4.91-7.14-4.81-12a23.52,23.52,0,0,1,.31-3.32,20.48,20.48,0,0,1-3.49,2.65,15.46,15.46,0,0,1-8.36,2.13,13.56,13.56,0,0,1-4.87-1.06,10.39,10.39,0,0,1-6.3-11.63,14.83,14.83,0,0,1,9.23-10.67q.64-.24,1.29-.45a23.86,23.86,0,0,1-3.31-2.15,17.57,17.57,0,0,1-6.92-14.06A11.84,11.84,0,0,1,344.81,64a13.43,13.43,0,0,1,3.59-.33,17.4,17.4,0,0,1,11.54,5.22.8.8,0,0,1,.13.13,43.91,43.91,0,0,1,.4-5.64c.65-4.91,2.15-11.77,7.65-14.62a10.69,10.69,0,0,1,5.19-1.2,9.08,9.08,0,0,1,2.41.41,8.28,8.28,0,0,1,5.41,5.94,30.82,30.82,0,0,1,.81,8.72,45.8,45.8,0,0,1-.52,6.53l.09-.09c3.51-3.6,8.29-7.7,14.17-7.49a9.81,9.81,0,0,1,1.09.09,10.15,10.15,0,0,1,7.06,3.86,10.44,10.44,0,0,1,1.53,8.57c-.95,4.36-4.14,7.67-7.83,10.52,5.7.59,10,3.58,11.71,8.16,1.73,4.75-.42,9.85-5.47,13a21.61,21.61,0,0,1-12.35,3,31.72,31.72,0,0,1-3.43-.32,33.84,33.84,0,0,1-8.3-2.29,22.23,22.23,0,0,1,1.87,8.39,14.74,14.74,0,0,1-5.9,12A10.46,10.46,0,0,1,369.12,128.58Zm-3-27.47c-.31,1.32-.68,2.63-1,3.91a36.33,36.33,0,0,0-1.8,9.28c0,2.59.8,6.29,3.28,8.19a4.72,4.72,0,0,0,2.74,1,6.3,6.3,0,0,0,4.52-2c5.38-5.34,2.06-12.79-2.54-20.12a9.19,9.19,0,0,1-2.35.21,10,10,0,0,1-2.64-.46Zm-11.64-5.55a18.29,18.29,0,0,0-8.66,1.5c-3.17,1.53-5.46,4.69-5.56,7.68s2.4,5,4.92,5.57a10.42,10.42,0,0,0,1.82.23h0c6.52.23,10.93-6.34,14.53-12.74a9.63,9.63,0,0,1-.93-1.58l-.3,0A52.53,52.53,0,0,0,354.51,95.56Zm21.83,2.81a29.33,29.33,0,0,0,13.09,5.09c.85.11,1.69.18,2.48.21a16.52,16.52,0,0,0,9.53-2.23c2.71-1.67,4.75-4.94,2.82-8.18s-5.43-3.88-8.09-4a20.78,20.78,0,0,0-4.31.32c-.85.16-1.71.34-2.55.56a74.16,74.16,0,0,1-11.4,5.5,9.71,9.71,0,0,1-1.15,2.16C376.63,98,376.49,98.2,376.34,98.37Zm-7.51-12.05a2.25,2.25,0,0,1-1.4,1.48,5.18,5.18,0,0,0-2.94,5.62,4.64,4.64,0,0,0,4.22,3.5l.32,0a4.35,4.35,0,0,0,4.33-2.81,5.68,5.68,0,0,0-.38-5,2.64,2.64,0,0,1-3-1.06,2.13,2.13,0,0,1-.27-1.48A9.07,9.07,0,0,0,368.83,86.32ZM348.42,68.58a8.15,8.15,0,0,0-3.56.62c-3.49,1.5-4.46,5.37-3.86,8.55A13.75,13.75,0,0,0,348.08,87c3.64,2.09,7.85,3,11.93,3.9a9.73,9.73,0,0,1,3.06-5.54,2.82,2.82,0,0,1-.5-.92A46.58,46.58,0,0,1,361,78.64c-.13-.28-.27-.56-.42-.83a20.67,20.67,0,0,0-4.74-6.26A12.55,12.55,0,0,0,348.42,68.58ZM376.11,85a11.45,11.45,0,0,1,1,1.31,9.7,9.7,0,0,1,1.24,3,39.38,39.38,0,0,1,8.85-3.63c1.5-.87,3-1.8,4.38-2.76l.07,0c3.76-2.57,8.43-5.77,9.25-10.32a5.19,5.19,0,0,0-1.61-5,6.3,6.3,0,0,0-3.62-1.21,7.08,7.08,0,0,0-1.53.1c-4.72.8-8.57,5.24-11.38,8.48a52.73,52.73,0,0,0-4.9,6.62C377.31,82.72,376.73,83.9,376.11,85Zm-8.66-4a12.56,12.56,0,0,1,4.5,1c.53-1,1.09-1.92,1.66-2.84a43.56,43.56,0,0,0,2.87-9.3,42.88,42.88,0,0,0,.71-7.39,27.44,27.44,0,0,0-.65-7.09,3.47,3.47,0,0,0-3-2.92l-.28,0a5.75,5.75,0,0,0-4.14,1.64c-3.09,3-3.72,8.37-3.93,13.2a42.29,42.29,0,0,0,1.11,11.56c.28.71.54,1.42.8,2.15Z"/><path class="cls-1" d="M454.51,41.43a9.35,9.35,0,0,1-8.29-1.74,14.26,14.26,0,0,1-3.45-4.21,21.51,21.51,0,0,1-2.1,5,19.78,19.78,0,0,1-1.18,1.83,13.67,13.67,0,0,1-6.29,5c-3.55,1.29-6.93.37-8.62-2.34s-1.44-6,.5-9c-2.87.73-5.76,1-8.3-.2a6.62,6.62,0,0,1-3.68-4.1,6.46,6.46,0,0,1,.83-5,5.25,5.25,0,0,1,.38-.58c2.19-3,6.1-3.8,9.26-4.14h.08a30.49,30.49,0,0,1-3.46-2.29,19.94,19.94,0,0,1-4-3.81,5.24,5.24,0,0,1-.85-5,5.81,5.81,0,0,1,.74-1.36,6.75,6.75,0,0,1,2.62-2.13c3.57-1.63,7.57.3,10.27,1.89a28,28,0,0,1,3,2s0-.07,0-.11a11,11,0,0,1,1.9-7.79,8.5,8.5,0,0,1,1.56-1.66,7.5,7.5,0,0,1,9.35,0A11.11,11.11,0,0,1,449,10.56a14.47,14.47,0,0,1-.22,2.49c.24-.17.48-.32.73-.47a9.39,9.39,0,0,1,8.92-.44,6.57,6.57,0,0,1,3.34,7.68,8.47,8.47,0,0,1-1.37,2.84A9.76,9.76,0,0,1,456.1,26a13.44,13.44,0,0,1-2.69.71,14.32,14.32,0,0,1,1.78,1.13,9.69,9.69,0,0,1,4.09,7.07,6.34,6.34,0,0,1-1.2,4.06A6.63,6.63,0,0,1,454.51,41.43Zm-9-14.56a6.16,6.16,0,0,1-.81,1.49,5.92,5.92,0,0,1-1,1.1c1.86,5.15,4.28,9.71,9.05,9.11a4,4,0,0,0,2.74-1.49,3,3,0,0,0,.57-1.76c0-2-1.5-3.84-2.81-4.83a23,23,0,0,0-5.33-2.72c-.78-.32-1.58-.64-2.36-1Zm-.16-4.93-.09.17a5,5,0,0,1,.42,1.08c4.6.7,9.59,1.06,12-2.28h0a6.47,6.47,0,0,0,.59-1,3.63,3.63,0,0,0-.86-4.63,6,6,0,0,0-6-.22,11.47,11.47,0,0,0-4.12,3.73A32,32,0,0,0,445.35,21.94Zm-5.58,8.84a6.83,6.83,0,0,1-1.53-.27,46.15,46.15,0,0,1-7.19,3.54c-.43.33-.86.69-1.27,1.05a13.25,13.25,0,0,0-1.84,2c-1,1.37-2,3.44-1.18,5.59s3.29,2.48,5.18,1.78a10.49,10.49,0,0,0,4.83-3.88c.29-.41.59-.85.86-1.32a18.53,18.53,0,0,0,2.57-8.51Zm-2.88-7.88a1.33,1.33,0,0,1,.63.71,1.63,1.63,0,0,1-.24,1.51,1.71,1.71,0,0,1-.38.38,3.62,3.62,0,0,0,2.35,2.14,2.76,2.76,0,0,0,3.09-1.06l.11-.17a2.92,2.92,0,0,0-.1-3.47,3.25,3.25,0,0,0-3.94-.72,1.45,1.45,0,0,1-1.29.11A4.53,4.53,0,0,0,436.89,22.9Zm-2.06-12.81a13.17,13.17,0,0,0,1.27,4.8l.25.54a31,31,0,0,1,2.3,3.06,1.86,1.86,0,0,1,.26.62,6.13,6.13,0,0,1,4,.63,26.28,26.28,0,0,0,2.71-7.47,8.75,8.75,0,0,0-1.87-7.16c-1.35-1.53-3.66-2.56-5.77-1.41a5.24,5.24,0,0,0-1.7,1.53A8,8,0,0,0,434.83,10.09ZM431.22,25a33.76,33.76,0,0,0-5.21-.14c-2.71.14-6.43.33-8.67,2.37a4.4,4.4,0,0,0-.64.72,3.92,3.92,0,0,0-.81,2.28A3.27,3.27,0,0,0,417.77,33c2.59,1.37,6,.28,8.76-.59h.05c1-.33,2.07-.7,3.09-1.11a24.27,24.27,0,0,1,5.26-3,6.06,6.06,0,0,1-1-1.8,5.68,5.68,0,0,1-.27-1C432.83,25.33,432,25.16,431.22,25Zm3.95-5.57c-.26-.41-.51-.82-.76-1.23a26.37,26.37,0,0,0-5.33-5.07c-2.49-1.78-5.4-3.55-8.11-3.19a3.63,3.63,0,0,0-2.44,1.42,1.3,1.3,0,0,1-.1.15,2.2,2.2,0,0,0,.28,2.65A17,17,0,0,0,422,17.21a26.36,26.36,0,0,0,4,2.53,27.37,27.37,0,0,0,5.76,2.2c.68.07,1.37.17,2.06.28A8,8,0,0,1,435,19.58Z"/><path class="cls-1" d="M17,33.59H288.74c1.6.66,3.25,1.22,4.79,2,9.09,4.59,12.18,12.36,12.17,22.12q-.09,172.37,0,344.71,0,13.05,0,26.08c0,6.51-1.66,12.55-6.84,16.76-3,2.41-6.7,3.86-10.08,5.74H17c-1.6-.66-3.26-1.23-4.8-2C3.08,444.41,0,436.63,0,426.87Q.09,254.52,0,82.16c0-8.69,0-17.38,0-26.07,0-6.51,1.66-12.55,6.83-16.76C9.85,36.92,13.58,35.47,17,33.59ZM145.64,47.47H23.9c-7.66,0-10,2.28-10,10V427c0,7.88,2.25,10.07,10.25,10.07H145.64ZM160,437.12H281.7c7.91,0,10.07-2.2,10.07-10.25q0-184.6,0-369.21c0-8-2.19-10.18-10.14-10.18H160Z"/><path class="cls-1" d="M111.28,242.09c0-4.46-.1-8.93,0-13.39.13-4.31,2.88-7.09,6.72-7.15a6.59,6.59,0,0,1,6.92,6.54q.39,14.19,0,28.41a6.54,6.54,0,0,1-7.31,6.49c-3.68-.26-6.2-2.94-6.32-7.09C111.18,251.3,111.28,246.69,111.28,242.09Z"/><path class="cls-1" d="M180.58,241.88c0-4.19-.11-8.39,0-12.58.16-4.83,3-7.81,7-7.75s6.72,3,6.76,8q.11,12.78,0,25.58c0,4.93-2.66,7.89-6.77,8s-6.89-2.93-7-7.76C180.47,250.82,180.58,246.35,180.58,241.88Z"/></g></g></svg>