<svg xmlns="http://www.w3.org/2000/svg" viewBox="0 0 125.11 182.68"><defs><style>.cls-1{fill:#057fc4;}</style></defs><g id="Layer_2" data-name="Layer 2"><g id="Layer_1-2" data-name="Layer 1"><path class="cls-1" d="M76.77,110.18c-15.26-4.84-26.65-19.05-31.25-39A6.67,6.67,0,0,0,38.37,66a6.45,6.45,0,0,0-6.14,6.41,66.77,66.77,0,0,1-5.72,26c-3,6.45-8.55,14.28-17.72,14.94l-1.1.05a4.1,4.1,0,0,0-.5,0A7.76,7.76,0,0,0,0,121.79a7.05,7.05,0,0,0,7.41,6.93l1.24-.07c.48,0,1-.08,1.46-.13,13.63,8.2,21,32.91,25.38,47.73l.35,1.17a7.26,7.26,0,0,0,7.48,5.25,6.93,6.93,0,0,0,6.5-6.47c2.82-29.5,11.73-46.69,26.47-51.11a8.17,8.17,0,0,0,5.8-7.7A7.33,7.33,0,0,0,76.77,110.18Zm-8,7.15-3.1,1.87c-10.82,6.5-18.75,27.84-22.64,48l-.33,0C37.19,150.05,27,130.52,17.84,124.11L14.77,122l3.39-1.62c10.07-4.8,17.81-16.68,20.71-31.78l1.33-7L43,88.08c5.34,12.23,13,21.43,22.66,27.36Z"/><path class="cls-1" d="M121.7,28.32c-9.79-3.1-17.09-12.21-20-25A4.27,4.27,0,0,0,97.08,0a4.14,4.14,0,0,0-3.94,4.11,42.66,42.66,0,0,1-3.67,16.66c-1.93,4.14-5.48,9.15-11.36,9.57-.23,0-.46,0-.7,0l-.32,0a5,5,0,0,0-4.6,5.37,4.51,4.51,0,0,0,4.75,4.44l.79,0,.94-.09c8.73,5.26,13.44,21.1,16.27,30.6l.22.75a4.64,4.64,0,0,0,4.8,3.36,4.42,4.42,0,0,0,4.16-4.14c1.81-18.91,7.52-29.94,17-32.77a5.23,5.23,0,0,0,3.71-4.94A4.7,4.7,0,0,0,121.7,28.32Zm-5.12,4.59-2,1.2c-6.93,4.17-12,17.84-14.51,30.76h-.22c-3.54-11-10.1-23.5-15.94-27.6l-2-1.39,2.17-1c6.45-3.08,11.42-10.7,13.28-20.37L98.25,10l1.82,4.16C103.5,22,108.38,27.9,114.6,31.7Z"/></g></g></svg>