<svg xmlns="http://www.w3.org/2000/svg" viewBox="0 0 720.53 347.31"><defs><style>.cls-1{fill:#fcc550;}</style></defs><g id="Layer_2" data-name="Layer 2"><g id="Layer_1-2" data-name="Layer 1"><path class="cls-1" d="M654.16,157.87c-8.46-42.33-16.82-84.14-25.25-126.28h-6.06q-146.73,0-293.44,0a27.65,27.65,0,0,1-8.24-.95,15.52,15.52,0,0,1-10.65-16.9A15.94,15.94,0,0,1,325.21.06c1.47-.1,3,0,4.44,0H637.88c12.81,0,17.57,3.71,20.06,16.13Q683,141.24,708,266.34q6,30.18,12,60.38c2.42,12.21-4.49,20.57-17.08,20.57q-124,0-248.06,0H267c-15.49,0-22.31-8.08-18.48-23C270.37,239.14,324,185.23,409,163.42c15.87-4.07,32.83-5.15,49.31-5.31,63.12-.59,126.25-.24,189.38-.24ZM283.58,315.51H685.69c-8.45-42.21-16.83-84.1-25.22-126.06H657.4c-67.7,0-135.42-.89-203.11.27-66.16,1.13-117.2,31-152.94,86.7A156.16,156.16,0,0,0,283.58,315.51Z"/><path class="cls-1" d="M132.76,316.55a32.77,32.77,0,0,1-12.14-27.09A49.62,49.62,0,0,1,125.41,271a75.71,75.71,0,0,1-18.59,4.43,68.61,68.61,0,0,1-7.63.43c-10.59,0-19.72-2.53-27.15-7.53-11-7.39-15.34-18.87-11.13-29.25C65,229,74.82,222.74,87.52,221.88c-8-6.61-14.79-14.2-16.56-23.93-1.31-7.25.13-14,4.06-18.9,3.61-4.55,9.28-7.4,16-8,.81-.07,1.63-.11,2.43-.11,13.06,0,23.35,9.47,30.85,17.72l.19.21a103.8,103.8,0,0,1-.64-14.54c.16-6.37.49-13.11,2.48-19.27,2.13-6.59,6.56-11.12,12.46-12.75a19.88,19.88,0,0,1,5.37-.72,23.82,23.82,0,0,1,11.43,3.05c12,6.75,14.77,22.08,15.84,33a102.64,102.64,0,0,1,.44,12.54l.29-.27a38.68,38.68,0,0,1,26-10.69,31,31,0,0,1,7.95,1c11.73,3.09,19.5,13.72,19.34,26.45-.16,11.85-6.3,23.3-16.43,30.64a54.66,54.66,0,0,1-7.52,4.52c1,.33,1.9.7,2.82,1.09,10.36,4.44,18.07,14,19.65,24.38a23.06,23.06,0,0,1-14.86,25.31,30.26,30.26,0,0,1-10.9,2,34.23,34.23,0,0,1-18.38-5.37,45.73,45.73,0,0,1-7.53-6.14,55.13,55.13,0,0,1,.44,7.38c-.16,10.73-4.5,20.52-11.6,26.17a22.26,22.26,0,0,1-14,5A23.23,23.23,0,0,1,132.76,316.55ZM155.48,261a21.85,21.85,0,0,1-5.89.81,21.12,21.12,0,0,1-5.21-.64c-10.76,15.89-18.71,32.15-7.18,44.43a13.94,13.94,0,0,0,9.88,4.73,10.42,10.42,0,0,0,6.15-2c5.65-4,7.79-12.17,7.91-17.91.13-6.93-1.53-13.64-3.28-20.75-.71-2.86-1.43-5.79-2-8.74Zm13.64-10.6-.67.09a19.22,19.22,0,0,1-2.18,3.42c7.5,14.47,16.76,29.4,31.25,29.4h0a23.55,23.55,0,0,0,4-.37c5.64-1,11.33-5.11,11.34-12,0-6.65-4.81-13.84-11.74-17.48-5.13-2.68-11.37-4-19.09-4A111.79,111.79,0,0,0,169.12,250.4Zm-36.56,2.4a21.79,21.79,0,0,1-2.38-4.87,164.1,164.1,0,0,1-24.86-13.09c-1.85-.55-3.74-1-5.62-1.44a45.8,45.8,0,0,0-9.52-1.06c-5.92,0-13.89,1.42-18.26,8.19-4.54,7-.27,14.45,5.61,18.36s12.6,5.68,21,5.68c1.76,0,3.62-.08,5.52-.26A65.15,65.15,0,0,0,133.44,254C133.13,253.63,132.84,253.22,132.56,252.8ZM149,228.4a4.62,4.62,0,0,1-.72,3.25,5.83,5.83,0,0,1-6.62,2.13,12.64,12.64,0,0,0-1.24,11.08,9.66,9.66,0,0,0,9.39,6.56l.71,0c4.71-.28,8.67-3.34,9.63-7.44,1.17-5-1.62-10.79-6.09-12.67a5,5,0,0,1-3-3.41A16,16,0,0,0,149,228.4ZM181,196.13c-4,3.18-7.6,7.6-11,13.52-.34.6-.67,1.21-1,1.82a103.73,103.73,0,0,1-3.94,12.82,6.63,6.63,0,0,1-1.2,2,21.64,21.64,0,0,1,6.38,12.53c9.11-1.66,18.52-3.39,26.76-7.72,6.17-3.26,14-9.39,16.42-20.08,1.57-7-.27-15.66-7.9-19.25a18.26,18.26,0,0,0-7.84-1.66A27.89,27.89,0,0,0,181,196.13Zm-49.59,20.44a121,121,0,0,0-10.35-15.06c-6-7.4-14.19-17.54-24.59-19.69a16.54,16.54,0,0,0-3.37-.34A14,14,0,0,0,85,183.89c-3.71,2.69-4.47,7.47-4,11.05,1.46,10.17,11.58,17.63,19.72,23.62l.15.11c3,2.24,6.25,4.42,9.5,6.47a86.61,86.61,0,0,1,19.34,8.73,21.37,21.37,0,0,1,3-6.55,23.74,23.74,0,0,1,2.27-2.84C133.71,221.9,132.51,219.25,131.43,216.57Zm23.93-.29q.93-2.37,1.93-4.69A93.2,93.2,0,0,0,160.65,186c-.09-10.74-1.07-22.65-7.68-29.59a12.68,12.68,0,0,0-9.05-4l-.62,0c-4.27.22-6.14,3.52-7,6.25-1.54,5.08-1.87,10.78-2,15.68a93.9,93.9,0,0,0,1,16.45A96.56,96.56,0,0,0,141,211.72c1.2,2.09,2.36,4.25,3.46,6.43a27.72,27.72,0,0,1,10.06-1.88Z"/><path class="cls-1" d="M6.46,138.08a10.4,10.4,0,0,1-2-6.62c.19-4.23,2.69-8.54,6.69-11.55a25.62,25.62,0,0,1,2.9-1.85A21.48,21.48,0,0,1,9.7,116.9a15.87,15.87,0,0,1-7.06-5.45A14.09,14.09,0,0,1,.39,106.8,10.73,10.73,0,0,1,5.86,94.27,15.29,15.29,0,0,1,20.43,95c.4.24.8.49,1.18.76a26.38,26.38,0,0,1-.36-4.07A18.12,18.12,0,0,1,28.3,77.09a12.25,12.25,0,0,1,15.27,0,14.35,14.35,0,0,1,2.55,2.72,18,18,0,0,1,3.11,12.73l0,.18a48.45,48.45,0,0,1,4.85-3.27c4.41-2.6,11-5.74,16.78-3.08a11.06,11.06,0,0,1,4.29,3.47,9.57,9.57,0,0,1,1.2,2.22,8.54,8.54,0,0,1-1.39,8.19,32.61,32.61,0,0,1-6.58,6.22,49.51,49.51,0,0,1-5.66,3.74h.14C68,110.82,74.38,112.1,78,117c.22.3.43.62.62.94a10.51,10.51,0,0,1,1.35,8.21,10.83,10.83,0,0,1-6,6.72c-4.15,2-8.88,1.51-13.55.32,3.15,5,3.48,10.45.81,14.74s-8.29,5.93-14.08,3.82a22.31,22.31,0,0,1-10.28-8.16,34.28,34.28,0,0,1-1.93-3,35.12,35.12,0,0,1-3.42-8.22,23.18,23.18,0,0,1-5.64,6.87,15.28,15.28,0,0,1-13.54,2.85A10.82,10.82,0,0,1,6.46,138.08Zm20.48-19.92c-1.28.59-2.58,1.12-3.85,1.63a38.06,38.06,0,0,0-8.72,4.45c-2.13,1.62-4.61,4.66-4.58,7.89a4.87,4.87,0,0,0,.92,2.88,6.51,6.51,0,0,0,4.49,2.42C23,138.41,26.94,131,30,122.55a9.46,9.46,0,0,1-1.67-1.79A9.73,9.73,0,0,1,27,118.32Zm-2.9-13a18.88,18.88,0,0,0-6.74-6.09c-3.27-1.62-7.3-1.47-9.8.36S4.94,104.56,6.1,107a10.37,10.37,0,0,0,1,1.62h0c4,5.46,12.13,4.86,19.64,3.72a9.19,9.19,0,0,1,.69-1.76l-.15-.28A52.93,52.93,0,0,0,24,105.14Zm11.62,19.57a30.51,30.51,0,0,0,4.19,13.91c.46.76.94,1.49,1.42,2.15a17,17,0,0,0,7.89,6.34c3.09,1.15,7.05.72,8.46-2.91s-.3-6.9-1.92-9.13a21.93,21.93,0,0,0-3-3.3c-.67-.59-1.37-1.17-2.08-1.72a76.28,76.28,0,0,1-11.75-5.78,10.26,10.26,0,0,1-2.49.44C36.14,124.72,35.9,124.72,35.66,124.71Zm5-13.8a2.33,2.33,0,0,1-2.1-.19,5.34,5.34,0,0,0-6.44,1.19,4.77,4.77,0,0,0-.16,5.66l.18.28a4.52,4.52,0,0,0,5,1.74,5.89,5.89,0,0,0,3.83-3.51,2.75,2.75,0,0,1-.62-.61A2.7,2.7,0,0,1,40,113a2.13,2.13,0,0,1,1-1.16A7.28,7.28,0,0,0,40.69,110.91ZM42.13,83a8.5,8.5,0,0,0-2.77-2.5c-3.45-1.89-7.22-.2-9.42,2.3a14.24,14.24,0,0,0-3.06,11.69c.62,4.29,2.55,8.32,4.42,12.2a10.17,10.17,0,0,1,6.47-1,3.12,3.12,0,0,1,.43-1,47.92,47.92,0,0,1,3.75-5c.14-.29.28-.58.41-.88a21.48,21.48,0,0,0,2.08-7.85A13,13,0,0,0,42.13,83ZM46.37,116a13.07,13.07,0,0,1-.44,1.63,10.16,10.16,0,0,1-1.65,2.93,40.12,40.12,0,0,1,8.59,4.89c1.66.66,3.36,1.27,5,1.8l.08,0c4.49,1.42,10.08,3.2,14.31,1a5.39,5.39,0,0,0,3.08-4.52A6.5,6.5,0,0,0,74.06,120,8.5,8.5,0,0,0,73,118.84c-3.66-3.33-9.73-3.64-14.16-3.86a55.26,55.26,0,0,0-8.51.22C49,115.53,47.7,115.81,46.37,116Zm-2.25-9.61a13.26,13.26,0,0,1,2.05,4.31c1.12-.18,2.25-.34,3.37-.46a45.21,45.21,0,0,0,9.4-3.59,43.94,43.94,0,0,0,6.47-4.13,28,28,0,0,0,5.36-5,3.59,3.59,0,0,0,.45-4.33l-.16-.24a5.91,5.91,0,0,0-4-2.32c-4.42-.59-9.18,2.3-13.25,5.21a43.17,43.17,0,0,0-8.71,8.27c-.4.68-.81,1.35-1.24,2Z"/></g></g></svg>