<svg xmlns="http://www.w3.org/2000/svg" viewBox="0 0 173.24 176.02"><defs><style>.cls-1{fill:#fcc550;}</style></defs><g id="Layer_2" data-name="Layer 2"><g id="Layer_1-2" data-name="Layer 1"><path class="cls-1" d="M34.72,67a8.29,8.29,0,0,1-5.43-1.16,12.75,12.75,0,0,1-5.57-9.16,22,22,0,0,1-.19-2.76A17.11,17.11,0,0,1,21,56.59a12.89,12.89,0,0,1-6.56,2.88,11.22,11.22,0,0,1-4.14-.21,8.62,8.62,0,0,1-6.74-8.67,12.32,12.32,0,0,1,6.12-10q.48-.29,1-.54a20.54,20.54,0,0,1-3-1.31A14.6,14.6,0,0,1,.11,28.16,9.83,9.83,0,0,1,6,17.41a11.19,11.19,0,0,1,2.89-.76,14.48,14.48,0,0,1,10.17,2.71l.12.08a38.81,38.81,0,0,1-.44-4.67c-.13-4.11.17-9.94,4.28-13A8.78,8.78,0,0,1,27.14.07a7.59,7.59,0,0,1,2,0A6.89,6.89,0,0,1,34.41,4.2a26,26,0,0,1,1.85,7,39.74,39.74,0,0,1,.46,5.42l.06-.09c2.39-3.42,5.75-7.43,10.59-8.06.3,0,.61-.07.91-.08a8.46,8.46,0,0,1,6.31,2.21A8.73,8.73,0,0,1,57,17.46c-.19,3.69-2.35,6.84-5,9.68,4.75-.3,8.71,1.56,10.71,5.1s1,8.12-2.72,11.39a17.88,17.88,0,0,1-9.71,4.11,26.34,26.34,0,0,1-2.86.21,28.22,28.22,0,0,1-7.11-.75A18.49,18.49,0,0,1,43,53.82a12.28,12.28,0,0,1-3.2,10.64A8.67,8.67,0,0,1,34.72,67Zm-6.17-22.1c-.08,1.12-.2,2.24-.33,3.34A29.74,29.74,0,0,0,28,56.12c.32,2.12,1.5,5,3.8,6.26a3.92,3.92,0,0,0,2.38.46,5.21,5.21,0,0,0,3.43-2.23c3.69-5.12,0-10.77-4.81-16.15a7.58,7.58,0,0,1-1.9.49,8.25,8.25,0,0,1-2.22,0ZM18.26,42a15.13,15.13,0,0,0-6.89,2.41,7.94,7.94,0,0,0-3.52,7c.34,2.55,2.65,3.79,4.79,3.9a9.52,9.52,0,0,0,1.52-.06h0c5.38-.7,8.1-6.69,10.18-12.42a7.79,7.79,0,0,1-1-1.17h-.25A44.91,44.91,0,0,0,18.26,42Zm18.27-.66A24.44,24.44,0,0,0,48,43.68c.71,0,1.4-.08,2.06-.17a13.64,13.64,0,0,0,7.5-3.12c2-1.74,3.22-4.7,1.2-7.09s-5-2.44-7.17-2.15a16.48,16.48,0,0,0-3.48.85c-.68.24-1.36.51-2,.81a61.5,61.5,0,0,1-8.6,6,7.82,7.82,0,0,1-.64,1.93Zm-7.8-8.86a1.85,1.85,0,0,1-.94,1.41,4.27,4.27,0,0,0-1.64,5,3.83,3.83,0,0,0,3.93,2.29l.26,0a3.63,3.63,0,0,0,3.17-2.89,4.71,4.71,0,0,0-1-4,2.09,2.09,0,0,1-.67.2A2.14,2.14,0,0,1,30,33.7a1.71,1.71,0,0,1-.43-1.18A7,7,0,0,0,28.73,32.43ZM9.59,20.67a6.92,6.92,0,0,0-2.83,1c-2.65,1.71-2.92,5-2,7.53a11.46,11.46,0,0,0,7.07,6.66c3.26,1.21,6.84,1.4,10.3,1.57a8.06,8.06,0,0,1,1.76-5,2.47,2.47,0,0,1-.54-.69,38.36,38.36,0,0,1-2.08-4.57l-.46-.63a17.25,17.25,0,0,0-4.74-4.48A10.43,10.43,0,0,0,9.59,20.67ZM34.52,30.4a8.71,8.71,0,0,1,1,.94,7.7,7.7,0,0,1,1.43,2.29,31.89,31.89,0,0,1,6.76-4.18c1.11-.92,2.19-1.88,3.21-2.86l.05-.05c2.73-2.62,6.13-5.87,6.18-9.72a4.3,4.3,0,0,0-2-3.9A5.18,5.18,0,0,0,48,12.41a6.3,6.3,0,0,0-1.23.29C43,14,40.44,18.16,38.58,21.2a44.67,44.67,0,0,0-3.11,6.09C35.2,28.33,34.88,29.37,34.52,30.4Zm-7.64-2.11a10.48,10.48,0,0,1,3.83.21c.3-.86.63-1.72,1-2.55a35.94,35.94,0,0,0,1.09-8,36.14,36.14,0,0,0-.42-6.15,22.48,22.48,0,0,0-1.5-5.73,2.9,2.9,0,0,0-2.88-2l-.23,0A4.69,4.69,0,0,0,24.57,6c-2.12,2.89-1.91,7.36-1.42,11.35a34.57,34.57,0,0,0,2.48,9.32c.32.54.63,1.09.94,1.65Z"/><path class="cls-1" d="M163.33,154.72a20.59,20.59,0,0,1-18.63-1.46,31.13,31.13,0,0,1-8.75-8.21,47.83,47.83,0,0,1-3.16,11.61,44.75,44.75,0,0,1-2.06,4.35c-3.19,5.85-7.35,10.13-12.35,12.73-7.39,3.83-15,2.78-19.52-2.67-4.32-5.29-4.84-12.61-1.48-19.89-6.06,2.41-12.31,3.89-18.22,1.93A14.59,14.59,0,0,1,70,145.17a14.21,14.21,0,0,1,.37-11.23c.21-.47.43-.93.67-1.38,3.94-7.21,12.27-10,19.09-11.7l.18,0a66.13,66.13,0,0,1-8.23-4,43.63,43.63,0,0,1-9.9-7.18c-3-3.17-4.16-7-3.29-10.73a12.76,12.76,0,0,1,1.23-3.18,14.89,14.89,0,0,1,5.13-5.4c7.34-4.58,16.65-1.5,23,1.21A62.82,62.82,0,0,1,105.28,95l-.06-.24a24.35,24.35,0,0,1,1.93-17.59,19.44,19.44,0,0,1,3-4.08c5.24-5.55,13.46-6.64,20.44-2.72a24.52,24.52,0,0,1,12,18.32,34.42,34.42,0,0,1,.23,5.52c.47-.43,1-.84,1.45-1.23,5.58-4.39,13.19-5.76,19.4-3.5a14.49,14.49,0,0,1,9.5,15.83,19.08,19.08,0,0,1-2.2,6.62,21.58,21.58,0,0,1-8.51,8.54,29.17,29.17,0,0,1-5.66,2.31,31.92,31.92,0,0,1,4.21,2c5.88,3.32,10,8.67,11,14.3a14,14,0,0,1-1.48,9.21A14.6,14.6,0,0,1,163.33,154.72Zm-23.85-29.3a13.46,13.46,0,0,1-1.33,3.5,13.2,13.2,0,0,1-1.92,2.68c5.53,10.74,12.12,20,22.38,17.37a8.79,8.79,0,0,0,5.59-4,6.55,6.55,0,0,0,.74-4c-.53-4.35-4.38-8-7.52-9.77-3.78-2.16-8-3.27-12.45-4.45-1.79-.47-3.63-.95-5.44-1.51A1.74,1.74,0,0,1,139.48,125.42Zm-1.74-10.73-.16.39a12.53,12.53,0,0,1,1.24,2.24c10.25.22,21.29-.4,25.66-8.4h0a14.62,14.62,0,0,0,1-2.35c1.14-3.42.59-7.8-3.19-9.88s-9.1-1.51-13.2,1.22a25.46,25.46,0,0,0-8,9.35A68.46,68.46,0,0,0,137.74,114.69ZM128,135.61a13.52,13.52,0,0,1-3.41-.15,102.93,102.93,0,0,1-14.73,9.79c-.86.86-1.69,1.76-2.48,2.67a28.75,28.75,0,0,0-3.46,4.94c-1.79,3.27-3.4,8.1-1,12.56,2.51,4.63,7.9,4.51,11.84,2.44a23.18,23.18,0,0,0,9.46-9.88c.53-1,1-2,1.52-3.13A41,41,0,0,0,129,135.5C128.67,135.55,128.36,135.59,128,135.61ZM119.5,119.2a2.88,2.88,0,0,1,1.58,1.37,3.6,3.6,0,0,1-.09,3.37,3.34,3.34,0,0,1-.73.93,8,8,0,0,0,5.75,4,6.09,6.09,0,0,0,6.46-3.21l.2-.4a6.46,6.46,0,0,0-1.21-7.56,7.22,7.22,0,0,0-8.84-.46,3.15,3.15,0,0,1-2.78.61A12.8,12.8,0,0,0,119.5,119.2Zm-8.16-27.45a29.17,29.17,0,0,0,4.15,10.15c.23.38.47.74.71,1.11a65.84,65.84,0,0,1,5.89,6,3.94,3.94,0,0,1,.75,1.27,13.63,13.63,0,0,1,8.85.25c1.83-5.53,3.71-11.26,3.8-17.11.06-4.39-1-10.58-6.14-15.13-3.4-3-8.74-4.57-13-1.44a11.39,11.39,0,0,0-3.28,3.83A17.5,17.5,0,0,0,111.34,91.75Zm-3.66,33.57a75.54,75.54,0,0,0-11.44,1.17c-5.89,1.08-14,2.55-18.29,7.66a10.35,10.35,0,0,0-1.21,1.76,8.81,8.81,0,0,0-1.12,5.22c.37,2.86,2.78,4.73,4.91,5.52,6.06,2.26,13.23-1.09,19-3.78l.11-.05c2.16-1,4.32-2.12,6.43-3.3a54.65,54.65,0,0,1,10.66-8.05,13.59,13.59,0,0,1-2.72-3.63,15.77,15.77,0,0,1-.88-2.12C111.31,125.66,109.48,125.53,107.68,125.32ZM114.74,112c-.69-.83-1.36-1.65-2-2.49A58.88,58.88,0,0,0,99.62,100c-6-3.19-12.84-6.23-18.66-4.67A7.94,7.94,0,0,0,76,99.09l-.18.35c-1.17,2.43.09,4.46,1.35,5.73A38.56,38.56,0,0,0,85.28,111a59.7,59.7,0,0,0,9.39,4.4,61,61,0,0,0,13.21,3.17c1.52,0,3.06,0,4.6,0a17.27,17.27,0,0,1,2-6.13C114.56,112.31,114.65,112.16,114.74,112Z"/></g></g></svg>