<?xml version="1.0" encoding="UTF-8"?><svg id="Layer_2" xmlns="http://www.w3.org/2000/svg" viewBox="0 0 415.64 423.88"><defs><style>.cls-1{fill:#007fc4;}.cls-2{fill:#e31d93;}</style></defs><g id="Layer_1-2"><g><path class="cls-2" d="M153.6,251.18c-8.81-1.57-18.28,.5-26.25,4.35-7.98,3.86-13.97,13.64-22.12,15.81-9.65,2.56-22.18-8.31-32.74-11.22-8.89-2.45-18.1-2.69-26.94-.12-17.48,5.08-27.37,19.52-26.83,37.58,.68,22.95,14.9,42.71,30.44,58.41,22.8,23.04,48.24,43.82,72.38,65.44,8.18,7.33,21.37-3.28,13.83-11.15,.3-.23,.59-.48,.88-.77,29.48-29.28,54.22-83.32,46.55-125.83-2.86-15.86-12.61-29.54-29.19-32.49Zm9.03,51.67c-2.7,35.48-20.55,65.84-39.97,94.57-.16,.24-.31,.49-.44,.73-23.19-20.89-48.07-41.68-66.91-65.99-10.75-13.87-28.68-56.39,6.3-53.17,15.38,1.42,26.32,16.2,41.37,16.74,10.42,.37,15.89-7.46,22.89-13.55,8.61-7.49,24.2-19.85,34.45-3.16,3.92,6.39,2.86,16.72,2.32,23.83Z"/><g><path class="cls-2" d="M414.42,18.83c-1.92-5.91-7.11-10.2-13.54-8.85-8.68,1.82-10.86,10-14.57,16.79-3.92-4.43-8.75-8.79-14.18-9.77-5.3-.97-9.28,2.41-9.53,7.69-.69,14.66,11.8,30.81,22.11,39.82,.91,.8,1.88,.94,2.72,.67-.22,.31-.43,.62-.65,.93-2.82,4.06,2.68,8.25,6,4.69,11.27-12.09,27.44-34.17,21.64-51.96Zm-8.44,13.51c-2.7,11.31-9.58,20.35-16.22,29.56,.01-.86-.3-1.74-1.09-2.47-6.85-6.35-12.16-13.94-15.45-22.71-.96-2.55-5.06-11.4-.3-10.92,3.66,.36,8.34,7.69,10.4,10.4,1.71,2.26,4.84,2.1,6.62,.08,3.89-4.4,4.86-9.9,8.19-14.54,2.7-3.76,7.55-3.96,8.62,1.05,.68,3.16-.05,6.47-.79,9.54Z"/><path class="cls-2" d="M386.66,78.46c-1.79,6.85-4.75,18.01-13.2,19.33,.49-1.6,.86-3.24,1.06-4.93,.87-7.07-4.29-12.56-10.96-7.7-6.53,4.75-4.67,13.44,2.03,16.65-.76,1.22-1.42,2.18-1.78,2.63-4.7,6.03-11,9.63-18.25,11.73-2.49,.72-1.41,4.78,1.12,4.37,10.15-1.63,19.57-8.25,24.48-17.33,11.74,.64,17.29-14.56,19.38-24.23,.54-2.5-3.26-2.92-3.89-.53Zm-21.92,12.9c.32-1.01,2.92-3.99,4.28-3.25,2.21,1.21,1,5.25-.85,9.06-2.46-1.04-4.3-3.09-3.43-5.8Z"/></g><path class="cls-2" d="M3.45,238.36c-1.18,0-2.31-.66-2.95-1.72-.63-1.04-.67-2.31-.1-3.39,3.24-6.16,9.32-10.32,16.25-11.13,.14-.02,.28-.02,.42-.02,1.81,0,3.32,1.45,3.42,3.3,.1,1.77-1.1,3.21-2.87,3.41-4.91,.57-9.06,3.43-11.37,7.83-.57,1.09-1.61,1.73-2.79,1.73Z"/><g><path class="cls-1" d="M98.18,66.74c.03,1.01-.78,1.88-1.79,1.91-1.95,.06-3.9,.16-5.86,.04-1.11-.07-2.24-.25-3.32-.52-.54-.13-1.09-.31-1.54-.63-.54-.37-1.01-1.03-.72-1.72,.4-.95,1.45-1.26,2.37-1.45,1.01-.21,2.07-.22,3.1-.2h-.07c.78,.02,1.56,.08,2.34,.19,.79,.11,1.58,.25,2.36,.38h0c.48,.07,.97,.14,1.46,.2,.4,.05,.78,.22,1.07,.48,.36,.32,.6,.77,.61,1.3Z"/><path class="cls-1" d="M100.91,32.95c.56,.49,.72,1.35,.47,2.03-.27,.73-.96,1.21-1.73,1.25-.35,.02-.69-.03-1.03-.09-.17-.01-.35-.02-.52-.04-.27-.03-.54-.09-.81-.17-.52-.14-1.03-.28-1.54-.44-1.02-.33-2.02-.74-2.97-1.24-.94-.49-1.88-1.1-2.64-1.83-.57-.56-1.62-1.65-.79-2.43,.21-.2,.55-.3,.84-.33,.49-.07,1-.04,1.49,0,.48,.03,.96,.12,1.44,.2,.47,.08,.95,.18,1.41,.31,.96,.25,1.9,.56,2.83,.91,.39,.15,.76,.31,1.15,.47,.25,.11,.52,.22,.76,.33,.2,.09,.39,.24,.58,.36,.09,.05,.17,.09,.26,.14,.28,.14,.52,.33,.76,.54l.03,.03Z"/><path class="cls-1" d="M132.07,1.4c.15,.49,.25,1,.33,1.5,.15,.97,.26,1.95,.34,2.93,.08,1.09,.12,2.19,.19,3.28,.04,.55,.07,1.1,.12,1.65,.05,.58,.14,1.17,0,1.75-.12,.53-.51,.95-1.05,1.07-.62,.13-1.19-.2-1.49-.73-.29-.5-.36-1.11-.46-1.68-.1-.54-.2-1.08-.29-1.62-.19-1.12-.39-2.24-.53-3.37-.12-.93-.19-1.87-.22-2.82-.02-.51-.03-1.04,.03-1.55,.05-.55,.2-1.12,.64-1.49,.45-.39,1.13-.45,1.63-.1,.05,.04,.11,.08,.15,.12,.31,.28,.5,.65,.62,1.05Z"/><path class="cls-1" d="M167.9,10.3c-.28,.73-.63,1.43-1,2.12-.73,1.39-1.54,2.73-2.34,4.08,.03-.05,.07-.11,.1-.16-.37,.63-.72,1.27-1.1,1.9-.3,.5-.59,1.08-1.02,1.47-.54,.49-1.38,.58-2.02,.25-.64-.32-1.05-1.03-1-1.74,.03-.5,.25-.96,.44-1.42,.15-.33,.29-.66,.45-.98,.46-.9,.97-1.78,1.47-2.66,.67-1.16,1.4-2.3,2.13-3.42,.39-.6,.81-1.19,1.33-1.7,.57-.56,1.45-.95,2.2-.44,.05,.03,.11,.07,.16,.12,.72,.64,.51,1.74,.2,2.56Z"/></g><path class="cls-1" d="M341.27,189.89c-4.48-1.13-9.45-.41-13.7,1.29-4.26,1.7-7.7,6.53-11.99,7.35-5.07,.97-11.14-5.09-16.48-6.98-4.5-1.59-9.24-2.05-13.89-1.04-9.2,1.98-14.83,9.07-15.21,18.41-.49,11.86,6.13,22.58,13.57,31.24,10.92,12.71,23.29,24.36,34.95,36.39,3.95,4.08,11.14-.91,7.54-5.25,.16-.11,.32-.23,.48-.36,16.27-14.03,31.01-41.01,28.6-63.21-.9-8.29-5.43-15.7-13.88-17.82Zm2.77,26.98c-2.68,18.21-13,33.22-24.06,47.33-.09,.12-.18,.24-.26,.36-11.2-11.62-23.28-23.25-32.11-36.48-5.04-7.55-12.74-30.14,5.19-27.2,7.88,1.29,12.98,9.32,20.73,10.14,5.36,.57,8.47-3.27,12.3-6.15,4.72-3.55,13.21-9.36,17.88-.38,1.79,3.44,.87,8.73,.33,12.38Z"/></g><path class="cls-2" d="M5.02,256.99c-1.13,0-2.23-.56-2.86-1.47-.61-.88-.74-1.98-.36-3.02,3.93-10.56,14.11-17.65,25.34-17.65,1.49,0,2.99,.13,4.47,.38,1.79,.31,3.02,1.93,2.86,3.76-.15,1.73-1.48,2.98-3.16,2.98h0c-.19,0-.39-.02-.59-.05-1.14-.2-2.3-.3-3.46-.3-8.49,0-16.17,5.29-19.1,13.17-.5,1.33-1.73,2.19-3.14,2.19Z"/></g></svg>