<?xml version="1.0" encoding="UTF-8"?><svg id="Layer_2" xmlns="http://www.w3.org/2000/svg" viewBox="0 0 226.53 286"><defs><style>.cls-1{fill:#f9ddec;}</style></defs><g id="Layer_1-2"><g id="KrZtPE"><path class="cls-1" d="M101.72,283.74c-11.81,4.39-17.2,2.68-24.53-7.67-16.99-24.02-33.96-48.06-50.95-72.08-1.77-2.5-3.24-5.12-6.63-6.16C3.85,193.01-1.1,185.97,.2,169.43c1.02-13.01,7.02-25.13,7.42-38.31,.02-.68,.4-1.39,.75-2.01,4.89-8.45,8.76-16.94,1.48-26.1-.4-.51-.39-1.37-.54-2.07-3.98-18.69,4.35-33.75,24.1-41.86,6.36-2.61,6.69-4.48,2.8-9.93-8.09-11.35-7.32-26.45,.87-36.88,14.38-18.31,40.89-15.83,52.48,5.33,2.85,5.21,5.76,6.68,11.26,5.6,3.7-.72,7.67-.72,11.44-.3,18.82,2.12,33.98,10.21,41.65,28.35,1.96,4.64,3.88,6.12,8.62,6.19,12.45,.19,23.02,4.3,29.18,16.08,1.63,3.13,4.64,3.82,7.55,4.95,15.9,6.14,23.82,22.15,18.84,38.5-1.22,4.01-1.59,7.86-1.16,11.98,3.19,30.69,6.35,61.39,9.38,92.1,1.16,11.77-1.98,16.7-12.97,20.86-18.58,7.04-37.2,13.95-55.8,20.92-18.6,6.97-37.2,13.96-55.81,20.89ZM27.12,141.73c-16.8,6.35-24.26,21.74-18.92,38.69,2.57,8.17,6.81,11.36,15.43,10.7,11.47-.88,21.87-5.42,31.36-11.47,27.45-17.52,58.1-24.91,89.71-29.98,16.29-2.61,32.28-6.71,46.87-15.01,5.24-2.98,10.26-6.17,14.37-10.57,7.83-8.38,8.87-17.71,3.39-28.42-4.35-8.51-13.73-13.14-24.06-12.03-3.86,.41-7.45,1.64-11.04,2.99-24.41,9.15-48.82,18.28-73.22,27.42-24.63,9.23-49.28,18.4-73.89,27.7ZM180.18,77.7c5.28-1.84,4.51-3.77,1.4-6.8-7.04-6.86-15.87-7.44-24.82-6.61-13.86,1.28-27.14,5.61-40.66,8.65-15.86,3.56-31.58,7.77-47.69,10.21-4.77,.72-9.52,1.01-14.29,.24-9.34-1.51-12.79-5.31-12.73-14.9,.02-3.41-.55-4.19-3.95-3.32-18.45,4.7-26.83,21.56-19.5,39.11,2.12,5.07,5.49,8.15,10.74,9.61,6.55,1.82,13.24,2.15,19.93,1.95,19.71-.57,39.05-3.16,57.54-10.61,10.43-4.21,21.05-7.94,31.59-11.88,.01,.03,.02,.07,.04,.1,14.12-5.29,28.17-10.79,42.4-15.75Zm-61.84,90.83c-1.73-4.94-4.39-5.9-9.19-5.02-21.59,3.95-22.13,5.4-12.32,25.05,10.57,21.15,20.38,42.66,30.71,63.93,7.12,14.64,4.55,11.69,18.83,6.73,4.93-1.71,3.95-5.06,2.57-8.71-5.16-13.64-10.25-27.31-15.36-40.97-5.12-13.66-10.42-27.25-15.24-41.01Zm3.52,87.5c-11.7-24.61-23.54-49.16-35.43-73.68-4.43-9.14-4.56-9.08-13.57-4.43-13.61,7.02-13.79,7.12-6.95,20.35,12.4,24,25.11,47.85,37.57,71.81,3.84,7.37,8.11,.82,11.69,.85,11.36-4.3,11.62-4.55,6.7-14.9Zm25.6-202.66c-2.85-8.16-8.87-13.47-15.96-17.71-7.56-4.52-15.86-6.43-24.68-6.17-11.45,.33-11.78,.52-14.68,11.21-4.15,15.28-18.59,24.98-34.44,22.39-5.61-.92-8.76-.04-9.61,5.85-.97,6.71,3.97,7.62,8.49,7.96,10.86,.81,21.31-2.18,31.76-4.53,18.62-4.18,37.17-8.64,56.12-13.07,3.69-.29,4.18-2.51,2.99-5.93Zm7.82,195.86c1.69,4.81,3.96,6,8.41,3.61,1.88-1.01,3.97-1.66,6.01-2.32,4.19-1.34,5.4-3.69,4.15-8.15-7.64-27.35-15.09-54.75-22.46-82.18-.88-3.26-2.39-4.29-5.59-3.66-5.62,1.11-11.24,2.33-16.92,2.97-5.64,.63-5.94,3.3-4.21,7.82,5.31,13.83,10.43,27.73,15.63,41.6,5.02,13.43,10.23,26.79,14.98,40.31Zm45.24-21.19c-5.86-24.12-11.56-48.27-17.18-72.45-1.93-8.31-2.19-8.59-10.46-5.78-1.58,.54-3.16,1.11-4.76,1.57-11.12,3.18-11.36,3.24-8.43,13.99,6.32,23.25,12.82,46.46,19.44,69.64,3.08,10.79,3.28,10.73,14.21,6.67,9.83-3.66,9.62-3.6,7.19-13.64ZM52.96,8.78c-12.82,4.97-18.83,18.68-13.94,31.81,4.83,12.99,19.59,19.69,32.31,14.66,12.75-5.03,18.17-18.5,12.95-32.15-5.17-13.53-18.11-19.45-31.32-14.33Zm2.37,183.85c-1.83-3.51-4.1-3.57-7-1.88-3.74,2.18-7.58,4.38-11.85,4.98-6.35,.89-5.32,3.5-2.52,7.43,13.72,19.3,27.32,38.68,40.97,58.03,3.17,4.5,6.23,9.07,9.54,13.46,2.05,2.72,4.55,4.97,8.47,4.31,4.21-.71,7.13-2.1,3.57-7.93-13.41-25.49-27.36-51.91-41.18-78.4Zm157.16,41.37c3.29-.34,6.06-1.92,6.86-5.38,.47-2.05,.48-4.28,.27-6.39-2.81-28.09-5.67-56.18-8.57-84.26-.79-7.66-.86-7.64-6.91-3.38-1.76,1.24-3.54,2.46-5.37,3.59-10.81,6.67-11.07,6.72-8.27,18.78,5.56,23.99,11.43,47.91,17.29,72.35,.79,1.88,1.08,5.07,4.7,4.69ZM58.3,123.34c-11.5-.44-22.83-.57-33.86-3.81-1.78-.52-3.41-.09-4.43,1.5-3.74,5.8-7.24,11.71-6.98,19.26,15.38-5.76,30.32-11.35,45.27-16.95Z"/></g></g></svg>