<?xml version="1.0" encoding="UTF-8"?><svg id="Layer_2" xmlns="http://www.w3.org/2000/svg" viewBox="0 0 369.72 209.69"><defs><style>.cls-1{fill:#f2b5c7;}</style></defs><g id="Layer_1-2"><g><path class="cls-1" d="M12.07,40.69c.47-.91,.91-1.76,1.32-2.55,.41-.79,.83-1.57,1.27-2.33,1.25-2.39,2.75-4.52,4.5-6.39,1.74-1.87,3.67-3.62,5.77-5.25,1.96-1.61,4.25-2.9,6.86-3.87,2.8-.99,5.27-1.04,7.4-.13,2.13,.9,4.01,2.4,5.64,4.51,1.02,1.41,1.79,2.9,2.3,4.46,.51,1.56,.91,3.17,1.2,4.81,.37,2.35,.44,4.67,.23,6.96-.21,2.29-.52,4.61-.92,6.95-.73,4-1.63,7.95-2.69,11.84-1.06,3.9-2.2,7.78-3.43,11.64-.98,3.12-1.96,6.21-2.95,9.26-.99,3.05-2.05,6.07-3.18,9.07-.99,2.65-1.99,5.24-3.01,7.8-1.02,2.55-2.07,5.14-3.16,7.74-.33,.85-.64,1.71-.92,2.58-.28,.87-.56,1.75-.84,2.64-.38,1.24-.95,2.33-1.7,3.28-.75,.95-1.63,1.81-2.64,2.6-.79,.62-1.62,1-2.48,1.15-.87,.15-1.74,.34-2.62,.59-.33,.04-.57,0-.73-.13-.58-.46-1.14-.91-1.7-1.35-.55-.44-1.01-1.02-1.38-1.74-1.05-2.03-1.86-4.12-2.44-6.28-.58-2.15-1.12-4.35-1.62-6.58-.52-2.42-1.07-4.82-1.65-7.19-.58-2.37-1.16-4.76-1.72-7.18-.62-2.46-1.19-4.92-1.71-7.36-.52-2.45-.95-4.94-1.29-7.48-.4-2.68-.84-5.3-1.3-7.88-.46-2.57-.85-5.2-1.16-7.89-.25-2.17-.48-4.34-.68-6.51-.2-2.17-.31-4.36-.32-6.55-.01-.95-.07-1.93-.16-2.92-.09-.99-.15-1.99-.16-2.99-.05-1.24,.16-2.33,.62-3.3,.46-.96,1.13-1.82,1.99-2.59,1.08-.98,2.22-1.33,3.43-1.04,1.2,.29,2.18,1.02,2.94,2.17,.47,.8,.92,1.66,1.33,2.57,.41,.91,.75,1.83,1,2.75,.15,.46,.4,1.17,.75,2.14Zm9.89,57.97c.41-.57,.7-1.13,.88-1.68,.18-.55,.34-1.05,.51-1.53,.16-.47,.33-.96,.51-1.46,1.25-2.87,2.42-5.76,3.52-8.68,1.1-2.92,2.17-5.87,3.21-8.86,.62-1.69,1.2-3.37,1.75-5.04,.55-1.66,1.13-3.37,1.74-5.11,.73-1.99,1.43-3.97,2.11-5.94,.68-1.96,1.31-3.98,1.88-6.06,.62-2.08,1.2-4.13,1.73-6.15,.53-2.02,.93-4.12,1.21-6.3,.16-1.12,.32-2.22,.48-3.31,.16-1.09,.22-2.21,.19-3.35-.03-1.05-.17-2.07-.42-3.07-.26-1-.7-1.94-1.33-2.82-.47-.76-.96-1.24-1.46-1.44-.5-.2-1.19-.21-2.08-.01-.23,.08-.44,.13-.62,.18-.19,.05-.39,.13-.62,.25-1.64,.67-3.12,1.54-4.43,2.62-1.31,1.08-2.56,2.24-3.76,3.48-2.47,2.62-4.61,5.43-6.41,8.4-1.81,2.98-3.43,6.1-4.87,9.37-.53,1.25-.89,2.53-1.1,3.82-.21,1.29-.16,2.63,.14,4.03,.32,1.54,.59,3.08,.82,4.63,.23,1.55,.48,3.1,.75,4.64,.58,3.37,1.16,6.72,1.73,10.05,.57,3.33,1.2,6.67,1.87,10.03,.3,1.35,.58,2.73,.83,4.13,.26,1.4,.51,2.81,.77,4.21,.02,.14,.05,.31,.09,.49,.04,.19,.17,.34,.38,.46Z"/><path class="cls-1" d="M105.45,78.88c-.67,2.08-1.35,4.14-2.05,6.18-.7,2.04-1.45,4.08-2.27,6.14-.73,1.95-1.6,3.83-2.61,5.64-1.01,1.81-2.11,3.57-3.3,5.29-1.79,2.69-3.92,4.81-6.4,6.36-2.47,1.55-5.43,2.33-8.87,2.35-3.58,.03-6.72-.73-9.43-2.28-2.71-1.55-5.07-3.79-7.08-6.71-1.39-2.13-2.54-4.33-3.44-6.59s-1.62-4.63-2.14-7.1c-.46-1.91-.78-3.8-.98-5.69-.19-1.89-.35-3.8-.48-5.75-.13-1.99-.15-3.97-.04-5.94,.11-1.97,.33-3.95,.68-5.95,.48-2.92,1.14-5.77,1.99-8.54,.85-2.77,2.09-5.42,3.71-7.95,.97-1.54,2.07-2.95,3.31-4.21,1.24-1.26,2.61-2.41,4.12-3.45,1.29-.86,2.62-1.6,4.01-2.22,1.39-.61,2.83-1.05,4.33-1.32,1.69-.29,3.37-.39,5.05-.29,1.68,.09,3.34,.6,4.97,1.51,.41,.24,.83,.47,1.26,.68,.43,.21,.87,.41,1.32,.6,1.57,.78,2.96,1.76,4.17,2.96,1.21,1.2,2.35,2.5,3.42,3.91,1.07,1.41,1.82,2.94,2.25,4.61,.43,1.67,.58,3.42,.46,5.25-.46,5.98-2.64,11.31-6.54,16.01-1.13,1.37-2.29,2.71-3.48,4.02-1.19,1.31-2.46,2.54-3.8,3.7-1.92,1.61-3.95,2.96-6.09,4.07-2.14,1.11-4.48,1.85-7.01,2.24-.05,0-.25,.08-.62,.21,.56,1.99,1.28,3.84,2.14,5.56,.87,1.72,2.02,3.25,3.47,4.62,1.22,1.1,2.55,1.88,3.96,2.34,1.41,.46,2.93,.64,4.54,.55,.67-.03,1.23-.22,1.69-.59,.46-.36,.93-.76,1.4-1.2,.98-1.07,1.85-2.21,2.62-3.42,.77-1.21,1.46-2.47,2.07-3.79,.89-1.77,1.69-3.56,2.39-5.36,.7-1.8,1.3-3.64,1.8-5.51,.28-.89,.63-1.66,1.06-2.31,.43-.65,1.1-1.09,2.03-1.34,.57-.02,1.08,.07,1.53,.25,.36,.2,.65,.49,.89,.87,.23,.38,.22,.92-.03,1.62Zm-32.68,3.69c.6-.16,1.15-.3,1.64-.4,.49-.1,.96-.25,1.42-.45,1.61-.57,3.11-1.3,4.51-2.2,1.4-.9,2.7-1.92,3.91-3.06,.99-.93,1.94-1.86,2.83-2.8,.9-.94,1.76-1.91,2.6-2.91,1.77-2.02,3.1-4.23,3.97-6.62,.87-2.39,1.37-4.91,1.5-7.55,.1-1.2-.03-2.32-.39-3.36-.36-1.03-.99-1.97-1.9-2.83-1.72-1.62-3.63-2.58-5.74-2.89-2.11-.31-4.17,.18-6.17,1.46-1.74,1.11-3.19,2.46-4.37,4.05-1.18,1.59-2.11,3.34-2.8,5.23-1.16,3.19-1.87,6.55-2.14,10.06-.17,1.88-.23,3.75-.18,5.61,.05,1.86,.22,3.73,.54,5.6,.11,.51,.22,1.01,.35,1.5,.13,.49,.27,1.01,.43,1.56Z"/><path class="cls-1" d="M128.64,101.07c-.78,1.52-1.72,2.63-2.81,3.33-1.09,.7-2.12,1.15-3.1,1.36-1.16,.28-2.33,.32-3.5,.12-.76-.77-1.4-1.61-1.94-2.5-.53-.89-.98-1.87-1.34-2.93-.87-2.62-1.58-5.29-2.1-8-.53-2.71-.99-5.43-1.4-8.15-.39-2.53-.78-5.03-1.18-7.49-.4-2.46-.75-4.97-1.04-7.51-.4-3.49-.78-6.97-1.13-10.44-.35-3.47-.71-6.98-1.07-10.52-.33-3.26-.69-6.5-1.08-9.73-.4-3.23-.73-6.47-1.01-9.74-.27-2.79-.51-5.55-.7-8.3-.2-2.75-.41-5.54-.64-8.38-.11-1.37-.17-2.73-.18-4.06-.01-1.34,.17-2.67,.54-4,.22-.98,.57-1.93,1.03-2.84,.19-.4,.46-.7,.79-.88,.34-.18,.72-.3,1.14-.35,1.08-.17,2.03-.02,2.85,.46,.82,.48,1.54,1.16,2.17,2.04,1.33,2,2.3,4.09,2.91,6.29,.61,2.2,1.1,4.47,1.47,6.82,.35,2.21,.67,4.39,.97,6.55,.3,2.16,.57,4.35,.83,6.57,.42,3.25,.82,6.49,1.19,9.72s.7,6.48,.98,9.74c.25,2.17,.45,4.33,.6,6.49,.15,2.16,.31,4.32,.46,6.5,.19,2.08,.39,4.12,.6,6.13,.21,2.01,.43,4.02,.66,6.05,.17,1.46,.36,2.9,.57,4.31,.21,1.41,.42,2.84,.64,4.3,.12,1.08,.28,2.19,.45,3.31,.18,1.13,.33,2.25,.46,3.39,.17,1.08,.31,2.15,.41,3.21,.1,1.06,.21,2.16,.34,3.29,.16-.26,.3-.5,.42-.73,.12-.23,.26-.47,.42-.73,.38-.47,.74-.94,1.09-1.42,.35-.47,.74-.92,1.17-1.35,.56-.54,1.2-.59,1.92-.15,.36,.2,.53,.44,.51,.73-.01,.29-.05,.6-.11,.94-.35,1.52-.82,2.97-1.4,4.35-.58,1.38-1.2,2.78-1.85,4.19Z"/><path class="cls-1" d="M149.7,92.28c.28,1.21,.53,2.35,.75,3.42,.2,.93,.38,1.82,.52,2.66,.14,.84,.19,1.44,.13,1.78-.13,.92-.43,1.65-.9,2.18-.47,.53-1.15,.8-2.06,.81-1.39-.03-2.52-.41-3.39-1.15-.87-.73-1.63-1.62-2.27-2.64-.46-.66-.8-1.32-1.01-1.96-.21-.6-.42-1.17-.63-1.72-.21-.55-.39-1.13-.56-1.73-.52-2.47-1.06-4.92-1.6-7.34-.54-2.42-1.05-4.87-1.53-7.35-.44-2.19-.87-4.37-1.29-6.52-.42-2.15-.73-4.36-.94-6.63-.1-1.28-.23-2.55-.4-3.82-.17-1.27-.33-2.54-.47-3.81-.05-.81-.1-1.6-.17-2.38-.07-.78-.12-1.57-.17-2.38-.09-.8-.19-1.58-.3-2.33-.11-.75-.19-1.53-.23-2.34-.06-.95-.03-1.91,.1-2.88,.15-1.16,.73-2.08,1.73-2.74,1-.66,2.05-.8,3.14-.4,.4,.15,.75,.36,1.04,.63,.29,.28,.58,.57,.85,.87,.5,.61,.9,1.26,1.19,1.94,.29,.68,.58,1.39,.85,2.12,.63,1.74,1.13,3.49,1.5,5.24,.37,1.75,.63,3.52,.79,5.32,.09,1.23,.22,2.42,.38,3.58,.16,1.15,.31,2.34,.45,3.57h.07c.26,1.4,.47,2.79,.63,4.18,.16,1.39,.37,2.79,.63,4.19l2.77,14.73c.11,.51,.19,.99,.24,1.44,.05,.45,.11,.93,.17,1.45Zm-11.81-54.67c-.27,.17-.59,.31-.96,.4-.37,.09-.74,.1-1.11,.02-.37-.08-.73-.3-1.08-.66-.35-.37-.65-.94-.88-1.73-.23-.79-.28-1.46-.13-2.03,.15-.57,.37-1.06,.65-1.47,.33-.47,.76-.88,1.29-1.22,.13-.11,.45-.1,.97,.03,.52,.13,1.05,.29,1.59,.46,.59,.17,1.16,.65,1.71,1.45,.55,.8,.88,1.52,1,2.18,.04,.33-.04,.61-.22,.85-.19,.24-.45,.47-.78,.7-.33,.23-.68,.43-1.04,.59-.36,.16-.71,.31-1.02,.44Z"/><path class="cls-1" d="M194.93,40.14c-.51,.15-.92,.25-1.22,.28-.31,.04-.56,.02-.76-.06-.2-.07-.38-.22-.55-.44-.17-.22-.4-.55-.69-1-.12-.18-.23-.33-.34-.46-1.25-.91-2.53-1.76-3.84-2.57-1.31-.8-2.74-1.31-4.29-1.51-.54-.08-1.05-.09-1.54-.04-.49,.06-1,.09-1.53,.1-.28,.03-.67,.11-1.15,.24-.49,.13-.98,.29-1.48,.49-.5,.2-.96,.41-1.36,.62-.41,.21-.67,.42-.79,.63-1.7,3.11-3.18,6.27-4.46,9.47-1.28,3.21-2.02,6.61-2.23,10.22-.24,3.28-.31,6.52-.21,9.73,.11,3.21,.54,6.42,1.29,9.63,.38,1.68,.77,3.3,1.17,4.88,.4,1.58,1.26,2.96,2.59,4.14,.59,.55,1.12,1.04,1.6,1.46,.48,.42,1.05,.86,1.73,1.31,.26,.16,.7,.24,1.32,.24s1.28-.04,1.99-.12c.71-.08,1.37-.2,2-.37,.63-.17,1.05-.34,1.27-.5,.92-.68,1.7-1.47,2.34-2.38,.64-.91,1.21-1.87,1.71-2.88,.35-.71,.64-1.46,.89-2.25,.24-.79,.51-1.59,.8-2.39,.28-.84,.57-1.68,.86-2.5,.29-.82,.75-1.58,1.39-2.27,.47-.48,.99-.7,1.57-.65,.58,.05,1,.4,1.27,1.04,.25,.54,.44,1.11,.55,1.69,.11,.58,.09,1.2-.08,1.84-.33,1.71-.68,3.4-1.06,5.07-.38,1.67-.89,3.3-1.51,4.9-.71,1.75-1.56,3.43-2.57,5.02-1.01,1.6-2.21,3.02-3.59,4.28-3.32,3.1-6.84,4.77-10.56,5.01-3.72,.24-7.44-1.05-11.16-3.88-2.66-1.99-4.75-4.33-6.25-7.02-1.5-2.69-2.63-5.64-3.38-8.85-.84-3.53-1.27-7.07-1.29-10.6-.02-3.53,.16-7.09,.56-10.67,.32-2.62,.73-5.19,1.22-7.74,.5-2.54,1.2-5.03,2.11-7.48,1.57-4.19,3.73-7.78,6.46-10.77,2.74-2.99,6.3-5.14,10.69-6.46,.92-.3,1.9-.47,2.95-.52,1.04-.05,2.07-.06,3.08-.03,1.72,.04,3.42,.25,5.09,.63,1.67,.38,3.25,1.06,4.75,2.03,.78,.58,1.58,1.17,2.39,1.77,.81,.6,1.47,1.3,2,2.1,.71,1.16,1.13,2.39,1.28,3.69,.15,1.3-.18,2.59-.99,3.88Z"/><path class="cls-1" d="M218.64,84.34c.28,1.21,.53,2.35,.75,3.42,.2,.93,.38,1.82,.52,2.66,.14,.84,.19,1.44,.13,1.78-.13,.92-.43,1.65-.9,2.18-.47,.53-1.15,.8-2.06,.81-1.39-.03-2.52-.41-3.39-1.15-.87-.73-1.63-1.62-2.27-2.64-.46-.66-.8-1.32-1.01-1.96-.21-.6-.42-1.17-.63-1.72-.21-.55-.39-1.13-.56-1.73-.52-2.47-1.06-4.92-1.6-7.34-.54-2.42-1.05-4.87-1.53-7.35-.44-2.19-.87-4.36-1.29-6.52-.42-2.15-.73-4.36-.94-6.63-.1-1.28-.23-2.55-.4-3.82-.17-1.27-.33-2.54-.47-3.81-.05-.81-.1-1.6-.17-2.38-.07-.78-.12-1.57-.17-2.38-.09-.8-.19-1.58-.3-2.33-.11-.75-.19-1.53-.23-2.34-.06-.95-.03-1.91,.1-2.88,.15-1.16,.73-2.08,1.73-2.74,1-.66,2.05-.8,3.14-.4,.4,.15,.75,.36,1.04,.63,.29,.28,.58,.57,.85,.87,.5,.61,.9,1.26,1.19,1.94s.58,1.39,.85,2.12c.63,1.74,1.13,3.49,1.5,5.24,.37,1.75,.63,3.52,.79,5.32,.09,1.23,.22,2.42,.38,3.58,.16,1.15,.31,2.34,.45,3.57h.07c.26,1.4,.47,2.79,.63,4.18,.16,1.39,.37,2.79,.63,4.19l2.77,14.73c.11,.51,.19,.99,.24,1.44,.05,.45,.11,.93,.17,1.45Zm-11.81-54.67c-.27,.17-.59,.31-.96,.4-.37,.09-.74,.1-1.11,.02-.37-.08-.73-.3-1.08-.66-.35-.36-.65-.94-.88-1.73s-.28-1.46-.13-2.03c.15-.57,.37-1.06,.65-1.47,.33-.47,.76-.88,1.29-1.22,.13-.11,.45-.1,.97,.03,.52,.13,1.05,.29,1.59,.46,.59,.17,1.16,.65,1.71,1.45,.55,.8,.88,1.52,1,2.18,.04,.33-.04,.61-.22,.85-.19,.24-.45,.47-.78,.7-.33,.23-.68,.43-1.04,.59-.36,.16-.71,.31-1.02,.44Z"/><path class="cls-1" d="M270.41,52.31c.21,2.27,.37,4.29,.48,6.07,.11,1.78,.05,3.52-.19,5.22-.22,1.46-.45,2.91-.72,4.35-.26,1.44-.65,2.88-1.15,4.32-.51,1.35-1.05,2.68-1.62,3.98-.57,1.31-1.13,2.61-1.7,3.92-.61,1.31-1.38,2.5-2.31,3.56-.93,1.06-1.91,2.06-2.95,2.99-.08,.11-.16,.17-.23,.21-.07,.03-.14,.1-.23,.21-1.36,1.49-2.91,2.52-4.66,3.08-1.75,.56-3.57,.95-5.45,1.17-.8,.09-1.61,.1-2.43,.03-.82-.07-1.64-.13-2.46-.18-4.1-.34-7.6-1.56-10.49-3.67-2.89-2.1-5.32-4.86-7.29-8.26-1.78-3-3.07-6.12-3.87-9.37-.8-3.25-1.24-6.59-1.3-10.02-.06-2.57,.03-5.11,.27-7.63,.24-2.51,.64-5.02,1.21-7.52,.81-3.72,2.01-7.24,3.59-10.55,1.58-3.31,3.68-6.38,6.32-9.22,3.49-3.74,7.78-6.03,12.9-6.86,2.39-.42,4.59-.25,6.61,.49,2.02,.75,3.89,1.95,5.61,3.62,1.94,1.93,3.51,4.05,4.71,6.37,1.2,2.32,2.25,4.72,3.16,7.2,.56,1.51,1.03,3.03,1.42,4.57,.39,1.53,.8,3.09,1.22,4.66,.39,1.34,.75,2.66,1.06,3.96,.32,1.3,.48,2.41,.49,3.31Zm-32.78,10.86c.24,1.69,.78,3.63,1.6,5.8,.82,2.17,2.07,4.27,3.73,6.27,1.77,2.09,3.79,3.55,6.06,4.39,2.27,.84,4.78,.98,7.54,.42,.65-.17,1.27-.41,1.85-.71,.58-.31,1.17-.64,1.75-.99,1.16-.75,2.01-1.71,2.57-2.87,.56-1.16,1.08-2.37,1.55-3.62,.72-2.04,1.15-4.1,1.3-6.17,.14-2.07,.19-4.15,.14-6.25-.02-1.81-.13-3.59-.33-5.34-.2-1.74-.59-3.47-1.17-5.17-.38-1.2-.73-2.4-1.06-3.6-.33-1.2-.71-2.4-1.13-3.6-.58-1.7-1.24-3.37-1.97-5-.74-1.63-1.66-3.15-2.78-4.55-1.01-1.32-2.12-2.48-3.34-3.48-1.22-1.01-2.66-1.75-4.34-2.22-1.43-.36-2.57-.36-3.44,0-.87,.36-1.68,1.19-2.44,2.47-2.13,3.54-3.71,7.38-4.77,11.51-.84,3.49-1.37,7.05-1.6,10.68-.23,3.63-.14,7.65,.27,12.04Z"/><path class="cls-1" d="M301.3,38.01c-.18,.55-.34,1.09-.49,1.63-.15,.54-.29,1.09-.42,1.63-.42,2.2-.81,4.4-1.17,6.62-.37,2.22-.76,4.42-1.17,6.62-.27,1.37-.52,2.75-.74,4.13-.22,1.39-.54,2.75-.96,4.09-.47,1.3-1.08,2.47-1.82,3.51-.74,1.04-1.72,1.89-2.93,2.56-.23,.12-.43,.29-.62,.5-.19,.21-.4,.4-.61,.57-.75,.56-1.49,1.02-2.24,1.37-.75,.35-1.6,.51-2.56,.47-1.59-.1-2.94-.66-4.06-1.68-.91-.85-1.71-1.79-2.4-2.8-.69-1.02-1.3-2.12-1.81-3.3-.78-1.77-1.41-3.57-1.91-5.4-.5-1.83-.93-3.7-1.29-5.62-.34-1.68-.67-3.37-1.01-5.08-.34-1.7-.63-3.4-.87-5.09-.25-1.79-.44-3.58-.55-5.38-.11-1.8-.22-3.6-.34-5.41-.15-2.13-.25-4.23-.3-6.31-.05-2.07-.12-4.18-.22-6.31,0-.81,.2-1.62,.58-2.43,.38-.81,1.04-1.36,1.96-1.66,.32-.13,.63-.26,.92-.39,.3-.13,.6-.26,.92-.39,1.63-.38,2.91,.14,3.83,1.56,.4,.58,.75,1.17,1.06,1.78,.31,.61,.51,1.29,.59,2.04,.06,.9,.24,1.78,.55,2.62,.31,.85,.57,1.71,.76,2.6,.17,.65,.32,1.32,.45,2.03,.13,.7,.25,1.38,.38,2.03,.32,1.97,.63,3.93,.93,5.88,.3,1.95,.6,3.91,.93,5.88,.23,1.22,.43,2.4,.59,3.55,.16,1.15,.35,2.34,.59,3.55,.16,.94,.3,1.9,.44,2.89,.14,.99,.33,1.97,.59,2.94,.35,1.35,.57,2.7,.68,4.08,.11,1.37,.43,2.72,.97,4.04,.22,.69,.53,1.3,.93,1.83,.46,.66,.88,.61,1.27-.15,.23-.5,.45-1.01,.65-1.51,.2-.5,.35-1.02,.43-1.55,.2-1.55,.4-3.09,.58-4.62,.18-1.53,.38-3.06,.58-4.62,.3-1.99,.57-3.96,.83-5.9,.25-1.94,.56-3.88,.9-5.84,.28-1.32,.62-2.61,1.02-3.88,.4-1.26,.79-2.54,1.17-3.83,.16-.64,.37-1.26,.61-1.86,.24-.6,.44-1.22,.61-1.86,.75-2.62,1.94-5.14,3.57-7.58,.29-.37,.53-.82,.7-1.37,.41-1.38,1.33-2.16,2.74-2.32,.71-.08,1.41-.16,2.12-.24,.71-.08,1.42-.14,2.13-.17,.67-.03,1.13,.06,1.39,.27,.26,.21,.52,.61,.78,1.2,.26,.64,.42,1.27,.47,1.88,.05,.62,.11,1.25,.18,1.91,.12,1.04,.29,2.07,.5,3.1,.21,1.03,.34,2.09,.37,3.18,.15,2.13,.25,4.27,.31,6.41,.06,2.14,.13,4.28,.24,6.42,.07,1.43,.16,2.86,.28,4.3,.12,1.44,.21,2.88,.28,4.3,.06,.95,.12,1.9,.18,2.84,.06,.95,.12,1.9,.18,2.85,.06,.9,.11,1.8,.17,2.7,.06,.9,.16,1.8,.31,2.69,.23,1.55,.48,3.11,.75,4.68,.28,1.57,.55,3.15,.83,4.74,.06,.52,.14,1.01,.24,1.48,.1,.47,.25,.95,.45,1.45,.32,.73,.51,1.45,.57,2.16,.06,.71,.11,1.45,.15,2.21-.02,.24-.04,.49-.06,.76-.02,.27-.13,.53-.34,.79-.21,.26-.39,.58-.53,.96-.15,.38-.32,.74-.52,1.1-.08,.11-.15,.22-.21,.35-.06,.13-.13,.24-.21,.35-.68,.75-1.38,1.39-2.11,1.93-.73,.54-1.63,.84-2.72,.92-1.42,.12-2.55-.35-3.39-1.4-.28-.35-.54-.73-.77-1.13-.24-.4-.45-.81-.64-1.22-.97-2.23-1.76-4.48-2.35-6.75-.6-2.27-1.03-4.61-1.31-7.01-.4-3.49-.76-6.96-1.09-10.41-.33-3.45-.5-6.92-.52-10.4,.02-1.1,.05-2.17,.1-3.2,.05-1.03,.1-2.1,.17-3.21,.02-.24,.02-.5,.02-.79,0-.29,0-.55,.02-.79-.05,0-.08,0-.11-.02-.03-.02-.06-.03-.11-.02Z"/><path class="cls-1" d="M323.97,51.95c1.25,.91,2.4,1.85,3.44,2.83,1.04,.98,1.8,2.23,2.26,3.75,.39,1.34,.85,2.64,1.38,3.89,.53,1.25,1.26,2.42,2.2,3.51,.6,.65,1.21,1.21,1.84,1.69,.63,.48,1.3,.94,2.02,1.38,.61,.36,1.26,.56,1.93,.6,.67,.04,1.34,0,1.99-.12,.55-.16,1-.4,1.35-.73,.51-.58,.96-1.21,1.36-1.88,.4-.67,.67-1.41,.82-2.24,.4-2.29,.53-4.55,.37-6.78-.16-2.23-.7-4.43-1.62-6.62-.54-1.37-1.21-2.64-2.02-3.82-.8-1.17-1.67-2.3-2.61-3.39-1.1-1.21-2.17-2.4-3.24-3.57-1.07-1.17-2.08-2.39-3.04-3.66-1.18-1.54-2.28-3.1-3.3-4.71-1.02-1.6-1.88-3.32-2.56-5.15-.49-1.38-.78-2.8-.85-4.27-.07-1.47,.06-2.93,.39-4.38,.33-1.45,.87-2.81,1.61-4.09,.74-1.28,1.67-2.41,2.8-3.4,.35-.28,.7-.56,1.05-.84,.35-.28,.7-.56,1.05-.84,1.01-.78,2.13-1.33,3.36-1.64,1.23-.31,2.46-.4,3.69-.28,1.23,.12,2.42,.4,3.57,.84,1.15,.44,2.17,.99,3.06,1.65,1.83,1.41,3.57,3.03,5.21,4.85,.6,.65,1.12,1.34,1.56,2.08,.44,.74,.9,1.49,1.37,2.24,.3,.49,.56,.96,.81,1.41,.24,.45,.51,.92,.81,1.41,.36,.63,.34,1.28-.06,1.94-.11,.25-.26,.46-.43,.62-.17,.16-.43,.22-.77,.16-.67,.03-1.06-.28-1.18-.94-.14-.41-.27-.83-.39-1.24-.12-.42-.27-.8-.46-1.17-.79-1.44-1.72-2.74-2.81-3.9-1.09-1.16-2.37-2.12-3.84-2.85-.61-.31-1.28-.53-2.01-.66-.73-.13-1.44-.25-2.12-.37-.44-.04-.86,.02-1.27,.18-.41,.17-.76,.46-1.05,.87-.78,1.14-1.38,2.32-1.81,3.54-.43,1.22-.62,2.52-.55,3.9,.03,.67,.17,1.29,.43,1.89,.26,.59,.56,1.13,.9,1.62,1.16,1.78,2.39,3.46,3.7,5.06,1.31,1.59,2.65,3.17,4.02,4.73,1.09,1.16,2.13,2.36,3.13,3.58,1,1.22,1.96,2.5,2.88,3.82,2.46,3.54,4.06,7.44,4.79,11.7,.35,2.25,.55,4.46,.58,6.63,.03,2.17-.16,4.35-.57,6.55-.37,2.58-1.17,4.85-2.4,6.83-1.23,1.98-3.01,3.63-5.34,4.95-.99,.54-2,.9-3.03,1.07-1.03,.17-2.1,.27-3.19,.3-3.38,.1-6.52-.61-9.42-2.14-1.12-.63-2.17-1.35-3.15-2.15-.98-.79-1.92-1.62-2.83-2.47-2.22-2.28-3.88-4.9-4.99-7.88-.48-1.24-.73-2.48-.75-3.75-.03-1.26,.08-2.53,.32-3.8,.21-1.07,.47-2.12,.79-3.14,.31-1.01,.6-2.09,.85-3.21Z"/><path class="cls-1" d="M121.59,181.15c1.25,.91,2.4,1.85,3.44,2.83,1.04,.98,1.8,2.23,2.26,3.75,.39,1.34,.85,2.64,1.38,3.89,.53,1.25,1.26,2.42,2.19,3.51,.6,.65,1.21,1.21,1.84,1.69,.63,.48,1.3,.94,2.02,1.38,.61,.36,1.26,.56,1.93,.6,.67,.04,1.34,0,1.99-.12,.55-.16,1-.4,1.35-.73,.51-.58,.96-1.21,1.36-1.88,.4-.67,.67-1.41,.82-2.24,.4-2.29,.53-4.55,.37-6.78-.16-2.23-.7-4.43-1.62-6.62-.54-1.37-1.21-2.64-2.02-3.82-.8-1.17-1.67-2.3-2.61-3.39-1.1-1.21-2.17-2.4-3.24-3.57-1.07-1.17-2.08-2.39-3.04-3.66-1.18-1.54-2.28-3.1-3.3-4.71-1.02-1.6-1.88-3.32-2.56-5.15-.49-1.38-.78-2.8-.85-4.27-.07-1.47,.06-2.93,.39-4.38,.34-1.45,.87-2.81,1.61-4.09,.74-1.28,1.67-2.41,2.8-3.4,.35-.28,.7-.56,1.05-.84,.35-.28,.7-.56,1.05-.84,1.01-.79,2.13-1.33,3.36-1.64,1.23-.31,2.46-.4,3.69-.28,1.23,.12,2.42,.4,3.57,.84,1.15,.44,2.17,.99,3.06,1.65,1.83,1.41,3.57,3.03,5.21,4.85,.6,.65,1.12,1.34,1.56,2.08,.44,.74,.9,1.49,1.37,2.24,.3,.49,.56,.96,.81,1.41,.24,.45,.51,.92,.81,1.41,.36,.63,.34,1.28-.06,1.94-.11,.25-.26,.46-.43,.62-.17,.16-.43,.22-.77,.16-.67,.03-1.06-.28-1.18-.94-.14-.41-.27-.83-.39-1.24s-.27-.8-.46-1.17c-.79-1.44-1.72-2.74-2.81-3.9-1.09-1.16-2.37-2.12-3.84-2.85-.61-.31-1.28-.53-2.01-.66-.73-.13-1.44-.25-2.12-.37-.44-.05-.86,.02-1.27,.18-.41,.17-.76,.46-1.05,.87-.78,1.14-1.38,2.32-1.81,3.54-.43,1.22-.62,2.52-.55,3.9,.03,.67,.17,1.29,.43,1.88,.26,.59,.56,1.13,.9,1.62,1.16,1.78,2.39,3.46,3.7,5.06,1.31,1.59,2.65,3.17,4.02,4.73,1.09,1.16,2.13,2.36,3.13,3.58,1,1.22,1.96,2.5,2.88,3.83,2.46,3.54,4.06,7.44,4.79,11.7,.35,2.25,.55,4.46,.58,6.63,.03,2.17-.16,4.35-.57,6.55-.37,2.58-1.17,4.85-2.4,6.83-1.23,1.98-3.01,3.63-5.34,4.95-.99,.54-2,.9-3.03,1.06-1.03,.17-2.1,.27-3.19,.3-3.38,.1-6.52-.61-9.42-2.14-1.12-.63-2.17-1.35-3.15-2.15-.98-.79-1.92-1.62-2.83-2.47-2.22-2.28-3.88-4.9-4.99-7.88-.48-1.23-.73-2.48-.75-3.75-.03-1.26,.08-2.53,.32-3.8,.21-1.07,.47-2.12,.79-3.14,.31-1.01,.6-2.09,.85-3.21Z"/><path class="cls-1" d="M210.54,172.71c-.67,2.08-1.35,4.14-2.05,6.18-.7,2.04-1.45,4.08-2.27,6.14-.73,1.95-1.6,3.83-2.61,5.64-1.01,1.81-2.11,3.57-3.3,5.29-1.79,2.69-3.92,4.81-6.4,6.36-2.47,1.55-5.43,2.33-8.87,2.35-3.58,.03-6.72-.73-9.43-2.28-2.71-1.55-5.07-3.79-7.08-6.71-1.39-2.13-2.54-4.33-3.44-6.59-.9-2.26-1.62-4.63-2.14-7.1-.46-1.9-.78-3.8-.98-5.69-.19-1.89-.35-3.8-.48-5.75-.13-1.99-.15-3.97-.04-5.94,.11-1.97,.33-3.95,.68-5.95,.48-2.92,1.14-5.77,1.99-8.54,.85-2.77,2.09-5.42,3.71-7.95,.97-1.54,2.07-2.95,3.31-4.21,1.24-1.26,2.61-2.41,4.12-3.45,1.29-.86,2.62-1.6,4.01-2.22,1.39-.61,2.83-1.05,4.33-1.32,1.69-.29,3.37-.39,5.05-.29,1.68,.09,3.34,.6,4.97,1.51,.41,.24,.83,.47,1.26,.68,.43,.21,.87,.41,1.32,.6,1.57,.78,2.96,1.76,4.17,2.96,1.21,1.2,2.35,2.5,3.42,3.91,1.07,1.41,1.82,2.94,2.25,4.61,.43,1.67,.58,3.42,.46,5.25-.46,5.98-2.64,11.31-6.54,16.01-1.13,1.37-2.29,2.71-3.48,4.02-1.19,1.31-2.46,2.54-3.8,3.7-1.92,1.61-3.95,2.96-6.09,4.07-2.14,1.11-4.48,1.85-7.01,2.24-.05,0-.25,.08-.62,.21,.56,1.99,1.28,3.84,2.14,5.56,.87,1.72,2.02,3.25,3.47,4.62,1.22,1.1,2.55,1.88,3.96,2.34,1.41,.46,2.93,.64,4.54,.55,.67-.03,1.23-.22,1.69-.59,.46-.36,.93-.76,1.4-1.2,.98-1.07,1.85-2.21,2.62-3.42,.77-1.21,1.46-2.47,2.07-3.78,.89-1.77,1.69-3.56,2.39-5.36,.7-1.8,1.3-3.64,1.8-5.51,.28-.89,.63-1.66,1.06-2.31,.43-.65,1.1-1.09,2.03-1.34,.57-.02,1.08,.07,1.53,.25,.36,.2,.65,.49,.89,.87,.23,.38,.22,.92-.03,1.62Zm-32.68,3.69c.6-.17,1.15-.3,1.64-.4,.49-.1,.96-.25,1.42-.45,1.61-.57,3.11-1.3,4.51-2.2,1.4-.9,2.7-1.92,3.91-3.06,.99-.93,1.94-1.86,2.83-2.8,.9-.94,1.76-1.91,2.6-2.91,1.77-2.02,3.1-4.23,3.97-6.62,.87-2.39,1.37-4.91,1.5-7.55,.1-1.21-.03-2.33-.39-3.36-.36-1.03-.99-1.98-1.9-2.83-1.72-1.62-3.63-2.58-5.74-2.89-2.11-.31-4.17,.18-6.17,1.46-1.74,1.11-3.19,2.46-4.37,4.05-1.18,1.59-2.11,3.34-2.8,5.23-1.16,3.19-1.87,6.54-2.14,10.06-.17,1.88-.23,3.75-.18,5.61,.05,1.86,.22,3.73,.54,5.6,.11,.51,.22,1.01,.35,1.5,.13,.49,.27,1.01,.43,1.56Z"/><path class="cls-1" d="M251.69,133.72c.51,1.9,.95,3.79,1.33,5.65,.38,1.87,.66,3.79,.84,5.78,.05,.42,.07,.85,.08,1.28,0,.43-.02,.84-.07,1.23l.04,4.08c-.49,.3-.89,.43-1.21,.39-.32-.04-.66-.27-1.05-.7-1.51-1.5-2.47-3.2-2.88-5.11-.35-1.35-.64-2.72-.87-4.13-.23-1.41-.52-2.78-.87-4.13-.26-.97-.57-1.95-.95-2.94-.38-.98-.74-1.96-1.09-2.92-.13-.32-.3-.62-.5-.91-.2-.29-.42-.61-.65-.96-.43,.43-.85,.83-1.26,1.18-.41,.36-.79,.75-1.12,1.17-1.47,1.79-2.83,3.66-4.09,5.59-1.26,1.94-2.39,3.96-3.38,6.09-.92,1.97-1.68,3.99-2.28,6.07-.6,2.08-1.03,4.2-1.31,6.38-.07,.25-.08,.52-.05,.83,.04,.31,.07,.6,.1,.88,.28,1.21,.57,2.41,.88,3.59,.3,1.18,.64,2.37,1.02,3.57,.5,1.47,.93,2.97,1.27,4.51,.34,1.54,.72,3.07,1.14,4.6,.15,.46,.28,.9,.4,1.31,.12,.42,.25,.83,.39,1.24,.21,.98,.43,1.96,.66,2.93,.23,.98,.45,1.93,.65,2.86,.25,.93,.5,1.88,.76,2.85,.26,.97,.51,1.92,.76,2.85,.14,.41,.29,.83,.43,1.24,.14,.41,.29,.83,.43,1.24,.13,.32,.19,.65,.18,.98,0,.34-.02,.67-.03,1.01,.02,.62,0,1.23-.04,1.83-.05,.6-.24,1.16-.56,1.68l-.38,.47c-.34,.37-.82,.6-1.43,.67-.44,.29-1.06,.58-1.84,.86-.78,.28-1.58,.47-2.41,.56-.83,.1-1.6,.05-2.31-.13-.71-.18-1.23-.59-1.54-1.22-.84-1.86-1.72-4.24-2.65-7.15-.93-2.9-1.88-6.1-2.86-9.59-.98-3.49-1.95-7.16-2.91-10.99-.97-3.83-1.89-7.62-2.78-11.36-.89-3.74-1.7-7.32-2.45-10.72-.75-3.4-1.41-6.41-1.97-9.02-.56-2.61-1-4.71-1.3-6.3-.3-1.59-.46-2.43-.47-2.53,.03-.15,.22-.34,.58-.57,.36-.23,.77-.45,1.25-.65,.48-.2,.97-.39,1.48-.56,.5-.18,.89-.33,1.17-.46,.04-.05,.13-.09,.27-.1,.05,0,.07-.03,.06-.08v.07c.28-.13,.55-.2,.81-.23,.26-.03,.51-.06,.74-.08,.52-.06,.89,.06,1.12,.37,.23,.31,.51,.66,.84,1.05,1.12,1.4,2.08,2.93,2.89,4.58,.81,1.65,1.55,3.34,2.23,5.08,.47,1.19,.88,2.38,1.24,3.58,.35,1.2,.72,2.4,1.09,3.6,.01,.1,.03,.18,.06,.24,.03,.07,.08,.22,.16,.45,.14-.4,.27-.75,.38-1.05s.2-.57,.26-.82c.65-2.27,1.61-4.51,2.88-6.71,1.04-1.74,2.11-3.47,3.2-5.17,1.09-1.7,2.37-3.28,3.83-4.74,.3-.32,.61-.63,.93-.93,.32-.3,.65-.64,.99-1.01,.77-.76,1.63-1.27,2.58-1.55,.95-.28,1.94-.43,2.99-.45,.43,0,.8,.12,1.12,.37s.61,.53,.88,.83c1.18,1.15,2.06,2.44,2.63,3.85,.57,1.42,1.06,2.89,1.48,4.42Z"/><path class="cls-1" d="M275.36,183.74c.28,1.21,.53,2.35,.75,3.42,.2,.93,.38,1.82,.52,2.66,.14,.84,.19,1.44,.13,1.78-.13,.92-.43,1.65-.9,2.18-.46,.53-1.15,.8-2.06,.81-1.39-.03-2.52-.41-3.39-1.15-.87-.74-1.63-1.62-2.27-2.64-.46-.66-.8-1.32-1.01-1.96-.21-.6-.42-1.17-.63-1.72-.21-.55-.39-1.12-.56-1.73-.52-2.47-1.06-4.92-1.6-7.34-.54-2.42-1.05-4.87-1.53-7.35-.44-2.19-.87-4.37-1.29-6.52-.42-2.15-.73-4.36-.94-6.63-.1-1.28-.23-2.55-.4-3.82-.17-1.27-.33-2.54-.47-3.81-.05-.81-.1-1.6-.17-2.38-.07-.78-.12-1.57-.17-2.38-.09-.8-.19-1.58-.3-2.33-.11-.75-.19-1.53-.23-2.34-.06-.95-.03-1.91,.1-2.88,.15-1.16,.73-2.08,1.73-2.74,1-.66,2.05-.8,3.14-.4,.4,.15,.75,.36,1.04,.63,.29,.28,.58,.57,.85,.87,.5,.61,.9,1.26,1.19,1.94,.29,.68,.58,1.39,.85,2.12,.63,1.74,1.13,3.49,1.5,5.24,.37,1.75,.63,3.52,.79,5.32,.09,1.23,.22,2.42,.38,3.58,.16,1.15,.31,2.34,.45,3.57h.07c.26,1.4,.47,2.79,.63,4.18,.16,1.39,.37,2.79,.63,4.19l2.77,14.73c.11,.51,.19,.99,.24,1.44,.05,.45,.11,.93,.17,1.45Zm-11.81-54.67c-.27,.17-.59,.31-.96,.4-.37,.09-.74,.1-1.11,.02-.37-.08-.73-.3-1.08-.66-.35-.36-.65-.94-.88-1.73-.23-.79-.28-1.46-.13-2.03,.15-.57,.37-1.06,.65-1.47,.33-.47,.76-.88,1.29-1.22,.13-.11,.45-.1,.97,.03,.52,.13,1.05,.29,1.59,.46,.59,.17,1.16,.65,1.71,1.45,.55,.8,.88,1.52,1,2.18,.04,.33-.04,.61-.22,.85-.19,.24-.45,.47-.78,.7-.33,.23-.68,.42-1.04,.59-.36,.16-.71,.31-1.02,.44Z"/><path class="cls-1" d="M327.29,159.28c-.67,2.08-1.35,4.14-2.05,6.18-.7,2.04-1.45,4.08-2.27,6.14-.73,1.95-1.6,3.83-2.61,5.64-1.01,1.81-2.11,3.57-3.3,5.29-1.79,2.69-3.92,4.81-6.4,6.36-2.47,1.55-5.43,2.33-8.87,2.35-3.58,.03-6.72-.73-9.43-2.28-2.71-1.55-5.07-3.79-7.08-6.71-1.39-2.13-2.54-4.33-3.45-6.59-.9-2.26-1.62-4.63-2.14-7.1-.46-1.91-.78-3.8-.98-5.69-.19-1.89-.35-3.8-.48-5.75-.13-1.99-.15-3.97-.04-5.94,.11-1.97,.33-3.95,.68-5.95,.48-2.92,1.14-5.77,1.99-8.54,.85-2.77,2.09-5.42,3.71-7.95,.97-1.54,2.07-2.95,3.31-4.21,1.24-1.26,2.61-2.41,4.12-3.45,1.29-.86,2.62-1.6,4.01-2.22,1.39-.61,2.83-1.05,4.33-1.32,1.69-.29,3.37-.39,5.05-.29,1.68,.09,3.34,.6,4.97,1.51,.41,.24,.83,.47,1.26,.68,.43,.21,.87,.41,1.32,.6,1.57,.78,2.96,1.76,4.17,2.96,1.21,1.2,2.35,2.5,3.42,3.91,1.07,1.41,1.82,2.94,2.25,4.61,.43,1.67,.58,3.42,.46,5.25-.46,5.98-2.64,11.31-6.54,16.01-1.13,1.37-2.29,2.71-3.48,4.02-1.19,1.31-2.46,2.54-3.8,3.7-1.92,1.61-3.95,2.96-6.09,4.07-2.14,1.11-4.48,1.85-7.01,2.24-.05,0-.25,.08-.62,.21,.56,1.99,1.28,3.84,2.14,5.56,.87,1.72,2.02,3.25,3.47,4.62,1.22,1.1,2.55,1.88,3.96,2.34,1.41,.46,2.93,.64,4.54,.55,.67-.03,1.23-.22,1.69-.59,.46-.36,.93-.76,1.4-1.2,.98-1.07,1.85-2.21,2.62-3.42,.77-1.21,1.46-2.47,2.07-3.78,.89-1.77,1.69-3.56,2.39-5.36,.7-1.8,1.3-3.64,1.8-5.51,.28-.89,.63-1.66,1.06-2.31,.43-.65,1.1-1.09,2.03-1.34,.57-.02,1.08,.07,1.53,.25,.36,.2,.65,.49,.89,.87,.23,.38,.22,.92-.03,1.62Zm-32.68,3.69c.6-.16,1.15-.3,1.64-.4,.49-.1,.96-.25,1.42-.45,1.61-.57,3.11-1.3,4.51-2.2,1.4-.9,2.7-1.92,3.91-3.06,.99-.93,1.94-1.86,2.83-2.8,.9-.94,1.76-1.91,2.6-2.91,1.77-2.02,3.1-4.23,3.97-6.62,.87-2.39,1.37-4.91,1.5-7.55,.1-1.2-.03-2.32-.39-3.36-.36-1.03-.99-1.98-1.9-2.83-1.72-1.62-3.63-2.58-5.74-2.89-2.11-.31-4.17,.18-6.17,1.46-1.74,1.11-3.19,2.46-4.37,4.05-1.18,1.59-2.11,3.34-2.8,5.23-1.16,3.19-1.87,6.54-2.14,10.06-.17,1.88-.23,3.75-.18,5.61,.05,1.86,.22,3.73,.54,5.6,.11,.51,.22,1.01,.35,1.5,.13,.49,.27,1.01,.43,1.56Z"/><path class="cls-1" d="M335.99,156.48c1.25,.91,2.4,1.85,3.44,2.83,1.04,.98,1.8,2.23,2.26,3.75,.39,1.34,.85,2.64,1.38,3.89,.53,1.25,1.26,2.42,2.19,3.51,.6,.65,1.21,1.21,1.84,1.69,.63,.48,1.3,.94,2.02,1.38,.61,.36,1.26,.56,1.93,.6,.67,.04,1.34,0,1.99-.12,.55-.16,1-.4,1.35-.73,.51-.58,.96-1.21,1.36-1.88,.4-.67,.67-1.41,.82-2.24,.4-2.29,.53-4.55,.37-6.78-.16-2.23-.7-4.43-1.62-6.62-.54-1.37-1.21-2.64-2.02-3.82-.8-1.17-1.67-2.3-2.61-3.39-1.1-1.21-2.17-2.4-3.24-3.57s-2.08-2.39-3.04-3.66c-1.18-1.54-2.28-3.1-3.3-4.71-1.02-1.6-1.88-3.32-2.56-5.15-.49-1.38-.78-2.8-.85-4.27-.07-1.47,.06-2.93,.39-4.38,.34-1.45,.87-2.81,1.61-4.09,.74-1.28,1.67-2.41,2.8-3.4,.35-.28,.7-.56,1.05-.84,.35-.28,.7-.56,1.05-.84,1.01-.79,2.13-1.33,3.36-1.64,1.23-.31,2.46-.4,3.69-.28,1.23,.12,2.42,.4,3.57,.84,1.15,.44,2.17,.99,3.06,1.65,1.83,1.41,3.57,3.03,5.21,4.85,.6,.65,1.12,1.34,1.56,2.08,.44,.74,.9,1.49,1.37,2.24,.3,.49,.56,.96,.81,1.41,.24,.45,.51,.92,.81,1.41,.36,.63,.34,1.28-.06,1.94-.11,.25-.26,.46-.43,.62-.17,.16-.43,.22-.77,.16-.67,.03-1.06-.28-1.18-.94-.14-.41-.27-.83-.39-1.24-.12-.42-.27-.8-.46-1.17-.79-1.44-1.72-2.74-2.81-3.9-1.09-1.16-2.37-2.12-3.84-2.85-.61-.31-1.28-.53-2.01-.66-.73-.13-1.44-.25-2.12-.37-.44-.05-.86,.02-1.27,.18-.41,.17-.76,.46-1.05,.87-.78,1.14-1.38,2.32-1.81,3.54-.43,1.22-.62,2.52-.55,3.9,.03,.67,.17,1.29,.43,1.88,.26,.59,.56,1.13,.9,1.62,1.16,1.78,2.39,3.46,3.7,5.06,1.31,1.59,2.65,3.17,4.02,4.73,1.09,1.16,2.13,2.36,3.13,3.58,1,1.22,1.96,2.5,2.88,3.82,2.46,3.54,4.06,7.44,4.79,11.7,.35,2.25,.55,4.46,.58,6.63,.03,2.17-.16,4.35-.57,6.55-.37,2.58-1.17,4.85-2.4,6.83-1.23,1.98-3.01,3.63-5.34,4.95-.99,.54-2,.9-3.03,1.06-1.03,.17-2.1,.27-3.19,.3-3.38,.1-6.52-.61-9.42-2.14-1.12-.63-2.17-1.35-3.15-2.15-.98-.79-1.92-1.62-2.83-2.47-2.22-2.28-3.88-4.9-4.99-7.88-.48-1.24-.73-2.48-.75-3.75-.03-1.26,.08-2.53,.32-3.8,.21-1.07,.47-2.12,.79-3.14,.31-1.01,.6-2.09,.85-3.21Z"/></g></g></svg>