<?xml version="1.0" encoding="UTF-8"?><svg id="Layer_2" xmlns="http://www.w3.org/2000/svg" viewBox="0 0 87.5 85.16"><defs><style>.cls-1{fill:#f9ddec;}</style></defs><g id="Layer_1-2"><path class="cls-1" d="M59.76,23.11c15.26-6.19,21.44-4.41,25.79,7.36,2.08,5.62,3.42,11.38-.91,16.53-4,4.76-9.94,5.5-16,6.36,5.34,5.72,11.33,11.14,7.31,19.45-3.43,7.08-9.5,11.98-17.52,12.34-8.77,.39-11.99-6.89-15.58-13.87-3.52,6.05-6.36,12.8-14.48,13.06-6.02,.19-10.65-3.19-14.87-6.97-7.5-6.7-6.46-12.98,4.16-25.22-6.64-1.4-13.79-2.05-16.62-9.44-2.24-5.85-.42-11.5,2.06-16.86,4.24-9.15,11.9-10.2,25.11-3.37-.64-6.78-2.39-13.81,3.83-18.84C36.7-.18,42.4-.35,48.06,.28c10.58,1.19,13.64,7.19,11.7,22.83Zm-24.07,10.15c3.96-2.26,7.84-2.88,11.95-1.66,.5,.15,1.32,.08,1.67-.24,3.25-2.92,6.64-5.43,7.53-10.45,2.44-13.8-3.44-19.86-17.3-17.13-6.06,1.19-8.8,4.38-8.76,10.58,.04,6.54,1.87,12.66,4.91,18.91Zm21.42,16.26c-2.72,2.58-4.81,5.05-7.37,6.83-1.77,1.22-3.82,1.65-3.83,4.45,0,2.12-1.42,4.55-.77,6.29,1.51,4.01,3.52,7.96,6.04,11.43,2.83,3.89,7.1,4.65,11.41,2.37,2.8-1.47,5.42-3.45,7.73-5.62,4.43-4.15,4.83-8.74,1.24-13.61-3.92-5.32-8.93-9.43-14.45-12.13Zm-27.61-.98c.64-3.58,.93-6.88,1.89-9.96,.6-1.91,2.14-3.36,.59-5.59-1.22-1.74-1.44-4.63-2.98-5.6-3.89-2.44-8.13-4.55-12.5-5.92-4.08-1.28-7.99,.62-9.66,4.39-1.58,3.54-2.78,7.39-3.31,11.22-.66,4.78,1.81,8.22,6.4,9.83,6.59,2.31,13.38,2.53,19.58,1.63Zm22.96-15.51c1.65,3.5,3.26,6.25,4.23,9.21,.62,1.9,.23,4,2.81,4.88,2.01,.69,3.89,2.85,5.72,2.72,4.58-.31,9.24-1.1,13.59-2.54,4.06-1.34,6.05-5.05,5.18-9.21-.83-3.97-2.32-7.93-4.22-11.53-1.93-3.65-5.6-4.91-9.64-3.93-7.13,1.74-12.93,5.79-17.68,10.39Zm-9.47,26.03c-3.3-1.79-6.42-3-8.91-5-1.74-1.4-2.91-2.92-5.47-2.16-2.03,.61-4.76,.09-6.19,1.27-3.38,2.8-6.51,6.06-9.1,9.61-2.42,3.31-2.28,7.46,.76,10.28,3.19,2.96,6.97,5.48,10.88,7.42,3.28,1.63,6.83,.59,9.36-2.22,5.1-5.65,7.37-12.56,8.66-19.21Zm6.32-22.9c-4.7-3.3-11.1-2.18-14.32,2.51-3.12,4.55-2.02,10.95,2.43,14.17,4.56,3.3,11.13,2.22,14.4-2.37,3.31-4.64,2.2-11.01-2.51-14.31Z"/></g></svg>