<?xml version="1.0" encoding="UTF-8"?><svg id="Layer_2" xmlns="http://www.w3.org/2000/svg" viewBox="0 0 325.85 215.43"><defs><style>.cls-1{fill:#f9ddec;}</style></defs><g id="Layer_1-2"><path class="cls-1" d="M133.2,18.96c13.2-4.29,24.71-7.48,36.33-10.23C188.83,4.14,208.32,.66,228.22,.09c13.03-.38,25.94,.41,38.48,4.37,7.73,2.44,14.79,6.08,20.57,11.91,2.36,2.38,4.46,5,5.91,8.02,.78,1.63,1.92,2.3,3.54,2.71,6.26,1.61,11.66,4.7,16.01,9.53,1.59,1.77,2.92,3.69,3.65,6.01,.62,1.96,.54,3.81-.29,5.66-2.06,4.6-4.43,9.04-7.34,13.16-.89,1.26-.5,1.54,.72,1.84,3.44,.83,6.68,2.07,9.64,4.1,5.8,3.98,9.54,15.21,4.08,21.88-4.36,5.32-5.98,10.91-5.78,17.93,.28,9.79-4.54,18.19-10.41,25.83-7.64,9.92-17.24,17.67-27.58,24.57-12.94,8.64-26.75,15.66-41.01,21.83-10.4,4.5-20.98,8.52-31.67,12.29-11.79,4.16-23.71,7.84-35.76,11.11-20.61,5.59-41.45,10.02-62.77,11.82-12.47,1.06-24.95,1.24-37.36-.71-9.59-1.51-18.84-4.09-26.94-9.77-3.26-2.28-6.1-4.98-8.41-8.22-.53-.75-1.09-1.22-2.08-1.13-3.24,.3-5.77-1.2-7.92-3.38-2.33-2.37-4.47-4.92-7.04-7.08-2.16-1.81-3.01-4.5-3.87-7.1-.59-1.79-1.22-3.56-2.29-5.13-3.05-4.48-3.19-8.84,.29-13.21,1.37-1.73,1.23-1.79-.73-2.63-1.67-.71-3.3-1.51-4.95-2.29-3.31-1.56-4.85-4.32-5.03-7.83-.18-3.52-.6-6.98-1.57-10.39-.54-1.89-.3-3.87,.37-5.73,.72-2.02,1.07-4.1,1.17-6.23,.18-4.11,1.72-7.52,5.11-9.99,.78-.57,1.22-1.24,1.12-2.3-.86-9.41,2.32-17.66,7.44-25.29,5.57-8.3,12.75-15.06,20.6-21.14,12.52-9.7,26.25-17.38,40.5-24.17,13.96-6.66,28.3-12.35,42.91-17.42,5.16-1.79,10.36-3.4,13.69-4.55Zm4.1,3.03c-11.74,3.6-22.3,7.34-32.77,11.38-11.42,4.41-22.64,9.27-33.53,14.86-13.89,7.14-27.23,15.12-38.95,25.57-6.97,6.22-13.16,13.08-17.08,21.71-4.97,10.95-3.69,21.2,3.46,30.81,.98,1.32,2.16,1.94,3.75,2.22,14.63,2.62,29.39,3.2,44.2,2.56,33.04-1.42,65.07-8.33,96.59-17.89,7.36-2.23,14.6-4.86,21.84-7.47,9.41-3.39,18.68-7.13,27.79-11.22,17.88-8.03,35.14-17.2,51.36-28.28,10.03-6.85,19.53-14.36,28.21-22.86,.75-.74,1.36-1.44,1.28-2.65-.46-7.21-2.57-13.79-7.23-19.42-5.62-6.8-13.11-10.63-21.34-13.19-12.03-3.74-24.42-4.33-36.89-3.95-21.06,.64-41.64,4.55-62.01,9.62-10,2.49-19.93,5.23-28.69,8.19ZM40.57,153c1.28-.45,2.65-.74,3.94-.48,6.47,1.29,13.22,.81,19.55,2.86,4.21,1.36,7.93,.86,11.49-1.78,2-1.48,4.25-2.59,6.76-3.01,2.51-.41,5.01-.9,7.45-1.62,4.63-1.37,9.25-1.77,13.9,.04,2.88,1.12,5.79,.75,8.75,.07,5.19-1.2,10.34-2.58,15.66-3.19,4.48-.51,8.8-1.57,12.81-3.79,3.21-1.79,6.72-2.7,10.4-2.98,9.35-.7,18.16-3.33,26.66-7.24,4.64-2.14,9.17-4.3,12.64-8.25,1.84-2.09,4.55-2.91,7.18-3.23,5.87-.72,11.35-2.95,17.12-4.03,3.32-.62,6.41-1.88,8.78-4.43,3.95-4.25,8.76-6.1,14.55-5.46,2.87,.32,5.48-.46,8-1.87,5.9-3.31,12.07-6.14,16.09-12.06,1.78-2.63,4.83-3.77,7.96-4.34,4.1-.74,7.87-2.15,11.32-4.62,4.53-3.23,8.92-6.72,13.98-9.14,3.67-1.75,5.77-4.65,6.68-8.55,.47-2.01,1.12-3.99,2.39-5.66,2.88-3.79,4.93-8.05,7.16-12.22,1.26-2.35,.93-4.46-.44-6.49-3.4-5.02-8.26-8.08-13.9-10.04-1.07-.37-1.47-.16-1.12,1.06,.79,2.81,1.01,5.71,1.26,8.61,.15,1.83-.48,3.06-1.73,4.3-12.67,12.61-27.01,23.02-42.23,32.27-13.48,8.19-27.51,15.32-41.97,21.64-12.33,5.39-24.85,10.26-37.63,14.5-5.7,1.89-11.42,3.66-17.16,5.39-10.97,3.31-22.09,6.03-33.3,8.4-15.54,3.29-31.22,5.71-47.08,6.89-19.1,1.42-38.15,1.32-57.05-2.41-1.27-.25-2.22-.75-3.02-1.77-2.78-3.55-5.35-7.22-6.69-11.58-.48-1.55-1.01-1.3-1.88-.32-1.37,1.54-1.82,3.4-1.96,5.36-.18,2.49-.43,4.94-1.33,7.3-.48,1.26-.55,2.61-.23,3.94,.82,3.48,1.61,6.95,1.54,10.57-.05,2.72,1.62,4.23,3.95,5.32,6.19,2.91,12.72,4.69,19.38,6.08,1.97,.41,3.69,.04,5.39-.95,1.93-1.13,3.85-2.3,5.96-3.1Zm-22.33,22.38c.79,2.35,1.44,4.86,3.47,6.47,2.21,1.75,4.14,3.74,5.88,5.91,2.44,3.02,5.38,3.62,8.92,2.35,4.31-1.55,8.65-1.57,13.03-.19,3.2,1,6.49,1.5,9.86,1.42,7.08-.17,14.16-.45,21.07,1.72,2.17,.68,4.29,0,6.29-1.09,3.34-1.82,6.59-3.84,10.55-4.21,2.1-.2,4.17-.74,6.24-1.17,4.05-.84,8.1-1.78,12.17-.2,4.71,1.82,8.97,1.12,13.03-1.81,1.86-1.34,3.93-2.49,6.26-2.79,6.54-.83,13.08-1.79,19.65-2.26,4.39-.32,8.13-1.52,11.25-4.69,1.89-1.92,4.19-3.24,6.83-4,1.44-.41,2.79-1.17,4.16-1.81,7.29-3.39,14.94-5.84,22.79-7.29,5.74-1.07,11.21-2.27,16.09-5.65,3.06-2.12,6.64-3.27,10.25-4.08,3.22-.72,6.24-1.98,9.21-3.33,5.97-2.71,11.85-5.59,18.75-4.58,1.82,.27,3.59-.45,5.19-1.39,2.82-1.65,5.58-3.44,8.48-4.94,2.45-1.27,4.34-3.04,5.9-5.26,.56-.79,1.18-1.54,1.77-2.31,2.05-2.67,4.8-4.12,8.04-4.92,2.81-.69,5.78-.85,8.36-2.35,1.68-.97,3.35-1.99,5.19-2.6,5.28-1.75,8.91-4.9,9.83-10.71,.28-1.78,1.19-3.45,2.53-4.76,1.6-1.56,2.64-3.46,3.44-5.51,1.28-3.28,2.67-6.5,5.02-9.21,.79-.91,1.36-2,2.09-2.97,4.11-5.45,.88-14.75-4.75-17.6-1.64-.83-3.32-1.48-5.08-1.94-3.6-.95-3.49-.89-4.99,2.56-.9,2.07-1.22,4.02-.84,6.29,.92,5.43-.57,10.2-4.55,14.11-1.38,1.36-2.73,2.76-4.18,4.04-8.26,7.27-17.25,13.54-26.48,19.48-13.54,8.71-27.9,15.84-42.66,22.23-12.46,5.39-25.1,10.31-38,14.55-16.64,5.46-33.38,10.59-50.49,14.44-10.94,2.46-21.93,4.6-33.01,6.27-13.03,1.97-26.16,2.55-39.31,2.96-7.21,.22-14.41,.4-21.6-.59-7.13-.99-11.9-4.74-14.28-11.52-.26-.74-.61-1.28-1.45-1.43-2.99-.52-5.9-1.39-8.8-2.25-.53-.16-1.04-.24-1.56,.12-3.29,2.23-4.41,6.99-2.4,10.42,1.13,1.94,2.35,3.83,2.85,6.06ZM313.44,106.79c-1.3,.71-1.92,1.66-2.32,2.73-.74,1.99-1.38,4.01-2.09,6.01-.93,2.63-2.61,4.63-5.12,5.89-1.9,.95-3.8,1.89-5.72,2.77-3.72,1.71-7.14,4.17-11.41,4.52-4.81,.39-8.13,3.04-10.64,7.02-1.13,1.79-2.62,3.35-4.48,4.45-2.87,1.7-5.8,3.3-8.6,5.09-3.56,2.28-7.37,3.32-11.58,2.88-3.44-.36-6.54,.61-9.61,2.08-4.15,1.99-8.33,3.98-12.79,5.17-4.72,1.25-9.27,2.76-13.41,5.42-2.69,1.73-5.49,3.35-8.77,3.81-9.65,1.33-18.94,3.99-27.86,7.91-4.8,2.11-9.76,3.91-13.55,7.85-1.43,1.49-3.43,2.3-5.53,2.56-6.13,.75-12.24,1.66-18.39,2.14-4.45,.35-8.59,1.23-12.29,3.85-3.99,2.83-8.39,3.34-12.99,1.77-3.37-1.14-6.73-1.42-10.18-.49-1.11,.3-2.25,.47-3.38,.72-4.23,.94-8.66,1.14-12.42,3.74-4.24,2.93-8.88,3.24-13.74,1.76-2.97-.91-6-1.33-9.15-1.15-7.17,.41-14.3,.25-21.24-1.97-1.95-.62-3.96-.43-5.94,0-1.03,.23-1.18,.72-.5,1.49,.85,.95,1.65,1.94,2.58,2.81,6.64,6.24,14.82,9.29,23.51,11.2,12,2.65,24.17,2.86,36.37,2.15,26.11-1.54,51.43-7.31,76.44-14.55,16.19-4.69,32.15-10.09,47.79-16.41,12.2-4.93,24.19-10.31,35.69-16.71,13.34-7.42,26.05-15.73,36.66-26.88,5.83-6.13,10.6-12.94,13.23-21.08,.87-2.69,1.45-5.44,1.44-8.55Zm-137.76,44.09c8.41-2.56,16.68-5.52,24.95-8.51,10.43-3.77,20.68-7.98,30.78-12.55,15.54-7.04,30.5-15.12,44.44-25.01,7.52-5.33,15-10.7,21.43-17.38,2.6-2.7,3.42-5.9,3.19-9.5-.08-1.23-.39-1.36-1.52-.76-4.78,2.54-9.22,5.59-13.59,8.74-3.92,2.82-7.98,5.36-12.88,5.98-3.93,.5-6.86,2.44-9.18,5.59-1.65,2.25-3.5,4.35-6.02,5.71-2.4,1.3-4.87,2.48-7.17,3.94-4.25,2.7-8.77,3.96-13.81,3.41-3.34-.37-6.12,.89-8.55,3.2-2.28,2.17-4.55,4.51-7.67,5.38-5.94,1.66-11.93,3.14-17.92,4.6-3.22,.78-6.76,.76-9.28,3.27-3.26,3.24-6.89,5.67-11.1,7.66-9.7,4.57-19.68,7.79-30.4,8.57-2.76,.2-5.33,1.01-7.84,2.15-2.86,1.29-5.59,2.99-8.74,3.52-7.29,1.22-14.59,2.34-21.74,4.26-3.73,1-7.42,.94-11.08-.38-2.86-1.03-5.75-1.23-8.74-.38-6.18,1.77-12.8,2.13-18.25,6.2-2.66,1.99-5.94,2.21-9.08,1.37-4.53-1.22-9.14-1.63-13.76-2.26-10.65-1.44-7.98-2.19-17.34,2.88-.21,.12-.44,.2-.66,.3-.74,.3-.78,.8-.48,1.47,1.66,3.6,4.19,6.19,8.13,7.23,2.3,.6,4.64,.89,7,1.03,10.25,.65,20.48-.06,30.7-.51,20.9-.91,41.38-4.72,61.68-9.57,11.61-2.77,23.13-5.93,34.48-9.64Z"/></g></svg>