<?xml version="1.0" encoding="UTF-8"?><svg id="Layer_2" xmlns="http://www.w3.org/2000/svg" viewBox="0 0 434.6 426.68"><defs><style>.cls-1{fill:#3a9ffc;}</style></defs><g id="Layer_1-2"><g><g><path class="cls-1" d="M429.88,138.26c-.5-19.35-15.16-35.78-34.21-38.84-2.43-.39-2.94,3.4-.51,3.79,17.49,2.81,30.47,17.94,30.93,35.57,.06,2.45,3.85,1.92,3.79-.52Z"/><path class="cls-1" d="M434.5,116.92c-3.15-9.72-10.84-17.25-20.65-20.15-2.34-.69-3.85,2.82-1.5,3.52,8.97,2.66,15.74,9.22,18.62,18.11,.76,2.34,4.28,.86,3.53-1.47Z"/></g><g><path class="cls-1" d="M124.84,397.17c.69,.06,1.32,.38,1.72,.9,.39,.51,.55,1.15,.44,1.83-1.6,9.69,4.35,18.9,13.84,21.41,1.23,.32,1.94,1.43,1.73,2.68-.19,1.13-1.2,2.26-2.68,2.14-.15-.01-.3-.04-.46-.08-11.69-3.09-19.3-14.85-17.33-26.77,.25-1.51,1.58-2.21,2.75-2.11Z"/><path class="cls-1" d="M116.23,411.28c.82,.07,1.53,.52,1.95,1.23l6.25,10.58c.46,.78,.46,1.68,0,2.41-.49,.79-1.44,1.25-2.41,1.17-.82-.07-1.53-.52-1.95-1.23l-6.25-10.58c-.46-.78-.46-1.68,0-2.41,.5-.79,1.44-1.25,2.41-1.17Z"/></g><path class="cls-1" d="M390.92,.21c-1.76-.44-3.7-.16-5.36,.5-1.67,.66-3.01,2.55-4.69,2.88-1.98,.38-4.36-1.99-6.45-2.73-1.76-.62-3.61-.8-5.44-.41-3.6,.78-5.8,3.55-5.95,7.2-.19,4.64,2.4,8.84,5.31,12.23,4.27,4.98,9.11,9.54,13.68,14.24,1.55,1.6,4.36-.36,2.95-2.05,.06-.04,.13-.09,.19-.14,6.37-5.49,12.13-16.05,11.19-24.74-.35-3.24-2.12-6.14-5.43-6.98Zm1.09,10.56c-1.05,7.13-5.09,13-9.42,18.52-.04,.05-.07,.09-.1,.14-4.38-4.55-9.11-9.1-12.57-14.28-1.97-2.95-4.99-11.79,2.03-10.64,3.09,.51,5.08,3.65,8.11,3.97,2.1,.22,3.31-1.28,4.81-2.41,1.85-1.39,5.17-3.66,7-.15,.7,1.35,.34,3.42,.13,4.84Z"/><path class="cls-1" d="M353.03,29.11c-1.12-.28-2.37-.1-3.43,.32-1.07,.43-1.93,1.63-3,1.84-1.27,.24-2.79-1.28-4.13-1.75-1.13-.4-2.31-.51-3.48-.26-2.31,.5-3.71,2.27-3.81,4.61-.12,2.97,1.53,5.65,3.4,7.82,2.74,3.18,5.83,6.1,8.75,9.12,.99,1.02,2.79-.23,1.89-1.31,.04-.03,.08-.06,.12-.09,4.08-3.51,7.77-10.27,7.16-15.83-.22-2.08-1.36-3.93-3.48-4.46Zm.69,6.76c-.67,4.56-3.26,8.32-6.03,11.85-.02,.03-.04,.06-.06,.09-2.81-2.91-5.83-5.82-8.04-9.14-1.26-1.89-3.19-7.55,1.3-6.81,1.97,.32,3.25,2.33,5.19,2.54,1.34,.14,2.12-.82,3.08-1.54,1.18-.89,3.31-2.34,4.48-.09,.45,.86,.22,2.19,.08,3.1Z"/><path class="cls-1" d="M74.43,262.12c-.17-1.25-1.16-2.26-2.4-2.47-5.43-.9-9.36-6.59-11.69-16.92-.29-1.27-1.33-2.07-2.59-2-1.22,.07-2.22,.97-2.42,2.2l-.07,.43c-.89,5.45-2.38,14.55-6.84,18.07-.18,0-.35,0-.52,.02-.15,0-.29,.02-.44,.03-1.45,.14-2.43,1.32-2.31,2.79,.1,1.36,1.16,2.74,2.92,2.64,.06,0,.12,0,.18-.02,.13-.02,.26-.03,.39-.03,3.28-.18,5.59,2.34,6.96,4.49,1.56,2.46,2.76,5.81,3.2,8.95,.17,1.23,1.21,2.07,2.47,2s2.18-.96,2.3-2.16c.73-7.27,4.12-12.82,9.32-15.23,1.13-.52,1.73-1.59,1.56-2.79Zm-5.73,1.43c-3.17,2.54-5.46,6.15-6.8,10.72l-.71,2.43-.79-2.4c-1.71-5.22-4.99-9.08-8.78-10.33l-1.28-.42,.99-.9c2.94-2.68,5.69-10.07,6.87-16.39l.12-.02c2.29,6.97,6.06,14.17,10.19,15.99l1.18,.52-1.01,.81Z"/><path class="cls-1" d="M40.28,229.24c-.23-1.72-1.59-3.11-3.3-3.4-7.46-1.23-12.87-9.06-16.07-23.26-.39-1.74-1.83-2.85-3.57-2.75-1.68,.09-3.05,1.34-3.32,3.02l-.1,.59c-1.23,7.5-3.27,19.99-9.4,24.83-.25,0-.49,.01-.72,.02-.2,.01-.4,.03-.61,.05-2,.2-3.34,1.81-3.18,3.83,.14,1.86,1.6,3.77,4.02,3.64,.08,0,.16-.01,.25-.02,.18-.02,.36-.04,.54-.05,4.51-.25,7.69,3.22,9.56,6.18,2.14,3.38,3.79,7.98,4.4,12.3,.24,1.69,1.67,2.84,3.39,2.74,1.7-.09,3-1.31,3.17-2.97,1-10,5.67-17.63,12.81-20.93,1.55-.72,2.37-2.19,2.15-3.84Zm-7.87,1.96c-4.36,3.49-7.5,8.45-9.34,14.74l-.98,3.34-1.08-3.3c-2.35-7.18-6.86-12.49-12.06-14.2l-1.75-.58,1.36-1.24c4.04-3.69,7.82-13.84,9.45-22.52l.16-.03c3.14,9.58,8.33,19.48,14.01,21.98l1.63,.72-1.39,1.11Z"/></g></g></svg>