<?xml version="1.0" encoding="utf-8"?>
<!-- Generator: Adobe Illustrator 25.3.1, SVG Export Plug-In . SVG Version: 6.00 Build 0)  -->
<svg version="1.1" id="Layer_1" xmlns="http://www.w3.org/2000/svg" xmlns:xlink="http://www.w3.org/1999/xlink" x="0px" y="0px"
	 viewBox="0 0 474.6 322.9" style="enable-background:new 0 0 474.6 322.9;" xml:space="preserve">
<style type="text/css">
	.st0{fill:#FFFFFF;}
	.st1{fill:#4C4C8B;}
	.st2{fill:#BA40CC;}
	.st3{fill:#47763B;}
	.st4{fill:#B940CB;}
	.st5{fill:#FB9A31;}
	.st6{fill:none;stroke:#FB9A31;stroke-width:0.9677;stroke-linecap:round;stroke-miterlimit:10;}
	.st7{clip-path:url(#SVGID_2_);}
	.st8{fill:none;stroke:#FB9A31;stroke-width:1.1827;stroke-miterlimit:10;}
	.st9{fill:none;stroke:#FB9A31;stroke-width:0.6317;stroke-linecap:round;stroke-miterlimit:10;}
	.st10{clip-path:url(#SVGID_4_);}
	.st11{fill:none;stroke:#FB9A31;stroke-width:0.7721;stroke-miterlimit:10;}
</style>
<g id="Layer_2_1_">
	<g id="Layer_1-2">
		<path class="st0" d="M15.2,230.9l-1-2l5-10l9-8l22-7l15-2l6,3l8-12l4-2c0,0,10,8,11,18s-1,15-1,15l13,12l40,39c0,0,11,9,8,13
			c-1.9,2.5-3.9,4.8-6,7l-12,27h-4l-68-25c0,0-36-12-41-15s-22-9-22-9l-1-4L15.2,230.9z"/>
		<path class="st1" d="M87.6,236c-1.7,2.4-1.7,2.4-0.9,3.5C87.4,238.4,87.4,238.2,87.6,236z"/>
		<path class="st2" d="M20.9,229.8c0.8,0.3,1.7-0.1,2-0.9c0,0,0,0,0-0.1c0.3-0.7,0-1.6-0.7-1.9c-0.1,0-0.1-0.1-0.2-0.1
			c-0.8-0.2-1.6,0.2-1.9,1c0,0.1,0,0.1,0,0.2C19.8,228.7,20.1,229.5,20.9,229.8C20.9,229.8,20.9,229.8,20.9,229.8z"/>
		<path class="st2" d="M112.5,276.4c0.6,0.1,1.2-0.2,1.4-0.9c0.2-0.5-0.1-1.1-0.6-1.3c0,0-0.1,0-0.1,0c-0.6-0.1-1.1,0.2-1.4,0.7
			C111.6,275.5,111.9,276.1,112.5,276.4z"/>
		<path class="st2" d="M88.4,263.3c-0.8-0.5-1.8-0.2-2.3,0.6c0,0-0.1,0.1-0.1,0.2c-0.4,0.6-0.2,1.3,0.4,1.7c0.1,0,0.1,0,0.1,0.1
			c0.8,0.3,1.7-0.1,2-0.9C88.6,264.3,88.5,263.8,88.4,263.3z"/>
		<path class="st2" d="M127.1,278.6c-0.8-0.2-1.5,0.2-1.8,1l0,0c-0.3,0.6-0.1,1.3,0.5,1.6c0.1,0,0.1,0.1,0.2,0.1
			c0.6,0.3,1.4,0,1.7-0.6c0,0,0-0.1,0.1-0.1C128.1,279.8,127.8,279,127.1,278.6z"/>
		<path class="st2" d="M52.6,247.2c0.5,0.8,0.7,1.3,1.2,1.6c0.6,0.2,1.3-0.1,1.6-0.7c0-0.1,0-0.1,0-0.1c0.1-0.7-0.1-1.3-0.8-1.4
			C53.9,246.7,53.2,246.9,52.6,247.2z"/>
		<path class="st2" d="M71.2,252.9c0.5,0.7,0.7,1.4,1.1,1.5s0.9-0.3,1.4-0.5c-0.2-0.4-0.3-1.1-0.6-1.3S72.1,252.7,71.2,252.9z"/>
		<path class="st2" d="M34.4,235.3c0.5,0.7,0.7,1.4,1,1.4c0.5,0,0.9-0.3,1.2-0.7c0-0.4-0.1-0.8-0.5-1.1
			C35.8,234.9,35.2,235.1,34.4,235.3z"/>
		<path class="st2" d="M109.5,276c0.2,0.3,0.3,0.7,0.5,0.7s0.7-0.2,0.7-0.3c-0.1-0.3-0.2-0.6-0.3-0.9L109.5,276z"/>
		<path class="st2" d="M99.6,236.6l-3.1-1.3c-0.2,0.4-0.5,1-0.9,1.7l1.6,2C97.5,237.7,98.3,237.1,99.6,236.6z"/>
		<path class="st3" d="M126.2,255.1c0.3-1.3,0.5-2.3,0.8-3.3l-1.5-1.1C124.6,252.2,124.6,252.5,126.2,255.1z"/>
		<path class="st2" d="M80.7,245.2c0-0.3-0.1-0.6-0.1-0.9s0-0.7,0-1.3c-0.6,0.2-1.2,0.3-1.4,0.6c-0.4,1,0.5,1.3,1,1.9L80.7,245.2z"
			/>
		<path class="st4" d="M72.3,202.2c1.4-3.2,3.3-6.2,5.7-8.8c0.7-0.8,1.5-1.4,2.3-2c1.6-1.2,3.9-1.1,5.3,0.4c3.1,2.7,5.6,6.1,7.3,9.8
			c2.9,6.5,2.8,13.2,1.6,19.9c-0.3,1.2,0.1,2.4,1,3.2c9.3,9.2,18.6,18.5,27.8,27.8l2,2.1c1.6-1.2,3.6-1.9,5.6-1.8
			c5.4,0.3,9.6,5,9.2,10.4c0,0.8-0.2,1.5-0.4,2.2c-0.6,1.3-0.2,2.8,0.9,3.6c3,2.7,5.9,5.5,8.8,8.4c1.6,1.6,3.2,3.3,4.5,5.1
			c1.2,1.6,1.5,3.8,0.7,5.7c-0.5,1.1-1.1,2.2-1.8,3.3c-0.6,1-1.4,1.9-2.4,2.5c-0.8,0.6-1.5,1.4-1.8,2.4c-2.4,5.4-4.8,10.9-7.2,16.3
			c-0.6,1.3-1.3,2.6-1.8,3.9s-0.9,2.5-1.5,3.6c-1.3,2.4-2.4,2.9-5.1,2.5c-0.6-0.1-1.2-0.2-1.8-0.4c-8.9-3.2-18-6.1-26.8-9.6
			c-10-3.9-19.9-8.2-30.1-11.7c-5.1-1.7-10.1-3.8-15.2-5.4c-9.5-2.7-18.8-5.9-27.9-9.6c-7.5-3.1-15-6.2-22.4-9.4
			c-2.2-0.9-4.4-1.9-6.5-2.8c-1.3-0.5-2.2-1.8-2.3-3.2c-0.2-2.3,0.3-4.7,1.4-6.8c0.6-1.1,1.2-2.3,1.7-3.5c0.9-2.5,1.7-5,2.7-7.4
			c1.3-3.6,2.7-7.1,4.1-10.6c1.3-3.3,2.5-6.6,3.9-9.8c0.6-0.9,0.7-1.9,0.3-2.9c-0.2-0.7-0.1-1.5,0.2-2.2c0.4-1.1,0.8-2.1,1.2-3.1
			c2.1-5.4,6.1-10,11.2-12.9c7.1-3.9,14.7-6.9,22.7-8.8c4-0.9,8.1-1.6,12.2-1.9c3.6-0.4,7,0.3,9.9,3.4
			C71.7,203.4,72,202.8,72.3,202.2z M147.6,295.3c-2.2-0.8-4.2-1.4-6.2-2.3c-3.9-1.8-7.7-3.9-11.6-5.8c-3.3-1.5-6.7-2.9-10-4.2
			c-7.4-3-15-5.8-22.3-9.1c-5.6-2.5-10.9-5.3-16.1-8.5c-5.3-3.4-10.8-6.4-16.5-9c-5.8-2.6-11.6-5.3-17.2-8.2
			c-8.3-4.4-16.6-8.6-25.1-12.5c-1.8-0.8-3.5-1.8-5.2-2.8c-0.6-0.3-1.2-0.6-2.1-1.1C11,242,7.1,252.1,3.5,262.4
			c1.1,0.4,1.9,0.9,2.8,1.1c3.6,1.2,7.2,2.3,10.8,3.4c5.2,1.7,10.3,3.9,15.2,6.5c2.5,1.3,5.1,2.6,7.7,3.8c4.6,2,9.3,3.8,14,5.7
			c1.8,0.8,3.5,1.8,5.3,2.5c3.7,1.4,7.5,2.8,11.2,4c4.3,1.4,8.5,3.1,12.6,5.1c3.5,1.6,7.3,2.7,11,4c3.9,1.4,7.8,2.7,11.7,4
			c4.7,1.6,9.4,3.1,14.1,4.7c1.7,0.6,3.4,1.2,5.1,1.8c3.4,1.2,6.8,2.3,10.1,3.5c1.2,0.4,2.4,1,3.9,1.6L147.6,295.3z M126.2,268.8
			c-3.6-3-4.3-7.6-1.9-13.1l-20.2-20.3l-0.3,0.2l0.7,1.6c1.6,3.3,0.6,7.3-2.3,9.5c-2.8,2.4-6.8,2.6-9.9,0.6
			c-2.1-1.2-3.8-3.2-4.7-5.4c-0.1,1.1-0.1,1.7-0.2,2.3c-0.3,2.9-1.9,4.8-4.5,5.2c-2.8,0.6-5.6-0.9-6.7-3.5c-0.4-1.4-0.7-2.8-0.9-4.2
			c-0.1-0.4-0.1-0.8-0.1-1.2c-0.7-0.1-1.4-0.3-2.1-0.4c-3.5-0.6-6.9-2-9.7-4.2c-0.3-0.2-0.5-0.4-0.8-0.7c-2.4-2.2-2-4.7,1-5.8
			c2.6-1,5.4-1.7,8.2-2.6c-0.1-0.4-0.2-1-0.4-1.5c-2.1-5.8-2.8-11.7-0.9-17.7c0.4-1.1,0-2.2-0.9-2.9c-1.1-1.2-2.6-1.9-4.2-2.1
			c-1.6-0.2-3.2-0.2-4.8-0.1c-11.6,1.3-22.8,4.9-32.9,10.6c-2.2,1.3-4.2,2.9-6.1,4.6c-1.6,1.4-1.5,2.6,0.3,3.9
			c1.3,0.9,2.7,1.7,4.1,2.4c7,3.7,13.9,7.5,21,11c7.7,3.8,14.8,8.4,22,12.9c7.8,4.8,15.8,9.4,23.9,13.9c5.7,3.1,11.7,5.7,17.5,8.6
			c2.6,1.3,5,2.7,7.6,4c3.3,1.6,6.7,3.1,10,4.8c3.7,1.9,7.3,3.9,10.9,5.8c2.6,1.3,5.1,2.6,7.7,3.8c0.9,0.4,2,0.7,3,0.8
			c2.9,0.3,4.6-1.6,3.9-4.4c-0.4-1.5-1.1-2.8-2-4c-1.3-1.4-2.7-2.8-4.2-4c-2.5-2.4-5.1-4.8-7.6-7.1l-1.2-1.1
			C133.6,271.8,129.7,271.8,126.2,268.8L126.2,268.8z M50.1,291.5c4.2,1.4,8.6,2.5,12.9,3.8c1.7,0.5,3.4,1.2,5.2,1.8
			c5.8,2.1,11.6,4.1,17.3,6.3c4.1,1.5,8.1,3.4,12.2,4.9c8.6,3.2,17.1,6.5,25.7,9.6c3.2,1.1,6.4,2.1,9.5,3.2c1.2,0.4,2.3,0.6,3.3-0.4
			c1.2-1.3,2.2-2.7,1.9-4.6c-0.1-0.5-0.8-1.1-1.3-1.4c-1.4-0.7-2.8-1.2-4.3-1.7c-4.5-1.7-9-3.4-13.6-5c-1.3-0.5-2.7-0.8-4-1.2
			c-5.5-1.9-11.1-3.9-16.6-5.8c-3.6-1.2-7.2-2.2-10.8-3.3c-1.3-0.4-2.5-0.9-3.7-1.5c-5.3-2.8-11-4.5-16.6-6.3
			c-3.2-1-6.3-2.3-9.4-3.6c-4.6-1.9-9.1-3.8-13.7-5.9s-9.3-4.2-13.9-6.4c-4.9-2.5-10-4.6-15.3-6.3c-2.9-0.9-5.9-1.8-8.8-2.8
			s-3.5-0.7-4.5,2.3c-0.2,0.5-0.3,1.1-0.4,1.6c-0.4,2.4,0.1,3.5,2.4,4.4l22.9,9.3C34.2,286.2,42.1,288.8,50.1,291.5z M15.4,228.4
			c-0.4,1.3,0.1,2.1,1.5,2.8c3.2,1.7,6.5,3.3,9.7,4.9l21.2,10.6c1.4,0.7,2.8,1.5,4.3,2.2c5.8,2.8,11.6,5.6,17.4,8.2
			c4.7,2.1,8.8,5,13.2,7.6c7.2,4.5,14.8,8.3,22.6,11.4c5.8,2.2,11.6,4.5,17.4,6.6c4.6,1.7,8.8,4.2,13.2,6.4c3.2,1.6,6.5,3,9.8,4.2
			c2.5,0.9,4.3,0.1,5.7-2.2c-1.2-0.1-2.4-0.3-3.7-0.5c-1.1-0.4-2.2-0.8-3.3-1.4c-1.7-0.9-3.3-1.8-4.9-2.8c-5-3-10.3-5.7-15.6-8.1
			c-10.5-4.8-21.1-9.6-31.5-14.7c-5.8-2.9-11.3-6.4-17-9.6c-2.2-1.2-4.4-2.4-6.6-3.7c-3.5-2.2-6.9-4.5-10.4-6.6
			c-4.3-2.5-8.7-4.7-13.1-7.1c-5.2-2.8-10.3-5.6-15.5-8.3c-2-1-4-2.1-6-3.1c-2.1-0.9-3.9-2.3-5.4-4.1
			C17.1,223.4,16,225.8,15.4,228.4z M87.8,214.8c0.4,5.6-0.5,11.3-2.8,16.5l2,2.9c0.7-0.8,1.4-1.6,2-2.5c3-4.8,4.3-10.1,4.6-15.7
			c0.5-5.3-0.5-10.6-2.9-15.3c-1.5-2.8-3.5-5.4-5.9-7.5c-1.6-1.4-2.6-1.5-4.2-0.1c-2.7,2.2-4.8,5-6.2,8.2
			c-2.4,5.1-4.1,10.5-3.3,16.2c0.6,2.9,1.3,5.8,2.2,8.6c0.1,0.6,0.6,1.1,1.2,1.2c1.6,0.2,3.2,0.4,4.7,0.8c1.5,0.5,2.9,1.1,4.3,1.7
			c0.9-1.4,1.5-2.9,1.7-4.5c1.5-7.3,1.4-14.5-1.6-21.6c-0.4-1-0.8-2.1-1.1-3.1c-0.1-0.6-0.1-1.1-0.1-1.7
			C84.9,200.6,87.5,209.1,87.8,214.8L87.8,214.8z M90,235.2c-1.9,2.7-1.7,6.3,0.5,8.8c0.7,0.8,1.6,1.4,2.5,2
			c3.2,1.9,6.2,1.4,8.6-1.3c2.4-2.4,2.4-6.2,0.2-8.6c-1.1-1.1-2.2-2.1-3.4-2.9C94.9,232,91.8,232.8,90,235.2z M124.7,259.8
			c-0.9,5.1,3.2,9.8,8.2,9.3c2.1-0.1,4-1.5,4.8-3.5c1.6-4.1-0.4-8.8-4.5-10.4c0,0-0.1,0-0.1,0C129.1,253.6,125.5,255.6,124.7,259.8
			L124.7,259.8z M85,234.6c-0.2-0.5-0.4-0.9-0.7-1.3c-1.1-1.4-2.5-2.5-4.1-3.1c-4.9-2.1-10.6-2-15.4,0.3c-0.4,0.2-0.9,0.4-1.3,0.7
			c-1.2,0.8-1.3,1.4-0.3,2.5c0.4,0.4,0.8,0.8,1.2,1.1c3.8,3.1,8.3,4.2,13.1,4.2c1.5,0,3-0.2,4.5-0.6c1-0.4,2-0.8,3-1.4
			c-0.7-0.5-1.4-1-2.1-1.4c-2.9-1.3-6-2-9.1-2.1c-1.7,0-3.3,0-5,0c-0.4,0-0.9-0.1-1.3-0.2C71.3,231.3,76.3,231.7,85,234.6L85,234.6z
			 M77.3,240.6c-1.2,2.6,0,5.7,2.6,6.8c0.1,0,0.1,0.1,0.2,0.1c1.9,0.9,4.1,0,5-1.9c0.1-0.3,0.2-0.6,0.3-0.9c0.5-1.9,0.1-3.8-1.2-5.3
			L77.3,240.6z M100.6,232.4c-2.1-2.6-4.4-5-6.9-7.2L91,232C94.4,230.4,97.5,230.8,100.6,232.4L100.6,232.4z"/>
		<path class="st2" d="M52.3,158.8c0.1,0.2-1.4,0.6-3,2c-0.9,0.8-1.7,1.9-2.2,3c-1.1,2.8-0.2,6.1,2.3,7.9c1.2,0.8,2.7,1.1,4.1,0.8
			c1.3-0.2,2.4-1,3.2-2c0.6-0.9,1-1.9,1-3c0.1-1.9-0.4-3.7-1.5-5.2c-0.4-0.6-1-1.2-1.7-1.6c-0.6-0.3-1.2-0.5-1.8-0.5
			c-1,0-2,0.2-2.8,0.9c-0.6,0.4-0.9,0.9-1.1,0.8s-0.3-0.6,0.2-1.5c0.8-1.2,2.1-2,3.6-2.2c0.5-0.1,1-0.1,1.5,0
			c0.5,0.1,1.1,0.2,1.6,0.4c1.1,0.5,2,1.2,2.8,2.1c1.7,2,2.5,4.5,2.3,7.1c-0.1,1.7-0.6,3.3-1.6,4.6c-1.2,1.6-3.1,2.7-5.1,3
			c-1,0.2-2.1,0.1-3.2-0.1c-1.1-0.3-2.1-0.8-3-1.5c-1.6-1.3-2.8-3.1-3.1-5.2c-0.2-0.9-0.2-1.9-0.1-2.9c0.1-0.9,0.4-1.7,0.9-2.5
			c0.7-1.3,1.8-2.4,3-3.2c0.8-0.5,1.7-0.9,2.7-1.1C52,158.6,52.3,158.7,52.3,158.8z"/>
		<path class="st2" d="M65.9,149.3c0,0.2-0.7,0.3-1.4,0.9c-0.4,0.4-0.7,0.8-0.9,1.3c-0.2,0.5-0.2,1.1-0.1,1.6
			c0.2,0.5,0.6,0.9,1.1,1.2c0.5,0.2,1,0.3,1.6,0.2c0.8-0.3,1.3-1.1,1.3-1.9c0.1-0.6-0.2-1.1-0.6-1.5c-0.4-0.4-1-0.6-1.6-0.7
			c-1.1-0.2-1.9,0.3-2.2,0c-0.2-0.1-0.2-0.5,0.1-0.9c0.5-0.6,1.1-1,1.8-1.2c1.1-0.3,2.4-0.1,3.4,0.5c0.7,0.4,1.2,1,1.5,1.7
			c0.3,0.7,0.5,1.5,0.4,2.3c-0.1,0.9-0.4,1.8-0.9,2.6c-0.7,1-1.7,1.6-2.8,1.8c-1.2,0.2-2.4-0.1-3.4-0.8c-1-0.6-1.7-1.7-1.9-2.8
			c-0.2-1,0.1-2.1,0.7-2.9c0.5-0.6,1.1-1.1,1.8-1.4c0.5-0.2,1-0.3,1.5-0.2C65.7,149.1,65.9,149.2,65.9,149.3z"/>
	</g>
</g>
<g>
	<g>
		<path class="st5" d="M358.1,21.1c0.1,0.3-1.8,1.1-3.8,3.4c-1,1.2-1.9,2.7-2.4,4.6c-0.5,1.8-0.3,3.9,0.6,5.8
			c0.9,1.9,2.4,3.6,4.3,4.4c1.9,0.9,4.1,0.9,5.9,0.1c1.9-0.7,3.4-2,4.1-3.4c0.7-1.4,0.9-3,0.7-4.4c-0.3-2.7-1.6-5.2-3.2-6.9
			c-0.8-0.8-1.8-1.4-2.7-1.7c-0.9-0.3-1.8-0.4-2.7-0.3c-1.8,0.2-3.1,1.1-3.8,1.8c-0.7,0.7-1.1,1.4-1.4,1.3c-0.3,0-0.5-0.8,0-2.1
			c0.5-1.3,2-3,4.5-3.8c0.6-0.2,1.3-0.3,2.1-0.4c0.7,0,1.5,0.1,2.3,0.2c1.5,0.4,3,1.1,4.3,2.2c2.6,2.2,4.4,5.4,4.8,9.2
			c0.2,1.9,0,4.3-1.3,6.6c-1.3,2.4-3.7,4.3-6.5,5.2c-1.4,0.5-2.9,0.7-4.4,0.6c-1.5-0.1-3.1-0.5-4.4-1.2c-2.7-1.4-4.5-3.9-5.5-6.4
			c-0.5-1.3-0.7-2.6-0.7-3.9c0-1.3,0.3-2.5,0.7-3.6c0.8-2.2,2.1-3.9,3.4-5c1.3-1.2,2.6-1.8,3.5-2.1C357.5,21,358,21,358.1,21.1z"/>
	</g>
	<g>
		<path class="st5" d="M374.9,5.2c0,0.3-1,0.6-1.8,1.6c-0.4,0.5-0.8,1.2-1,1.9c-0.2,0.8-0.1,1.6,0.3,2.2c0.4,0.6,1.1,1.1,1.8,1.4
			c0.8,0.3,1.6,0.2,2.2-0.1c1.1-0.5,1.5-1.9,1.4-2.9c-0.1-0.9-0.5-1.6-1.1-2c-0.6-0.4-1.6-0.6-2.3-0.6c-1.6,0-2.6,0.8-3.1,0.5
			c-0.2-0.1-0.3-0.6,0-1.3c0.3-0.6,1.1-1.5,2.3-2c1.2-0.5,3-0.8,4.8,0c0.9,0.4,1.8,1,2.5,1.9c0.6,0.9,1,2,1.1,3
			c0.1,1.1-0.1,2.4-0.7,3.7c-0.6,1.3-1.9,2.6-3.6,3.1c-1.7,0.5-3.4,0.4-4.9-0.3c-1.5-0.7-2.7-1.9-3.2-3.4c-0.5-1.5-0.2-3.1,0.3-4.2
			c0.6-1.1,1.4-1.9,2.2-2.4c0.8-0.5,1.6-0.6,2.1-0.6C374.7,4.9,374.9,5.1,374.9,5.2z"/>
	</g>
	<g>
		<g>
			<g>
				<path class="st6" d="M394.8,44.2c0,0,2.2-6,8.9-1.5c6.7,4.6,30.6,41.6-18,66.1"/>
				<g>
					<path class="st6" d="M394.6,44.5l-34.8,64.3c-0.5,1,0.1,2.2,1.2,2.4c7.6,1.5,32.7,3.9,46.2-23.7c0,0,12.4-22.2-9.7-43.5
						C396.7,43.1,395.1,43.4,394.6,44.5z"/>
					<path class="st5" d="M404.2,42.4c-6.7-4.6-8.9,1.5-8.9,1.5l0,0c0.7-0.8,2-1,2.8-0.2c22,21.2,9.7,43.5,9.7,43.5
						c-3.6,7.4-8,12.6-12.7,16.2C431.6,79.1,410.4,46.6,404.2,42.4z"/>
					<g>
						<defs>
							<path id="SVGID_1_" d="M394.6,44.5l-34.8,64.3c-0.5,1,0.1,2.2,1.2,2.4c7.6,1.5,32.7,3.9,46.2-23.7c0,0,12.4-22.2-9.7-43.5
								C396.7,43.1,395.1,43.4,394.6,44.5z"/>
						</defs>
						<clipPath id="SVGID_2_">
							<use xlink:href="#SVGID_1_"  style="overflow:visible;"/>
						</clipPath>
						<g class="st7">
							<path class="st8" d="M379.1,98.7c0.6,2.2-1,4.5-3.4,4.9c0,0,0,0,0,0c-3.7,0.5-7.3,0.4-10.9-0.5c-2.4-0.6-3.6-2.7-2.6-4.8
								c2.6-6.1,5.3-12.1,8-18.2c0.4-1,1-1.7,2.3-1.6c1.2,0.1,1.7,0.8,2,1.8C375.9,86.4,377.5,92.5,379.1,98.7
								C379.1,98.7,379.1,98.7,379.1,98.7z"/>
							<path class="st8" d="M389.2,99.1c-2.4,1.4-4.9,0.7-6-1.7c-2.5-5.5-5-11-7.5-16.5c-0.2-0.5-0.5-0.9-0.7-1.4
								c-0.4-0.9-0.1-1.6,0.6-2.2c0.7-0.6,1.5-0.7,2.3-0.3c6.1,3.3,12.2,6.6,18.3,9.9c2.2,1.2,2.6,3.6,1,5.5
								C396.2,93.8,390.7,98.3,389.2,99.1z"/>
							<path class="st8" d="M400,58.1c1.5,2.3,0.6,4.6-2.1,5.7c-6.4,2.6-12.9,5.2-19.3,7.9c-0.9,0.4-1.7,0.3-2.4-0.3
								c-0.7-0.7-0.8-1.5-0.2-2.3c3.6-5.6,7.2-11.2,10.9-16.8c1.5-2.4,4.1-2.8,6.4-1.2C394.5,52,399,56.7,400,58.1z"/>
							<path class="st8" d="M399.5,67.6c2.3-0.5,4.5,0.9,5,3c0,0.1,0.1,0.3,0.1,0.4c0.4,3.1,0.2,6.3-0.8,9.4c-1,3.3-3.6,3.2-7.8,1.8
								c-6.7-2.2-9.1-2.8-16-5.6c-1.7-0.7-2.7-0.8-2.6-2c0.1-1,0.7-1.6,1.7-1.8c2.7-0.7,5.5-1.4,8.3-2.1
								C391.3,69.6,395.4,68.6,399.5,67.6C399.4,67.6,399.5,67.6,399.5,67.6z"/>
						</g>
					</g>
				</g>
			</g>
		</g>
		<g>
			<g>
				<path class="st9" d="M332.8,131.2c0,0-0.9,4.3,4.5,2.7c5.3-1.5,31.7-20.1,13-45.4"/>
				<g>
					<path class="st9" d="M332.8,131l2.9-47.6c0-0.7,0.8-1.4,1.5-1.3c4.8,0.6,19.8,4.1,17.8,24.3c0,0-0.8,16.5-20.6,25.5
						C333.5,132.2,332.8,131.7,332.8,131z"/>
					<path class="st5" d="M337.5,134.2c-5.3,1.5-4.5-2.7-4.5-2.7l0,0c0.1,0.7,0.8,1,1.5,0.7c19.8-9,20.6-25.5,20.6-25.5
						c0.5-5.4-0.1-9.6-1.5-12.8C365.8,116.5,342.5,132.8,337.5,134.2z"/>
					<g>
						<defs>
							<path id="SVGID_3_" d="M332.8,131l2.9-47.6c0-0.7,0.8-1.4,1.5-1.3c4.8,0.6,19.8,4.1,17.8,24.3c0,0-0.8,16.5-20.6,25.5
								C333.5,132.2,332.8,131.7,332.8,131z"/>
						</defs>
						<clipPath id="SVGID_4_">
							<use xlink:href="#SVGID_3_"  style="overflow:visible;"/>
						</clipPath>
						<g class="st10">
							<path class="st11" d="M343,93.6c1.1-1.3,1-3.1-0.2-3.8c0,0,0,0,0,0c-1.9-1.1-4-1.7-6.3-1.9c-1.6-0.1-2.9,1-3.2,2.5
								c-0.6,4.4-1.2,8.7-1.9,13.1c-0.1,0.7,0,1.3,0.7,1.4c0.7,0.2,1.2-0.2,1.7-0.8C337,100.7,340,97.1,343,93.6
								C343,93.6,343,93.6,343,93.6z"/>
							<path class="st11" d="M348.9,95.3c-0.9-1.3-2.5-1.4-3.9-0.1c-3.3,3-6.7,5.9-10,8.9c-0.3,0.3-0.6,0.5-0.9,0.7
								c-0.5,0.5-0.6,1-0.4,1.5c0.2,0.5,0.6,0.8,1.2,0.7c4.6-0.9,9.2-1.7,13.8-2.6c1.6-0.3,2.7-1.8,2.5-3.3
								C350.9,100.1,349.4,96.2,348.9,95.3z"/>
							<path class="st11" d="M340.6,123.4c1.6-1.1,2-2.8,0.8-4.1c-2.7-3-5.4-5.9-8.1-8.9c-0.4-0.4-0.9-0.6-1.5-0.3
								c-0.6,0.3-0.9,0.8-0.9,1.4c0.1,4.3,0.2,8.5,0.3,12.8c0,1.8,1.3,2.6,3.2,2C335.4,126.2,339.6,124.1,340.6,123.4z"/>
							<path class="st11" d="M343.6,117.3c1.1,0.8,2.9,0.3,3.9-0.9c0.1-0.1,0.1-0.2,0.2-0.2c1.3-1.9,2.3-3.9,2.8-6.1
								c0.6-2.3-0.9-2.7-3.8-2.7c-4.6,0.1-6.1,0-11,0.3c-1.2,0.1-1.8-0.1-2.2,0.8c-0.3,0.7-0.2,1.1,0.3,1.5c1.3,1,2.6,2,3.9,3
								C339.7,114.4,341.7,115.9,343.6,117.3C343.6,117.3,343.6,117.3,343.6,117.3z"/>
						</g>
					</g>
				</g>
			</g>
		</g>
		<g>
			<g>
				<path class="st5" d="M332.8,107.5c-6.3,7.5-12.6,14.9-18.8,22.4c-3,3.6-5.9,7.1-8.9,10.7c-1.3,1.5-2.6,3.1-3.9,4.7
					c-1.1,1.4-2.4,3-2.9,4.7c-0.8,2.8,0.8,5.8,3.4,6.9c3.4,1.4,6.8-0.5,9.9-1.9c8.5-3.9,17-7.5,25.6-11.2
					c17.6-7.6,35.2-15.4,52.5-23.5c8-3.8,16.1-7.5,23.9-11.9c3.7-2.1,7.4-4.4,10.8-6.9c1.6-1.2,3.2-2.4,4.7-3.7
					c1.5-1.3,3.2-2.6,4.4-4.2c2.1-2.8,1.9-5.9,0.6-8.9c-1.1-2.5-2.7-4.7-4.9-6c-1.5-0.9-2.8-2.1-4.3-3.1c-2.7-1.9-5.5-3.6-8.4-5.1
					c-1.4-0.7-2.8-1.3-4.2-1.7c-1-0.3-1.4,1.2-0.4,1.5c5.4,1.7,10.3,5.2,14.9,8.5c1.2,0.9,2.5,1.6,3.5,2.7c1.9,2.1,3.7,5.4,3.3,8.2
					c-0.3,2-1.6,3.5-3.1,4.9c-1.4,1.3-2.9,2.6-4.4,3.8c-3.2,2.5-6.6,4.8-10.1,6.9c-7,4.2-14.4,7.7-21.8,11.3
					c-16.1,7.7-32.5,15-48.8,22.1c-8.2,3.6-16.5,7.2-24.7,10.7c-3.7,1.6-7.3,3.3-11,4.9c-1.7,0.8-3.7,1.8-5.6,1.7
					c-1.5-0.1-3-0.9-3.8-2.3c-2-3.3,1.9-7.1,3.8-9.4c2.7-3.2,5.4-6.4,8-9.6c5.8-7,11.7-14,17.5-20.9c1.4-1.7,2.9-3.4,4.3-5.1
					C334.6,107.8,333.5,106.7,332.8,107.5L332.8,107.5z"/>
			</g>
		</g>
		<g>
			<g>
				<path class="st5" d="M352.5,90c5.3-5.6,10.8-11,16.6-16c2.7-2.3,5.3-4.8,8.4-6.5c1.5-0.8,3.1-1.3,4.7-1.7
					c0.5-0.1,1.3-0.2,1.8-0.5c0.4-0.2,0.5-0.7,0.3-1.1c-0.1-0.2-0.4-0.4-0.6-0.4c-1-0.2-1.4,1.3-0.4,1.5c0.4,0.1-0.1,0.1-0.3-0.3
					c0.1-0.4,0.2-0.7,0.3-1.1c0.3-0.2-0.2,0-0.4,0.1c-0.5,0.1-1.1,0.3-1.6,0.4c-1.5,0.4-3,0.9-4.5,1.7c-3.1,1.7-5.7,4.2-8.4,6.5
					c-6,5.1-11.6,10.6-17,16.3C350.7,89.7,351.8,90.8,352.5,90L352.5,90z"/>
			</g>
		</g>
		<g>
			<g>
				<path class="st5" d="M300.5,156.3c2.4,4.1,7.5,5.1,11.9,4.4c2.9-0.4,5.6-1.5,8.2-2.7c2.8-1.2,5.6-2.5,8.4-3.8
					c11-5.2,21.9-10.8,32.9-15.9c11.2-5.2,22.7-9.5,34.2-13.8c10.6-4,21.1-8.5,30.4-15c4.7-3.3,9.4-7.2,12.8-11.9
					c0.8-1.1,1.4-2.3,1.3-3.8c-0.1-1.4-0.9-2.7-1.5-3.8c-1.5-2.6-3.4-5-5.5-7.1c-0.7-0.7-1.8,0.4-1.1,1.1c1.9,1.8,3.5,3.9,4.9,6.1
					c0.7,1.1,1.5,2.3,1.7,3.6c0.3,1.6-0.8,3-1.8,4.1c-3.3,3.9-7.1,7.3-11.3,10.2c-8.7,6.2-18.5,10.5-28.4,14.3
					c-10.7,4.1-21.4,7.9-31.8,12.6c-10.3,4.7-20.4,9.8-30.6,14.8c-5.8,2.8-11.7,5.8-17.7,8.1c-4.8,1.8-12.2,3.1-15.3-2.2
					C301.3,154.7,300,155.5,300.5,156.3L300.5,156.3z"/>
			</g>
		</g>
		<g>
			<g>
				<path class="st5" d="M306.7,160.6c2,3.6,4,7.1,5.9,10.7c1,1.7,1.9,3.4,2.9,5.1c0.8,1.4,1.5,2.9,2.6,4.1c2.4,2.6,5.5,2.2,8.6,1.2
					c3.6-1.2,7.2-2.6,10.8-4.1c7-3,13.9-6.2,21-9c6.4-2.5,12.8-4.8,19.3-7.2c12.9-4.6,25.8-9.1,38.3-14.6c6.2-2.7,12.4-5.7,18.3-9.1
					c5.7-3.3,10.9-7,16.1-10.9c1.7-1.3,4.5-2,5.6-3.9c0.7-1.3,0.4-2.6-0.1-3.9c-0.7-1.7-1.5-3.4-2.3-5.1
					c-3.7-7.1-8.7-13.5-12.9-20.4c-0.6-0.9-2-0.1-1.5,0.9c3.6,5.9,7.8,11.4,11.3,17.4c0.8,1.4,1.5,2.7,2.2,4.1
					c0.7,1.4,1.7,3.1,2,4.7c0.4,2.2-2.7,3.2-4.3,4.2c-2.4,1.4-4.5,3.4-6.8,5.1c-2.5,1.8-5.1,3.4-7.7,5c-5.6,3.4-11.4,6.3-17.3,9
					c-11.9,5.5-24.2,9.9-36.6,14.3c-12.7,4.5-25.3,9.1-37.6,14.6c-3.8,1.7-7.6,3.4-11.5,4.9c-1.9,0.7-3.8,1.5-5.7,2.1
					c-1.9,0.7-4.3,1.7-6.3,0.7c-1.5-0.7-2.4-2.3-3.2-3.7c-1-1.8-2-3.6-3-5.5c-2.1-3.9-4.3-7.7-6.4-11.6
					C307.6,158.8,306.2,159.7,306.7,160.6L306.7,160.6z"/>
			</g>
		</g>
		<g>
			<g>
				<path class="st5" d="M317.9,180.2c1.8,3.6,4,7.6,8,9c2.5,0.9,5.1,0.4,7.6-0.3c2.9-0.9,5.7-2,8.5-3.1
					c11.4-4.3,22.8-8.6,34.2-13.2c20.7-8.3,41.8-16.4,60.9-27.9c5.1-3.1,10.1-6.5,14.8-10.2c1.1-0.9,2.3-1.8,3.4-2.7
					c1.1-0.9,2.3-1.9,2.9-3.2c1.1-2.5-0.6-4.8-2.1-6.6c-0.7-0.8-1.9,0.4-1.2,1.2c0.8,0.9,1.7,2,1.9,3.3c0.3,1.5-0.9,2.6-1.9,3.5
					c-2,1.7-4,3.3-6.1,4.9c-4,3-8.2,5.8-12.4,8.4c-8.7,5.2-17.8,9.7-27,13.8c-20.2,9-40.9,17.1-61.6,24.9c-3,1.1-6,2.2-9,3.4
					c-2.9,1.1-6,2.5-9.1,2.8c-5.4,0.4-8.2-4.4-10.3-8.6C318.9,178.4,317.5,179.2,317.9,180.2L317.9,180.2z"/>
			</g>
		</g>
	</g>
	<g>
		<g>
			<path class="st5" d="M310.7,164.1c9.6,0.4,18.7-4.7,26.9-9c9-4.8,17.7-10,26.9-14.4c17.7-8.5,36.8-13.9,54.5-22.3
				c9.2-4.4,18-9.7,25.3-16.8c0.7-0.7-0.4-1.7-1.1-1.1c-13.3,12.8-31.2,19.7-48.2,26.2c-9.2,3.5-18.4,6.8-27.4,10.8
				c-9.1,4.1-17.7,9.1-26.3,13.8c-4.8,2.6-9.6,5.2-14.6,7.5c-5.1,2.3-10.5,4.1-16.1,3.8C309.7,162.6,309.7,164.1,310.7,164.1
				L310.7,164.1z"/>
		</g>
	</g>
	<g>
		<g>
			<path class="st5" d="M318.1,178.5c9.9,0,19.2-3.7,27.9-8c4.6-2.3,9.1-4.7,13.7-7c4.7-2.2,9.5-4.1,14.4-5.6
				c4.9-1.5,9.9-2.9,14.7-4.6c4.8-1.7,9.5-3.6,14.2-5.6c9-3.8,18-7.8,26.8-12.2c9-4.5,17.8-9.8,24.6-17.4c0.6-0.7-0.4-1.8-1.1-1.1
				c-6,6.7-13.6,11.6-21.5,15.7c-8.4,4.4-17.2,8.2-25.9,12c-9.4,4.1-19,7.7-28.9,10.6c-4.7,1.4-9.4,2.9-13.9,4.8
				c-4.6,2-9,4.3-13.4,6.6c-9.9,5.1-20.3,10.1-31.7,10.1C317.1,177,317.1,178.5,318.1,178.5L318.1,178.5z"/>
		</g>
	</g>
	<g>
		<g>
			<path class="st5" d="M311.6,165.7c9.5-0.1,18.1-4.4,26.1-9.1c8.7-5.2,17.4-10.3,26.6-14.7c9.4-4.5,19.1-8.5,28.9-12.2
				c8.7-3.3,17.6-6.4,26.2-10.2c9.4-4.2,18.4-9.3,25.8-16.6c1-1-0.6-2.6-1.6-1.6c-13.2,12.9-31.3,18.8-48.2,25.1
				c-19,7.2-37.5,15.2-54.8,25.7c-8.9,5.4-18.3,11.2-29,11.3C310.1,163.5,310.1,165.7,311.6,165.7L311.6,165.7z"/>
		</g>
	</g>
	<g>
		<g>
			<path class="st5" d="M315.6,173.9c9.4-2.3,18.5-5.7,27-10.3c4.3-2.4,8.4-5,12.8-7.3c4.5-2.3,9.2-4,14-5.5
				c9.5-2.9,19.1-5.6,28.3-9.3c8.9-3.6,17.2-8.2,25.3-13.4c8.9-5.7,17.6-11.6,27.3-15.8c1.3-0.6,0.2-2.5-1.1-1.9
				c-8.6,3.7-16.5,8.8-24.4,13.9c-7.9,5.1-15.9,10-24.5,13.7c-9.2,3.9-18.8,6.8-28.3,9.6c-4.7,1.4-9.3,2.8-13.8,4.8
				c-4.5,2-8.7,4.6-13,7.1c-9.5,5.6-19.6,9.7-30.2,12.3C313.6,172.1,314.2,174.3,315.6,173.9L315.6,173.9z"/>
		</g>
	</g>
	<g>
		<g>
			<path class="st5" d="M319.4,179.2c11.1-0.9,21-5.8,30.8-10.7c5.1-2.5,10.3-5.1,15.6-7c5.8-2.1,11.7-3.5,17.6-5.3
				c6-1.8,11.8-4,17.4-6.7c3.3-1.6,6.6-3.3,10-5c7.4-3.7,14.7-7.5,21.9-11.7c4.2-2.4,8.4-4.9,12.4-7.6c3.3-2.2,6.6-4.6,9.5-7.4
				c1-1-0.6-2.6-1.6-1.6c-5.4,5.4-12.3,9.4-18.8,13.2c-7.3,4.3-14.7,8.2-22.3,12c-8.2,4.2-16.4,8.5-25.1,11.4
				c-5.7,1.9-11.6,3.3-17.4,5.1c-5.4,1.7-10.6,3.9-15.6,6.3c-11,5.3-22,11.7-34.5,12.7C317.9,177.1,317.9,179.3,319.4,179.2
				L319.4,179.2z"/>
		</g>
	</g>
	<g>
		<g>
			<path class="st5" d="M313.4,170c18.5-4.4,34-15.9,51.3-23.2c9.3-3.9,19.1-6.8,28.4-10.7c9-3.7,17.9-7.9,26.5-12.5
				c9.8-5.2,19.3-11,28.4-17.3c0.4-0.3,0-0.9-0.4-0.6c-16.1,11.2-33.4,20.7-51.4,28.4c-9.4,4-19.1,7.1-28.6,10.8
				c-8.7,3.4-16.9,7.9-25.2,12.3c-9.3,4.9-18.8,9.7-29.2,12.2C312.8,169.4,313,170.1,313.4,170L313.4,170z"/>
		</g>
	</g>
	<g>
		<g>
			<path class="st5" d="M316.9,176.4c9.2-1,17.3-5.4,25.4-9.6c4.5-2.4,9.1-4.6,13.9-6.4c4.8-1.9,9.6-3.6,14.5-5.3
				c18.4-6.5,36.6-13.5,53.8-22.6c9.8-5.1,19.2-10.9,28.1-17.4c0.4-0.3,0-0.9-0.4-0.6c-15.6,11.5-32.8,20.4-50.6,27.9
				c-9,3.8-18.1,7.3-27.3,10.6c-9.4,3.4-19,6.5-28,10.9c-9.4,4.7-18.7,10.6-29.4,11.7C316.5,175.7,316.5,176.5,316.9,176.4
				L316.9,176.4z"/>
		</g>
	</g>
</g>
</svg>
