<?xml version="1.0" encoding="utf-8"?>
<!-- Generator: Adobe Illustrator 25.3.1, SVG Export Plug-In . SVG Version: 6.00 Build 0)  -->
<svg version="1.1" id="Layer_1" xmlns="http://www.w3.org/2000/svg" xmlns:xlink="http://www.w3.org/1999/xlink" x="0px" y="0px"
	 viewBox="0 0 189 219" style="enable-background:new 0 0 189 219;" xml:space="preserve">
<style type="text/css">
	.st0{fill:#FB9A31;}
	.st1{fill:none;stroke:#FB9A31;stroke-width:0.9677;stroke-linecap:round;stroke-miterlimit:10;}
	.st2{clip-path:url(#SVGID_2_);}
	.st3{fill:none;stroke:#FB9A31;stroke-width:1.1827;stroke-miterlimit:10;}
	.st4{fill:none;stroke:#FB9A31;stroke-width:0.6317;stroke-linecap:round;stroke-miterlimit:10;}
	.st5{clip-path:url(#SVGID_4_);}
	.st6{fill:none;stroke:#FB9A31;stroke-width:0.7721;stroke-miterlimit:10;}
</style>
<g>
	<path class="st0" d="M90.16,31.13c0.14,0.31-1.84,1.08-3.82,3.43c-0.97,1.16-1.91,2.72-2.37,4.56c-0.47,1.84-0.33,3.91,0.56,5.82
		c0.86,1.89,2.42,3.59,4.32,4.45c1.87,0.87,4.06,0.86,5.94,0.15c1.88-0.69,3.35-2.02,4.05-3.43c0.75-1.43,0.85-3.04,0.72-4.37
		c-0.28-2.69-1.57-5.24-3.24-6.85c-0.83-0.83-1.76-1.39-2.68-1.75c-0.93-0.34-1.8-0.42-2.69-0.31c-1.76,0.2-3.05,1.07-3.79,1.79
		c-0.75,0.74-1.06,1.36-1.37,1.3c-0.25-0.03-0.53-0.8-0.02-2.14c0.51-1.29,1.99-3.02,4.53-3.78c0.63-0.2,1.32-0.31,2.05-0.36
		c0.74-0.04,1.54,0.05,2.29,0.22c1.52,0.36,3.03,1.13,4.31,2.21c2.56,2.17,4.38,5.45,4.8,9.23c0.18,1.87,0.04,4.29-1.25,6.65
		c-1.28,2.38-3.67,4.28-6.46,5.16c-1.39,0.45-2.9,0.66-4.42,0.55c-1.52-0.1-3.05-0.53-4.37-1.24c-2.68-1.42-4.55-3.85-5.48-6.4
		c-0.47-1.28-0.7-2.62-0.69-3.91c0.01-1.3,0.26-2.53,0.65-3.63c0.8-2.21,2.14-3.88,3.45-5.03c1.31-1.15,2.59-1.78,3.49-2.1
		C89.57,31.02,90.12,31.01,90.16,31.13z"/>
</g>
<g>
	<path class="st0" d="M107.03,15.21c0.03,0.31-0.95,0.56-1.83,1.58c-0.44,0.49-0.83,1.18-1.03,1.95c-0.18,0.77-0.13,1.6,0.25,2.23
		c0.35,0.64,1.05,1.14,1.85,1.38c0.79,0.26,1.65,0.19,2.21-0.08c1.12-0.47,1.52-1.95,1.41-2.86c-0.11-0.95-0.49-1.56-1.12-1.98
		c-0.65-0.42-1.56-0.61-2.32-0.58c-1.57,0.01-2.57,0.77-3.08,0.47c-0.23-0.13-0.32-0.59,0-1.25c0.31-0.65,1.06-1.5,2.31-2.02
		c1.22-0.53,2.96-0.77,4.81-0.03c0.91,0.37,1.82,1.04,2.46,1.94c0.65,0.89,1.02,1.96,1.13,3.05c0.09,1.08-0.05,2.39-0.7,3.69
		c-0.62,1.28-1.9,2.61-3.59,3.13c-1.66,0.53-3.42,0.35-4.88-0.33c-1.46-0.67-2.73-1.89-3.24-3.42c-0.55-1.53-0.24-3.06,0.32-4.16
		c0.58-1.11,1.4-1.91,2.2-2.37c0.8-0.46,1.55-0.63,2.06-0.6C106.76,14.94,107.03,15.08,107.03,15.21z"/>
</g>
<g>
	<g>
		<g>
			<path class="st1" d="M106.85,61.17c0,0,2.23-6.04,8.89-1.49c6.66,4.56,30.57,41.57-17.98,66.12"/>
			<g>
				<path class="st1" d="M106.65,61.47l-34.8,64.27c-0.54,1,0.05,2.19,1.22,2.42c7.62,1.46,32.73,3.87,46.24-23.69
					c0,0,12.39-22.23-9.65-43.47C108.78,60.14,107.23,60.39,106.65,61.47z"/>
				<path class="st0" d="M116.27,59.38c-6.66-4.56-8.89,1.49-8.89,1.49l0,0.01c0.68-0.82,2.01-0.95,2.81-0.19
					c22.04,21.24,9.65,43.47,9.65,43.47c-3.6,7.35-8.04,12.56-12.74,16.23C143.68,96.12,122.48,63.63,116.27,59.38z"/>
				<g>
					<defs>
						<path id="SVGID_1_" d="M106.65,61.47l-34.8,64.27c-0.54,1,0.05,2.19,1.22,2.42c7.62,1.46,32.73,3.87,46.24-23.69
							c0,0,12.39-22.23-9.65-43.47C108.78,60.14,107.23,60.39,106.65,61.47z"/>
					</defs>
					<clipPath id="SVGID_2_">
						<use xlink:href="#SVGID_1_"  style="overflow:visible;"/>
					</clipPath>
					<g class="st2">
						<path class="st3" d="M91.2,115.7c0.55,2.17-1.03,4.55-3.43,4.92c-0.01,0-0.02,0-0.02,0c-3.68,0.54-7.33,0.38-10.9-0.52
							c-2.38-0.61-3.55-2.71-2.63-4.84c2.62-6.08,5.31-12.13,7.97-18.2c0.42-0.97,1.03-1.67,2.27-1.55c1.17,0.11,1.7,0.79,1.97,1.82
							c1.56,6.11,3.15,12.21,4.77,18.31C91.19,115.66,91.2,115.68,91.2,115.7z"/>
						<path class="st3" d="M101.31,116.12c-2.39,1.37-4.88,0.67-5.96-1.68c-2.52-5.48-5-10.98-7.5-16.47
							c-0.21-0.47-0.49-0.91-0.7-1.38c-0.38-0.86-0.09-1.6,0.65-2.21c0.7-0.58,1.48-0.75,2.31-0.3c6.1,3.3,12.21,6.58,18.27,9.93
							c2.17,1.2,2.58,3.6,0.99,5.47C108.25,110.81,102.83,115.26,101.31,116.12z"/>
						<path class="st3" d="M112.07,75.1c1.51,2.25,0.61,4.64-2.08,5.75c-6.42,2.64-12.85,5.25-19.27,7.89
							c-0.94,0.39-1.73,0.34-2.4-0.33c-0.69-0.7-0.78-1.47-0.2-2.35c3.63-5.58,7.23-11.18,10.86-16.77
							c1.54-2.37,4.09-2.85,6.37-1.19C106.58,68.99,111.11,73.66,112.07,75.1z"/>
						<path class="st3" d="M111.56,84.58c2.29-0.55,4.49,0.92,5,3.03c0.03,0.13,0.06,0.27,0.08,0.4c0.43,3.14,0.15,6.27-0.75,9.35
							c-0.97,3.31-3.59,3.21-7.81,1.8c-6.73-2.24-9.11-2.83-16.05-5.6c-1.65-0.66-2.73-0.75-2.64-2.04
							c0.07-1.01,0.68-1.58,1.69-1.83c2.75-0.7,5.5-1.38,8.25-2.07c4.06-1.01,8.12-2.02,12.18-3.03
							C111.52,84.58,111.54,84.58,111.56,84.58z"/>
					</g>
				</g>
			</g>
		</g>
	</g>
	<g>
		<g>
			<path class="st4" d="M44.9,148.19c0,0-0.85,4.27,4.49,2.73c5.34-1.54,31.74-20.14,12.98-45.4"/>
			<g>
				<path class="st4" d="M44.89,147.96l2.86-47.61c0.04-0.74,0.8-1.38,1.53-1.28c4.8,0.61,19.78,4.12,17.76,24.26
					c0,0-0.79,16.54-20.63,25.54C45.63,149.22,44.84,148.75,44.89,147.96z"/>
				<path class="st0" d="M49.58,151.21c-5.34,1.54-4.49-2.73-4.49-2.73l0-0.01c0.1,0.66,0.8,1.01,1.51,0.68
					c19.83-9,20.63-25.54,20.63-25.54c0.54-5.37-0.14-9.55-1.5-12.82C77.85,133.49,54.56,149.77,49.58,151.21z"/>
				<g>
					<defs>
						<path id="SVGID_3_" d="M44.89,147.96l2.86-47.61c0.04-0.74,0.8-1.38,1.53-1.28c4.8,0.61,19.78,4.12,17.76,24.26
							c0,0-0.79,16.54-20.63,25.54C45.63,149.22,44.84,148.75,44.89,147.96z"/>
					</defs>
					<clipPath id="SVGID_4_">
						<use xlink:href="#SVGID_3_"  style="overflow:visible;"/>
					</clipPath>
					<g class="st5">
						<path class="st6" d="M55.14,110.58c1.07-1.26,1.01-3.08-0.21-3.8c0,0-0.01,0-0.01-0.01c-1.89-1.08-4-1.72-6.32-1.86
							c-1.55-0.1-2.95,1-3.17,2.53c-0.65,4.37-1.25,8.74-1.87,13.1c-0.1,0.7,0,1.26,0.74,1.44c0.7,0.16,1.24-0.16,1.74-0.76
							c3.01-3.55,6.04-7.08,9.08-10.61C55.12,110.6,55.13,110.59,55.14,110.58z"/>
						<path class="st6" d="M60.98,112.34c-0.87-1.35-2.51-1.4-3.94-0.14c-3.34,2.96-6.65,5.94-9.98,8.91
							c-0.28,0.25-0.59,0.48-0.87,0.73c-0.52,0.47-0.61,1-0.41,1.53c0.19,0.51,0.57,0.77,1.2,0.65c4.59-0.86,9.17-1.71,13.76-2.61
							c1.64-0.32,2.71-1.76,2.47-3.26C63.03,117.09,61.53,113.19,60.98,112.34z"/>
						<path class="st6" d="M52.71,140.43c1.64-1.12,1.97-2.81,0.84-4.05c-2.69-2.96-5.4-5.9-8.09-8.86
							c-0.39-0.43-0.85-0.56-1.47-0.27c-0.63,0.3-0.95,0.77-0.93,1.44c0.1,4.26,0.17,8.52,0.26,12.78c0.04,1.81,1.31,2.62,3.17,2.03
							C47.48,143.19,51.66,141.15,52.71,140.43z"/>
						<path class="st6" d="M55.73,134.34c1.1,0.81,2.85,0.32,3.87-0.91c0.06-0.08,0.13-0.16,0.18-0.24c1.34-1.9,2.27-3.93,2.84-6.06
							c0.61-2.29-0.9-2.75-3.77-2.71c-4.57,0.06-6.12-0.04-10.99,0.32c-1.16,0.08-1.8-0.07-2.2,0.76c-0.31,0.65-0.17,1.14,0.31,1.5
							c1.3,0.99,2.61,1.98,3.92,2.97c1.93,1.46,3.87,2.91,5.8,4.36C55.71,134.32,55.72,134.33,55.73,134.34z"/>
					</g>
				</g>
			</g>
		</g>
	</g>
	<g>
		<g>
			<path class="st0" d="M44.92,124.51c-6.29,7.46-12.57,14.94-18.84,22.43c-2.97,3.56-5.91,7.15-8.92,10.68
				c-1.32,1.54-2.64,3.08-3.87,4.69c-1.08,1.42-2.36,2.99-2.88,4.73c-0.85,2.85,0.78,5.76,3.44,6.91c3.35,1.45,6.83-0.54,9.86-1.92
				c8.46-3.86,17.05-7.46,25.58-11.16c17.6-7.63,35.16-15.37,52.52-23.52c8.04-3.77,16.12-7.52,23.86-11.89
				c3.73-2.11,7.38-4.38,10.84-6.91c1.63-1.19,3.21-2.42,4.75-3.73c1.52-1.29,3.17-2.61,4.37-4.21c2.06-2.78,1.93-5.87,0.6-8.93
				c-1.07-2.45-2.68-4.65-4.92-6.02c-1.48-0.91-2.83-2.14-4.26-3.13c-2.69-1.86-5.47-3.62-8.41-5.06c-1.36-0.67-2.77-1.27-4.22-1.73
				c-0.96-0.31-1.37,1.2-0.42,1.51c5.41,1.72,10.35,5.15,14.87,8.51c1.16,0.86,2.5,1.62,3.46,2.68c1.87,2.06,3.74,5.37,3.33,8.25
				c-0.29,2.04-1.64,3.53-3.09,4.88c-1.42,1.32-2.9,2.59-4.43,3.79c-3.18,2.52-6.57,4.78-10.05,6.87c-7,4.21-14.39,7.74-21.76,11.25
				c-16.14,7.68-32.46,14.97-48.84,22.12c-8.24,3.59-16.49,7.15-24.74,10.71c-3.7,1.59-7.35,3.27-11.03,4.9
				c-1.72,0.76-3.67,1.82-5.6,1.7c-1.54-0.09-3.02-0.93-3.82-2.26c-1.96-3.29,1.87-7.07,3.82-9.41c2.66-3.21,5.37-6.38,8.04-9.57
				c5.83-6.99,11.68-13.96,17.54-20.92c1.44-1.71,2.88-3.42,4.32-5.13C46.67,124.85,45.57,123.74,44.92,124.51L44.92,124.51z"/>
		</g>
	</g>
	<g>
		<g>
			<path class="st0" d="M64.62,107.05c5.25-5.63,10.8-10.97,16.64-15.99c2.67-2.3,5.34-4.81,8.44-6.51c1.48-0.81,3.08-1.3,4.71-1.73
				c0.51-0.13,1.31-0.16,1.76-0.46c0.36-0.24,0.5-0.68,0.28-1.07c-0.14-0.25-0.38-0.35-0.64-0.41c-0.98-0.19-1.4,1.31-0.42,1.51
				c0.37,0.07-0.08,0.06-0.29-0.31c0.09-0.36,0.19-0.71,0.28-1.07c0.25-0.17-0.24,0.02-0.4,0.06c-0.54,0.12-1.08,0.26-1.61,0.41
				c-1.54,0.44-3.05,0.94-4.46,1.72c-3.08,1.69-5.75,4.18-8.4,6.45c-5.96,5.11-11.63,10.56-16.99,16.3
				C62.83,106.68,63.93,107.78,64.62,107.05L64.62,107.05z"/>
		</g>
	</g>
	<g>
		<g>
			<path class="st0" d="M12.57,173.33c2.36,4.07,7.54,5.07,11.86,4.41c2.85-0.44,5.55-1.53,8.18-2.67c2.81-1.22,5.59-2.49,8.36-3.79
				c11.04-5.17,21.86-10.79,32.9-15.95c11.18-5.22,22.68-9.45,34.2-13.83c10.57-4.02,21.11-8.48,30.39-15.04
				c4.7-3.32,9.36-7.21,12.81-11.86c0.82-1.11,1.42-2.34,1.28-3.75c-0.14-1.37-0.88-2.66-1.55-3.83c-1.5-2.63-3.38-5.02-5.53-7.15
				c-0.72-0.71-1.82,0.4-1.1,1.1c1.86,1.84,3.51,3.87,4.86,6.11c0.66,1.09,1.45,2.3,1.72,3.57c0.34,1.64-0.83,2.96-1.81,4.12
				c-3.29,3.88-7.14,7.26-11.29,10.21c-8.69,6.18-18.51,10.51-28.42,14.33c-10.66,4.11-21.41,7.89-31.83,12.6
				c-10.32,4.66-20.4,9.83-30.59,14.76c-5.83,2.82-11.68,5.79-17.74,8.09c-4.75,1.81-12.24,3.12-15.35-2.23
				C13.41,171.67,12.06,172.46,12.57,173.33L12.57,173.33z"/>
		</g>
	</g>
	<g>
		<g>
			<path class="st0" d="M18.81,177.61c1.98,3.57,3.97,7.14,5.95,10.7c0.95,1.71,1.9,3.42,2.86,5.14c0.78,1.4,1.54,2.86,2.63,4.05
				c2.38,2.61,5.48,2.23,8.55,1.22c3.65-1.2,7.22-2.61,10.75-4.1c7.13-3.01,14.14-6.3,21.34-9.14c6.25-2.46,12.56-4.74,18.88-7
				c12.99-4.64,26.03-9.18,38.66-14.75c6.1-2.69,12.1-5.63,17.88-8.95c2.91-1.67,5.76-3.44,8.53-5.32c2.69-1.83,5.18-3.9,7.82-5.79
				c1.65-1.18,4.47-1.94,5.44-3.86c0.7-1.39,0.22-2.78-0.32-4.11c-0.69-1.71-1.49-3.36-2.37-4.98c-3.81-7.02-8.86-13.26-13.07-20.03
				c-0.57-0.92-2.03-0.07-1.46,0.85c3.61,5.81,7.82,11.23,11.37,17.08c1.67,2.76,3.45,5.72,4.39,8.83c0.7,2.31-2.41,3.32-3.99,4.25
				c-2.37,1.38-4.45,3.36-6.69,4.94c-2.62,1.86-5.32,3.6-8.07,5.26c-5.46,3.29-11.15,6.2-16.94,8.86
				c-12.01,5.53-24.49,9.99-36.93,14.43c-12.53,4.47-24.98,9.02-37.15,14.42c-3.94,1.75-7.88,3.5-11.89,5.08
				c-1.9,0.75-3.81,1.46-5.74,2.12c-1.79,0.61-3.9,1.52-5.81,0.9c-1.8-0.58-2.83-2.39-3.71-3.93c-1.03-1.81-2.02-3.64-3.03-5.45
				c-2.14-3.85-4.28-7.71-6.42-11.56C19.73,175.81,18.28,176.66,18.81,177.61L18.81,177.61z"/>
		</g>
	</g>
	<g>
		<g>
			<path class="st0" d="M30.03,197.21c1.76,3.63,4,7.59,8.04,9c2.48,0.86,5.14,0.42,7.58-0.34c2.86-0.9,5.65-2.03,8.46-3.07
				c11.44-4.25,22.84-8.64,34.18-13.17c20.67-8.25,41.77-16.37,60.89-27.88c5.14-3.1,10.12-6.47,14.84-10.18
				c1.13-0.89,2.25-1.8,3.36-2.73c1.09-0.92,2.3-1.86,2.91-3.19c1.13-2.47-0.56-4.82-2.09-6.64c-0.7-0.83-1.89,0.37-1.19,1.19
				c0.79,0.95,1.7,2.01,1.92,3.27c0.27,1.52-0.87,2.57-1.92,3.49c-1.95,1.7-3.99,3.32-6.06,4.87c-3.99,3-8.15,5.77-12.43,8.35
				c-8.66,5.23-17.75,9.69-26.98,13.8c-20.22,9.02-40.92,17.06-61.64,24.86c-2.99,1.13-5.99,2.24-8.99,3.35
				c-2.92,1.08-5.99,2.54-9.13,2.79c-5.4,0.42-8.23-4.39-10.28-8.62C31.01,195.38,29.56,196.23,30.03,197.21L30.03,197.21z"/>
		</g>
	</g>
</g>
</svg>
